<?xml version="1.0" encoding="utf-8"?>
<!-- Generator: Adobe Illustrator 12.0.0, SVG Export Plug-In  -->
<!DOCTYPE svg PUBLIC "-//W3C//DTD SVG 1.1//EN" "http://www.w3.org/Graphics/SVG/1.1/DTD/svg11.dtd" [
	<!ENTITY ns_flows "http://ns.adobe.com/Flows/1.0/">
	<!ENTITY ns_svg "http://www.w3.org/2000/svg">
	<!ENTITY ns_xlink "http://www.w3.org/1999/xlink">
]>
<svg id="elephant" version="1.1" xmlns="&ns_svg;" xmlns:xlink="&ns_xlink;" xmlns:a="http://ns.adobe.com/AdobeSVGViewerExtensions/3.0/"
	 width="303" height="250" viewBox="-0.4 -0.6 303 250" enable-background="new -0.4 -0.6 303 250" xml:space="preserve">
<defs>
</defs>
<path fill="#333333" d="M290.4,16.5c-4.6-4.2-10-7.4-16.6-9.5c-0.5-0.2-1.101-0.4-1.601-0.5c-2.699-0.9-5.6-1.5-8.699-2h-1.7
	c-2.7-0.2-5.8,0-9.2,1c-3.9,1-8.1,2.8-12.8,5.3c-3.2,1.8-6.4,3.8-10,6.2c-2,1.4-3.7,2.8-5.4,4.1c-2.7,2.1-5.1,4.1-7.2,6.2
	c-0.199,0.2-0.399,0.4-0.6,0.7c-0.6,0.5-1.1,1.1-1.6,1.7c-0.4-0.2-0.9-0.4-1.601-0.5c-1.399-0.4-2.8-0.4-4.2-0.3
	c-0.1,0-0.1,0-0.199,0.1c-0.5-0.8-1.9-2-4.5-3.7c-0.5-0.3-1.101-0.7-1.7-1c-2.8-1.8-6.101-3.4-9.5-5c-0.601-0.3-1.101-0.5-1.7-0.7
	c-1.4-0.6-2.6-1.1-3.9-1.6c-5-1.8-9.3-2.9-13.199-3.2c-3.4-0.3-6.301-0.1-8.9,0.7c-2,0.2-4.1,0.5-6.1,1c-0.9,0.1-1.801,0.3-2.7,0.5
	c-9.4,1.9-16.8,5-22.1,9c-0.2,0.2-0.6,0.4-0.9,0.6c-1.9,1.7-4,3.7-6.3,6.4c-0.9,1-1.6,1.8-2.3,2.5c-0.6-1-1.5-1.8-2.7-2.3
	c-0.8-0.4-1.4-0.6-2.3-0.7c-0.4,0-0.7,0-1.1,0v-0.7c0-0.2-0.7-0.8-2.2-1.5c-0.3-0.3-0.5-0.5-0.8-0.8c-1-1.4-1.5-3.4-1.5-6
	c0-1,0-2.7-0.2-5.2c-0.1-1-0.2-2.1-0.2-3.3c-0.3-3.2-1.7-5.9-4.5-8.2c-3.1-2.6-7.8-4.6-14.1-5.8h-3.4c-0.5,0.1-1,0.2-1.4,0.3
	c-11.7,2.3-21.9,7-30.5,13.8c-6.1,4.9-11.7,11.2-16.6,19c-1.5,2.3-3.6,5.6-6.6,9.9c-2.3,3.7-3.6,6.8-4,9.5c-0.5,2.8-1.5,6.8-2.7,12
	c-1.2,4.8-1.8,7.1-1.8,7.3c0,1,1.3,3,3.9,5.8c0.5,0.7,1.1,1.3,1.7,1.9c3.1,3.1,5.4,5.3,7,6.6c2.6,1.9,7.4,4.2,14.7,6.7
	c7.9,2.7,14.2,4.1,18.8,4.1c1.5,0,2.9-0.1,4.3-0.1c0.2,0,0.6,0,1,0c2-0.3,3.8-0.5,5.5-0.8c2.3-0.4,3.6-0.8,3.6-1.2
	c0-0.3,0-0.5-0.1-0.5l0,0l-3-0.2l-10.4,0.7c-4.8,0-10.9-1.3-18.3-3.8c-0.1,0-0.1,0-0.1,0c-1.7-0.5-3.2-1.1-4.7-1.7
	c-4.2-1.6-7.4-3.1-9.7-4.6c-4.1-3.7-7.2-6.7-9.3-8.9c-1.9-2-2.9-3.4-2.9-4c0-0.2,0.4-1.3,1.2-3.6c0.9-2.4,1.4-4.2,1.6-5.7
	c0.1-1.2,0.3-2.7,0.6-4.7c0.5-2.8,0.7-4.3,0.7-4.5c0.5-2.7,1.8-5.9,3.9-9.5c0.3-0.5,2.3-3.6,6-9.3c2.7-4.2,4.9-7.2,6.2-9.1
	c2.9-3.7,5.8-6.8,8.9-9.4c3.3-2.5,7-5,11-7.3c8-4.7,14.1-7.1,18.4-7.1c0.2,0,0.5,0,0.6,0c8.4,0,14.4,1.6,18.1,4.7
	c2.8,2.3,4.3,5.7,4.7,10.3c0.1,1.2,0.1,2.6,0.2,4.1c0,1.8,0.1,3.9,0.1,6.3c0.3,1.6,1,2.9,2,3.7c0.7,0.5,1.4,0.7,2.4,0.9
	c-0.1,0-0.2,0-0.3,0c-1.2,0.2-2.3,0.6-3.3,1.1c-0.1,0.1-0.4,0.3-0.5,0.3c-0.5,0.3-1,0.7-1.5,1.1c-1.5,1.4-2.4,3.2-2.4,5.1
	c0,0.3,0,0.5,0.1,0.6c0,0,0.1,0,0.2,0.1c0,0,0,0,0.1,0.1v-0.2c0-0.2,0.1-0.3,0.1-0.5c0.4-0.9,0.9-1.7,1.4-2.4c0-0.1,0-0.1,0.1-0.1
	c0.9-1.1,2.1-2,3.5-2.6c1.9-0.8,4.3-1.2,7-1.2c0.3,0,0.4,0,0.5,0c1.2,0,1.8,0.5,2.2,1.5c0,0.2,0.1,0.5,0.2,0.8c-1.6,1.7-3,3-3.8,3.8
	c-0.2,0.2-0.2,0.3-0.4,0.4c-2.1,1.7-5.3,3.4-9.7,5.3c-2.1,1-3.9,1.8-5.5,2.5c-3.1,1.5-5.1,2.4-6.1,2.9c0,0.1,0,0.1-0.1,0.1
	c-2.4,1.3-4.3,3.7-5.7,6.9c-1.3,2.8-1.9,5.4-1.9,8c0,0,0.1,0.6,0.2,1.8c0,0.5,0,0.8,0,1.3c0.4,0.9,0.8,1.5,1.2,2
	c0.8,0.7,1.8,1,3,1.1c0,0.1,0,0.1,0,0.1l0.1,2.3c0.4,1.4,1.3,2,2.7,2c0.4,0,0.5,0,0.6-0.2c0-0.3,0-0.4,0-0.4
	c-0.1-0.1-0.4-0.6-1.1-1.4c-0.4-0.5-0.5-0.9-0.5-1.3c-0.1-0.7,0.1-1.5,0.6-2.2c0.2-0.2,0.3-0.3,0.4-0.5V70c-0.1,0.3-0.1,0.9-0.1,1.8
	c0,1,0.1,1.9,0.6,2.8c0,0.2,0.1,0.4,0.2,0.6c0.1,0.3,0.3,0.4,0.4,0.6c-0.8,0.2-1.6,0.5-2.1,0.8c-1,0.7-1.5,1.4-1.5,2.1
	c0,0.2,0.1,0.5,0.5,0.8c-1.6,0.8-3,1.8-4.1,3c-2.3,2.3-3.4,4.8-3.4,7.5c0,1.8,0.1,3.3,0.2,4.8c0.1,1.5,0.3,2.8,0.4,3.9
	c0.7,3.4,2,5.7,3.9,6.8c-0.6,0.3-1.1,0.6-1.6,0.8c-2.7,1.4-6.2,2.5-10.5,3.5c-2.1,0.4-3.2,1.5-3.2,3.4c0,0.3,0.1,0.5,0.2,0.8
	c-2.4,1-4.7,2-6.9,2.8c-0.4,0.1-0.7,0.2-1,0.4c-4,1.4-7.6,2.5-11,3.3c-2.4,0.5-5,0.8-7.8,1.2c-4.6,0.5-9.7,0.7-15.7,0.7
	c-10.5,0-19.4-2.4-26.5-7.1c-1.6-1-3.4-2.5-5.2-4c-1.2-1.5-2.3-3.3-3.6-5.1c-0.2,0-0.2,0-0.3,0.1c0.3,0.7,0.6,1.5,1.1,2.3
	c-0.8-0.6-1.4-1.1-1.6-1.1c0.6,1.6,2,3.3,3.8,5c0.3,0.2,0.5,0.5,0.8,0.7c2.9,3.7,7,7.9,12.5,12.601c2.4,2.8,5.6,5.5,9.9,8
	c8.2,4.899,18.1,7.399,29.6,7.399c1.6,0,3.2,0,4.6-0.2c0.5,0,1.2,0,1.6,0c2.8-0.199,4.9-0.699,6.8-1.199c1-0.301,1.8-0.601,2.4-0.9
	c0.2,0.1,0.6,0.1,1.1,0.1c0.1,0,0.3,0,0.5,0c-5,8.5-7.5,17.2-7.5,26.301c0,4.3,0.9,8.699,2.7,13.3c1.1,2.899,2.6,5.7,4.4,8.6
	c0.8,1.2,1.5,2.3,2.4,3.5c2.7,3.8,4.7,6.601,5.8,8.3c0.2,0.5,0.5,0.801,0.7,1.2c2,3.5,3,6.9,3,10.3c0,1-0.3,2.101-0.7,3.5
	c-0.3,1.5-0.8,2.5-1.3,3.4c-0.3,0.5-1.5,1.6-3.5,3.4c-1.3,1.199-2.2,2.199-2.7,2.8c-0.5-0.5-1.1-1-1.5-1.601
	c-0.1-0.1-0.1-0.1-0.2-0.199c-1-1.101-2.1-2.5-3.5-4.301c-2.2-2.5-5.1-3.399-8.7-2.699c-2.9,0.5-4.6,1.399-5,2.699
	c-0.7,0-1.4,0.301-1.9,0.801c-1,1.1-1.9,2.5-2.5,4.199c0,0.101-0.8,1.5-2.2,4.101c-1,1.899-1.5,3.399-1.5,4.399
	c0,1.801,0.8,3.7,2.5,5.601c2.7,3.1,7.2,4.6,13.3,4.6c1.5,0,3.8-1.399,6.5-4.2c0.1-0.1,0.3-0.3,0.3-0.3c0.1-0.1,0.1-0.1,0.1-0.1h0.5
	c1.8,0,3.7-0.3,5.7-0.8c3.9-1.101,8-3.301,12.2-6.601c4.1-3.1,7-5.899,8.7-8.399c5-10.101,7.6-16.2,7.6-18.301
	c0-1.5,1.2-4.699,3.6-9.699c1-2,1.9-3.801,2.7-5.101c0.4,1.101,1.2,2.601,2.4,4.3c0.7,1.2,1.6,2.301,2.5,3.5
	c0.8,1.101,1.7,2.2,2.7,3.301c0.6,0.699,1.3,1.3,1.9,2c3.1,3.199,6.1,5.8,9.1,7.699c1,0.7,2,1.301,3.2,1.801c-0.2,0-0.3,0-0.3,0
	c0.8,1.699,1.5,3.199,2,4.899c1.3,3.5,1.9,6.8,1.9,9.9c0,1.5-0.4,3.6-1,6.1c-0.3,1.3-0.6,2.5-1,3.601c0,0.399,0.2,0.8,0.5,1.3
	c-0.2-0.101-0.4-0.3-0.6-0.5c-0.1,0.399-0.1,0.6-0.1,0.8c0,0.8,0.9,1.9,2.8,3.1c0.8,0.5,1.9,1.101,3.2,1.801c0.5,0.3,1,0.5,1.6,0.8
	c0.1,0.1,0.2,0.1,0.4,0.1c4.3,1.9,9.2,2.8,14.3,2.8c3.9,0,7.3-0.5,10-1.399c2.1-0.8,3.3-1.5,3.5-2.3l0,0c0,0.3,0,0.399,0,0.5
	c0.8,0.8,1.5,1.699,2.3,2.399c1.4,1.2,3,2.2,4.601,3c2.199,0.9,4.6,1.4,7.199,1.4c4.5,0,8.9-1.2,13.101-3.4
	c3.8-2.1,5.7-3.899,5.7-5.2c0.5-0.8,0.899-1.5,1.3-2.399c0.2,0.5,0.6,0.899,1.399,1.399c0.4,0.2,0.801,0.5,1.301,0.7
	c1.5,0.7,3.199,1.101,5.1,1.4c0.5,0,1.1,0,1.7,0c1.8,0,3.399-0.101,4.899-0.4c2.5-0.5,4.5-1.2,6-2.399
	C229,237,229.8,235.5,229.8,233.8c0-1-0.4-1.601-1.3-2c-0.101-0.101-0.2-0.101-0.301-0.101c1-2.399,1.9-5.399,2.7-8.899
	c1.4-6.301,2.3-10.101,2.8-11.5c1.4-3.9,3.801-8.9,7.2-15c3.101-5.5,4.7-8.301,4.7-8.5c0-0.301-0.1-0.5-0.1-0.601
	c-0.101-0.1-0.301-0.2-0.4-0.2c0.1-0.199,0.4-0.399,0.6-0.5c3.5-2.699,6.5-5.199,9.301-7.6c0.699-0.6,1.399-1.4,2.1-2
	c4.7-4.4,8.2-8.4,10.3-12.1c7.3-12.7,11-27.801,11-45.2c0-3.6-0.399-7.1-1.2-10.4c-0.1-0.3-0.1-0.6-0.1-0.7
	c-0.5-2.9-0.7-4.5-0.9-4.7c-0.199-1-0.6-1.8-1-2.3c-0.399-0.7-0.699-1.2-1.1-1.4c0.7-1.8,1.2-3.1,1.4-3.6c0.899-2.5,1.8-4.7,3-6.9
	c0.3-0.8,0.699-1.6,1.199-2.3c2.101-3.6,4.5-6.5,7.301-8.7c1.1-1,2.399-2.4,3.699-4.3c0.801-1.3,1.7-2.8,2.5-4.4
	c1.2-2.1,2.4-4.6,3.5-7.4c3.7-8.5,5.4-15,5.4-19.4c0-7.1-1.9-13.6-5.8-19.6c-0.601-0.9-1.2-1.7-1.8-2.5
	C293.2,19.3,291.8,17.8,290.4,16.5z M272.8,9.2c3.2,1.3,6.399,3.1,9.899,5.5c2.301,1.5,4.2,2.9,5.9,4.2c2,1.6,3.7,3.1,4.9,4.4
	c0.6,0.7,1.199,1.9,2,3.5c0.6,1.5,1.199,3.4,1.899,5.7c1.3,4.8,2.101,8.3,2.101,10.7c0,3-1.2,8.3-3.5,16.3
	c-1.301,3.8-2.301,6.5-3.2,8.3c-1.5,3.1-3.601,5.8-6.2,8c-2.4,2.2-4.5,4.5-6.4,7c-2.199,3-4.1,6.2-5.6,9.7
	c-1.7,3.7-3.7,9.1-6.1,16.4v2c-1.4-0.6-3-1.4-4.9-2.1c-2.5-1.2-4.5-2.2-6-3.1c-0.2-0.1-0.5-0.7-1-1.7c-0.3-0.7-0.8-1.2-1.4-1.5
	c-0.1-0.2-0.399-0.2-0.6-0.3c-0.4-0.2-0.9-0.1-1.5,0.2c-0.2,0.1-0.4,0.1-0.5,0.1c-0.1,0.1-0.2,0.1-0.4,0.3c-0.6,0.2-1,0.5-1.199,0.7
	c-0.9-0.7-2.5-1.8-4.601-3c-1.3-0.8-2.3-1.5-3.3-2c-1.4-0.9-2.6-1.6-3.6-2.2c-2.9-1.5-6.101-2.7-9.7-3.5c-1.2-0.3-2.4-0.5-3.7-0.8
	c-2.3-0.4-4.6-0.6-7.4-0.7c-2.3-0.3-5-0.3-7.699-0.3c-0.5,0-1.301,0-2.301,0.3c0-0.5-0.1-1-0.199-1.7c-0.2-0.6-0.301-1.1-0.301-1.3
	c0-0.2,0.4-1.3,1.4-3.3c1-1.9,1.4-3.7,1.4-5.5c0-1.5-0.5-3.5-1.801-6.2l0,0c-1.1-2.6-1.8-3-1.8-1.3l0,0v0.1c0,0.4,0.101,0.7,0.2,1.2
	c0,0.2,0,0.4,0,0.6c0,0.1,0,0.1,0.1,0.1c0.101,0.5,0.301,1.1,0.5,1.7c0,0.1,0,0.1,0,0.1c0.601,1.4,0.9,2.4,0.9,2.9
	c0,1.7-0.5,3.6-1.6,5.6c-1.101,2.1-1.7,3.5-1.7,4.2c1,3.4,2,5.1,3.2,5.1c0.1,0,0.399-0.1,0.6-0.3c0.4-0.3,1.1-0.4,2.2-0.4
	c2.2,0,4.3,0.1,6.3,0.3c3.7,0.3,7.3,1,10.7,1.9c3.8,1.1,7.399,2.6,10.8,4.4c1,0.7,1.9,1.3,2.7,2c4.5,3,7.3,4.6,8.399,4.6
	c0.4,0,0.801-0.1,1-0.2c0.4-0.2,0.5-0.6,0.5-1.1c0,0,0-0.2-0.1-0.3c0.4-0.3,0.8-0.5,1.5-0.5c0.2,0,0.9,0.8,2.1,2.2
	c0.801,0.8,1.4,1.3,1.801,1.8c0.399,0.4,0.699,0.6,0.899,0.8c1.101,1,2.2,1.7,3.3,2.4c2.101,1.4,3.9,2.1,5.5,2.1
	c0.5-0.1,0.9-0.1,1.301-0.1v0.9h0.199c0.101-0.3,0.101-0.6,0.301-1c0.199-0.1,0.6-0.1,0.899-0.3c0.601-0.1,1.101-0.3,1.5-0.6
	c-0.6-0.3-1.2-0.5-1.8-0.8c0-0.1-0.1-0.1-0.2-0.1c0.5-1.8,1.2-3.8,2.2-6c0.7-1.5,1.3-2.8,1.8-3.8c0.2,0.7,0.5,1.8,1,3.3
	c0.2,0.6,0.3,1.4,0.601,2.1c0.5,1.7,0.699,3.3,1.1,4.8c0.5,2.6,0.6,4.9,0.6,6.8c0,8.5-0.6,16.1-1.899,22.7
	c-1.7,8.4-4.601,15.8-8.5,22c-2.3,3.601-5.101,7.101-8.3,10.4c-0.301,0.399-0.601,0.7-0.9,0.899c-0.5,0.5-0.9,1-1.4,1.4
	c-2.899,2.8-6.3,5.6-10.199,8.6c-0.4,0.301-0.9,0.601-1.4,0.9c-2.1,1.6-5.9,4.1-11,7.5c-1.6,1.1-3.4,2.1-5.3,3.4
	c-6.2,4.3-9.2,8-9.2,10.899c0,0.101,0,0.3,0,0.4c0.4-0.3,1.4-1.101,2.8-2.2c0.5-0.4,1.101-0.9,1.7-1.4c0,0,0,0,0.1,0
	c2.2-1.8,5.2-4.199,9-7.1c3.2-2.4,6.801-5.2,10.9-8.4c-2.5,2.7-5.6,8.801-9.4,18.101c-1.899,4.5-3.3,8.6-4.399,12.1
	c-0.101,0.3-0.2,0.7-0.3,1.101c-1.601,5.399-2.5,9.8-2.5,13c0,0.399,0.1,0.699,0.5,1.199c-0.2,0.7-0.4,1.301-0.801,1.7
	c-0.5,0.7-1.1,1.2-2,1.601c0-0.2,0-0.5,0-0.801c0-0.899-0.399-1.699-1-2.199c-0.5-0.4-1.1-0.7-1.8-0.9c-1.399-0.5-2.3-0.4-2.7,0.3
	c-0.1-0.2-0.1-0.399-0.3-0.5c-0.899-1.1-2.8-1-5.8,0.3c-0.4-0.5-0.9-1-1.4-1.5c-0.1-0.1-0.199-0.199-0.399-0.399
	c-0.3-0.2-0.601-0.4-0.8-0.5c-0.4-0.4-0.601-0.5-0.9-0.5c0.1-0.601,0.3-1.3,0.4-2c0.199-2.5,0.5-4.9,0.8-7c0-0.101,0-0.101,0-0.101
	c0.399-3.5,0.8-6.3,1.2-8.5c0.1-0.6,0.199-1.1,0.199-1.6c-1.1,1.6-2.1,3.9-2.6,7.1c-1.1,5.101-1.6,7.7-1.7,7.7
	c0,2.601-0.7,5.8-2,9.5c-0.6,1.8-1.1,3.2-1.399,4.101c-0.2,0.1-0.4,0.199-0.601,0.399c-0.7,0.4-1.7,1.3-3.3,2.4
	c-1.1,0.7-2.3,1.399-3.6,1.899c0.3-0.5,0.5-1,0.5-1.3c0-3-1.4-4.399-4.101-4.3c-1,0.1-1.899,0.3-2.8,0.7c-0.5,0.2-0.9,0.399-1,0.6
	c-1.3-1.899-3.5-2.2-6.9-1V239c-0.8-2.399-2.199-3.5-4-3.5l0,0c-0.399,0-0.699,0.101-1.1,0.2c0,0-0.1,0.101-0.1,0.2
	c-0.601,0.3-1.101,0.8-1.4,1.6c-0.5,0.9-0.7,1.801-0.7,2.7c0,0.9,0.2,1.4,0.5,2c0.2,0,0.2,0.2,0.3,0.3
	c0-0.1,0.101-0.199,0.301-0.199c0.1-2.101,0.5-3.7,1.1-4.5c0.5-0.4,0.9-0.601,1.5-0.601c0.5,0,1.2,0.8,1.9,2.5
	c0.3,0.9,0.6,1.601,0.699,2.101c0.101,0.399,0.2,0.8,0.2,0.899c-0.2,1.101-0.3,2-0.3,2.7c0-0.1-0.1-0.1-0.2-0.1
	c-0.2,0-0.399-0.101-0.5-0.101c-0.1-0.1-0.2-0.1-0.2-0.1c-1.1-0.4-2-0.9-3-1.5c-0.5-0.4-1-0.7-1.5-1c-0.1-0.101-0.199-0.2-0.3-0.3
	c-0.7-0.5-1.3-0.801-1.899-1.2c0.199-0.3,0.199-0.5,0.199-0.9c0-0.5-0.1-1.2-0.3-2.399C173.1,236.7,173,236,173,235.6
	c0.1-3,0.199-5.101,0.199-6.5c0-1,0.2-2.3,0.301-4c0.199-1.8,0.3-2.8,0.3-2.8c-0.2-4.301-0.3-7.601-0.3-9.7c0-2.9-0.4-5.3-1.101-7.3
	c-0.2-0.301-0.3-0.5-0.3-0.7c2.3-0.101,4.9-0.8,7.9-2.2c0.699-0.4,1.5-0.7,2.1-1.1c0.5-0.301,0.9-0.5,1.2-0.801
	c1.3-0.899,2.1-1.699,2.2-2.6c-0.5,0.2-2.5,1.1-6.101,2.6c-3.8,1.5-6.8,2.2-8.7,2.2c-0.199,0-1.1-0.3-2.5-0.899
	c-1.5-0.601-2.5-0.9-3.1-0.9c-0.5,0-0.6,0.1-0.5,0.1c0,0,0,0.2,0,0.301c0.1,0.699,0.9,1.5,2.1,2.199c1.4,0.801,2.9,1.101,4.5,1.101
	c0,0.1,0,0.2,0,0.2c0,7.199,0,13-0.1,17.399c-0.3,4.3-0.3,8.8-0.3,13.5c0,0.101,0,1,0,2.9c0,0.7,0.3,1.3,0.399,1.7
	c-0.8,0.3-1.6,0.699-2.199,1.3c-1.301,0.6-4.2,1-8.5,1c-0.5,0-1,0-1.5,0c-0.4,0-0.601,0-0.9,0c-2.1,0-4-0.2-5.9-0.5
	c0.101-0.3,0.301-0.601,0.4-1.101c0.1-0.8,0.1-1.5,0.1-1.8c0-0.899-0.1-1.6-0.3-2.2c1.8-1.399,3.2-0.899,4,1.301
	c1,2.8,1.601,4.199,1.7,4.199c0.3,0,0.5,0,0.5-0.199c0-0.101,0-0.2,0-0.2V239.5c-0.5-1.399-1.2-2.5-2.1-3.3
	c-1.4-0.899-2.801-0.7-4.301,0.4c-0.6-1.3-1.7-2.3-3.5-3c-0.3-0.101-0.6-0.2-1-0.3c-0.1,0-0.2,0-0.5-0.101c-0.5,0-0.9,0-1.3,0.101
	c-0.3,0-0.4,0.1-0.6,0.199c-0.1-0.199-0.2-0.3-0.2-0.5c-0.7-0.8-1.6-1.399-2.8-1.899c-0.2-0.101-0.3-0.101-0.4-0.2
	c-0.7-0.2-1.2-0.3-1.7-0.3c0.5-1.5,0.8-2.5,0.8-3.101c0-3.5-0.4-7-1.2-10c-0.5-2.199-1.2-3.899-2-5c-0.4-0.899-1-1.399-1.7-1.8
	c0.7,0.3,1.4,0.601,2,0.8c2,0.7,3.9,1,5.7,1c1.1-0.199,1.9-0.3,2.4-0.3c-2.6-0.7-5.1-1.7-7.6-2.8c-5.4-2.4-10-5.6-13.8-9.6
	c-0.7-0.601-1.3-1.301-2-2.101c-0.2-0.399-0.6-0.7-0.8-1.1c-0.9-1.101-1.8-2.3-2.7-3.601c-1.5-2.199-3-4.5-4.6-7.199
	c0.7-0.801,1.1-1.301,1.6-1.601c2.9-1.899,5.3-3.6,7.4-4.899c2.2-1.5,3.9-2.801,5.3-3.7c0.4-0.3,0.7-0.601,1-0.8
	c4.6-3.5,7.6-6.601,8.8-9.301c0.4-0.699,0.8-1.699,1-3c0.3-1.199,0.6-2.699,0.8-4.5c0.1,0,0.1,0,0.1,0c0.4,0.301,0.9,0.4,1.7,0.5
	c1.1,0.5,3,0.801,5.6,1V159.3c2-0.301,3.7-0.801,5.3-1.301c2.899-1,5.3-2.199,7.1-3.8c0.3-0.399,0.7-0.899,1.101-1.2
	c2.3-1.899,4.1-3.5,5.3-4.8c0.899-1.2,1.3-2,1.3-2.7c0-0.3,0-0.5-0.1-0.5c0-0.1-0.101-0.1-0.101-0.199c-0.1,0-0.1,0-0.1,0.1
	c-1,0.4-3.101,2.5-6.4,6.1c-2.3,1.9-4.7,3.301-7.2,4.2c-2.5,0.9-5.2,1.3-8.1,1.3c-0.4,0-1.6,0-3.5-0.199c0,0-0.2-0.101-0.5-0.301
	c-0.3-0.3-0.6-0.399-0.9-0.399c-0.1,0-0.1,0-0.2,0c0.1-1.3,0.2-2.7,0.4-4.2c1.1,0.9,3.4,1.4,6.9,1.4c2.5,0,5.2-1.601,8.2-4.601
	c0.199-0.399,0.5-0.7,0.8-1c2.2-2.6,3.5-4.5,4.1-6c0.2,0.101,0.5,0.2,0.8,0.4c1.9,0.899,3.9,1.7,5.9,2.5c0,0,0,0,0.1,0.1
	c2.9,1,5.7,1.9,8.601,2.7c0.5,0.1,0.899,0.1,1.399,0.4c0,0,0,0,0.2,0c6.5,1.5,13.2,2.199,20.4,2.199c0.399,0,0.8,0,1.3,0
	c2.6-0.199,5.9-0.899,9.7-2.199c3-1,6.3-2.301,10-4C226,140.1,230.2,138,232.7,136.7c1.101-0.6,1.9-1,2.301-1.2
	c2.3-1.1,5.399-3.899,9.199-8.5c1.4-1.5,2.4-2.899,3.4-4.2c1.7-2.5,2.5-4.3,2.5-5.5c0-0.8-0.3-1.3-0.9-1.5c-0.1,0-0.199,0-0.399,0
	c-0.101,0-0.2,0-0.2,0c0-0.1,0-0.2-0.1-0.2c0-0.1-0.101-0.1-0.2-0.1c-0.5,0.3-2,1.3-4.601,3.3c-2.699,2.1-5.199,3.8-7.6,5.2
	c-0.2,0.1-0.3,0.2-0.4,0.3c-6.3,3.6-13.3,5.9-20.8,6.9C212,131.6,209.1,131.8,206,131.8c-0.2,0-0.4,0-0.5,0
	c-6.5-0.101-12.301-0.4-17.4-1.2c-1-0.101-2-0.3-3-0.4c-0.7-0.2-1.5-0.399-2.3-0.5c-0.7-0.2-1.5-0.399-2.2-0.5
	c0.7-0.6,1.5-1.899,2.5-4.2c0,0,0.1,0,0.2,0c0.399,0,0.8,0,1.3-0.199c1-0.101,2-0.5,3.1-1c3.301-1.8,6.4-5.3,9.7-11
	c3.3-6,5.3-11.7,6.101-17.1c0.1-1.4,0.3-2.9,0.3-4.3c0-0.6-0.101-1.1-0.2-1.8c0-0.1,0-0.4,0-0.6c-0.1-0.6-0.2-1.2-0.5-1.8
	c-0.5-1.7-1.5-3.5-2.7-5.2c-0.1,0-0.1-0.2-0.2-0.2c-2.1-2.6-4.899-4.3-8.3-5c-0.399,0-0.8-0.1-1.3-0.2c0,0-0.1,0-0.2,0
	c-0.3-0.1-0.7-0.1-0.899-0.1c-1.7,0-3.301,0.1-5,0.5c-1.301,0.1-2.301,0.3-3.4,0.5c0,0,0-0.1,0.1-0.2c0-0.2,0-0.4,0-0.7
	c0-1.9-0.699-3.7-2-5.4c-0.6-0.9-1.199-1.5-2-2c-0.699-0.5-1.5-0.9-2.3-1c-4.2-0.9-6.3,2.4-6.3,10.3c0,0,0,0.5,0,1.5
	c0.1,0.8,0.6,1.3,1.4,1.5c-0.9,0.5-1.7,1-2.601,1.7c0,0,0,0-0.1,0.1c2.399-1.1,4.899-2,7.399-2.7c1.9-0.6,3.801-1.1,5.7-1.3
	c2.9-0.5,5.8-0.8,8.8-0.8c0.601,0,1.301,0,1.9,0.1c3.3,0.6,6,2.3,8,5.5c0,0.2,0.1,0.2,0.2,0.4c1.399,2.3,2.2,4.5,2.3,6.4
	c0,0.1,0,0.1,0,0.3c0,1.6-0.5,4.5-1.6,8.6c-0.9,4-1.801,6.5-2.4,7.7c-2.1,3.3-4.4,6.3-7,9.1c-1,1.2-2.2,2.2-3.5,3.4
	c-0.4,0.3-0.7,0.6-1.1,1c-0.801,0.6-1.4,1.2-2,1.7c0.5-1.4,0.699-2.4,0.699-2.9s-0.1-1-0.1-1.1c-1.6,0.5-3.1,2.3-4.4,5.3
	c-0.6,1.5-1.1,3-1.399,4.3c0,0.199,0,0.199,0,0.399c-1.8-0.6-3.601-1.2-5.2-1.899c-0.6-0.301-1.1-0.5-1.6-0.801
	c-0.4-0.1-0.601-0.199-0.9-0.399c0.1-0.101,0.4-0.101,0.6-0.3c1.4-1,2.801-2.9,4.2-5.8c0.101,0,0.101-0.1,0.2-0.2
	c1.6-3.5,2.5-5.8,2.5-6.8c0-0.2,0-0.5-0.1-0.7c0,0,0,0,0,0.1c-0.9,0.6-1.7,1.2-2.301,2.1c-0.399,0.2-0.699,0.5-1.199,1
	s-1.301,1.3-2.2,2.3c-1.3,1.2-2.9,2.1-4.8,2.5c-1.5,0.4-2.4,0.6-2.4,0.7v0.3c0.4,0.3,1,0.5,2,0.5c0.9,0,1.8-0.3,2.8-0.7
	c1.101-0.5,2.2-1.1,3.4-2.1c0.3-0.2,0.6-0.5,0.8-0.7c0,0.2-0.1,0.4-0.1,0.5c-0.601,1.2-1.7,2.7-3.4,4.4c0,0.1,0,0.1,0,0.1
	c-0.7,0.6-1.3,1.2-1.8,1.7c-1.5-1-2.8-2.1-3.9-3.399c-0.2-0.1-0.3-0.4-0.399-0.6c-0.4-0.3-0.601-0.6-0.801-0.9
	c-0.3,0-0.5,0.2-0.6,0.4c-0.1,0.1-0.2,0.3-0.2,0.6c0,0.3,0.101,0.5,0.2,0.8c0.1,0.6,0.5,1.4,1,2c1.3,1.6,3.6,3.1,7,4.7
	c0.4,0.2,0.9,0.399,1.4,0.7c2.6,1.1,5.699,2,9.199,2.8c0.601,0.2,1.4,0.3,2.2,0.399c5.8,1.101,12.7,1.601,20.4,1.801
	c0.5,0,0.899,0,1.399,0c2.801,0,5.4-0.301,8-0.5c7.601-0.9,14.601-3.101,21.2-6.7c0-0.101,0-0.101,0.101-0.101
	c1.3-0.699,3.5-2.2,6.6-4.6c0.3-0.3,0.6-0.6,1-0.9c2.4-1.7,3.9-3,4.7-3.8c0.2,0.1,0.3,0.2,0.3,0.4c0,1.2-1.5,3.4-4.3,6.5
	c-1.7,1.899-3.601,3.899-5.7,5.7c-1.4,1.199-2.9,2.5-4.5,3.699c-0.4,0.301-0.6,0.5-1,0.7c-1.9,1.4-3.8,2.8-5.6,4
	c-5.801,3.5-11.2,6.101-16.601,7.601c-3.3,1-6.5,1.5-9.7,1.699c-1,0.101-1.899,0.101-2.8,0.101c-6.8,0-13.1-0.601-18.899-2
	c-0.5-0.101-1-0.2-1.5-0.3c-3.101-0.801-6.101-1.7-8.9-2.801c-3-1.1-5.8-2.5-8.5-4c-0.1,0-0.3-0.1-0.5-0.199
	c-5-2.9-8.7-5.801-11-8.801c-0.1,0-0.2,0-0.2,0.101c0-0.101,0-0.101,0.1-0.101v-0.1c1-1.1,2.3-2.6,3.7-4.6
	c3.301-4.3,5.5-6.5,6.801-6.5c0.5,0,0.899,0,1.3,0.2c0.3,0.2,0.7,0.3,0.899,0.6c0.601,0.5,1.101,0.7,1.4,0.7c0.2,0,0.4,0,0.5-0.1
	c0.1-0.1,0.2-0.1,0.3-0.1c0-0.3,0-0.6,0-0.8c0-0.1,0-0.2,0-0.3c-0.2-0.7-0.8-1.2-1.899-1.7c-1.301-0.5-2.7-0.5-3.9,0
	c-0.2,0-0.5,0-0.6,0.1c-0.7,0.3-1.5,0.9-2.4,1.7c-0.5,0.5-1.1,1.3-2.1,2.4c-0.301,0.3-1.4,1.8-3.3,4.5
	c-1.8,2.301-3.4,3.601-4.3,3.801c-0.1,0-0.1,0-0.2,0c-0.2,0-0.5-0.101-1-0.301c-0.4-0.199-0.7-0.3-1.1-0.3c0,0,0,0-0.1,0
	c0-0.3,0-0.5,0-0.7c0-0.5,0-0.699,0-1.199c-0.1-2.8-0.2-5-0.4-6.601c-0.1-1.2-0.3-2-0.5-2.6h-0.1c0,0.2,0,0.5,0,0.7
	c0,0.3,0,0.7-0.1,1c0,0.2,0,0.4,0,0.7l0,0c-0.3,4.5-0.5,8.3-0.7,11.6c-0.3,5.399-0.5,9.2-0.6,11.399c0,0.601,0,1,0,1.4
	c0,2.4-0.3,6.1-0.9,11.4c-0.3,4.8-1.8,8.699-4.5,11.8c-0.9,1.2-2.4,2.7-4.5,4.399c-0.6,0.5-1.2,1-1.9,1.5c-1.2,1-2.5,2-3.6,2.801
	c-1.6,1.1-3.1,2-4.3,2.699c-3.4,1.7-6.2,3.601-8.1,5.801c-1.3,1.5-2.6,3.399-3.6,5.5c-1.3,2.699-2.7,6.6-4.1,11.699
	c-1.5,5.2-2.8,9-4,11.601c-2.1,4.6-5.2,8.6-9.2,11.8c-2,1.6-3.8,3-5.4,4.2c-0.8,0.6-1.4,1-2,1.6c-0.1,0-0.2,0-0.3,0.101
	c-0.2,0.199-1.1,0.5-2.6,1c-0.5,0.1-0.8,0.199-1.2,0.3c-0.9,0.3-2,0.6-3.2,0.899c-0.1,0.101-0.2,0.101-0.3,0.101
	c-0.5,0.2-1,0.3-1.4,0.5c0-0.2,0.1-0.3,0.1-0.4c0.6-0.6,0.9-1.1,0.9-1.3c0-0.3-0.1-0.4-0.2-0.5c0-0.1-0.2-0.1-0.4-0.1
	c-0.8,0.3-1.7,0.699-2.3,1.199c-0.4,0.2-0.6,0.4-0.9,0.601c-0.7,0.6-1.3,1.2-1.8,2c-0.2,0.3-0.4,0.6-0.6,1C69,238.2,67,239,63.8,239
	c-3.5,0-6.5-1.1-9.1-3.399c-0.7-0.601-1.3-1.3-1.8-1.9c-0.1,0-0.1,0-0.1-0.1c-0.1,0-0.1-0.101-0.1-0.101c-0.7-0.899-1-1.8-1-2.5
	c0-0.199,0.7-1.699,2.1-4.399c0,0,0,0,0.2,0c0.1-0.5,0.4-1,0.6-1.5c2.1-3.9,3.3-5.8,3.6-5.8c0.1,0,0.6,0.199,1.5,0.699
	c1,0.5,1.8,0.801,2.3,0.801c0.1,0,0.3-0.2,0.5-0.301c0.1-0.199,0.3-0.5,0.3-0.699c0-0.301-0.1-0.5-0.2-0.5
	C62.5,219,62.5,219,62.5,219c-0.4,0-1.1-0.199-2.4-0.8c0.3-0.2,0.5-0.3,0.8-0.399c1.2-0.801,2.6-1.101,3.8-1.101
	c2.3,0,4.9,1.8,8,5.5c0.8,0.601,1.4,1.4,2,2c2.3,2.2,4.1,3.3,5.7,3.3c0.4,0,0.8,0,1.2,0c0.9-0.199,1.6-0.5,2.1-0.899
	c0.7-0.5,0.9-1,0.9-1.601c0-0.3,0-0.399,0-0.399h-0.5c-0.3,0-0.7,0.2-1.4,0.5c-0.1,0-0.2,0.1-0.3,0.1c-0.1,0-0.2,0-0.2,0.101
	c-0.1,0-0.1,0-0.2,0c-0.4,0-0.8,0.1-1.2,0.1c-0.6,0-1.2-0.1-1.7-0.4c0.9-0.199,1.8-0.5,2.6-1.1c0.6-0.4,1.1-1.1,1.6-1.6
	c0.8-1.2,1.7-2.7,2.3-4.5c1-4.801,1.5-7.301,1.5-7.5V210.2c0-3.6-1-7.2-2.9-10.7c-0.5-0.8-1.1-1.899-2-3.199
	c-1.1-1.801-2.6-3.801-4.6-6.5c-1.1-1.601-2.2-3.2-3.2-4.801c-2.1-3.399-3.6-6.6-4.7-9.699c-1.1-3.5-1.6-6.801-1.6-10
	c0-11.101,5-23.4,15-36.801c1.4-1.899,3.4-4.3,5.8-7.3c1.3-1.7,2.8-3.4,4.5-5.4c1.3-1.5,2.3-2.8,3.1-3.8c1.1-1.4,1.6-2.4,1.6-2.7
	c0-0.3,0-0.5-0.1-0.5h-0.4c-0.2,0.2-0.4,0.5-0.5,0.6c-0.4,0.4-0.7,0.6-1,1c-0.6,0.8-1.3,1.4-1.9,2.2c-1.2,1.4-2.5,2.9-3.6,4.2
	c-0.2,0.3-0.4,0.5-0.6,0.8c-0.3-2.5-2.2-4.4-5.7-5.7c-0.5-0.1-1-0.3-1.5-0.4c1.9-0.4,3.1-0.7,3.6-0.9c0.2-0.1,0.6-0.2,1-0.3
	c0.9-0.4,1.8-0.8,2.9-1.3c1.4-0.7,2.3-1.1,2.8-1.4c0.5-0.2,1.1-0.6,1.7-0.9c0.3-0.2,0.6-0.4,0.9-0.6c1.1-0.8,2.2-1.5,3.3-2.3
	c0.5-0.5,1-1,1.6-1.5c0.9-0.8,1.8-1.7,2.8-2.8c3.4-3.6,6-6.8,7.7-9.5c1.9-3.4,2.9-6.5,2.9-9.3c0-1.5-0.3-3.3-0.8-5.4
	c-0.6-2-1.4-3.8-2.2-5.2c-0.4-0.4-0.9-0.8-1.4-1.1c-3.3-2.5-6.5-3.2-9.4-2c-0.1,0-0.1,0-0.1,0c-0.5,0.3-1,0.5-1.5,0.7
	c-0.8,0.5-1.5,1-1.9,1.6c-0.3,0.2-0.6,0.3-1.2,0.3c-0.7,0-1.3-0.4-1.7-1.3c0-0.1-0.2-0.3-0.2-0.5c-0.4-0.9-0.5-1.8-0.5-2.8
	c0-0.5,0-1.2,0.3-2c0.1-0.6,0.2-1.2,0.5-2c0.6-1.5,0.8-2.4,0.8-2.4c0-2.6,1.1-4.8,3.4-6.4l0,0c1.3-0.9,3.3-1.9,6-2.9
	c0.6-0.2,1.3-0.5,2-0.8c4.6-1.5,7.9-2.9,9.9-3.9c2.6-1.3,4.7-2.8,6.6-4.6c0.9-0.8,1.5-1.7,2.2-2.6c2.1-2.8,4.3-5.2,6.6-7.4
	c4.7-4.4,9.7-7.7,15.3-9.8c2.8-1,5.9-1.9,9.3-2.5c0.699-0.2,1.6-0.3,2.399-0.4c4.3-0.8,9.2-1.1,14.601-1.3c1.1,0,2.199,0,3.3,0
	c2.7,0,6.1,1,10.5,2.8c1.2,0.5,2.3,1.1,3.7,1.7c1.5,0.8,3.199,1.7,5,2.7c2.399,1.4,4.5,2.6,6.199,3.7c2.301,1.3,3.9,2.2,5,2.8
	c-2.3,1.3-3.6,3.8-3.6,7.8c0,2.2,0.4,3.9,1,5c0.6,1.4,1.7,2.5,3.4,3.5c0.6,0.4,1.5,0.8,2.3,1.1l-0.2-0.1c-0.6-0.5-1.3-1-1.9-1.5
	c-0.899-1-1.6-2.2-2.1-3.5c-0.1-0.2-0.1-0.3-0.2-0.5c-0.6-1.9-0.899-3.8-0.899-6c0-1.1,0.5-2.2,1.5-3.2c1.699-1.7,4.5-2.3,8.199-1.8
	c-0.699,0.8-1.3,1.5-1.699,2.3c-0.101,0-0.101,0.2-0.2,0.2c-0.101,0.2-0.2,0.3-0.3,0.5c-0.5,0.9-0.801,1.8-0.801,2.4
	s0.2,1.2,0.601,1.8c0,0.1,0.2,0.2,0.2,0.3c0.6,0.8,1.399,1.4,2.399,1.5c-0.6-0.5-0.8-1-1.1-1.5c-0.101,0-0.101-0.2-0.101-0.2
	C213.1,37.4,213,37,213,36.5s0.1-0.9,0.1-1.4c0.3-1.6,1.3-3.3,2.8-5.2c1.7-2.2,4.2-4.5,7.601-6.9c2.5-1.7,5.3-3.6,8.6-5.5
	c2-1.1,3.9-2.1,5.7-3c4.8-2.6,9.3-4.5,13.3-5.7c4.4-1.4,8.3-2,11.6-2c2.7,0,5.4,0.5,8.5,1.7C271.7,8.6,272.3,8.9,272.8,9.2z
	 M172.4,71.6c0.4-1.3,0.7-2.1,1.101-2.1c0.699,0,1.399,0.3,2.1,0.9c-0.1-0.1-0.2-0.1-0.4-0.1c-1.399,0-2.1,0.6-2.1,1.7
	c0,0,0.2,0.5,0.4,1.6c0.199,1.1,0.8,1.7,1.6,1.7c1.3,0,2-1.1,2-3.3c0.4,0.5,0.7,1.2,1,1.8c1,2,1.7,3.4,2.1,4
	c-2.899,0.6-5.199,1.2-7.1,2c-0.5,0.3-1.1,0.5-1.7,0.9c0-0.1,0-0.2,0-0.2c0-0.2-0.2-0.6-0.3-1.1c-0.3-0.5-0.4-0.9-0.4-1.1
	c0.101-1,0.4-1.8,0.601-2.6c0.3,0.3,0.5,0.7,0.6,1.2c0.101,0.6,0.2,0.9,0.5,1.1c0.601-0.4,1-1,1-1.8c0-0.7-0.2-1.1-0.399-1.4
	c-0.4-0.4-0.9-0.3-1.5,0.5c0.199-1.5,0.6-2.8,0.899-3.5C172.4,71.6,172.4,71.6,172.4,71.6z M176.1,72c0,0.3,0,0.5,0,0.7
	c0,0.5-0.4,0.9-1.1,1.5c-0.5-0.4-0.9-1-1.301-1.9C174.5,72,175.2,71.9,176.1,72z M100.1,72c0.1-0.7,0.3-1.3,0.3-1.7
	c0.1-0.7-0.2-1.1-0.6-1.5c0.9-0.5,2.1-0.6,3.7-0.6c0.6,0,1.4,0.1,2,0.3c0,0.1,0,0.3,0,0.5c-0.4-0.2-0.9-0.4-1.5-0.5
	c-1.3-0.2-1.9,0.4-1.9,2c0,1.3,0.5,1.8,1.8,1.8c0.6,0,1.1-0.3,1.6-0.8v-0.1c0,1.4-0.1,2.5-0.1,3.4l0.1,0.2c-1,0.2-2.4,0.3-4.2,0.7
	h-0.1c-0.1-0.4-0.3-0.9-0.5-1.5C100.3,73,100.1,72.3,100.1,72z M104.7,71.3c-0.2,0.2-0.3,0.3-0.5,0.3c-0.6-0.4-1.1-0.8-1.1-1.1
	c0-0.2,0.3-0.4,0.6-0.5c0.4-0.2,0.9-0.4,1.3-0.4c0,0.4,0,0.7,0.1,1.2C105.1,70.9,105,71,104.7,71.3z M107.7,71.8
	c0-0.8-0.1-1.5-0.4-2.3c0.9,0.7,1.8,1.7,2.6,3.1c0.2,0.4,0.4,1,0.7,1.6c0,0.2,0.1,0.5,0.3,0.8c0.7,2.2,1.2,4.2,1.2,5.8
	c0,2.3-1.1,5.2-3.5,8.8c-1.9,3.1-4.1,5.9-6.6,8.6c-1.3,1.1-2.3,2.1-3,2.8c-0.8,0.8-1.3,1.2-1.4,1.5c-0.5,0.4-1,0.8-1.5,1.2
	c-0.7,0.5-1.3,0.9-1.9,1.3c-1-3.5-1.7-6-2.1-7.5c-0.7-2.7-1-5.2-1-7.5c0-3.4,1.9-6.2,5.7-8.4c2-0.9,3.4-1.6,4.1-2
	c0.1-0.1,0.2-0.1,0.3-0.1c0.2-0.2,0.4-0.2,0.5-0.3c0.7-0.4,1-0.8,1-1.1c0-0.3-0.1-0.5-0.1-0.5s-0.1,0-0.2-0.1
	c-0.7,0.1-1.4,0.3-2,0.5c2-1,4.1-1.6,6.2-2l3.9-0.5V75c-0.1,0-0.1,0.1-0.1,0.2c-0.3-0.2-0.8-0.3-1.6-0.4c-0.6,0-1.4,0-2.3,0
	c0.3-0.1,0.6-0.5,0.9-1.2C107.6,73,107.7,72.3,107.7,71.8z M81,113.7c0-0.1,0-0.1,0-0.2l1.2-0.4c1.9,0,3.5,0.9,4.9,2.9
	c0.7,1.3,1.4,2.3,1.8,2.8c-7,8.5-11.8,14.6-14.4,18.7c-0.3-0.199-0.6-0.199-1-0.199c0.1-0.2,0.1-0.301,0.1-0.5
	c0-0.301,0-0.4-0.1-0.4c0,0,0,0-0.1,0c-2.4,0.4-4.6,1.1-6.3,1.8c-0.9,0.2-2,0.3-3.5,0.5c-0.5,0.101-1,0.101-1.5,0.101
	C59.6,139,56.6,139,52.9,139c-5.3,0-10.7-0.899-16-2.8c-3.3-1.2-6.2-2.7-8.6-4.2c-0.6-0.399-1.2-0.699-1.7-1.199
	c-0.3-0.101-0.5-0.301-0.8-0.5c-1-0.7-2-1.5-3-2.301c-2.3-1.699-3.9-2.899-4.9-3.7c-1.3-0.8-2.6-1.8-3.8-2.8c-2.1-1.8-4-3.7-5.9-5.7
	c0.5,0.4,1,0.7,1.6,1c0.9,1.5,2.6,2.8,4.8,4c4.3,2.3,11.1,3.4,20.5,3.4c7.1,0,13.8-0.4,19.9-1.3c0.5-0.1,1-0.1,1.5-0.2
	c4.7-0.8,9.1-1.9,13.1-3.2c0.3,0,0.5-0.2,0.8-0.2c0.1-0.1,0.2-0.1,0.3-0.1c3-1.1,5.7-2.2,7.8-3.4c0.2-0.3,0.6-0.4,0.8-0.5
	C80.4,114.5,81,114,81,113.7z M148,130c0,0.2,0,0.301,0,0.4c0,1.2,1.2,2.8,3.7,4.9c1.5,1.199,3.301,2.399,5.301,3.6
	c-0.801,0.5-2,1.4-3.7,2.8c-2.6,2.2-5.2,3.3-7.8,3.3c-0.7,0-1.3-0.3-2-0.699c-0.8-0.4-1.2-0.7-1.4-0.7H142c0.1-2.4,0.2-4.7,0.4-6.9
	c0-2.1,0.1-4.1,0.1-5.899c0.4,0.199,1,0.399,1.7,0.5c0.4,0,0.8,0,1.2,0c0.7,0,1.6-0.5,2.7-1.5C148.1,129.9,148.1,130,148,130z
	 M141.9,145.8c0.7,0.899,1.7,1.199,3,1.199c2.7,0,5.6-1,8.7-3c2.6-1.8,4.1-3.3,4.5-4.5c0.3,0.101,0.6,0.301,1,0.5
	c0.4,0.301,0.7,0.5,1.1,0.601c-0.6,0.899-1.5,2.2-2.6,3.8c-0.2,0.4-0.6,0.9-0.9,1.4c-2.8,3.399-6.1,5.199-9.8,5.199
	c-0.3,0-1-0.199-2.1-0.399c-1.1-0.2-1.7-0.3-2-0.3c-0.6,0-1,0.199-1.3,0.699c0.1-1.699,0.1-3.3,0.3-5c0-0.1,0-0.199,0-0.199
	S141.8,145.8,141.9,145.8z M208.7,236.6c-0.3-0.101-0.699-0.4-1-0.5c-0.1,0-0.1,0-0.1,0c0.4-1,0.6-2.2,1-3.4c0.4,0,0.6,0.101,1,0.2
	c0.5,0.1,0.9,0.3,1.2,0.6c0.2,0.101,0.399,0.301,0.6,0.601c0.5,0.6,0.7,1.399,0.7,2.3c0,0.1-0.1,0.6-0.3,1.5
	c-0.101-0.1-0.2-0.1-0.3-0.1c-0.4-0.2-0.9-0.301-1.301-0.5C209.7,237.1,209.2,236.9,208.7,236.6z M214.1,237.5
	c0-1.3-0.5-2.5-1.4-3.8c0.601,0.4,1.5,0.5,2.7,0.4c1-0.2,1.601,0.2,1.8,1.1c0,0.101-0.1,0.9-0.199,2.2c0,0.5,0.1,0.9,0.199,1.2
	c-0.399,0-0.699,0-1.1,0c-0.7,0-1.4-0.101-2.1-0.2C214.1,238.1,214.1,237.8,214.1,237.5z M219.1,238.5v-0.1c0-0.1,0-0.4,0-1.2
	c0-1.1,0-2-0.1-2.6c0.8-0.5,1.6-0.4,2.399,0.5l0.8,1.399c0,0.4-0.1,0.801-0.399,1.101c-0.101,0.2,0,0.3,0.1,0.5
	C221.1,238.2,220.1,238.3,219.1,238.5z M194.8,242.2c0.3,1.3,0.8,2.101,1.2,2.5c-1.9,0.8-3.9,1.2-6,1.5v-0.1
	c0-2.101-0.2-3.8-0.5-4.9c0.5-0.399,0.899-0.6,1-0.8c0.199-0.1,0.899-0.2,1.699-0.2C193.6,240.2,194.6,240.9,194.8,242.2z
	 M188.1,243.3c0,0.699,0,1.399,0,2.399c0,0.2,0,0.5,0.1,0.601c-0.5,0-1,0-1.5,0c-1.199,0-2.5-0.101-3.6-0.301c0-0.399,0-0.899,0-1.5
	c0-1.6-0.1-3.199-0.6-4.6c0-0.1,0-0.1,0-0.1C186,239.8,187.8,241,188.1,243.3z M139.8,232c0-0.199,0-0.3,0.2-0.399
	c0,0,0.1,0,0.1,0.1c0.5,0.101,1,0.3,1.4,0.5c1.3,0.601,2.1,1.9,2.5,3.5c0.2,0.8,0.3,2.101,0.4,4.101c-0.6-0.2-1-0.4-1.5-0.601
	c-1.1-0.5-2-1-2.8-1.6c-0.9-0.4-1.7-0.9-2.4-1.4C138.3,235.7,139,234.3,139.8,232z M146.1,236.7c0-0.5-0.1-1.1-0.3-1.6
	c0.3-0.2,0.7-0.3,1-0.4c0.2,0,0.3-0.1,0.6-0.1c0.9,0,1.7,0.3,2.4,1.1c0.8,0.9,1.3,2.101,1.3,3.5c0,0.4-0.2,1.101-0.5,2
	c0,0.3,0,0.4,0,0.601c-1.6-0.301-3.2-0.801-4.8-1.301c0.1-0.3,0.2-0.5,0.3-0.699c0-0.301,0-0.9,0-1.601c0-0.2,0-0.399,0-0.6
	C146.1,237.3,146.1,237.1,146.1,236.7z"/>
<path fill="#D0D0D0" d="M282.7,14.7c-3.5-2.4-6.699-4.2-9.899-5.5c-0.5-0.3-1.101-0.6-1.601-0.7c-3.1-1.2-5.8-1.7-8.5-1.7
	c-3.3,0-7.199,0.6-11.6,2c-4,1.2-8.5,3.1-13.3,5.7c-1.8,0.9-3.7,1.9-5.7,3c-3.3,1.9-6.1,3.8-8.6,5.5c-3.4,2.4-5.9,4.7-7.601,6.9
	c-1.5,1.9-2.5,3.6-2.8,5.2c0,0.5-0.1,0.9-0.1,1.4l0.699,0.6c1.301-1.8,3.4-3.8,6.5-6.1c0.2-0.2,0.4-0.3,0.601-0.5
	c3.6-2.5,7.7-4.9,12.399-7.2c0.5-0.3,1.2-0.5,1.7-0.8c5.2-2.5,9.5-4.5,12.7-5.7c1.4-0.6,2.5-1.1,3.5-1.5c5.1-2,9.2-3,12.3-3
	c2,0,3.7,0.4,5.3,1c0.801,0.3,1.4,0.7,2,1.2c0.301,0.1,0.4,0.2,0.7,0.4c0.9,0.7,3.2,3.4,6.7,7.9c1.7,1.8,3.4,3.4,4.6,4.8
	c1.9,1.9,3.2,3.5,4.101,4.6c2.399,2.9,3.6,6.5,3.6,10.7c0,4.3-2.7,10.1-7.8,17.6c-2.9,4-6.6,8.7-11.2,14.3
	c-3.3,4.4-5.899,9.6-8.1,15.8c-1.9,5.7-2.7,9.7-2.3,12c-1.801-0.3-3.7-0.3-5.801-0.1c0.601,0.3,1.101,0.8,1.4,1.5
	c0.5,1,0.8,1.6,1,1.7c1.5,0.9,3.5,1.9,6,3.1c1.9,0.7,3.5,1.5,4.9,2.1v-2c2.399-7.3,4.399-12.7,6.1-16.4c1.5-3.5,3.4-6.7,5.6-9.7
	c1.9-2.5,4-4.8,6.4-7c2.6-2.2,4.7-4.9,6.2-8c0.899-1.8,1.899-4.5,3.2-8.3c2.3-8,3.5-13.3,3.5-16.3c0-2.4-0.801-5.9-2.101-10.7
	c-0.7-2.3-1.3-4.2-1.899-5.7c-0.801-1.6-1.4-2.8-2-3.5c-1.2-1.3-2.9-2.8-4.9-4.4C286.9,17.6,285,16.2,282.7,14.7z"/>
<path fill="#B7B7B7" d="M290.4,42.9c0-4.2-1.2-7.8-3.6-10.7c-0.9-1.1-2.2-2.7-4.101-4.6c-1.199-1.4-2.899-3-4.6-4.8
	c-3.5-4.5-5.8-7.2-6.7-7.9c-0.3-0.2-0.399-0.3-0.7-0.4c-0.6-0.5-1.199-0.9-2-1.2c-1.6-0.6-3.3-1-5.3-1c-3.1,0-7.2,1-12.3,3
	c-1,0.4-2.1,0.9-3.5,1.5c-3.2,1.2-7.5,3.2-12.7,5.7c-0.5,0.3-1.2,0.5-1.7,0.8c-4.699,2.3-8.8,4.7-12.399,7.2
	c-0.2,0.2-0.4,0.3-0.601,0.5c-3.1,2.3-5.199,4.3-6.5,6.1L213,36.5c0,0.5,0.1,0.9,0.199,1.3c0,0,0,0.2,0.101,0.2
	c0.3,0.5,0.5,1,1.1,1.5c-1-0.1-1.8-0.7-2.399-1.5c0-0.1-0.2-0.2-0.2-0.3c-0.4-0.6-0.601-1.2-0.601-1.8s0.301-1.5,0.801-2.4
	c0.1-0.2,0.199-0.3,0.3-0.5c0.1,0,0.1-0.2,0.2-0.2l-0.7-0.6c-0.3-0.4-0.7-0.5-1-0.5c-1.3,0-2.601,0.8-3.7,2.3s-1.6,3.1-1.6,4.8
	c0,1.2,0.199,2.2,0.6,2.9l-0.5,0.3c0.5,1.3,1.2,2.5,2.1,3.5c0.601,0.5,1.301,1,1.9,1.5l0.2,0.1c-0.8-0.3-1.7-0.7-2.3-1.1
	c-1.7-1-2.801-2.1-3.4-3.5c-0.6-1.1-1-2.8-1-5c0-4,1.3-6.5,3.6-7.8c-1.1-0.6-2.699-1.5-5-2.8c-1.699-1.1-3.8-2.3-6.199-3.7
	c-1.801-1-3.5-1.9-5-2.7c-1.4-0.6-2.5-1.2-3.7-1.7C182.4,17,179,16,176.3,16c-1.101,0-2.2,0-3.3,0c-5.4,0.2-10.301,0.5-14.601,1.3
	c-0.8,0.1-1.7,0.2-2.399,0.4c-3.4,0.6-6.5,1.5-9.3,2.5c-5.6,2.1-10.6,5.4-15.3,9.8c-2.3,2.2-4.5,4.6-6.6,7.4
	c-0.7,0.9-1.3,1.8-2.2,2.6c-1.9,1.8-4,3.3-6.6,4.6c-2,1-5.3,2.4-9.9,3.9c-0.7,0.3-1.4,0.6-2,0.8c-2.7,1-4.7,2-6,2.9l0,0
	c-2.3,1.6-3.4,3.8-3.4,6.4c0,0-0.2,0.9-0.8,2.4c-0.3,0.8-0.4,1.4-0.5,2c-0.3,0.8-0.3,1.5-0.3,2c0,1,0.1,1.9,0.5,2.8
	c0,0.2,0.2,0.4,0.2,0.5c0.4,0.9,1,1.3,1.7,1.3c0.6,0,0.9-0.1,1.2-0.3c0.4-0.6,1.1-1.1,1.9-1.6c0.5-0.2,1-0.4,1.5-0.7c0,0,0,0,0.1,0
	c2.9-1.2,6.1-0.5,9.4,2c0.5,0.3,1,0.7,1.4,1.1c0.8,1.4,1.6,3.2,2.2,5.2c0.5,2.1,0.8,3.9,0.8,5.4c0,2.8-1,5.9-2.9,9.3
	c-1.7,2.7-4.3,5.9-7.7,9.5c-1,1.1-1.9,2-2.8,2.8c-0.6,0.5-1.1,1-1.6,1.5c-1.1,0.8-2.2,1.5-3.3,2.3c-0.3,0.2-0.6,0.4-0.9,0.6
	c-0.6,0.3-1.2,0.7-1.7,0.9c-0.5,0.3-1.4,0.7-2.8,1.4c-1.1,0.5-2,0.9-2.9,1.3c0.4,0.3,1.1,0.6,1.7,1l2.5,1.7c0.2,0,0.5,0,0.6,0
	c0.4-0.2,0.9-0.5,1.5-0.8l0.5,0.4c0.6-0.8,1.3-1.4,1.9-2.2c0.3-0.4,0.6-0.6,1-1c0.1-0.1,0.3-0.4,0.5-0.6H98c0.1,0,0.1,0.2,0.1,0.5
	c0,0.3-0.5,1.3-1.6,2.7c-0.8,1-1.8,2.3-3.1,3.8c-1.7,2-3.2,3.7-4.5,5.4c-2.4,3-4.4,5.4-5.8,7.3c-10,13.4-15,25.7-15,36.801
	c0,3.199,0.5,6.5,1.6,10c1.1,3.1,2.6,6.3,4.7,9.699c1,1.601,2.1,3.2,3.2,4.801c2,2.699,3.5,4.699,4.6,6.5c0.9,1.3,1.5,2.399,2,3.199
	c1.9,3.5,2.9,7.101,2.9,10.7v0.101c0,0.199-0.5,2.699-1.5,7.5c-0.6,1.8-1.5,3.3-2.3,4.5c-0.5,0.5-1,1.199-1.6,1.6
	c-0.8,0.6-1.7,0.9-2.6,1.1c0.5,0.301,1.1,0.4,1.7,0.4c0.4,0,0.8-0.1,1.2-0.1c0.1,0,0.1,0,0.2,0c0-0.101,0.1-0.101,0.2-0.101
	c0.1,0,0.2-0.1,0.3-0.1c0.7-0.3,1.1-0.5,1.4-0.5h0.5c0,0,0,0.1,0,0.399c0,0.601-0.2,1.101-0.9,1.601c-0.5,0.399-1.2,0.7-2.1,0.899
	c-0.4,0-0.8,0-1.2,0c-1.6,0-3.4-1.1-5.7-3.3c-0.6-0.6-1.2-1.399-2-2c-3.1-3.7-5.7-5.5-8-5.5c-1.2,0-2.6,0.3-3.8,1.101
	c-0.3,0.1-0.5,0.199-0.8,0.399c1.3,0.601,2,0.8,2.4,0.8c0,0,0,0,0.1,0.301c0.1,0,0.2,0.199,0.2,0.5c0,0.199-0.2,0.5-0.3,0.699
	c-0.2,0.101-0.4,0.301-0.5,0.301c-0.5,0-1.3-0.301-2.3-0.801c-0.9-0.5-1.4-0.699-1.5-0.699c-0.3,0-1.5,1.899-3.6,5.8
	c-0.2,0.5-0.5,1-0.6,1.5c-0.2,0-0.2,0-0.2,0c-1.4,2.7-2.1,4.2-2.1,4.399c0,0.7,0.3,1.601,1,2.5c0,0,0,0.101,0.1,0.101
	c0,0.1,0,0.1,0.1,0.1c0.5,0.601,1.1,1.3,1.8,1.9c2.6,2.3,5.6,3.399,9.1,3.399c3.2,0,5.2-0.8,6-2.399c0.2-0.4,0.4-0.7,0.6-1
	c0.5-0.8,1.1-1.4,1.8-2c0.3-0.2,0.5-0.4,0.9-0.601c0.6-0.5,1.5-0.899,2.3-1.199c0.2,0,0.4,0,0.4,0.1c0.1,0.1,0.2,0.2,0.2,0.5
	c0,0.2-0.3,0.7-0.9,1.3c0,0.101-0.1,0.2-0.1,0.4c0.4-0.2,0.9-0.3,1.4-0.5c0.1,0,0.2,0,0.3-0.101c1.2-0.3,2.3-0.6,3.2-0.899
	c0.4-0.101,0.7-0.2,1.2-0.3c1.5-0.5,2.4-0.801,2.6-1c0.1-0.101,0.2-0.101,0.3-0.101l-0.3-0.5c0.6-0.5,1.3-1,1.9-1.5
	c1.6-1.6,3.1-3.6,4.4-6.2c2.1-4.399,5.4-15,9.5-31.8c1.6-6.399,6.2-11.6,13.9-15.6c4.2-2,7.3-3.4,9.2-4.601
	c1.9-0.899,3.5-1.899,5-2.899c1.1-0.9,2.2-1.8,3-2.7c2.6-2.9,5.1-11.2,7.4-25.2c0.1-0.7,0.2-1.6,0.4-2.2
	c1.2-7.8,2.2-14.399,2.8-19.7v-7h1.2c0.2,2.6,0.8,5,1.6,7.2c0.2,0.9,0.5,1.5,0.8,2.1c0.7,1.4,1.4,2.2,2.2,2.4c0,0,0.1,0,0.1,0.1
	c0.1,0,0.3,0,0.4,0c0,0,0.6-0.4,1.5-1.3c1-0.8,1.6-1.5,1.8-2.1c1-1.2,2.2-1.9,3.3-2.4c1-0.5,1.9-0.7,2.7-0.7c0.3,0,0.5,0.1,0.8,0.2
	c1.2-0.5,2.6-0.5,3.9,0c1.1,0.5,1.699,1,1.899,1.7c0,0.1,0,0.2,0,0.3c0,0.2,0,0.5,0,0.8c-0.1,0-0.2,0-0.3,0.1l0.3,0.9
	c0-0.3,0.101-0.5,0.2-0.6c0.1-0.2,0.3-0.4,0.6-0.4c0.2,0.3,0.4,0.6,0.801,0.9l0.1-0.1c-0.1,0-0.5-0.6-1-1.7c0-0.2,0-0.4-0.1-0.5
	c-0.601-1.9-1-2.9-1-2.9c-0.301-0.7-1-1.5-2.2-2.7c-1.2-1.2-2-2-2.2-2.4c-0.3-0.4-0.8-2-1.4-4.7c-0.6-2.7-1-4.5-1-5.3l0.5-13.7
	c0.5-3.7,1.7-5.7,3.4-5.7l0,0c0.1,0,0.2,0.1,0.2,0.4l-0.101,0.2c-0.1,0.4-0.5,1.6-1,3.6c-0.699,2.3-1.1,4.3-1.1,5.8l-0.3,9.4
	c0,4.6,1.3,8.3,4.1,11.1c1.7,1.8,2.601,2.8,2.7,3c0.9,1.2,1.4,2.5,1.4,4L165.9,120c-0.1,0-0.2,0-0.2,0.2c-0.1,0-0.1,0-0.1,0v0.3
	c0-0.1,0.9-0.3,2.4-0.7c1.899-0.4,3.5-1.3,4.8-2.5c0.899-1,1.7-1.8,2.2-2.3s0.8-0.8,1.199-1c0.601-0.9,1.4-1.5,2.301-2.1
	c0-0.1,0-0.1,0-0.1c0.1,0.2,0.1,0.5,0.1,0.7c0,1-0.9,3.3-2.5,6.8c-0.1,0.1-0.1,0.2-0.2,0.2c-1.399,2.9-2.8,4.8-4.2,5.8
	c-0.199,0.199-0.5,0.199-0.6,0.3c0.3,0.2,0.5,0.3,0.9,0.399c0.5,0.301,1,0.5,1.6,0.801c1.6,0.699,3.4,1.3,5.2,1.899
	c0-0.2,0-0.2,0-0.399c0.3-1.301,0.8-2.801,1.399-4.3c1.301-3,2.801-4.8,4.4-5.3c0,0.1,0.1,0.6,0.1,1.1s-0.199,1.5-0.699,2.9
	c0.6-0.5,1.199-1.1,2-1.7c0.399-0.4,0.699-0.7,1.1-1c1.3-1.2,2.5-2.2,3.5-3.4c2.6-2.8,4.9-5.8,7-9.1c0.6-1.2,1.5-3.7,2.4-7.7
	c1.1-4.1,1.6-7,1.6-8.6c0-0.2,0-0.2,0-0.3c-0.1-1.9-0.9-4.1-2.3-6.4c-0.101-0.2-0.2-0.2-0.2-0.4c-2-3.2-4.7-4.9-8-5.5
	c-0.6-0.1-1.3-0.1-1.9-0.1c-3,0-5.899,0.3-8.8,0.8c-1.899,0.2-3.8,0.7-5.7,1.3c-2.5,0.7-5,1.6-7.399,2.7c0.1-0.1,0.1-0.1,0.1-0.1
	l-0.3-0.5c0.1-0.2,0.3-0.7,0.5-1.5c0.2-0.9,0.3-1.6,0.3-2c0-2.1-0.6-4.8-1.8-8.1c0-0.3-0.1-0.6-0.3-0.8c-0.2-0.5-0.3-1-0.5-1.5
	c-1.101-2.9-1.601-4.8-1.601-5.6c0-0.6,0.5-1.2,1.7-1.8c1.101-0.6,2.2-0.9,3.2-0.9h0.1l1-0.5c-0.1-0.2-0.1-0.2-0.1-0.4
	c0-0.1,0.5-0.7,1.5-1.6c0.1-0.1,0.2-0.2,0.4-0.4l2.3-1.9c1-1.2,2.2-1.7,3.3-1.4c1.3,0.7,2.3,1,3.1,1.2h0.101
	c0.899,0.3,2.899,1.4,6.1,3.5c0.4,0.5,1,0.8,1.4,1.1c2.3,1.7,3.3,2.7,3.3,3.2c0,0.7-0.5,1.5-1.5,2.7c-0.5,0.3-0.9,0.8-1.4,1.3
	c-1,0.8-1.699,1.4-2.5,1.9l0.4,0.6c0.4,0.8,0.9,1.4,1.6,1.8c0.301,0.2,0.5,0.2,0.7,0.4c2.2-0.9,4.4-2,6.7-3.2
	c0.4-0.3,0.7-0.5,1.1-0.7c3.9-2.6,5.9-5.1,5.9-7.8c0-1.1-0.1-2-0.5-2.8c-0.7-1.7-2-3-4-3.7c-0.9-0.5-3-1.1-6.5-1.8
	c-1-0.1-2-0.4-3-0.5c-2.3-0.5-4.2-1-5.9-1.5c-1.6-0.6-2.8-1.2-3.8-2c-1-0.7-1.8-1.5-2.399-2.5c-0.101,0-0.2,0-0.2-0.1
	c-1.3-2-1.9-4.5-1.9-7.5c0-2.1,0.3-3.7,0.8-4.8c0.9-1.6,2.7-2.9,5.4-4.1c0,0.1-0.1,0.1-0.2,0.2c-0.3,0.1-0.5,0.3-0.8,0.6
	c-0.1,0-0.1,0.1-0.1,0.2l0.399,0.3h1.4c0.399,0.1,0.8,0.2,1.2,0.3c0.6,0.2,1.199,0.4,1.899,0.6c2.7,0.8,4.7,1.5,6.2,2.3
	c2.7,1.1,4.9,2.8,6.5,5.1c0.5,0.6,0.9,1.2,1.3,1.8c2,3.1,3.601,5.6,4.601,7.4c0.899,1.5,1.5,2.9,2,4.1c0.5,1.3,0.699,2.4,0.699,3.1
	c0,0.5-0.199,1.2-0.6,2.1c-0.1,0.2-0.2,0.5-0.4,0.9c0.2,0.8,0.301,1.5,0.301,2.3c0,1.8-1,4.2-2.9,7c-0.5,0.6-0.9,1.2-1.4,1.7
	c0.4,0,0.801,0,1.5,0c0.801,0,1.801,0.5,2.9,1.3c0.3,0.2,0.6,0.3,0.9,0.7c1.1,0.8,1.699,1.6,2.1,2.3c-0.1-0.5-0.2-0.8-0.2-1.2V72
	l0,0c0-1.7,0.7-1.3,1.8,1.3l0,0C210.5,76,211,78,211,79.5c0,1.8-0.4,3.6-1.4,5.5c-1,2-1.4,3.1-1.4,3.3c0,0.2,0.101,0.7,0.301,1.3
	c0.1,0.7,0.199,1.2,0.199,1.7C209.7,91,210.5,91,211,91c2.699,0,5.399,0,7.699,0.3c2.801,0.1,5.101,0.3,7.4,0.7
	c1.3,0.3,2.5,0.5,3.7,0.8c3.6,0.8,6.8,2,9.7,3.5c1,0.6,2.199,1.3,3.6,2.2c1,0.5,2,1.2,3.3,2c2.101,1.2,3.7,2.3,4.601,3
	c0.199-0.2,0.6-0.5,1.199-0.7c0.2-0.2,0.301-0.2,0.4-0.3c0.1,0,0.3,0,0.5-0.1c0.6-0.3,1.1-0.4,1.5-0.2c0.2,0.1,0.5,0.1,0.6,0.3
	c2.101-0.2,4-0.2,5.801,0.1c-0.4-2.3,0.399-6.3,2.3-12c2.2-6.2,4.8-11.4,8.1-15.8c4.601-5.6,8.3-10.3,11.2-14.3
	C287.7,53,290.4,47.2,290.4,42.9z M243.3,36.5c0-2,1.8-4.9,5.3-8.5c1.5-1.4,2.5-2.6,3.4-3.5c3.6,0.2,6.6,1.3,9.3,3.3
	c0.899,0.7,1.899,1.5,2.8,2.5c0.1,0.2,0.3,0.3,0.4,0.5c2.899,3.4,4.3,7.3,4.3,11.7c0,1.5-1,4-2.8,7.4c-1.9,3.6-3.4,5.4-4.601,5.4
	c-0.2,0-1.6-1.3-4.1-3.5c-1.3-1.3-3-2.8-4.9-4.7c-0.3-0.1-0.3-0.3-0.5-0.4C246.1,41.3,243.3,37.8,243.3,36.5z M155.3,22.8
	c0.5,0,0.8,0.5,0.8,1.5c0,2.2-2,4.7-6,7.1c-0.6,0.4-1.3,0.8-2,1.1c-1,0.6-2.2,1.1-3.5,1.7c-2.7,1.3-5.5,3-8.3,5.3
	c-2.3,1.9-3.6,2.8-4,2.8c-0.4,0-0.8-0.3-1.1-0.8c-0.4-0.6-0.6-1.3-0.6-2.1c0-2.7,2-5.8,6.1-9.2c2.7-2.3,4.8-3.7,6.3-4.5
	c0.5-0.2,0.9-0.5,1.2-0.9c1.3-0.5,2.6-1,4.1-1.3c2.8-0.5,4.5-0.7,4.899-0.7h0.101c0.8-0.2,1.399-0.2,1.8,0
	C155.1,22.8,155.2,22.8,155.3,22.8z M190.4,82.8c0.2,0.1,0.4,0.1,0.7,0.2c0.1,0,0.4,0.1,0.5,0.2c0.9,0.5,1.6,1.3,2.2,2.4
	c0.8,1.5,1.3,3,1.3,4.8c0,1.1-0.5,2.2-1.4,3.2c-1,1.2-2.1,1.7-3.3,1.7c-0.899,0-2.6-1.1-4.8-3.3c-0.1-0.2-0.2-0.2-0.4-0.4
	c-2-2-3-3.2-3-3.8c0-1.1,0.9-2.3,2.801-3.4c1.5-0.9,2.899-1.5,4.1-1.6c0.1-0.1,0.4-0.1,0.5-0.1C189.9,82.8,190.1,82.8,190.4,82.8z
	 M98.1,60.4c0-0.1,0.1-0.1,0.3-0.2c1.7-1.1,3.4-1.9,5.2-2.4c5.1-1.6,7.7-0.3,7.7,3.9c0,0.6-0.4,1.1-1.2,1.8c-0.9,0.5-2,1-3.6,1.5
	c-1.5,0.5-3.7,1.1-6.4,1.8l0,0c-0.5,0.2-1,0.2-1.5,0.4L98,66.4c0-0.1,0.1-0.4,0.2-0.6l-0.5-0.3c-0.1,0.1-0.1,0.1-0.1,0.3
	c-0.4-0.3-0.8-0.8-1.1-1.8c-0.1-0.1-0.1-0.2-0.1-0.4c-0.3-0.6-0.4-1-0.4-1.3C96,61.9,96.7,61.3,98.1,60.4z M113.7,102.8
	c0.2,0.2,0.4,0.2,0.7,0.4c1.4,0.8,2.2,1.6,2.2,2.2c0,0.5-0.4,1.1-1.1,1.4c-0.7,0.4-1.4,0.6-2.3,0.6c-0.4,0-0.9,0-1.6,0.1
	c-1.6,0-3.9,0-6.8,0.1c-0.4,0-0.8-0.1-1.3-0.2v-1.7c0.2-0.4,0.5-0.7,0.6-1.2c0.3-0.2,0.4-0.5,0.5-0.5l-0.4-1.2
	c0.9-0.3,1.3-0.4,1.4-0.5c1.4-0.3,2.6-0.5,3.6-0.5C110.7,101.8,112.2,102.1,113.7,102.8z M114.8,112.5L114.8,112.5
	c-0.1,0-0.7,0-1.6-0.2c-1.5,0-2.8,0-4,0.2c-3.4,0.1-5.7,0.5-6.9,1c-0.8,0.5-1.8,1.3-2.8,2.2l-0.7-0.8c0-0.4,0.1-0.6,0.3-0.9
	c0.6-0.8,2.3-1.5,4.8-2.1c1.9-0.4,3.8-0.5,5.7-0.4C111.4,111.6,113.1,111.9,114.8,112.5z M99.5,116h0.1c1.1,0,2.3-0.2,3.5-0.6
	c1.4-0.5,2.5-0.8,3.7-0.8c0.4,0,0.9,0,1.3,0.2c4,0,6,0.7,6,2c0,0.7-0.8,1-2.5,1c-2.2-0.1-3.9,0-5,0.2c-0.1,0-0.2,0-0.4,0
	c-1.1,0.3-2.7,0.8-4.8,1.6c-1.8,0.6-2.8,0.9-3.2,0.9c-0.2,0-0.4,0-0.5,0c0-0.2-0.1-0.2-0.1-0.2v-2c0.4-0.5,0.8-1,1-1.1V116
	C99,116,99.2,116,99.5,116z M103.2,125.1c2.3,0.1,4.6,0.399,7.4,0.899c1.5,0.301,3.1,0.601,4.9,1c-1.1,0.301-3,0.301-5.5,0.301
	c-0.3,0-0.5,0-0.7,0c-1.6,0-3.8,0-6.7,0c-0.2,0-0.3,0-0.4,0c-3.6,0-6.1,0.399-7.5,1c-0.7,0.399-1.3,0.899-1.9,1.399l-0.7-0.8
	c0-2.1,2-3.4,6-3.7C99.6,125,101.3,125,103.2,125.1z M107.1,133.5c-0.1,0.101-0.1,0.301-0.3,0.5c-0.1,0.101-0.2,0.301-0.3,0.301
	c-0.4,0.399-1.1,0.5-2,0.5c-0.5,0-2.1-0.101-4.9-0.5c-0.2,0-0.5,0-0.7,0c-1.3,0.1-2.7,0.199-4.1,0.5c-1.7,0.5-2.7,0.6-2.8,0.6
	c-0.8,0-1.2,0-1.2,0c-0.2-0.1-0.2-0.6-0.2-1.3c0-0.601,0.5-1.7,1.6-3.5c0.2-0.101,0.2-0.3,0.2-0.3c0.2,0,0.2,0,0.4,0
	c0.1,0,0.1,0,0.2,0c2.4-0.301,4.2-0.5,5.6-0.5c0.8,0,1.6,0,2.4,0.1c4.1,0.3,6.1,1.4,6.1,3.4V133.5z M93,146.8c1.2,2,1.7,4,1.7,6.1
	c0,2.4-0.8,5.4-2.5,9.1c-1.6,3.801-2.5,6.601-2.5,8.801c0,0.699,0.1,1.899,0.4,3.199c0.1,1.101,0.3,2.4,0.6,3.801
	c0.6,3.199,0.9,5.899,0.9,8c0,1.699-0.1,3-0.5,3.699c-0.6,1.301-1.8,2-3.6,2c-1.1,0-2.3-0.399-3.3-1.199c-2-1.7-4.1-4.7-6-9.2
	c-0.3-0.8-0.6-1.4-0.8-2c-2.1-5.101-3.1-9.5-3.1-12.8c0-2.101,0.1-4.101,0.3-6c0.5-5,1.5-9.4,3.2-13.4c0.8-1.6,1.4-2.9,2.2-4.1
	c0,0,0,0,0-0.101l0.1-0.1l1.2,0.899c1.2-0.199,2.4-0.6,3.7-1.1c1-0.4,1.7-0.6,2.4-0.6c1.3,0,2.8,1.199,4.6,3.399
	C92.4,145.8,92.7,146.3,93,146.8z M185.6,110.8c0,0.5-0.2,1.5-0.6,3h-0.5c-0.101-1.5-0.4-2.8-1.101-4c-0.8-1.3-1.8-2.2-3.2-2.6
	c0,0-0.1,0-0.199,0c-0.301-0.1-0.5-0.2-0.801-0.2c0.4-0.4,0.801-0.7,1.2-0.8c1.101-0.7,2.2-0.4,3.3,0.8
	C185,108.3,185.6,109.5,185.6,110.8z M68.1,233c0,0.4,0,0.7-0.1,1.101c-0.4,0.7-1.4,1.2-2.9,1.2c-1.9,0-3-0.801-3.5-2.5
	c-0.1-1.601-0.2-2.5-0.2-2.601c0-0.899,0-1.6,0-2.3c0.2-2.8,0.6-4.3,1.2-4.6c0.6-0.301,1.3,0,2.1,1.199c0.9,1.101,1.6,2.601,2.4,4.5
	C67.7,230.7,68.1,232.1,68.1,233z M53.7,231.8c0-1.101,0.5-2.601,1.5-4.601c0.4-0.6,0.8-1.399,1.3-2.1c1.7-3.101,2.6-2.8,2.6,0.5
	c0,0.5,0,1.2,0,2.1v0.101c0,0.8-0.2,1.899-0.3,3.399c0,0.9,0,1.5-0.2,1.8c-0.2,0.4-0.8,0.601-1.6,0.601c-1.6,0-2.7-0.3-3-0.9
	C53.7,232.4,53.6,232.1,53.7,231.8z"/>
<path fill="#A2A2A2" d="M248.6,28c-3.5,3.6-5.3,6.5-5.3,8.5c0,1.3,2.8,4.8,8.6,10.2c0.2,0.1,0.2,0.3,0.5,0.4
	c1.9,1.9,3.601,3.4,4.9,4.7c2.5,2.2,3.899,3.5,4.1,3.5c1.2,0,2.7-1.8,4.601-5.4c1.8-3.4,2.8-5.9,2.8-7.4c0-4.4-1.4-8.3-4.3-11.7
	c-0.101-0.2-0.301-0.3-0.4-0.5c-0.9-1-1.9-1.8-2.8-2.5c-2.7-2-5.7-3.1-9.3-3.3C251.1,25.4,250.1,26.6,248.6,28z"/>
<path fill="#D5D5D5" d="M156.1,24.3c0-1-0.3-1.5-0.8-1.5c-0.101,0-0.2,0-0.2,0c-0.4-0.2-1-0.2-1.8,0H153.2
	c-0.399,0-2.1,0.2-4.899,0.7c-1.5,0.3-2.8,0.8-4.1,1.3c-0.3,0.4-0.7,0.7-1.2,0.9c-1.5,0.8-3.6,2.2-6.3,4.5c-4.1,3.4-6.1,6.5-6.1,9.2
	c0,0.8,0.2,1.5,0.6,2.1c0.3,0.5,0.7,0.8,1.1,0.8c0.4,0,1.7-0.9,4-2.8c2.8-2.3,5.6-4,8.3-5.3c1.3-0.6,2.5-1.1,3.5-1.7
	c0.7-0.3,1.4-0.7,2-1.1C154.1,29,156.1,26.5,156.1,24.3z"/>
<path fill="#D5D5D5" d="M191.1,83c-0.3-0.1-0.5-0.1-0.7-0.2c-0.3,0-0.5,0-0.8-0.1c-0.1,0-0.4,0-0.5,0.1c-1.2,0.1-2.6,0.7-4.1,1.6
	c-1.9,1.1-2.801,2.3-2.801,3.4c0,0.6,1,1.8,3,3.8c0.2,0.2,0.301,0.2,0.4,0.4c2.2,2.2,3.9,3.3,4.8,3.3c1.2,0,2.3-0.5,3.3-1.7
	c0.9-1,1.4-2.1,1.4-3.2c0-1.8-0.5-3.3-1.3-4.8c-0.601-1.1-1.3-1.9-2.2-2.4C191.5,83.1,191.2,83,191.1,83z"/>
<path fill="#68655E" d="M100.5,61.2c-0.3,0.1-0.4,0.1-0.5,0.1c-0.1,0.1-0.2,0.1-0.2,0.1h-0.1c-1.2,0.2-1.8,0.7-1.9,1.4
	c-0.1,0.5,0.1,1.1,0.3,1.9v0.4c-0.1,0.1-0.2,0.2-0.3,0.2c-0.1,0-0.1,0.1-0.1,0.2l0,0l0.5,0.3c0.6-0.5,1.6-1.2,3.4-1.8
	c0.3-0.1,0.6-0.2,1-0.4c3.6-1,5.8-1.6,6.7-1.9c-0.1-0.2-0.1-0.5-0.2-0.8s-0.3-0.6-0.5-0.9c-0.5-0.7-1-1.1-1.5-1.1s-1.7,0.4-3.9,1.2
	C101.9,60.6,101,61,100.5,61.2z"/>
<path fill="#333333" d="M100,61.3c0.1,0,0.2,0,0.5-0.1c0.5-0.2,1.4-0.6,2.7-1.1c2.2-0.8,3.4-1.2,3.9-1.2s1,0.4,1.5,1.1
	c0.2,0.3,0.4,0.6,0.5,0.9s0.1,0.6,0.2,0.8c-0.9,0.3-3.1,0.9-6.7,1.9c-0.4,0.2-0.7,0.3-1,0.4c-1.8,0.6-2.8,1.3-3.4,1.8
	C98.1,66,98,66.3,98,66.4l0.6,0.8c0.5-0.2,1-0.2,1.5-0.4l0,0c2.7-0.7,4.9-1.3,6.4-1.8c1.6-0.5,2.7-1,3.6-1.5
	c0.8-0.7,1.2-1.2,1.2-1.8c0-4.2-2.6-5.5-7.7-3.9c-1.8,0.5-3.5,1.3-5.2,2.4c-0.2,0.1-0.3,0.1-0.3,0.2c-1.4,0.9-2.1,1.5-2.1,1.9
	c0,0.3,0.1,0.7,0.4,1.3c0,0.2,0,0.3,0.1,0.4c0.3,1,0.7,1.5,1.1,1.8c0-0.2,0-0.2,0.1-0.3l0,0c0-0.1,0-0.2,0.1-0.2
	c0.1,0,0.2-0.1,0.3-0.2v-0.4c-0.2-0.8-0.4-1.4-0.3-1.9c0.1-0.7,0.7-1.2,1.9-1.4h0.1C99.8,61.4,99.9,61.4,100,61.3z"/>
<path fill="#A6A6A6" d="M114.4,103.2c-0.3-0.2-0.5-0.2-0.7-0.4c-1.5-0.7-3-1-4.5-1c-1,0-2.2,0.2-3.6,0.5c-0.1,0.1-0.5,0.2-1.4,0.5
	l0.4,1.2c-0.1,0-0.2,0.3-0.5,0.5c-0.1,0.5-0.4,0.8-0.6,1.2v1.7c0.5,0.1,0.9,0.2,1.3,0.2c2.9-0.1,5.2-0.1,6.8-0.1
	c0.7-0.1,1.2-0.1,1.6-0.1c0.9,0,1.6-0.2,2.3-0.6c0.7-0.3,1.1-0.9,1.1-1.4C116.6,104.8,115.8,104,114.4,103.2z"/>
<path fill="#333333" d="M114.8,112.5L114.8,112.5c-1.7-0.6-3.4-0.9-5.2-1c-1.9-0.1-3.8,0-5.7,0.4c-2.5,0.6-4.2,1.3-4.8,2.1
	c-0.2,0.3-0.3,0.5-0.3,0.9l0.7,0.8c1-0.9,2-1.7,2.8-2.2c1.2-0.5,3.5-0.9,6.9-1c1.2-0.2,2.5-0.2,4-0.2
	C114.1,112.5,114.7,112.5,114.8,112.5z"/>
<path fill="#A6A6A6" d="M99.6,116h-0.1c-0.3,0-0.5,0-0.9,0v1.2c-0.2,0.1-0.6,0.6-1,1.1v2c0,0,0.1,0,0.1,0.2c0.1,0,0.3,0,0.5,0
	c0.4,0,1.4-0.3,3.2-0.9c2.1-0.8,3.7-1.3,4.8-1.6c0.2,0,0.3,0,0.4,0c1.1-0.2,2.8-0.3,5-0.2c1.7,0,2.5-0.3,2.5-1c0-1.3-2-2-6-2
	c-0.4-0.2-0.9-0.2-1.3-0.2c-1.2,0-2.3,0.3-3.7,0.8C101.9,115.8,100.7,116,99.6,116z"/>
<path fill="#333333" d="M110.6,126c-2.8-0.5-5.1-0.8-7.4-0.899c-1.9-0.101-3.6-0.101-5.1,0.1c-4,0.3-6,1.601-6,3.7l0.7,0.8
	c0.6-0.5,1.2-1,1.9-1.399c1.4-0.601,3.9-1,7.5-1c0.1,0,0.2,0,0.4,0c2.9,0,5.1,0,6.7,0c0.2,0,0.4,0,0.7,0c2.5,0,4.4,0,5.5-0.301
	C113.7,126.6,112.1,126.3,110.6,126z"/>
<path fill="#A6A6A6" d="M106.8,134c0.2-0.199,0.2-0.399,0.3-0.5V133.3c0-2-2-3.101-6.1-3.4c-0.8-0.1-1.6-0.1-2.4-0.1
	c-1.4,0-3.2,0.199-5.6,0.5c-0.1,0-0.1,0-0.2,0c-0.2,0-0.2,0-0.4,0c0,0,0,0.199-0.2,0.3c-1.1,1.8-1.6,2.899-1.6,3.5
	c0,0.7,0,1.2,0.2,1.3c0,0,0.4,0,1.2,0c0.1,0,1.1-0.1,2.8-0.6c1.4-0.301,2.8-0.4,4.1-0.5c0.2,0,0.5,0,0.7,0
	c2.8,0.399,4.4,0.5,4.9,0.5c0.9,0,1.6-0.101,2-0.5C106.6,134.3,106.7,134.1,106.8,134z"/>
<path fill="#D5D5D5" d="M94.7,152.9c0-2.1-0.5-4.1-1.7-6.1c-0.3-0.5-0.6-1-1-1.601c-1.8-2.2-3.3-3.399-4.6-3.399
	c-0.7,0-1.4,0.199-2.4,0.6c-1.3,0.5-2.5,0.9-3.7,1.1l-1.2-0.899l-0.1,0.1c0,0.101,0,0.101,0,0.101c-0.8,1.199-1.4,2.5-2.2,4.1
	c-1.7,4-2.7,8.4-3.2,13.4c-0.2,1.899-0.3,3.899-0.3,6c0,3.3,1,7.699,3.1,12.8c0.2,0.6,0.5,1.2,0.8,2c1.9,4.5,4,7.5,6,9.2
	c1,0.8,2.2,1.199,3.3,1.199c1.8,0,3-0.699,3.6-2c0.4-0.699,0.5-2,0.5-3.699c0-2.101-0.3-4.801-0.9-8c-0.3-1.4-0.5-2.7-0.6-3.801
	c-0.3-1.3-0.4-2.5-0.4-3.199c0-2.2,0.9-5,2.5-8.801C93.9,158.3,94.7,155.3,94.7,152.9z"/>
<path fill="#333333" d="M185,113.8c0.399-1.5,0.6-2.5,0.6-3c0-1.3-0.6-2.5-1.9-3.8c-1.1-1.2-2.199-1.5-3.3-0.8
	c-0.399,0.1-0.8,0.4-1.2,0.8c0.301,0,0.5,0.1,0.801,0.2c0.1,0,0.199,0,0.199,0c1.4,0.4,2.4,1.3,3.2,2.6c0.7,1.2,1,2.5,1.101,4H185z"
	/>
<path fill="#333333" d="M68,234.1c0.1-0.4,0.1-0.7,0.1-1.101c0-0.899-0.4-2.3-1-4c-0.8-1.899-1.5-3.399-2.4-4.5
	c-0.8-1.199-1.5-1.5-2.1-1.199c-0.6,0.3-1,1.8-1.2,4.6c0,0.7,0,1.4,0,2.3c0,0.101,0.1,1,0.2,2.601c0.5,1.699,1.6,2.5,3.5,2.5
	C66.6,235.3,67.6,234.8,68,234.1z M62.4,230.5c0.1-2.699,0.2-4.3,0.2-4.899c0.9,0.5,1.6,1.6,2.2,3.3c0.9,2.6,1.4,4,1.7,4.3
	c-0.3,0.2-0.4,0.4-0.4,0.4c-0.5,0.1-1,0.1-1.3,0.2c-0.8,0-1.5-0.301-1.9-1V232.7c0.1-0.5,0.2-0.8,0.2-1.1c0.1-0.5-0.1-1.101-0.5-1.9
	h-0.1C62.5,230,62.4,230.2,62.4,230.5L62.4,230.5z"/>
<path fill="#F5A388" d="M62.6,225.6c0,0.6-0.1,2.2-0.2,4.899l0,0c0-0.3,0.1-0.5,0.1-0.8h0.1c0.4,0.8,0.6,1.4,0.5,1.9
	c0,0.3-0.1,0.6-0.2,1.1v0.101c0.4,0.699,1.1,1,1.9,1c0.3-0.101,0.8-0.101,1.3-0.2c0,0,0.1-0.2,0.4-0.4c-0.3-0.3-0.8-1.7-1.7-4.3
	C64.2,227.2,63.5,226.1,62.6,225.6z"/>
<path fill="#333333" d="M55.2,227.2c-1,2-1.5,3.5-1.5,4.601c-0.1,0.3,0,0.6,0.3,0.899c0.3,0.601,1.4,0.9,3,0.9
	c0.8,0,1.4-0.2,1.6-0.601c0.2-0.3,0.2-0.899,0.2-1.8c0.1-1.5,0.3-2.6,0.3-3.399V227.7c0-0.899,0-1.6,0-2.1c0-3.3-0.9-3.601-2.6-0.5
	C56,225.8,55.6,226.6,55.2,227.2z M56,231.6l-0.1-0.3c-0.1-0.2,0.2-1.2,0.9-2.801c0.1,0.601,0.2,1.601,0.4,3.101H56z M57.2,228.1
	h-0.3c0.2-0.5,0.2-0.9,0.3-1.5V228.1z"/>
<path fill="#F5A388" d="M55.9,231.3l0.1,0.3h1.2c-0.2-1.5-0.3-2.5-0.4-3.101C56.1,230.1,55.8,231.1,55.9,231.3z"/>
<path fill="#777777" d="M239.6,99.5c-3.4-1.8-7-3.3-10.8-4.4c-3.4-0.9-7-1.6-10.7-1.9c-2-0.2-4.1-0.3-6.3-0.3
	c-1.101,0-1.8,0.1-2.2,0.4c-0.2,0.2-0.5,0.3-0.6,0.3c-1.2,0-2.2-1.7-3.2-5.1c0-0.7,0.6-2.1,1.7-4.2c1.1-2,1.6-3.9,1.6-5.6
	c0-0.5-0.3-1.5-0.9-2.9c0,0,0,0,0-0.1c-0.199-0.6-0.399-1.2-0.5-1.7c-0.1,0.1-0.1,0.2-0.1,0.3c-0.1,0.3-0.3,0.7-0.5,1.2h-0.8
	c0.3-0.3,0.6-0.5,0.8-0.7c0.2-0.2,0.4-0.3,0.5-0.5c0-0.1,0-0.3,0-0.4c0-0.2,0-0.4,0-0.6c-0.4-0.7-1-1.5-2.1-2.3
	c-0.301-0.4-0.601-0.5-0.9-0.7c-1.1-0.8-2.1-1.3-2.9-1.3c-0.699,0-1.1,0-1.5,0c-0.6,0.6-1.1,1.2-1.699,1.7c-1.4,1.1-3,1.8-4.7,2.2
	c-0.7,0.1-1.3,0.1-2.101,0.1l-3.6-0.2c0,0,0-0.3,0-0.8c0,0,0.1,0,0.3,0c-0.2-0.2-0.399-0.2-0.7-0.4c-0.699-0.4-1.199-1-1.6-1.8
	l-0.4-0.6c-0.6,0.4-1.199,0.7-1.699,0.8c-0.301,0.1-0.4,0.1-0.601,0.1c-1.3,0-3-0.8-5.2-2.3c-1-0.8-2.1-1.5-3.3-2.6
	c-2.399-2.1-4.1-3.6-4.8-4.6c-0.2-0.3-0.4-0.5-0.4-0.6l-1,0.5h-0.1c-1,0-2.1,0.3-3.2,0.9c-1.2,0.6-1.7,1.2-1.7,1.8
	c0,0.8,0.5,2.7,1.601,5.6c0.2,0.5,0.3,1,0.5,1.5c0.2,0.2,0.3,0.5,0.3,0.8c1.2,3.3,1.8,6,1.8,8.1c0,0.4-0.1,1.1-0.3,2
	c-0.2,0.8-0.4,1.3-0.5,1.5l0.3,0.5c0.9-0.7,1.7-1.2,2.601-1.7c-0.801-0.2-1.301-0.7-1.4-1.5c0-1,0-1.5,0-1.5
	c0-7.9,2.1-11.2,6.3-10.3c0.8,0.1,1.601,0.5,2.3,1c0.801,0.5,1.4,1.1,2,2c1.301,1.7,2,3.5,2,5.4c0,0.3,0,0.5,0,0.7
	c-0.1,0.1-0.1,0.2-0.1,0.2c1.1-0.2,2.1-0.4,3.4-0.5c1.699-0.4,3.3-0.5,5-0.5c0.199,0,0.6,0,0.899,0.1c0.101,0,0.2,0,0.2,0
	c0.5,0.1,0.9,0.2,1.3,0.2c3.4,0.7,6.2,2.4,8.3,5c0.101,0,0.101,0.2,0.2,0.2c1.2,1.7,2.2,3.5,2.7,5.2c0.3,0.6,0.4,1.2,0.5,1.8
	c0,0.2,0,0.5,0,0.6c0.1,0.7,0.2,1.2,0.2,1.8c0,1.4-0.2,2.9-0.3,4.3c-0.801,5.4-2.801,11.1-6.101,17.1c-3.3,5.7-6.399,9.2-9.7,11
	c-1.1,0.5-2.1,0.9-3.1,1C184.1,125,183.7,125,183.3,125c-0.101,0-0.2,0-0.2,0c-1,2.301-1.8,3.601-2.5,4.2c0.7,0.101,1.5,0.3,2.2,0.5
	c0.8,0.101,1.6,0.3,2.3,0.5c1,0.101,2,0.3,3,0.4c3.5-3.601,7.3-8.7,11.3-15.3c5.101-8.6,7.3-15.3,6.5-20c2.3,0.1,6,0.7,10.9,1.7
	c1,0.3,2,0.5,3.2,0.8c2.5,0.5,4.8,1.1,6.899,1.6c2.9,0.8,5.3,1.5,7.2,2.1c2.3,0.8,4.6,2,7.2,3.5c1.5,1,3.1,2,4.7,3.3
	c1.6,1.2,3,2.3,4.3,3.1c2.2,1.6,3.899,2.6,5.1,3c0-0.2-0.2-0.7-0.399-1.4c-0.301-0.7-0.5-1.3-0.5-1.7c0-0.8,0.399-1.6,1.1-2.3
	c0.6-0.5,1.2-0.8,1.9-1c-0.4-0.5-1-1-1.801-1.8c-1.199-1.4-1.899-2.2-2.1-2.2c-0.7,0-1.1,0.2-1.5,0.5c0.1,0.1,0.1,0.3,0.1,0.3
	c0,0.5-0.1,0.9-0.5,1.1c-0.199,0.1-0.6,0.2-1,0.2c-1.1,0-3.899-1.6-8.399-4.6C241.5,100.8,240.6,100.2,239.6,99.5z"/>
<path fill="#B7B7B7" d="M274.4,104.8c-0.5-1.5-0.8-2.6-1-3.3c-0.5,1-1.1,2.3-1.8,3.8c-1,2.2-1.7,4.2-2.2,6c0.101,0,0.2,0,0.2,0.1
	c0.6,0.3,1.2,0.5,1.8,0.8c-0.399,0.3-0.899,0.5-1.5,0.6c-0.3,0.2-0.7,0.2-0.899,0.3c-0.2,0.4-0.2,0.7-0.301,1H268.5v-0.9
	c-0.4,0-0.801,0-1.301,0.1c-1.6,0-3.399-0.7-5.5-2.1c-1.1-0.7-2.199-1.4-3.3-2.4c-0.2-0.2-0.5-0.4-0.899-0.8
	c-0.7,0.2-1.301,0.5-1.9,1c-0.7,0.7-1.1,1.5-1.1,2.3c0,0.4,0.199,1,0.5,1.7c0.199,0.7,0.399,1.2,0.399,1.4c-1.2-0.4-2.899-1.4-5.1-3
	c-1.3-0.8-2.7-1.9-4.3-3.1c-1.601-1.3-3.2-2.3-4.7-3.3c-2.601-1.5-4.9-2.7-7.2-3.5c-1.9-0.6-4.3-1.3-7.2-2.1
	c-2.1-0.5-4.399-1.1-6.899-1.6c-1.2-0.3-2.2-0.5-3.2-0.8c-4.9-1-8.601-1.6-10.9-1.7c0.8,4.7-1.399,11.4-6.5,20
	c-4,6.6-7.8,11.7-11.3,15.3c5.1,0.8,10.9,1.1,17.4,1.2c0.1,0,0.3,0,0.5,0c3.1,0,6-0.2,8.899-0.601c7.5-1,14.5-3.3,20.8-6.9
	c0.101-0.1,0.2-0.2,0.4-0.3c2.4-1.4,4.9-3.1,7.6-5.2c2.601-2,4.101-3,4.601-3.3c0.1,0,0.2,0,0.2,0.1c0.1,0,0.1,0.1,0.1,0.2
	c0,0,0.1,0,0.2,0c0.2,0,0.3,0,0.399,0c0.601,0.2,0.9,0.7,0.9,1.5c0,1.2-0.8,3-2.5,5.5c-1,1.3-2,2.7-3.4,4.2
	c-3.8,4.601-6.899,7.4-9.199,8.5c-0.4,0.2-1.2,0.601-2.301,1.2c-2.5,1.3-6.699,3.4-12.899,6.601c-3.7,1.699-7,3-10,4
	c-3.8,1.3-7.101,2-9.7,2.199c-0.5,0-0.9,0-1.3,0c-7.2,0-13.9-0.699-20.4-2.199c-0.2,0-0.2,0-0.2,0c-1.1,1-1.6,1.899-1.6,2.5
	c0,0.399,0.1,0.8,0.2,1.199c0.399,0.9,1.3,1.801,2.6,2.601c2.101,1.3,4.601,2,7.601,2c3.1,0,6.8-0.101,11-0.5c0.1,0,0.3,0,0.5,0
	c4.1-0.4,7.3-0.8,9.5-1.4c0.6-0.2,1.199-0.399,1.6-0.7h1.8v1.801c-1.6,2-3.399,3.699-5.399,5.1c-2.9,2.1-6.301,3.5-10.2,4.1
	c-1.9,0.4-3.9,0.5-6.101,0.5c-4.699,0-8.1-0.1-10.1-0.5c-1.9-0.3-4.2-1-7-2c-0.2-0.199-0.5-0.199-0.9-0.399c-0.5-0.3-1-0.4-1.6-0.7
	c-1.6-0.7-3.5-1.9-5.7-3.3c-0.2-0.101-0.3-0.2-0.5-0.3c-0.1-0.101-0.1-0.101-0.1-0.101c-3.5,2.8-5.9,4.5-7,5.101
	c-1.7,1-3.3,1.5-5.3,1.8c-0.9,0.2-1.8,0.2-2.7,0.2c-0.9,0-2.3-0.301-4.2-0.7c-0.9-0.2-1.6-0.4-2.2-0.5
	c-0.9,5.899-4.6,11.3-10.8,16.2c-2.5,1.899-4.2,3.3-5.3,4.199c-0.5,0.5-0.8,0.801-1,1c-1.8,1.801-2.8,3.801-2.8,5.801
	c0,0.199,0.1,1.199,0.5,3.199c0.1,0.9,0.4,2,0.6,3.5l-0.8,0.7c0.7,0.8,1.3,1.5,2,2.101c3.8,4,8.4,7.199,13.8,9.6
	c2.5,1.1,5,2.1,7.6,2.8c-0.5,0-1.3,0.101-2.4,0.3c-1.8,0-3.7-0.3-5.7-1c-0.6-0.199-1.3-0.5-2-0.8c0.7,0.4,1.3,0.9,1.7,1.8
	c0.8,1.101,1.5,2.801,2,5c0.8,3,1.2,6.5,1.2,10c0,0.601-0.3,1.601-0.8,3.101c0.5,0,1,0.1,1.7,0.3c0.1,0.1,0.2,0.1,0.4,0.2
	c1.2,0.5,2.1,1.1,2.8,1.899c0,0.2,0.1,0.301,0.2,0.5c0.2-0.1,0.3-0.199,0.6-0.199c0.4-0.101,0.8-0.101,1.3-0.101
	c0.3,0.101,0.4,0.101,0.5,0.101c0.4,0.1,0.7,0.199,1,0.3c1.8,0.7,2.9,1.7,3.5,3c1.5-1.101,2.9-1.3,4.301-0.4
	c0.899,0.8,1.6,1.9,2.1,3.3v2.601c0,0,0,0.1,0,0.2c0,0.199-0.2,0.199-0.5,0.199v0.101c0.3,0,0.5,0,0.9,0c0.5,0,1,0,1.5,0l-0.101-1
	c2-2.3,3.601-4.601,4.8-7c1.301-2.4,1.9-4.4,1.9-5.8c0-4.301-0.7-10.2-2.1-17.5c-1.4-6.5-2.2-9.7-2.2-9.801
	c0-0.199,0.1-0.3,0.2-0.399c0.1,0,0.1-0.101,0.1-0.101c0.5,0,1,0,1.5,0.2c0,0,0,0,0,0.101c0-0.101,0-0.301,0-0.301
	c-0.1,0,0-0.1,0.5-0.1c0.6,0,1.6,0.3,3.1,0.9c1.4,0.6,2.301,0.899,2.5,0.899c1.9,0,4.9-0.7,8.7-2.2C183,199,185,198.1,185.5,197.9
	c-0.101,0.9-0.9,1.7-2.2,2.6c-0.3,0.301-0.7,0.5-1.2,0.801c-0.6,0.399-1.4,0.699-2.1,1.1l1.199,0.5c-1.699,3.6-3,9.4-3.6,17.6
	c-0.2,3.601-0.4,8.301-0.5,14.301c0,0.3,0,0.399,0,0.699c0,0.101,0,0.101,0,0.2c0.4-0.1,0.7-0.2,1.1-0.2l0,0
	c1.801,0,3.2,1.101,4,3.5v0.2c3.4-1.2,5.601-0.899,6.9,1c0.1-0.2,0.5-0.399,1-0.6c0.9-0.4,1.8-0.601,2.8-0.7
	c2.7-0.1,4.101,1.3,4.101,4.3c0,0.3-0.2,0.8-0.5,1.3c1.3-0.5,2.5-1.199,3.6-1.899c1.6-1.101,2.6-2,3.3-2.4
	c0.2-0.2,0.4-0.3,0.601-0.399c0.3-0.9,0.8-2.301,1.399-4.101c1.3-3.7,2-6.899,2-9.5c0.101,0,0.601-2.6,1.7-7.7
	c0.5-3.199,1.5-5.5,2.6-7.1c0,0.5-0.1,1-0.199,1.6h0.699c0,0.801-0.199,3.7-0.6,8.601c-0.1,0-0.1,0.1-0.1,0.2
	c-0.101,1.5-0.301,2.8-0.301,4.1c-0.199,2.3-0.3,4.2-0.399,5.7c0.2,0.2,0.3,0.3,0.399,0.399c0.5,0.5,1,1,1.4,1.5
	c3-1.3,4.9-1.399,5.8-0.3c0.2,0.101,0.2,0.3,0.3,0.5c0.4-0.7,1.301-0.8,2.7-0.3c0.7,0.2,1.3,0.5,1.8,0.9c0.601,0.5,1,1.3,1,2.199
	c0,0.301,0,0.601,0,0.801c0.9-0.4,1.5-0.9,2-1.601l0.301-2.899c0-3.2,0.899-7.601,2.5-13c0.1-0.4,0.199-0.801,0.3-1.101
	c0-2.2-0.2-4.2-0.5-6.1c-0.3-1.4-0.8-2.8-1.3-4.101c-1.2-2.5-2.4-3.899-3.801-3.899L223.1,204c-0.6,0.5-1.2,1-1.7,1.4
	c-1.399,1.1-2.399,1.9-2.8,2.2c0-0.101,0-0.3,0-0.4c0-2.899,3-6.6,9.2-10.899c1.899-1.301,3.7-2.301,5.3-3.4c5.1-3.4,8.9-5.9,11-7.5
	c0.5-0.3,1-0.6,1.4-0.9c3.899-3,7.3-5.8,10.199-8.6c0.5-0.4,0.9-0.9,1.4-1.4c0.3-0.199,0.6-0.5,0.9-0.899c3.199-3.3,6-6.8,8.3-10.4
	c3.899-6.2,6.8-13.6,8.5-22c1.3-6.6,1.899-14.2,1.899-22.7c0-1.9-0.1-4.2-0.6-6.8c-0.4-1.5-0.6-3.1-1.1-4.8
	C274.7,106.2,274.6,105.4,274.4,104.8z"/>
<path fill="#F7F0D8" d="M235.5,126.5c-0.101,0-0.101,0-0.101,0.101c-6.6,3.6-13.6,5.8-21.2,6.7c-2.6,0.199-5.199,0.5-8,0.5
	c-0.5,0-0.899,0-1.399,0c-7.7-0.2-14.601-0.7-20.4-1.801c-0.8-0.1-1.6-0.199-2.2-0.399c-3.5-0.8-6.6-1.7-9.199-2.8
	c-0.5-0.301-1-0.5-1.4-0.7c-3.4-1.601-5.7-3.101-7-4.7c-0.5-0.6-0.9-1.4-1-2c-1.1,0.1-2.3,1.1-3.5,2.6c-1.5,2-2.3,4.2-2.3,6.5
	c0,1.7,0.899,3.301,2.8,4.801c2,1.5,5,2.899,9,4.1c1.6,0.5,3.4,0.9,5.3,1.4c1.3,0.199,2.601,0.5,3.8,0.699
	c0.601,0.101,1.101,0.301,1.801,0.301c6.5,1.199,13,1.699,19.3,1.699c0.8,0,1.399,0,2,0c3.6,0,6.8-0.199,9.399-0.699
	c1.2-0.101,2.2-0.301,3.301-0.5c3.199-0.7,7.399-2,12.5-4.101c1.8-1.2,3.699-2.6,5.6-4c0.4-0.2,0.6-0.399,1-0.7
	c1.6-1.199,3.1-2.5,4.5-3.699c2.1-1.801,4-3.801,5.7-5.7c2.8-3.1,4.3-5.3,4.3-6.5c0-0.2-0.1-0.3-0.3-0.4c-0.8,0.8-2.3,2.1-4.7,3.8
	c-0.4,0.3-0.7,0.6-1,0.9C239,124.3,236.8,125.8,235.5,126.5z M194.2,134.6c3.9,1.3,6.5,2.7,8.2,4.2C202,139.2,201.1,139.5,199.5,140
	c-1.4,0.301-2.2,0.5-2.801,0.5c-5.6,0-10.699-0.5-15.199-1.5c-0.4,0-0.9-0.1-1.301-0.199c-0.1-0.101-0.3-0.101-0.5-0.2
	c-5.1-1.3-7.6-3-7.6-5.101c0,0,0.1-0.199,0.5-0.6c0.5-0.4,0.8-0.7,0.9-0.9h1.399c0.601,0,1.2,0,1.7,0c1.9,0,3.6,0,5.4,0.2
	c0.699,0,1.5,0.101,2.199,0.2C187.7,132.8,191,133.5,194.2,134.6z"/>
<path fill="#FFFFFF" d="M202.4,138.8c-1.7-1.5-4.3-2.9-8.2-4.2c-3.199-1.101-6.5-1.8-10-2.2c-0.699-0.1-1.5-0.2-2.199-0.2
	c-1.801-0.2-3.5-0.2-5.4-0.2c-0.5,0-1.1,0-1.7,0H173.5c-0.101,0.2-0.4,0.5-0.9,0.9c-0.4,0.4-0.5,0.6-0.5,0.6
	c0,2.101,2.5,3.801,7.6,5.101c0.2,0.1,0.4,0.1,0.5,0.2c0.4,0.1,0.9,0.199,1.301,0.199c4.5,1,9.6,1.5,15.199,1.5
	c0.601,0,1.4-0.199,2.801-0.5C201.1,139.5,202,139.2,202.4,138.8z"/>
<path fill="#959595" d="M243.1,188.5c-4.1,3.2-7.7,6-10.9,8.4c-3.8,2.9-6.8,5.3-9,7.1l0.5,0.601c1.4,0,2.601,1.399,3.801,3.899
	c0.5,1.301,1,2.7,1.3,4.101c0.3,1.899,0.5,3.899,0.5,6.1c1.1-3.5,2.5-7.6,4.399-12.1C237.5,197.3,240.6,191.2,243.1,188.5z"/>
<path fill="#777777" d="M183.9,31.2c-0.7-0.2-1.3-0.4-1.899-0.6c-0.4-0.1-0.801-0.2-1.2-0.3h-1.4L179,30c-0.801,0.6-1.4,1.6-1.9,3
	c-0.7,1.7-1,3.2-1,4.5c0,2,0.3,3.8,1,5.3c0,0,0,0.1,0,0.2c0.7,1.6,1.9,2.9,3.4,4c1.899,1.3,5.1,2.3,9.699,3.3c0.5,0,1,0.1,1.5,0.2
	c4.101,0.8,6.9,1.7,8.301,2.4c1.199,0.6,2.1,1.4,2.8,2.3c0.7,0.8,1.2,1.7,1.399,2.8c0.2-0.4,0.301-0.7,0.4-0.9
	c0.4-0.9,0.6-1.6,0.6-2.1c0-0.7-0.199-1.8-0.699-3.1c-0.5-1.2-1.101-2.6-2-4.1c-1-1.8-2.601-4.3-4.601-7.4
	c-0.399-0.6-0.8-1.2-1.3-1.8c-1.6-2.3-3.8-4-6.5-5.1C188.6,32.7,186.6,32,183.9,31.2z"/>
<path fill="#D0D0D0" d="M210.8,31.7c0.3,0,0.7,0.1,1,0.5l0.7,0.6c0.399-0.8,1-1.5,1.699-2.3c-3.699-0.5-6.5,0.1-8.199,1.8
	c-1,1-1.5,2.1-1.5,3.2c0,2.2,0.3,4.1,0.899,6c0.101,0.2,0.101,0.3,0.2,0.5l0.5-0.3c-0.4-0.7-0.6-1.7-0.6-2.9c0-1.7,0.5-3.3,1.6-4.8
	S209.5,31.7,210.8,31.7z"/>
<path fill="#333333" d="M179.9,29.2c0.101-0.1,0.2-0.1,0.2-0.2c-2.7,1.2-4.5,2.5-5.4,4.1c-0.5,1.1-0.8,2.7-0.8,4.8
	c0,3,0.601,5.5,1.9,7.5c0,0.1,0.1,0.1,0.2,0.1c0.6,1,1.399,1.8,2.399,2.5c1,0.8,2.2,1.4,3.8,2c1.7,0.5,3.601,1,5.9,1.5
	c1,0.1,2,0.4,3,0.5c3.5,0.7,5.6,1.3,6.5,1.8c2,0.7,3.3,2,4,3.7c0.4,0.8,0.5,1.7,0.5,2.8c0,2.7-2,5.2-5.9,7.8
	c-0.399,0.2-0.699,0.4-1.1,0.7c-2.3,1.2-4.5,2.3-6.7,3.2c-0.2,0-0.3,0-0.3,0c0,0.5,0,0.8,0,0.8l3.6,0.2c0.801,0,1.4,0,2.101-0.1
	c1.7-0.4,3.3-1.1,4.7-2.2c0.6-0.5,1.1-1.1,1.699-1.7c0.5-0.5,0.9-1.1,1.4-1.7c1.9-2.8,2.9-5.2,2.9-7c0-0.8-0.101-1.5-0.301-2.3
	c-0.199-1.1-0.699-2-1.399-2.8c-0.7-0.9-1.601-1.7-2.8-2.3c-1.4-0.7-4.2-1.6-8.301-2.4c-0.5-0.1-1-0.2-1.5-0.2
	c-4.6-1-7.8-2-9.699-3.3c-1.5-1.1-2.7-2.4-3.4-4c0-0.1,0-0.2,0-0.2c-0.7-1.5-1-3.3-1-5.3c0-1.3,0.3-2.8,1-4.5c0.5-1.4,1.1-2.4,1.9-3
	c0-0.1,0-0.2,0.1-0.2C179.4,29.5,179.6,29.3,179.9,29.2z"/>
<path fill="#333333" d="M180.3,55.5H180.2c-0.8-0.2-1.8-0.5-3.1-1.2c-1.1-0.3-2.3,0.2-3.3,1.4l-2.3,1.9c-0.2,0.2-0.301,0.3-0.4,0.4
	c-1,0.9-1.5,1.5-1.5,1.6c0,0.2,0,0.2,0.1,0.4c0,0.1,0.2,0.3,0.4,0.6c0.7,1,2.4,2.5,4.8,4.6c1.2,1.1,2.3,1.8,3.3,2.6
	c2.2,1.5,3.9,2.3,5.2,2.3c0.2,0,0.3,0,0.601-0.1c0.5-0.1,1.1-0.4,1.699-0.8c0.801-0.5,1.5-1.1,2.5-1.9c0.5-0.5,0.9-1,1.4-1.3
	c1-1.2,1.5-2,1.5-2.7c0-0.5-1-1.5-3.3-3.2c-0.4-0.3-1-0.6-1.4-1.1C183.2,56.9,181.2,55.8,180.3,55.5z M176,64.1
	c-1.5-1.3-2.9-2.8-4-4.3l5.699-3.7c2.7,1.6,4.601,2.8,5.801,3.5c1.3,0.7,2.5,1.6,3.6,2.4c0.7,0.5,1.5,1,2.2,1.5
	c-0.601,1-1.2,1.9-2.101,2.8c-0.1,0-0.1,0-0.1,0c-0.8,0.7-1.6,1.3-2.3,1.5c-0.601,0.2-1.101,0.4-1.601,0.4
	C181.2,68.2,178.8,66.8,176,64.1z"/>
<path fill="#68655E" d="M172,59.8c1.1,1.5,2.5,3,4,4.3c2.8,2.7,5.199,4.1,7.199,4.1c0.5,0,1-0.2,1.601-0.4c0.7-0.2,1.5-0.8,2.3-1.5
	c0,0,0,0,0.1,0c0.9-0.9,1.5-1.8,2.101-2.8c-0.7-0.5-1.5-1-2.2-1.5c-1.1-0.8-2.3-1.7-3.6-2.4c-1.2-0.7-3.101-1.9-5.801-3.5L172,59.8z
	"/>
<path fill="#333333" d="M157.8,100.2l0.3-9.4c0-1.5,0.4-3.5,1.1-5.8c0.5-2,0.9-3.2,1-3.6l0.101-0.2c0-0.3-0.101-0.4-0.2-0.4l0,0
	c-1.7,0-2.9,2-3.4,5.7l-0.5,13.7c0,0.8,0.4,2.6,1,5.3c0.601,2.7,1.101,4.3,1.4,4.7c0.2,0.4,1,1.2,2.2,2.4c1.2,1.2,1.899,2,2.2,2.7
	c0,0,0.399,1,1,2.9c0.1,0.1,0.1,0.3,0.1,0.5c0.5,1.1,0.9,1.7,1,1.7c0.3,0,0.5-0.1,0.5-0.2c0,0,0,0,0.1,0c0-0.2,0.101-0.2,0.2-0.2
	l0.101-1.7c0-1.5-0.5-2.8-1.4-4c-0.1-0.2-1-1.2-2.7-3C159.1,108.5,157.8,104.8,157.8,100.2z"/>
<path fill="#B7B7B7" d="M207.6,73.9c0,0.1,0,0.3,0,0.4c0-0.1,0-0.2,0.1-0.3C207.6,74,207.6,74,207.6,73.9z"/>
<path fill="#B7B7B7" d="M207.1,75.5c0.2-0.5,0.4-0.9,0.5-1.2c-0.1,0.2-0.3,0.3-0.5,0.5c-0.2,0.2-0.5,0.4-0.8,0.7H207.1z"/>
<path fill="#848484" d="M94.2,112.6l-0.5-0.4c-0.6,0.3-1.1,0.6-1.5,0.8c-0.1,0-0.4,0-0.6,0l-2.5-1.7c-0.6-0.4-1.3-0.7-1.7-1
	c-0.4,0.1-0.8,0.2-1,0.3c-0.5,0.2-1.7,0.5-3.6,0.9c0.5,0.1,1,0.3,1.5,0.4c3.5,1.3,5.4,3.2,5.7,5.7c0.2-0.3,0.4-0.5,0.6-0.8
	C91.7,115.5,93,114,94.2,112.6z"/>
<path fill="#A6A6A6" d="M130.6,165.4c-0.8,0.9-1.9,1.8-3,2.7c-1.5,1-3.1,2-5,2.899c-1.9,1.2-5,2.601-9.2,4.601
	c-7.7,4-12.3,9.2-13.9,15.6C95.4,208,92.1,218.6,90,223c-1.3,2.601-2.8,4.601-4.4,6.2l0.4,0.4c1.6-1.2,3.4-2.601,5.4-4.2
	c4-3.2,7.1-7.2,9.2-11.8c1.2-2.601,2.5-6.4,4-11.601c1.4-5.1,2.8-9,4.1-11.699c1-2.101,2.3-4,3.6-5.5c1.9-2.2,4.7-4.101,8.1-5.801
	c1.2-0.699,2.7-1.6,4.3-2.699c1.1-0.801,2.4-1.801,3.6-2.801c0.7-0.5,1.3-1,1.9-1.5c2.1-1.699,3.6-3.199,4.5-4.399
	c2.7-3.101,4.2-7,4.5-11.8c0.6-5.301,0.9-9,0.9-11.4c0-0.4,0-0.8,0-1.4c0.1-2.199,0.3-6,0.6-11.399c0.2-3.3,0.4-7.101,0.7-11.6h-0.2
	v-1.7c-0.6,5.3-1.6,11.9-2.8,19.7c-0.2,0.601-0.3,1.5-0.4,2.2C135.7,154.2,133.2,162.5,130.6,165.4z"/>
<path fill="#777777" d="M126.3,183.5c1.1-0.899,2.8-2.3,5.3-4.199c6.2-4.9,9.9-10.301,10.8-16.2c0.6,0.1,1.3,0.3,2.2,0.5
	c1.9,0.399,3.3,0.7,4.2,0.7c0.9,0,1.8,0,2.7-0.2c2-0.3,3.6-0.8,5.3-1.8c1.1-0.601,3.5-2.301,7-5.101c0,0,0,0,0.1,0.101
	c0.2,0.1,0.3,0.199,0.5,0.3c2.2,1.399,4.101,2.6,5.7,3.3c0.6,0.3,1.1,0.4,1.6,0.7c0.4,0.2,0.7,0.2,0.9,0.399c2.8,1,5.1,1.7,7,2
	c2,0.4,5.4,0.5,10.1,0.5c2.2,0,4.2-0.1,6.101-0.5c3.899-0.6,7.3-2,10.2-4.1c2-1.4,3.8-3.1,5.399-5.1V153h-1.8
	c-0.4,0.301-1,0.5-1.6,0.7c-2.2,0.601-5.4,1-9.5,1.4c-0.2,0-0.4,0-0.5,0c-4.2,0.399-7.9,0.5-11,0.5c-3,0-5.5-0.7-7.601-2
	c-1.3-0.8-2.2-1.7-2.6-2.601c-0.101-0.399-0.2-0.8-0.2-1.199c0-0.601,0.5-1.5,1.6-2.5C177.7,147,177.3,147,176.8,146.9
	c-2.9-0.8-5.7-1.7-8.601-2.7l-0.3,0.601c0,0.1,0.101,0.1,0.101,0.199c0.1,0,0.1,0.2,0.1,0.5c0,0.7-0.4,1.5-1.3,2.7
	c-1.2,1.3-3,2.9-5.3,4.8c-0.4,0.301-0.801,0.801-1.101,1.2c-1.8,1.601-4.2,2.8-7.1,3.8c-1.601,0.5-3.3,1-5.3,1.301v0.199
	c-2.6-0.199-4.5-0.5-5.6-1c-0.8-0.1-1.3-0.199-1.7-0.5c0,0,0,0-0.1,0c-0.2,1.801-0.5,3.301-0.8,4.5c-0.2,1.301-0.6,2.301-1,3
	c-1.2,2.7-4.2,5.801-8.8,9.301c-0.3,0.199-0.6,0.5-1,0.8c-1.4,0.899-3.1,2.2-5.3,3.7c-2.1,1.3-4.5,3-7.4,4.899
	c-0.5,0.3-0.9,0.8-1.6,1.601c1.6,2.699,3.1,5,4.6,7.199c0.9,1.301,1.8,2.5,2.7,3.601c0.2,0.399,0.6,0.7,0.8,1.1l0.8-0.7
	c-0.2-1.5-0.5-2.6-0.6-3.5c-0.4-2-0.5-3-0.5-3.199c0-2,1-4,2.8-5.801C125.5,184.3,125.8,184,126.3,183.5z"/>
<path fill="#EEE0B3" d="M197.9,147.6c0.9,0,1.8,0,2.8-0.101c3.2-0.199,6.4-0.699,9.7-1.699c5.4-1.5,10.8-4.101,16.601-7.601
	c-5.101,2.101-9.301,3.4-12.5,4.101c-1.101,0.199-2.101,0.399-3.301,0.5c-2.6,0.5-5.8,0.699-9.399,0.699c-0.601,0-1.2,0-2,0
	c-6.3,0-12.8-0.5-19.3-1.699c-0.7,0-1.2-0.2-1.801-0.301c-1.199-0.199-2.5-0.5-3.8-0.699c-1.899-0.5-3.7-0.9-5.3-1.4
	c-4-1.2-7-2.6-9-4.1c-1.9-1.5-2.8-3.101-2.8-4.801c0-2.3,0.8-4.5,2.3-6.5c1.2-1.5,2.4-2.5,3.5-2.6c-0.1-0.3-0.2-0.5-0.2-0.8
	l-0.3-0.9c-0.1,0.1-0.3,0.1-0.5,0.1c-0.3,0-0.8-0.2-1.4-0.7c-0.199-0.3-0.6-0.4-0.899-0.6c-0.4-0.2-0.8-0.2-1.3-0.2
	c-1.301,0-3.5,2.2-6.801,6.5c-1.399,2-2.7,3.5-3.7,4.6l0.1,0.1c2.3,3,6,5.9,11,8.801c0.2,0.1,0.4,0.199,0.5,0.199
	c2.7,1.5,5.5,2.9,8.5,4c2.8,1.101,5.8,2,8.9,2.801c0.5,0.1,1,0.199,1.5,0.3C184.8,147,191.1,147.6,197.9,147.6z"/>
<path fill="#797573" d="M165.6,120.8v-0.3v-0.3c0,0.1-0.2,0.2-0.5,0.2l-0.1,0.1c0.1,0.2,0.199,0.5,0.399,0.6
	c1.101,1.3,2.4,2.4,3.9,3.399c0.5-0.5,1.1-1.1,1.8-1.7c0,0,0,0,0-0.1c1.7-1.7,2.8-3.2,3.4-4.4c0-0.1,0.1-0.3,0.1-0.5
	c-0.2,0.2-0.5,0.5-0.8,0.7c-1.2,1-2.3,1.6-3.4,2.1c-1,0.4-1.899,0.7-2.8,0.7C166.6,121.3,166,121.1,165.6,120.8z"/>
<path fill="#848484" d="M142.4,111.3h-1.2v7h0.3c0-0.2,0-0.5,0-0.7h0.1c0.2,0.6,0.4,1.4,0.5,2.6c0.2,1.6,0.3,3.8,0.4,6.601
	c0,0.5,0,0.699,0,1.199c0,0.2,0,0.4,0,0.7c0.1,0,0.1,0,0.1,0c0.4,0,0.7,0.101,1.1,0.3c0.5,0.2,0.8,0.301,1,0.301c0.1,0,0.1,0,0.2,0
	c0.9-0.2,2.5-1.5,4.3-3.801c1.9-2.7,3-4.2,3.3-4.5c1-1.1,1.6-1.9,2.1-2.4c0.9-0.8,1.7-1.4,2.4-1.7c0.1-0.1,0.399-0.1,0.6-0.1
	c-0.3-0.1-0.5-0.2-0.8-0.2c-0.8,0-1.7,0.2-2.7,0.7c-1.1,0.5-2.3,1.2-3.3,2.4c-0.2,0.6-0.8,1.3-1.8,2.1c-0.9,0.9-1.5,1.3-1.5,1.3
	c-0.1,0-0.3,0-0.4,0c0-0.1-0.1-0.1-0.1-0.1c-0.8-0.2-1.5-1-2.2-2.4c-0.3-0.6-0.6-1.2-0.8-2.1C143.2,116.3,142.6,113.9,142.4,111.3z"
	/>
<path fill="#B7B7B7" d="M141.4,119.3c0.1-0.3,0.1-0.7,0.1-1h-0.3v1.7h0.2l0,0C141.4,119.7,141.4,119.5,141.4,119.3z"/>
<path fill="#F7F0D8" d="M148.6,129.5l-0.1-0.1v0.1c-0.1,0-0.1,0-0.1,0.101C148.4,129.5,148.5,129.5,148.6,129.5z"/>
<path fill="#B7B7B7" d="M141,155.6c0.1,0,0.1,0,0.2,0c0.3,0,0.6,0.1,0.9,0.399c0.3,0.2,0.5,0.301,0.5,0.301
	c1.9,0.199,3.1,0.199,3.5,0.199c2.9,0,5.6-0.399,8.1-1.3c2.5-0.899,4.9-2.3,7.2-4.2c3.3-3.6,5.4-5.699,6.4-6.1c0-0.1,0-0.1,0.1-0.1
	l0.3-0.601c-0.1-0.1-0.1-0.1-0.1-0.1c-2-0.8-4-1.601-5.9-2.5c-0.3-0.2-0.6-0.3-0.8-0.4c-0.6,1.5-1.899,3.4-4.1,6
	c-0.3,0.3-0.601,0.601-0.8,1c-3,3-5.7,4.601-8.2,4.601c-3.5,0-5.8-0.5-6.9-1.4C141.2,152.9,141.1,154.3,141,155.6z"/>
<path fill="#777777" d="M164.6,201.3c0-0.101,0-0.101,0-0.101c-0.5-0.2-1-0.2-1.5-0.2c0,0,0,0.101-0.1,0.101
	c-0.101,0.1-0.2,0.2-0.2,0.399c0,0.101,0.8,3.301,2.2,9.801c1.399,7.3,2.1,13.199,2.1,17.5c0,1.399-0.6,3.399-1.9,5.8
	c-1.199,2.399-2.8,4.7-4.8,7l0.101,1c4.3,0,7.199-0.4,8.5-1c0.6-0.601,1.399-1,2.199-1.3c-0.1-0.4-0.399-1-0.399-1.7
	c0-1.9,0-2.8,0-2.9c0-4.7,0-9.2,0.3-13.5c0.1-4.399,0.1-10.2,0.1-17.399c0,0,0-0.101,0-0.2c-1.6,0-3.1-0.3-4.5-1.101
	C165.5,202.8,164.7,202,164.6,201.3z"/>
<path fill="#959595" d="M172.1,204.6c0,0.2,0.1,0.399,0.3,0.7c0.7,2,1.101,4.399,1.101,7.3c0,2.1,0.1,5.399,0.3,9.7
	c0,0-0.101,1-0.3,2.8c-0.101,1.7-0.301,3-0.301,4c0,1.399-0.1,3.5-0.199,6.5c0,0.399,0.1,1.1,0.399,2.2
	c0.2,1.199,0.3,1.899,0.3,2.399c0,0.4,0,0.601-0.199,0.9c0.6,0.399,1.199,0.7,1.899,1.2c0.101,0.1,0.2,0.199,0.3,0.3V242.5
	c-0.1-0.1-0.1-0.3-0.3-0.3c-0.3-0.6-0.5-1.1-0.5-2c0-0.899,0.2-1.8,0.7-2.7c0.3-0.8,0.8-1.3,1.4-1.6c0-0.1,0.1-0.2,0.1-0.2
	c0-0.1,0-0.1,0-0.2c0-0.3,0-0.399,0-0.699c0.1-6,0.3-10.7,0.5-14.301c0.6-8.199,1.9-14,3.6-17.6L180,202.4
	C177,203.8,174.4,204.5,172.1,204.6z"/>
<path fill="#777777" d="M223.2,204c-0.1,0-0.1,0-0.1,0l0.6,0.601L223.2,204z"/>
<path fill="#777777" d="M211.5,213c-0.4,2.2-0.801,5-1.2,8.5l1.2,0.301c0-0.101,0-0.2,0.1-0.2c0.4-4.9,0.6-7.8,0.6-8.601H211.5z"/>
<path fill="#B7B7B7" d="M211.5,221.8l-1.2-0.301c0,0,0,0,0,0.101L211.5,221.8z"/>
<path fill="#777777" d="M211.5,221.8l-1.2-0.2c-0.3,2.1-0.601,4.5-0.8,7c-0.101,0.7-0.301,1.399-0.4,2c0.3,0,0.5,0.1,0.9,0.5
	c0.199,0.1,0.5,0.3,0.8,0.5c0.1-1.5,0.2-3.4,0.399-5.7C211.2,224.6,211.4,223.3,211.5,221.8z"/>
<path fill="#DDD4C1" d="M178.6,237.2c-0.6,0-1,0.2-1.5,0.601c-0.6,0.8-1,2.399-1.1,4.5c-0.2,0-0.301,0.1-0.301,0.199v0.101
	c0.5,0.3,1,0.6,1.5,1c1,0.6,1.9,1.1,3,1.5c0,0,0.101,0,0.2,0.1c0.101,0,0.3,0.101,0.5,0.101c0.101,0,0.2,0,0.2,0.1
	c0-0.7,0.1-1.6,0.3-2.7c0-0.1-0.1-0.5-0.2-0.899c-0.1-0.5-0.399-1.2-0.699-2.101C179.8,238,179.1,237.2,178.6,237.2z"/>
<path fill="#DDD4C1" d="M152.4,237c0.2,0.601,0.3,1.301,0.3,2.2c0,0.3,0,1-0.1,1.8c-0.1,0.5-0.3,0.801-0.4,1.101
	c1.9,0.3,3.801,0.5,5.9,0.5V242.5c-0.1,0-0.7-1.399-1.7-4.199C155.6,236.1,154.2,235.6,152.4,237z"/>
<path fill="#959595" d="M86,229.6l-0.4-0.4c-0.6,0.5-1.3,1-1.9,1.5l0.3,0.5C84.6,230.6,85.2,230.2,86,229.6z"/>
<path fill="#94A77C" d="M173.5,69.5c-0.4,0-0.7,0.8-1.101,2.1c0,0,0,0,0,0.2c-0.3,0.7-0.7,2-0.899,3.5c0.6-0.8,1.1-0.9,1.5-0.5
	c0.199,0.3,0.399,0.7,0.399,1.4c0,0.8-0.399,1.4-1,1.8c-0.3-0.2-0.399-0.5-0.5-1.1c-0.1-0.5-0.3-0.9-0.6-1.2
	c-0.2,0.8-0.5,1.6-0.601,2.6c0,0.2,0.101,0.6,0.4,1.1c0.1,0.5,0.3,0.9,0.3,1.1c0,0,0,0.1,0,0.2c0.601-0.4,1.2-0.6,1.7-0.9
	c1.9-0.8,4.2-1.4,7.1-2c-0.399-0.6-1.1-2-2.1-4c-0.3-0.6-0.6-1.3-1-1.8c0,2.2-0.7,3.3-2,3.3c-0.8,0-1.4-0.6-1.6-1.7
	c-0.2-1.1-0.4-1.6-0.4-1.6c0-1.1,0.7-1.7,2.1-1.7c0.2,0,0.301,0,0.4,0.1C174.9,69.8,174.2,69.5,173.5,69.5z"/>
<path fill="#FFFFFF" d="M176.1,72.7c0-0.2,0-0.4,0-0.7c-0.9-0.1-1.6,0-2.4,0.3c0.4,0.9,0.801,1.5,1.301,1.9
	C175.7,73.6,176.1,73.2,176.1,72.7z"/>
<path fill="#94A77C" d="M100.4,70.3c0,0.4-0.2,1-0.3,1.7c0,0.3,0.2,1,0.6,2.2c0.2,0.6,0.4,1.1,0.5,1.5h0.1c1.8-0.4,3.2-0.5,4.2-0.7
	l-0.1-0.2c0-0.9,0.1-2,0.1-3.4v0.1c-0.5,0.5-1,0.8-1.6,0.8c-1.3,0-1.8-0.5-1.8-1.8c0-1.6,0.6-2.2,1.9-2c0.6,0.1,1.1,0.3,1.5,0.5
	c0-0.2,0-0.4,0-0.5c-0.6-0.2-1.4-0.3-2-0.3c-1.6,0-2.8,0.1-3.7,0.6C100.2,69.2,100.5,69.6,100.4,70.3z"/>
<path fill="#FFFFFF" d="M104.2,71.6c0.2,0,0.3-0.1,0.5-0.3c0.3-0.3,0.4-0.4,0.4-0.5c-0.1-0.5-0.1-0.8-0.1-1.2
	c-0.4,0-0.9,0.2-1.3,0.4c-0.3,0.1-0.6,0.3-0.6,0.5C103.1,70.8,103.6,71.2,104.2,71.6z"/>
<path fill="#FFFFFF" d="M107.3,69.5c0.3,0.8,0.4,1.5,0.4,2.3c0,0.5-0.1,1.2-0.3,1.8c-0.3,0.7-0.6,1.1-0.9,1.2c0.9,0,1.7,0,2.3,0
	c0.8,0.1,1.3,0.2,1.6,0.4c0-0.1,0-0.2,0.1-0.2h0.4c-0.2-0.3-0.3-0.6-0.3-0.8c-0.3-0.6-0.5-1.2-0.7-1.6
	C109.1,71.2,108.2,70.2,107.3,69.5z"/>
<path fill="#B7B7B7" d="M110.9,75h-0.4v0.5l-3.9,0.5c-2.1,0.4-4.2,1-6.2,2c0.6-0.2,1.3-0.4,2-0.5c0.1,0.1,0.2,0.1,0.2,0.1
	s0.1,0.2,0.1,0.5c0,0.3-0.3,0.7-1,1.1c0.7-0.2,1.4-0.4,2.4-0.6l0.5,0.8c-5.1,3.4-7.6,6.7-7.6,9.8c0,0,0.5,1.4,1.2,4.1
	c0.4,1.2,0.8,2.2,0.9,3.2c0.3,1,0.4,1.8,0.4,2.5c0,0.3-0.1,1-0.5,2c0.7-0.7,1.7-1.7,3-2.8c2.5-2.7,4.7-5.5,6.6-8.6
	c2.4-3.6,3.5-6.5,3.5-8.8C112.1,79.2,111.6,77.2,110.9,75z"/>
<path fill="#A2A2A2" d="M104.6,79.4l-0.5-0.8c-1,0.2-1.7,0.4-2.4,0.6c-0.1,0.1-0.3,0.1-0.5,0.3c-0.1,0-0.2,0-0.3,0.1
	c-0.7,0.4-2.1,1.1-4.1,2c-3.8,2.2-5.7,5-5.7,8.4c0,2.3,0.3,4.8,1,7.5c0.4,1.5,1.1,4,2.1,7.5c0.6-0.4,1.2-0.8,1.9-1.3
	c0.5-0.4,1-0.8,1.5-1.2c0.1-0.3,0.6-0.7,1.4-1.5c0.4-1,0.5-1.7,0.5-2c0-0.7-0.1-1.5-0.4-2.5c-0.1-1-0.5-2-0.9-3.2
	c-0.7-2.7-1.2-4.1-1.2-4.1C97,86.1,99.5,82.8,104.6,79.4z"/>
<path fill="#EEE0B3" d="M81,113.5c0,0.1,0,0.1,0,0.2c0,0.3-0.6,0.8-1.7,1.6c0.5,0.2,1.1,0.6,1.4,1c0.8,0.7,1.1,1.4,1.1,2.2
	c0,3.2-3,6.3-8.9,9.3c-2,1-4.1,1.899-6.3,2.6c-0.5,0.1-1,0.2-1.4,0.4c-5.6,1.6-11.9,2.399-19.1,2.399c-2.3,0-6.3-0.399-11.9-1.2
	c-2.5-0.399-4.5-0.6-5.9-0.8v0.8c2.4,1.5,5.3,3,8.6,4.2c5.3,1.9,10.7,2.8,16,2.8c3.7,0,6.7,0,9.2-0.199c0.5,0,1,0,1.5-0.101
	c1.5-0.2,2.6-0.3,3.5-0.5c1.7-0.7,3.9-1.399,6.3-1.8c0.1,0,0.1,0,0.1,0c0.1,0,0.1,0.1,0.1,0.4l0.9,0.699
	c2.6-4.1,7.4-10.199,14.4-18.7c-0.4-0.5-1.1-1.5-1.8-2.8c-1.4-2-3-2.9-4.9-2.9L81,113.5z"/>
<path fill="#F7F0D8" d="M70.4,119.3c-0.3,0-0.5,0.2-0.8,0.2c-4,1.3-8.4,2.4-13.1,3.2c1.6,0.5,3.1,1,4.2,1.6c1.8,1,2.7,1.9,2.7,2.7
	c0,0.801-1.6,1.5-4.6,2.301c-3.2,0.699-7.2,1-12,1c-2.4,0-4.2-0.101-5.4-0.5c-0.2-0.101-0.8-0.5-1.9-1.101c0.4-1.5,3-2.8,7.6-4
	c4.7-0.9,7.4-1.5,7.9-1.8c-6.1,0.9-12.8,1.3-19.9,1.3c-9.4,0-16.2-1.1-20.5-3.4l-0.5,0.7c1.2,1,2.5,2,3.8,2.8c1,0.8,2.6,2,4.9,3.7
	c1,0.801,2,1.601,3,2.301c0.3,0.199,0.5,0.399,0.8,0.5c0.5,0.5,1.1,0.8,1.7,1.199v-0.8c1.4,0.2,3.4,0.4,5.9,0.8
	c5.6,0.801,9.6,1.2,11.9,1.2c7.2,0,13.5-0.8,19.1-2.399c0.4-0.2,0.9-0.301,1.4-0.4c2.2-0.7,4.3-1.6,6.3-2.6c5.9-3,8.9-6.101,8.9-9.3
	c0-0.8-0.3-1.5-1.1-2.2c-0.3-0.4-0.9-0.8-1.4-1c-0.2,0.1-0.6,0.2-0.8,0.5c-2.1,1.2-4.8,2.3-7.8,3.4
	C70.6,119.2,70.5,119.2,70.4,119.3z"/>
<path fill="#FFFFFF" d="M56.5,122.7c-0.5,0.1-1,0.1-1.5,0.2c-0.5,0.3-3.2,0.9-7.9,1.8c-4.6,1.2-7.2,2.5-7.6,4
	c1.1,0.601,1.7,1,1.9,1.101c1.2,0.399,3,0.5,5.4,0.5c4.8,0,8.8-0.301,12-1c3-0.801,4.6-1.5,4.6-2.301c0-0.8-0.9-1.699-2.7-2.7
	C59.6,123.7,58.1,123.2,56.5,122.7z"/>
<path fill="#F7F0D8" d="M73.5,137.3c0.4,0,0.7,0,1,0.199l-0.9-0.699C73.6,137,73.6,137.1,73.5,137.3z"/>
<path fill="#797573" d="M148,130.4c0-0.1,0-0.2,0-0.4c0.1,0,0.1-0.1,0.1-0.199c-1.1,1-2,1.5-2.7,1.5c-0.4,0-0.8,0-1.2,0
	c-0.7-0.101-1.3-0.301-1.7-0.5c0,1.8-0.1,3.8-0.1,5.899c-0.2,2.2-0.3,4.5-0.4,6.9h0.1c0.2,0,0.6,0.3,1.4,0.7
	c0.7,0.399,1.3,0.699,2,0.699c2.6,0,5.2-1.1,7.8-3.3c1.7-1.399,2.899-2.3,3.7-2.8c-2-1.2-3.801-2.4-5.301-3.6
	C149.2,133.2,148,131.6,148,130.4z"/>
<path fill="#FFFFFF" d="M144.9,147c-1.3,0-2.3-0.3-3-1.199c-0.1,0-0.1,0-0.1,0s0,0.1,0,0.199c-0.2,1.7-0.2,3.301-0.3,5
	c0.3-0.5,0.7-0.699,1.3-0.699c0.3,0,0.9,0.1,2,0.3c1.1,0.2,1.8,0.399,2.1,0.399c3.7,0,7-1.8,9.8-5.199c0.301-0.5,0.7-1,0.9-1.4
	c1.1-1.6,2-2.9,2.6-3.8c-0.399-0.101-0.699-0.3-1.1-0.601c-0.4-0.199-0.7-0.399-1-0.5c-0.4,1.2-1.9,2.7-4.5,4.5
	C150.5,146,147.6,147,144.9,147z"/>
<path fill="#DDD4C1" d="M207.7,236.1c0.301,0.1,0.7,0.399,1,0.5c0.5,0.3,1,0.5,1.5,0.7c0.4,0.199,0.9,0.3,1.301,0.5
	c0.1,0,0.199,0,0.3,0.1c0.2-0.9,0.3-1.4,0.3-1.5c0-0.9-0.2-1.7-0.7-2.3c-0.2-0.3-0.399-0.5-0.6-0.601c-0.3-0.3-0.7-0.5-1.2-0.6
	c-0.4-0.1-0.6-0.2-1-0.2c-0.4,1.2-0.6,2.4-1,3.4C207.6,236.1,207.6,236.1,207.7,236.1z"/>
<path fill="#DDD4C1" d="M212.7,233.7c0.9,1.3,1.4,2.5,1.4,3.8c0,0.301,0,0.601-0.1,0.9c0.699,0.1,1.399,0.2,2.1,0.2
	c0.4,0,0.7,0,1.1,0c-0.1-0.3-0.199-0.7-0.199-1.2c0.1-1.3,0.199-2.1,0.199-2.2c-0.199-0.899-0.8-1.3-1.8-1.1
	C214.2,234.2,213.3,234.1,212.7,233.7z"/>
<path fill="#DDD4C1" d="M219.1,238.4v0.1c1-0.199,2-0.3,2.8-0.399c-0.1-0.2-0.2-0.3-0.1-0.5c0.3-0.3,0.399-0.7,0.399-1.101
	l-0.8-1.399c-0.8-0.9-1.6-1-2.399-0.5c0.1,0.6,0.1,1.5,0.1,2.6C219.1,238,219.1,238.3,219.1,238.4z"/>
<path fill="#DDD4C1" d="M196,244.7c-0.4-0.399-0.9-1.2-1.2-2.5c-0.2-1.3-1.2-2-2.601-2c-0.8,0-1.5,0.101-1.699,0.2
	c-0.101,0.2-0.5,0.4-1,0.8c0.3,1.101,0.5,2.8,0.5,4.9v0.1C192.1,245.9,194.1,245.5,196,244.7z"/>
<path fill="#DDD4C1" d="M188.1,245.7c0-1,0-1.7,0-2.399c-0.3-2.301-2.1-3.5-5.6-3.5c0,0,0,0,0,0.1c0.5,1.4,0.6,3,0.6,4.6
	c0,0.601,0,1.101,0,1.5c1.1,0.2,2.4,0.301,3.6,0.301c0.5,0,1,0,1.5,0C188.1,246.2,188.1,245.9,188.1,245.7z"/>
<path fill="#DDD4C1" d="M140,231.6c-0.2,0.1-0.2,0.2-0.2,0.399c-0.8,2.301-1.5,3.7-2.1,4.2c0.7,0.5,1.5,1,2.4,1.4
	c0.8,0.6,1.7,1.1,2.8,1.6c0.5,0.2,0.9,0.4,1.5,0.601c-0.1-2-0.2-3.301-0.4-4.101c-0.4-1.6-1.2-2.899-2.5-3.5
	c-0.4-0.2-0.9-0.399-1.4-0.5C140.1,231.6,140,231.6,140,231.6z"/>
<path fill="#DDD4C1" d="M145.8,235.1c0.2,0.5,0.3,1.1,0.3,1.6c0,0.4,0,0.601,0,0.9c0,0.2,0,0.399,0,0.6c0,0.7,0,1.3,0,1.601
	c-0.1,0.199-0.2,0.399-0.3,0.699c1.6,0.5,3.2,1,4.8,1.301c0-0.2,0-0.301,0-0.601c0.3-0.899,0.5-1.6,0.5-2c0-1.399-0.5-2.6-1.3-3.5
	c-0.7-0.8-1.5-1.1-2.4-1.1c-0.3,0-0.4,0.1-0.6,0.1C146.5,234.8,146.1,234.9,145.8,235.1z"/>
<path fill="#D0D0D0" d="M95.6,7.3c4.8,0,8.1,1.3,10.1,4c1.4,2,2.3,4.9,2.4,8.9c0.1,2.2,0.2,5.1,0.4,8.8c0.1,0.2,0.1,0.3,0.1,0.5
	c0.5,2.3,1.9,3.6,4,3.6c0.1,0,0.3,0,0.5-0.1c0.1,0,0.4-0.2,0.5-0.3c1-0.5,2.1-0.9,3.3-1.1c0.1,0,0.2,0,0.3,0c-1-0.2-1.7-0.4-2.4-0.9
	c-1-0.8-1.7-2.1-2-3.7c0-2.4-0.1-4.5-0.1-6.3c-0.1-1.5-0.1-2.9-0.2-4.1c-0.4-4.6-1.9-8-4.7-10.3c-3.7-3.1-9.7-4.7-18.1-4.7
	c-0.1,0-0.4,0-0.6,0c-4.3,0-10.4,2.4-18.4,7.1c-4,2.3-7.7,4.8-11,7.3c-3.1,2.6-6,5.7-8.9,9.4c-1.3,1.9-3.5,4.9-6.2,9.1
	c-3.7,5.7-5.7,8.8-6,9.3c-2.1,3.6-3.4,6.8-3.9,9.5c0,0.2-0.2,1.7-0.7,4.5c-0.3,2-0.5,3.5-0.6,4.7c-0.2,1.5-0.7,3.3-1.6,5.7
	c-0.8,2.3-1.2,3.4-1.2,3.6c0,0.6,1,2,2.9,4c2.1,2.2,5.2,5.2,9.3,8.9c2.3,1.5,5.5,3,9.7,4.6c-0.9-0.9-1.6-2.1-2.2-3.8
	c-1.3-3.5-1.7-7.2-0.9-10.9c-1.9,0.4-3.2-0.3-3.8-1.9c-0.9-2.1-1.8-3.4-2.7-3.7c0.5-3.8,1.2-7.5,2.2-11.1c3-11.3,8.4-21.6,16.3-31.1
	c6.7-8.2,13.7-13.8,21-16.8C86.7,8.2,91.1,7.3,95.6,7.3z"/>
<path fill="#B7B7B7" d="M105.7,11.3c-2-2.7-5.3-4-10.1-4c-4.5,0-8.9,0.9-13.2,2.7c-7.3,3-14.3,8.6-21,16.8
	c-7.9,9.5-13.3,19.8-16.3,31.1c-1,3.6-1.7,7.3-2.2,11.1c0.9,0.3,1.8,1.6,2.7,3.7c0.6,1.6,1.9,2.3,3.8,1.9c-0.8,3.7-0.4,7.4,0.9,10.9
	c0.6,1.7,1.3,2.9,2.2,3.8c1.5,0.6,3,1.2,4.7,1.7c0,0,0,0,0.1,0c7.4,2.5,13.5,3.8,18.3,3.8L86,94.1l3,0.2l0,0c0.1,0,0.1,0.2,0.1,0.5
	h0.2c-0.1-1.5-0.2-3-0.2-4.8c0-2.7,1.1-5.2,3.4-7.5c1.1-1.2,2.5-2.2,4.1-3c-0.4-0.3-0.5-0.6-0.5-0.8c0-0.7,0.5-1.4,1.5-2.1
	c0.5-0.3,1.3-0.6,2.1-0.8c-0.1-0.2-0.3-0.3-0.4-0.6h-0.1c0,0,0,0.1,0,0.4c-0.1,0.2-0.2,0.2-0.6,0.2c-1.4,0-2.3-0.6-2.7-2l-0.1-2.3
	c0,0,0,0,0-0.1c-1.2-0.1-2.2-0.4-3-1.1c-0.4-0.5-0.8-1.1-1.2-2c0-0.5,0-0.8,0-1.3c-0.1-1.2-0.2-1.8-0.2-1.8c0-2.6,0.6-5.2,1.9-8
	c1.4-3.2,3.3-5.6,5.7-6.9c0.1,0,0.1,0,0.1-0.1c1-0.5,3-1.4,6.1-2.9c1.6-0.7,3.4-1.5,5.5-2.5c4.4-1.9,7.6-3.6,9.7-5.3
	c-1.1-0.3-1.9-1.1-2.4-2c-0.9-1.7-1.8-2.5-2.8-2.5l-0.5-0.8c-1.4,0.6-2.6,1.5-3.5,2.6c-0.1,0-0.1,0-0.1,0.1c-0.5,0.7-1,1.5-1.4,2.4
	c0,0.2-0.1,0.3-0.1,0.5V40c-0.1-0.1-0.1-0.1-0.1-0.1c-0.1-0.1-0.2-0.1-0.2-0.1c-0.1-0.1-0.1-0.3-0.1-0.6c0-1.9,0.9-3.7,2.4-5.1
	c0.5-0.4,1-0.8,1.5-1.1c-0.2,0.1-0.4,0.1-0.5,0.1c-2.1,0-3.5-1.3-4-3.6c0-0.2,0-0.3-0.1-0.5c-0.2-3.7-0.3-6.6-0.4-8.8
	C108,16.2,107.1,13.3,105.7,11.3z M95.3,20.5c0.9,1.1,1.4,2.5,1.4,4.3c0,1.5-2.3,4.5-7,8.8c-4.2,4.2-6.6,6.2-7,6.2
	c-1.6,0-3.9-0.2-6.7-0.5c-3.9-0.5-6.3-1-7.4-1.7c2.1-6,4.9-10.8,8.3-14.6c1-1,1.9-2,2.8-2.7c1.6-0.7,3.1-1.3,4.6-1.7
	c0.2-0.1,0.3-0.1,0.5-0.1c1.3-0.3,2.5-0.5,3.7-0.5C91.6,18,94,18.8,95.3,20.5z"/>
<path fill="#A2A2A2" d="M96.7,24.8c0-1.8-0.5-3.2-1.4-4.3C94,18.8,91.6,18,88.5,18c-1.2,0-2.4,0.2-3.7,0.5c-0.2,0-0.3,0-0.5,0.1
	c-1.5,0.4-3,1-4.6,1.7C78.8,21,77.9,22,76.9,23c-3.4,3.8-6.2,8.6-8.3,14.6c1.1,0.7,3.5,1.2,7.4,1.7c2.8,0.3,5.1,0.5,6.7,0.5
	c0.4,0,2.8-2,7-6.2C94.4,29.3,96.7,26.3,96.7,24.8z"/>
<path fill="#D0D0D0" d="M122.2,33c-0.1,0-0.2,0-0.5,0c-2.7,0-5.1,0.4-7,1.2l0.5,0.8c1,0,1.9,0.8,2.8,2.5c0.5,0.9,1.3,1.7,2.4,2
	c0.2-0.1,0.2-0.2,0.4-0.4c0.8-0.8,2.2-2.1,3.8-3.8c-0.1-0.3-0.2-0.6-0.2-0.8C124,33.5,123.4,33,122.2,33z"/>
<path fill="#FFFFFF" d="M98.2,70.3c-0.5,0.7-0.7,1.5-0.6,2.2c0,0.4,0.1,0.8,0.5,1.3c0.7,0.8,1,1.3,1.1,1.4h0.1
	c-0.1-0.2-0.2-0.4-0.2-0.6c-0.5-0.9-0.6-1.8-0.6-2.8c0-0.9,0-1.5,0.1-1.8v-0.2C98.5,70,98.4,70.1,98.2,70.3z"/>
</svg>
