<?xml version="1.0" encoding="utf-8"?>
<!-- Generator: Adobe Illustrator 12.0.0, SVG Export Plug-In  -->
<!DOCTYPE svg PUBLIC "-//W3C//DTD SVG 1.1//EN" "http://www.w3.org/Graphics/SVG/1.1/DTD/svg11.dtd" [
	<!ENTITY ns_flows "http://ns.adobe.com/Flows/1.0/">
	<!ENTITY ns_svg "http://www.w3.org/2000/svg">
	<!ENTITY ns_xlink "http://www.w3.org/1999/xlink">
]>
<svg  version="1.1" xmlns="&ns_svg;" xmlns:xlink="&ns_xlink;" xmlns:a="http://ns.adobe.com/AdobeSVGViewerExtensions/3.0/"
	 width="115" height="330" viewBox="-0.9 -0.955 115 330" enable-background="new -0.9 -0.955 115 330" xml:space="preserve">
<defs>
</defs>
<path fill="#6C6A58" d="M92.1,14.845c0-0.3,0-0.3-0.1-0.5c0.1-0.3,0.1-0.5,0.199-0.7c-0.199,0.2-0.3,0.3-0.5,0.4
	c-0.199-0.2-0.699-0.4-1.3-0.5c-0.1,0-0.2,0-0.2,0c-0.899-0.3-2.1-0.5-3.6-0.7c-3.4-0.4-5.8-0.4-7.4,0.1
	c-0.1,0.1-0.199,0.1-0.399,0.1c-2.101,0.8-4.9,2-8.7,3.6c-5.1,3.5-8.7,6.1-10.5,7.9c-0.5-0.3-1.2-0.2-1.9,0.1c-0.1,0-0.1,0-0.1,0.1
	c-0.2,0.1-0.4,0.2-0.5,0.3c0-0.6,0.1-1.3,0.2-2.1c0.3-1.8,0.5-3,0.6-3.3c0.4-1,1.3-2.6,2.7-4.6c1-1.5,1.5-2.5,1.7-2.8
	c1.6-0.3,2.8-1.1,3.8-2.1c1.2-1.2,1.9-2.5,1.9-3.6c0-1.4-0.9-2.6-2.5-3.7c-1.9-1.3-4.5-2-7.9-2c-2.5,0-4.2,0.6-5.2,1.7
	c-0.7,0.6-0.9,1.6-0.9,2.9c0.6,2.8,1.2,4.6,2.1,5.1c-0.7,0.7-1,1.5-1,2.7c-0.1,1.6-0.3,2.6-0.5,3.1c-0.5,1.1-1.2,2.1-2.1,3.1
	c-0.1,0.2-0.3,0.4-0.5,0.5c-0.3,0.3-0.5,0.5-0.8,0.8c-0.5,0.6-1.1,1-1.5,1.4c-1.4,0.8-2.6,1.7-3.7,2.7c-1.5,1.3-2.4,2.4-2.3,3.4l0,0
	h0.1c0.3-0.2,0.6-0.5,1-0.9c0.3-0.3,0.7-0.6,1-0.9c0.6-0.6,1.3-1.2,2.1-1.9l0.2-0.2l2-1.7c2.6-1.3,4.4-3,5.5-5
	c0.1-0.2,0.2-0.5,0.4-0.7c0.5-1.4,0.7-3.2,0.7-5.3c0-0.3,0-0.5,0-0.6c-0.1,0-0.1-0.1-0.2-0.3c0.1,0,0.1,0,0.1,0
	c0.5,0,0.6-0.2,0.6-0.6c0-0.1-0.4-0.7-1-2.1c-0.7-1.4-1.1-2.5-1.1-3.4c0-0.5,0.2-1.1,0.8-1.6c0.8-0.7,2.1-1,3.8-1
	c1,0,1.9,0,2.801,0.1c0.6,0.1,1.199,0.2,1.8,0.4c0.399,0,0.899,0.2,1.399,0.4c0.4,0.1,0.9,0.3,1.301,0.6c1.5,0.9,2.199,1.9,2.199,3
	c0,1.6-1.199,2.9-3.699,3.9c-1.101,0.4-2,0.8-2.7,1.1s-1,0.5-1,0.6v0.2c0,0.1,0.1,0.2,0.3,0.2c0,0,0.3,0,0.5,0c0.4,0,0.8,0,1.2,0
	c-1.601,1.3-2.9,3.2-3.9,5.6c-1.1,2.5-1.5,5-1.5,7.6c0,0.5,0,0.9,0.1,1c0,0.2,0.2,0.5,0.6,1c0,0.2,0.2,0.4,0.4,0.6l0.1-0.1
	c0-0.4,0.1-1.1,0.2-1.8c0-0.2,0.3-0.3,0.8-0.5c0,0,0.2-0.1,0.5-0.1c-0.3,0.3-0.5,0.6-0.5,0.9c0.1,0.2,0.2,0.4,0.2,0.5h0.6
	c0.2,0,0.8-0.5,1.9-1.7c1.1-1.3,1.6-1.9,1.7-2c0.5-0.3,1.399-1,2.5-2.1c1.1-0.8,1.8-1.3,2.399-1.7c0.101-0.1,0.101-0.1,0.2-0.1
	c1.9-1.3,3.9-2.5,6-3.4c0.7-0.4,1.6-0.7,2.5-1c3-1.2,5.9-1.7,8.8-1.7c0.2,0,0.4,0,0.7,0s0.7,0.1,1.2,0.2c0.1,0.1,0.1,0.1,0.2,0.1
	c-0.101,0-0.101,0-0.2,0c-0.5,0-0.8,0.1-1.2,0.2c-2.3,0.2-3.9,0.5-4.9,1.1s-2.199,1.4-3.699,2.8c-1.301,0.7-2.4,1.5-3.2,2.7
	c-1.4,1.8-2.101,2.6-2.2,2.8c-0.5,0.5-1.2,1.4-2.1,2.7c-0.9,1.3-1.7,2.2-2.101,2.7c-0.399,0.4-0.899,0.8-1.7,1.4
	c-0.699,0.6-1.3,0.9-1.8,1.2c-1.3,0.2-2.3,0.5-3.1,0.7c-1.101,0.3-1.8,0.5-2.2,0.7c-0.4,0.1-0.5,0.3-0.5,0.3c0,0.2,0.1,0.5,0.5,0.8
	h1.1v-0.2c0.9,0,1.9-0.1,2.7-0.3v0.2l1.8,0.1c0.101,0.2,0,0.4-0.3,0.9s-0.5,0.6-0.5,0.8l0.101,0.3c0.899,0.2,1.199,0.3,1.199,0.4
	c-0.8,1.1-1.399,1.9-1.6,2.3c-1.6-0.3-2.8-0.5-3.3-0.5l-1.3,0.2v0.2c0.1,0.1,0.199,0.1,0.399,0.1c0.4,0.2,1,0.3,1.4,0.4l-0.101,0.1
	c-0.6,0.7-1.199,1.9-1.8,3.5c-0.5,1.7-0.8,3.2-0.8,4.7c0,1.1,0.2,2.3,0.5,3.4c0.2,1.1,0.5,2,1,2.6c-1-0.2-2-0.1-3,0.1
	c-0.9,0.2-1.9,0.6-2.8,1c0,0.2,0,0.3,0.1,0.2l0.3,0.1l3.2-0.3c5.2,0,8.9,1.9,10.9,5.7c0.5,1,1,2.2,1.3,3.5c0.1,1.1,0.2,2.2,0.2,3.3
	c0,3.6-0.7,6.7-2.3,9.5c-0.101,0.2-0.301,0.4-0.301,0.6c-3.1,5-8.199,7.4-15.6,7.4l0,0c-1.1,0-2-0.1-2.6-0.1
	c-0.4-0.2-0.8-0.2-0.9-0.2c0.1-0.5,0.4-1.1,0.7-2c0.6-1.3,0.9-2,0.9-2.3c0-0.4,0.1-0.5,0.2-0.7c-1.5,2.2-2.8,4.7-3.6,7.9
	c-0.2,0.6-0.5,1.8-0.7,3.4v0.2c-0.3,1.2-0.6,2.7-1,4.7c-1,5.6-1.6,8.8-1.9,9.6c-1.6,3.8-4.6,5.7-9.1,5.7c-2,0-3.6-1-5-2.8
	c-1.1-1.7-2.1-4.2-2.9-7.7c0-0.3-0.1-0.5-0.1-0.8c-0.4-1.6-1.1-3.7-2.4-6c-0.2-0.7-0.8-2-1.6-3.7c-0.2-0.5-0.5-0.8-0.7-1.2
	c0.5,0.1,0.9,0.1,1.5,0.1c0.2,0,0.3,0,0.6,0c0,2.3,0.2,3.8,0.7,4.5c0.5,0.8,1.4,1.3,2.8,1.5c0,0.1,0,0.3,0,0.4
	c0,1.2,0.3,2.7,1.1,4.7c0,0,0,0,0,0.1c0.7,1.7,1.6,2.9,2.6,3.6c0.1,0.3,0.3,0.4,0.7,0.6c0.6,0.2,1.3,0.4,2.2,0.4
	c2.1,0,4.1-1.5,6-4.2c1.8-2.8,3-6.2,3.6-10.1c0.7-4.7,1.1-7.1,1.1-7.5c0.2-0.4,0.7-1.5,1.6-3.3c0.2-0.4,0.3-0.8,0.4-1.1
	c1-2,1.5-3,1.5-3.3c0,0-0.1-0.2-0.2-0.4c-0.8,1.1-1.5,2.2-2.3,3.2c-0.5,0.5-1.2,1.2-2,2l0,0c-0.6,0.6-1.1,1.2-1.7,1.8
	c-2.1,1.7-4.2,3.1-6.5,4c-1,0.2-2.8,0.4-5.4,0.9c-3.1,0.3-5.1,0.6-6,0.6c-1.6,0-3.4-0.3-5.1-0.9c-1.9-0.7-3-1.4-3.5-2.3
	c-0.2-0.6-0.4-1.4-0.3-2.6c0.1-1.3,0-2.1-0.2-2.5c-0.9-2.8-2-5-3.3-6.3c-0.7-0.6-1.1-1.7-1.2-3.2c0-0.3,0-0.7,0-1
	c0-1.1,0.8-2.8,2.2-5.2c0.1-0.1,0.2-0.3,0.2-0.3l2.4-3.6l0,0c0.7-0.7,1.3-1.2,2.1-1.7c1.9-1.5,4.1-2.3,6.6-2.3c2.4,0,5,0.4,7.7,1.3
	c2.3,0.7,4.2,1,5.4,1.2c0.3,0,0.5,0,0.7,0c0.2,0,0.3,0,0.5,0c0.6-0.1,1.1-0.3,1.7-0.7c0.5-0.3,0.9-0.6,0.9-0.9
	c0-0.3-0.3-0.5-0.7-0.5c-0.1,0-0.3,0.1-0.7,0.4c-0.1,0-0.2,0-0.4,0.1c-0.5,0.2-1.1,0.2-1.8,0.2c0,0-2.4-0.5-7-1.4
	c-3.3-0.7-5.8-1.1-7.8-1c2.4-2.3,4-4.4,5.2-6.4c1.5-2.5,2.3-5.2,2.3-8v-1.7l-0.1-0.5c0.1-0.3,0.1-0.7,0.2-1c0-0.2,0-0.5,0.1-0.7
	c0-0.3,0-0.4-0.1-0.6c0-0.2-0.1-0.2-0.2-0.3c-0.5,0.4-0.7,0.9-0.7,1.6c0,0.3,0,0.6,0.1,0.7c0,0,0.1,0.1,0.1,0.2
	c-0.1,0.1-0.3,0.2-0.3,0.4c-0.2,0.3-0.4,0.7-0.4,1.2c-0.1,0.5-0.1,1.3,0.2,2.4c0,0.5-0.2,1.3-0.5,2.3c-0.5,1.2-0.8,2-1,2.3
	c-0.2,0.5-0.5,1-1.2,2c-0.2,0.3-0.4,0.7-0.7,1c-0.4-0.1-0.6-0.3-0.9-0.5c0.4,0,0.8-0.3,1.1-0.8c0.3-0.4,0.6-1,0.8-1.8
	c0.3-1.2,0.5-2.2,0.5-3.1c0-1-0.1-2-0.2-3c-0.3-0.6-0.6-1.1-0.8-1.5c0.9-0.2,1.7-0.5,2.6-0.6l-0.1-0.2c-0.4-0.3-0.9-0.4-1.5-0.4
	c-1.1-2.9-1.9-4.1-2.1-3.6l0,0c-0.1,0.2-0.2,0.7-0.2,1.2c-0.1,1.1,0.1,2.1,0.4,2.7c-0.2,0-0.3,0.1-0.5,0.1c0,0,0,0-0.1-0.1
	c0,0.1,0,0.1,0,0.1c-0.5,0.1-0.9,0.2-1.2,0.5c-0.5-0.5-1.1-1-2-1.9c-0.5-0.6-0.8-0.9-0.9-1.1c0.1,0,0.1,0,0.1-0.1
	c0.3-0.4,0.8-0.9,1.4-1.4c0.6-0.6,1.4-1.1,2.1-1.5s1.4-0.8,2.1-1h-0.4c-2.1,0.4-3.7,1.1-4.9,2.2c-0.3,0.1-0.4,0.3-0.6,0.5
	c-0.2-0.2-0.4-0.5-0.7-0.7c-0.8-0.3-1.8-0.4-3-0.4l-3.1,0.2c-4.4,0-7.4-1.9-9.3-5.8c0-0.2-0.1-0.3-0.1-0.5c-1-2-1.4-4.3-1.4-6.7
	c0-1.1,0.1-3,0.5-6c0.2-1.2,0.4-2.4,0.6-3.7c0.3-1.6,0.6-2.4,0.8-2.4c0.5,0,1.7,0.5,3.4,1.5c1.9,1.1,3.4,1.8,4.5,2.1
	c0.9,0.3,1.9,0.5,3,0.9l0.1,0.1c0.4,0.2,0.9,0.3,1.4,0.5c1.8,0.8,3.1,1.5,3.9,2.1c0.2,0.1,1.2,1.6,3.2,4.5c0.1,0,0.1,0,0.1,0.1
	c0.3,0.2,0.4,0.5,0.6,0.8c1.4,2.1,2.7,3.4,3.8,4c0,0.1,0.1,0.1,0.1,0.2c0.4,0.1,0.7,0.2,1,0.2c0,0,0.1,0,0.1-0.1
	c0.2-0.1,0.2-0.1,0.3-0.1c0.1-0.1,0.2-0.3,0.2-0.4v-0.1c0,0-0.1,0-0.2-0.3c0.1,0,0.2,0,0.3-0.1c0.3-0.2,0.7-0.8,0.9-1.6
	c0.2-0.8,0.3-1.5,0.3-2.3c0-0.3-0.5-2.1-1.4-4.9c-0.6-1.3-1.2-2.4-1.7-3.2c0.2-0.1,0.5-0.4,0.8-0.6c0.4-0.3,0.7-0.6,0.9-0.9
	c0,0,0,0,0.1-0.1c0.2-0.3,0.3-0.4,0.3-0.5c-0.1-0.3-0.5-0.4-0.9-0.4l-1.9,1c-1.3,0.6-2.2,0.9-2.7,0.9s-0.9-0.3-1.2-0.8
	c-0.2-0.4-0.2-0.6-0.3-0.8c0-0.2,0-0.3,0-0.4c0-0.9,0.9-2,2.6-3.5c0.9-0.7,1.6-1.4,2.2-2c0.1,0,0.2,0,0.3,0s0.3,0,0.4-0.1
	c0.1-0.1,0.4-0.3,0.5-0.3c0.4-0.2,0.6-0.3,0.9-0.5c0.2,0,0.5-0.1,0.6-0.2c0.8-0.3,1.5-0.4,2.3-0.4c0.7,0,1,0.1,1.2,0.6
	c-1.5,2.4-2.1,4.1-2.1,4.9c0,0.1,0.3,0.4,0.9,1c0.2-0.4,0.4-0.8,0.7-1.3c0.1,1.9,0.5,4,1.3,6.4c1.1,3.9,2.6,6.1,4.6,6.8
	c-2.3,1.8-3.4,2.7-3.8,2.8c-0.8,0.4-1.8,1.3-3.1,2.9c-0.1,0.1-0.3,0.2-0.3,0.3c-1.2,1.4-2,2.5-2.1,3.3c-0.1,0.2-0.1,0.3-0.1,0.5h0.1
	v0.3l0,0c0.1,0,0.1,0,0.1,0.1c0.3,0.1,0.5,0.1,0.6,0.1c0.4,0,0.9-1,1.5-3.1c0.2-0.5,0.7-1.1,1.3-1.6c0.9-0.7,1.4-1.2,1.9-1.5
	c2.4-1.8,3.7-2.8,3.9-3c0.2-0.3,0.5-0.5,0.8-0.8c0.2,0,0.3,0,0.5,0c0.3,0,0.4-0.2,0.4-0.7c1-0.5,2.3-0.8,3.9-0.8
	c1.1,0,2.3,0.2,3.4,0.6c1.1,0.4,1.6,0.7,1.7,0.7c0.4,0,0.5-0.3,0.5-0.6c0-0.2-0.6-0.5-1.6-1.1c-1.2-0.4-2-0.7-2.5-0.7
	c-2.5,0-4.4,0.4-5.9,1.4c-0.5-0.3-1-0.8-1.8-1.5c-1.7-1.6-2.8-3.9-3.3-6.5l-0.7-4.3c-0.1-0.8-0.2-1.5-0.3-1.8
	c0.5-1.3,0.8-2.2,0.8-2.8c0-1.9-1.3-2.5-4.1-1.7c-0.7,0.2-1.3,0.5-1.8,0.7v-0.2c-2.8,1-4.6,2.1-5.8,3.3c-0.8,1.1-1.4,2.5-1.4,4.3
	c0,0.1,0,0.2,0,0.4c-0.1,0.4-0.1,0.9,0.1,1.3c0.3,1.1,1.5,1.7,3.2,1.7c0.4,0,0.6,0,0.9-0.1c1.8,3.8,2.7,6.3,2.7,7.7l-0.3,2.7
	l-0.1,0.1c-0.1-0.1-0.2-0.2-0.2-0.3c-0.1-0.1-0.3-0.3-0.5-0.5c-1.5-1.5-2.6-2.8-3.4-3.8c-0.5-0.6-1.1-1.6-2-2.9
	c-0.8-1.2-2.1-2.1-3.7-2.8c-0.9-0.4-2.5-1-5-1.9s-4.1-1.5-4.9-1.9c-2.6-2.1-4.5-2.7-5.6-2.1c-0.9,0.5-1.3,1.4-1.3,2.7
	c0,0.2-0.1,1.8-0.6,4.9c-0.4,3.2-0.6,5.8-0.6,8.2c0,1.8,0.7,4,2.1,6.3c0,0,0.1,0.1,0.1,0.2c2.3,3.6,5.6,5.3,9.9,5.3l4-0.2l2.2,0.3
	c-0.6,0.7-0.8,1.4-0.8,2.2c0.4,1.5,0.7,2.5,1.1,2.9c-0.3,0.1-0.5,0.2-0.7,0.3c-0.5-0.4-1.1-1-1.8-1.7c-0.3-0.3-0.5-0.5-0.8-0.8
	c-1-1.1-1.4-1.2-1.4-0.4c0.8,3.1,1.7,4.7,2.7,4.7v0.2h0.5c0.1,0,0.4-0.1,0.8-0.3c0.1,0,0.2-0.1,0.3-0.2c-0.1,0.2-0.1,0.3-0.1,0.4
	c0,1.4,0.4,2.9,1,4.4c1,2.2,2.5,3.5,4.5,3.6c-0.4,0.5-0.9,1.1-1.3,1.6c-1,1.3-1.7,2.3-2.2,3c-0.2,0-0.3,0-0.5,0
	c-1.5,0.2-3,1-4.6,2.3c-1.4,1.2-2.3,2.2-2.4,3.2c-1.1,0.8-2,1.8-2.9,3.3c-1.4,0.4-2.3,0.7-2.8,1c-0.8,0.5-1.3,1.1-1.3,1.9
	c0,0.2,0.2,0.6,0.4,1c0,0.8-0.1,1.8-0.3,2.7c-0.1,0.6-0.1,1.1-0.2,1.4c-0.1,0.2-0.1,0.4-0.1,0.5c0,1.1,0.2,2.2,0.7,3.2
	c0.8,1.8,2,2.7,3.6,2.7c0.9,0,1.4-0.1,1.5-0.2c0.5,0.9,0.9,1.8,1,2.7c0.1,0.2,0.1,0.9,0,1.9c0.1,1.2,0.3,2.2,0.7,3.1
	c0.9,2.1,3.1,3.3,6.2,3.8c0.7,1.4,1.5,3.3,2.5,5.6c1.1,2.4,1.8,4.4,2.3,6.1c0.2,1.1,0.9,3.6,2,7.4c1.3,2.9,3.6,4.6,6.6,4.7
	c-0.5,1-0.8,2-0.8,3c0,0.2,0.1,1.2,0.2,3.1c0,1.3,0.1,3,0.2,5.1c0,0.1,0,0.3,0,0.4c0,4.4-0.2,8.7-0.5,12.9c-0.1,2.7-0.3,5.4-0.5,8
	c-0.1,0.8-0.2,1.8-0.3,2.7c-0.5,4.7-0.7,7.3-0.7,7.8c0,1.4-0.2,3.2-0.6,5.5c-0.2,1.1-0.4,2.4-0.8,3.7c-0.6,3.2-1.6,7-2.8,11.5
	c-0.9,3.301-1.7,6-2.3,8.301c-0.5,2-1,3.6-1.3,4.899c-0.1,0.2-0.2,0.3-0.3,0.5v0.101c-0.3,0.199-0.4,0.399-0.4,0.699l-0.7,2.301
	c-0.2,1-0.4,2.5-0.8,4.699c-0.4,2.7-0.5,4.4-0.6,5.301c-0.1,0.6-0.1,2-0.1,4.199c0,0.301,0,0.5,0,0.601c0,0.1,0,0.2,0,0.2
	c0.1,6,0.7,11.699,2.2,17.1c0.3,1.2,0.5,2.3,0.9,3.4c0.4,1.199,0.7,2.899,1.4,5.3c0.5,2.2,1.2,3.899,1.9,5.399
	c0.4,0.601,1.1,2.101,2,4.2c0.3,0.7,0.7,1.4,0.9,2.2c1.4,2.9,2.2,4.3,2.8,4.3l0.3-0.1c-0.1,0.1-0.1,0.2-0.1,0.2
	c-0.7,1.5-1.1,2.699-1.1,3.6c0,0.2,0.3,0.9,0.7,2.1c0.4,1.101,0.8,1.801,1,2.101c0.6,0.6,1.8,1.2,3.4,1.899c0.7,0.4,1.3,0.7,1.9,0.9
	c-0.2,0.5-0.3,1-0.3,1.5l0.3,2.1c0,1.301,0,2.5,0.2,3.601c0.2,1.2,0.2,2.399,0.2,3.399c0,1.5-0.1,3.301-0.3,5.5
	c-0.3,3.101-0.8,6.7-1.5,10.9c-0.1,0.4-0.2,0.8-0.2,1.2v0.899c-0.4,0.101-0.9,0.2-1.6,0.601c-1.3,0.5-2.3,1-2.9,1.6
	c-0.5,0.5-1.2,1.5-2,2.9c-0.9,1.7-1.3,2.8-1.3,3.5c0,0.5,0.1,1.1,0.6,1.6c-0.2,0.3-0.3,0.5-0.5,0.8c-0.1,0.4-0.3,1.101-0.8,2.101
	l-2.8,4c-0.1,0.1-1,1.5-2.6,3.7c-1.5,2.399-2.4,3.899-2.4,4.3c0,1,0.3,2,0.7,2.899c0.6,1.101,1.3,2.101,2.3,2.801
	c1.2,0.8,2.8,1.6,5.2,2.5c3,1.199,5.3,1.8,7.2,1.8c0.8,0,1.5,0,2.1-0.101c3.5-0.199,6.3-0.699,8.5-1.8c0.6-0.2,1-0.5,1.4-0.7
	c0.2,0.5,0.5,0.801,0.8,1c0.4,0.2,1.7,0.801,4,1.9c0.8,0.8,1.7,1.4,2.8,2c0.5,0.3,1.2,0.6,1.9,0.7c1.6,0.6,3.7,0.899,6.3,0.899
	c3.5,0,6.101-0.8,7.7-2c1.1-0.899,1.7-1.899,1.7-2.899c0,0,0-0.101-0.101-0.2c0.101-0.5,0.2-1.1,0.2-1.9c0-0.3,0-0.6-0.1-0.899
	c-0.2-1-0.5-2.3-1.2-3.9c0-0.399-0.2-0.6-0.3-1c-0.7-1.7-1.2-2.899-1.3-3.2c-1.2-3.399-2-5.8-2.801-7.1
	c-0.1-0.3-0.199-0.6-0.399-0.8c0.399-0.3,0.8-0.601,0.899-0.9c0,0.4,0,0.8,0,1.3c0,0.101,0,0.2,0,0.2l0,0H67.5
	c0.1-0.399,0.3-0.7,0.6-1.399c0,0.3,0,0.5,0,0.699l0,0c0.4-0.8,0.6-1.5,0.9-2.199l0.5-0.9c0.6,0.5,1.6,0.8,2.8,1.1
	c0.8,0.101,1.899,0.2,3.1,0.2c2.601,0,4.4-0.5,5.601-1.7c-0.101,0.2-0.2,0.601-0.2,1c0,1.801,0.7,4.2,1.899,7.101
	c1.4,2.899,1.9,4.8,1.9,5.5c0,1-0.3,1.899-1,2.7c-1.3,1.8-3.6,2.5-6.9,2.5c-0.3,0-0.6,0-0.699,0c-0.301,0-0.5,0-0.7,0
	s-0.5,0.1-0.9,0.3c0.2,0.7,1.101,1.1,2.601,1.2c0.399,0,0.899,0,1.3,0c3,0,5.3-1,6.6-3c0.8-1.101,1.2-2.301,1.2-3.7
	c0-1.101-0.2-2.5-1-4.101c-0.2-0.8-1-2.199-1.9-3.899c-0.5-1.4-0.899-2.601-1.1-4c-0.1-1.101-0.4-1.9-0.8-2H81.2
	c0.601-0.7,0.9-1.601,0.9-2.9c0-0.899-0.1-1.5-0.2-2.1c-0.2-0.5-0.399-1.5-0.399-3.101l-0.2-2.699c-0.101-0.601-0.4-1-0.8-1.301
	c0.1-0.6,0.1-1.5,0.199-2.8c0-1.8,0.101-3.2,0.2-4.2c0-0.699,0-1.199,0.101-1.5c0.199-2.3,0.899-5.5,2-9.699
	c0.1-0.5,0.199-1,0.3-1.4c0.7-2.5,1.6-5.2,2.8-8.1c2-5.101,3-8.4,3-9.801c0-1.699-0.2-3.1-0.8-4.1c-0.8-1.2-1.7-2.3-2.4-3.5v-0.1
	c0.2-1.7,0.2-2.7,0.3-3c0.9-3,1.5-4.801,1.601-5.4c0.3-1.6,0.8-3.4,1.3-5.6c0-0.301,0.1-0.5,0.2-0.801c0.6-2,0.899-3.6,1.2-4.699
	c0.1-0.2,0.1-0.5,0.199-0.601c0.301-0.899,0.5-1.7,0.801-2.6c1-3,1.6-5.5,2.199-7.601c0.5-1.899,1-3.699,1.301-5.199
	c0.5-2.5,0.699-4.601,0.699-6.301c0-3.399-0.399-5.899-1.1-7.5l0,0v-1.199c-0.7-2.801-1.3-4.801-1.6-5.801
	c-0.801-1.699-1.601-3.3-2.7-4.699c0.2-0.101,0.6-0.301,0.899-0.301c0.9-0.399,1.9-0.5,2.801-0.5c2.8,0,5,1.301,6.399,3.801
	c0.9,1.6,1.5,3,1.5,4.3c0,0.5,0.2,1.2,0.601,2.3c0.399,1.1,0.5,1.7,0.5,2.1c-0.101,1-0.101,2.101,0,3.601c0,0.3,0,0.7,0.1,1
	c0,5.399-1.4,10.7-4.1,16.3c-1.2,2.3-2,4.7-2.801,7.1c-0.899,3.301-1.3,6.7-1.3,10.2c0,0,0.4,2,1.2,5.7c0.1,0.4,0.2,0.6,0.2,0.9
	l0.3,1.8c0,0.7-0.1,1.6-0.3,2.5c-0.2,0.899-0.3,2-0.3,3.2c0,1.3,0,2.3,0.1,2.899c0.1,0.601,0.6,1.601,1.2,3.2
	c0.6,1.1,1.399,2.3,2.7,3.7c1.6,1.6,2.699,2.399,3.699,2.399c0.601,0,0.9-0.199,0.9-0.8c0-0.1,0-0.399-0.2-0.7h0.2
	c0.3,0.2,0.5,0.2,0.9,0.101c0.199-0.101,0.5-0.3,0.5-0.601c-0.101,0-0.101,0-0.2,0c0.1-0.3,0.2-0.6,0.2-0.8c1.1,0.9,2,1.5,2.6,1.5
	c0.5,0,0.9-0.3,1.2-0.7c0.3-0.5,0.5-0.899,0.5-1.3c0.2,0.101,0.3,0.4,0.8,1.101c0.3,0.399,0.6,0.699,1,0.699c0,0,0.1-0.1,0.2-0.199
	c0.1,0.1,0.2,0.199,0.3,0.3c0.5-0.5,1-1,1-1.8c0.1-0.2,0.1-0.801,0.1-1.801c0-1.6-0.199-2.899-0.6-4c-0.2-0.3-1-1.8-2.2-4.399
	c-2.399-2.7-3.8-4.101-4.2-4.5c-2.199-1.7-4.399-1.8-6.6-0.601c-0.5-1-0.9-1.8-1-2.5c-0.5-1.199-0.6-2.399-0.6-3.5
	c0-5.699,2-12,6-19c4.1-7,6.1-12.1,6.1-15.399c0-1.7-0.3-3.3-0.5-4.8c-0.2-0.801-0.5-1.601-0.8-2.5c-0.101-0.5-1.101-3-3.101-7.7
	c-1.1-3.101-3.8-5.601-7.899-7.5c-1.2-0.601-3.601-1.5-7.101-2.601c-1.6-0.699-3.3-1.1-5.1-1.3c-2.4-0.399-3.5-0.1-3.5,0.7
	c-3.3-2.7-6.1-4.1-8.4-4.1c-2.6,0-5,1.1-7.199,3.3c-1.7,1.7-3.101,2.7-4.4,3.1c-0.4,0.101-0.7,0.2-1.1,0.2c-1.4,0-2.601-0.5-3.9-1.6
	l0,0c0.8-0.801,1.2-1.301,1.2-1.5c0-0.301-0.2-0.9-0.4-1.801c-0.399-1.199-1.1-3-1.9-5.3c-1.8-4.9-2.7-7.4-2.7-7.4
	c-0.4-1.7-0.8-3.3-1.1-4.8c-0.1-0.1-0.1-0.2-0.1-0.2c-0.3-1.5-0.5-2.8-0.6-4.1c-0.4-2.1-0.5-3.9-0.5-5.5c0-1.9,0.5-5.8,1.4-11.8
	c0.2-1.6,0.5-3.1,0.8-4.9c0.2-1.1,0.4-2.3,0.5-3.5c1.5-8.8,2.4-15.7,2.7-20.5c0-1,0-2,0-2.9c0-0.6,0.1-1.4,0.2-2.3
	c0-2.1,0.4-4.8,1-8l1-5.6c3.8-1.3,6.6-3.6,8.6-6.9c0.2-0.3,0.301-0.5,0.5-0.9c1.5-2.9,2.2-6.1,2.2-9.8l-0.7-5.4c0-0.7-0.5-1.7-1.6-3
	c-1-1.3-2-2.3-3-3c-0.8-0.5-2.1-1.2-4.1-1.8c-0.101-0.3-0.4-1-1.101-2.2c-0.7-1.4-1-2.9-1-4.4c0-0.3,0.3-2.5,1.2-6.5
	c0-0.2,0-0.7,0.3-1.6c2.2,0.6,3.601,1,4.2,1.1c0.9,0.1,2.6,0.2,5.5,0.2c5.6,0,10-2.1,13.2-6.2c1.1-1.3,1.899-2.7,2.6-4.3
	c0.3-0.7,0.601-1.5,0.7-2.1c0.4-0.7,0.7-1.7,1.2-2.9c0.1-0.1,0.1-0.2,0.1-0.4c0.4-1,1-2.3,1.5-3.6c0.8-2,1.5-3.6,2.101-4.9
	C91.9,15.646,92.1,15.345,92.1,14.845z M88.3,15.045c1,0,1.8,0.1,2.3,0.2c-0.5,0.4-0.9,0.9-1.2,1.4c-0.6,1-1.2,2.2-1.7,3.3
	c-0.3,1-0.6,1.8-0.8,2.6c-0.6,1.9-1.1,3.3-1.6,4.3c-0.101,0.7-0.2,1.4-0.5,2.3c-0.5,1.5-1.2,2.9-2.2,4c-3,3.9-7.9,5.8-14.6,5.8
	c-1.101,0-2.301-0.1-3.601-0.3c0.2-0.2,0.4-0.4,0.7-0.7c0.5-0.7,0.7-1.1,0.7-1.5s-0.101-0.6-0.2-0.8c0,0-0.3-0.2-0.9-0.8
	c0.301-0.4,0.4-0.7,0.4-1c0-0.2,0-0.4-0.1-0.4c-0.101-0.2-0.301-0.3-0.4-0.3c-0.2-0.2-0.4-0.2-0.6-0.2c1.1-0.5,2.1-1.3,3.1-2
	c1-1,2.9-3.1,5.4-6.5c4.399-5.8,9.199-8.9,14.5-9.3c0.1,0,0.1,0,0.199,0C87.6,15.045,87.9,15.045,88.3,15.045z M19.8,38.146
	c-0.2,0.1-0.5,0.2-0.7,0.3v-0.2c-0.5-1.2-0.7-2-0.7-2.3c0,0,0,0,0-0.1c0.1,0.4,0.2,0.8,0.4,1.1C19.1,37.545,19.3,37.945,19.8,38.146
	z M16.6,39.845c0.2,0,0.3,0,0.5,0.1c-0.1,0-0.1,0-0.2,0C16.9,39.945,16.7,39.845,16.6,39.845z M24.5,39.845c0.1,0.3,0.2,0.6,0.2,1
	c0,1.1-0.1,2.1-0.2,3.1c-0.4,2-1,3-2,3l-1.1-0.3c-0.7-0.5-1.2-1.2-1.5-2c-0.3-1-0.8-2.5-1.1-4.4c0.1,0,0.2-0.1,0.3-0.2
	c0.5-0.4,1-0.7,1.2-0.9v2.3c0.1,0.7,0.2,1.2,0.3,1.6c0.1,0.6,0.7,1,1.6,1c1,0,1.8-0.8,2.1-2.2c0.1-0.2,0.1-0.6,0.2-0.9
	C24.5,40.646,24.5,40.246,24.5,39.845z M23.5,40.246c0.1,0.5,0,1-0.1,1.4c-0.2,1-0.7,1.4-1.3,1.4c-0.4,0-0.7-0.6-0.8-1.8
	c0-1.1-0.3-1.9-0.7-2.2c0.1-0.2,0.3-0.2,0.3-0.2c0.7-0.3,1.5-0.6,2.3-0.7C23.4,39.246,23.5,39.945,23.5,40.246z M30.5,86.945
	c0.8-0.3,1.5-0.5,2.1-0.6c2.7-0.3,5.3-1.3,7.6-2.9c-1,1.4-1.9,2.7-2.6,3.9c-0.4,0.9-1.5,1.9-3,3.1c-2.3,1.8-4.6,2.7-7.1,2.7
	c-2.6,0-3.9-0.9-3.8-2.7c0-1-0.1-1.8-0.2-2.2C25.7,88.146,28,87.646,30.5,86.945z M42,82.845c-0.5,1.8-0.9,3.8-0.9,6
	c0,0.1-0.6,2-1.7,5.8c-2.2-0.5-4.2,0-5.9,1.2c-0.1,0.1-0.2,0.1-0.3,0.2c-0.3-0.3-0.6-0.4-0.9-0.4c-1,0-2,0.2-3.2,0.6
	c-0.8,0.3-1.4,0.6-1.5,0.7l-0.4-0.9c-0.1-0.6-0.2-1.1-0.5-1.6c0.6,0.1,1.4,0,2.1,0v-0.2c1.8,0.7,4.3-0.5,7.5-3.7
	C38.9,88.146,40.7,85.545,42,82.845z M45.6,92.345c0-0.4,0.6-2.9,1.8-7.7c0.5,0.5,1.6,0.8,3.3,0.8c0.2,0,0.3,0,0.3,0
	c1.5,0,2.7,0,4-0.3c-0.1,0.3-0.2,0.5-0.3,0.7l-0.2,1.3l-0.2,0.6c-0.3,2.2-0.5,3.5-0.5,4.1c-0.1,1-0.2,2.3-0.6,4
	c-0.1,0.2-0.1,0.4-0.1,0.6c-0.4,1.6-0.6,2.7-0.6,3.5c-0.1,0.5-0.4,2.3-0.9,5.3c-0.1,0.9-0.4,1.9-0.5,3.1c-0.9,4.6-1.2,7.1-1.2,7.6
	c0,1.3-0.3,4-0.8,8.2c-0.2,1.7-0.5,3.3-0.8,5.3c-0.1,1.5-0.2,2.7-0.2,3.8c-0.2,1.7-0.4,3.2-0.5,4.4c0,1-0.1,2.8-0.1,5.5
	c0,1.1,0.1,2.8,0.1,4.7c0.1,1.2,0.2,2.6,0.3,4.1c0.2,1.9,0.3,3.4,0.4,4.5c0.1,0.2,0.1,0.5,0.2,0.7c-0.2,0.3-0.2,0.5-0.1,1
	c0,2.3,1,5.8,3.1,10.3c0.4,1.199,0.9,2,1.4,2.8c0.9,1.6,1.8,2.899,2.9,3.899v0.2c0.1,0.101,0.2,0.101,0.3,0.101
	c1.5,1.399,3.2,2.199,5,2.199c0.8,0,1.4-0.1,2.1-0.3c1.7-0.399,3.301-1.5,4.7-3.1c0.4-0.4,0.8-0.9,1.3-1.3c1.5-1.4,3.2-2,5-2
	c3,0,6.7,2.1,10.9,6.399c0.4,0.5,0.9,1,1.3,1.5c3.5,4.101,6,8.7,7.601,13.8c-0.2-0.1-0.301-0.199-0.4-0.3h-0.1
	c0,0.2,0,0.5-0.101,0.8c0,0,0.101,0.301,0.101,0.7c0.1,0.5,0.199,1.3,0.5,2.101c0.199,1.699,0.5,3.5,0.5,5.3c0,1.1-0.301,3-0.9,5.7
	c-0.7,3.5-2,8.6-3.7,15c-0.2,0.5-0.3,1-0.399,1.399c-0.601,1.9-1,3.7-1.4,5.4c-2,6.899-3,11.5-3.5,13.899c0,0.4-0.1,0.7-0.1,1v0.101
	c0,0.1,0,0.1,0,0.2c-0.2,0.899,0.1,1.399,0.699,1.399c0.101,0,0.2-0.1,0.301-0.2c0.1,0.301,0.399,0.7,0.699,1
	c1.2,1.7,1.801,3.101,1.801,4.5l-4.5,13c-0.5,1.601-1.2,3.301-1.601,5c-1.2,4.2-2,8.101-2.399,12c-0.4,2.301-0.5,4.601-0.5,6.801
	c0,0.1,0,0.199,0,0.199c-0.301,0.101-0.5,0.2-0.5,0.7c0,0.3,0.199,0.601,0.699,0.9c0.5,0.399,0.801,0.7,0.801,1.2l0.1,2.3
	c0,1,0.1,1.8,0.4,2.5c0.1,0.899,0.199,1.6,0.199,2.2c0,2.199-2,3.399-5.8,3.399c-0.8,0-1.399-0.1-2-0.2c-1.3-0.199-2.1-0.5-2.6-1
	c-0.2-0.3-0.3-0.8-0.3-1.6c0.1-2,0.199-3.4,0.1-4.3c-0.1-1,0.2-2.101,1-3c0.1-0.101,0.2-0.101,0.2-0.3c0.3-0.2,0.5-0.5,0.8-0.601
	c0.2-0.2,0.5-0.399,0.8-0.6c-0.2-0.101-0.3-0.101-0.3-0.3l0,0l-0.9-0.101c-0.3,0-0.6,0-0.699,0.101c-0.4-0.5-0.5-1-0.5-1.4
	c0-0.9,0.1-2.7,0.6-5.4c0.4-2.399,0.5-3.8,0.5-3.899c0-1.4,0.5-5.2,1.2-11.3c0.3-2.4,0.5-4.301,0.7-5.7c0.1-1,0.1-1.7,0.199-2.3
	c0.101,0,0.2,0,0.2,0.1c0.101-0.2,0.2-0.5,0.2-0.7c0-0.1-0.1-0.3-0.2-0.7c-0.1-0.399-0.3-0.699-0.3-1.1c-0.5-1.5-1.3-3.9-2.3-7.1
	c-0.2-0.801-0.3-1.601-0.5-2.5c-0.2-0.7-0.3-1.301-0.4-1.9c0.101-1.1,0.101-1.9,0-2.4c-0.1-0.5-0.2-0.8-0.399-1.1
	c1.1-3.6,1.899-6.7,2.1-9.3c0.1-0.2,0.1-0.4,0.2-0.601c0,0,0.2,0,0.3,0c1.4,0,3.1-1.399,5.5-4c0.3-0.3,0.6-0.699,0.9-1.1
	c0.6-0.6,1.1-1.4,1.6-2.1c1-1.5,1.7-2.801,2.2-4.2c0.1-0.3,0.2-0.601,0.3-0.8c0-0.101,0-0.301,0-0.301c0.1-0.5,0.2-0.8,0.2-1.199
	c0.2-0.5,0.2-1,0.2-1.5l-0.2-0.801c-0.601,0.801-1.2,2.101-1.7,3.7c-0.6,1.8-1.2,3.101-1.8,3.9c-1,1.7-2.601,3.399-4.9,5.2l-2.6,2.1
	c0.3-1.4,0.3-2.7,0.5-4.1c0.5-6,0.8-10.601,0.8-13.801c0-0.199,0-0.399,0-0.6c0-0.1-0.2-0.4-0.3-0.6h0.1
	c0.5-0.301,0.9-0.801,1.2-1.301c0.4-0.699,0.5-1,0.6-1.5c-0.3,0-0.699,0.5-1.3,1.2c-0.6,0.601-0.8,1.101-0.8,1.3v0.101
	c-0.3-0.3-0.5,0.2-0.5,1.2l-0.2,2.5v0.199c0,0.101,0,0.101,0,0.101c-0.2,0.7-0.3,1.6-0.3,2.7c0.1,1.3,0,2.199,0,2.699
	c0,0.801-0.2,2.601-0.7,5.4c-0.1,0.2-0.1,0.5-0.1,0.8c-0.3,2-0.4,3.601-0.4,4.8c0,2.601-0.899,6.4-2.7,11.301
	c-1.1,3.1-1.8,5.199-2.199,6.699c-0.9-1.399-1.4-1.199-1.4,0.301c0,0.699,0.5,1.5,1.3,2.699c0.8,1.101,1.2,2.301,1.2,3.7
	c0,1.3-0.8,2.9-2.3,5c-2.3,3.2-3.5,4.9-3.601,4.9c0.7-0.3,1.2-0.601,1.801-1c-0.4,0.6-0.5,1.2-0.801,2.1c0,0.5-0.199,2.101-0.5,4.9
	c-0.1,1.6-0.1,3-0.199,4.399c-0.101,1.4-0.2,2.801-0.2,4.101c0,0.1,0.2,1.899,0.3,5.5c0.3,1.899,0.5,3.2,0.8,4.2
	c-0.5,0.3-0.8,0.5-0.8,0.699c0,0.101,0,0.301,0,0.2h1.3c0.101,0.2,0.2,0.3,0.4,0.3c0.3-0.1,0.399-0.199,0.399-0.199l0.2-0.301
	c1.3-0.3,2.3,0.301,2.8,1.801c0.4,1,0.5,2.1,0.5,3.3c0,3.899-0.5,6.2-1.6,7.1c-1,0.8-3.7,1.101-8.4,1.101c-0.399,0-1,0-1.6-0.101
	c-1.1-0.1-2.5-0.399-4-0.6c-0.2-0.4-0.5-0.601-0.7-0.9c-0.4-0.5-0.6-0.899-0.6-1.5c0-0.399,0.2-1.399,0.4-2.8
	c0.3-1.4,0.4-2.2,0.4-2.3c0-0.7,0.4-1.5,0.9-2.5c0.2-0.3,0.7-0.7,1.8-1.4c0.9-0.6,1.4-1.1,1.4-1.2c0-0.899-0.4-1.199-1.1-0.8
	c0.2-0.6,0.5-1.5,0.9-2.5c0.5-1.8,0.7-2.8,0.7-3.1c0.1-0.2,0.1-0.4,0.1-0.601c0.4-3.399,0.7-5.899,0.7-7.699
	c-0.2-2.9-0.2-5.101-0.4-6.5c0-1,0-1.9-0.1-2.601c0-0.3,0-0.5-0.1-0.7c-0.1-0.699-0.3-1.399-0.6-1.899c0.3,0.1,0.4,0.1,0.6,0.1
	l0.3-0.1c-0.1-0.3-1.1-1.4-3.1-3.601c-1.5-1.6-2.4-3.3-2.4-5.199c0-1.301,0.8-2.801,2.4-4.301c1.5-1.5,2.2-2.699,2.2-3.399
	c0-0.2-0.1-0.4-0.3-0.7c-0.3,0.4-0.7,0.8-1,1.4v-0.5c-0.3-0.4-0.5-0.801-0.8-1.2c-2-3.3-3.7-6.5-5.2-9.7c-0.7-1.4-1.3-2.7-1.9-4
	c-0.1-0.6-0.4-1.1-0.5-1.6c-1-2.7-2-5.5-2.6-8.101l-0.8-4.2c-0.2-1-0.5-1.8-0.6-2.399c0.6-0.2,1.4-0.8,2.1-1.601
	c1.1-1,1.6-1.699,1.6-2.199c0-0.101-0.1-0.2-0.2-0.301h-0.5c-2.1,1.801-3.4,2.7-3.9,2.7l-5-3c0-0.1-0.7-0.899-2.2-2.399
	c-0.7-0.7-1-0.7-1,0c0,0.3,0.3,1,1,1.8c0.1,0.2,0.2,0.399,0.4,0.6c0.1,0.101,0.2,0.2,0.3,0.4c0.4,0.399,0.7,0.7,0.9,1
	c2.5,1.899,4.3,2.899,5.4,3.2c0,1.5,0.6,4.3,1.7,8.399c0.9,3.101,1.7,5.601,2.4,7.3c0.1,0.5,0.3,0.801,0.5,1.2
	c0,0.101,0,0.101,0,0.2c1.4,3.4,2.7,6.3,4,8.7c1.2,2.6,2.3,4.3,3.2,5.2c0.4,0.5,0.9,0.8,1.3,1c-0.5,0.5-1.1,1.199-1.8,1.8
	c-0.3,0.399-0.6,0.7-0.8,1c-1,1-1.5,2.3-1.5,3.7c0,0.5,0.1,1.3,0.6,2.5c0.3,1.1,0.5,1.699,0.8,2.199c0.5,0.801,1.2,1.5,2.1,2.301
	c0.5,0.5,0.9,0.899,1.2,1.199c0.1,0.5,0.3,1.801,0.5,3.7c0,0.7,0.2,1.4,0.3,2.3l0.3,6.301c0,1.8-0.2,4.399-0.7,7.399
	c-0.1,0.5-0.3,1-0.4,1.601c-0.3,1.899-0.7,3.699-1.1,5.399c-0.5,0.4-1.3,1-2.1,1.8c-0.4,0.301-0.8,1.301-1.1,2.9
	c0,0.1-0.2,0.4-0.2,0.8c-0.1,0.5-0.2,1.101-0.3,1.9c0,0.1,0,0.1,0,0.1c-0.3,1.5-0.4,2.5-0.4,3.101l0.3,1.699
	c0.2,0.5,0.6,0.801,1,1.101c0.2,0.1,0.4,0.2,0.6,0.399c0.1,0,0.1,0,0.2,0c0.2,0.2,0.7,0.4,1.5,0.601c0.7,0.2,1.5,0.3,2.4,0.399
	c0.5,0,1.1,0,1.7,0v0.101l3.9,0.1c0.6,0,1.1,0,1.6-0.1c1-0.2,2.101-0.5,3.101-0.9c0.1-0.1,0.1-0.1,0.2-0.1c0,0.1,0,0.1,0,0.2
	c0,0.5,0.5,2.199,1.6,5.1c1.2,3,1.8,4.6,1.8,4.7c0.3,1.1,0.8,2.899,1.4,4.899c0.2,0.5,0.3,1.301,0.3,2.601c0,0.6,0.1,1.1,0.3,1.6
	c-0.5,0.3-0.899,0.601-1.399,1.2c-1.4,1-3.7,1.5-6.601,1.5c-2.3,0-4.3-0.4-6.1-1.2c-0.5-0.1-0.9-0.399-1.3-0.7
	c-0.5-0.3-0.9-0.5-1.3-0.8c-3.7-1.899-5.6-2.899-5.6-3.1s0-0.3,0-0.4c0.3-0.3,0.4-0.5,0.4-0.899c0,0,0-0.101-0.1-0.2
	c0.6-3,1-5.101,1.1-6c0.1-1,0.3-2.4,0.6-4.3c0.3-1,0.3-2.101,0.3-3.4c0-0.4,0-0.7-0.2-0.7c0,0-0.2,0.101-0.4,0.601l0,0
	c-0.3,0.8-0.7,1.699-1,2.8c-0.2,1-0.4,2.399-0.7,4.1c-0.8,3.8-1.3,6.2-1.5,7.5c-0.3,0.3-0.8,0.601-1.2,1.101
	c-1.6,1.1-4.2,1.699-7.8,1.899c-0.7,0-1.4,0-2.1,0c-2.1,0-4.8-0.6-7.9-1.6c-4.6-1.8-7-4-7-6.9c0-0.2,0.8-1.3,2.1-3.399
	c1.5-2.4,2.5-3.801,2.8-4.2c1-1.5,1.8-2.8,2.5-3.8c0.5-0.801,1-1.601,1.3-2.2c0.8,0.8,1.8,1.7,3.3,2.899c3.4,2.601,6.5,3.9,9.2,4
	c0.2,0,0.3,0,0.3,0c3.5,0,6-0.5,7-1.399c0.1-0.3,0.4-0.5,0.5-0.8c0-0.301,0.1-0.601,0.1-1l-0.5-0.101c-0.2,0-0.8,0.3-1.7,0.9
	c-0.9,0.5-2.1,0.8-3.5,0.8c-0.7,0-1.4-0.1-2-0.1c-2.8-0.5-5.6-1.601-8.4-3.601c-1.9-1.2-3.1-2.3-3.8-3.1c0-0.101,0-0.3,0-0.4
	c-0.1-0.1-0.2-0.2-0.2-0.3c0,0.1-0.2,0.1-0.2,0.1c-0.3-0.399-0.4-0.699-0.4-0.899c0-0.601,0.4-1.7,1.4-3.101
	c0.7-1.399,1.4-2.199,1.9-2.699c0.3-0.2,1.1-0.601,2.4-1c1.3-0.5,2-1,2.4-1.5c1.5-1.801,2.3-2.801,2.3-3
	c-0.1-0.2-0.2-0.301-0.2-0.301c-0.7,0.101-1.3,0.5-1.8,1c-0.1,0.101-0.2,0.301-0.3,0.5c0.1-0.5,0.2-1,0.4-1.699
	c0.2-1.5,0.5-3.5,0.7-6c0.1-1.5,0.3-2.801,0.3-4c0.2-3.5,0.3-5.301,0.3-5.4c-0.3-5.1-0.7-8.6-1.3-10.4c0.7,0.2,1.2,0.301,1.6,0.301
	c0.6,0,1.3-0.101,1.9-0.301c0.4-0.3,0.7-0.5,0.7-0.8c-0.2-0.2-0.7-0.399-1.2-0.399c-3,0-5.4-0.801-7.1-2.5c-1.3-1.2-1.9-2.4-1.9-3.5
	c0-0.7,0.3-1.801,1.1-3.5l1.2-2.601c0-0.2-0.1-0.3-0.1-0.399c-0.6-0.2-1.3,0.699-2.3,2.5c0-0.2-0.9-2.101-2.7-6
	c-0.2-0.4-0.3-0.7-0.5-1c-1.7-3.801-2.9-6.5-3.5-8.301c-1-3.5-1.8-6.5-2.5-8.899c-0.8-3.3-1.2-5.5-1.2-6.3
	c-0.6-5.7-0.9-9.5-0.9-11.601l0,0c0-1.7,0-3,0-4c0.4-2.8,0.5-4.399,0.5-4.899c0.2-1.301,0.5-3.2,1.1-5.5c0-0.101,0-0.101,0.1-0.2
	l0.1-0.101c0.2-0.699,0.5-1.399,0.7-2.1c0.9-2.6,1.7-4.9,2.4-6.9c1.1-3.199,1.8-5.699,2.3-7.699c0.4-1.601,1.2-4.9,2.2-9.5
	c0.1-0.5,0.1-0.9,0.2-1.301c0.4-1.7,0.7-3,0.9-4.1c0.3-1.6,0.5-2.7,0.5-3.1c0.3-3.1,0.5-6.3,0.9-9.4c0.1-0.8,0.1-1.6,0.1-2.4
	c0.4-3.7,0.6-7,0.8-9.9c0.2-3.6,0.3-6.6,0.3-9.1c-0.1-1.5-0.1-2.6-0.1-3.6c0-1.1,0-1.9,0-2.6c-0.1-0.6-0.1-1.3-0.2-1.8
	c-0.2-2.2-0.3-3.7-0.3-4.3l0.2-2.4c2.2,0,4.2-0.5,5.9-1.6c1.5-0.9,2.5-1.8,3-2.7c0.1-0.3,0.3-0.5,0.5-0.7c0.9-1.8,1.4-3.3,1.6-4.5
	c0.2-0.7,0.4-2.3,0.8-4.5C45.5,95.146,45.6,93.246,45.6,92.345z M9.1,63.845c0,0.1,0,0.1-0.1,0.1c-0.8,1.8-1.2,3.5-1.2,5.2v0.1
	c0,1.6,0.5,3.1,1.7,4.6c0.4,0.6,0.8,1.1,1.1,1.6c-0.4,0-0.7-0.2-1.4-0.3c-1.6-0.7-2.3-2-2.3-4.3c0.1-0.6,0.2-1,0.2-1.5
	c0.1-0.7,0.2-1.2,0.2-1.7l-0.2-2.4c0-0.4,0.5-0.8,1.8-1.3C9,63.845,9,63.845,9.1,63.845z M39.2,95.345c-0.1,0.2-0.1,0.3-0.2,0.5
	c-1.9,4.6-4.1,6.8-6.8,6.8h-1c-0.6-0.3-1.1-0.7-1.6-1.3c-0.4-0.6-0.9-1.4-1.5-2.7l-0.4-1h0.4c2.1-0.7,3.6-1,4.5-1
	c-1.3,1-1.8,2-1.8,3c0,0.3,0.1,0.5,0.2,0.7l0.2-0.1c0.4-1.3,1.4-2.3,2.7-3.1C35.2,96.246,37,95.646,39.2,95.345z M56.2,86.646
	c0.1-0.7,0.1-1.2,0.1-1.6c0.6-0.1,1.1-0.2,1.7-0.4c-0.101,0-0.101,0.2-0.101,0.3c0,0.5-0.1,1-0.2,1.8c-0.1,0.1-0.1,0.2-0.1,0.4
	c0,0,0,0.8-0.3,2c-0.2,0.8-0.2,1.5-0.2,2s-0.2,1.7-0.5,3.9c-0.1,1.1-0.3,1.9-0.4,2.6c0,0.8-0.1,1.3-0.1,1.8c0,1.2,0,2.5-0.1,4.1
	c-0.3,5.1-1.2,11.4-2.5,19.1c-0.3,1.4-0.4,2.7-0.6,3.9c-0.4,2.1-0.7,4-0.9,5.7c-0.8,4.9-1.1,8.4-1.1,10.7c0,2,0.1,4.1,0.3,6.2
	c0.3,1.6,0.5,3.2,0.8,4.8c0.6,3,1.3,6,2.3,9c1,2.9,2,5.5,3,8.2c0.2,0.5,0.3,1,0.6,1.5c0,0.101-0.3,0.5-1,1.101
	c-0.7-0.7-1.4-1.5-2.1-2.5c-0.3-0.3-0.6-0.8-0.8-1.3c-2.3-3.4-3.8-7.2-4.5-11.3c0-0.2,0-0.4,0.1-0.5c0,0,0-0.4,0-1
	c0-0.4,0-0.9,0-1.5c-0.1-1.4-0.2-3.2-0.4-5.5c-0.1-0.6-0.1-1.2-0.1-1.7c-0.2-2.4-0.4-4.2-0.4-5.5c0-3,0.3-6.3,0.5-10
	c0.3-2.5,0.5-5.3,0.9-8.1c0.6-4.9,1.4-10,2.5-15.7c0.3-1.6,0.5-3.2,0.9-4.6c0.4-2.7,0.8-5.1,1.2-7.4
	C55.5,92.246,56.1,88.845,56.2,86.646z M83.2,173.946l1.9-0.301c1.3,0,3.6,0.601,7,2c2.5,1,4.6,1.9,6.5,2.801
	c0.3,0.199,0.5,0.199,0.7,0.399c0.1,0,0.1,0,0.2,0.101c0.1,0,0.1,0.1,0.199,0.199c1.2,0.7,2.301,1.5,3.2,2.5
	c0.601,0.801,1.4,1.9,2.3,3.5c0.601,1,1.4,3.101,2.4,6.301c0.3,0.899,0.5,1.8,0.7,2.699c0.6,2.101,0.899,3.801,0.899,5.101
	c0,3.899-2,9.399-6,16.1c-3.3,5.8-5.3,10.9-5.899,15.7c-0.101,0.9-0.2,1.8-0.2,2.6c0,1.5,0.2,2.601,0.5,3.5
	c0-0.199-0.1-0.199-0.2-0.5c-0.8-2.699-1.2-4.6-1.2-5.8c0-5.3,1.4-10.7,4.101-16.399c2.7-5.5,4.1-10.9,4.1-16.2c0-1,0-1.8-0.1-2.4
	c-0.101-0.899-0.101-1.7-0.2-2.2c-0.1-0.699-0.5-2.8-1.2-6.3c-0.3-0.899-0.7-1.899-1.3-2.899c-0.5-1.101-1.3-2-2-2.5
	c-0.4-0.5-0.8-0.801-1.3-1.101c-1.3-0.899-3.2-1.2-5.5-0.899c-1.7,0.199-2.8,0.399-3.5,0.699c-0.7-0.8-1.2-1.6-2-2.399
	c-1-1.101-2.2-2.3-3.2-3.4c-0.5-0.3-0.8-0.6-1.1-0.899H83.2z M99.7,241.145c-0.1,0.2-0.1,0.4-0.399,0.601c-0.3-0.7-0.8-1.9-1.4-3.7
	c0.4,1.1,1.101,2,2,2.9C99.8,241.045,99.8,241.145,99.7,241.145z M100.6,241.045v-0.7c0,0,0.1,0,0.2,0l2.1-0.6c1,0,2.2,0.7,3.8,2.3
	c0.5,0.6,1.301,1.4,1.9,2.2c1.6,1.899,2.6,3.8,3.2,5.6c0.399,1.101,0.6,2.3,0.6,3.3l-0.1,1.7c-0.3-0.399-0.8-0.7-1.5-1.1
	c-1.3-0.7-1.9-0.7-1.9,0.1c0,0.101,0.2,0.4,0.4,0.8v0.601c0,0-0.2,0-0.4-0.101c-0.2-0.199-0.399-0.3-0.6-0.3c0,0-0.2,0.2-0.601,0.5
	c0-0.1-0.3-0.399-0.899-0.899c-0.4-0.4-0.7-0.601-0.9-0.601l-0.7,1c-0.1,0.3-0.199,0.5-0.3,0.7c-1.6-0.9-2.399-1.4-2.5-1.4
	c-0.399,0-0.6,0.2-0.6,0.7c0,0.101,0.1,0.3,0.1,0.5l0,0c-0.1-0.1-0.3-0.1-0.3-0.2c-0.5-0.3-0.8-0.699-1.1-1
	c-0.9-0.899-1.801-2-2.4-3.3c-0.7-1.7-1-3.3-1-4.899c0-0.601,0-1.5,0.2-2.801c0.1-0.6,0.2-1.1,0.3-1.5c0.5,1.2,1.1,1.7,1.7,1.7
	c0.6,0,1-0.399,1.2-1.1c0.1-0.3,0.1-0.4,0.1-0.601v-0.199C100.6,241.246,100.6,241.145,100.6,241.045z M69.3,246.845
	c0.3,1.4,0.7,3.101,1.3,5.101c0.7,2.8,1.5,4.8,2.2,6c-0.4,1.1-0.7,2.5-0.7,4c-0.1,0.699-0.1,1.199-0.1,1.699
	c0,1.101-0.101,2.5-0.4,4c-0.1,1-0.3,2.301-0.5,4c-0.1,0.4-0.5,2.801-1,7.2c-0.5,4.5-0.9,7.5-0.9,8.8c0.101,1.101,0.4,2,0.7,2.5
	c-0.399,0.7-0.8,1.801-1,3.2c-0.2,1.601-0.3,3.101-0.3,4.7c0,1.1,0.1,1.8,0.3,2.2c-0.399,0.2-0.8,0.6-1.1,1.1
	c0.3-2.1,0.5-3.399,0.5-4.1c0-1.5-0.2-3-0.601-4.4c-0.699-2.6-2-3.5-3.699-2.899c-0.101,0-0.301,0-0.4,0
	c-0.7-4.9-1.2-9.101-1.2-12.601c0-1.899,0.3-4.5,0.8-8c0.7-3.2,0.9-4.7,0.9-4.8v-0.3c0.9-0.8,1.6-1.601,2.4-2.601
	c1.3-2,2-3.699,2-5.3c0-1.399-0.601-3.2-1.9-5.7c0,0,0,0-0.1,0c1-2.3,1.8-4.5,2.6-6.399c0,0.7,0.1,1.6,0.2,2.399V246.845z"/>
<path fill="#ED6128" d="M90.6,15.246c-0.5-0.1-1.3-0.2-2.3-0.2c-0.4,0-0.7,0-1.101,0.1c-0.1,0-0.1,0-0.199,0
	c-5.301,0.4-10.101,3.5-14.5,9.3c-2.5,3.4-4.4,5.5-5.4,6.5c-1,0.7-2,1.5-3.1,2c0.199,0,0.399,0,0.6,0.2c0.1,0,0.3,0.1,0.4,0.3
	c3.6-0.7,7.199-2.8,11-6.5c3.6-3.5,6.5-5.1,8.899-5.1c0.7,0,1.4,0.2,2,0.7c0.2-0.8,0.5-1.6,0.8-2.6c0.5-1.1,1.101-2.3,1.7-3.3
	C89.7,16.146,90.1,15.646,90.6,15.246z"/>
<path fill="#F49366" d="M85.3,26.845c0.5-1,1-2.4,1.6-4.3c-0.6-0.5-1.3-0.7-2-0.7c-2.399,0-5.3,1.6-8.899,5.1
	c-3.801,3.7-7.4,5.8-11,6.5c0.1,0,0.1,0.2,0.1,0.4c0,0.3-0.1,0.6-0.4,1c0.601,0.6,0.9,0.8,0.9,0.8c0.1,0.2,0.2,0.4,0.2,0.8
	s-0.2,0.8-0.7,1.5c-0.3,0.3-0.5,0.5-0.7,0.7c1.3,0.2,2.5,0.3,3.601,0.3c6.699,0,11.6-1.9,14.6-5.8c1-1.1,1.7-2.5,2.2-4
	C85.1,28.246,85.2,27.545,85.3,26.845z"/>
<path fill="#6A92B1" d="M24.7,40.845l-0.2,0.1c-0.1,0.3-0.1,0.7-0.2,0.9c-0.3,1.4-1.1,2.2-2.1,2.2c-0.9,0-1.5-0.4-1.6-1
	c-0.1-0.4-0.2-0.9-0.3-1.6v-2.3c-0.2,0.2-0.7,0.5-1.2,0.9c-0.1,0.1-0.2,0.2-0.3,0.2c0.3,1.9,0.8,3.4,1.1,4.4c0.3,0.8,0.8,1.5,1.5,2
	l1.1,0.3c1,0,1.6-1,2-3C24.6,42.945,24.7,41.945,24.7,40.845z"/>
<path fill="#FFFFFF" d="M23.4,41.646c0.1-0.4,0.2-0.9,0.1-1.4c0-0.3-0.1-1-0.3-2.1c-0.8,0.1-1.6,0.4-2.3,0.7c0,0-0.2,0-0.3,0.2
	c0.4,0.3,0.7,1.1,0.7,2.2c0.1,1.2,0.4,1.8,0.8,1.8C22.7,43.045,23.2,42.646,23.4,41.646z"/>
<path fill="#FFFFFF" d="M32.6,86.345c-0.6,0.1-1.3,0.3-2.1,0.6c-2.5,0.7-4.8,1.2-7,1.3c0.1,0.4,0.2,1.2,0.2,2.2
	c-0.1,1.8,1.2,2.7,3.8,2.7c2.5,0,4.8-0.9,7.1-2.7c1.5-1.2,2.6-2.2,3-3.1c0.7-1.2,1.6-2.5,2.6-3.9
	C37.9,85.045,35.3,86.045,32.6,86.345z"/>
<path fill="#7D614E" d="M41.1,88.845c0-2.2,0.4-4.2,0.9-6c-1.3,2.7-3.1,5.3-5.7,7.7c-3.2,3.2-5.7,4.4-7.5,3.7v0.2
	c-0.7,0-1.5,0.1-2.1,0c0.3,0.5,0.4,1,0.5,1.6l0.4,0.9c0.1-0.1,0.7-0.4,1.5-0.7c1.2-0.4,2.2-0.6,3.2-0.6c0.3,0,0.6,0.1,0.9,0.4
	c0.1-0.1,0.2-0.1,0.3-0.2c1.7-1.2,3.7-1.7,5.9-1.2C40.5,90.845,41.1,88.945,41.1,88.845z"/>
<path fill="#C3A54D" d="M47.4,84.646c-1.2,4.8-1.8,7.3-1.8,7.7c0,0.9-0.1,2.8-0.5,5.6c-0.4,2.2-0.6,3.8-0.8,4.5
	c-0.2,1.2-0.7,2.7-1.6,4.5c-0.2,0.2-0.4,0.4-0.5,0.7c-0.5,0.9-1.5,1.8-3,2.7c-1.7,1.1-3.7,1.6-5.9,1.6l-0.2,2.4
	c0,0.6,0.1,2.1,0.3,4.3c0.6,0,1.3,0,2.2,0c3.9,0,6.6-1.2,8.2-3.8c0.1-0.2,0.1-0.5,0.1-0.7c0.2-1.7,0.2-3,0.3-3.7
	c0.1-1.5,0.4-2.3,0.6-2.4c0.3-0.1,0.6-0.2,0.9-0.4c0.4-1.9,0.9-3.5,1.2-4.8c1.2-4.6,2-7.7,2.4-9.2c-0.1-0.2-0.2-0.3-0.3-0.4
	c0-1,0.6-3.6,1.7-7.8C49,85.445,47.9,85.146,47.4,84.646z"/>
<path fill="#837862" d="M49,93.246c0.1,0.1,0.2,0.2,0.3,0.4c0.2-0.6,0.3-1,0.4-1.2c1.2-2.7,2.8-4.5,4.8-5.3l0.2-1.3
	c0.1-0.2,0.2-0.4,0.3-0.7c-1.3,0.3-2.5,0.3-4,0.3c0,0-0.1,0-0.3,0C49.6,89.646,49,92.246,49,93.246z"/>
<path fill="#9D8A68" d="M49.7,92.445c-0.1,0.2-0.2,0.6-0.4,1.2c0.7,0.6,1.4,1.4,2.5,2.1c0.4,0.2,0.8,0.5,1.3,0.7
	c0-0.2,0-0.4,0.1-0.6c0.4-1.7,0.5-3,0.6-4c0-0.6,0.2-1.9,0.5-4.1l0.2-0.6C52.5,87.945,50.9,89.746,49.7,92.445z"/>
<path fill="#FFCA05" d="M46.9,102.845c-0.3,1.3-0.8,2.9-1.2,4.8c2.3-0.9,4.3-1.7,5.9-2.4c0.5-3,0.8-4.8,0.9-5.3
	c0-0.8,0.2-1.9,0.6-3.5c-0.5-0.2-0.9-0.5-1.3-0.7c-1.1-0.7-1.8-1.5-2.5-2.1C48.9,95.146,48.1,98.246,46.9,102.845z"/>
<path fill="#FFCA05" d="M35.6,118.646c-0.9,0-1.6,0-2.2,0c0.1,0.5,0.1,1.2,0.2,1.8c0,0.7,0,1.5,0,2.6l0.9-0.1l4.4,0.3h-0.3v4.9
	c0.5,1.3,0.8,2.8,0.8,4.7c0,0.3-1,0.8-3,1.6c-1.2,0.5-2.1,0.9-3,1.3c-0.2,2.9-0.4,6.2-0.8,9.9c0,0.8,0,1.6-0.1,2.4
	c0.6,0.4,1.4,0.8,2.4,1.2c1.8,0.8,3.2,1.2,3.8,1.3h-0.1c-0.2,0.6-0.4,2.6-0.6,5.9c-0.2,2.9-0.4,4.4-0.9,4.4c-1,0-3-0.1-6-0.3
	c-0.2,1.1-0.5,2.4-0.9,4.1c1.4,0.5,2.4,0.9,3.4,1.301c2.5,1,3.8,1.699,3.8,2.199c0,4.301,0,6.7-0.1,7c-0.1,1.4-0.6,2.4-1.4,3
	c-0.2,0-0.3,0.2-0.4,0.301c-1.3,0.699-4.6,2.3-10,4.699c-0.7,2-1.5,4.301-2.4,6.9c5,2.8,7.8,4.1,8.5,4.1c-0.3,0.601-0.6,2.301-1.2,5
	c-0.5,2.801-0.8,4.601-0.7,5.301c-0.2,0.1-1.4,0.399-3.3,0.699c-1.8,0.301-3.8,0.9-5.8,1.7c0,2.101,0.3,5.9,0.9,11.601
	c0,0.8,0.4,3,1.2,6.3c4.2,0.7,6.4,0.899,6.9,0.899c0.1,1.101,0.9,3,2.2,6c1.2,2.601,1.8,4,1.8,4.2l-2.6,3.3c-0.9,1-1.5,2-2.3,2.801
	c0.2,0.3,0.3,0.6,0.5,1c1.8,3.899,2.7,5.8,2.7,6c1-1.801,1.7-2.7,2.3-2.5c0,0.1,0.1,0.199,0.1,0.399l-1.2,2.601
	c-0.8,1.699-1.1,2.8-1.1,3.5c0,1.1,0.6,2.3,1.9,3.5c1.7,1.699,4.1,2.5,7.1,2.5c0.5,0,1,0.199,1.2,0.399c0,0.3-0.3,0.5-0.7,0.8
	c-0.6,0.2-1.3,0.301-1.9,0.301c-0.4,0-0.9-0.101-1.6-0.301c0.6,1.801,1,5.301,1.3,10.4c0,0.1-0.1,1.9-0.3,5.4
	c0.8-0.2,1.8-0.301,3-0.601c0,0.601,0.7,3.101,2.1,7.4c-1.1,0.3-3.1,1.399-6.1,3.2c-0.2,0.699-0.3,1.199-0.4,1.699
	c0.1-0.199,0.2-0.399,0.3-0.5c0.5-0.5,1.1-0.899,1.8-1c0,0,0.1,0.101,0.2,0.301c0,0.199-0.8,1.199-2.3,3c-0.4,0.5-1.1,1-2.4,1.5
	c-1.3,0.399-2.1,0.8-2.4,1c-0.5,0.5-1.2,1.3-1.9,2.699c-1,1.4-1.4,2.5-1.4,3.101c0,0.2,0.1,0.5,0.4,0.899c0,0,0.2,0,0.2-0.1
	c0,0.1,0.1,0.2,0.2,0.3c0,0.101,0,0.3,0,0.4c0.7,0.8,1.9,1.899,3.8,3.1c2.8,2,5.6,3.101,8.4,3.601c0.6,0,1.3,0.1,2,0.1
	c1.4,0,2.6-0.3,3.5-0.8c0.9-0.601,1.5-0.9,1.7-0.9l0.5,0.101l0.1-0.2c-0.4-0.3-0.8-0.601-1-1.101l-0.3-1.699
	c0-0.601,0.1-1.601,0.4-3.101c0,0,0,0,0-0.1c0.1-0.8,0.2-1.4,0.3-1.9c-0.2-1-0.6-2-1.1-3.1c-1-1.8-1.5-2.601-1.5-2.8
	c0-0.5,0.5-1.101,1.6-1.9c1-0.8,1.5-1.5,1.5-2.2c0-1.399-0.1-2.7-0.2-3.899c-1.7-0.7-2.5-1.2-2.5-1.7c0-0.601,0.1-2.2,0.5-4.8
	c0.3-2.601,0.6-4.101,0.6-4.601c0-0.3,0.4-0.7,1-1.1c-0.1-1.8-0.6-4.101-1.5-6.8c-1-3.2-1.5-5.2-1.5-6c0-0.801,0.1-1.601,0.5-2.4
	v-0.1c0.5-0.801,0.7-1.801,0.7-3.101c0-0.6-0.1-1-0.2-1.6c-0.9-0.3-1.8-0.5-2.9-0.8c-1.1-0.2-1.8-0.5-1.9-1
	c-0.3-2.801-0.7-4.801-1.2-6.101c-0.4-0.899-0.5-2.2-0.5-3.7c0-1,0.2-1.699,0.9-2c0.2,0,0.5-0.199,0.6-0.199
	c-0.1-0.301-0.3-0.601-0.4-1c-3.9-7.7-6.5-14.801-7.8-21.101l0.7-0.1c-0.2-0.3-0.5-0.601-0.9-1c-0.1-0.2-0.2-0.3-0.3-0.4
	c-0.2-0.2-0.3-0.399-0.4-0.6c-0.7-0.8-1-1.5-1-1.8c0-0.7,0.3-0.7,1,0c1.5,1.5,2.2,2.3,2.2,2.399l5,3c0.5,0,1.8-0.899,3.9-2.7h0.5
	c0.1,0.101,0.2,0.2,0.2,0.301c0,0.5-0.5,1.199-1.6,2.199c-0.7,0.801-1.5,1.4-2.1,1.601c0.1,0.6,0.4,1.399,0.6,2.399l0.8,4.2
	c0.6,2.601,1.6,5.4,2.6,8.101c0.1,0.5,0.4,1,0.5,1.6c0.6,1.3,1.2,2.6,1.9,4c3.8-1.4,5.8-2.2,6-2.2c0,0.3,0.5,1.3,1.5,2.601
	c1.1,1.5,1.8,2.1,2.4,2.199l0.2,0.101c-0.4,0.399-1.9,2.7-4.9,7c0.3,0.399,0.5,0.8,0.8,1.2v0.5c0.3-0.601,0.7-1,1-1.4
	c0.2,0.3,0.3,0.5,0.3,0.7c0,0.7-0.7,1.899-2.2,3.399c-1.6,1.5-2.4,3-2.4,4.301c0,1.899,0.9,3.6,2.4,5.199c2,2.2,3,3.301,3.1,3.601
	l-0.3,0.1c-0.2,0-0.3,0-0.6-0.1c0.3,0.5,0.5,1.2,0.6,1.899c0.1,0.2,0.1,0.4,0.1,0.7c0.1,0.7,0.1,1.601,0.1,2.601
	c0.2,1.399,0.2,3.6,0.4,6.5c0,1.8-0.3,4.3-0.7,7.699c0,0.2,0,0.4-0.1,0.601c0,0.3-0.2,1.3-0.7,3.1c-0.4,1-0.7,1.9-0.9,2.5
	c0.7-0.399,1.1-0.1,1.1,0.8c0,0.101-0.5,0.601-1.4,1.2c-1.1,0.7-1.6,1.101-1.8,1.4c-0.5,1-0.9,1.8-0.9,2.5c0,0.1-0.1,0.899-0.4,2.3
	c-0.2,1.4-0.4,2.4-0.4,2.8c0,0.601,0.2,1,0.6,1.5c0.2,0.3,0.5,0.5,0.7,0.9c1.5,0.2,2.9,0.5,4,0.6c0.6,0.101,1.2,0.101,1.6,0.101
	c4.7,0,7.4-0.301,8.4-1.101c1.1-0.899,1.6-3.2,1.6-7.1c0-1.2-0.1-2.3-0.5-3.3c-0.5-1.5-1.5-2.101-2.8-1.801l-0.2,0.301
	c0,0-0.1,0.1-0.399,0.199c-0.2,0-0.3-0.1-0.4-0.3h-1.3c0,0.101,0-0.1,0-0.2c0-0.199,0.3-0.399,0.8-0.699c-0.3-1-0.5-2.301-0.8-4.2
	c-0.1-3.601-0.3-5.4-0.3-5.5c0-1.3,0.1-2.7,0.2-4.101c0.1-1.399,0.1-2.8,0.199-4.399c0.301-2.8,0.5-4.4,0.5-4.9
	c0.301-0.899,0.4-1.5,0.801-2.1c-0.601,0.399-1.101,0.7-1.801,1c0.101,0,1.301-1.7,3.601-4.9c1.5-2.1,2.3-3.7,2.3-5
	c0-1.399-0.4-2.6-1.2-3.7c-0.8-1.199-1.3-2-1.3-2.699c0-1.5,0.5-1.7,1.4-0.301c0.399-1.5,1.1-3.6,2.199-6.699
	c1.801-4.9,2.7-8.7,2.7-11.301c0-1.199,0.101-2.8,0.4-4.8c-2.8,0.601-5.2,1.3-7.3,2c-1.301,0.4-2.4,0.601-3.2,0.601
	c-0.9,0-1.5-0.4-1.8-1.2c-0.5-1.4-1.101-2.8-1.801-4.3c-0.899-2-1.5-3.4-1.899-4.301c-0.7-1.6-1-2.6-1-3.199
	c0-0.4,1.8-1.7,5.3-3.801c3-1.8,5.4-3.199,7.1-4c0.301,1.301,2.2,3.301,5.7,6.301l0.2-2.5c0-1,0.2-1.5,0.5-1.2v-0.101
	c0-0.199,0.2-0.699,0.8-1.3c0.601-0.7,1-1.2,1.3-1.2c-0.1,0.5-0.199,0.801-0.6,1.5c-0.3,0.5-0.7,1-1.2,1.301h-0.1
	c0.1,0.199,0.3,0.5,0.3,0.6c2.3-1.6,4.3-4.1,6.2-7.4c2.399-4.399,4.1-7.399,5.3-8.8c0,0.101,0.1,0.3,0.3,0.3c0,1.301,0.2,4.2,0.7,9
	c0,3-0.5,6.101-1.6,9.5c-0.4,1.301-0.801,2.4-1.2,3.301c0,0.399-0.101,0.699-0.2,1.199c0,0,0,0.2,0,0.301
	c-0.1,0.199-0.2,0.5-0.3,0.8c-0.5,1.399-1.2,2.7-2.2,4.2c-0.5,1.199-0.9,2.6-1.4,4.199c-1.199,4.601-1.899,8.9-1.899,12.9
	c0,3.7,0.399,7.4,1.2,11c0.1,0.6,0.199,1.1,0.199,1.6c0.9,2.101,1.601,3.301,2,3.7c0,0.101-0.5,0.3-1.3,0.601
	c0.101,1.199,0.101,2.199,0.101,3c0,2-0.2,4.5-0.601,7.5c0.601-0.101,1.3-0.2,2.3-0.301c0.301,0,0.5,0,0.7,0
	c0.4-1.699,1.101-3.399,1.601-5l4.5-13c0-1.399-0.601-2.8-1.801-4.5c-0.3-0.3-0.6-0.699-0.699-1c-0.101,0.101-0.2,0.2-0.301,0.2
	c-0.6,0-0.899-0.5-0.699-1.399c0-0.101,0-0.101,0-0.2v-0.101c0-0.3,0.1-0.6,0.1-1c-1.9-0.699-3.5-1.199-4.8-1.6v-1.2l0.8-5.8
	c0-0.6-0.1-1.4-0.4-2l7.9-3.3c0.4-1.7,0.8-3.5,1.4-5.4c0.1-0.399,0.199-0.899,0.399-1.399c-3.3-3.5-5-5.301-5-5.4
	c0-0.6,1.9-4.1,5.601-10.4c0.699,0,1.6,0.301,3,0.7c0,0,0.1,0,0.1,0.101c0.6-2.7,0.9-4.601,0.9-5.7c0-1.8-0.301-3.601-0.5-5.3
	c-0.301-0.801-0.4-1.601-0.5-2.101c-1.5,0.2-3.5,0.3-5.9,0.601c-3.9-7.5-5.7-11.5-5.7-11.801c0-0.5,0.7-1.199,2-2.199
	c1-0.601,1.8-1.2,2.5-1.601c-0.399-0.5-0.899-1-1.3-1.5c-4.2-4.3-7.9-6.399-10.9-6.399c-1.8,0-3.5,0.6-5,2c0.9,0.3,2.4,1,4.4,2
	c2.3,1.199,3.9,2,4.9,2.699v6.5c-0.9,0.101-1.9,0.801-3.4,1.7c-1.5,1-2.5,2-3,2.8c-0.4-0.199-1.5-0.8-3.5-1.8
	c-1.8-0.899-2.8-1.8-2.9-2.399c-0.1-0.801-0.5-1.801-0.899-3c-0.4-1.301-0.9-2.5-1.601-4.101c-0.699,0.2-1.3,0.3-2.1,0.3
	c-1.8,0-3.5-0.8-5-2.199c-0.1,0-0.2,0-0.3-0.101v-0.2c-1.1-1-2-2.3-2.9-3.899c-3.3,0.2-5,0.2-5.1,0.2c-0.2-1.4-0.9-3.301-2.5-5.5
	c-1.3-2.101-2-3.8-2-5.101c0-0.6,1.1-1.6,3.4-3.2c0.6-0.5,1.2-0.8,1.6-1.2c-0.1-1.1-0.2-2.6-0.4-4.5c-0.1-1.5-0.2-2.9-0.3-4.1
	c-0.5-0.2-1-0.4-1.5-0.6c-2-1-3-1.8-3-2.4c0-1.7,0.1-3.7,0.3-6.2c0.2-2.7,0.5-4.1,0.7-4.2c0.5-0.2,1.9-0.6,4-1.2
	c0-1.1,0.1-2.3,0.2-3.8c0.3-2,0.6-3.6,0.8-5.3c-0.9-0.4-1.8-0.9-2.6-1.3c-2.4-1.2-3.7-1.9-3.7-2.3c0.5-2.6,0.8-4.4,1-5.7
	C42.2,117.445,39.5,118.646,35.6,118.646z M58.6,180.446c2.3,1.199,3.5,1.699,3.6,1.8c0,0.399-0.199,2.399-0.699,6.399
	c-0.4,1.301-1.9,2.301-4.5,3l-4-2.699c-0.5-0.301-1.4-0.801-2.5-1.5c-0.9-0.5-1.3-1-1.3-1.301l3.9-7.3
	C54.3,178.946,56.2,179.446,58.6,180.446z M37,180.946h0.1c4.4,0.199,6.9,0.399,7.5,0.399c0,0.4,0.3,2.9,0.9,7.601
	c-0.9,0.3-2.5,2.1-5.2,5.199c-0.7-0.699-2.2-1.8-4.4-3.199c-1.9-1.101-2.8-2-2.8-2.5c0-0.301,0.5-1.4,1.5-3.2
	C35.9,182.946,36.7,181.645,37,180.946z M80.5,194.645l1,0.801c-0.4,0.699-1.7,2.699-3.801,6.3c-1.8,3.3-2.8,4.899-2.899,4.899
	c-0.8,0-2.9-0.5-6.2-1.5c-3.2-1-4.9-1.6-4.9-1.8c0-0.7,0.301-2.2,0.801-4.7c0.5-2.399,0.699-3.699,0.699-4H66
	c0.1,0,1.1,0.2,2.8,0.301c1.8,0.199,3.3,0.199,4.8,0.199L80.5,194.645z"/>
<path fill="#9D8A68" d="M62.2,182.246c-0.1-0.101-1.3-0.601-3.6-1.8c-2.4-1-4.3-1.5-5.5-1.601l-3.9,7.3c0,0.301,0.4,0.801,1.3,1.301
	c1.1,0.699,2,1.199,2.5,1.5l4,2.699c2.6-0.699,4.1-1.699,4.5-3C62,184.645,62.2,182.645,62.2,182.246z"/>
<path fill="#9D8A68" d="M37.1,180.946H37c-0.3,0.699-1.1,2-2.4,4.3c-1,1.8-1.5,2.899-1.5,3.2c0,0.5,0.9,1.399,2.8,2.5
	c2.2,1.399,3.7,2.5,4.4,3.199c2.7-3.1,4.3-4.899,5.2-5.199c-0.6-4.7-0.9-7.2-0.9-7.601C44,181.345,41.5,181.145,37.1,180.946z"/>
<path fill="#9D8A68" d="M81.5,195.446l-1-0.801l-6.9,0.5c-1.5,0-3,0-4.8-0.199c-1.7-0.101-2.7-0.301-2.8-0.301H65.2
	c0,0.301-0.199,1.601-0.699,4c-0.5,2.5-0.801,4-0.801,4.7c0,0.2,1.7,0.8,4.9,1.8c3.3,1,5.4,1.5,6.2,1.5c0.1,0,1.1-1.6,2.899-4.899
	C79.8,198.145,81.1,196.145,81.5,195.446z"/>
<path fill="#9D8A68" d="M34.5,122.945l-0.9,0.1c0,1,0,2.1,0.1,3.6c0,2.5-0.1,5.5-0.3,9.1c0.9-0.4,1.8-0.8,3-1.3c2-0.8,3-1.3,3-1.6
	c0-1.9-0.3-3.4-0.8-4.7v-4.9h0.3L34.5,122.945z"/>
<path fill="#9D8A68" d="M43.8,114.845c-0.2,1.3-0.5,3.1-1,5.7c0,0.4,1.3,1.1,3.7,2.3c0.8,0.4,1.7,0.9,2.6,1.3
	c0.5-4.2,0.8-6.9,0.8-8.2c0-0.5,0.3-3,1.2-7.6c0.1-1.2,0.4-2.2,0.5-3.1c-1.6,0.7-3.6,1.5-5.9,2.4c-0.3,0.2-0.6,0.3-0.9,0.4
	c-0.2,0.1-0.5,0.9-0.6,2.4c-0.1,0.7-0.1,2-0.3,3.7C43.9,114.345,43.9,114.646,43.8,114.845z"/>
<path fill="#9D8A68" d="M67.9,174.246c-1.399,1.6-3,2.7-4.7,3.1c0.7,1.601,1.2,2.8,1.601,4.101c0.399,1.199,0.8,2.199,0.899,3
	c0.101,0.6,1.101,1.5,2.9,2.399c2,1,3.1,1.601,3.5,1.8c0.5-0.8,1.5-1.8,3-2.8c1.5-0.899,2.5-1.6,3.4-1.7v-6.5
	c-1-0.699-2.601-1.5-4.9-2.699c-2-1-3.5-1.7-4.4-2C68.7,173.345,68.3,173.845,67.9,174.246z"/>
<path fill="#9D8A68" d="M52.9,171.246c-0.5-0.8-1-1.601-1.4-2.8c-2.1-4.5-3.1-8-3.1-10.3c-0.1-0.5-0.1-0.7,0.1-1
	c-0.1-0.2-0.1-0.5-0.2-0.7c-0.4,0.4-1,0.7-1.6,1.2c-2.3,1.6-3.4,2.6-3.4,3.2c0,1.3,0.7,3,2,5.101c1.6,2.199,2.3,4.1,2.5,5.5
	C47.9,171.446,49.6,171.446,52.9,171.246z"/>
<path fill="#9D8A68" d="M86.4,178.845c-0.7,0.4-1.5,1-2.5,1.601c-1.3,1-2,1.699-2,2.199c0,0.301,1.8,4.301,5.7,11.801
	c2.4-0.301,4.4-0.4,5.9-0.601c0-0.399-0.101-0.7-0.101-0.7c0.101-0.3,0.101-0.6,0.101-0.8h0.1c0.1,0.101,0.2,0.2,0.4,0.3
	C92.4,187.545,89.9,182.946,86.4,178.845z"/>
<path fill="#9D8A68" d="M44.1,134.445c-0.2,0.1-0.5,1.5-0.7,4.2c-0.2,2.5-0.3,4.5-0.3,6.2c0,0.6,1,1.4,3,2.4c0.5,0.2,1,0.4,1.5,0.6
	c0-1.9-0.1-3.6-0.1-4.7c0-2.7,0.1-4.5,0.1-5.5c0.1-1.2,0.3-2.7,0.5-4.4C46,133.845,44.6,134.246,44.1,134.445z"/>
<path fill="#9D8A68" d="M34.9,149.246c-1-0.4-1.8-0.8-2.4-1.2c-0.4,3.1-0.6,6.3-0.9,9.4c0,0.4-0.2,1.5-0.5,3.1c3,0.2,5,0.3,6,0.3
	c0.5,0,0.7-1.5,0.9-4.4c0.2-3.3,0.4-5.3,0.6-5.9h0.1C38.1,150.445,36.7,150.045,34.9,149.246z"/>
<path fill="#9D8A68" d="M30.2,164.645c-0.1,0.4-0.1,0.801-0.2,1.301c-1,4.6-1.8,7.899-2.2,9.5c-0.5,2-1.2,4.5-2.3,7.699
	c5.4-2.399,8.7-4,10-4.699c0.1-0.101,0.2-0.301,0.4-0.301c0.8-0.6,1.3-1.6,1.4-3c0.1-0.3,0.1-2.699,0.1-7c0-0.5-1.3-1.199-3.8-2.199
	C32.6,165.545,31.6,165.145,30.2,164.645z"/>
<path fill="#9D8A68" d="M30.4,199.145c0.6-2.699,0.9-4.399,1.2-5c-0.7,0-3.5-1.3-8.5-4.1c-0.2,0.7-0.5,1.4-0.7,2.1l-0.1,0.101
	c-0.1,0.1-0.1,0.1-0.1,0.2c-0.6,2.3-0.9,4.199-1.1,5.5c0,0.5-0.1,2.1-0.5,4.899c0,1,0,2.3,0,4l0,0c2-0.8,4-1.399,5.8-1.7
	c1.9-0.3,3.1-0.6,3.3-0.699C29.6,203.746,29.9,201.946,30.4,199.145z"/>
<path fill="#C3A54D" d="M35.1,214.246l-0.7,0.1c1.3,6.3,3.9,13.4,7.8,21.101c0.1,0.399,0.3,0.699,0.4,1c0.8-0.601,1.7-1.301,2.5-1.9
	c0-0.1,0-0.1,0-0.2c-0.2-0.399-0.4-0.7-0.5-1.2c-0.7-1.699-1.5-4.199-2.4-7.3c-1.1-4.1-1.7-6.899-1.7-8.399
	C39.4,217.145,37.6,216.145,35.1,214.246z"/>
<path fill="#9D8A68" d="M25.2,233.645c0.6,1.801,1.8,4.5,3.5,8.301c0.8-0.801,1.4-1.801,2.3-2.801l2.6-3.3c0-0.2-0.6-1.6-1.8-4.2
	c-1.3-3-2.1-4.899-2.2-6c-0.5,0-2.7-0.199-6.9-0.899C23.4,227.145,24.2,230.145,25.2,233.645z"/>
<path fill="#9D8A68" d="M42,236.645c-0.7,0.301-0.9,1-0.9,2c0,1.5,0.1,2.801,0.5,3.7c0.5,1.3,0.9,3.3,1.2,6.101
	c0.1,0.5,0.8,0.8,1.9,1c1.1,0.3,2,0.5,2.9,0.8c-0.4-3.3-2-7.9-5-13.8C42.5,236.446,42.2,236.645,42,236.645z"/>
<path fill="#837862" d="M49.1,243.246c-1.3-2.4-2.6-5.3-4-8.7c-0.8,0.6-1.7,1.3-2.5,1.9c3,5.899,4.6,10.5,5,13.8
	c1.5,0.399,2.9,0.7,4.2,1c0.7-0.601,1.3-1.3,1.8-1.8c-0.4-0.2-0.9-0.5-1.3-1C51.4,247.545,50.3,245.845,49.1,243.246z"/>
<path fill="#EDBF28" d="M85.4,196.145c-0.2,0-0.3-0.199-0.3-0.3c-1.2,1.4-2.9,4.4-5.3,8.8c-1.9,3.301-3.9,5.801-6.2,7.4
	c0,0.2,0,0.4,0,0.6c0,3.2-0.3,7.801-0.8,13.801c-0.2,1.399-0.2,2.699-0.5,4.1l2.6-2.1c2.3-1.801,3.9-3.5,4.9-5.2
	c0.6-0.8,1.2-2.101,1.8-3.9c0.5-1.6,1.1-2.899,1.7-3.7l0.2,0.801c0,0.5,0,1-0.2,1.5c0.399-0.9,0.8-2,1.2-3.301
	c1.1-3.399,1.6-6.5,1.6-9.5C85.6,200.345,85.4,197.446,85.4,196.145z"/>
<path fill="#9D8A68" d="M93.6,206.946c0-0.101-0.1-0.101-0.1-0.101c-1.4-0.399-2.301-0.7-3-0.7c-3.7,6.301-5.601,9.801-5.601,10.4
	c0,0.1,1.7,1.9,5,5.4C91.6,215.545,92.9,210.446,93.6,206.946z"/>
<path fill="#9D8A68" d="M72.4,215.145v-0.199c-3.5-3-5.399-5-5.7-6.301c-1.699,0.801-4.1,2.2-7.1,4c-3.5,2.101-5.3,3.4-5.3,3.801
	c0,0.6,0.3,1.6,1,3.199c0.4,0.9,1,2.301,1.899,4.301c0.7,1.5,1.301,2.899,1.801,4.3c0.3,0.8,0.899,1.2,1.8,1.2
	c0.8,0,1.899-0.2,3.2-0.601c2.1-0.7,4.5-1.399,7.3-2c0-0.3,0-0.6,0.1-0.8c0.5-2.8,0.7-4.6,0.7-5.4c0-0.5,0.1-1.399,0-2.699
	c0-1.101,0.1-2,0.3-2.7C72.4,215.246,72.4,215.246,72.4,215.145z"/>
<path fill="#9D8A68" d="M55.5,237.946c-1-1.301-1.5-2.301-1.5-2.601c-0.2,0-2.2,0.8-6,2.2c1.5,3.2,3.2,6.4,5.2,9.7
	c3-4.3,4.5-6.601,4.9-7l-0.2-0.101C57.3,240.045,56.6,239.446,55.5,237.946z"/>
<path fill="#C3A54D" d="M70.4,242.645c0.101,0.5,0.101,1.301,0,2.4c0.101,0.6,0.2,1.2,0.4,1.9c0.8,0,1.399,0.1,2.1,0.199
	c2.3,0.101,3.601,0.801,4,1.801c0.2,1.199,0.8,2.699,1.601,4.699c0.1,0.2,0.199,0.301,0.199,0.5c0-0.5-0.1-1-0.199-1.6
	c-0.801-3.6-1.2-7.3-1.2-11c0-4,0.7-8.3,1.899-12.9c0.5-1.6,0.9-3,1.4-4.199c-0.5,0.699-1,1.5-1.6,2.1c-0.301,0.4-0.601,0.8-0.9,1.1
	c-2.4,2.601-4.1,4-5.5,4c-0.1,0-0.3,0-0.3,0c-0.101,0.2-0.101,0.4-0.2,0.601c-0.2,2.6-1,5.7-2.1,9.3
	C70.2,241.845,70.3,242.145,70.4,242.645z"/>
<path fill="#9D8A68" d="M80.2,232.045c0.301,0.6,0.4,1.4,0.4,2l-0.8,5.8v1.2c1.3,0.4,2.899,0.9,4.8,1.6c0.5-2.399,1.5-7,3.5-13.899
	L80.2,232.045z"/>
<path fill="#9D8A68" d="M78.7,254.145c0.301,1.601,0.5,3,0.7,4.301c0.8-0.301,1.3-0.5,1.3-0.601
	C80.3,257.446,79.6,256.246,78.7,254.145z"/>
<path fill="#837862" d="M79.4,258.446c-0.2-1.301-0.399-2.7-0.7-4.301c0-0.199-0.1-0.3-0.199-0.5c-0.801-2-1.4-3.5-1.601-4.699
	c-0.399-1-1.7-1.7-4-1.801c-0.7-0.1-1.3-0.199-2.1-0.199c0.2,0.899,0.3,1.699,0.5,2.5c1,3.199,1.8,5.6,2.3,7.1
	c0,0.4,0.2,0.7,0.3,1.1c0.101,0.4,0.2,0.601,0.2,0.7c0,0.2-0.1,0.5-0.2,0.7c0-0.1-0.1-0.1-0.2-0.1c-0.1,0.6-0.1,1.3-0.199,2.3
	c1.3-0.601,2.5-1.3,3.8-1.9C78.1,259.045,78.8,258.746,79.4,258.446z"/>
<path fill="#C3A54D" d="M79.4,258.446c-0.6,0.3-1.3,0.6-2.1,0.899c-1.3,0.601-2.5,1.3-3.8,1.9c-0.2,1.399-0.4,3.3-0.7,5.7
	c-0.7,6.1-1.2,9.899-1.2,11.3c0,0.1-0.1,1.5-0.5,3.899c-0.5,2.7-0.6,4.5-0.6,5.4c0,0.4,0.1,0.9,0.5,1.4
	c0.1-0.101,0.399-0.101,0.699-0.101l0.9,0.101l0,0c1.7-2.101,3-5.2,4.1-9.301c-0.399-0.199-0.699-0.399-1-0.5
	c1.5-4.699,2.2-7.699,2-9.199c0-0.4,0.4-0.801,1.2-1c0.4-3,0.601-5.5,0.601-7.5C79.5,260.645,79.5,259.645,79.4,258.446z"/>
<path fill="#9D8A68" d="M78.9,268.946c-0.8,0.199-1.2,0.6-1.2,1c0.2,1.5-0.5,4.5-2,9.199c0.301,0.101,0.601,0.301,1,0.5
	c0.801,0.301,1.601,0.601,2.801,1c0.399-3.899,1.199-7.8,2.399-12c-0.2,0-0.399,0-0.7,0C80.2,268.746,79.5,268.845,78.9,268.946z"/>
<path fill="#C3A54D" d="M51,252.246c0.2-0.3,0.5-0.601,0.8-1c-1.3-0.3-2.7-0.601-4.2-1c0.1,0.6,0.2,1,0.2,1.6
	c0,1.3-0.2,2.3-0.7,3.101v0.1c-0.4,0.8-0.5,1.6-0.5,2.4c0,0.8,0.5,2.8,1.5,6c0.9,2.699,1.4,5,1.5,6.8c0.7-0.4,1.7-1,3.1-1.601
	c0.8-0.3,1.4-0.6,2-0.8c-0.2-1.899-0.4-3.2-0.5-3.7c-0.3-0.3-0.7-0.699-1.2-1.199c-0.9-0.801-1.6-1.5-2.1-2.301
	c-0.3-0.5-0.5-1.1-0.8-2.199c-0.5-1.2-0.6-2-0.6-2.5C49.5,254.545,50,253.246,51,252.246z"/>
<path fill="#837862" d="M54.7,267.845c-0.6,0.2-1.2,0.5-2,0.8c-1.4,0.601-2.4,1.2-3.1,1.601c0,0.3,0,0.6,0,0.899
	c0,2.9,0.1,6.7,0.4,11.301c1.1,0.399,2.6,0.8,4.6,1.399c0.5-3,0.7-5.6,0.7-7.399l-0.3-6.301C54.9,269.246,54.7,268.545,54.7,267.845
	z"/>
<path fill="#FFCA05" d="M71.3,290.446c0,0.199-0.101,0.199-0.2,0.3c-0.8,0.899-1.1,2-1,3c0.1,0.899,0,2.3-0.1,4.3
	c0,0.8,0.1,1.3,0.3,1.6c0.5,0.5,1.3,0.801,2.6,1c0.601,0.101,1.2,0.2,2,0.2c3.8,0,5.8-1.2,5.8-3.399c0-0.601-0.1-1.301-0.199-2.2
	c-0.301-0.7-0.4-1.5-0.4-2.5l-0.1-2.3c0-0.5-0.301-0.801-0.801-1.2c-0.5-0.3-0.699-0.601-0.699-0.9c0-0.5,0.199-0.6,0.5-0.7
	c0,0,0-0.1,0-0.199c0-2.2,0.1-4.5,0.5-6.801c-1.2-0.399-2-0.699-2.801-1c-1.1,4.101-2.399,7.2-4.1,9.301c0,0.199,0.1,0.199,0.3,0.3
	c-0.3,0.2-0.6,0.399-0.8,0.6C71.8,289.946,71.6,290.246,71.3,290.446z"/>
<path fill="#C3A54D" d="M53.1,290.845c0.4-1.7,0.8-3.5,1.1-5.399c0.1-0.601,0.3-1.101,0.4-1.601c-2-0.6-3.5-1-4.6-1.399
	c0.1,1.199,0.2,2.5,0.2,3.899c0,0.7-0.5,1.4-1.5,2.2c-1.1,0.8-1.6,1.4-1.6,1.9c0,0.199,0.5,1,1.5,2.8c0.5,1.1,0.9,2.1,1.1,3.1
	c0-0.399,0.2-0.7,0.2-0.8c0.3-1.6,0.7-2.6,1.1-2.9C51.8,291.845,52.6,291.246,53.1,290.845z"/>
<path fill="#5C5F5C" d="M51.1,304.645c-0.1,0-0.1,0-0.2,0l-0.2,0.2c0.2,0,0.2,0.3,0.2,0.7c0,1.3,0,2.4-0.3,3.4
	c-0.3,1.899-0.5,3.3-0.6,4.3c-0.1,0.899-0.5,3-1.1,6c0.1,0.1,0.1,0.2,0.1,0.2c0,0.399-0.1,0.6-0.4,0.899c0,0.101,0,0.2,0,0.4
	s1.9,1.2,5.6,3.1c0.4,0.3,0.8,0.5,1.3,0.8c-0.2-0.399-0.3-0.8-0.5-1.199c-1.2-3.5-1.8-6.5-1.8-9.101c0-3.5,0.5-6.3,1.8-8.7
	c-0.9-0.1-1.7-0.199-2.4-0.399C51.8,305.045,51.3,304.845,51.1,304.645z"/>
<path fill="#7B8078" d="M56.7,305.746v-0.101c-0.6,0-1.2,0-1.7,0c-1.3,2.4-1.8,5.2-1.8,8.7c0,2.601,0.6,5.601,1.8,9.101
	c0.2,0.399,0.3,0.8,0.5,1.199c0.4,0.301,0.8,0.601,1.3,0.7c1.8,0.8,3.8,1.2,6.1,1.2c2.9,0,5.2-0.5,6.601-1.5
	c0.5-0.6,0.899-0.9,1.399-1.2c-0.2-0.5-0.3-1-0.3-1.6c0-1.3-0.1-2.101-0.3-2.601c-0.601-2-1.101-3.8-1.4-4.899
	c0-0.101-0.6-1.7-1.8-4.7c-1.1-2.9-1.6-4.6-1.6-5.1l-0.2-0.101c-1,0.4-2.101,0.7-3.101,0.9c-0.5,0.1-1,0.1-1.6,0.1L56.7,305.746z
	 M64.2,311.845c0.4,1.2,0.7,2.3,0.7,3.101c0,1.3-0.2,2.399-0.5,3.3c-0.399,1-0.899,1.5-1.399,1.5c-0.801,0-1.4-0.7-2-2
	c-0.7-1.601-1.101-3.601-1.101-5.9c0-1,0.2-1.899,0.7-2.6c0.6-0.9,1.3-1.3,1.9-1.3c0.399,0,0.6,0.1,0.899,0.3
	c0.101,0,0.3,0.2,0.5,0.399v0.101l-0.899,1.1C63.4,310.045,63.7,310.746,64.2,311.845z"/>
<path fill="#DBDED7" d="M64.9,314.946c0-0.801-0.3-1.9-0.7-3.101c-0.5-1.1-0.8-1.8-1.199-2l0.899-1.1v-0.101
	c-0.2-0.199-0.399-0.399-0.5-0.399c-0.3-0.2-0.5-0.3-0.899-0.3c-0.601,0-1.301,0.399-1.9,1.3c-0.5,0.7-0.7,1.6-0.7,2.6
	c0,2.3,0.4,4.3,1.101,5.9c0.6,1.3,1.199,2,2,2c0.5,0,1-0.5,1.399-1.5C64.7,317.345,64.9,316.246,64.9,314.946z"/>
<path fill="#9D8A68" d="M49.6,271.145c0-0.3,0-0.6,0-0.899c-0.6,0.399-1,0.8-1,1.1c0,0.5-0.3,2-0.6,4.601
	c-0.4,2.6-0.5,4.199-0.5,4.8c0,0.5,0.8,1,2.5,1.7C49.7,277.845,49.6,274.045,49.6,271.145z"/>
<path fill="#9D8A68" d="M42,275.345c-1.2,0.3-2.2,0.4-3,0.601c0,1.199-0.2,2.5-0.3,4c-0.2,2.5-0.5,4.5-0.7,6c3-1.801,5-2.9,6.1-3.2
	C42.7,278.446,42,275.946,42,275.345z"/>
<path fill="#7B8078" d="M28.5,302.946c-0.7,1-1.5,2.3-2.5,3.8c-0.3,0.399-1.3,1.8-2.8,4.2c-1.3,2.1-2.1,3.199-2.1,3.399
	c0,2.9,2.4,5.101,7,6.9c3.1,1,5.8,1.6,7.9,1.6c0.7,0,1.4,0,2.1,0c1.4-2.6,2.2-4.6,2.6-6.2c0.8-2.3,1.3-4.899,1.5-7.899
	c0.1-0.5,0.1-0.8,0.1-1.101c-2.7-0.1-5.8-1.399-9.2-4c-1.5-1.199-2.5-2.1-3.3-2.899C29.5,301.345,29,302.145,28.5,302.946z
	 M30.3,305.246c0,0,0.1-0.101,0.2-0.2l1.1-0.2c0.5,0,0.7,0,0.7,0.101c0.2,0.1,0.3,0.5,0.3,1.199c0,1.601-0.6,3.601-1.8,6
	c-1.3,2.601-2.6,3.801-3.8,3.801c-0.5,0-0.9-0.4-0.9-1.301c0-1.5,0.6-3.3,1.7-5.399C28.6,307.746,29.3,306.345,30.3,305.246z"/>
<path fill="#DBDED7" d="M30.5,305.045c-0.1,0.1-0.2,0.2-0.2,0.2c-1,1.1-1.7,2.5-2.5,4c-1.1,2.1-1.7,3.899-1.7,5.399
	c0,0.9,0.4,1.301,0.9,1.301c1.2,0,2.5-1.2,3.8-3.801c1.2-2.399,1.8-4.399,1.8-6c0-0.699-0.1-1.1-0.3-1.199
	c0-0.101-0.2-0.101-0.7-0.101L30.5,305.045z"/>
<path fill="#5C5F5C" d="M42.6,307.645c0,0-0.1,0-0.3,0c0,0.301,0,0.601-0.1,1.101c-0.2,3-0.7,5.6-1.5,7.899
	c-0.4,1.601-1.2,3.601-2.6,6.2c3.6-0.2,6.2-0.8,7.8-1.899c0.4-0.5,0.9-0.801,1.2-1.101c0.2-1.3,0.7-3.7,1.5-7.5
	c0.3-1.7,0.5-3.1,0.7-4.1c0.3-1.101,0.7-2,1-2.8h-0.2c-0.1,0.3-0.4,0.5-0.5,0.8C48.6,307.145,46.1,307.645,42.6,307.645z"/>
<path fill="#FFCA05" d="M9,63.945H8.9c-1.3,0.5-1.8,0.9-1.8,1.3l0.2,2.4c0,0.5-0.1,1-0.2,1.7c0,0.5-0.1,0.9-0.2,1.5
	c0,2.3,0.7,3.6,2.3,4.3c0.7,0.1,1,0.3,1.4,0.3c-0.3-0.5-0.7-1-1.1-1.6c-1.2-1.5-1.7-3-1.7-4.6v-0.1C7.8,67.445,8.2,65.746,9,63.945z
	"/>
<path fill="#D1753A" d="M39,95.845c0.1-0.2,0.1-0.3,0.2-0.5c-2.2,0.3-4,0.9-5.3,1.8c-1.3,0.8-2.3,1.8-2.7,3.1l-0.2,0.1
	c-0.1-0.2-0.2-0.4-0.2-0.7c0-1,0.5-2,1.8-3c-0.9,0-2.4,0.3-4.5,1h-0.4l0.4,1c0.6,1.3,1.1,2.1,1.5,2.7c0.5,0.6,1,1,1.6,1.3h1
	C34.9,102.646,37.1,100.445,39,95.845z"/>
<path fill="#736550" d="M56.3,85.045c0,0.4,0,0.9-0.1,1.6c-0.1,2.2-0.7,5.6-1.5,10.5c-0.4,2.3-0.8,4.7-1.2,7.4
	c-0.4,1.4-0.6,3-0.9,4.6c-1.1,5.7-1.9,10.8-2.5,15.7c-0.4,2.8-0.6,5.6-0.9,8.1c-0.2,3.7-0.5,7-0.5,10c0,1.3,0.2,3.1,0.4,5.5
	c0,0.5,0,1.1,0.1,1.7c0.2,2.3,0.3,4.1,0.4,5.5c0,0.6,0,1.1,0,1.5c0,0.6,0,1,0,1c-0.1,0.1-0.1,0.3-0.1,0.5c0.7,4.1,2.2,7.9,4.5,11.3
	c0.2,0.5,0.5,1,0.8,1.3c0.7,1,1.4,1.8,2.1,2.5c0.7-0.601,1-1,1-1.101c-0.3-0.5-0.399-1-0.6-1.5c-1-2.699-2-5.3-3-8.2
	c-1-3-1.7-6-2.3-9c-0.3-1.6-0.5-3.2-0.8-4.8c-0.2-2.1-0.3-4.2-0.3-6.2c0-2.3,0.3-5.8,1.1-10.7c0.2-1.7,0.5-3.6,0.9-5.7
	c0.2-1.2,0.3-2.5,0.6-3.9c1.3-7.7,2.2-14,2.5-19.1c0.1-1.6,0.1-2.9,0.1-4.1c0-0.5,0.1-1,0.1-1.8c0.1-0.7,0.3-1.5,0.4-2.6
	c0.3-2.2,0.5-3.4,0.5-3.9s0-1.2,0.2-2c0.3-1.2,0.3-2,0.3-2c0-0.2,0-0.3,0.1-0.4c0.101-0.8,0.2-1.3,0.2-1.8c0-0.1,0-0.3,0.101-0.3
	C57.4,84.845,56.9,84.945,56.3,85.045z"/>
<path fill="#C3A54D" d="M85.1,173.645l-1.9,0.301H83c0.3,0.3,0.6,0.6,1.1,0.899c1,1.101,2.2,2.3,3.2,3.4c0.8,0.8,1.3,1.6,2,2.399
	c0.7-0.3,1.8-0.5,3.5-0.699c2.3-0.301,4.2,0,5.5,0.899c0.5,0.3,0.899,0.601,1.3,1.101c0.7,0.5,1.5,1.399,2,2.5c0.6,1,1,2,1.3,2.899
	c0.7,3.5,1.101,5.601,1.2,6.3c0.1,0.5,0.1,1.301,0.2,2.2c1.3-1.2,2.5-1.7,3.8-1.7c0.1,0,0.1,0,0.2,0c-0.2-0.899-0.4-1.8-0.7-2.699
	c-1-3.2-1.8-5.301-2.4-6.301c-0.899-1.6-1.699-2.699-2.3-3.5c-0.899-1-2-1.8-3.2-2.5c-0.1-0.1-0.1-0.199-0.199-0.199
	c-0.101-0.101-0.101-0.101-0.2-0.101c-0.2-0.2-0.4-0.2-0.7-0.399c-1.9-0.9-4-1.801-6.5-2.801
	C88.7,174.246,86.4,173.645,85.1,173.645z"/>
<path fill="#FFCA05" d="M97.1,233.645c0-0.8,0.1-1.699,0.2-2.6c0.6-4.8,2.6-9.9,5.899-15.7c4-6.7,6-12.2,6-16.1
	c0-1.3-0.3-3-0.899-5.101c-0.101,0-0.101,0-0.2,0c-1.3,0-2.5,0.5-3.8,1.7c0.1,0.601,0.1,1.4,0.1,2.4c0,5.3-1.399,10.7-4.1,16.2
	c-2.7,5.699-4.101,11.1-4.101,16.399c0,1.2,0.4,3.101,1.2,5.8c0.101,0.301,0.2,0.301,0.2,0.5
	C97.3,236.246,97.1,235.145,97.1,233.645z"/>
<path fill="#FFCA05" d="M99.3,241.746c0.3-0.2,0.3-0.4,0.399-0.601c0.101,0,0.101-0.1,0.2-0.199c-0.899-0.9-1.6-1.801-2-2.9
	C98.5,239.845,99,241.045,99.3,241.746z"/>
<path fill="#736550" d="M100.6,240.345v0.7c0,0.1,0,0.2,0,0.4v0.199c0,0.2,0,0.301-0.1,0.601c-0.2,0.7-0.601,1.1-1.2,1.1
	c-0.601,0-1.2-0.5-1.7-1.7c-0.1,0.4-0.2,0.9-0.3,1.5c-0.2,1.301-0.2,2.2-0.2,2.801c0,1.6,0.3,3.199,1,4.899c0.6,1.3,1.5,2.4,2.4,3.3
	c-1.601-2.5-2.4-4.699-2.4-6.6c0-0.7,0-1,0-1.1c0.1,0,0.2-0.101,0.4-0.301c0.1,0.301,1.1,0.801,2.899,1.7
	c1.601,0.601,2.601,1.101,3.3,1.3c0,0,0.2-0.199,0.2-0.399c0-0.101-0.3-0.601-0.7-1.4c-0.5-0.899-0.699-1.399-1-1.5v-0.6
	c0.2,0,0.801,0.2,1.7,0.7c0.9,0.5,1.7,0.699,2.2,0.699c0.3,0,0.4-0.3,0.4-0.8c-0.801-1.6-1.101-2.6-1.101-3.1
	c0-0.3,0.101-0.601,0.3-0.7c-1.6-1.6-2.8-2.3-3.8-2.3l-2.1,0.6C100.7,240.345,100.6,240.345,100.6,240.345z"/>
<path fill="#907853" d="M108.6,244.246c-0.6-0.8-1.4-1.601-1.9-2.2c-0.199,0.1-0.3,0.4-0.3,0.7c0,0.5,0.3,1.5,1.101,3.1
	c0,0.5-0.101,0.8-0.4,0.8c-0.5,0-1.3-0.199-2.2-0.699c-0.899-0.5-1.5-0.7-1.7-0.7v0.6c0.301,0.101,0.5,0.601,1,1.5
	c0.4,0.8,0.7,1.3,0.7,1.4c0,0.2-0.2,0.399-0.2,0.399c-0.699-0.199-1.699-0.699-3.3-1.3c-1.8-0.899-2.8-1.399-2.899-1.7
	c-0.2,0.2-0.301,0.301-0.4,0.301c0,0.1,0,0.399,0,1.1c0,1.9,0.8,4.1,2.4,6.6c0.3,0.301,0.6,0.7,1.1,1c0,0.101,0.2,0.101,0.3,0.2l0,0
	c0-0.2-0.1-0.399-0.1-0.5c0-0.5,0.2-0.7,0.6-0.7c0.101,0,0.9,0.5,2.5,1.4c0.101-0.2,0.2-0.4,0.3-0.7l0.7-1c0.2,0,0.5,0.2,0.9,0.601
	c0.6,0.5,0.899,0.8,0.899,0.899c0.4-0.3,0.601-0.5,0.601-0.5c0.2,0,0.399,0.101,0.6,0.3c0.2,0.101,0.4,0.101,0.4,0.101v-0.601
	c-0.2-0.399-0.4-0.699-0.4-0.8c0-0.8,0.601-0.8,1.9-0.1c0.7,0.399,1.2,0.7,1.5,1.1l0.1-1.7c0-1-0.2-2.199-0.6-3.3
	C111.2,248.045,110.2,246.145,108.6,244.246z"/>
<path fill="#FFCA05" d="M85.6,14.045v-0.5c-0.3,0-0.5,0-0.7,0c-2.899,0-5.8,0.5-8.8,1.7c-0.9,0.3-1.8,0.6-2.5,1
	c-2.1,0.9-4.1,2.1-6,3.4c-0.1,0-0.1,0-0.2,0.1c-4.3,3.3-6.8,6.7-7.2,9.9c-0.6,0-0.899,0-1.1-0.4c-0.4-0.3-0.8-0.4-1.4-0.4v0.3
	c-0.3-0.3-0.6-0.5-0.899-0.7c-0.6-0.5-1.1-1-1.5-1.3c-0.3-0.5-0.7-0.9-0.8-1.2c-0.5-0.8-0.8-1.8-0.8-2.9c0-1.6,0.3-3.1,0.9-4.4
	c0.5-1.2,1.2-2.4,2.1-3.5c1-1.1,1.9-2.1,2.9-2.6c-0.2,0-0.3-0.1-0.3-0.2v-0.2c0-0.1,0.3-0.3,1-0.6s1.6-0.7,2.7-1.1
	c2.5-1,3.699-2.3,3.699-3.9c0-1.1-0.699-2.1-2.199-3c-0.4-0.3-0.9-0.5-1.301-0.6c1.301,0.6,2,1.7,2,3c0,0.7-0.1,1.1-0.3,1.4
	c-0.3,0.4-1.2,0.6-2.3,0.6c-1.3,0-2.7-0.3-4.3-0.9c-1.7-0.7-2.4-1.4-2.4-2.2c0-0.6,0.4-1.2,1.2-1.6c0.8-0.4,1.7-0.6,2.7-0.6
	c0.3,0,0.5,0.1,0.8,0.2c0.4,0.1,0.7,0.1,0.9,0.1H63.2c-0.5-0.2-1-0.4-1.399-0.4c-0.601-0.2-1.2-0.3-1.8-0.4
	c-0.9-0.1-1.801-0.1-2.801-0.1c-1.7,0-3,0.3-3.8,1c-0.6,0.5-0.8,1.1-0.8,1.6c0,0.9,0.4,2,1.1,3.4c0.6,1.4,1,2,1,2.1
	c0,0.4-0.1,0.6-0.6,0.6c0,0,0,0-0.1,0c0.1,0.2,0.1,0.3,0.2,0.3c0,0.1,0,0.3,0,0.6c0,2.1-0.2,3.9-0.7,5.3c-0.2,0.2-0.3,0.5-0.4,0.7
	c-1.1,2-2.9,3.7-5.5,5l-2,1.7c0.3-0.1,0.4-0.1,0.5-0.1c1.8,0,3.8,0.7,6.2,2c0.9,0.6,1.7,1,2.4,1.6c1.3,1.2,1.9,2.3,1.9,3.7
	c0,0.8,0,1.4,0,1.8c0,0.1,0,0.1,0,0.3c0,0.5-0.3,1.3-0.5,2.3c-0.1,0.3-0.3,0.9-0.4,1.5l0,0c0,0.4-0.1,0.7-0.4,1.1
	c-0.2,0.3-0.6,0.6-1,1.1c-0.9,0.9-2,1.4-3.2,1.5c0,0.1-0.1,0.2-0.1,0.3c0.1,0.4,0.1,0.9,0.1,1.4c0,0.8-0.2,1.6-0.6,2.5
	c-0.4,0.6-0.6,1.1-1.1,1.3l0.1,0.2c2-1,3.5-1.4,4.8-0.9l0.2,0.2c-3.6,1-5.9,2-7.2,3c-0.7,0.6-1.6,1.6-2.6,3c-0.4,0-0.6-0.2-0.6-0.5
	c0-0.6,0.5-1.4,1.5-2.2l-0.2-0.3c-1.3,0-2.4-1-3.1-3.2c-0.3-1-0.6-2.1-0.6-3.1c0-0.1-0.1-1-0.1-2.6c0-1.3,0.4-2.1,1-2.4
	c-0.4,0-0.7-0.2-0.9-0.4l-0.1-0.2c0-0.6,0.7-0.8,2-0.6c0.5,0,0.9,0.2,1.3,0.3c0.2-0.2,0.3-0.4,0.6-0.7c0.6-0.6,1.2-1,1.8-1.3
	c0.3,0.2,0.3,0.5,0.3,0.8c0,0.4-0.2,0.8-0.7,1.2c-0.3,0.2-0.3,0.3-0.6,0.5c0.6,0.2,1.2,0.4,1.8,0.7c0,0.1,0.1,0.1,0.2,0.2
	c0.2-0.2,0.4-0.4,0.9-0.6c1-0.6,1.7-1,1.8-1.1c0.1-0.2,0.5-0.7,1.1-1.4c0.4-0.6,0.7-0.8,1-0.9l0.1,0.8c0,0.4-0.5,1.1-1.6,2.3
	c-0.7,0.8-1.6,1.4-2.3,1.7c0.1,0,0.2,0.1,0.3,0.2c0.4-0.1,0.8-0.2,1.4-0.4c1.6-0.5,2.7-0.8,3.2-0.9c0.3-0.3,0.5-0.6,0.8-0.6
	c0-0.2,0-0.2,0.1-0.3c0.2-0.5,0.5-1,0.6-1.3c0.3-0.6,0.4-1,0.4-1.4c0-0.5-0.2-1.2-0.5-1.8c-0.7-1-2-1.8-4-2.7c-2.4-1-4.7-1.4-7-1.2
	c0-0.1-0.3-0.5-0.7-0.9c-0.4-0.5-0.6-0.9-0.6-1.1c0-0.1,0-0.3,0-0.3c-0.3,0.3-0.7,0.6-1,0.9c-0.4,0.4-0.7,0.7-1,0.9h-0.1l0,0
	c-1.5,1.6-2.7,3.4-3.6,5.4c-1.2,2.5-1.9,5.2-1.9,7.7c0,2.2,0.5,4.6,1.4,7.1c0.9,2.6,1.4,4.1,1.4,4.6c0,0.6-0.1,0.9-0.2,1.2
	c-0.1,0.5-0.3,0.9-0.6,1.5c0.2-0.1,0.3-0.1,0.4-0.1c0.4-0.3,0.6-0.4,0.7-0.4c0.4,0,0.7,0.2,0.7,0.5c0,0.3-0.4,0.6-0.9,0.9
	c-0.6,0.4-1.1,0.6-1.7,0.7c-0.2,0-0.3,0-0.5,0c-0.2,0-0.4,0-0.7,0c-1.2-0.2-3.1-0.5-5.4-1.2c-2.7-0.9-5.3-1.3-7.7-1.3
	c-2.5,0-4.7,0.8-6.6,2.3c-0.8,0.5-1.4,1-2.1,1.7l0,0l-2.4,3.6c0,0-0.1,0.2-0.2,0.3c-1.4,2.4-2.2,4.1-2.2,5.2c0,0.3,0,0.7,0,1
	c0.1,1.5,0.5,2.6,1.2,3.2c1.3,1.3,2.4,3.5,3.3,6.3c0.2,0.4,0.3,1.2,0.2,2.5c-0.1,1.2,0.1,2,0.3,2.6c0.5,0.9,1.6,1.6,3.5,2.3
	c1.7,0.6,3.5,0.9,5.1,0.9c0.9,0,2.9-0.3,6-0.6c2.6-0.5,4.4-0.7,5.4-0.9c2.3-0.9,4.4-2.3,6.5-4c0.6-0.6,1.1-1.2,1.7-1.8l0,0
	c0.8-0.8,1.5-1.5,2-2c0.8-1,1.5-2.1,2.3-3.2c0.1,0.2,0.2,0.4,0.2,0.4c0,0.3-0.5,1.3-1.5,3.3c-0.1,0.3-0.2,0.7-0.4,1.1
	c-0.9,1.8-1.4,2.9-1.6,3.3c0,0.4-0.4,2.8-1.1,7.5c-0.6,3.9-1.8,7.3-3.6,10.1c-1.9,2.7-3.9,4.2-6,4.2c-0.9,0-1.6-0.2-2.2-0.4
	c-0.4-0.2-0.6-0.3-0.7-0.6c-1-0.7-1.9-1.9-2.6-3.6c0-0.1,0-0.1,0-0.1c-0.8-2-1.1-3.5-1.1-4.7c0-0.1,0-0.3,0-0.4
	c-1.4-0.2-2.3-0.7-2.8-1.5l-0.5,0.3c1.3,2.3,2,4.4,2.4,6c0,0.3,0.1,0.5,0.1,0.8c0.8,3.5,1.8,6,2.9,7.7c1.4,1.8,3,2.8,5,2.8
	c4.5,0,7.5-1.9,9.1-5.7c0.3-0.8,0.9-4,1.9-9.6c0.4-2,0.7-3.5,1-4.7v-0.2c0.2-1.6,0.5-2.8,0.7-3.4c0.8-3.2,2.1-5.7,3.6-7.9
	c-0.1,0.2-0.2,0.3-0.2,0.7c0,0.3-0.3,1-0.9,2.3c-0.3,0.9-0.6,1.5-0.7,2c0.1,0,0.5,0,0.9,0.2c0.6,0,1.5,0.1,2.6,0.1l0,0
	c7.4,0,12.5-2.4,15.6-7.4c0-0.2,0.2-0.4,0.301-0.6c-1.4-0.3-2.5-1.1-3.4-2.1c-1.5-2-3.1-3.2-5-3.5c2.1-4.8,3.3-7.6,3.5-8.4
	c2.9,0.4,5.3,0.9,7,1.2c-0.3-1.3-0.8-2.5-1.3-3.5c-2-3.8-5.7-5.7-10.9-5.7l-3.2,0.3l-0.3-0.1c-0.1,0.1-0.1,0-0.1-0.2
	c0.9-0.4,1.9-0.8,2.8-1c-0.4-1.4-0.9-3.1-1.5-5.1c0-1.5,0.6-3.5,2-6c0.9-1.9,1.6-3.1,2.3-3.7c-0.2,0-0.3,0-0.399-0.1v-0.2l1.3-0.2
	c0.5,0,1.7,0.2,3.3,0.5c0.2-0.4,0.8-1.2,1.6-2.3c0-0.1-0.3-0.2-1.199-0.4l-0.101-0.3c0-0.2,0.2-0.3,0.5-0.8s0.4-0.7,0.3-0.9
	l-1.8-0.1v-0.2c-0.8,0.2-1.8,0.3-2.7,0.3v0.2h-1.1c-0.4-0.3-0.5-0.6-0.5-0.8c0,0,0.1-0.2,0.5-0.3c0.4-0.2,1.1-0.4,2.2-0.7
	c0.8-0.2,1.8-0.5,3.1-0.7c0.5-0.3,1.101-0.6,1.8-1.2c0.801-0.6,1.301-1,1.7-1.4c0.4-0.5,1.2-1.4,2.101-2.7
	c0.899-1.3,1.6-2.2,2.1-2.7c0.1-0.2,0.8-1,2.2-2.8c0.8-1.2,1.899-2,3.2-2.7c1.5-1.4,2.699-2.2,3.699-2.8S83.3,14.246,85.6,14.045z
	 M14.6,61.146c1.3-1.2,2.3-1.7,3-1.5c0.4-0.5,0.9-0.7,1.3-0.8c0.2-0.2,0.7-0.2,1.5-0.2c1.5,0,2.9,0.5,4.3,1.3c1.8,0.9,2.5,2,2.5,3.5
	c0,1.1-0.7,2.2-2.4,3.1c-1.4,0.8-2.6,1.2-3.5,1.1c-1.2-0.1-2.6,0.8-3.7,2.7c-1.3,1.8-2.1,2.8-2.8,2.6c-0.5-0.8-0.8-1.6-1.2-2.5
	c-0.9-1.9-1.3-3.5-1.3-4.6c0-0.8,0.2-1.6,0.6-2.4C13.2,62.746,13.8,61.945,14.6,61.146z M39.7,64.845c0,0.1,0,0.3,0,0.3
	c0.2,0.5,0.3,1.3,0.3,2.5c0,0.6-0.3,1.2-0.5,1.6c-0.4,0.6-0.5,1.4-0.5,2.6c0.1,0.7,0,1.4-0.3,2.1c-0.1,0.5-0.4,1-0.7,1.2
	c-0.4,0.3-0.8,0.4-1.3,0.4c-1,0-1.6-0.6-1.7-2.1c0-0.3,0.1-0.8,0.4-1.4c0.5,0.1,0.7,0.5,0.8,0.9c0,0.2,0,0.5,0.1,0.7
	c0.9-1,1.4-1.7,1.3-2c0.2-1.4,0.4-2.1,0.4-2.3c0-0.2-0.1-0.4-0.2-0.6c-0.2-0.1-0.4-0.3-0.6-0.6c-0.3-0.3-0.5-0.7-0.5-1
	c0-0.4,0-0.7,0.2-0.9c-0.3,0.1-0.4,0.2-0.4,0.2l-0.4-0.1c-0.1,0.1-0.1-0.1-0.1-0.2c0-0.5,0.5-0.9,1.5-1.5c0.2-0.1,0.5-0.2,0.7-0.2
	l-0.2-0.5c-1-1-2.4-1.5-3.9-1.3c-0.3-0.4-0.5-0.5-0.5-0.4c0-0.6,0.6-0.9,1.8-0.8c0.3,0.2,0.8,0.2,1.3,0.4
	C38.7,62.445,39.7,63.445,39.7,64.845z M50,73.146c-0.3-1.2-1.1-2-2.5-2.6c0.6-1.4,1.5-1.3,2.4,0.3c0.8,1.3,1.2,2.6,1.2,3.6
	c0,0.2,0,0.8-0.2,1.8h-0.2c-0.1,0-0.2-0.7-0.5-2.1c-0.1,0-0.1,0-0.1-0.2l0,0C50.1,73.646,50,73.445,50,73.146z"/>
<path fill="#FFD871" d="M17.6,59.646c-0.7-0.2-1.7,0.3-3,1.5c-0.8,0.8-1.4,1.6-1.7,2.3c-0.4,0.8-0.6,1.6-0.6,2.4
	c0,1.1,0.4,2.7,1.3,4.6c0.4,0.9,0.7,1.7,1.2,2.5c0.7,0.2,1.5-0.8,2.8-2.6c1.1-1.9,2.5-2.8,3.7-2.7c0.9,0.1,2.1-0.3,3.5-1.1
	c1.7-0.9,2.4-2,2.4-3.1c0-1.5-0.7-2.6-2.5-3.5c-1.4-0.8-2.8-1.3-4.3-1.3c-0.8,0-1.3,0-1.5,0.2C18.5,58.945,18,59.146,17.6,59.646z"
	/>
<path fill="#6C6A58" d="M39.7,65.146c0,0,0-0.2,0-0.3c0-1.4-1-2.4-3-3c-0.5-0.2-1-0.2-1.3-0.4c-1.2-0.1-1.8,0.2-1.8,0.8
	c0-0.1,0.2,0,0.5,0.4c1.5-0.2,2.9,0.3,3.9,1.3c0.1,0.2,0.2,0.3,0.3,0.5c-0.1,0-0.1,0-0.1,0c-0.2,0-0.5,0.1-0.7,0.2
	c-1,0.6-1.5,1-1.5,1.5c0,0.1,0,0.3,0.1,0.2l0.4,0.1c0,0,0.1-0.1,0.4-0.2c-0.2,0.2-0.2,0.5-0.2,0.9c0,0.3,0.2,0.7,0.5,1
	c0.2,0.3,0.4,0.5,0.6,0.6c0.1,0.2,0.2,0.4,0.2,0.6c0,0.2-0.2,0.9-0.4,2.3c0.1,0.3-0.4,1-1.3,2c-0.1-0.2-0.1-0.5-0.1-0.7
	c-0.1-0.4-0.3-0.8-0.8-0.9c-0.3,0.6-0.4,1.1-0.4,1.4c0.1,1.5,0.7,2.1,1.7,2.1c0.5,0,0.9-0.1,1.3-0.4c0.3-0.2,0.6-0.7,0.7-1.2
	c0.3-0.7,0.4-1.4,0.3-2.1c0-1.2,0.1-2,0.5-2.6c0.2-0.4,0.5-1,0.5-1.6C40,66.445,39.9,65.646,39.7,65.146z M38.5,65.246h0.1
	c-0.1,0-0.1,0-0.2,0C38.5,65.246,38.5,65.246,38.5,65.246z M36.6,74.345c-0.1,0-0.1,0-0.1,0v-0.1
	C36.5,74.246,36.5,74.246,36.6,74.345z"/>
<path fill="#6C6A58" d="M47.5,70.545c1.4,0.6,2.2,1.4,2.5,2.6c0,0.3,0.1,0.5,0.1,0.8l0,0c0,0.2,0,0.2,0.1,0.2
	c0.3,1.4,0.4,2.1,0.5,2.1h0.2c0.2-1,0.2-1.6,0.2-1.8c0-1-0.4-2.3-1.2-3.6C49,69.246,48.1,69.146,47.5,70.545z"/>
<path fill="#FFD871" d="M64.9,7.345c0.2-0.3,0.3-0.7,0.3-1.4c0-1.3-0.699-2.4-2-3H61.5c-0.2,0-0.5,0-0.9-0.1
	c-0.3-0.1-0.5-0.2-0.8-0.2c-1,0-1.9,0.2-2.7,0.6c-0.8,0.4-1.2,1-1.2,1.6c0,0.8,0.7,1.5,2.4,2.2c1.6,0.6,3,0.9,4.3,0.9
	C63.7,7.945,64.6,7.746,64.9,7.345z"/>
<path fill="#C3A54D" d="M60.1,12.545c-0.2,0-0.5,0-0.5,0c-1,0.5-1.9,1.5-2.9,2.6c-0.9,1.1-1.6,2.3-2.1,3.5c-0.6,1.3-0.9,2.8-0.9,4.4
	c0,1.1,0.3,2.1,0.8,2.9c0.1,0.3,0.5,0.7,0.8,1.2c0.4,0.3,0.9,0.8,1.5,1.3c0.3,0.2,0.6,0.4,0.899,0.7v-0.3c0.601,0,1,0.1,1.4,0.4
	c0.2,0.4,0.5,0.4,1.1,0.4c0.4-3.2,2.9-6.6,7.2-9.9c-0.6,0.4-1.3,0.9-2.399,1.7c-1.101,1.1-2,1.8-2.5,2.1c-0.101,0.1-0.601,0.7-1.7,2
	c-1.101,1.2-1.7,1.7-1.9,1.7h-0.6c0-0.1-0.101-0.3-0.2-0.5c0-0.3,0.2-0.6,0.5-0.9c-0.3,0-0.5,0.1-0.5,0.1c-0.5,0.2-0.8,0.3-0.8,0.5
	c-0.101,0.7-0.2,1.4-0.2,1.8l-0.1,0.1c-0.2-0.2-0.4-0.4-0.4-0.6c-0.4-0.5-0.6-0.8-0.6-1c-0.1-0.1-0.1-0.5-0.1-1
	c0-2.6,0.4-5.1,1.5-7.6c1-2.4,2.3-4.3,3.9-5.6C60.9,12.545,60.5,12.545,60.1,12.545z"/>
<path fill="#FFD871" d="M54.7,27.845c-0.7-0.6-1.5-1-2.4-1.6c-2.4-1.3-4.4-2-6.2-2c-0.1,0-0.2,0-0.5,0.1l-0.2,0.2
	c-0.8,0.7-1.5,1.3-2.1,1.9c0,0,0,0.2,0,0.3c0,0.2,0.2,0.6,0.6,1.1c0.4,0.4,0.7,0.8,0.7,0.9c2.3-0.2,4.6,0.2,7,1.2
	c2,0.9,3.3,1.7,4,2.7c0.3,0.6,0.5,1.3,0.5,1.8c0,0.4-0.1,0.8-0.4,1.4c-0.1,0.3-0.4,0.8-0.6,1.3c-0.1,0.1-0.1,0.1-0.1,0.3
	c0.2-0.3,0.5-0.3,0.6-0.3l0.1,0.3c0.1-0.6,0.3-1.2,0.4-1.5c0.2-1,0.5-1.8,0.5-2.3c0-0.2,0-0.2,0-0.3c0-0.4,0-1,0-1.8
	C56.6,30.146,56,29.045,54.7,27.845z"/>
<path fill="#6C6A58" d="M52.1,35.246c-0.6,0.7-1,1.2-1.1,1.4c-0.1,0.1-0.8,0.5-1.8,1.1c-0.5,0.2-0.7,0.4-0.9,0.6
	c-0.1-0.1-0.2-0.1-0.2-0.2c-0.6-0.3-1.2-0.5-1.8-0.7c0.3-0.2,0.3-0.3,0.6-0.5c0.5-0.4,0.7-0.8,0.7-1.2c0-0.3,0-0.6-0.3-0.8
	c-0.6,0.3-1.2,0.7-1.8,1.3c-0.3,0.3-0.4,0.5-0.6,0.7c-0.4-0.1-0.8-0.3-1.3-0.3c-1.3-0.2-2,0-2,0.6l0.1,0.2c0.2,0.2,0.5,0.4,0.9,0.4
	c-0.6,0.3-1,1.1-1,2.4c0,1.6,0.1,2.5,0.1,2.6c0,1,0.3,2.1,0.6,3.1c0.7,2.2,1.8,3.2,3.1,3.2c0.1,0,0.1,0,0.2,0c-0.1,0-0.1,0-0.1,0
	c0.1,0,0.1,0,0.1,0c0.2,0,0.3,0,0.5-0.1c-0.2,0.1-0.4,0.2-0.5,0.4c-1,0.8-1.5,1.6-1.5,2.2c0,0.3,0.2,0.5,0.6,0.5
	c1-1.4,1.9-2.4,2.6-3c1.3-1,3.6-2,7.2-3l-0.2-0.2c-1.3-0.5-2.8-0.1-4.8,0.9l-0.1-0.2c0.5-0.2,0.7-0.7,1.1-1.3
	c0.4-0.9,0.6-1.7,0.6-2.5c0-0.5,0-1-0.1-1.4c0-0.1,0.1-0.2,0.1-0.3c1.2-0.1,2.3-0.6,3.2-1.5c0.4-0.5,0.8-0.8,1-1.1
	c0.3-0.4,0.4-0.7,0.4-1.1l0,0l-0.1-0.3c-0.1,0-0.4,0-0.6,0.3c-0.3,0-0.5,0.3-0.8,0.6c-0.5,0.1-1.6,0.4-3.2,0.9
	c-0.6,0.2-1,0.3-1.4,0.4c-0.1-0.1-0.2-0.2-0.3-0.2c0.7-0.3,1.6-0.9,2.3-1.7c1.1-1.2,1.6-1.9,1.6-2.3l-0.1-0.8
	C52.8,34.445,52.5,34.646,52.1,35.246z M50.5,40.146h0.2c-0.1,0-0.1,0-0.1,0.1L50.5,40.146z M45.3,38.246c-0.1,0-0.1,0.1-0.1,0.2
	c0.2,0.6,0.4,1,0.4,1.2c0,1-0.5,2-1.1,3l-1,1.6c-0.1,0-0.2,0.1-0.3,0.2c-0.2-0.8-0.4-2.4-0.4-4.6c0-0.2,0.1-0.4,0.3-0.9
	c0-0.4,0.1-0.7,0.1-0.8s0-0.1,0-0.2h0.1c0.1,0.1,0.3,0.1,0.3,0.1C44.4,38.146,45,38.146,45.3,38.246z M43.5,45.045
	c0.1-0.1,0.1-0.1,0.1-0.2c0-0.2,0.2-0.2,0.3-0.3c1.7-0.4,2.6-2,2.6-4.9c0-0.4-0.2-0.8-0.4-1.1l1.3,0.6c0.2,0.3,0.5,0.6,0.7,0.8
	c-0.2,1-0.4,1.8-0.5,2.5c-0.3,0.4-0.5,0.8-0.6,1.4c-0.3,0.6-0.5,1.2-0.7,1.8c-0.4,0.5-0.9,1.1-1.4,1.6h0.5c0.1-0.1,0.1-0.1,0.2-0.1
	l0,0c0.3-0.2,0.5-0.5,0.9-1c0.5-0.7,0.9-1.3,1.2-2.2c0.6-1.1,0.9-2.3,0.9-3.5c0.1,0.2,0.3,0.4,0.5,0.5c0,1.2-0.4,2.5-1.1,4
	c-0.4,0.7-0.9,1.8-1.8,3.2c-0.1-0.2-0.3-0.3-0.6-0.4c-0.3-0.1-0.5-0.3-0.7-0.4l-0.2-0.1c-0.1-0.1-0.3-0.3-0.4-0.3L43.5,45.045z
	 M49.7,43.646c0,0.2,0,0.3-0.1,0.5C49.6,43.945,49.6,43.845,49.7,43.646L49.7,43.646z M48.1,47.246l-0.1-0.1c0.3-0.3,0.6-0.7,0.7-1
	C48.6,46.445,48.3,46.945,48.1,47.246z"/>
<path fill="#FFFFFF" d="M45.2,38.445c0-0.1,0-0.2,0.1-0.2c-0.3-0.1-0.9-0.1-1.7-0.2c0,0-0.2,0-0.3-0.1l-0.1,0.2
	c0,0.1-0.1,0.4-0.1,0.8c-0.2,0.5-0.3,0.7-0.3,0.9c0,2.2,0.2,3.8,0.4,4.6c0.1-0.1,0.2-0.2,0.3-0.2l1-1.6c0.6-1,1.1-2,1.1-3
	C45.6,39.445,45.4,39.045,45.2,38.445z"/>
<path fill="#6A92B1" d="M43.2,37.945c0,0.1,0,0.1,0,0.2l0.1-0.2H43.2z"/>
<path fill="#6A92B1" d="M43.6,44.845c0,0.1,0,0.1-0.1,0.2l0.8,1.9c0.1,0,0.3,0.2,0.4,0.3h0.2c0.5-0.5,1-1.1,1.4-1.6
	c0.2-0.6,0.4-1.2,0.7-1.8c0.1-0.6,0.3-1,0.6-1.4c0.1-0.7,0.3-1.5,0.5-2.5c-0.2-0.2-0.5-0.5-0.7-0.8l-1.3-0.6
	c0.2,0.3,0.4,0.7,0.4,1.1c0,2.9-0.9,4.5-2.6,4.9C43.8,44.646,43.6,44.646,43.6,44.845z"/>
<path fill="#FFFFFF" d="M49.1,40.945c-0.2-0.1-0.4-0.3-0.5-0.5c0,1.2-0.3,2.4-0.9,3.5c-0.3,0.9-0.7,1.5-1.2,2.2
	c-0.4,0.5-0.6,0.8-0.9,1l0,0c-0.1,0-0.1,0-0.2,0.1h-0.5v0.1c0.2,0.1,0.4,0.3,0.7,0.4c0.3,0.1,0.5,0.2,0.6,0.4
	c0.9-1.4,1.4-2.5,1.8-3.2C48.7,43.445,49.1,42.146,49.1,40.945z"/>
<path fill="#C3A54D" d="M60.2,38.945l0.101-0.1c-0.4-0.1-1-0.2-1.4-0.4c-0.7,0.6-1.399,1.8-2.3,3.7c-1.4,2.5-2,4.5-2,6
	c0.6,2,1.1,3.7,1.5,5.1c1-0.2,2-0.3,3-0.1c-0.5-0.6-0.8-1.5-1-2.6c-0.3-1.1-0.5-2.3-0.5-3.4c0-1.5,0.3-3,0.8-4.7
	C59,40.845,59.6,39.646,60.2,38.945z"/>
<path fill="#FFCA05" d="M33.1,2.045c-0.2-0.5-0.5-0.6-1.2-0.6c-0.8,0-1.5,0.1-2.3,0.4c0,0.2,0.1,0.4,0.1,0.7c0,0.6-1.1,2-3.2,4.1
	c-0.4,0.3-0.8,0.7-1.1,1h-2.2c0-0.6,0.8-1.6,2-2.8c1-1,1.8-1.7,2.4-2c-0.1,0.1-0.3,0.1-0.4,0.1s-0.2,0-0.3,0c-0.6,0.6-1.3,1.3-2.2,2
	c-1.7,1.5-2.6,2.6-2.6,3.5c0,0.1,0,0.2,0,0.4c0.1,0.2,0.1,0.4,0.3,0.8c0.3,0.5,0.7,0.8,1.2,0.8s1.4-0.3,2.7-0.9l1.9-1
	c0.4,0,0.8,0.1,0.9,0.4c0,0.1-0.1,0.2-0.3,0.5c-0.1,0.1-0.1,0.1-0.1,0.1c0.9,1.8,1.4,3,1.6,3.5c0.7,1.7,1,3.1,1,4.4
	c0,1.5-0.2,2.9-0.8,3.8c-0.3,0.4-0.9,1.2-1.7,2.3c0,0.1-0.1,0.3-0.2,0.4c-0.1,0-0.1,0-0.3,0.1c0,0.1,0,0.1-0.1,0.2
	c0.5-0.2,0.9-0.2,1.1,0c-0.6,0.7-1.6,1.4-2.9,2.3c-0.1,0.1-0.2,0.1-0.3,0.2c-0.4,0.2-0.8,0.5-1.2,0.7h-0.1l-0.8,0.4
	c-1-2.7-2.1-5.1-3.7-7.2c-0.4-0.8-1-1.5-1.6-2.2c-1.9-2.4-3.7-3.7-5.6-4.3c-0.6-0.1-1.2-0.3-1.8-0.3c-1.4,0-3.1,1.1-4.9,3.1
	c-1.9,2.2-3.3,5.2-3.8,9c0,0.2,0.1,0.3,0.1,0.5c1.9,3.9,4.9,5.8,9.3,5.8l3.1-0.2c1.2,0,2.2,0.1,3,0.4c0.3,0.2,0.5,0.5,0.7,0.7
	c0.2-0.2,0.3-0.4,0.6-0.5c1.2-1.1,2.8-1.8,4.9-2.2h0.4c-0.7,0.2-1.4,0.6-2.1,1s-1.5,0.9-2.1,1.5c-0.6,0.5-1.1,1-1.4,1.4
	c0,0.1,0,0.1-0.1,0.1c0.1,0.2,0.4,0.5,0.9,1.1c0.9,0.9,1.5,1.4,2,1.9c0.3-0.3,0.7-0.4,1.2-0.5c0,0,0,0,0-0.1
	c0.1,0.1,0.1,0.1,0.1,0.1c0.2,0,0.3-0.1,0.5-0.1c-0.3-0.6-0.5-1.6-0.4-2.7c0-0.5,0.1-1,0.2-1.2l0,0c0.2-0.5,1,0.7,2.1,3.6
	c0.6,0,1.1,0.1,1.5,0.4l0.1,0.2l0.5,0.1c0-0.2,0.2-0.3,0.3-0.4c0-0.1-0.1-0.2-0.1-0.2c-0.1-0.1-0.1-0.4-0.1-0.7
	c0-0.7,0.2-1.2,0.7-1.6c0.1,0.1,0.2,0.1,0.2,0.3c0.1-1.7,0.3-3.2,0.5-4.1c0-0.2,0.1-0.4,0.1-0.5s0-0.1-0.1-0.1l0,0v-0.3h-0.1
	c0-0.2,0-0.3,0.1-0.5c0.1-0.8,0.9-1.9,2.1-3.3c0-0.1,0.2-0.2,0.3-0.3c1.3-1.6,2.3-2.5,3.1-2.9c0.4-0.1,1.5-1,3.8-2.8
	c-2-0.7-3.5-2.9-4.6-6.8c-0.8-2.4-1.2-4.5-1.3-6.4c-0.3,0.5-0.5,0.9-0.7,1.3c-0.6-0.6-0.9-0.9-0.9-1C31,6.146,31.6,4.445,33.1,2.045
	z"/>
<path fill="#FFD871" d="M29.7,2.545c0-0.3-0.1-0.5-0.1-0.7c-0.1,0.1-0.4,0.2-0.6,0.2c-0.3,0.2-0.5,0.3-0.9,0.5
	c-0.1,0-0.4,0.2-0.5,0.3c-0.6,0.3-1.4,1-2.4,2c-1.2,1.2-2,2.2-2,2.8h2.2c0.3-0.3,0.7-0.7,1.1-1C28.6,4.545,29.7,3.146,29.7,2.545z"
	/>
<path fill="#C3A54D" d="M27,11.045c0.5,0.8,1.1,1.9,1.7,3.2c0.9,2.8,1.4,4.6,1.4,4.9c0,0.8-0.1,1.5-0.3,2.3
	c-0.2,0.8-0.6,1.4-0.9,1.6c-0.1,0.1-0.2,0.1-0.3,0.1c0.1,0.3,0.2,0.3,0.2,0.3v0.1c0.8-1.1,1.4-1.9,1.7-2.3c0.6-0.9,0.8-2.3,0.8-3.8
	c0-1.3-0.3-2.7-1-4.4c-0.2-0.5-0.7-1.7-1.6-3.5c-0.2,0.3-0.5,0.6-0.9,0.9C27.5,10.646,27.2,10.945,27,11.045z"/>
<path fill="#FFD871" d="M27.2,23.945c0-0.1-0.1-0.1-0.1-0.2c-1.1-0.6-2.4-1.9-3.8-4c-0.2-0.3-0.3-0.6-0.6-0.8c0-0.1,0-0.1-0.1-0.1
	c-2-2.9-3-4.4-3.2-4.5c-0.8-0.6-2.1-1.3-3.9-2.1c-0.5-0.2-1-0.3-1.4-0.5l-0.1-0.1c-1.1-0.4-2.1-0.6-3-0.9c-1.1-0.3-2.6-1-4.5-2.1
	c-1.7-1-2.9-1.5-3.4-1.5c-0.2,0-0.5,0.8-0.8,2.4c-0.2,1.3-0.4,2.5-0.6,3.7c-0.4,3-0.5,4.9-0.5,6c0,2.4,0.4,4.7,1.4,6.7
	c0.5-3.8,1.9-6.8,3.8-9c1.8-2,3.5-3.1,4.9-3.1c0.6,0,1.2,0.2,1.8,0.3c1.9,0.6,3.7,1.9,5.6,4.3c0.6,0.7,1.2,1.4,1.6,2.2
	c1.6,2.1,2.7,4.5,3.7,7.2l0.8-0.4c-0.1,0-0.1,0-0.1-0.2c0-0.5,0.7-1.3,1.9-2.1c0.1-0.1,0.1-0.1,0.2-0.1c0.5-0.4,1-0.7,1.4-0.8
	c0.1-0.1,0.1-0.1,0.1-0.2c0,0.1-0.1,0.1-0.1,0.1C27.9,24.146,27.6,24.045,27.2,23.945z"/>
<path fill="#6C6A58" d="M28.2,24.246c-0.4,0.1-0.9,0.4-1.4,0.8c-0.1,0-0.1,0-0.2,0.1c-1.2,0.8-1.9,1.6-1.9,2.1c0,0.2,0,0.2,0.1,0.2
	h0.1c0.4-0.2,0.8-0.5,1.2-0.7c0.1-0.1,0.2-0.1,0.3-0.2c1.3-0.9,2.3-1.6,2.9-2.3C29.1,24.045,28.7,24.045,28.2,24.246z"/>
<path fill="#B79D6B" d="M29.9,30.146c-0.1,0-0.3,0-0.6-0.1c0,0.1-0.1,0.3-0.1,0.5c-0.2,0.9-0.4,2.4-0.5,4.1c0.1,0.2,0.1,0.3,0.1,0.6
	c-0.1,0.2-0.1,0.5-0.1,0.7c-0.1,0.5-0.1,1-0.1,1.5v1.7c0,2.8-0.8,5.5-2.3,8c-1.2,2-2.8,4.1-5.2,6.4c2-0.1,4.5,0.3,7.8,1
	c4.6,0.9,7,1.4,7,1.4c0.7,0,1.3,0,1.8-0.2c0.3-0.6,0.5-1,0.6-1.5c0.1-0.3,0.2-0.6,0.2-1.2c0-0.5-0.5-2-1.4-4.6
	c-0.9-2.5-1.4-4.9-1.4-7.1c0-2.5,0.7-5.2,1.9-7.7c0.9-2,2.1-3.8,3.6-5.4c-0.1-1,0.8-2.1,2.3-3.4c1.1-1,2.3-1.9,3.7-2.7
	c0.4-0.4,1-0.8,1.5-1.4c0.3-0.3,0.5-0.5,0.8-0.8c0.2-0.1,0.4-0.3,0.5-0.5l-0.3-0.1c0,0.3-0.1,0.6-0.5,0.6c-0.1,0-0.6-0.3-1.7-0.7
	c-1.1-0.4-2.3-0.6-3.4-0.6c-1.6,0-2.9,0.3-3.9,0.8c0,0.5-0.1,0.7-0.4,0.7c-0.2,0-0.3,0-0.5,0c-0.3,0.3-0.6,0.5-0.8,0.8
	c-0.2,0.2-1.5,1.2-3.9,3c-0.5,0.3-1,0.8-1.9,1.5c-0.6,0.5-1.1,1.1-1.3,1.6C30.8,29.146,30.3,30.146,29.9,30.146z"/>
<path fill="#FFFFFF" d="M24.1,48.445c0.3-0.3,0.5-0.7,0.7-1c0.7-1,1-1.5,1.2-2c0.2-0.3,0.5-1.1,1-2.3c0.3-1,0.5-1.8,0.5-2.3
	c-0.3-1.1-0.3-1.9-0.2-2.4c0-0.5,0.2-0.9,0.4-1.2l-0.5-0.1c-0.9,0.1-1.7,0.4-2.6,0.6c0.2,0.4,0.5,0.9,0.8,1.5c0.1,1,0.2,2,0.2,3
	c0,0.9-0.2,1.9-0.5,3.1c-0.2,0.8-0.5,1.4-0.8,1.8c-0.3,0.5-0.7,0.8-1.1,0.8C23.5,48.146,23.7,48.345,24.1,48.445z"/>
<path fill="#FFCA05" d="M28.5,36.945l0.1,0.5c0-0.5,0-1,0.1-1.5C28.6,36.246,28.6,36.646,28.5,36.945z"/>
<path fill="#9D8A68" d="M69.3,66.746c0-1.1-0.101-2.2-0.2-3.3c-1.7-0.3-4.1-0.8-7-1.2c-0.2,0.8-1.4,3.6-3.5,8.4
	c1.9,0.3,3.5,1.5,5,3.5c0.9,1,2,1.8,3.4,2.1C68.6,73.445,69.3,70.345,69.3,66.746z"/>
<path fill="#5C5F5C" d="M69,301.946c-0.301,0.699-0.5,1.399-0.9,2.199l0,0c0-0.199,0-0.399,0-0.699c-0.3,0.699-0.5,1-0.6,1.399H67.2
	l0,0c0,0,0-0.1,0-0.2c0-0.5,0-0.899,0-1.3c-0.1,0.3-0.5,0.601-0.899,0.9c0.2,0.2,0.3,0.5,0.399,0.8c0.801,1.3,1.601,3.7,2.801,7.1
	c0.1,0.301,0.6,1.5,1.3,3.2c0.1,0.4,0.3,0.601,0.3,1c0.7,1.601,1,2.9,1.2,3.9l2.1-0.5c0.4-0.2,0.7-0.3,0.9-0.3s0.399,0,0.7,0
	c-0.9-1.301-1.9-3.101-2.7-4.9c-1.4-3.1-2.101-5.4-2.101-7.1c0-1.7,0.4-3.5,1.101-5.301c-1.2-0.3-2.2-0.6-2.8-1.1L69,301.946z"/>
<path fill="#7B8078" d="M75.4,302.345c-1.2,0-2.3-0.1-3.1-0.2c-0.7,1.801-1.101,3.601-1.101,5.301c0,1.699,0.7,4,2.101,7.1
	c0.8,1.8,1.8,3.6,2.7,4.9c0.1,0,0.399,0,0.699,0c3.301,0,5.601-0.7,6.9-2.5c0.7-0.801,1-1.7,1-2.7c0-0.7-0.5-2.601-1.9-5.5
	c-1.199-2.9-1.899-5.3-1.899-7.101c0-0.399,0.1-0.8,0.2-1C79.8,301.845,78,302.345,75.4,302.345z M77.6,304.246c0.1,0,0.4,0,0.6,0.1
	c0.7,0.101,1.4,0.601,1.9,1.3c0.9,0.9,1.2,1.9,1.2,3c0,0.9-0.101,1.801-0.4,2.7c-0.3,0.8-0.7,1.3-0.899,1.3
	c-0.801,0-1.5-0.5-2.301-1.5c-0.699-1-1.199-2.199-1.199-3.3c0-1.2,0.199-2.2,0.6-3C77.2,304.446,77.4,304.345,77.6,304.246z"/>
<path fill="#DBDED7" d="M78.2,304.345c-0.199-0.1-0.5-0.1-0.6-0.1c-0.2,0.1-0.4,0.2-0.5,0.6c-0.4,0.8-0.6,1.8-0.6,3
	c0,1.101,0.5,2.3,1.199,3.3c0.801,1,1.5,1.5,2.301,1.5c0.199,0,0.6-0.5,0.899-1.3c0.3-0.899,0.4-1.8,0.4-2.7c0-1.1-0.3-2.1-1.2-3
	C79.6,304.946,78.9,304.446,78.2,304.345z"/>
</svg>
