<?xml version="1.0" encoding="utf-8"?>
<!-- Generator: Adobe Illustrator 12.0.0, SVG Export Plug-In  -->
<!DOCTYPE svg PUBLIC "-//W3C//DTD SVG 1.1//EN" "http://www.w3.org/Graphics/SVG/1.1/DTD/svg11.dtd" [
	<!ENTITY ns_flows "http://ns.adobe.com/Flows/1.0/">
	<!ENTITY ns_svg "http://www.w3.org/2000/svg">
	<!ENTITY ns_xlink "http://www.w3.org/1999/xlink">
]>
<svg  version="1.1" xmlns="&ns_svg;" xmlns:xlink="&ns_xlink;" xmlns:a="http://ns.adobe.com/AdobeSVGViewerExtensions/3.0/"
	 width="98" height="221" viewBox="-0.005 -0.701 98 221" enable-background="new -0.005 -0.701 98 221" xml:space="preserve">
<defs>
</defs>
<path fill="#5F5549" d="M71.2,5.5c-0.199,0.3-0.5,0.7-0.699,1c-1.201,1.3-2,2.7-2.602,4c-0.299,0.7-0.699,2-1,3.7
	c-0.299,1.2-0.398,2.1-0.6,2.9c0,0.1,0,0.4,0,0.5c-0.1,0.3-0.1,0.6-0.1,0.8c0,0.1,0,0.2,0,0.4c0.1,0.6,0.301,1.2,0.4,1.9
	c0.299,1.5,0.9,3.3,1.699,5.5c0,0,0,0.1,0.1,0.2c0.301,0.8,0.701,1.8,0.9,2.6c0.801,2.3,1.201,4.2,1.201,5.5v0.1
	c0,0.6-0.102,1.2-0.201,1.9c-0.199,0.7-0.299,1.5-0.6,2.3c-0.1,0.6-0.4,1.1-0.5,1.6c-0.1,0.3-0.301,0.4-0.4,0.6
	c-0.199,0.4-0.299,0.7-0.5,1c-0.4,0.5-0.799,1-1.4,1.4c-2.299,1.6-5.1,3-8.398,3.8v-0.1c0-0.5-0.301-1.1-0.801-1.6
	c-0.1-0.1-0.199-0.3-0.4-0.4c-0.4-0.4-1-0.7-1.6-1c-2.199-1.1-4.4-0.9-6.5,0.8c-0.6,0.5-1.1,1-1.7,1.6C47.3,46,46.9,44.9,46,43
	c-0.1-0.5-0.3-0.8-0.4-1.2c-0.2-0.3-0.4-0.8-0.5-1.1v-0.2c-0.1-0.2-0.2-0.5-0.2-0.7c0,0.1,0,0.1,0,0.1c0.2-0.1,0.2-0.1,0.3-0.1v-0.3
	c0-0.6-0.1-1.1-0.6-1.6c-0.1-0.1-0.1-0.1-0.1-0.2c-0.1-0.2-0.1-0.2-0.1-0.4c0-0.3,0-0.6,0.1-0.9c0-0.3,0-0.7,0.1-0.9
	c0.1-0.9,0.4-1.8,0.7-2.8c0.7-1.7,1.6-3.5,2.8-5.3c0.2-0.4,0.4-0.7,0.6-1c0.5-0.8,0.9-1.6,1.4-2.4c0.1-0.3,0.199-0.5,0.4-0.6
	c1.5-3.2,2.299-6.4,2.5-9.7c0-0.5,0-0.9,0-1.3c0-0.3,0-0.6,0-0.9c-0.102-1.1-0.102-1.8-0.301-2.2c-0.1-0.5-0.5-1.4-1.199-2.8
	C51.3,6.2,51.2,6,51.101,5.7c-0.201-0.5-0.6-1.1-1.201-1.7c-0.5-0.5-1.2-1.1-1.8-1.7C47.4,1.6,46.6,1,46,0.6
	c-0.4-0.2-0.7-0.4-0.9-0.4C45,0.1,45,0,45,0c-0.2,0-0.4,0-0.5,0.1c-0.2,0.1-0.3,0.1-0.4,0.2c-0.8,0.3-1.2,0.7-1.4,1
	c0,0.1,0,0.1-0.1,0.1c-0.1,0.3-0.1,0.8-0.1,1.6c0,0.4,0.4,1.4,1.2,3c0,0,0.1,0.2,0.2,0.2c0.7,1.6,1.1,2.8,1.1,4
	c0,1.2-0.2,2.6-0.7,4.2c-1,3-2.8,6.7-5.6,11c-1.1,1.8-2.1,3.5-3,5.1v0.1c-2,4.1-3.1,7.6-3.2,10.8c-0.1,0.1-0.1,0.3-0.1,0.6
	c0,1.2,0.1,2.7,0.4,4.4c0.1,0.4,0.2,1,0.3,1.3c0,0.3,0.1,0.7,0.2,0.9c0.7,1.5,1.4,2.2,2.4,2.3h0.1c0.1,0,0.2,0,0.2,0
	c0.1-0.1,0.2-0.2,0.2-0.3c0.3-0.1,0.4-0.1,0.4-0.4V50c0.1-0.9,0.7-2,1.9-3.2c0.1-0.1,0.2-0.3,0.4-0.4c0.1,0,0.1-0.2,0.1-0.2
	c0.3-0.3,0.8-0.5,1.1-0.8c1-0.6,1.9-0.9,2.9-0.9c0.6,0.2,1.1,0.3,1.6,0.3c0.3,0,0.5,0,0.5-0.1c0,0,0,0.1,0.1,0.2
	c0.6,1.2,1.3,1.8,1.9,1.8c-0.4,0.5-1,1-1.5,1.7c-0.6,0.6-1.3,1.3-2,2.1c-0.3,0.5-0.9,1.1-1.4,1.9c-0.7,0.9-1.5,2-2.5,3.3
	c0,0-0.1,0.1-0.1,0.2c-0.1,0.1-0.1,0.1-0.2,0.2c-0.4,0.6-0.8,1.1-1.1,1.6c-1.2,1.5-2,2.8-2.3,3.5c-0.3,0.4-0.4,0.8-0.4,0.9l0.1,0.1
	c-0.6,0.3-1,0.6-1.4,1h-0.1l-0.5-0.1h-0.1c-0.7,0-2.1,0.4-4.2,1.1c-0.1,0-0.1,0-0.1,0l0,0c-1.1,0.4-2.3,0.8-3.7,1.3
	c-0.4,0-1.7,0.3-3.9,0.9c-0.4,0.1-0.6,0.1-1,0.2c-2,0.4-3.6,0.7-5,0.9c-1.1-0.6-1.9-1.3-2.2-2.2c-0.1-0.5-0.2-1-0.3-1.3
	c-0.1-0.6-0.3-1.2-0.6-1.5c0-0.1-0.1-0.3-0.1-0.3c-0.3-0.5-0.8-1.4-1.4-2.5c0-0.2-0.1-0.2-0.1-0.3c-0.9-1.8-1.3-3-1.3-3.6
	c0-0.3,0.3-0.5,0.9-0.9c0.5,0.1,0.7,0.2,0.8,0.3h3.1l0.8-0.2c0.3,0.5,0.9,0.6,1.8,0.5c1.9-0.4,2.9-0.6,3-0.6v-0.1
	c0.9-0.1,1.8-0.1,2.6-0.1c0.9-0.1,1.6-0.2,2.4-0.2c0.1,0,0.2,0,0.4,0c0.7,0,1.5-0.1,2.1-0.2c1.7-0.3,3.1-0.5,4.4-0.7
	c0.6-0.1,1.1-0.2,1.6-0.4c0.5-0.2,0.9-0.4,1.3-0.5c0.4-0.2,0.9-0.4,1.4-0.5c0,0,0,0,0.1,0c0.2-0.2,0.6-0.2,0.9-0.4
	c0.9-0.3,1.9-0.6,2.9-0.8c0,0.1,0,0.3,0.1,0.7c0.1,0.2,0.4,0.3,0.8,0.3c0.1,0,0.2,0,0.3-0.2c0.1-0.1,0.1-0.3,0.1-0.6
	c0-0.2,0-0.5-0.3-0.8c-0.1-0.3-0.4-0.4-0.6-0.4c-1.3,0.3-2.8,0.7-4.5,1.3c-0.1,0-0.1,0-0.1,0l0,0c-0.1,0.1-0.3,0.1-0.3,0.1
	c-1.1,0.3-2.4,0.7-3.6,1.1c-0.5,0-0.8,0.2-1.2,0.2c-1.2,0.2-2.4,0.4-3.8,0.6c-0.1,0-0.1,0-0.1,0c-0.5,0.1-1,0.1-1.5,0.2
	c-0.4,0-0.8,0-1.2,0c-2.7,0.3-5.8,0.5-9.2,0.5c-0.2,0-0.5,0-0.7,0h0.7c0-0.1-2.1-0.6-6.3-1.7c-4.2-1.1-6.7-1.6-7.2-1.6
	c-0.3,0-0.4,0-0.5,0.1c0,0.1,0,0.2,0,0.4c0,0,0.1,0,0.2,0c-0.9,0.7-1.3,1.3-1.3,2c0,0.3,0.1,0.6,0.1,0.8c0.2,0.3,0.3,0.7,0.4,1.2
	C0.6,56,1,56.7,1.6,57.4c0.5,0.5,1,1.2,1.3,2C3,59.5,3,59.5,3,59.6c0.1,0.4,0.4,1.1,0.6,1.9c1.2,2.5,1.9,4,2,4.2
	c0.5,0.5,1,1,1.7,1.4c0.4,0.2,0.8,0.4,1.1,0.6c1.6,0.7,3.6,1,5.9,1c0.6,0,0.9,0,1.3-0.1s1.1-0.2,2.3-0.2v-0.1h1.2v-0.1
	c0.7-0.1,1.4-0.2,2.3-0.4c1.9-0.3,4.1-1,6.8-1.8c0.2,0,0.4,0,0.5,0c0.9-0.3,1.8-0.6,2.5-0.9c0.9-0.3,1.5-0.5,2-0.7
	c-0.1,0.1-0.1,0.3-0.1,0.4c0,0.1-0.1,0.2-0.1,0.5c-0.3,0.7-0.7,2.1-1.4,4.2c0,0.3,0,0.9-0.3,1.8c-0.2,0.9-0.4,1.5-0.4,1.7
	c0,0.5-0.2,1.2-0.3,1.9c-0.3,0.7-0.4,1.3-0.4,1.8l0.1,0.5c0.1,0,0.2,0.1,0.2,0.2c-0.5,0.4-1,1-1.5,1.6c-1.7,2.1-2.4,4.3-2.4,6.7
	c0,0.4,0,0.8,0.2,1c0,0,0.1,0.1,0.1,0.2c-0.8,0.6-1.5,1.1-2.2,1.8c-0.1,0.1-0.1,0.1-0.1,0.2c-1.2,1.1-2.1,2.1-2.9,3
	c-0.1,0.3-0.4,0.6-0.6,0.8c-0.7,1-1,2-1,2.8c0,0.2,0,0.2,0,0.3c-0.2,0.4-0.4,0.9-0.4,1.2c0,0.2,0.4,1.2,0.9,2.6c0,0.6-0.1,1.6-0.3,3
	c-0.2,1.3-0.3,2.3-0.3,2.9c0,0.9,0.3,2.1,1.1,3.7c1.3,2.2,2.8,3.3,4.6,3.3c0.6,0,1.1-0.301,1.4-0.801c0.2,0.101,0.5,0.101,0.9,0.2
	L27.9,113c0,0.199,0,0.5,0,0.8s0,0.6,0,1C28,115.2,28,115.7,28,116.2c0.1,2.101,0.4,4.601,0.7,7.801c0.6,3.8,1.6,6.5,3,8
	c1.3,1.199,3,2,5.5,2.3c0,0.2,0,0.399,0,0.7c0,1.3,0.5,3.399,1.7,6.199c1,2.9,2,4.801,2.7,5.801c0.1,0,0.1,0,0.3,0.199
	c0.2,0.301,0.6,1,1.3,1.9c0.1,0.3,0.4,0.5,0.5,0.7c0.4,0.6,0.8,1.1,1.3,1.6C45.5,152,46.1,152.5,46.7,153c0.1,0,0.2,0.199,0.3,0.199
	c0.2,0.5,0.6,1,1,1.7c0.1,0.4,0.3,0.7,0.5,1c0.6,1.4,1.1,2.5,1.4,3.8c0.101,0.2,0.201,0.5,0.201,0.801c0.1,0.199,0.199,0.6,0.4,1.5
	c0.1,0.699,0.398,1.6,0.6,2.699c0.5,1.7,0.9,3,1.1,4.101c0.801,2.1,1.4,4.5,1.9,6.899c0.1,0.5,0.199,1,0.4,1.5
	c0.199,1.2,0.398,2.5,0.6,3.7c0.199,1,0.4,1.8,0.5,2.5c-0.301,0.101-0.5,0.4-0.6,0.9c-0.201,0.5-0.301,1-0.301,1.5
	c0,0.899,0.301,1.7,0.9,2.7c0.299,0.5,0.699,0.899,1,1.199c0,0.7,0,1.301-0.1,2c-0.201,1.4-0.4,2.801-0.801,4.2
	c0,0.101,0,0.4-0.1,0.5c-0.1,0.9-0.4,1.8-0.701,2.601c-0.799,2.3-1.898,4.5-3.5,6.699c-0.799,1-1.398,1.801-2,2.601
	c0,0.1,0.2,0.399,0.4,0.7c-0.2,0-0.3,0.199-0.4,0.3c-0.3,0.2-0.5,0.6-0.8,1c-0.1,0.399-0.5,0.899-0.8,1.5c-0.1,0.2-0.7,0.899-1.6,2
	c-0.2,0.399-0.6,0.7-1,1.2c0,0.3,0.7,0.8,1.9,1.399c0.3,0,0.5,0.101,0.8,0.4c0.1,0,0.1,0,0.2,0c0.2,0.1,0.5,0.2,0.8,0.399
	c1.601,0.601,3,0.801,4,0.801H54.7V217.9c1.5,0.101,2.6-0.3,3.4-1.5c0.6-0.8,1-1.5,1-2.1c0-0.4-0.201-0.5-0.5-0.7
	c0.5-0.1,0.9-0.7,1.199-1.6c-0.299,0-0.6,0-0.699,0.399c-0.201,0.2-0.5,0.3-0.801,0.3c-0.199,0-0.6,0-1-0.199
	c-0.799-0.301-1.799-0.801-3.1-1.601c-0.1,0-0.199-0.1-0.301-0.1c-0.898-0.601-1.799-1.3-2.799-2.101c-0.201-0.1-0.4-0.199-0.5-0.3
	c1.4-2,2.4-3.6,3-4.6c1.1-1.7,1.799-3.101,2-4.3c0.299-1.101,0.6-2.101,0.799-3.101c0.102-0.2,0.201-0.5,0.201-0.7
	c0.5-2.1,0.699-3.6,0.9-4.399c0-0.3,0-0.5,0-0.601c0-0.3,0-0.399,0-0.5c0.1,0,0.1,0,0.1,0.101c0.4,0.1,0.6,0.1,1,0.1
	c0.1,0,0.299,0,0.4,0H59.8c-1.199-0.2-2.199-1-3.1-2c-0.801-0.899-1.1-1.7-1.1-2.6c0-0.3,0-0.7,0.299-1.101
	c0.201,0.4,0.301,0.601,0.4,0.601c0.301,0,0.4-0.5,0.4-1.4l0,0c0-1.399-0.4-3.6-1.1-7c-0.201-0.5-0.301-1.1-0.4-1.5
	c-0.1-0.1-0.1-0.2-0.1-0.399c-1.201-4.4-1.9-6.9-2-7.5l-2.1-8.101C50.3,157.6,49.7,156,49.1,154.8l0,0c0,0,0,0,0.1,0
	c0.901,0.6,1.5,1,2,1.399c2.4,1.5,4.1,2.2,5.301,2.4c0.1,0,0.1,0,0.199,0c0,0,0,0,0.1,0s0.301-0.1,0.5-0.2
	c-1-0.6-2.699-1.7-5.199-3.2c-0.9-0.5-1.6-1-2.3-1.399c-0.9-0.601-1.7-1.2-2.2-1.5c-0.2-0.3-0.5-0.5-0.7-0.8c-0.1,0-0.1,0-0.1-0.101
	c-0.7-0.6-1.5-1.5-2.2-2.399l-2.1-3c-1-1.301-2.1-3.301-3.2-6.2c-0.2-0.8-0.6-1.8-0.8-3.101c-0.1,0-0.1,0-0.1,0
	c-0.1-0.3-0.1-0.5-0.2-0.699c0-0.101,0-0.101,0-0.101c-0.1-0.6-0.2-1.1-0.3-1.5c0.6,0.101,1.2,0.101,2,0.101
	c0.7,0,1.6-0.5,2.3-1.301c0.3-0.199,0.5-0.6,0.8-1c0.8-1.199,1.3-2.1,1.4-2.699c0.1-0.301,0.1-0.5,0.2-0.7c0.2-1,0.4-1.8,0.5-2.3
	c0.1-1.101,0.3-2,0.4-2.7c0.1-2.4,0.4-4.3,0.5-5.601c0.1-0.199,0.1-0.5,0.1-0.699c0-0.101,0-0.301,0.1-0.5
	c0.4-1.601,0.8-3,1.4-4.301c0.4-0.5,0.8-1.199,1.1-1.699c1.4-2.2,2.4-4,3.4-5.601c0,0,0,0,0-0.1c0,0.1,0,0.1,0,0.1c0,0.4,0,1,0,1.7
	c0.1,0.2,0.1,0.4,0.1,0.6l-0.1,3.6v0.899c0,0.101,0,0.101,0,0.2c0,1,0.1,2.101,0.4,3.2c0.5,2.1,1.398,4.4,2.699,6.6
	c0.4,0.7,0.801,1.4,1.301,2.101s1,1.399,1.6,2c1.6,1.899,3.5,3.399,5.6,4.5c0.199,0.2,0.4,0.3,0.5,0.399c0.1,0,0.1,0,0.1,0
	c-0.1,0-0.199-0.199-0.199-0.199c-0.9-1-1.701-1.801-2.4-2.5c0.801,0.199,1.801,0.199,2.801,0.199l2.1-0.199c3,0,6.1-1.4,9.199-4.2
	c0.201-0.101,0.301-0.3,0.4-0.3c2.9-2.5,5-3.801,6.5-3.9h0.199c2.301,0,4.5,1.6,6.5,4.9c0.201,0.399,0.5,0.8,0.701,1.199
	c0.199,0.5,0.5,1,0.799,1.5c0,0.101,0.102,0.301,0.201,0.5c1.699,3.601,2.5,6.2,2.5,7.801c0,0.8,0.5,3.699,1.4,8.6
	c0,0.4,0.1,0.9,0.1,1.4c0.1,0.199,0.1,0.5,0.1,1c-0.1-0.101-0.1-0.2-0.199-0.301l-0.102,1.2c0,0.8,0.102,1.9,0.201,3.7
	c0,0.2,0,0.4,0.1,0.6c0,0.801,0,1.601,0,2.2c0,0.4,0,0.601,0.1,1c0,0.2,0,0.4,0,0.601v0.199c0,3.101-0.6,6.101-1.4,9
	c-0.398,1.2-0.898,2.301-1.299,3.5c-0.301,0.301-0.5,0.7-0.6,1.101c-2.4,4.6-3.5,6.899-3.5,7.3c0,0.6,0,0.9,0.1,1.1
	c0.1,0.5,0.4,0.7,0.9,0.801l0.1-0.601c0-0.3,0-0.899,0.4-1.5l0.1,0.101c0.5-0.2,0.9-0.301,1.299-0.301
	c0.801,0,1.301,0.5,1.301,1.301c0,0-0.301,0.699-1,1.8c-0.1,0.2-0.4,0.6-0.6,1c-1.201,1.899-2,3.399-2.5,4.399
	c-0.4,1-0.801,1.9-1.1,2.7c-0.5,1-0.9,1.9-1.201,2.601c-0.5,1-0.799,1.699-0.799,1.899c-0.5,1.101-1,3.3-1.5,6.7
	c-0.102,0.3-0.102,0.7-0.201,0.9c-0.1,0.399-0.1,0.699-0.199,1c-0.4,2.5-0.5,4.5-0.5,5.8l0.1,2c0,0.6,0.1,1,0.199,1.399
	c-1.699-0.1-2.799-0.399-3.398-0.899c-0.102,0-0.201-0.101-0.301-0.3c-0.1-0.101-0.1-0.2-0.199-0.301
	c-0.5-0.899-0.801-2.199-0.801-3.899c0-0.8,0-1.8,0.199-2.9c0-0.1,0-0.1,0-0.2c0.201-2.3,0.602-5.199,1.201-8.6
	c0.199-0.9,0.4-1.9,0.5-2.9c0.1-0.3,0.1-0.5,0.199-0.8c0.6-3.1,1.1-5.3,1.4-6.6c0.1-0.4,0.199-0.7,0.301-1
	c0.1,0.399,0.398,0.6,0.6,0.7c0,0,0,0,0.1,0l0,0c-0.1-1-0.6-2.4-1.4-4.101c-1.1-2.1-1.699-3.6-1.799-4.3c-0.301-1-0.5-2-0.801-2.9
	c0-0.399-0.1-0.699-0.1-0.899c-0.1-0.601-0.201-1-0.201-1.5c-0.199-1.101-0.299-2.2-0.299-3.101l0.299-2.199c0-0.101,0-0.101,0-0.2
	c0.201-0.101,0.301-0.3,0.602-0.5c1.199-0.9,2.1-1.601,2.699-2.4c0.301-0.399,0.5-0.7,0.9-1.2c0.1-0.3,0.199-0.6,0.4-0.899
	c0.1,0,0.1-0.101,0.1-0.101c0.299-0.399,0.4-0.8,0.5-1.1c0.1-0.5,0.199-0.8,0.199-1.1V155.9l0.201-0.5l0,0
	c-0.201,0.101-0.301,0.4-0.5,0.601c-0.5,0.699-1,1.399-1.801,2.399c-0.301,0.4-0.6,0.8-1,1.3c-0.6,0.801-1.4,1.601-2.4,2.101
	c-0.199,0.1-1,0.6-2.5,1.1c-0.1,0-0.199,0.101-0.299,0.2c-0.201-1.7-0.4-3-0.701-3.8c-0.199-0.4-0.199-0.601-0.4-0.9
	c-0.199,0.101-0.299,0.3-0.299,0.5l0.6,4.8c-0.1,0.101-0.1,0.101-0.1,0.2l0.1,0.3c0,0.101,0,0.101,0,0.101v0.1c0,1.8,0,3.5-0.1,5.4
	c-0.1,0.6-0.201,1.2-0.301,1.899c-0.1,0.101-0.1,0.301-0.1,0.5c-0.1,1.4-0.4,2.801-0.6,4.301c-0.4,1.899-0.9,3.899-1.201,5.899
	c0,0,0,0-0.1,0c-0.6-0.3-0.9-0.2-0.9,0.3c0.4,0.601,0.801,0.9,1.102,1.101c-0.301,0-0.4,0.1-0.4,0.5c0-0.101,0.1,0.2,0.5,0.899
	c0,0.2,0.1,0.4,0.1,0.601c0.301,0.399,0.4,0.6,0.4,0.8c-0.1,1.6-0.5,2.6-1.201,3v-0.1c-0.1,0-0.1,0.1-0.1,0.199
	c-0.199,0.101-0.4,0.101-0.799,0.101c-0.301,0-0.4-0.101-0.602-0.101c-0.398-0.199-0.799-0.1-1.199,0.101l0.1,0.5
	c0.201,0,0.4,0,0.6,0.1c0.201,0,0.201,0,0.5,0c0.201,0.101,0.602,0.2,1.102,0.2c-0.102,0.3-0.201,0.7-0.301,1.2
	c-0.1,0.2-0.199,0.5-0.199,0.899c-0.301,1.2-0.4,2.2-0.4,2.801c-0.1,0.199-0.1,0.3-0.1,0.399c0,0.9,0.1,2,0.299,3.601
	c0,0.3,0.201,1.399,0.5,3.399c0.1,0.101,0.1,0.2,0.1,0.3c0,0.301,0,0.801,0.102,1.301c0,0.899,0.1,1.899,0.398,2.899
	c0.4,1.601,0.602,2.8,0.602,3.5c0,1-0.102,1.601-0.301,1.9c-0.5,0.7-1.6,1-3.5,1.1c-0.1,0-0.199,0-0.301,0
	c-0.699,0-1.898-0.1-3.6-0.5c-1.4-0.399-2.199-0.5-2.299-0.5c0,0-0.102,0-0.201,0s-0.1,0-0.199-0.1v-0.2c0,0-0.1,0-0.201,0
	c-0.1-0.1-0.199-0.2-0.299-0.2c-0.5-0.5-0.801-0.899-0.801-1.2c0-0.399,0.201-1.399,0.6-2.899c0-0.5,0.102-0.9,0.201-1.3
	c0.199-0.601,0.4-1.301,0.5-1.801c0.4-1.199,0.5-1.8,0.5-2c0.6-3.3,1-5.5,1.199-6.8c0.201-0.8,0.201-1.2,0.301-1.5
	c0-0.399,0.1-0.899,0.1-1.399c0.199-1.5,0.4-3.101,0.699-5.101c0.201-0.899,0.301-1.7,0.5-2.7c0.201-1.899,0.4-4.199,0.4-6.899
	c0-0.9-0.1-2.2-0.299-3.8c0-0.2,0-0.5-0.102-0.801c0-0.8-0.1-1.399-0.199-1.899c0-0.4-0.1-0.7-0.1-0.9c0-0.399-0.301-1.6-0.801-3.6
	c-0.1-0.2-0.199-0.9-0.199-1.9c-0.1-0.7-0.301-1.2-0.701-1.6c-0.199,0.1-0.299,0.2-0.299,0.5c0,0.7,0.4,3.3,1,7.8
	c0,0.6,0.1,1.2,0.199,1.9c0.201,1.3,0.301,2.8,0.5,4.3c0,2.1-0.199,4.8-0.6,8c-0.1,0.6-0.199,1.399-0.199,2
	c-0.4,2.3-0.602,4-0.801,5l-0.1,1c-0.1,0.399-0.1,0.899-0.301,1.6c-0.199,1.4-0.799,3.9-1.5,7c-0.199,0.8-0.199,1.4-0.4,2.101
	c-0.299,1.199-0.5,2.3-0.699,3.1c-0.199,1.4-0.4,2.2-0.4,2.5l0.301,0.7l0.1,0.7c0.301,0.3,0.5,0.699,0.801,0.899
	c-0.201,0.3-0.301,0.7-0.4,1.101c-0.1,0.8-0.201,1.399-0.201,2.3c0,0.5,0.602,1,1.701,1.6c1.4,0.7,3.199,1,5.5,1.101v0.1l2.1,0.1
	c0.4,0,0.9-0.1,1.199-0.199c0.801-0.101,1.602-0.5,2.301-1c0.9-0.7,1.301-1.301,1.301-1.801c-0.201-0.5-0.4-1.1-0.5-1.699
	c-0.4-1.101-0.801-1.601-1-1.601c-0.201,0-0.301,0.101-0.4,0.3c0,0.101,0.199,0.601,0.6,1.5c0.4,0.7,0.5,1.2,0.5,1.601
	c0,0.3-0.5,0.7-1.6,1.1c-0.5,0.2-0.9,0.4-1.4,0.5c-0.699,0.2-1.6,0.3-2.5,0.3c-0.1,0-0.1,0-0.1,0c-1.701,0-3.4-0.3-4.701-0.8
	c-1.398-0.399-2-0.899-2-1.2c0-0.3,0.102-0.899,0.4-1.8c0.1-0.399,0.201-0.7,0.301-1.1c0,0,0.1,0,0.199,0c0.201,0,0.301,0,0.301,0
	c0.6,0.3,1.5,0.5,2.5,0.7c1,0.199,1.699,0.3,2.199,0.399c0.1,0,0.201,0,0.301,0h0.1c0.5,0,1,0,1.5-0.1
	c1.699-0.101,2.9-0.601,3.4-1.4c0-0.1,0.1-0.2,0.199-0.399c0.1,0.1,0.201,0.3,0.301,0.3c0.199,0.2,0.5,0.3,1,0.3
	c0,0,0.5-0.1,1.4-0.2c-0.301,0.4-0.4,0.9-0.4,1.101c0,0.5,0.299,1,0.9,1.5c0.5,0.399,1.1,0.8,1.699,0.899c0.1,0,0.1,0,0.1,0
	c0.4,0.101,0.801,0.101,1.201,0.2L80.3,217V216.9c1.701,0.601,2.801-0.899,3.201-4.3c0-0.4,0-0.7-0.102-1.1
	c0.301,0,0.602-0.2,0.801-0.4c0.4-0.3,0.699-0.4,0.801-0.7l-0.602-0.1l0.102-1.5c0-1.8,0-2.9,0-3.5c0-0.8,0.199-2.2,0.6-4.101
	c0-0.199,0-0.3,0-0.399c0-0.4,0.1-0.9,0.199-1.3c0.201-0.9,0.301-1.7,0.301-2.2c0.199-1.601,0.5-2.9,0.9-3.9
	c0.199-1,0.799-2.2,1.6-3.899c0.199-0.5,0.5-1.2,0.9-1.9c0.398-1.1,1-2.3,1.6-3.6c1-2.101,1.799-3.601,2.299-4.601
	c0.4-1,0.701-1.5,0.701-1.6c0-0.5-0.4-1-1-1.4c-0.801-0.6-1.6-0.6-2.5,0.3c0.5-1.399,1.5-3.5,3-6.3c0.4-0.7,0.6-1.3,1-2
	c0.5-1.2,1-2.399,1.4-3.6c0.699-2.4,1.1-5,1.1-7.5c0-0.8-0.1-1.8-0.201-3c-0.1-0.8-0.1-1.601-0.199-2.5c0-1.3,0-2.2,0-2.8
	c0-0.2,0-0.301-0.1-0.5c0-0.7,0-1.301,0-2c0-1.4-0.5-4.5-1.5-9.301c-0.4-2-0.9-3.8-1.201-5.199c0.201-1.301,0.301-2,0.301-2.301
	c0-0.199,0-0.5,0-0.699c0-1.9-0.1-3-0.1-3.5c0-0.301-0.1-0.801-0.4-1.7c0-0.101-0.1-0.3-0.1-0.5c-0.301-0.8-0.5-1.9-1-3.101
	c-0.4-1.5-0.6-2.199-0.701-2.399c-0.299-0.9-0.699-1.7-1.299-2.4c-0.1-0.7-0.301-1.5-0.6-2.2c-0.602-1.5-1.4-2.199-2.301-2.199
	c-0.4,0-0.6,0.199-0.6,0.699L86.7,112h-0.1c0,0,0-0.4-0.1-1.2c-0.102-0.6-0.4-0.9-0.701-0.9c-0.299,0-0.6,0.3-0.699,0.8
	c-0.1,0.801-0.1,1-0.201,1.101c0-0.2-0.199-0.4-0.199-0.601c-0.199-0.199-0.4-0.399-0.6-0.399c-0.4,0-0.6,0.2-0.801,0.7
	c-0.199,0.3-0.4,0.6-0.799,0.699c-0.4-0.699-0.602-1.399-0.602-1.8c-0.299-0.7-0.5-1.1-0.898-1c-0.301,0.1-0.4,0.3-0.4,0.6
	c0,1.2,0,2.1-0.1,2.7c0,0.4,0,0.7,0,0.801c-0.201,1-0.602,2.199-1.4,4c-0.301,0.8-1.301,2.199-3,4.3c-1.201,1.6-1.9,2.6-2.1,2.899
	c-0.4,0.301-1.102,0.801-2.201,1.5c-1.799,1-3.4,1.5-4.699,1.5h-2.6c-1.5,0-2.801-0.1-3.701-0.5c-0.199,0-0.299-0.1-0.5-0.199
	c-0.199-0.101-0.199-0.301-0.4-0.5c-0.299-0.301-0.699-0.601-0.898-1c-0.801-0.801-1.4-1.5-1.801-2.101c-0.4-0.6-0.6-1-0.9-1.399
	c-1.299-2.5-2.199-4.801-2.6-6.801c-0.1-0.8-0.199-1.6-0.199-2.3c-0.201-0.6-0.201-1.2-0.201-1.6c0-0.8-0.1-1.6-0.1-2.3
	c0-0.2,0-0.3,0-0.3c-0.1-1-0.1-1.8-0.1-2.5c-0.1-0.9-0.1-1.7-0.201-2.2c0.801-1.5,1.4-2.6,1.801-3.4c1.6-2.9,2.4-6.2,2.4-9.9
	c0-1-0.301-2.2-0.801-3.5v-0.1c-0.199-0.4-0.199-0.7-0.4-0.9c0.301-0.6,0.701-1.2,0.9-1.6c1.5-2.6,2.5-4.9,3.201-7.1
	c0.1-0.1,0.1-0.3,0.1-0.4c0.6-2.4,1-5.3,1-8.5c-0.1-1.1-0.201-2-0.1-2.6c0-0.1-0.102-0.5-0.201-1.4c0-0.3-0.1-0.4-0.299-0.5
	c0.1-0.1,0.1-0.1,0.1-0.1c0.799,0,2.4,1.1,4.9,3.2c1.299,1.1,2.799,2.3,4.5,3.8c0.5,0.4,1,0.7,1.299,1c0.801,0.5,1.6,1,2.1,1.5
	c0.201,0,0.201,0.1,0.301,0.2c0.699,0.5,1,0.8,1.199,0.9c1.201,1.2,2.102,2.1,2.801,2.5s1.5,0.6,2.4,0.8c0.5,0.1,1.1,0.1,1.699,0.1
	c2.5,0,4.701-0.5,6.301-1.5c0.299-0.2,1.199-1,2.9-2.4c0.6-0.6,1.6-1.4,3.299-2.3c0.201-0.1,0.301-0.1,0.4-0.3
	c0.6-0.3,1-0.5,1.4-0.8c0,0,0.199,0.1,0.4,0.1c0.5,0,0.699-0.3,0.6-0.9c0-0.6-0.9-1.2-2.6-1.8c-0.5-0.1-0.9-0.4-1.5-0.6
	c-0.602-0.1-1.201-0.3-1.801-0.4c-0.5-0.3-1.1-0.4-1.6-0.6c-1.1-0.5-1.9-0.8-2.1-1.2c-0.102-0.1-0.201-0.1-0.201-0.2
	c-0.799-0.9-1.699-1.8-2.6-2.6c-0.199-0.3-0.6-0.5-0.801-0.8c-0.398-0.3-0.799-0.6-1-0.9c-1.398-1.2-2.299-2-2.6-2.2
	c-0.699-0.7-1.5-1.4-2.299-2.1c-0.301-0.1-0.5-0.3-0.801-0.5c-0.1,0-0.199-0.2-0.301-0.3c-1.699-1.1-3.398-2.1-5.5-3.1
	c-0.398-0.1-0.898-0.3-1.398-0.4c1.5-0.8,2.799-2,3.898-3.7c0.5-0.6,0.9-1.3,1.301-2c0.199-0.3,0.301-0.7,0.4-1
	c0.299-0.4,0.5-0.8,0.6-1.3c0.4-0.8,0.699-1.7,0.9-2.6c0.1-0.4,0.199-0.8,0.199-1.1c0.201-0.9,0.4-1.8,0.4-2.7c0-0.2,0-0.4,0-0.6V37
	c0-1.3-0.1-2.9-0.4-4.5c-0.1-0.5-0.199-0.8-0.199-1.3c-0.4-1.5-0.801-3.1-1.4-4.7c-0.1-0.6-0.301-1.3-0.5-1.9
	c-0.301-0.6-0.5-1.3-0.6-1.9c-0.301-0.9-0.6-1.6-0.801-2.2c-0.699-2.4-1.1-4.1-1.199-5.1c0-0.2,0-0.3,0-0.4l0,0c0-0.5,0-1,0.1-1.3
	c0.199-1.6,0.699-3.1,1.5-4.7c1-1.5,1.5-2.6,1.5-2.9s0-0.6,0-0.9c-0.1,0-0.1-0.2-0.1-0.2s0-0.1,0-0.2c-0.1-1.5-0.6-2.1-1.5-1.6v0.3
	C73.3,3.6,72.3,4.4,71.2,5.5z M71.101,8.2c0-0.2,0-0.4-0.1-0.5C71.3,7.1,71.8,6.5,72.2,6c0.801-0.8,1.5-1.5,2.301-2.1l0.1,0.1
	c0.199,0.2,0.299,0.3,0.299,0.4c0,0.3,0,0.6-0.199,1.1l0,0c-0.199,0.9-0.699,1.7-1.5,2.9c-0.199,0.4-0.5,1-0.6,1.6
	c-0.301-0.2-0.4-0.3-0.5-0.3c-0.201-0.2-0.4-0.2-0.5-0.3C71.399,9.2,71.3,9.1,71.2,9C71.101,8.8,71.101,8.5,71.101,8.2z M70.899,9.8
	L70.899,9.8c0.4,0.6,0.9,0.9,1.301,0.9c-0.301,1-0.5,2.2-0.5,3.5c-0.1,0.3-0.1,0.6-0.1,0.9c0,0.1,0,0.1,0,0.2c0,0.2,0,0.2,0.1,0.4
	c0,0.1,0,0.4,0,0.6c-0.5-0.1-0.801-0.1-1.199-0.1c-0.301-0.1-0.5-0.1-0.801-0.2h-0.1c-0.201-0.1-0.301-0.1-0.4-0.1
	c-0.699-0.2-1.199-0.5-1.5-0.9c0.301-1.6,0.9-3.1,1.699-4.7c0.201-0.5,0.602-0.9,0.801-1.5C70.2,9,70.399,9.4,70.899,9.8z
	 M51.3,10.5l0.301-0.1c0,0.3,0,0.8,0,1.1c0,0.2,0,0.3,0,0.5c0,0.4,0,1,0,1.5c0,0.3,0,0.7-0.1,1.2c0,0-0.102-0.1-0.201-0.2
	c-0.4-0.5-1.199-0.7-2-0.7c-1.3,0-2.6,0.4-3.8,1.2c0.1-0.4,0.2-0.8,0.4-1.2c0.2-0.9,0.3-1.8,0.4-2.6c0.2-0.5,0.4-0.7,0.7-1
	c0.3-0.5,0.7-0.8,1.1-1c0.5-0.4,1.1-0.5,1.8-0.5c0.701,0,1.201,0.2,1.3,0.7C51.2,9.7,51.2,10,51.3,10.5z M67.501,17.5
	c0-0.1,0-0.1,0-0.1c0-0.1,0-0.2,0-0.2c0-0.2,0-0.4,0.1-0.5c0-0.2,0-0.5,0-0.7c0.1,0.2,0.299,0.4,0.5,0.5c0,0,0.1,0,0.199,0.1
	c0.201,0.1,0.301,0.1,0.4,0.1c0,0,0.1,0,0.199,0.1c0.301,0,0.701,0.1,1.201,0.1s1.1-0.1,1.6-0.4c0.199,1.1,0.4,2.4,0.699,3.8
	c0.301,1,0.602,2,0.9,3.1c0,0.1,0,0.1,0,0.1c0.1,0,0.1,0.2,0.201,0.2c-1.5,1.3-2.602,1.8-3.301,1.8h-0.6v0.2v-0.2
	c-0.801-1.9-1.301-3.5-1.701-5C67.601,19.4,67.501,18.4,67.501,17.5z M94.501,69.3c0.398,0.1,0.699,0.2,1,0.3
	c-0.301,0.2-0.701,0.4-1,0.6c-1,0.7-2.4,1.6-4,3c-3.301,2.4-6.201,3.7-8.602,3.7c-0.299,0-0.398,0-0.699,0c-1.4-0.2-2.699-0.7-4-1.7
	c-0.1,0-0.199-0.2-0.301-0.2c0.102-0.1,0.201-0.3,0.201-0.3s0,0,0.1,0c2,0.2,3.199,0.3,3.4,0.3c0.299,0,0.5,0,0.6,0
	c0.801-0.3,1.4-0.8,1.801-1.8c0-0.4,0.1-0.5,0.1-0.8c0.199-1,0.4-1.6,0.5-1.9c0.4-1,1-2,1.6-2.7c0.4-0.3,0.6-0.6,0.9-0.8
	c0.299-0.3,0.5-0.5,0.799-0.6c0,0,0,0,0.102,0c0.1,0.1,0.299,0.3,0.6,0.4c0.5,0.3,0.9,0.6,1.4,0.8c0.299,0.1,0.898,0.4,1.299,0.6
	c0.1,0,0.201,0,0.301,0.1c0.299,0.1,1.199,0.4,3,0.7C93.899,69.1,94.2,69.2,94.501,69.3z M74.101,25.9c0.1,0.3,0.199,0.7,0.4,1.1
	c0.6,1.6,1,3.2,1.199,4.5l0,0c0.1,0.3,0.301,0.7,0.301,0.9c-0.301,0.2-0.602,0.4-0.9,0.8c-1,0.8-1.9,1.2-2.701,1.2l-0.6-0.3
	c-0.1-1.6-0.5-3.5-1.199-5.6c-0.301-0.8-0.5-1.5-0.801-2.3c0.201,0.1,0.301,0.2,0.5,0.2c0.5,0,1-0.2,1.701-0.5
	c0.299-0.2,0.699-0.5,1.1-0.9c0.199-0.1,0.5-0.3,0.6-0.5C73.899,25,74.001,25.4,74.101,25.9z M76.101,33c0,0.1,0,0.1,0,0.2
	c0.299,1.4,0.5,2.6,0.5,3.8c0,0,0,0,0,0.1s0,0.4,0,0.6c-0.1,1-0.201,1.8-0.4,2.8c0,0,0,0-0.1,0c-0.1,0.1-0.4,0.2-0.6,0.3
	c-0.701,0.5-1.301,0.7-1.602,0.7c-0.799,0-1.5,0-2-0.1c-0.398-0.2-0.799-0.3-1-0.4c-0.199-0.2-0.299-0.2-0.299-0.3
	c0.1-0.3,0.299-0.7,0.4-1c0.1-0.2,0.1-0.5,0.1-0.7c0.4-1,0.6-2.3,0.699-3.3c0-0.2,0-0.5,0-0.7c0.201,0.2,0.301,0.2,0.4,0.2
	s0.199,0,0.301,0h0.1l0,0c1.1-0.2,2-0.5,2.9-1.4c0.199-0.2,0.398-0.4,0.6-0.6C76.101,33.2,76.101,33.1,76.101,33z M76.101,41.4
	c-0.1,0.1-0.1,0.2-0.1,0.3c-0.4,0.9-0.701,1.8-1.201,3c-0.1,0.2-0.199,0.5-0.299,0.7c0,0.1-0.102,0.2-0.201,0.3
	c-0.299,0.5-0.799,1.3-1.4,2c-0.398,0.5-0.799,1-1.199,1.5c-0.6-0.2-1.1-0.5-1.5-0.8c-0.5-0.4-0.801-0.7-1.1-1.1
	c-0.9-0.9-1.4-1.8-1.4-2.6v-0.2c0.4-0.3,0.801-0.7,1.199-1.1c0.301-0.4,0.701-0.9,1-1.3c0-0.1,0-0.1,0.102-0.1
	c0.1-0.2,0.1-0.4,0.199-0.5c0.1,0,0.199,0,0.301,0.1c0.1,0.1,0.5,0.1,1,0.3C71.7,42,72.001,42,72.3,42c0.5,0.1,1,0.2,1.701,0.3
	c0.6,0,1.1-0.1,1.5-0.5C75.601,41.7,75.899,41.5,76.101,41.4z M56.399,46.2h0.102c0.6,0.6,1,1,1.299,1.3
	c-1.199,0.6-1.699,1.7-1.699,3.4c0,0.6,0.1,1.3,0.5,2.2c0.4,0.7,0.699,1.2,1.299,1.6c0.4,0.3,1,0.5,1.5,0.5h0.102
	c-0.102,0.1-0.102,0.2-0.102,0.3l0.102,1c0,0.2,0.1,0.3,0.299,0.5c0.201,0,0.301,0.2,0.301,0.4c-0.801,0.5-1,0.7-1.1,0.7l0.299,0.1
	c0.701-0.3,0.9-0.5,0.9-0.5c0.4-0.2,0.4-0.3,0.4-0.6c-0.201-0.6-0.4-1.1-0.4-1.2v-0.1c0-0.6,0.699-1.3,2-2
	c0.4-0.1,0.801-0.3,1.1-0.4c1.301-0.4,2.801-0.7,4.6-0.7c0.201,0,0.4,0,0.701,0.1l0,0c0,0,0,0,0.1,0c1.801,0.3,4.199,1.4,7,3.5
	c0.1,0.1,0.301,0.1,0.301,0.2c0.1,0,0.299,0.2,0.5,0.3c0.1,0.1,0.199,0.2,0.398,0.3c2.201,1.6,3.801,2.9,4.9,4.1
	c0.1,0,0.301,0.2,0.301,0.3c0.6,0.5,1.199,1.2,2,2c0.799,0.7,1.5,1.5,2.5,2.4c-1,0.6-1.9,1.4-2.6,2.5c-0.5,0.6-0.9,1.4-1.4,2.3
	c-0.301,0.8-0.5,1.3-0.801,1.8c-0.1,0.1-0.1,0.2-0.199,0.3c-0.5,0.9-1,1.4-1.4,1.4c-1.301-0.4-2.1-0.5-2.199-0.5
	c0,0-0.102,0-0.201,0.1c-0.1-0.1-0.1-0.1-0.1-0.2l-0.6-0.1c-0.5,0-0.801,0.3-0.801,1c-0.699-0.4-1.199-0.9-1.699-1.3
	c-0.1,0-0.301-0.2-0.4-0.2c-0.801-0.6-1.6-1.2-2.1-1.7c-0.801-0.5-1.201-0.8-1.6-1.1c-0.9-0.5-2.5-1.7-4.602-3.6
	c-1.898-1.6-3.5-2.8-4.799-3.5c-0.301,0-1,0.3-2,0.8c-0.1,0.1-0.301,0.1-0.5,0.3c-0.701,0.3-1.1,0.6-1.1,0.8l0,0l0.1,0.3l0.5,0.1
	l0,0c0.199-0.1,0.6-0.3,1.1-0.7c0.301-0.1,0.4-0.2,0.6-0.3l0.201,2c0.1,1.3,0.199,2.6,0.199,3.7c0,2.4-0.301,4.7-1,7
	c-0.301,1.4-0.9,2.6-1.5,3.9c-0.6,1.5-1.4,3-2.1,4.5c-0.301-0.6-0.6-1-1-1.5l0,0c-0.1-0.3-0.301-0.5-0.4-0.7
	c0.4-0.6,0.699-1.6,1.1-2.8c0-0.1,0-0.1,0.1-0.1c0.201-0.9,0.5-1.9,0.801-3.2c0.1-0.1,0.1-0.2,0.1-0.4c0.4-1.8,0.701-4.1,0.701-6.8
	c0-2-0.102-3.6-0.4-4.8c0-0.3-0.1-0.5-0.1-0.7c-0.301-0.8-0.602-1.5-1-2c-0.602-0.5-1.4-0.5-2.201,0c-0.1,0.1-0.199,0.2-0.299,0.3
	c-0.301,0.2-0.5,0.5-0.801,0.9c-1.1,1.2-2.1,3-2.9,5.3c-0.101,0.3-0.2,0.7-0.4,1c-0.4,1.5-0.8,2.8-1,4.2c-0.3,1.5-0.4,3-0.4,4.6l0,0
	c-0.5,0-1.1,0.1-1.6,0.2c2.7,0.5,5.101,2,7.101,4.5c-0.102,0.2-0.102,0.2-0.201,0.3l0.1,0.4l0.201,0.2c0.1,0,0.199-0.1,0.5-0.2
	c0.4,0.8,0.9,1.4,1.199,2.1c0.301,0.5,0.5,1.1,0.801,1.7c0.299,0.9,0.5,1.8,0.5,2.7c0,3.6-0.9,7-2.5,10c-1.1,2-3.301,5.8-6.701,11.5
	c-0.3,0.4-0.5,1-0.7,1.601c-0.3,0.899-0.5,2-0.7,3.2c0,0.199,0,0.399,0,0.5c-0.1,0.199-0.1,0.399-0.1,0.699
	c-0.3,2.5-0.5,4-0.8,4.601c-0.1,0.899-0.4,2.7-0.9,5.8c0,0.1,0,0.2-0.1,0.4c-0.9,2.8-2.6,4.3-5.3,4.3c-2.8,0-5-0.9-6.3-2.8
	c-0.1-0.101-0.1-0.101-0.1-0.2c-0.8-1.101-1.3-2.3-1.7-3.8c-0.3-1-0.6-2.601-0.8-4.5c-0.1-0.801-0.3-1.601-0.3-2.5
	c-0.1-1.5-0.2-2.7-0.3-3.801c-0.1,0-0.1-0.199-0.1-0.3c0-0.6-0.1-1-0.1-1.399c0-0.801-0.1-1.5-0.2-2c0.1,0,0.2,0,0.3,0
	c0.4,0,0.8-0.2,1-0.5c0.1,0,0.2,0,0.2,0c0.1,0,0.2,0,0.2,0c0,0.1,0,0.199,0,0.199c0,0.101,0,0.301-0.1,0.5c0,0.7-0.1,1.301-0.1,2
	c0,0.301,0,0.5,0,0.801c0,0.399,0,1.399,0.2,3c0,0.199,0,0.399,0,0.5c0.2,2,0.3,3,0.4,3.3c0.3,1.1,0.8,2.2,1.6,3.6
	c0.7,1,1.3,1.8,2,2.3C34.2,127.8,34.3,128,34.5,128c0.5,0.399,1.1,0.5,1.5,0.5c1.2,0,2.3-0.601,3.3-2C40,125.7,40.6,124.7,41,123.4
	c0.2-0.7,0.5-1.3,0.6-1.899c0.4-1.101,0.6-2.2,0.7-3.301c0.1-0.399,0.2-0.699,0.2-1c0.1-1.1,0.1-2.199,0.1-3.199
	c-0.1-0.801,0-2.101,0.3-3.601c0.1-0.7,0.2-1.3,0.3-1.8c0.1-0.8,0.3-1.4,0.3-1.9c0.1-0.9,0.6-2.3,1.6-4.4c0.8-1.9,1.2-2.8,1.2-2.9
	c0-0.1-0.1-0.2-0.2-0.2c0.1-0.3,0.2-0.5,0.4-0.7c0.1,0.1,0.1,0.1,0.1,0.1c0.3,0,0.4-0.4,0.4-1.1c0,0,0-0.1,0-0.3c0,0,0-0.1,0-0.2
	l0,0c0-0.2,0-0.3,0-0.3c-0.1-0.7-0.1-1.7-0.3-3.1c-0.1-0.1-0.1-0.2-0.1-0.3c-0.3-2.1-0.4-3.2-0.4-3.3c-0.1-0.8-0.4-1.5-0.8-1.9
	c-0.3-0.4-0.8-1-1.8-1.9c-0.4-0.4-1.4-0.9-2.9-1.5c-1.2-0.5-2.4-0.9-3.3-1c-0.4,0-0.8-0.1-1.1-0.1c-1.2,0-2.4,0.1-3.6,0.4
	c-1.1,0.3-2.1,0.7-3.1,1.2c0.3-0.2,0.6-0.5,0.9-0.8c1.1-1.5,2.3-3,3.3-4.7c2.2-3.7,3.6-8,4.2-12.5c0.2-2,0.3-3.8,0.3-5.7
	c0-0.4,0-0.7,0-1c-0.1-0.2-0.1-0.5-0.2-0.6c0.2-0.2,0.4-0.5,0.6-0.9c0.2-0.3,0.4-0.5,0.6-0.8c0-0.1,0-0.2,0.1-0.2
	c0.4-0.5,0.7-1,1-1.5c1.2-1.7,1.9-2.8,2.2-3.1c2.3-3,3.5-4.7,3.7-4.8c2.4-2.6,4.8-3.9,6.9-3.9c1,0,2,0.4,2.9,1.3
	C56.2,46,56.3,46.1,56.399,46.2z M60.899,48c0.201,0,0.602-0.2,0.801-0.2c0,0.1,0,0.2,0,0.4c0,0.3,0,0.6,0.1,1
	c0.1,0.5,0.301,1,0.6,1.5c0.301,0.7,0.9,1.1,1.701,1.5c-0.5,0-0.801,0.2-1,0.3c-1.801,0.5-2.9,1.2-3.4,2
	c-0.199-0.3-0.5-0.5-0.699-0.7c-0.5-0.4-0.9-0.8-1-1c-0.4-0.6-0.701-1.2-0.701-2C57.3,49.5,58.501,48.6,60.899,48z M62.601,48.2
	c0-0.3,0.1-0.5,0.1-0.7c1.6-0.7,3.1-1.4,4.4-2.4c0,0.1,0,0.1,0,0.1c0,0.3,0.1,0.8,0.4,1.3c0.199,0.3,0.5,0.7,0.799,1.2
	c0.301,0.5,0.801,0.9,1.1,1.3c0.602,0.4,1.201,0.6,1.801,0.7h-0.1c-1,1.1-1.701,1.9-2,2.3c-1.201-0.1-2.201-0.2-3.201-0.1
	c-0.199,0-0.199,0-0.299,0.1c-0.1,0-0.301,0-0.4,0c-0.699-0.5-1.301-1-1.801-1.6C62.8,49.7,62.601,49,62.601,48.2z M55.101,63.8
	l0.1,0.2l0.1-0.1c0,0.1,0,0.2,0.1,0.3C55.3,64.1,55.2,64,55.101,63.8z M52.101,64.9c0.6-0.5,1.1-0.7,1.6-0.7c0.4,0,0.9,0.5,1.1,1.3
	c0.4,0.9,0.6,2.5,0.701,4.6c0,2.6-0.201,4.5-0.4,5.7c0,0.2-0.1,0.5-0.1,0.9c-0.201,0.5-0.5,1.3-1,2.3c-0.701,1.5-1,2.4-1,2.5
	c0,0,0,0,0,0.1c-0.4-0.4-0.9-0.9-1.201-1.1c-0.199-0.2-0.299-0.3-0.5-0.4h0.201c0.5-0.5,0.799-1.2,1.199-2.1
	c0.301-0.7,0.5-1.3,0.5-1.8c0-0.2,0-0.2,0-0.4c0-0.1,0-0.1,0-0.2c0-0.4,0.1-1,0.301-1.6c0.1-0.6,0.1-1.3,0.1-2.1
	c0.1-2.5,0.1-3.9,0.1-4.1c-0.1-0.6-0.4-1.1-0.4-1.4c-0.1-0.4-0.1-0.5-0.1-0.7c-0.199-0.5-0.699-0.7-1.301-0.5
	C52.001,65.1,52.101,65,52.101,64.9z M52.001,65.8h0.6c0,0.2,0,0.6,0.1,0.9c0,0.5,0.1,1,0.199,1.5c0.102,0.6,0.201,1.2,0.201,1.6
	v0.1c0,0.1,0,0.2,0,0.3c0,0.2,0,0.3,0,0.4c0,0.6,0,1.4,0,2.1c-0.1,0.1-0.1,0.1-0.1,0.2c0,0.7-0.102,1.5-0.301,2.2
	c-0.1,0.3-0.199,0.6-0.199,0.9c-0.4,1-0.9,2.2-1.4,3.7v0.2c-0.9-0.5-1.901-0.9-3-1.1c0.2-1.3,0.5-2.6,0.8-3.8
	c0.2,0.1,0.601,0.2,1,0.2c0.101,0,0.201,0,0.201,0c0.6-0.1,1.199-0.7,1.5-1.5c0,0-0.1,0-0.301,0c-0.199,0-0.4-0.1-0.6-0.2
	c-0.199,0.4-0.6,0.7-1,0.7c-0.199,0-0.5-0.2-0.6-0.4c0.2-0.8,0.4-1.7,0.6-2.6c0.101-0.4,0.2-0.8,0.401-1.2c0,0,0.1,0.2,0.199,0.2
	c0,0,0,0,0.1,0c0.102-0.6,0.201-1,0.5-1.2c-0.299,0-0.398,0-0.6,0c0.1-0.3,0.201-0.6,0.301-1c0.1-0.5,0.4-1,0.5-1.4
	C51.501,66.2,51.8,66,52.001,65.8z M83.7,112.5c0.1,0,0.199-0.101,0.301-0.2c0,0.1,0.1,0.2,0.199,0.399
	c0,0.101,0.199,0.301,0.4,0.301c0,0,0.1,0,0.299,0c0.301,0,0.701-0.2,0.9-0.5c0,0.5,0.301,0.899,1,0.899c0.1,0,0.201-0.2,0.4-0.3
	s0.4-0.3,0.9-0.3c0,0,0.4,0.7,1,1.899c0.5,1.101,0.9,2,1.199,2.801c0.701,1.699,1.201,3.199,1.4,4.5c0,0.1,0,0.1,0,0.199
	c0.1,0,0.1,0.101,0.1,0.2c0.1,0.3,0.201,0.8,0.301,1.3c0,0.301,0.1,0.601,0.1,0.9c0,0.1,0,0.1,0.1,0.2c0.1,0.2,0.1,0.3,0.201,0.399
	c0,0.5,0.1,1,0.1,1.301c0.1,0.3,0.1,0.5,0.1,0.699c0,0.4,0,0.801,0,1.5c0,0.301,0,0.7,0,1c0,0.101,0,0.2,0.1,0.301
	c-0.199-0.601-0.4-1.101-0.6-1.5c-0.199-0.7-0.5-1.2-0.801-1.5c-0.299-0.5-0.398-0.801-0.6-1.301c-0.299-0.3-0.5-0.699-0.699-1
	c-0.701-1.199-1.4-2-1.9-2.699c-1.9-1.601-3.6-2.5-5.1-2.7c-1.201-0.101-2.201,0.1-3.1,0.7c-0.4,0.3-1.4,1.1-3.102,2.5
	c-0.1,0-0.1,0-0.199,0.1c0.301-0.4,0.5-0.7,0.699-1c0.801-1.2,1.5-2.2,1.9-3.1c0.1-0.101,0.201-0.2,0.301-0.301
	c0-0.199,0.1-0.5,0.299-0.699c0.201-0.801,0.5-1.601,0.701-2.5c0.199-1,0.4-1.801,0.5-2.4c0.1-0.4,0.1-0.8,0.199-1v0.1
	c0,0.301,0.1,0.601,0.201,0.801c0.1,0.5,0.6,0.699,1.1,0.699C82.899,113.2,83.2,113,83.7,112.5z M77.899,163.9L77.899,163.9
	l-0.299,1.9c0,0.5,0,1,0.1,1.6c0,0.5,0,1,0.1,1.601c0.1,0.6,0.201,1.199,0.201,1.699c0.1,0.2,0.1,0.5,0.1,0.7
	c0.1,1.101,0.5,2.3,0.799,3.4c0.701,2.7,1.701,5,3,6.5c-0.199,0.2-0.398,0.5-0.6,1.1c-0.1,0.101-0.199,0.4-0.299,0.8
	c-0.102,0.601-0.4,1.301-0.701,2.301c0,0.3-0.199,0.5-0.199,0.8c0,0.1,0,0.3-0.1,0.5c-0.301,1-0.5,2-0.801,3
	c-0.1,0.7-0.199,1.399-0.301,2.1c-0.1,0.601-0.199,1.101-0.299,1.8c-0.4,2.5-0.6,4.101-0.701,4.601c-0.199,1.3-0.299,2.5-0.398,3.5
	c0,0.2,0,0.5,0,0.6c0,0.9-0.102,1.601-0.102,2.3c0,1.301,0.201,2.5,0.5,3.4c-0.199,0.2-0.299,0.4-0.398,0.8
	c-0.301,0.601-0.4,1.3-0.4,1.9c-0.1,0.2-0.4,0.899-0.9,1.899c0,0,0,0.101-0.1,0.2c-0.201-0.1-0.9-0.2-1.801-0.5
	c-0.299-0.2-0.6-0.2-0.799-0.2c0.1-0.399,0.1-0.8,0.1-1.3c0-0.1-0.4-2.2-1-6.2c0-0.199,0-0.3,0-0.399c-0.201-0.5-0.301-1-0.301-1.5
	c-0.4-3-0.699-5-0.699-6c0-0.4,0-0.9,0.1-1.4c0.1-0.6,0.199-1.2,0.4-1.899c0.1-0.7,0.199-1.4,0.199-1.9c0.1-0.4,0.1-0.7,0.201-1
	c1.199-0.2,1.799-1.6,1.799-4l-0.199-1.8c-0.1-0.3-0.201-0.4-0.4-0.5c-0.1-0.2-0.1-0.3-0.199-0.3c0.1-0.101,0.199-0.301,0.199-0.601
	c0-0.2-0.1-0.5-0.199-0.6c0.6-2.3,1.199-4.7,1.699-7.3c0.301-1.301,0.4-2.5,0.6-3.601c0-0.1,0-0.399,0.1-0.5
	c0.102-0.7,0.201-1.3,0.201-1.899c0-0.7,0-1.5,0-2.101c0-1.1,0-2,0-3C76.601,164.4,77.101,164.2,77.899,163.9z M58.501,213.6
	L58.501,213.6c-0.201,0.2-0.4,0.6-0.5,0.9c0,0.3-0.102,0.699-0.4,1c-0.1,0.399-0.4,0.8-0.5,0.899c-0.801,0.5-1.9,0.7-3.5,0.7
	c-0.9,0-2-0.2-3.4-0.6c-0.3-0.101-0.6-0.101-0.9-0.2c-0.7-0.3-1.3-0.5-1.8-0.7s-0.9-0.4-1.2-0.6c0.5-0.601,0.9-1.2,1.4-1.601
	c1.5-2.1,2.4-3.399,2.6-4c0.301,0.3,0.801,0.601,1.4,1c0.4,0.4,0.801,0.601,1.301,0.9c0,0,0.1,0,0.1,0.1c0.1,0,0.1,0,0.1,0.101
	c0.1,0,0.301,0,0.301,0.1C55.601,212.9,57.3,213.6,58.501,213.6z M78.601,209.6c0.299,0.4,0.6,0.7,1,1c0.9,0.6,2,0.9,3.5,0.9
	c-0.4,0.6-0.5,1.6-0.801,3c-0.199,0.899-1.1,1.399-2.699,1.399c-0.201,0-0.5,0-0.6,0c-0.4-0.1-0.9-0.399-1.4-0.6
	c-0.5-0.4-0.801-0.601-0.801-0.8C77.601,212.4,78.2,210.8,78.601,209.6z M43.5,2.1c0.1-0.1,0.2-0.3,0.4-0.4c0.3-0.3,0.6-0.6,0.7-0.9
	c1.7,1,3.1,2.2,4.3,3.6c0.3,0.4,0.7,1,1.101,1.5c0.199,0.3,0.398,0.8,0.6,1.1c0.1,0.2,0.299,0.5,0.4,0.7C50.3,7.6,49.6,7.7,48.6,8
	c-0.1,0-0.4,0.2-0.5,0.2c-0.9,0.3-1.4,0.6-1.9,1c-0.1-1.1-0.4-2.2-1-3.5C45.1,5.5,45,5.4,45,5.2C44,3.4,43.5,2.4,43.5,2.1z
	 M49.2,14.8c0.801,0,1.401,0.2,1.801,0.7c0.1,0.2,0.199,0.3,0.299,0.4c-0.199,1.8-0.799,3.7-1.5,5.5c-0.2,0.6-0.601,1.3-0.9,1.9
	c-0.3-1.3-1.8-2.1-4-2.3c-0.8,0-1.5,0-2,0.2c0.7-1.4,1.3-2.7,1.8-4c0.4-0.4,0.7-0.7,1.1-1c0.4-0.4,1-0.7,1.5-0.9
	c0.2-0.1,0.3-0.1,0.5-0.2C48.3,15,48.7,14.8,49.2,14.8z M42,22.8c0.3-0.3,0.9-0.6,1.6-0.6c0,0,0.1,0,0.3,0c0.1,0,0.1,0,0.2,0
	c1.7,0,3,0.3,3.8,1c0.2,0.3,0.5,0.5,0.7,0.8c-0.1,0-0.1,0.2-0.2,0.3c-0.2,0.2-0.3,0.4-0.4,0.7c-0.2,0.2-0.4,0.4-0.5,0.7
	c-0.6,0.8-1.1,1.7-1.5,2.4c-0.1,0.3-0.3,0.6-0.5,0.9c0,0.2-0.2,0.2-0.2,0.4c-0.1,0-0.1-0.2-0.1-0.2c-0.1-0.4-0.2-0.7-0.5-1.1
	c-0.3-0.5-0.6-0.9-1.1-1.2c-0.1-0.1-0.2-0.1-0.3-0.2c-0.5-0.2-1-0.4-1.6-0.4c-0.4,0-0.8,0.1-1.1,0.2c-0.4,0-0.7,0.2-1,0.3
	c0.1-0.3,0.3-0.6,0.5-0.8C40.7,24.9,41.5,23.8,42,22.8z M41.1,27.4c0.3,0,0.6,0,0.9,0c0.1,0.1,0.2,0.1,0.3,0.1
	c1,0.2,1.7,0.8,1.9,1.7c0.1,0.2,0.1,0.3,0.2,0.5c0.2,0.4,0.2,0.7,0.4,0.9c-0.2,0.4-0.3,0.8-0.5,1.2c-0.1,0.2-0.2,0.6-0.3,0.9
	c-0.3-0.3-0.5-0.5-0.8-0.7c-0.2-0.3-0.6-0.5-0.9-0.7c-1-0.5-2.1-0.5-3.3,0.1c-1,0.4-2.1,1.1-3.1,1.9c0.6-1.2,1.2-2.5,2.1-3.8l0,0
	c0.1-0.3,0.3-0.6,0.5-0.8c0.1-0.2,0.5-0.4,0.8-0.7c0.2,0,0.4-0.2,0.6-0.2C40.5,27.5,40.9,27.4,41.1,27.4z M41.1,32
	c0.1,0,0.2,0,0.4,0c0.5,0.2,1.1,0.7,1.6,1.5c0.1,0.2,0.4,0.5,0.5,0.7c-0.1,0.6-0.2,1.2-0.3,1.6v0.1c0,0.4-0.1,0.8-0.1,1.1
	c-0.3-0.1-0.8-0.2-1.3-0.2c-0.3,0-0.7,0-0.9,0.1c-2,0.2-3.8,1.1-5.2,2.8c-0.1,0.1-0.2,0.2-0.2,0.3c-1,1.1-1.5,2.2-1.7,3
	c-0.1-0.6-0.2-1.2-0.2-1.8c0-0.5,0.1-1.1,0.2-1.7c0.2-1,0.4-2,0.8-3.1c0.4-0.7,0.9-1.4,1.9-2.2c0.3-0.4,0.6-0.6,1-0.9
	c0-0.1,0.1-0.1,0.4-0.2C39,32.3,40.1,32,41.1,32z M35.7,42.2c0.2-0.5,0.5-0.7,0.8-1.2c1.5-2,3.2-3,5.2-3c0.5,0,1,0.2,1.7,0.7
	c0.1,0.3,0.1,0.8,0.2,1.1c0,0.7,0.1,1,0.3,1.4c0,0.1,0,0.2,0,0.2s0,0,0.1,0.1c0,0.2,0,0.3,0.1,0.5v0.2c0.2,0.3,0.4,0.9,0.7,1.6
	l-0.1-0.1c-0.4-0.3-1-0.5-1.7-0.5c-0.4,0-0.7,0.1-1,0.2c-1.6,0.2-3.1,1.1-4.5,2.6c-1,1-1.8,1.9-2,2.7c-0.2-0.3-0.4-0.7-0.5-1
	c0-0.1,0-0.2-0.1-0.2c0-0.1,0-0.1,0-0.2c-0.1-0.2-0.2-0.3-0.3-0.5c-0.1-0.6-0.4-1.2-0.5-1.8l0,0l0.5-0.1c0-0.8,0.4-1.7,1-2.7
	C35.7,42.2,35.7,42.2,35.7,42.2z M8.2,54.4c0.5,0,0.9,0.1,1.4,0.2c-0.5,0.4-0.7,0.8-0.7,1.1c0,0.8,0.3,1.8,1.1,3.3l0.3,0.5l1.3,2.7
	c0,0.2,0.1,0.5,0.4,0.8c0.1,0.5,0.2,1,0.4,1.6c0.1,0.4,0.2,0.8,0.3,1.2c0.4,0.7,0.9,1.4,1.4,1.7c-0.1,0-0.1,0-0.1,0
	c-1.7,0-3.2-0.2-4.4-0.8c-0.5-0.1-0.9-0.3-1.3-0.6c-0.5-0.4-1-0.9-1.4-1.3c-1.2-2.1-1.8-3.3-2.2-3.7c-0.1-0.4-0.4-0.9-0.7-1.7
	c0-0.2,0-0.2,0-0.2c-0.3-1-0.7-1.5-1-2c-0.4-0.5-0.9-1.2-1.3-2c-0.5-0.8-0.7-1.5-0.7-2c0-0.1,0.1-0.2,0.2-0.5
	c0.3-0.2,0.5-0.4,0.9-0.4l0.7,0.1c0-0.2,0-0.3,0-0.4c0.2,0,0.3,0.2,0.7,0.3c0.8,0.5,1.6,0.9,2.2,1.1L8.2,54.4z M35.8,62.8
	c0.4-0.3,0.9-0.4,1.4-0.4c0,2.1,0,3.3-0.1,3.4c0,0.2,0,0.2,0,0.4c-0.1,1.9-0.6,3.9-1.3,6.1c-0.2,0.9-0.8,2.2-1.6,3.7
	c-0.1,0-0.1,0-0.2,0c0.6-1.5,1.1-2.5,1.3-3c0.4-1.3,0.7-2.9,0.7-4.6c0-0.7-0.1-1.7-0.4-2.8c0-0.1-0.1-0.6-0.6-1.4
	c-0.1-0.2-0.2-0.3-0.4-0.4l0,0c0-0.1,0-0.1,0.1-0.1C35,63.3,35.4,63,35.8,62.8z M37.2,61.6h-0.1c-0.2,0.1-0.3,0.1-0.5,0.1
	c0.2-0.2,0.5-0.5,0.7-0.7c-0.1,0.2-0.1,0.4-0.1,0.5C37.2,61.5,37.2,61.5,37.2,61.6z M35.2,68c0,0.1,0,0.2,0,0.4
	c0,1.1-0.2,2.3-0.6,3.7c0,0,0,0,0,0.1c-0.1,0.6-0.5,1.3-0.7,2c-0.3,0.8-0.6,1.3-0.7,1.8c-0.5,0-1,0.2-1.3,0.4
	c-0.2,0-0.3-0.1-0.3-0.1c-0.2,0-0.3-0.1-0.3-0.2c0-0.2,0.1-0.9,0.3-1.9c0.3,0.1,0.6,0.2,1,0.2c0.7,0,1.2-0.8,1.5-2.4
	c0.1-0.3,0.2-0.7,0.2-1c0,0.1-0.1,0.2-0.2,0.2c-0.2,0.3-0.4,0.3-0.6,0.3h-0.1c-0.1,0.2-0.2,0.3-0.2,0.5c-0.2,0.7-0.4,1.2-0.7,1.5
	l-0.4-0.1c0.6-1.7,1-3,1.1-3.9C33,69.3,33,69,33,68.7c0-0.7,0.2-1.1,0.7-1.2c-0.1-0.1-0.2-0.1-0.3,0c-0.2,0-0.3,0-0.3,0
	c0.1-0.8,0.4-1.5,0.6-2.3c0.2-0.2,0.3-0.4,0.4-0.5c0,0.1,0.2,0.4,0.4,0.8C34.9,66.3,35.1,67.2,35.2,68z M32.6,77.6
	c0,0.1-0.1,0.2-0.1,0.3c0,0.1,0,0.1,0.1,0.2H33c0.1-0.4,0.2-0.7,0.4-1c0.2-0.1,0.3-0.1,0.4-0.2c-0.6,0.9-1.1,2-1.7,3.2
	c-0.8,1.3-1.4,2.3-1.8,3.1c-0.7,1.3-1.2,1.9-1.2,2s0,0.2,0.1,0.2s0.1,0,0.1,0c-0.1,0.1-0.2,0.1-0.2,0.1c-0.6,0.4-1.3,0.8-1.9,1.2
	c0-0.2,0.1-0.4,0.2-0.6c0.2-0.5,0.3-1.1,0.5-1.8c0.2-1.3,0.5-2.2,0.7-2.8c0.2-0.8,0.9-1.7,1.9-2.7C30.6,78.7,31.3,78.2,32.6,77.6
	L32.6,77.6z M36.2,84.5c0.3,0,0.5,0,0.8,0c2.2,0.2,4.1,1.1,5.9,2.8c1.4,1.4,2.2,2.7,2.3,3.7c0.1,0.6,0.2,1.8,0.4,3.7
	c0,0.3,0,0.5,0,0.8c0.1,1,0.3,1.7,0.4,2.2c-0.7,0.8-1.4,1.8-1.9,3.1c-1.2,2.4-1.9,3.9-2.1,4.2c-1.1,1.9-2.4,3.2-3.7,4.1
	c-0.7,0.5-1.7,0.9-3,1.4c-0.6,0.1-1.3,0.199-2,0.199c-0.6,0.101-1.3,0.101-2,0.101c-0.1,0-0.2,0-0.2,0c-0.5-0.101-0.8-0.101-1,0
	c0-0.101,0-0.3,0-0.4c-0.5-2.7-0.8-4.7-0.8-5.9c0-1,0.1-1.7,0.2-2c0.1-0.8,0.5-1.5,1.2-2.2c0.6-0.6,1.7-1.3,3.4-2.1
	c1.8-1,3.2-1.4,4.1-1.4c0.3,0,0.8,0.4,1.2,1.1c0.5,0.7,1,1,1.6,1c0.2,0,0.5-0.1,0.6-0.1c0.3-0.1,0.4-0.3,0.6-0.6
	c0.1-0.2,0.1-0.5,0.2-0.7c0.1-0.3,0.1-0.8,0.1-1.7c0-1.2-0.4-2.6-1.3-4.4c-1.1-2.4-2.3-2.6-3.7-0.5c-0.4,0.6-1.8,1.8-4.2,3.6
	c-2.7,2.2-4.8,3.2-6.2,3.2c-0.6,0-1.5-0.2-2.5-0.5h-0.1c-0.9-0.4-1.5-0.6-1.8-0.8c-0.3-0.4-0.7-0.7-1-1.1c0-0.1,0-0.1,0-0.1
	c-0.1-0.1-0.1-0.2-0.1-0.2c0-0.1,0-0.2,0-0.2c0.2-0.3,0.4-0.6,0.5-0.8c0.8-1.5,1.6-2.7,2.4-3.6c0.2-0.3,0.5-0.5,0.6-0.7
	c1.3-1.3,2.5-2.3,3.2-2.9c1.2-0.6,2.3-1.2,3.4-1.6C33.2,84.7,34.7,84.5,36.2,84.5z M40.1,96.5c-0.4-0.5-1-0.7-1.9-0.7
	c-0.6,0-2,0.5-4.2,1.6c-2,0.9-3.3,1.6-3.8,2c-0.9,0.6-1.5,1.4-1.7,2.4c0,0.4-0.1,1.3-0.1,2.7c0,1.3,0.2,3.2,0.6,5.5c0,0,0,0.2,0,0.5
	l0,0c-0.1,0.199-0.2,0.3-0.4,0.3s-0.5,0-0.9-0.101c-0.1,0-0.3-0.1-0.4-0.1v-0.1c-0.1-1-0.2-1.8-0.2-2.4c0-0.4,0-0.7,0-1
	c0.1-0.5,0-1.1-0.1-1.8c-0.3-0.9-0.4-1.5-0.4-1.8c-0.1-1.3-0.7-2.3-1.9-3.1c-0.3-0.2-0.6-0.4-1.1-0.7c-0.2,0-0.4-0.1-0.6-0.2
	c-1.5-0.7-2.3-1.5-2.3-2.5c0-0.2,0.1-0.5,0.4-0.8c0-0.1,0-0.1,0-0.2c0.3,0.4,0.6,0.7,1.1,1c0,0.1,0.2,0.2,0.3,0.2
	c0.6,0.5,1.3,0.8,2.1,1.2c0.9,0.3,1.8,0.4,2.8,0.4c1.8,0,4.3-1.3,7.6-4l4.3-4.1c0.4,0,0.8,0.8,1.3,2.5c0.5,1.3,0.8,2.3,0.8,2.5
	c0,0.6,0,1-0.1,1c-0.1,0.3-0.3,0.7-0.7,0.9C40.4,97.2,40.2,96.8,40.1,96.5z M21.7,100.1c0.6,0.1,1.2,0.3,1.8,0.5
	c0.6,0.4,1,0.8,1.5,1.4c0.3,0.6,0.6,1.2,0.9,2c0.2,0.7,0.3,1.7,0.4,2.7c0,0.9,0.1,1.9,0.1,3c0,0,0,0.3-0.1,0.9
	c-0.1,0.6-0.2,0.9-0.6,0.9c-1.2,0-2.4-1-3.5-2.7c-0.9-1.4-1.2-2.5-1.2-3.3c0-0.3,0.1-1.1,0.2-2.2c0.1-1.1,0.3-1.8,0.3-2.3l-0.2-1
	C21.5,100,21.6,100,21.7,100.1z M43.2,105c-0.6,1.5-0.8,2.7-0.8,3.5c0,0-0.1,0.5-0.1,1.2c-0.1,1.3-0.3,3.8-0.6,7.4
	c0,0.3,0,0.6-0.1,0.9c0,0.5-0.1,0.8-0.1,1.199c-0.3,1.2-0.5,2.301-0.9,3.2c-0.5,1.601-1.1,3-2,3.8c-0.6,0.801-1.5,1.2-2.5,1.2
	c-0.3,0-0.5,0-0.8-0.2c-0.2,0-0.4-0.199-0.6-0.3c-0.6-0.5-1.1-1.2-1.7-2.2l0,0c-0.1-0.3-0.3-0.5-0.5-0.8c-0.4-0.899-0.8-1.7-1.1-2.5
	c-0.1-0.2-0.1-0.399-0.1-0.6c-0.1-0.3-0.1-0.8-0.2-1.3c0-0.4,0-0.801-0.1-1.2c-0.3-1.8-0.4-2.9-0.4-3.3
	c0.1-0.601,0.1-1.101,0.1-1.601c0-0.1,0-0.2,0-0.2c0-0.3,0-0.6,0-0.8c0-0.399-0.1-0.7-0.1-0.8c0.3,0.1,0.8,0.1,1.7,0.1
	c0.2,0,0.4,0,0.6,0l0,0c2.7-0.399,4.6-0.899,5.5-1.399c0.8-0.7,1.5-1.3,2-1.8C41.3,107.8,42.2,106.6,43.2,105z"/>
<path fill="#FAAC34" d="M71.001,7.7c0.1,0.1,0.1,0.3,0.1,0.5c0,0.3,0,0.6,0.1,0.8c0.1,0.1,0.199,0.2,0.4,0.4
	c0.1-0.6,0.299-1.2,0.6-1.7c0.5-0.7,1.301-1.4,2.5-2.2l0,0c0.199-0.5,0.199-0.8,0.199-1.1c0-0.1-0.1-0.2-0.299-0.4l-0.1-0.1
	C73.7,4.5,73.001,5.2,72.2,6C71.8,6.5,71.3,7.1,71.001,7.7z"/>
<path fill="#FFCA05" d="M71.601,9.4c0.1,0.1,0.299,0.1,0.5,0.3c0.1,0,0.199,0.1,0.5,0.3c0.1-0.6,0.4-1.2,0.6-1.6
	c0.801-1.2,1.301-2,1.5-2.9c-1.199,0.8-2,1.5-2.5,2.2C71.899,8.2,71.7,8.8,71.601,9.4z"/>
<path fill="#FAAC34" d="M70.899,9.8L70.899,9.8c-0.5-0.4-0.699-0.8-0.699-1c-0.199,0.6-0.6,1-0.801,1.5
	c-0.799,1.6-1.398,3.1-1.699,4.7c0.301,0.4,0.801,0.7,1.5,0.9c0.1,0,0.199,0,0.4,0.1h0.1c0,0,0,0,0-0.1c-0.1-0.1-0.1-0.2-0.199-0.2
	C69.3,15.5,69.2,15.4,69.2,15.2c-0.1-0.1-0.1-0.3-0.1-0.6c0-0.6,0.299-1.6,0.9-2.9C70.3,10.8,70.601,10.3,70.899,9.8z"/>
<path fill="#FFCA05" d="M72.2,10.7c-0.4,0-0.9-0.3-1.301-0.9c-0.299,0.5-0.6,1-0.898,1.9c-0.602,1.3-0.9,2.3-0.9,2.9
	c0,0.3,0,0.5,0.1,0.6c0,0.2,0.1,0.3,0.301,0.5c0.1,0,0.1,0.1,0.199,0.2c0,0.1,0,0.1,0,0.1c0.301,0.1,0.5,0.1,0.801,0.2
	c0.398,0,0.699,0,1.199,0.1c0-0.2,0-0.5,0-0.6c-0.1-0.2-0.1-0.2-0.1-0.4c0-0.1,0-0.1,0-0.2c0-0.3,0-0.6,0.1-0.9
	C71.7,12.9,71.899,11.7,72.2,10.7z"/>
<path fill="#FFCA05" d="M51.601,10.4L51.3,10.5c-0.1-0.5-0.1-0.8-0.1-1.1c-0.1-0.5-0.6-0.7-1.3-0.7c-0.7,0-1.3,0.1-1.8,0.5
	c0,0.2-0.1,0.3-0.1,0.5c-0.3,0.5-0.4,0.9-0.4,1c0,0.8,0.7,1.4,1.9,2c0.1,0,0.3,0.1,0.5,0.2c0.6,0.3,1.1,0.4,1.6,0.6
	c0-0.5,0-1.1,0-1.5c0-0.2,0-0.3,0-0.5C51.601,11.2,51.601,10.7,51.601,10.4z"/>
<path fill="#FAAC34" d="M51.501,14.7c0.1-0.5,0.1-0.9,0.1-1.2c-0.5-0.2-1-0.3-1.6-0.6c-0.201-0.1-0.401-0.2-0.5-0.2
	c-1.2-0.6-1.9-1.2-1.9-2c0-0.1,0.1-0.5,0.4-1c0-0.2,0.1-0.3,0.1-0.5c-0.4,0.2-0.8,0.5-1.1,1c-0.3,0.3-0.5,0.5-0.7,1
	c-0.1,0.8-0.2,1.7-0.4,2.6c-0.2,0.4-0.3,0.8-0.4,1.2c1.2-0.8,2.5-1.2,3.8-1.2c0.8,0,1.599,0.2,2,0.7
	C51.399,14.6,51.501,14.7,51.501,14.7z"/>
<path fill="#FAAC34" d="M67.501,17.4c0,0,0,0,0,0.1c0,0.9,0.1,1.9,0.398,3c0.4,1.5,0.9,3.1,1.701,5v0.2v-0.2h0.6
	c0.699,0,1.801-0.5,3.301-1.8c-0.102,0-0.102-0.2-0.201-0.2c0,0,0,0,0-0.1c-0.199,0.1-0.4,0.1-0.6,0.1c-0.4,0.2-0.6,0.2-0.699,0.2
	c-1.102,0-1.9-0.8-2.4-2.3c0-0.1-0.1-0.4-0.201-0.9c-0.1-0.8-0.299-2-0.5-3.7c-0.1-0.1-0.199-0.1-0.199-0.1c-0.1,0-0.199,0-0.4-0.1
	c-0.1-0.1-0.199-0.1-0.199-0.1c-0.201-0.1-0.4-0.3-0.5-0.5c0,0.2,0,0.5,0,0.7c-0.1,0.1-0.1,0.3-0.1,0.5
	C67.501,17.2,67.501,17.3,67.501,17.4z"/>
<path fill="#FFCA05" d="M71.7,16.5c-0.5,0.3-1.1,0.4-1.6,0.4s-0.9-0.1-1.201-0.1c0.201,1.7,0.4,2.9,0.5,3.7
	c0.102,0.5,0.201,0.8,0.201,0.9c0.5,1.5,1.299,2.3,2.4,2.3c0.1,0,0.299,0,0.699-0.2c0.199,0,0.4,0,0.6-0.1
	c-0.299-1.1-0.6-2.1-0.9-3.1C72.101,18.9,71.899,17.6,71.7,16.5z"/>
<path fill="#766658" d="M95.501,69.6c-0.301-0.1-0.602-0.2-1-0.3c-0.301-0.1-0.602-0.2-0.9-0.3c-1.801-0.3-2.701-0.6-3-0.7
	c-0.1-0.1-0.201-0.1-0.301-0.1c-0.4-0.2-1-0.5-1.299-0.6L88.8,68.2c-1.299,1.6-2.4,2.6-3.199,3.2c-0.701,0.4-1.6,0.8-2.5,1
	c0,0.3-0.1,0.4-0.1,0.8c-0.4,1-1,1.5-1.801,1.8c-0.1,0-0.301,0-0.6,0c-0.201,0-1.4-0.1-3.4-0.3c-0.1,0-0.1,0-0.1,0
	s-0.1,0.2-0.201,0.3c0.102,0,0.201,0.2,0.301,0.2c1.301,1,2.6,1.5,4,1.7c0.301,0,0.4,0,0.699,0c2.4,0,5.301-1.3,8.602-3.7
	c1.6-1.4,3-2.3,4-3C94.8,70,95.2,69.8,95.501,69.6z"/>
<path fill="#997B5F" d="M86.101,67c-0.301,0.2-0.5,0.5-0.9,0.8c-0.6,0.7-1.199,1.7-1.6,2.7c-0.1,0.3-0.301,0.9-0.5,1.9
	c0.9-0.2,1.799-0.6,2.5-1c0.799-0.6,1.9-1.6,3.199-3.2l0.201-0.6c-0.5-0.2-0.9-0.5-1.4-0.8c-0.301-0.1-0.5-0.3-0.6-0.4
	c-0.102,0-0.102,0-0.102,0C86.601,66.5,86.399,66.7,86.101,67z"/>
<path fill="#FFCA05" d="M74.501,27c-0.201-0.4-0.301-0.8-0.4-1.1c-0.1-0.5-0.201-0.9-0.4-1.4c-0.1,0.2-0.4,0.4-0.6,0.5
	c-0.4,0.4-0.801,0.7-1.1,0.9c0,0.6,0.1,1.2,0.1,1.9c0,0.7,0,1.4,0,2.2c0.299,1.1,1.199,1.7,2.9,1.7l0.699-0.2
	C75.501,30.2,75.101,28.6,74.501,27z"/>
<path fill="#FAAC34" d="M75.7,31.5L75.7,31.5l-0.699,0.2c-1.701,0-2.602-0.6-2.9-1.7c0-0.8,0-1.5,0-2.2c0-0.7-0.1-1.3-0.1-1.9
	C71.3,26.2,70.8,26.4,70.3,26.4c-0.199,0-0.299-0.1-0.5-0.2c0.301,0.8,0.5,1.5,0.801,2.3c0.699,2.1,1.1,4,1.199,5.6l0.6,0.3
	c0.801,0,1.701-0.4,2.701-1.2c0.299-0.4,0.6-0.6,0.9-0.8C76.001,32.2,75.8,31.8,75.7,31.5z"/>
<path fill="#FFCA05" d="M76.101,33.2c0-0.1,0-0.1,0-0.2C76.101,33.1,76.101,33.2,76.101,33.2c-0.201,0.2-0.4,0.4-0.6,0.6
	c-0.9,0.9-1.801,1.2-2.9,1.4l0,0h-0.1c0,0,0,0,0.1,0c0,0.1,0,0.1,0,0.2c0,0.1-0.201,0.8-0.5,1.8c-0.4,1-0.6,1.6-0.6,1.9
	c0,0.1,0.1,0.2,0.1,0.4c0.299,0.2,1,0.5,2,0.7c0.799,0.2,1.6,0.3,2.5,0.3c0.1,0,0.1,0,0.1,0c0.199-1,0.301-1.8,0.4-2.8
	c0-0.2,0-0.5,0-0.6s0-0.1,0-0.1C76.601,35.8,76.399,34.6,76.101,33.2z"/>
<path fill="#FAAC34" d="M75.501,40.8c0.199-0.1,0.5-0.2,0.6-0.3c-0.9,0-1.701-0.1-2.5-0.3c-1-0.2-1.701-0.5-2-0.7
	c0-0.2-0.1-0.3-0.1-0.4c0-0.3,0.199-0.9,0.6-1.9c0.299-1,0.5-1.7,0.5-1.8c0-0.1,0-0.1,0-0.2c-0.1,0-0.1,0-0.1,0
	c-0.102,0-0.201,0-0.301,0s-0.199,0-0.4-0.2c0,0.2,0,0.5,0,0.7c-0.1,1-0.299,2.3-0.699,3.3c0,0.2,0,0.5-0.1,0.7
	c-0.102,0.3-0.301,0.7-0.4,1c0,0.1,0.1,0.1,0.299,0.3c0.201,0.1,0.602,0.2,1,0.4c0.5,0.1,1.201,0.1,2,0.1
	C74.2,41.5,74.8,41.3,75.501,40.8z"/>
<path fill="#FFCA05" d="M76.001,41.7c0-0.1,0-0.2,0.1-0.3c-0.201,0.1-0.5,0.3-0.6,0.4c-0.4,0.4-0.9,0.5-1.5,0.5
	C73.3,42.2,72.8,42.1,72.3,42c-0.299,0-0.6,0-0.799-0.1c0,0.1,0,0.1-0.102,0.2c-0.199,0.1-0.299,0.4-0.5,0.6
	c-0.1,0-0.299,0.2-0.299,0.3c-0.6,0.7-1,1.2-1,1.4c0,0.1,0.6,0.8,1.699,1.8c0.301,0.3,0.6,0.6,0.801,0.8
	c0.199,0.3,0.5,0.5,0.799,0.7c0.602-0.7,1.102-1.5,1.4-2c0.1-0.1,0.201-0.2,0.201-0.3c0.1-0.2,0.199-0.5,0.299-0.7
	C75.3,43.5,75.601,42.6,76.001,41.7z"/>
<path fill="#FAAC34" d="M69.899,42.1c-0.299,0.4-0.699,0.9-1,1.3c-0.398,0.4-0.799,0.8-1.199,1.1v0.2c0,0.8,0.5,1.7,1.4,2.6
	c0.299,0.4,0.6,0.7,1.1,1.1c0.4,0.3,0.9,0.6,1.5,0.8c0.4-0.5,0.801-1,1.199-1.5c-0.299-0.2-0.6-0.4-0.799-0.7
	c-0.201-0.2-0.5-0.5-0.801-0.8c-1.1-1-1.699-1.7-1.699-1.8c0-0.2,0.4-0.7,1-1.4c0-0.1,0.199-0.3,0.299-0.3
	c0.201-0.2,0.301-0.5,0.5-0.6c0.102-0.1,0.102-0.1,0.102-0.2c-0.5-0.2-0.9-0.2-1-0.3c-0.102-0.1-0.201-0.1-0.301-0.1
	c-0.1,0.1-0.1,0.3-0.199,0.5C69.899,42,69.899,42,69.899,42.1z"/>
<path fill="#EACD83" d="M56.501,46.2h-0.102C56.3,46.1,56.2,46,56.101,46c-0.9-0.9-1.9-1.3-2.9-1.3c-2.1,0-4.5,1.3-6.9,3.9
	c-0.2,0.1-1.4,1.8-3.7,4.8c-0.3,0.3-1,1.4-2.2,3.1c-0.3,0.5-0.6,1-1,1.5c-0.1,0-0.1,0.1-0.1,0.2c-0.2,0.3-0.4,0.5-0.6,0.8
	c-0.2,0.4-0.4,0.7-0.6,0.9c0.1,0.1,0.1,0.4,0.2,0.6c0,0.3,0,0.6,0,1c0,1.9-0.1,3.7-0.3,5.7c-0.6,4.5-2,8.8-4.2,12.5
	c-1,1.7-2.2,3.2-3.3,4.7c-0.3,0.3-0.6,0.6-0.9,0.8c1-0.5,2-0.9,3.1-1.2c0.6-0.8,1.2-1.5,1.5-2c0.4-0.6,0.8-1.3,1.2-1.8
	c1.2-2.1,2.1-3.6,2.7-4.5c0.1-0.2,0.2-0.3,0.3-0.5c1-1.5,1.8-2.4,2.6-2.5c0.1,0,0.1,0,0.1,0c0.2,0,0.4,0,0.5,0.2c0,0.1,0,0.5,0,0.8
	l0.5,0.3c-0.2,0.2-0.4,0.5-0.5,1c-0.5,1-1.3,2.4-2.1,4.3c-0.9,1.8-1.5,3.2-2.1,4.4c0.9,0.1,2.1,0.5,3.3,1c1.5,0.6,2.5,1.1,2.9,1.5
	c1,0.9,1.5,1.5,1.8,1.9c0.4,0.4,0.7,1.1,0.8,1.9c0,0.1,0.1,1.2,0.4,3.3c0,0.1,0,0.2,0.1,0.3c0.2,1.4,0.2,2.4,0.3,3.1
	c0,0,0,0.1,0,0.3l0,0c0,0.1,0,0.2,0,0.2c0,0.2,0,0.3,0,0.3c0,0.7-0.1,1.1-0.4,1.1c0,0,0,0-0.1-0.1c-0.2,0.2-0.3,0.4-0.4,0.7
	c0.1,0,0.2,0.1,0.2,0.2c0,0.1-0.4,1-1.2,2.9c-1,2.1-1.5,3.5-1.6,4.4c0,0.5-0.2,1.1-0.3,1.9c-0.1,0.5-0.2,1.1-0.3,1.8
	c-0.3,1.5-0.4,2.8-0.3,3.601c0,1,0,2.1-0.1,3.199c0,0.301-0.1,0.601-0.2,1c-0.1,1.101-0.3,2.2-0.7,3.301
	c-0.1,0.6-0.4,1.199-0.6,1.899c-0.4,1.3-1,2.3-1.7,3.101c-1,1.399-2.1,2-3.3,2c-0.4,0-1-0.101-1.5-0.5c-0.2,0-0.3-0.2-0.4-0.301
	c-0.7-0.5-1.3-1.3-2-2.3c-0.8-1.399-1.3-2.5-1.6-3.6c-0.1-0.3-0.2-1.3-0.4-3.3c0-0.101,0-0.301,0-0.5c-0.2-1.601-0.2-2.601-0.2-3
	c0-0.301,0-0.5,0-0.801c0-0.699,0.1-1.3,0.1-2c0.1-0.199,0.1-0.399,0.1-0.5c0,0,0-0.1,0-0.199c0,0-0.1,0-0.2,0c0,0-0.1,0-0.2,0
	c-0.2,0.3-0.6,0.5-1,0.5c-0.1,0-0.2,0-0.3,0c0.1,0.5,0.2,1.199,0.2,2c0,0.399,0.1,0.8,0.1,1.399c0,0.101,0,0.3,0.1,0.3
	C28.9,116.8,29,118,29.1,119.5c0,0.899,0.2,1.699,0.3,2.5c0.2,1.899,0.5,3.5,0.8,4.5c0.4,1.5,0.9,2.699,1.7,3.8c0,0.1,0,0.1,0.1,0.2
	c1.3,1.899,3.5,2.8,6.3,2.8c2.7,0,4.4-1.5,5.3-4.3c0.1-0.2,0.1-0.301,0.1-0.4c0.5-3.1,0.8-4.9,0.9-5.8
	c0.3-0.601,0.5-2.101,0.8-4.601c0-0.3,0-0.5,0.1-0.699c0-0.101,0-0.301,0-0.5c0.2-1.2,0.4-2.301,0.7-3.2
	c0.2-0.601,0.4-1.2,0.7-1.601c3.4-5.7,5.601-9.5,6.701-11.5c1.6-3,2.5-6.4,2.5-10c0-0.9-0.201-1.8-0.5-2.7
	c-0.301-0.6-0.5-1.2-0.801-1.7c-0.299-0.7-0.799-1.3-1.199-2.1c-0.301,0.1-0.4,0.2-0.5,0.2l-0.201-0.2l-0.1-0.4
	c0.1-0.1,0.1-0.1,0.201-0.3c-2-2.5-4.401-4-7.101-4.5c0.5-0.1,1.1-0.2,1.6-0.2l0,0c0-1.6,0.1-3.1,0.4-4.6c0.2-1.4,0.6-2.7,1-4.2
	c0.2-0.3,0.3-0.7,0.4-1c0.8-2.3,1.8-4.1,2.9-5.3c0.301-0.4,0.5-0.7,0.801-0.9c0.1-0.1,0.199-0.2,0.299-0.3
	c0.801-0.5,1.6-0.5,2.201,0c0.398,0.5,0.699,1.2,1,2c0,0.2,0.1,0.4,0.1,0.7c0.299,1.2,0.4,2.8,0.4,4.8c0,2.7-0.301,5-0.701,6.8
	c0,0.2,0,0.3-0.1,0.4c-0.301,1.3-0.6,2.3-0.801,3.2c-0.1,0-0.1,0-0.1,0.1c-0.4,1.2-0.699,2.2-1.1,2.8c0.1,0.2,0.301,0.4,0.4,0.7
	c0-0.2,0.1-0.3,0.199-0.3c1.301-2.5,2.301-4.7,2.801-6.2c0-0.1,0-0.3,0.1-0.5c0.5-1.8,0.699-4.2,0.699-6.8l-0.299-4.4
	c0-0.1,0-0.3,0-0.4l0,0l-0.5-0.1l-0.1-0.3l0,0c0-0.2,0.398-0.5,1.1-0.8c0.199-0.2,0.4-0.2,0.5-0.3c1-0.5,1.699-0.8,2-0.8l0.1-0.4
	c1.9,0.1,4.801,1.8,9,5c1.1,0.8,2.199,1.5,3.301,2.2c1.1,0.7,2.199,1.3,3.398,1.7c1.602,0.6,3.102,0.9,4.5,0.9l0.201,0.3
	c0.1-0.1,0.1-0.2,0.199-0.3c0.301-0.5,0.5-1,0.801-1.8c0.5-0.9,0.9-1.7,1.4-2.3c0.699-1.1,1.6-1.9,2.6-2.5c-1-0.9-1.701-1.7-2.5-2.4
	c-0.801-0.8-1.4-1.5-2-2c0-0.1-0.201-0.3-0.301-0.3c-1.1-1.2-2.699-2.5-4.9-4.1c-0.199-0.1-0.299-0.2-0.398-0.3
	c-0.201-0.1-0.4-0.3-0.5-0.3c0-0.1-0.201-0.1-0.301-0.2c-2.801-2.1-5.199-3.2-7-3.5c-0.1,0-0.1,0-0.1,0l0,0
	c-0.301-0.1-0.5-0.1-0.701-0.1c-1.799,0-3.299,0.3-4.6,0.7c-0.299,0.1-0.699,0.3-1.1,0.4c-1.301,0.7-2,1.4-2,2v0.1
	c0,0.1,0.199,0.6,0.4,1.2c0,0.3,0,0.4-0.4,0.6c0,0-0.199,0.2-0.9,0.5l-0.299-0.1c0.1,0,0.299-0.2,1.1-0.7c0-0.2-0.1-0.4-0.301-0.4
	c-0.199-0.2-0.299-0.3-0.299-0.5l-0.102-1c0-0.1,0-0.2,0.102-0.3h-0.102c-0.5,0-1.1-0.2-1.5-0.5c-0.6-0.4-0.898-0.9-1.299-1.6
	c-0.4-0.9-0.5-1.6-0.5-2.2c0-1.7,0.5-2.8,1.699-3.4C57.501,47.2,57.101,46.8,56.501,46.2z M57.101,55.9c0.5,0.4,0.9,0.6,0.9,0.8
	c0,0.5-0.5,0.6-1.4,0.5h-0.201c0.201,0.1,0.201,0.2,0.201,0.4c0,0.1,0,0.2-0.201,0.4c-0.199,0-0.299,0.1-0.5,0.1
	c-0.6,0-1.199-0.5-1.5-1.6l-0.398-1.7c0-0.3,0.1-0.6,0.5-1c0.299-0.3,0.699,0,1.1,0.8c0.299,0.3,0.699,0.7,1.4,1.1
	C57.001,55.8,57.101,55.8,57.101,55.9z M51.7,86.1c0.4,0.7,0.6,1.4,0.801,2.1c0.199,0.8,0.398,1.5,0.398,2.2c0,0.1,0,0.2,0,0.3
	c-0.1,0.4-0.199,0.9-0.5,1.3c-0.299,0.7-0.5,1-0.799,1c-0.201,0-0.4-0.2-0.5-0.5c-0.201-0.5-0.5-1.3-0.6-2.5
	c-0.102-0.2-0.201-0.5-0.201-0.8c-0.199-1-0.5-2.1-1-3.1c-0.4-0.9-0.6-1.4-0.6-1.4c0-0.3,0.1-0.6,0.3-0.9l0.6-0.6l0,0
	C50.2,83.5,51.001,84.5,51.7,86.1z"/>
<path d="M58.001,56.7c0-0.2-0.4-0.4-0.9-0.8c0-0.1-0.1-0.1-0.1-0.2c-0.701-0.4-1.102-0.8-1.4-1.1c-0.4-0.8-0.801-1.1-1.1-0.8
	c-0.4,0.4-0.5,0.7-0.5,1l0.398,1.7c0.301,1.1,0.9,1.6,1.5,1.6c0.201,0,0.301-0.1,0.5-0.1c0.201-0.2,0.201-0.3,0.201-0.4
	c0-0.2,0-0.3-0.201-0.4h0.201C57.501,57.3,58.001,57.2,58.001,56.7z"/>
<path fill="#FFE8B4" d="M52.501,88.2c-0.201-0.7-0.4-1.4-0.801-2.1c-0.699-1.6-1.5-2.6-2.1-2.9l0,0L49,83.8
	c-0.2,0.3-0.3,0.6-0.3,0.9c0,0,0.2,0.5,0.6,1.4c0.5,1,0.8,2.1,1,3.1c0,0.3,0.1,0.6,0.201,0.8c0.1,1.2,0.398,2,0.6,2.5
	c0.1,0.3,0.299,0.5,0.5,0.5c0.299,0,0.5-0.3,0.799-1c0.301-0.4,0.4-0.9,0.5-1.3c0-0.1,0-0.2,0-0.3C52.899,89.7,52.7,89,52.501,88.2z
	"/>
<path fill="#E3C167" d="M61.2,62.7l-0.1,0.4c1.299,0.7,2.9,1.9,4.799,3.5c2.102,1.9,3.701,3.1,4.602,3.6
	c0.398,0.3,0.799,0.6,1.6,1.1c0.5,0.5,1.299,1.1,2.1,1.7c0.1,0,0.301,0.2,0.4,0.2c0.5,0.4,1,0.9,1.699,1.3c0-0.7,0.301-1,0.801-1
	l0.6,0.1c0,0.1,0,0.1,0.1,0.2c0.1-0.1,0.201-0.1,0.201-0.1c0.1,0,0.898,0.1,2.199,0.5c0.4,0,0.9-0.5,1.4-1.4l-0.201-0.3
	c-1.398,0-2.898-0.3-4.5-0.9c-1.199-0.4-2.299-1-3.398-1.7c-1.102-0.7-2.201-1.4-3.301-2.2C66.001,64.5,63.101,62.8,61.2,62.7z"/>
<path fill="#E3C167" d="M59.8,64.4c-0.199,0.1-0.299,0.2-0.6,0.3c-0.5,0.4-0.9,0.6-1.1,0.7c0,0.1,0,0.3,0,0.4l0.299,4.4
	c0,2.6-0.199,5-0.699,6.8c-0.1,0.2-0.1,0.4-0.1,0.5c-0.5,1.5-1.5,3.7-2.801,6.2c-0.1,0-0.199,0.1-0.199,0.3l0,0
	c0.4,0.5,0.699,0.9,1,1.5c0.699-1.5,1.5-3,2.1-4.5c0.6-1.3,1.199-2.5,1.5-3.9c0.699-2.3,1-4.6,1-7c0-1.1-0.1-2.4-0.199-3.7
	L59.8,64.4z"/>
<path fill="#FFE8B4" d="M38.4,75.2c-0.1,0.2-0.2,0.3-0.3,0.5c-0.6,0.9-1.5,2.4-2.7,4.5c-0.4,0.5-0.8,1.2-1.2,1.8
	c-0.3,0.5-0.9,1.2-1.5,2c1.2-0.3,2.4-0.4,3.6-0.4c0.3,0,0.7,0.1,1.1,0.1c0.6-1.2,1.2-2.6,2.1-4.4c0.8-1.9,1.6-3.3,2.1-4.3
	c0.1-0.5,0.3-0.8,0.5-1l-0.5-0.3c0-0.3,0-0.7,0-0.8c-0.1-0.2-0.3-0.2-0.5-0.2c0,0,0,0-0.1,0C40.2,72.8,39.4,73.7,38.4,75.2z"/>
<path fill="#FAAC34" d="M59.399,49.5c0.602-0.2,1.301-0.3,2.4-0.3c-0.1-0.4-0.1-0.7-0.1-1c0-0.2,0-0.3,0-0.4
	c-0.199,0-0.6,0.2-0.801,0.2c-2.398,0.6-3.6,1.5-3.6,2.8c0,0.8,0.301,1.4,0.701,2c0.1,0.2,0.5,0.6,1,1l-1.102-2.6
	C57.899,50.3,58.399,49.7,59.399,49.5z"/>
<path fill="#FFCA05" d="M61.8,49.2c-1.1,0-1.799,0.1-2.4,0.3c-1,0.2-1.5,0.8-1.5,1.7l1.102,2.6c0.199,0.2,0.5,0.4,0.699,0.7
	c0.5-0.8,1.6-1.5,3.4-2c0.199-0.1,0.5-0.3,1-0.3c-0.801-0.4-1.4-0.8-1.701-1.5C62.101,50.2,61.899,49.7,61.8,49.2z"/>
<path fill="#FAAC34" d="M62.7,47.5c0,0.2-0.1,0.4-0.1,0.7c0,0.8,0.199,1.5,0.799,2.2c0.5,0.6,1.102,1.1,1.801,1.6
	c0.1,0,0.301,0,0.4,0c0-0.1,0-0.2-0.1-0.2c-0.4-0.4-0.801-0.8-1-1.3c-0.301-0.5-0.4-0.9-0.4-1.1c0-1.2,1.1-2.2,3.4-2.9
	c-0.301-0.5-0.4-1-0.4-1.3c0,0,0,0,0-0.1C65.8,46.1,64.3,46.8,62.7,47.5z"/>
<path fill="#FFCA05" d="M69.399,49c-0.299-0.4-0.799-0.8-1.1-1.3c-0.299-0.5-0.6-0.9-0.799-1.2c-2.301,0.7-3.4,1.7-3.4,2.9
	c0,0.2,0.1,0.6,0.4,1.1c0.199,0.5,0.6,0.9,1,1.3c0.1,0,0.1,0.1,0.1,0.2c0.1-0.1,0.1-0.1,0.299-0.1c1-0.1,2,0,3.201,0.1
	c0.299-0.4,1-1.2,2-2.3h0.1C70.601,49.6,70.001,49.4,69.399,49z"/>
<path fill="#FFFFFF" d="M53.7,64.2c-0.5,0-1,0.2-1.6,0.7c0,0.1-0.1,0.2-0.201,0.3c0.602-0.2,1.102,0,1.301,0.5c0,0.2,0,0.3,0.1,0.7
	c0,0.3,0.301,0.8,0.4,1.4c0,0.2,0,1.6-0.1,4.1c0,0.8,0,1.5-0.1,2.1C53.3,74.6,53.2,75.2,53.2,75.6c0,0.1,0,0.1,0,0.2
	c0,0.2,0,0.2,0,0.4c0,0.5-0.199,1.1-0.5,1.8c-0.4,0.9-0.699,1.6-1.199,2.1H51.3c0.201,0.1,0.301,0.2,0.5,0.4
	c0.301,0.2,0.801,0.7,1.201,1.1c0-0.1,0-0.1,0-0.1c0-0.1,0.299-1,1-2.5c0.5-1,0.799-1.8,1-2.3c0-0.4,0.1-0.7,0.1-0.9
	c0.199-1.2,0.4-3.1,0.4-5.7C55.399,68,55.2,66.4,54.8,65.5C54.601,64.7,54.101,64.2,53.7,64.2z"/>
<linearGradient id="XMLID_1_" gradientUnits="userSpaceOnUse" x1="-3240.4648" y1="-3692.0435" x2="-1602.0649" y2="-3692.0435" gradientTransform="matrix(0 0.0066 -0.0044 0 -3256.7144 -3671.6631)">
	<stop  offset="0.0314" style="stop-color:#62A4D2"/>
	<stop  offset="1" style="stop-color:#5B75A6"/>
</linearGradient>
<path fill="url(#XMLID_1_)" d="M52.601,65.8h-0.6c-0.201,0.2-0.5,0.4-0.9,0.8c-0.1,0.4-0.4,0.9-0.5,1.4c-0.1,0.4-0.201,0.7-0.301,1
	c0.201,0,0.301,0,0.6,0c0.102-0.3,0.301-0.5,0.701-0.6c0.699-0.2,1.1,0.3,1.1,1.5c0,0.3-0.1,0.7-0.199,1.1
	c-0.201,0.2-0.301,0.4-0.4,0.5c0,0.2,0,0.5-0.1,0.8c0.299,0,0.6,0.2,0.6,0.4c0,0.2-0.1,0.5-0.4,0.7c-0.1,0.1-0.301,0.2-0.6,0.3
	c-0.301,0.8-0.9,1.4-1.5,1.5c0,0-0.1,0-0.201,0c-0.399,0-0.8-0.1-1-0.2c-0.3,1.2-0.6,2.5-0.8,3.8c1.1,0.2,2.1,0.6,3,1.1v-0.2
	c0.5-1.5,1-2.7,1.4-3.7c0-0.3,0.1-0.6,0.199-0.9c0.199-0.7,0.301-1.5,0.301-2.2c0-0.1,0-0.1,0.1-0.2c0-0.7,0-1.5,0-2.1
	c0-0.1,0-0.2,0-0.4c0-0.1,0-0.2,0-0.3v-0.1c0-0.4-0.1-1-0.201-1.6c-0.1-0.5-0.199-1-0.199-1.5C52.601,66.4,52.601,66,52.601,65.8z"
	/>
<path fill="#FFFFFF" d="M52.7,69.9c0-1.2-0.4-1.7-1.1-1.5c-0.4,0.1-0.6,0.3-0.701,0.6c-0.299,0.2-0.398,0.6-0.5,1.2c0,0,0,0.1,0,0.2
	l0.102,0.6c0.1,0.3,0.398,0.5,0.699,0.6c0.199,0.1,0.301,0.1,0.4,0.1c0.299,0,0.4-0.1,0.5-0.2s0.199-0.3,0.4-0.5
	C52.601,70.6,52.7,70.2,52.7,69.9z"/>
<path fill="#8A7151" d="M52.101,71.5c-0.1,0.1-0.201,0.2-0.5,0.2c-0.1,0-0.201,0-0.4-0.1c0,0.2,0,0.5-0.1,0.8c0.1,0,0.299,0,0.5-0.1
	c0.1-0.1,0.299-0.1,0.4,0C52.101,72,52.101,71.7,52.101,71.5z"/>
<path fill="#FFFFFF" d="M52.601,72.7c0-0.2-0.301-0.4-0.6-0.4c-0.102-0.1-0.301-0.1-0.4,0c-0.201,0.1-0.4,0.1-0.5,0.1
	c-0.4,0.1-0.6,0.3-0.6,0.6c0,0.2,0.1,0.4,0.199,0.5c0.199,0.1,0.4,0.2,0.6,0.2c0.201,0,0.301,0,0.301,0c0.299-0.1,0.5-0.2,0.6-0.3
	C52.501,73.2,52.601,72.9,52.601,72.7z"/>
<path d="M50.501,73c0-0.3,0.199-0.5,0.6-0.6c0.1-0.3,0.1-0.6,0.1-0.8c-0.301-0.1-0.6-0.3-0.699-0.6l-0.102-0.6c0-0.1,0-0.2,0-0.2
	c-0.1,0-0.1,0-0.1,0c-0.1,0-0.199-0.2-0.199-0.2c-0.201,0.4-0.3,0.8-0.401,1.2C49.5,72.1,49.3,73,49.1,73.8c0.1,0.2,0.4,0.4,0.6,0.4
	c0.401,0,0.801-0.3,1-0.7C50.601,73.4,50.501,73.2,50.501,73z"/>
<path fill="#997B5F" d="M84.001,112.3c-0.102,0.1-0.201,0.2-0.301,0.2c-0.5,0.5-0.801,0.699-1.1,0.699c-0.5,0-1-0.199-1.1-0.699
	c-0.102-0.2-0.201-0.5-0.201-0.801v-0.1c-0.1,0.2-0.1,0.6-0.199,1c-0.1,0.6-0.301,1.4-0.5,2.4c-0.201,0.899-0.5,1.699-0.701,2.5
	c0.102-0.301,0.301-0.7,0.602-1.101c0.5-0.899,1-1.399,1.199-1.399c0.1,0,0.4,0.3,0.6,1c0.301,0.699,0.6,1,0.9,1s0.6,0,0.801,0
	c0.199-0.101,0.398-0.2,0.6-0.2c0.1-0.101,0.4-0.101,0.6-0.3h0.801c0.1,0.199,0.1,0.5,0.1,0.899c0.1,0.3,0.4,0.5,0.799,0.5
	c0.201,0,0.4-0.1,0.602-0.2c0.199-0.199,0.398-0.3,0.6-0.3c0.1,0.601,0.199,1,0.5,1c0.1,0,0.5,0,1,0c0.9,0.3,1.5,1.5,2.1,3.601
	c-0.199-1.301-0.699-2.801-1.4-4.5c-0.299-0.801-0.699-1.7-1.199-2.801c-0.6-1.199-1-1.899-1-1.899c-0.5,0-0.701,0.2-0.9,0.3
	s-0.301,0.3-0.4,0.3c-0.699,0-1-0.399-1-0.899c-0.199,0.3-0.6,0.5-0.9,0.5c-0.199,0-0.299,0-0.299,0c-0.201,0-0.4-0.2-0.4-0.301
	C84.101,112.5,84.001,112.4,84.001,112.3z"/>
<path fill="#766658" d="M79.601,118.2c-0.1,0.101-0.201,0.2-0.301,0.301c-0.4,0.899-1.1,1.899-1.9,3.1c-0.199,0.2-0.398,0.6-0.5,0.9
	c1.701-1.4,2.701-2.2,3.102-2.5c0.898-0.601,1.898-0.801,3.1-0.7c1.5,0.2,3.199,1.1,5.1,2.7c0.5,0.699,1.199,1.5,1.9,2.699
	c0.199,0.301,0.4,0.7,0.699,1c0.201,0.5,0.301,0.801,0.6,1.301c0.301,0.3,0.602,0.8,0.801,1.5c0.199,0.399,0.4,0.899,0.6,1.5
	c-0.1-0.101-0.1-0.2-0.1-0.301c0-0.3,0-0.699,0-1c0-0.699,0-1.1,0-1.5c0-0.199,0-0.399-0.1-0.699c0-0.301-0.1-0.801-0.1-1.301
	c-0.102-0.1-0.102-0.199-0.201-0.399c-0.1-0.101-0.1-0.101-0.1-0.2c0-0.3-0.1-0.6-0.1-0.9c-0.1-0.5-0.201-1-0.301-1.3
	c0-0.1,0-0.2-0.1-0.2c0-0.1,0-0.1,0-0.199c-0.6-2.101-1.199-3.301-2.1-3.601c-0.5,0-0.9,0-1,0c-0.301,0-0.4-0.399-0.5-1
	c-0.201,0-0.4,0.101-0.6,0.3c-0.201,0.101-0.4,0.2-0.602,0.2c-0.398,0-0.699-0.2-0.799-0.5c0-0.399,0-0.7-0.1-0.899H85.2
	c-0.199,0.199-0.5,0.199-0.6,0.3c-0.201,0-0.4,0.1-0.6,0.2c-0.201,0-0.5,0-0.801,0s-0.6-0.301-0.9-1c-0.199-0.7-0.5-1-0.6-1
	c-0.199,0-0.699,0.5-1.199,1.399c-0.301,0.4-0.5,0.8-0.602,1.101C79.7,117.7,79.601,118,79.601,118.2z"/>
<path fill="#997B5F" d="M76.899,122.5c0.102-0.301,0.301-0.7,0.5-0.9c-0.199,0.3-0.398,0.6-0.699,1
	C76.8,122.5,76.8,122.5,76.899,122.5z"/>
<path fill="#6B6555" d="M77.899,163.9L77.899,163.9c-0.799,0.3-1.299,0.5-1.799,0.5c0,1,0,1.9,0,3c0,0.601,0,1.4,0,2.101
	c0,0.6-0.1,1.199-0.201,1.899c-0.1,0.101-0.1,0.4-0.1,0.5c-0.199,1.101-0.299,2.3-0.6,3.601c-0.5,2.6-1.1,5-1.699,7.3
	c0.1,0.1,0.199,0.399,0.199,0.6c0,0.3-0.1,0.5-0.199,0.601c0.1,0,0.1,0.1,0.199,0.3c0.301-0.5,0.699-1,1.199-1.7
	c0.701-1.1,1.301-1.7,1.602-1.9c1.1,1.101,2,2.101,2.6,3.101c0.4,0.6,0.699,1.3,0.9,1.899L80.3,185.5c0.301-1,0.6-1.7,0.701-2.301
	c0.1-0.399,0.199-0.699,0.299-0.8c0.201-0.6,0.4-0.899,0.6-1.1c-1.299-1.5-2.299-3.8-3-6.5c-0.299-1.101-0.699-2.3-0.799-3.4
	c0-0.2,0-0.5-0.1-0.7c0-0.5-0.102-1.1-0.201-1.699c-0.1-0.601-0.1-1.101-0.1-1.601c-0.1-0.6-0.1-1.1-0.1-1.6L77.899,163.9z"/>
<path fill="#877D5E" d="M80.101,186.3c0-0.3,0.199-0.5,0.199-0.8l-0.299,0.199c-0.201-0.6-0.5-1.3-0.9-1.899c-0.6-1-1.5-2-2.6-3.101
	c-0.301,0.2-0.9,0.801-1.602,1.9c-0.5,0.7-0.898,1.2-1.199,1.7c0.199,0.1,0.301,0.2,0.4,0.5l0.199,1.8c0,2.4-0.6,3.8-1.799,4
	c-0.102,0.3-0.102,0.6-0.201,1c0,0.5-0.1,1.2-0.199,1.9c-0.201,0.699-0.301,1.3-0.4,1.899c-0.1,0.5-0.1,1-0.1,1.4
	c0,1,0.299,3,0.699,6c0,0.5,0.1,1,0.301,1.5c0,0.1,0,0.2,0,0.399c0.6,4,1,6.101,1,6.2c0,0.5,0,0.9-0.1,1.3c0.199,0,0.5,0,0.799,0.2
	c0.9,0.3,1.6,0.4,1.801,0.5c0.1-0.1,0.1-0.2,0.1-0.2c0.5-1,0.801-1.699,0.9-1.899c0-0.601,0.1-1.3,0.4-1.9
	c0.1-0.399,0.199-0.6,0.398-0.8c-0.299-0.9-0.5-2.1-0.5-3.4c0-0.699,0.102-1.399,0.102-2.3c0-0.1,0-0.399,0-0.6
	c0.1-1,0.199-2.2,0.398-3.5c0.102-0.5,0.301-2.101,0.701-4.601c0.1-0.699,0.199-1.199,0.299-1.8c0.102-0.7,0.201-1.399,0.301-2.1
	c0.301-1,0.5-2,0.801-3C80.101,186.6,80.101,186.4,80.101,186.3z"/>
<path fill="#6B6965" d="M58.501,213.6L58.501,213.6c-1.201,0-2.9-0.7-5-2c-0.201,0.9-0.602,1.9-1.4,3c-0.5,0.8-1.1,1.4-1.9,1.9
	c1.4,0.399,2.5,0.6,3.4,0.6c1.6,0,2.699-0.2,3.5-0.7c0.1-0.1,0.4-0.5,0.5-0.899c0.299-0.301,0.4-0.7,0.4-1
	C58.101,214.2,58.3,213.8,58.501,213.6z"/>
<path fill="#CCCCCC" d="M53.001,211.3c-0.5-0.3-0.9-0.5-1.301-0.9c-0.5,0.4-1.199,1.101-2.1,2.3c-0.1,0.101-0.4,0.301-0.5,0.601
	c-0.7,0.899-1.2,1.6-1.6,2.3c0.5,0.2,1.1,0.4,1.8,0.7c0.3,0.1,0.6,0.1,0.9,0.2c0.801-0.5,1.4-1.101,1.9-1.9
	c0.799-1.1,1.199-2.1,1.4-3c0-0.1-0.201-0.1-0.301-0.1c0-0.101,0-0.101-0.1-0.101C53.101,211.3,53.001,211.3,53.001,211.3z"/>
<path fill="#6B6965" d="M50.3,209.4c-0.199,0.601-1.1,1.9-2.6,4c-0.5,0.4-0.9,1-1.4,1.601c0.3,0.199,0.7,0.399,1.2,0.6
	c0.4-0.7,0.9-1.4,1.6-2.3c0.1-0.3,0.4-0.5,0.5-0.601c0.901-1.199,1.6-1.899,2.1-2.3C51.101,210,50.601,209.7,50.3,209.4z"/>
<path fill="#6B6965" d="M79.601,210.6c-0.4-0.3-0.701-0.6-1-1c-0.4,1.2-1,2.8-1.801,4.9c0,0.199,0.301,0.399,0.801,0.8
	c0.5,0.2,1,0.5,1.4,0.6c0.299-0.6,0.6-1.2,0.699-1.6c0.199-0.7,0.301-1.5,0.301-2.3c0-0.4,0-0.7,0-0.801
	C79.899,211,79.7,210.8,79.601,210.6z"/>
<path fill="#CCCCCC" d="M80.001,212c0,0.8-0.102,1.6-0.301,2.3c-0.1,0.399-0.4,1-0.699,1.6c0.1,0,0.398,0,0.6,0
	c1.6,0,2.5-0.5,2.699-1.399c0.301-1.4,0.4-2.4,0.801-3c-1.5,0-2.6-0.301-3.5-0.9c0.1,0.2,0.299,0.4,0.4,0.6
	C80.001,211.3,80.001,211.6,80.001,212z"/>
<path fill="#FAAC34" d="M43.9,1.7c-0.2,0.1-0.3,0.3-0.4,0.4c0,0.3,0.5,1.3,1.5,3.1c0,0.2,0.1,0.3,0.2,0.5c0.6,1.3,0.9,2.4,1,3.5
	c0.5-0.4,1-0.7,1.9-1c0.1,0,0.4-0.2,0.5-0.2c1-0.3,1.7-0.4,2.401-0.3c-0.102-0.2-0.301-0.5-0.4-0.7c-0.1,0-0.301,0.2-0.5,0.2
	C49.7,7.5,49.3,7.5,48.9,7.5c-1,0-1.9-0.7-2.7-2.2C46.1,5,46,4.7,45.9,4.5C45.2,3,44.6,2.1,43.9,1.7z"/>
<path fill="#FFCA05" d="M44.6,0.8c-0.1,0.3-0.4,0.6-0.7,0.9c0.7,0.4,1.3,1.3,2,2.8C46,4.7,46.1,5,46.2,5.3c0.8,1.5,1.7,2.2,2.7,2.2
	c0.4,0,0.8,0,1.201-0.3c0.199,0,0.4-0.2,0.5-0.2c-0.201-0.3-0.4-0.8-0.6-1.1C49.6,5.4,49.2,4.8,48.9,4.4C47.7,3,46.3,1.8,44.6,0.8z"
	/>
<path fill="#FFCA05" d="M51.001,15.5c-0.4-0.5-1-0.7-1.801-0.7c-0.5,0-0.899,0.2-1.399,0.3c-0.2,0.1-0.3,0.1-0.5,0.2
	c-0.2,0.4-0.5,0.9-0.8,1.4c-0.4,0.7-0.5,1.2-0.5,1.7c0,0.6,0.1,1.2,0.6,1.7c0.7,0.7,1.8,1.2,3.2,1.3c0.701-1.8,1.3-3.7,1.5-5.5
	C51.2,15.8,51.101,15.7,51.001,15.5z"/>
<path fill="#FAAC34" d="M46.5,16.7c0.3-0.5,0.6-1,0.8-1.4c-0.5,0.2-1.1,0.5-1.5,0.9c-0.4,0.3-0.7,0.6-1.1,1c-0.5,1.3-1.1,2.6-1.8,4
	c0.5-0.2,1.2-0.2,2-0.2c2.2,0.2,3.7,1,4,2.3c0.3-0.6,0.7-1.3,0.9-1.9c-1.4-0.1-2.5-0.6-3.2-1.3C46.1,19.6,46,19,46,18.4
	C46,17.9,46.1,17.4,46.5,16.7z"/>
<path fill="#FAAC34" d="M43.6,22.2c-0.7,0-1.3,0.3-1.6,0.6c-0.5,1-1.3,2.1-1.9,3.2c-0.2,0.2-0.4,0.5-0.5,0.8c0.3-0.1,0.6-0.3,1-0.3
	c0.3-0.1,0.7-0.2,1.1-0.2c0.6,0,1.1,0.2,1.6,0.4c0.1,0.1,0.2,0.1,0.3,0.2c0.5,0.3,0.8,0.7,1.1,1.2c0.3,0.4,0.4,0.7,0.5,1.1
	c0,0,0,0.2,0.1,0.2c0-0.2,0.2-0.2,0.2-0.4c0.2-0.3,0.4-0.6,0.5-0.9c-0.5-0.7-0.9-1.3-1.4-1.7c-0.1,0-0.2-0.2-0.3-0.2
	C44.1,26.1,44,26,43.7,26c-0.4-0.2-1-0.3-1.7-0.3V25C42.6,23.7,43.1,22.7,43.6,22.2z"/>
<path fill="#FFCA05" d="M43.9,22.2c-0.2,0-0.3,0-0.3,0c-0.5,0.5-1,1.5-1.6,2.8v0.7c0.7,0,1.3,0.1,1.7,0.3c0.3,0,0.4,0.1,0.6,0.2
	c0.1,0,0.2,0.2,0.3,0.2c0.5,0.4,0.9,1,1.4,1.7c0.4-0.7,0.9-1.6,1.5-2.4c0.1-0.3,0.3-0.5,0.5-0.7c0.1-0.3,0.2-0.5,0.4-0.7
	c0.1-0.1,0.1-0.3,0.2-0.3c-0.2-0.3-0.5-0.5-0.7-0.8c-0.8-0.7-2.1-1-3.8-1C44,22.2,44,22.2,43.9,22.2z"/>
<path fill="#FFCA05" d="M42,27.4c-0.3,0-0.6,0-0.9,0c-0.2,0-0.6,0.1-1.2,0.4c-0.1,0.1-0.2,0.2-0.3,0.3c-0.1,0.3-0.3,0.4-0.4,0.6
	c0,0.1,0,0.1,0,0.2c-0.1,0.3-0.1,0.5-0.1,0.6c0,0.2,0.7,0.6,2.2,1c0.6,0.1,1,0.3,1.5,0.5c0.6,0.2,1.1,0.4,1.5,0.8
	c0.2-0.4,0.3-0.8,0.5-1.2c-0.2-0.2-0.2-0.5-0.4-0.9c-0.1-0.2-0.1-0.3-0.2-0.5c-0.2-0.9-0.9-1.5-1.9-1.7C42.2,27.5,42.1,27.5,42,27.4
	z"/>
<path fill="#FAAC34" d="M43.2,32c0.3,0.2,0.5,0.4,0.8,0.7c0.1-0.3,0.2-0.7,0.3-0.9c-0.4-0.4-0.9-0.6-1.5-0.8
	c-0.5-0.2-0.9-0.4-1.5-0.5c-1.5-0.4-2.2-0.8-2.2-1c0-0.1,0-0.3,0.1-0.6c0-0.1,0-0.1,0-0.2c0.1-0.2,0.3-0.3,0.4-0.6
	c0.1-0.1,0.2-0.2,0.3-0.3c-0.2,0-0.4,0.2-0.6,0.2c-0.3,0.3-0.7,0.5-0.8,0.7c-0.2,0.2-0.4,0.5-0.5,0.8l0,0c-0.9,1.3-1.5,2.6-2.1,3.8
	c1-0.8,2.1-1.5,3.1-1.9c1.2-0.6,2.3-0.6,3.3-0.1C42.6,31.5,43,31.7,43.2,32z"/>
<path fill="#FFCA05" d="M41.5,32c-0.2,0-0.3,0-0.4,0c-1,0-2.1,0.3-3.1,1.1c-0.3,0.1-0.4,0.1-0.4,0.2c-0.5,0.8-0.9,1.4-0.9,1.9
	c0,0.3,0.2,0.5,0.4,0.8c0,0.1,0,0.2,0.1,0.2c0.2,0.2,0.4,0.3,0.5,0.3c0.2,0,0.6-0.2,1.5-0.5c0.9-0.3,1.7-0.5,2.3-0.5
	c0.2,0,0.7,0.1,1.2,0.2c0.2,0.1,0.4,0.1,0.5,0.2c0.1,0,0.1,0,0.1,0v-0.1c0.1-0.4,0.2-1,0.3-1.6c-0.1-0.2-0.4-0.5-0.5-0.7
	C42.6,32.7,42,32.2,41.5,32z"/>
<path fill="#FAAC34" d="M41,36.9c0.2-0.1,0.6-0.1,0.9-0.1c0.5,0,1,0.1,1.3,0.2c0-0.3,0.1-0.7,0.1-1.1c0,0,0,0-0.1,0
	c-0.1-0.1-0.3-0.1-0.5-0.2c-0.5-0.1-1-0.2-1.2-0.2c-0.6,0-1.4,0.2-2.3,0.5c-0.9,0.3-1.3,0.5-1.5,0.5c-0.1,0-0.3-0.1-0.5-0.3
	c-0.1,0-0.1-0.1-0.1-0.2c-0.2-0.3-0.4-0.5-0.4-0.8c0-0.5,0.4-1.1,0.9-1.9c-0.4,0.3-0.7,0.5-1,0.9c-1,0.8-1.5,1.5-1.9,2.2
	c-0.4,1.1-0.6,2.1-0.8,3.1c-0.1,0.6-0.2,1.2-0.2,1.7c0,0.6,0.1,1.2,0.2,1.8c0.2-0.8,0.7-1.9,1.7-3c0-0.1,0.1-0.2,0.2-0.3
	C37.2,38,39,37.1,41,36.9z"/>
<path fill="#FFCA05" d="M36.5,41c-0.3,0.5-0.6,0.7-0.8,1.2c0.3,1.1,0.9,1.7,1.9,1.7c0.5,0,1.3-0.4,2.5-0.9c0.9-0.5,1.8-0.8,2.5-0.9
	l0,0C42.8,42,43,42,43.2,42h0.1c0.3,0,0.6,0.1,0.8,0.2V42C44,41.8,44,41.7,44,41.5c-0.1-0.1-0.1-0.1-0.1-0.1s0-0.1,0-0.2
	c-0.2-0.4-0.3-0.7-0.3-1.4c-0.1-0.3-0.1-0.8-0.2-1.1c-0.7-0.5-1.2-0.7-1.7-0.7C39.7,38,38,39,36.5,41z"/>
<path fill="#FAAC34" d="M35.7,42.2c0,0,0,0-0.1,0c-0.6,1-1,1.9-1,2.7L34.1,45l0,0c0.1,0.6,0.4,1.2,0.5,1.8c0.1,0.2,0.2,0.3,0.3,0.5
	c0,0.1,0,0.1,0,0.2c0.1,0,0.1,0.1,0.1,0.2c0.1,0.3,0.3,0.7,0.5,1c0.2-0.8,1-1.7,2-2.7c1.4-1.5,2.9-2.4,4.5-2.6
	c0.3-0.1,0.6-0.2,1-0.2c0.7,0,1.3,0.2,1.7,0.5l0.1,0.1c-0.3-0.7-0.5-1.3-0.7-1.6c-0.2-0.1-0.5-0.2-0.8-0.2h-0.1
	c-0.2,0-0.4,0-0.6,0.1l0,0c-0.7,0.1-1.6,0.4-2.5,0.9c-1.2,0.5-2,0.9-2.5,0.9C36.6,43.9,36,43.3,35.7,42.2z"/>
<path fill="#997B5F" d="M9.6,54.6c-0.5-0.1-0.9-0.2-1.4-0.2l-2.5-1c-0.6-0.2-1.4-0.6-2.2-1.1C3.1,52.2,3,52,2.8,52
	c0,0.1,0,0.2,0,0.4l-0.7-0.1c-0.4,0-0.6,0.2-0.9,0.4C1.1,53,1,53.1,1,53.2c0,0.5,0.2,1.2,0.7,2c0.4,0.8,0.9,1.5,1.3,2
	c0.3,0.5,0.7,1,1,2c0,0,0,0,0,0.2c0.6-0.2,1.4-0.2,2.4-0.2c1.4,0.2,2.7,0.3,3.9,0.3L10,59c-0.8-1.5-1.1-2.5-1.1-3.3
	C8.9,55.4,9.1,55,9.6,54.6z"/>
<path fill="#766658" d="M11.6,62.2l-1.3-2.7c-1.2,0-2.5-0.1-3.9-0.3c-1,0-1.8,0-2.4,0.2c0.3,0.8,0.6,1.3,0.7,1.7
	c0.4,0.4,1,1.6,2.2,3.7c0.4,0.4,0.9,0.9,1.4,1.3c0.4,0.3,0.8,0.5,1.3,0.6c1.2,0.6,2.7,0.8,4.4,0.8c0,0,0,0,0.1,0
	c-0.5-0.3-1-1-1.4-1.7c-0.1-0.4-0.2-0.8-0.3-1.2C12.2,64,12.1,63.5,12,63C11.7,62.7,11.6,62.4,11.6,62.2z"/>
<path fill="#FFFFFF" d="M37.2,62.4c-0.5,0-1,0.1-1.4,0.4c-0.4,0.2-0.8,0.5-1.1,0.9c-0.1,0-0.1,0-0.1,0.1l0,0
	c0.2,0.1,0.3,0.2,0.4,0.4c0.5,0.8,0.6,1.3,0.6,1.4c0.3,1.1,0.4,2.1,0.4,2.8c0,1.7-0.3,3.3-0.7,4.6c-0.2,0.5-0.7,1.5-1.3,3
	c0.1,0,0.1,0,0.2,0c0.8-1.5,1.4-2.8,1.6-3.7c0.7-2.2,1.2-4.2,1.3-6.1c0-0.2,0-0.2,0-0.4C37.2,65.7,37.2,64.5,37.2,62.4z"/>
<linearGradient id="XMLID_2_" gradientUnits="userSpaceOnUse" x1="-3262.9922" y1="-3696.4941" x2="-1624.5922" y2="-3696.4941" gradientTransform="matrix(0 0.0037 -0.0027 0 -3272.9753 -3685.425)">
	<stop  offset="0.0314" style="stop-color:#62A4D2"/>
	<stop  offset="1" style="stop-color:#5B75A6"/>
</linearGradient>
<path fill="url(#XMLID_2_)" d="M35.1,68c0,0,0,0.2,0,0.3c0,0.2-0.1,0.4-0.2,0.7c-0.1,0.2-0.2,0.4-0.3,0.5c0,0.3,0,0.7-0.1,1
	c0,0.1,0,0.2,0,0.2c0,0.1,0,0.2-0.2,0.3c0,0.3-0.1,0.7-0.2,1c-0.3,1.6-0.8,2.4-1.5,2.4c-0.4,0-0.7-0.1-1-0.2c-0.2,1-0.3,1.7-0.3,1.9
	c0,0.1,0.1,0.2,0.3,0.2c0,0,0.1,0.1,0.3,0.1c0.3-0.2,0.8-0.4,1.3-0.4c0.1-0.5,0.4-1,0.7-1.8c0.2-0.7,0.6-1.4,0.7-2
	c0-0.1,0-0.1,0-0.1c0.4-1.4,0.6-2.6,0.6-3.7c0-0.2,0-0.3,0-0.4c-0.1-0.8-0.3-1.7-0.7-2.5c-0.2-0.4-0.4-0.7-0.4-0.8
	c-0.1,0.1-0.2,0.3-0.4,0.5c-0.2,0.8-0.5,1.5-0.6,2.3c0,0,0.1,0,0.3,0c0.1-0.1,0.2-0.1,0.3,0c0.1-0.1,0.3-0.1,0.4-0.2
	C34.8,67.2,35.1,67.4,35.1,68z"/>
<path fill="#FFFFFF" d="M35.1,68.3c0-0.1,0-0.3,0-0.3c0-0.6-0.3-0.8-1-0.7c-0.1,0.1-0.3,0.1-0.4,0.2C33.2,67.6,33,68,33,68.7
	c0,0.3,0,0.6,0.2,0.8c0.1,0,0.3,0.1,0.5,0.2c0.2,0,0.3,0,0.4,0s0.2-0.1,0.5-0.2c0.1-0.1,0.2-0.3,0.3-0.5
	C35,68.7,35.1,68.5,35.1,68.3z"/>
<path d="M33.7,69.7c-0.2-0.1-0.4-0.2-0.5-0.2c-0.1,0.9-0.5,2.2-1.1,3.9l0.4,0.1c0.3-0.3,0.5-0.8,0.7-1.5c0-0.2,0.1-0.3,0.2-0.5h-0.3
	V71c0-0.3,0.1-0.5,0.6-0.6V69.7z"/>
<path fill="#8A7151" d="M34.6,69.5c-0.3,0.1-0.4,0.2-0.5,0.2s-0.2,0-0.4,0v0.7c0-0.1,0-0.1,0.1-0.1c0.3-0.1,0.7-0.1,0.7,0.2
	C34.6,70.2,34.6,69.8,34.6,69.5z"/>
<path fill="#FFFFFF" d="M34.5,70.5c0-0.3-0.4-0.3-0.7-0.2c-0.1,0-0.1,0-0.1,0.1c-0.5,0.1-0.6,0.3-0.6,0.6v0.5h0.3h0.1
	c0.2,0,0.4,0,0.6-0.3c0.1,0,0.2-0.1,0.2-0.2c0.2-0.1,0.2-0.2,0.2-0.3C34.5,70.7,34.5,70.6,34.5,70.5z"/>
<path fill="#EACD83" d="M32.5,77.9c0-0.1,0.1-0.2,0.1-0.3l0,0c-1.3,0.6-2,1.1-2.1,1.2c-1,1-1.7,1.9-1.9,2.7
	c-0.2,0.6-0.5,1.5-0.7,2.8c-0.2,0.7-0.3,1.3-0.5,1.8c-0.1,0.2-0.2,0.4-0.2,0.6c0.6-0.4,1.3-0.8,1.9-1.2c0,0,0.1,0,0.2-0.1
	c0,0,0,0-0.1,0s-0.1-0.1-0.1-0.2s0.5-0.7,1.2-2c0.4-0.8,1-1.8,1.8-3.1c0.6-1.2,1.1-2.3,1.7-3.2c-0.1,0.1-0.2,0.1-0.4,0.2
	c-0.2,0.3-0.3,0.6-0.4,1h-0.4C32.5,78,32.5,78,32.5,77.9z"/>
<path fill="#6F6F6F" d="M30.2,87c0.6-0.6,1.1-1.3,1.5-1.8c-1.1,0.4-2.2,1-3.4,1.6c-0.7,0.6-1.9,1.6-3.2,2.9
	c-0.1,0.2-0.4,0.4-0.6,0.7c-0.8,0.9-1.6,2.1-2.4,3.6c-0.1,0.2-0.3,0.5-0.5,0.8c0,0,0,0.1,0,0.2c0,0,0,0.1,0.1,0.2c0,0,0,0,0,0.1
	c0.3,0.4,0.7,0.7,1,1.1c0.3,0.2,0.9,0.4,1.8,0.8h0.1c1,0.3,1.9,0.5,2.5,0.5c1.4,0,3.5-1,6.2-3.2c2.4-1.8,3.8-3,4.2-3.6
	c1.4-2.1,2.6-1.9,3.7,0.5c0.9,1.8,1.3,3.2,1.3,4.4c0,0.9,0,1.4-0.1,1.7c-0.1,0.2-0.1,0.5-0.2,0.7c-0.2,0.3-0.3,0.5-0.6,0.6
	c-0.1,0-0.4,0.1-0.6,0.1c-0.6,0-1.1-0.3-1.6-1c-0.4-0.7-0.9-1.1-1.2-1.1c-0.9,0-2.3,0.4-4.1,1.4c-1.7,0.8-2.8,1.5-3.4,2.1
	c-0.7,0.7-1.1,1.4-1.2,2.2c-0.1,0.3-0.2,1-0.2,2c0,1.2,0.3,3.2,0.8,5.9c0,0.101,0,0.3,0,0.4c0.2-0.101,0.5-0.101,1,0
	c0,0,0.1,0,0.2,0c0.7,0,1.4,0,2-0.101c0.7,0,1.4-0.1,2-0.199c1.3-0.5,2.3-0.9,3-1.4c1.3-0.9,2.6-2.2,3.7-4.1
	c0.2-0.3,0.9-1.8,2.1-4.2c0.5-1.3,1.2-2.3,1.9-3.1c-0.1-0.5-0.3-1.2-0.4-2.2c0-0.3,0-0.5,0-0.8c-0.2-1.9-0.3-3.1-0.4-3.7
	c-0.1-1-0.9-2.3-2.3-3.7c-1.8-1.7-3.7-2.6-5.9-2.8c-0.5,1-0.9,1.6-1,1.9c-0.5,0.8-1.7,1.7-3.2,2.8c-1.6,1.1-2.7,1.6-3.3,1.6
	c-0.5,0-0.9-0.1-1.3-0.2c-0.2-0.1-0.3-0.4-0.3-0.6C27.9,89.8,28.7,88.7,30.2,87z"/>
<path fill="#959595" d="M31.7,85.2c-0.4,0.5-0.9,1.2-1.5,1.8c-1.5,1.7-2.3,2.8-2.3,3c0,0.2,0.1,0.5,0.3,0.6c0.4,0.1,0.8,0.2,1.3,0.2
	c0.6,0,1.7-0.5,3.3-1.6c1.5-1.1,2.7-2,3.2-2.8c0.1-0.3,0.5-0.9,1-1.9c-0.3,0-0.5,0-0.8,0C34.7,84.5,33.2,84.7,31.7,85.2z"/>
<path fill="#333333" d="M38.2,95.8c0.9,0,1.5,0.2,1.9,0.7c0.1,0.3,0.3,0.7,0.5,1.1c0.4-0.2,0.6-0.6,0.7-0.9c0.1,0,0.1-0.4,0.1-1
	c0-0.2-0.3-1.2-0.8-2.5c-0.5-1.7-0.9-2.5-1.3-2.5L35,94.8c-3.3,2.7-5.8,4-7.6,4c-1,0-1.9-0.1-2.8-0.4c-0.8-0.4-1.5-0.7-2.1-1.2
	c-0.1,0-0.3-0.1-0.3-0.2c-0.5-0.3-0.8-0.6-1.1-1c0,0.1,0,0.1,0,0.2c-0.3,0.3-0.4,0.6-0.4,0.8c0,1,0.8,1.8,2.3,2.5
	c0.2,0.1,0.4,0.2,0.6,0.2c0.5,0.3,0.8,0.5,1.1,0.7c1.2,0.8,1.8,1.8,1.9,3.1c0,0.3,0.1,0.9,0.4,1.8c0.1,0.7,0.2,1.3,0.1,1.8
	c0,0.3,0,0.6,0,1c0,0.6,0.1,1.4,0.2,2.4v0.1c0.1,0,0.3,0.1,0.4,0.1c0.4,0.101,0.7,0.101,0.9,0.101s0.3-0.101,0.4-0.3l0,0
	c0-0.3,0-0.5,0-0.5c-0.4-2.3-0.6-4.2-0.6-5.5c0-1.4,0.1-2.3,0.1-2.7c0.2-1,0.8-1.8,1.7-2.4c0.5-0.4,1.8-1.1,3.8-2
	C36.2,96.3,37.6,95.8,38.2,95.8z"/>
<path fill="#6F6F6F" d="M23.5,100.6c-0.6-0.2-1.2-0.4-1.8-0.5c-0.1-0.1-0.2-0.1-0.4-0.1l0.2,1c0,0.5-0.2,1.2-0.3,2.3
	c-0.1,1.1-0.2,1.9-0.2,2.2c0,0.8,0.3,1.9,1.2,3.3c1.1,1.7,2.3,2.7,3.5,2.7c0.4,0,0.5-0.301,0.6-0.9c0.1-0.6,0.1-0.9,0.1-0.9
	c0-1.1-0.1-2.1-0.1-3c-0.1-1-0.2-2-0.4-2.7c-0.3-0.8-0.6-1.4-0.9-2C24.5,101.4,24.1,101,23.5,100.6z"/>
<path fill="#EAEAEA" d="M42.4,108.5c0-0.8,0.2-2,0.8-3.5c-1,1.6-1.9,2.8-2.8,3.5c-0.5,0.5-1.2,1.1-2,1.8c-0.9,0.5-2.8,1-5.5,1.399
	l0,0c-0.2,0-0.4,0-0.6,0c-0.9,0-1.4,0-1.7-0.1c0,0.1,0.1,0.4,0.1,0.8c0,0.2,0,0.5,0,0.8c0,0,0,0.101,0,0.2c0,0.5,0,1-0.1,1.601
	c0,0.399,0.1,1.5,0.4,3.3c0.1,0.399,0.1,0.8,0.1,1.2c0.1,0.5,0.1,1,0.2,1.3l0.6-0.3V120.4c-0.2-0.7-0.3-1.2-0.3-2c0-0.6,0-1,0-1.5
	c0-1.1,0.4-1.899,1.2-2.2c0.2-0.199,0.3-0.199,0.7-0.3c0.5-0.2,1.2-0.3,2.2-0.5c2.8-0.5,5-1.899,6.6-4.2
	C42.3,109,42.4,108.5,42.4,108.5z"/>
<path fill="#FFFFFF" d="M33.5,114.4c-0.4,0.101-0.5,0.101-0.7,0.3c-0.8,0.301-1.2,1.101-1.2,2.2c0,0.5,0,0.9,0,1.5
	c0,0.8,0.1,1.3,0.3,2v0.101l-0.6,0.3c0,0.2,0,0.399,0.1,0.6c0.3,0.8,0.7,1.601,1.1,2.5c0.2,0.3,0.4,0.5,0.5,0.8l0,0
	c0.6,1,1.1,1.7,1.7,2.2c0.2,0.101,0.4,0.3,0.6,0.3c0.3,0.2,0.5,0.2,0.8,0.2c1,0,1.9-0.399,2.5-1.2c0.9-0.8,1.5-2.199,2-3.8
	c0.4-0.899,0.6-2,0.9-3.2c0-0.399,0.1-0.699,0.1-1.199c0.1-0.301,0.1-0.601,0.1-0.9c0.3-3.6,0.5-6.1,0.6-7.4
	c-1.6,2.3-3.8,3.7-6.6,4.2C34.7,114.1,34,114.2,33.5,114.4z"/>
<path fill="#E3C167" d="M52.101,107.1c0-0.7,0-1.3,0-1.7l0,0c-1,1.6-2,3.4-3.4,5.601c-0.3,0.5-0.7,1.199-1.1,1.699
	c-0.6,1.301-1,2.7-1.4,4.301c-0.1,0.199-0.1,0.399-0.1,0.5c0,0.199,0,0.5-0.1,0.699c-0.1,1.301-0.4,3.2-0.5,5.601
	c-0.1,0.7-0.3,1.6-0.4,2.7c-0.1,0.5-0.3,1.3-0.5,2.3c-0.1,0.2-0.1,0.399-0.2,0.7c-0.1,0.6-0.6,1.5-1.4,2.699l0.5,0.5
	c0.1-0.199,0.1-0.399,0.3-0.5c0.8-1,1.4-2,2.1-3c1-1.6,1.7-3.1,2.2-4.399s0.7-2.8,0.8-4.3c0-1.5,0-2.7,0.1-3.5
	c0-0.2,0-0.301,0.1-0.5c0.1-0.5,0.4-1,0.7-1.5c0.599-0.801,1.099-1.301,1.3-1.7c0-0.101,0.1-0.101,0.1-0.3
	c0.199-0.301,0.4-0.5,0.5-0.801c0-0.1,0-0.1,0.1-0.1c0.1-0.3,0.201-0.6,0.301-0.8l0.1-3.6C52.2,107.5,52.2,107.3,52.101,107.1z"/>
<path fill="#EACD83" d="M51.7,112.2c-0.1,0.301-0.301,0.5-0.5,0.801c0,0.199-0.1,0.199-0.1,0.3c-0.201,0.399-0.701,0.899-1.3,1.7
	c-0.3,0.5-0.601,1-0.7,1.5C49,116.7,49,116.8,49,117c-0.1,0.8-0.1,2-0.1,3.5c-0.1,1.5-0.3,3-0.8,4.3s-1.2,2.8-2.2,4.399
	c-0.7,1-1.3,2-2.1,3c-0.2,0.101-0.2,0.301-0.3,0.5l-0.5-0.5c-0.3,0.4-0.5,0.801-0.8,1l0.4,0.5c-1.5,1.801-2.6,2.801-3.3,2.801
	c-0.2,0-0.5-0.2-0.8-0.601L38.2,136c0.1,0.199,0.1,0.399,0.2,0.699c0,0,0,0,0.1,0C38.7,138,39.1,139,39.3,139.8
	c1.1,2.899,2.2,4.899,3.2,6.2l2.1,3c0.7,0.899,1.5,1.8,2.2,2.399c0,0.101,0,0.101,0.1,0.101c0.2,0.3,0.5,0.5,0.7,0.8
	c0.5,0.3,1.3,0.899,2.2,1.5c0.701,0.399,1.4,0.899,2.3,1.399c2.5,1.5,4.199,2.601,5.199,3.2c-0.199,0.101-0.4,0.2-0.5,0.2
	s-0.1,0-0.1,0c-0.1,0-0.1,0-0.199,0l-0.102,0.3c-0.199-0.1-0.398-0.1-0.699-0.1c-0.6,0-1.301,0-2.1-0.101h-0.9
	c0,0.101-0.1,0.2-0.1,0.301c0,0.3,0,0.699,0.1,1c0,0.399,0.199,0.899,0.301,1.5c0.199,0.899,0.6,2,0.898,3.3
	c1.201,4.1,2,6.5,2.201,7.1c0.1,1,0.4,2,0.5,3c0.1,0.5,0.199,1.101,0.299,1.601c0.102,0.699,0.201,1.399,0.201,2.1
	c0.299,2.7,0.5,4.1,0.5,4.2l-0.5,0.6c0,0-0.1,0.2-0.4,0.5l0,0c0,0.9-0.1,1.4-0.4,1.4c-0.1,0-0.199-0.2-0.4-0.601
	c-0.299,0.4-0.299,0.801-0.299,1.101c0,0.899,0.299,1.7,1.1,2.6c0.9,1,1.9,1.8,3.1,2h-0.799c-0.102,0-0.301,0-0.4,0l-0.1,0.5l0,0
	c0,0.8-0.201,2-0.5,3.8c0,0.2,0,0.5-0.102,0.7c0,0.3-0.199,0.8-0.299,1.101c-0.201,1.399-0.5,2.5-0.801,3.5
	c-0.5,1.6-1.199,3.3-2.1,4.899c-0.699,1.2-1.1,2.101-1.1,2.8c0,0.101,0,0.101,0,0.101c0.1,0.7,0.299,1.5,0.699,2.1l-0.4,0.9
	c0.102,0,0.201,0.1,0.301,0.1c1.301,0.8,2.301,1.3,3.1,1.601c0.4,0.199,0.801,0.199,1,0.199c0.301,0,0.6-0.1,0.801-0.3
	C59.2,212,59.501,212,59.8,212l0.801-0.2l-0.301-0.7c0-0.3,0.201-1.1,0.4-2.5c0.199-0.8,0.4-1.9,0.699-3.1
	c0.201-0.7,0.201-1.301,0.4-2.101c0.701-3.1,1.301-5.6,1.5-7c0.201-0.7,0.201-1.2,0.301-1.6l0.1-1c0.199-1,0.4-2.7,0.801-5
	c0-0.601,0.1-1.4,0.199-2c0.4-3.2,0.6-5.9,0.6-8c-0.199-1.5-0.299-3-0.5-4.3c-0.1-0.7-0.199-1.301-0.199-1.9c-0.6-4.5-1-7.1-1-7.8
	c0-0.3,0.1-0.4,0.299-0.5c0.4,0.399,0.602,0.899,0.701,1.6c0,1,0.1,1.7,0.199,1.9c0.5,2,0.801,3.2,0.801,3.6c0,0.2,0.1,0.5,0.1,0.9
	c0.1,0.5,0.199,1.1,0.199,1.899c0.102,0.301,0.102,0.601,0.102,0.801c0.199,1.6,0.299,2.899,0.299,3.8c0,2.7-0.199,5-0.4,6.899
	c-0.199,1-0.299,1.801-0.5,2.7c-0.299,2-0.5,3.601-0.699,5.101c0,0.5-0.1,1-0.1,1.399c-0.1,0.3-0.1,0.7-0.301,1.5
	c-0.199,1.3-0.6,3.5-1.199,6.8c0,0.2-0.1,0.801-0.5,2c-0.1,0.5-0.301,1.2-0.5,1.801c-0.1,0.399-0.201,0.8-0.201,1.3
	c-0.398,1.5-0.6,2.5-0.6,2.899c0,0.301,0.301,0.7,0.801,1.2c0.1,0,0.199,0.101,0.299,0.2c0.102,0,0.201,0,0.201,0v0.2
	c0.1,0.1,0.1,0.1,0.199,0.1s0.201,0,0.201,0c0.1,0,0.898,0.101,2.299,0.5c1.701,0.4,2.9,0.5,3.6,0.5c0.102,0,0.201,0,0.301,0
	c0.6-0.399,1-0.7,1.301-1.1c0.1-0.3,0.199-0.8,0.199-1.4c0-0.5-0.1-1.7-0.5-3.7c-0.1-0.899-0.199-1.699-0.199-2.399
	c-0.102-0.7-0.201-1.4-0.201-1.9c0-0.2,0-0.399,0-0.5c-0.199-3.1-0.299-5.5-0.5-7.1c-0.1-2-0.199-3-0.199-3.101
	c0-0.1,0-0.199,0.1-0.3c0-0.5,0.1-0.899,0.4-1.2c0.199-0.399,0.5-0.8,0.799-0.8c-0.199-0.1-0.398-0.1-0.6-0.1l-0.1-0.5
	c0.4-0.2,0.801-0.3,1.199-0.101c0.201,0,0.301,0.101,0.602,0.101c0.398,0,0.6,0,0.799-0.101c0-0.1,0-0.199,0.1-0.199v0.1
	c0.701-0.4,1.102-1.4,1.201-3c0-0.2-0.1-0.4-0.4-0.8c0-0.2-0.1-0.4-0.1-0.601c-0.4-0.699-0.5-1-0.5-0.899c0-0.4,0.1-0.5,0.4-0.5
	c-0.301-0.2-0.701-0.5-1.102-1.101c0-0.5,0.301-0.6,0.9-0.3c0.1,0,0.1,0,0.1,0c0.301-2,0.801-4,1.201-5.899
	c0.199-1.5,0.5-2.9,0.6-4.301c0-0.199,0-0.399,0.1-0.5c0.1-0.699,0.201-1.3,0.301-1.899c0.1-1.9,0.1-3.601,0.1-5.4v-0.1
	c0,0,0,0,0-0.101l-0.1-0.3c0-0.1,0-0.1,0.1-0.2l-0.6-4.8c0-0.2,0.1-0.399,0.299-0.5c0.201,0.3,0.201,0.5,0.4,0.9
	c-0.199-0.601-0.4-1.2-0.6-1.8c0-0.2-0.1-0.5-0.1-0.801c-0.201-0.399-0.301-0.8-0.4-1.199c-0.6-1.7-0.9-2.7-1.1-3.2l1.6,0.1
	c1.9,0,6.199-2.1,12.801-6.399c-0.4,0.5-0.9,1.699-1.301,3.199c-0.5,2-1.199,4-2.1,5.801c-0.201,0.399-0.4,0.8-0.6,1.199
	c-0.4,0.7-0.9,1.5-1.301,2.2c0.801-1,1.301-1.7,1.801-2.399c0.199-0.2,0.299-0.5,0.5-0.601l0,0l-0.201,0.5V156
	c0,0.3-0.1,0.6-0.199,1.1c-0.1,0.3-0.201,0.7-0.5,1.1c0,0,0,0.101-0.1,0.101c-0.201,0.3-0.301,0.6-0.4,0.899l0.5,0.2
	c-0.4,1.8-0.6,3.5-0.6,5.101c0,1,0.1,2.199,0.1,3.199c0,0.101,0,0.2,0.1,0.301c0,0.8,0.1,1.5,0.301,2.3c0.199,1.5,0.6,2.899,1,4.399
	c0.799,3.101,1.398,5.4,1.398,7c0,0,0,0.101,0,0.2c0,1.101-0.799,3.4-2.199,6.9c-0.199,0.3-0.301,0.6-0.5,0.899
	c-0.301,0.9-0.699,1.801-1,2.7c-1.1,2.7-1.6,4.8-1.6,6.4c0,0.399,0,1.1,0.199,2.1c0,0.101,0,0.3,0.1,0.3c0,0.101,0,0.2,0,0.2
	c0.102,1,0.201,2.3,0.201,3.4c0,0.5-0.301,1.2-0.801,2.2c-0.5,0.899-0.699,1.5-0.799,1.699c0.1,0.101,0.1,0.2,0.199,0.301
	c0.1,0.199,0.199,0.3,0.301,0.3c0.6,0.5,1.699,0.8,3.398,0.899c-0.1-0.399-0.199-0.8-0.199-1.399l-0.1-2c0-1.3,0.1-3.3,0.5-5.8
	c0.1-0.301,0.1-0.601,0.199-1c0.1-0.2,0.1-0.601,0.201-0.9c0.5-3.4,1-5.6,1.5-6.7c0-0.2,0.299-0.899,0.799-1.899
	c0.301-0.7,0.701-1.601,1.201-2.601c0.299-0.8,0.699-1.7,1.1-2.7c0.5-1,1.299-2.5,2.5-4.399c0.199-0.4,0.5-0.8,0.6-1
	c0.699-1.101,1-1.8,1-1.8c0-0.801-0.5-1.301-1.301-1.301c-0.398,0-0.799,0.101-1.299,0.301l-0.1-0.101c-0.4,0.601-0.4,1.2-0.4,1.5
	l-0.1,0.601c-0.5-0.101-0.801-0.301-0.9-0.801c-0.1-0.199-0.1-0.5-0.1-1.1c0-0.4,1.1-2.7,3.5-7.3c0.1-0.4,0.299-0.8,0.6-1.101
	c0.4-1.199,0.9-2.3,1.299-3.5c0.801-2.899,1.4-5.899,1.4-9V156c0-0.2,0-0.4,0-0.601c-0.1-0.399-0.1-0.6-0.1-1c0-0.6,0-1.399,0-2.2
	c-0.1-0.199-0.1-0.399-0.1-0.6c-0.1-1.8-0.201-2.9-0.201-3.7l0.102-1.2c0.1,0.101,0.1,0.2,0.199,0.301c0-0.5,0-0.801-0.1-1
	c0-0.5-0.1-1-0.1-1.4c-0.9-4.9-1.4-7.8-1.4-8.6c0-1.601-0.801-4.2-2.5-7.801c-0.1-0.199-0.201-0.399-0.201-0.5
	c-0.299-0.5-0.6-1-0.799-1.5c-0.201-0.399-0.5-0.8-0.701-1.199c-2-3.301-4.199-4.9-6.5-4.9H82.7c-1.5,0.1-3.6,1.4-6.5,3.9
	c-0.1,0-0.199,0.199-0.4,0.3h0.4c0,0.5,0,1,0.199,1.399c0.102,0.5,0.201,0.801,0.201,1c0,0.4-0.1,0.801-0.4,1.101
	c-0.6,1-2.1,1.899-4.5,2.5c-0.5,0.1-0.801,0.2-1.199,0.3c-1.801,0.4-3.4,0.6-4.801,0.6c-0.1,0-0.5,0-0.699,0h-0.102
	c-0.299-0.1-0.6-0.199-0.799-0.199c0,0,0.1,0.199,0.199,0.199c0,0,0,0-0.1,0c-0.1-0.1-0.301-0.199-0.5-0.399
	c-2.1-1.101-4-2.601-5.6-4.5c-0.6-0.601-1.1-1.3-1.6-2s-0.9-1.4-1.301-2.101c-1.301-2.199-2.199-4.5-2.699-6.6
	c-0.301-1.1-0.4-2.2-0.4-3.2c0-0.1,0-0.1,0-0.2V111.3c-0.1,0.2-0.201,0.5-0.301,0.8C51.7,112.1,51.7,112.1,51.7,112.2z"/>
<path fill="#E4C36C" d="M66.601,128.5l-2.1,0.199c-1,0-2,0-2.801-0.199c0.699,0.699,1.5,1.5,2.4,2.5c0.199,0,0.5,0.1,0.799,0.199
	h0.102c0.199,0,0.6,0,0.699,0c1.4,0,3-0.199,4.801-0.6c0.398-0.1,0.699-0.2,1.199-0.3c2.4-0.601,3.9-1.5,4.5-2.5
	c0.301-0.3,0.4-0.7,0.4-1.101c0-0.199-0.1-0.5-0.201-1C76.2,125.3,76.2,124.8,76.2,124.3h-0.4C72.7,127.1,69.601,128.5,66.601,128.5
	z"/>
<path fill="#C7AC5F" d="M84.101,155c0.9-1.801,1.6-3.801,2.1-5.801c0.4-1.5,0.9-2.699,1.301-3.199
	c-6.602,4.3-10.9,6.399-12.801,6.399l-1.6-0.1c0.199,0.5,0.5,1.5,1.1,3.2c0.1,0.399,0.199,0.8,0.4,1.199
	c0,0.301,0.1,0.601,0.1,0.801c0.199,0.6,0.4,1.199,0.6,1.8c0.301,0.8,0.5,2.1,0.701,3.8c0.1-0.1,0.199-0.2,0.299-0.2
	c1.5-0.5,2.301-1,2.5-1.1c1-0.5,1.801-1.3,2.4-2.101c0.4-0.5,0.699-0.899,1-1.3c0.4-0.7,0.9-1.5,1.301-2.2
	C83.7,155.8,83.899,155.4,84.101,155z"/>
<path fill="#E3C167" d="M56.501,158.6c-1.201-0.2-2.9-0.9-5.301-2.4c-0.5-0.399-1.1-0.8-2-1.399c-0.1,0-0.1,0-0.1,0l0,0
	c0.6,1.2,1.2,2.8,1.901,4.6l2.1,8.101c0.1,0.6,0.799,3.1,2,7.5c0,0.199,0,0.3,0.1,0.399c0.1,0.4,0.199,1,0.4,1.5
	c0.699,3.4,1.1,5.601,1.1,7c0.301-0.3,0.4-0.5,0.4-0.5l0.5-0.6c0-0.101-0.201-1.5-0.5-4.2c0-0.7-0.1-1.4-0.201-2.1
	c-0.1-0.5-0.199-1.101-0.299-1.601c-0.1-1-0.4-2-0.5-3c-0.201-0.6-1-3-2.201-7.1c-0.299-1.3-0.699-2.4-0.898-3.3
	C52.899,160.9,52.7,160.4,52.7,160c-0.1-0.301-0.1-0.7-0.1-1c0-0.101,0.1-0.2,0.1-0.301h0.9c0.799,0.101,1.5,0.101,2.1,0.101
	c0.301,0,0.5,0,0.699,0.1L56.501,158.6z"/>
<path fill="#E3C167" d="M83.101,159.2c-0.4,0.5-0.6,0.801-0.9,1.2c-0.6,0.8-1.5,1.5-2.699,2.4c-0.301,0.2-0.4,0.399-0.602,0.5
	c0,0.1,0,0.1,0,0.2l-0.299,2.199c0,0.9,0.1,2,0.299,3.101c0,0.5,0.102,0.899,0.201,1.5c0,0.2,0.1,0.5,0.1,0.899
	c0.301,0.9,0.5,1.9,0.801,2.9c0.1,0.7,0.699,2.2,1.799,4.3c0.801,1.7,1.301,3.101,1.4,4.101l0,0c-0.1,0-0.1,0-0.1,0
	c-0.201-0.101-0.5-0.301-0.6-0.7c-0.102,0.3-0.201,0.6-0.301,1c-0.301,1.3-0.801,3.5-1.4,6.6c-0.1,0.3-0.1,0.5-0.199,0.8
	c-0.1,1-0.301,2-0.5,2.9c-0.6,3.4-1,6.3-1.201,8.6c0,0.101,0,0.101,0,0.2C78.7,203,78.7,204,78.7,204.8c0,1.7,0.301,3,0.801,3.899
	c0.1-0.199,0.299-0.8,0.799-1.699c0.5-1,0.801-1.7,0.801-2.2c0-1.101-0.1-2.4-0.201-3.4c0,0,0-0.1,0-0.2c-0.1,0-0.1-0.199-0.1-0.3
	c-0.199-1-0.199-1.7-0.199-2.1c0-1.601,0.5-3.7,1.6-6.4c0.301-0.899,0.699-1.8,1-2.7c0.199-0.3,0.301-0.6,0.5-0.899
	c1.4-3.5,2.199-5.8,2.199-6.9c0-0.1,0-0.2,0-0.2c0-1.6-0.6-3.899-1.398-7c-0.4-1.5-0.801-2.899-1-4.399
	c-0.201-0.8-0.301-1.5-0.301-2.3c-0.1-0.101-0.1-0.2-0.1-0.301c0-1-0.1-2.199-0.1-3.199c0-1.601,0.199-3.301,0.6-5.101L83.101,159.2
	z"/>
<path fill="#E3C167" d="M70.899,190.4c-0.299,0-0.299,0-0.5,0c-0.299,0-0.6,0.4-0.799,0.8c-0.301,0.301-0.4,0.7-0.4,1.2
	c-0.1,0.101-0.1,0.2-0.1,0.3c0,0.101,0.1,1.101,0.199,3.101c0.201,1.6,0.301,4,0.5,7.1c0,0.101,0,0.3,0,0.5c0,0.5,0.1,1.2,0.201,1.9
	c0,0.7,0.1,1.5,0.199,2.399c0.4,2,0.5,3.2,0.5,3.7c0,0.601-0.1,1.101-0.199,1.4c-0.301,0.399-0.701,0.7-1.301,1.1
	c1.9-0.1,3-0.399,3.5-1.1c0.199-0.3,0.301-0.9,0.301-1.9c0-0.7-0.201-1.899-0.602-3.5c-0.299-1-0.398-2-0.398-2.899
	c-0.102-0.5-0.102-1-0.102-1.301c0-0.1,0-0.199-0.1-0.3c-0.299-2-0.5-3.1-0.5-3.399c-0.199-1.601-0.299-2.7-0.299-3.601
	c0-0.1,0-0.2,0.1-0.399c0-0.601,0.1-1.601,0.4-2.801c0-0.399,0.1-0.699,0.199-0.899c0.1-0.5,0.199-0.9,0.301-1.2
	C71.501,190.6,71.101,190.5,70.899,190.4z"/>
<path fill="#EACD83" d="M57.501,190.2c0,0.101,0,0.2,0,0.5l0.1-0.399C57.601,190.2,57.601,190.2,57.501,190.2z"/>
<path fill="#E3C167" d="M58.501,190.9l0.1-0.5c-0.4,0-0.6,0-1-0.1l-0.1,0.399c0,0.101,0,0.301,0,0.601c-0.201,0.8-0.4,2.3-0.9,4.399
	c0,0.2-0.1,0.5-0.201,0.7c-0.199,1-0.5,2-0.799,3.101c-0.201,1.199-0.9,2.6-2,4.3c-0.6,1-1.6,2.6-3,4.6c0.1,0.101,0.299,0.2,0.5,0.3
	c1,0.801,1.9,1.5,2.799,2.101l0.4-0.9c-0.4-0.6-0.6-1.399-0.699-2.1c0,0,0,0,0-0.101c0-0.699,0.4-1.6,1.1-2.8
	c0.9-1.6,1.6-3.3,2.1-4.899c0.301-1,0.6-2.101,0.801-3.5c0.1-0.301,0.299-0.801,0.299-1.101c0.102-0.2,0.102-0.5,0.102-0.7
	C58.3,192.9,58.501,191.7,58.501,190.9L58.501,190.9z"/>
<path fill="#6B6965" d="M62.8,213.8c-0.1,0-0.199,0-0.199,0c-0.1,0.399-0.201,0.7-0.301,1.1c-0.299,0.9-0.4,1.5-0.4,1.8
	c0,0.301,0.602,0.801,2,1.2c1.301,0.5,3,0.8,4.701,0.8c0,0,0,0,0.1,0c-0.4-0.3-0.5-0.5-0.6-0.5c-0.5-0.699-0.801-1.399-0.801-2
	c0-0.399,0.1-0.8,0.301-1.1c0-0.1,0.1-0.2,0.199-0.2c-0.5-0.1-1.199-0.2-2.199-0.399c-1-0.2-1.9-0.4-2.5-0.7
	C63.101,213.8,63.001,213.8,62.8,213.8z"/>
<path fill="#CCCCCC" d="M67.8,214.9c-0.1,0-0.199,0.101-0.199,0.2c-0.201,0.3-0.301,0.7-0.301,1.1c0,0.601,0.301,1.301,0.801,2
	c0.1,0,0.199,0.2,0.6,0.5c0.9,0,1.801-0.1,2.5-0.3c-0.1-0.8-0.199-1.6-0.6-2.2c-0.301-0.899-0.6-1.399-0.9-1.399
	c-0.5,0.1-1,0.1-1.5,0.1h-0.1C68.001,214.9,67.899,214.9,67.8,214.9z"/>
<path fill="#6B6965" d="M71.2,218.4c0.5-0.1,0.9-0.3,1.4-0.5c1.1-0.399,1.6-0.8,1.6-1.1c0-0.4-0.1-0.9-0.5-1.601
	c-0.4-0.899-0.6-1.399-0.6-1.5c0.1-0.199,0.199-0.3,0.4-0.3l0.1-0.1c-0.1,0-0.201-0.2-0.301-0.3c-0.1,0.199-0.199,0.3-0.199,0.399
	c-0.5,0.8-1.701,1.3-3.4,1.4c0.301,0,0.6,0.5,0.9,1.399C71.001,216.8,71.101,217.6,71.2,218.4z"/>
<path fill="#FAAC34" d="M36.6,50v0.2c0,0.3-0.1,0.3-0.4,0.4c0,0.1-0.1,0.2-0.2,0.3c0,0-0.1,0-0.2,0l0.1,0.3l0.1,0.1l0,0
	c0,0,0,0,0.1,0c1.7-0.6,3.2-1,4.5-1.3c0.2,0,0.5,0.1,0.6,0.4c0.3,0.3,0.3,0.6,0.3,0.8c0,0.3,0,0.5-0.1,0.6l0.8,0.6
	c0.5-0.8,1.1-1.4,1.4-1.9c0.7-0.8,1.4-1.5,2-2.1c-0.1-0.1-0.4-0.2-0.7-0.4c-0.6-0.3-0.8-0.4-0.9-0.4c-0.4,0-0.8,0.1-1.5,0.2
	c-0.7,0.2-1.2,0.4-1.4,0.4c-0.4,0-0.9-0.4-1.4-0.8c-0.2-0.3-0.5-0.5-0.6-0.7c-0.1-0.2-0.1-0.2-0.2-0.3c-0.2,0.1-0.3,0.3-0.4,0.4
	C37.3,48,36.7,49.1,36.6,50z"/>
<path fill="#FFCA05" d="M39.1,46.7c0.1,0.2,0.4,0.4,0.6,0.7c0.5,0.4,1,0.8,1.4,0.8c0.2,0,0.7-0.2,1.4-0.4c0.7-0.1,1.1-0.2,1.5-0.2
	c0.1,0,0.3,0.1,0.9,0.4c0.3,0.2,0.6,0.3,0.7,0.4c0.5-0.7,1.1-1.2,1.5-1.7c-0.6,0-1.3-0.6-1.9-1.8c-0.1-0.1-0.1-0.2-0.1-0.2
	c0,0.1-0.2,0.1-0.5,0.1c-0.5,0-1-0.1-1.6-0.3c-1,0-1.9,0.3-2.9,0.9c-0.3,0.3-0.8,0.5-1.1,0.8c0,0,0,0.2-0.1,0.2
	C39,46.5,39,46.5,39.1,46.7z"/>
<path fill="#EACD83" d="M27.6,54.3c-0.6,0.1-1.4,0.2-2.1,0.2c-0.2,0-0.3,0-0.4,0c-0.8,0-1.5,0.1-2.4,0.2c-0.8,0-1.7,0-2.6,0.1v0.1
	c-0.1,0-1.1,0.2-3,0.6c-0.9,0.1-1.5,0-1.8-0.5l-0.8,0.2h-3.1c-0.1-0.1-0.3-0.2-0.8-0.3c-0.6,0.4-0.9,0.6-0.9,0.9
	c0,0.6,0.4,1.8,1.3,3.6c0,0.1,0.1,0.1,0.1,0.3c1.8,0.1,3.2,0.2,4.5,0.3c1,0,1.7,0.2,2.4,0.2c1.2,0.1,2,0.2,2.4,0.2
	c0.9,0,1.8-0.1,2.8-0.2c1.4-0.2,2.9-0.6,4.4-1.2c1-0.4,2-0.8,2.6-1c0.9-0.2,1.4-0.3,1.7-0.3c0.1,0,0.2,0,0.2,0c0.5,0,0.8,0.4,0.8,1
	c0,0.3-0.4,0.8-0.9,1.7c0,0,0,0-0.1,0.1c-0.9,1.2-1.8,2.4-2.6,3.6c0,0.1,0,0.1,0,0.1l0,0c0,0,0,0,0.1,0c2.1-0.7,3.5-1.1,4.2-1.1h0.1
	l0.5,0.1h0.1c0.4-0.4,0.8-0.7,1.4-1l-0.1-0.1c0-0.1,0.1-0.5,0.4-0.9c0.3-0.7,1.1-2,2.3-3.5c0.3-0.5,0.7-1,1.1-1.6
	c0.1-0.1,0.1-0.1,0.2-0.2c0-0.1,0.1-0.2,0.1-0.2c1-1.3,1.8-2.4,2.5-3.3l-0.8-0.6C41.3,52,41.2,52,41.1,52c-0.4,0-0.7-0.1-0.8-0.3
	c-0.1-0.4-0.1-0.6-0.1-0.7c-1,0.2-2,0.5-2.9,0.8C37,52,36.6,52,36.4,52.2c-0.1,0-0.1,0-0.1,0c-0.5,0.1-1,0.3-1.4,0.5
	c-0.4,0.1-0.8,0.3-1.3,0.5c-0.5,0.2-1,0.3-1.6,0.4C30.7,53.8,29.3,54,27.6,54.3z M36.6,53c0.1,0,0.2,0,0.3-0.1
	c0.2-0.1,0.4-0.2,0.7-0.2c0.5,0,0.6,0.2,0.6,0.8c0,0.1-0.1,0.3-0.4,0.7c-0.1,0-0.1,0-0.1,0c-0.4,0.4-0.8,1-1.5,1.5
	c-0.2,0.3-0.4,0.4-0.6,0.5c-1.1,1-1.9,1.6-2.4,1.6s-0.7-0.3-0.7-0.8c0,0,0-0.2,0.1-0.3c0-0.2,0.2-0.4,0.4-0.7
	c0.1-0.3,0.5-0.5,0.9-0.9c0.3-0.4,0.8-0.8,1.5-1.3C35.9,53.5,36.3,53.2,36.6,53z"/>
<path d="M36.9,52.9C36.8,53,36.7,53,36.6,53c-0.3,0.2-0.7,0.5-1.2,0.8c-0.7,0.5-1.2,0.9-1.5,1.3c-0.4,0.4-0.8,0.6-0.9,0.9
	c-0.2,0.3-0.4,0.5-0.4,0.7c-0.1,0.1-0.1,0.3-0.1,0.3c0,0.5,0.2,0.8,0.7,0.8s1.3-0.6,2.4-1.6c0.2-0.1,0.4-0.2,0.6-0.5
	c0.7-0.5,1.1-1.1,1.5-1.5c0,0,0,0,0.1,0c0.3-0.4,0.4-0.6,0.4-0.7c0-0.6-0.1-0.8-0.6-0.8C37.3,52.7,37.1,52.8,36.9,52.9z"/>
<path fill="#E3C167" d="M23.2,60.2c-1,0.1-1.9,0.2-2.8,0.2c-0.4,0-1.2-0.1-2.4-0.2c-0.7,0-1.4-0.2-2.4-0.2c-1.3-0.1-2.7-0.2-4.5-0.3
	c0.6,1.1,1.1,2,1.4,2.5c0,0,0.1,0.2,0.1,0.3c0.3,0.3,0.5,0.9,0.6,1.5c0.1,0.3,0.2,0.8,0.3,1.3c0.3,0.9,1.1,1.6,2.2,2.2
	c1.4-0.2,3-0.5,5-0.9c0.4-0.1,0.6-0.1,1-0.2c2.2-0.6,3.5-0.9,3.9-0.9c1.4-0.5,2.6-0.9,3.7-1.3c0,0,0,0,0-0.1
	c0.8-1.2,1.7-2.4,2.6-3.6c0.1-0.1,0.1-0.1,0.1-0.1c0.5-0.9,0.9-1.4,0.9-1.7c0-0.6-0.3-1-0.8-1c0,0-0.1,0-0.2,0
	c-0.3,0-0.8,0.1-1.7,0.3c-0.6,0.2-1.6,0.6-2.6,1C26.1,59.6,24.6,60,23.2,60.2z"/>
<path fill="#E3C167" d="M42.6,133.7l-0.4-0.5c-0.7,0.801-1.6,1.301-2.3,1.301c-0.8,0-1.4,0-2-0.101c0.1,0.4,0.2,0.9,0.3,1.5
	c0,0,0,0,0,0.101l0.3-0.101c0.3,0.4,0.6,0.601,0.8,0.601C40,136.5,41.1,135.5,42.6,133.7z"/>
</svg>
