<?xml version="1.0" encoding="utf-8"?>
<!-- Generator: Adobe Illustrator 12.0.0, SVG Export Plug-In  -->
<!DOCTYPE svg PUBLIC "-//W3C//DTD SVG 1.1//EN" "http://www.w3.org/Graphics/SVG/1.1/DTD/svg11.dtd" [
	<!ENTITY ns_flows "http://ns.adobe.com/Flows/1.0/">
	<!ENTITY ns_svg "http://www.w3.org/2000/svg">
	<!ENTITY ns_xlink "http://www.w3.org/1999/xlink">
]>
<svg  version="1.1" xmlns="&ns_svg;" xmlns:xlink="&ns_xlink;" xmlns:a="http://ns.adobe.com/AdobeSVGViewerExtensions/3.0/"
	 width="141" height="118" viewBox="0 -0.313 141 118" enable-background="new 0 -0.313 141 118" xml:space="preserve">
<defs>
</defs>
<path fill="#EBD686" d="M68.7,44.986c-3.5-0.8-7.5-1.1-11.9-1.1c-6.3,0-11.5,3.1-15.3,9.3c-3.2,5.1-4.7,10.4-4.7,15.7
	c0,1.7,0.5,4.101,1.7,6.801c0.5,1.3,1.1,2.5,1.7,3.8c1.3-2.4,1.9-2.8,1.9-1.101c0,0.2-0.6,1.301-1.6,3.5
	c-1.1,2.301-1.7,4.4-1.7,6.101s1,3.1,3,4.1c2,1.101,3,2.5,3,4c0,0.101-0.1,0.5-0.2,0.9c-0.1-0.101-0.2-0.3-0.4-0.4
	c-2.7,1.4-4.1,4-4.1,7.601c0,1.3,0.1,2.399,0.2,3.5c0.1,0.3,0.2,0.5,0.2,0.8c1.3,1.899,3.5,2.7,6.8,2.7c3.2,0,5.4-0.801,6.7-2.5
	c0.6-0.801,0.9-1.7,0.9-2.601c0-1-0.4-1.8-1.1-2.5c-1-1-2.8-1.2-5.2-0.7c0,0.101,0,0.101,0-0.3c0-0.5,0.3-0.899,0.9-1.1
	c0.7-0.4,1.4-0.5,2.3-0.5c2.1,0,3.5,0.899,4.2,2.5c0.3,0.899,0.5,1.7,0.5,2.6c0,1.2-0.5,2.5-1.4,4c-0.5,0.7-0.9,1.3-1.5,1.8
	c0.5,0.101,0.9,0.101,1.4,0.101c3.2,0,5.5-0.9,6.8-2.5c0.2-0.4,0.6-0.9,1-1.601c0.2-0.199,0.2-0.3,0.4-0.3c0.1-0.1,0.3-0.1,0.4-0.2
	v-0.199c0.1-0.301,0.3-1.101,0.6-2c0.3-1.301,0.6-2.2,0.6-2.7c0-0.9-0.5-2.2-1.4-3.7c-1.3-2.2-3-3.2-5.1-3.2c-0.8,0-2,0.2-3.9,0.601
	c-1.6,0.3-2.5,0.399-2.9,0.399l0,0c2.9-1.7,5.5-2.5,7.7-2.399c-1-0.301-1.7-1.301-2.3-2.9c-0.5-2.2-0.7-3.2-0.7-3.3
	c0-0.8,0.1-1.3,0.6-1.5c0.1,0.1,0.2,0.399,0.4,0.6c0-0.1,0-0.1,0-0.1s0.8-1,2.4-2.8c2-2.101,3.4-4.101,4.4-5.801
	c0.5-0.8,1-2.399,1.8-4.5c0.6-1.899,1.2-3.199,1.7-3.899c0.1,0.399,0.3,1,0.3,1.899c0,1.601-0.5,3.5-1.5,5.7
	c-0.4,0.7-0.8,1.5-1.3,2.4c0,0-0.1,0.1-0.2,0.3l0.8-0.1c0,1.399,1.1,2.699,3.4,3.899c1.9,1,3.6,1.601,5.199,1.601
	c1.102,0,1.801-0.5,1.701-1.301c-0.1-0.8,0.1-1.6,0.4-2.3l0.299,0.2c0-0.3,0.1-0.6,0.201-0.8c0-0.101,0-0.3,0-0.5
	c0-0.101,0-0.3,0.1-0.4c0.199-1.2,0.5-1.899,0.9-2.1c0.199,4.2,0.6,7.5,1.199,9.899c1.1,3.801,3,7.101,5.6,10
	c-0.1,0.2-0.299,0.301-0.6,0.301c-0.699,0-1.301-0.101-1.801-0.601c-1.5,2.5-2.199,4.3-2.199,5.3c0,0.601,0.1,1.301,0.301,1.9
	c0.199,0.9,0.699,1.7,1.5,2.5c1.5,1.7,3.799,2.6,7,2.6c2.1,0,3.799-0.5,5.199-1.399c1.199-0.7,1.801-1.5,1.801-2.5
	c0-0.5-0.301-1.101-0.602-1.8c-0.6-0.801-1-1.5-1.398-2.101c0.1,0,0.199,0,0.398-0.1c0.301-0.101,0.602-0.101,0.801-0.101
	c1,0,1.6,0.601,2,2c0.199,0.7,0.199,1.4,0.199,2.2c0,0.4-0.1,0.9-0.199,1.3c0.5,0,1.6,0.101,3.4,0.5c1.799,0,3.1-1,3.9-3.1
	c0.6-2.1,0.898-3.1,0.898-3.2c0-1-0.6-2.2-1.699-3.5c-0.9-1.1-1.801-1.899-2.9-2.2c-0.6-0.3-1.299-0.399-2.1-0.399
	c-2.4,0-4,0.1-4.801,0.6c-0.699,0.4-1.398,0.601-1.898,0.601H91.5c-0.1,0-0.199-0.101-0.199-0.301c0-1,0.898-1.699,2.5-2
	c0.199,0,0.5-0.1,0.898-0.1c0.201-0.8,0.701-2.2,1.602-4.2c1.199-2.899,2-5,2.199-6.1c0.1-1.3,0.1-3,0.1-5.3c0-1.4,0-2.601,0-3.5
	c-0.799,0.399-1.6,0.5-2.299,0.5c-0.102,0.199-0.102,0-0.102-0.5c0-0.4,0.4-0.9,1.301-1.4c0.4-0.3,0.801-0.5,1.1-0.7
	c0-0.3,0.201-0.6,0.4-0.899c0.199,0.1,0.301,0.199,0.5,0.3c0.1-0.101,0.199-0.2,0.301-0.3c0.199-0.2,0.6-0.801,1.199-1.801
	c0.301-0.6,0.801-0.899,1.5-0.8l0.1-0.1c0.1,0,0.201,0.1,0.201,0.399c0,1-0.602,2.101-1.801,3.301c0,0.199,0.199,0.899,0.301,2.3
	c0.1,0.2,0.1,0.399,0.199,0.6c0,1.3,0.1,2.4,0.1,3.3c0,3-0.5,5.601-1.5,8l-0.6-0.199c0,0.199-0.1,0.399-0.199,0.6
	c-0.201,1.2-0.5,2.2-0.801,3l0.199,0.1c-0.1,0.2-0.1,0.2-0.1,0.301c0,0.399,0.1,1,0.201,1.699c0.199,0.7,0.5,1.101,0.699,1.101
	c0.301,0,0.801-0.101,1.5-0.3c0.801,0,1.199,0,1.5,0.199c-0.301,0.2-0.6,0.4-0.9,0.601c-0.199,0.3-0.4,0.6-0.6,0.8
	c0.9,0.2,1.699,0.6,2.301,1c1.199,0.7,2,1.4,2.6,2.3c0.1-1.5,0.9-1.5,2.4,0.2c1.699,1.7,2.5,3.4,2.5,5.2c0,1.1-0.301,2.1-0.801,3.2
	c-0.199,0.3-0.199,0.5-0.4,0.8l3.201-1.101c2.299-0.899,3.699-1.8,4.299-2.8c0.4-0.6,0.6-1.5,0.701-2.6c0-1.2,0.199-1.9,0.199-2
	c0.4,0.2,0.699,0.7,1,1.5c0.199,0.5,0.301,1,0.301,1.399c0,0.801-0.201,1.601-0.5,2.301c0-0.101,0.1-0.101,0.199-0.101
	c0.9-0.2,1.5-0.5,1.6-0.899l0.9-1.601c0-0.2,0.1-0.6,0.1-1.2c0-1.899-0.799-3.5-2.5-5c-0.1,0-0.1,0-0.1-0.1s-0.1-0.1-0.199-0.1
	v0.199c0,0.5,0,0.7,0,0.801v0.1c0,0.1-0.201,0.1-0.4,0.1c-0.6-0.699-1.4-1.3-2.1-1.8c-1.301-1.3-3.102-1.899-5.301-1.899
	c-1.699,0-3,0.1-3.801,0.3c-0.799,0.399-1.5,0.6-2.199,0.7c0,0-0.199,0-0.5,0c0,0-0.1-0.101-0.1-0.301c0-1.6,1.4-2.399,4.4-2.399
	c0-0.9,0.5-2.601,1.699-5.4c1-2.7,1.6-5.399,1.6-7.7l-0.5-7c0-0.899,0.201-2.3,0.5-4.5c0.4-2.199,0.5-3.399,0.5-3.8
	c0-3.5-1.299-7.4-4.1-11.6c-4.1-6.5-10-9.8-17.699-9.8c-3.602,0-6.801,0.8-9.5,2.1c-2.4,1.6-4,2.4-5,2.8
	c0.398-0.1,0.699-0.4,1.199-0.6c0-0.1,0-0.1,0.1-0.1l0,0l-0.299-0.4c-0.102,0.1-0.5,0.2-0.9,0.2
	C74.801,46.186,72.301,45.886,68.7,44.986z M57.6,97.586c1,0,1.9,0.5,2.7,1.5c0.8,1,1.2,1.9,1.2,2.9c0,0.6-0.2,1-0.4,1.5
	c-0.3,0.5-0.7,0.7-1.3,0.7c-2.2-1.601-3.3-2.801-3.3-4c0-0.5,0.1-1.101,0.5-1.7C57.2,98.086,57.4,97.886,57.6,97.586z M110.5,96.586
	c0.301-0.399,0.4-0.6,0.5-0.7l1-0.3c1,0.3,2,0.9,2.801,1.9c1.199,1.2,1.699,2.2,1.699,3c0,0.5-0.1,1-0.5,1.5
	c-0.301,0.399-0.699,0.6-1.199,0.6c-0.801-0.399-1.5-0.899-2.301-1.399c-1.5-1.2-2.301-2.2-2.301-3.2
	C110.199,97.586,110.301,97.086,110.5,96.586z M96.6,99.486c0-0.4,0-0.7,0.201-0.9c0,0,0.6-0.399,1.699-0.899
	c0.699-0.101,1.4,0.199,2.1,0.899c0.701,0.8,1.1,1.5,1.1,2.2c0,0.3-0.1,0.6-0.199,0.9c-0.301,0.399-0.699,0.699-1.301,0.699
	c-0.699,0-1.398-0.399-2.398-1.3C97,100.386,96.6,99.786,96.6,99.486z"/>
<path fill="#F3E7C0" d="M60.3,99.086c-0.8-1-1.7-1.5-2.7-1.5c-0.2,0.3-0.4,0.5-0.6,0.9c-0.4,0.6-0.5,1.2-0.5,1.7
	c0,1.199,1.1,2.399,3.3,4c0.6,0,1-0.2,1.3-0.7c0.2-0.5,0.4-0.9,0.4-1.5C61.5,100.986,61.1,100.086,60.3,99.086z"/>
<path fill="#F3E7C0" d="M111,95.886c-0.1,0.101-0.199,0.301-0.5,0.7c-0.199,0.5-0.301,1-0.301,1.4c0,1,0.801,2,2.301,3.2
	c0.801,0.5,1.5,1,2.301,1.399c0.5,0,0.898-0.2,1.199-0.6c0.4-0.5,0.5-1,0.5-1.5c0-0.8-0.5-1.8-1.699-3
	c-0.801-1-1.801-1.601-2.801-1.9L111,95.886z"/>
<path fill="#F3E7C0" d="M96.801,98.586c-0.201,0.2-0.201,0.5-0.201,0.9c0,0.3,0.4,0.899,1.201,1.6c1,0.9,1.699,1.3,2.398,1.3
	c0.602,0,1-0.3,1.301-0.699c0.1-0.301,0.199-0.601,0.199-0.9c0-0.7-0.398-1.4-1.1-2.2c-0.699-0.7-1.4-1-2.1-0.899
	C97.4,98.187,96.801,98.586,96.801,98.586z"/>
<path fill="#7F6950" d="M56.8,43.886c4.4,0,8.4,0.3,11.9,1.1c3.601,0.9,6.101,1.2,7.701,1.2c0.4,0,0.799-0.1,0.9-0.2v-0.1
	c-5.801-1.6-10.501-2.7-14.201-3.2c-6.8-1-12.4,0.2-16.8,3.7c-1.2,0.8-2.8,2.5-4.9,5c-2.4,2.8-3.6,4.8-3.6,5.8c0,0.1,0,0.3-0.1,0.5
	c-5.5-0.1-9.7,1.2-12.5,3.8c-0.9,0.899-1.9,2.1-2.7,3.5c-0.7,1.6-1.3,2.6-1.7,3.2c-1.2,1.8-1.8,3.899-2,6.5
	c-0.1,0.5-0.1,0.899-0.1,1.399c-0.1,0.4-0.1,0.8,0,1.101c0,1.199,0.1,2.6,0.1,4.199c0.2,1.7-0.7,3.801-2.6,6.2
	c-1.2,1.3-3.4,3.4-6.6,6.3c-6.4,5.7-9.6,10-9.6,13c0,2,1,4.101,3.1,6.101c3.3,3.1,8.4,4.7,15.4,4.7c2.3,0,4.1-0.801,5.6-2.5
	c1.1-1.2,1.7-2.301,1.7-3.101c0-2-1.8-3.5-5.3-4.399c-3.5-1-5.2-2.601-5.2-4.601c0-1.6,0.6-3.1,1.9-4.2c0.6-0.399,2-1.3,4.3-2.699
	c4.1-2.301,6.3-5.5,6.3-9.5c0-0.801-0.3-2.301-0.8-4.5c-0.6-2.101-0.9-3.301-0.9-3.7c0-2.9,1.6-5.7,4.9-8.5c1.5-1.4,3.2-2.5,4.8-3.4
	c0-0.2,0-0.399-0.1-0.399c-0.1,0.1-0.1,0.1-0.1,0c-0.5-0.101-1-0.101-1.3-0.101c-2.7,0-4.8,1.101-6.5,3.4
	c-0.6,0.6-1.1,1.5-1.5,2.399c-1.4,2.601-2,5.101-2,7.301c0,1,0.3,2.399,1,4.3c0.6,1.899,1,3.399,1,4.399c0,1.801-0.7,3.301-2,4.601
	c-0.8,0.7-2.2,1.7-4.3,2.899c-1,0.601-2,1.2-2.7,1.801c-2.3,1.8-3.5,3.8-3.5,5.899c0,3.101,1.7,5,5.2,5.9c2.1,0.5,3.3,0.8,3.6,1
	c1.1,0.5,1.7,1.2,1.7,2.2c0,0.8-0.6,1.5-1.7,2.399c-1.6,1.101-4.1,1.8-7.3,1.8c-4.2,0-7.7-1.399-10.5-3.899
	c-2.3-2.101-3.4-4-3.4-5.8c0-2.101,1-4.301,2.9-6.601c1.2-1.2,3.3-3.1,6.5-5.6c0.9-0.8,1.7-1.4,2.5-2c1.8-1.5,3.2-2.9,4-3.9
	c2-2.399,3.1-4.6,3.2-7c0-0.899,0-1.7,0-2.5c0-1.5,0-2.8,0.1-3.899c0-1.301,0.2-2.601,0.5-3.801c0.2-1,0.5-2,0.9-2.8
	c2.2-4.899,7.3-8.3,15.5-10.2l-0.3,1.3c-0.2,0.6-0.3,1.199-0.4,1.899c-0.5,2-0.8,3.601-0.9,5c0,0.101,0,0.101,0,0.101
	c-0.1,0.899-0.1,1.699-0.1,2.3c0,0,0.2,2,0.7,5.899c0.8,3.801,1.8,5.7,3,5.7l0,0c-1.2,2.5-1.9,5-1.9,7.4c0,1.7,0.7,3.1,1.9,4.3
	c0.4,0.3,0.8,0.7,1.1,0.9c-0.8,2.5-1.5,4.8-2.3,6.699c-0.5,1.2-0.7,3.301-0.7,6.101c0,1.6,0.5,2.899,1.4,4c1.8,2.1,5.3,3.2,10.5,3.2
	c0.7,0,1.3,0,1.8-0.2c0.7,0.399,2.1,0.6,4,0.6c3,0,5.3-0.899,7.1-2.6c0.1-0.101,0.2-0.2,0.4-0.4l0,0c0.9-0.8,1.4-1.6,1.5-2.399
	c0.5-0.4,1-1.301,1.4-2.801c0.1,0,0.1-0.1,0.1-0.199c0.3-1.2,0.5-2.101,0.5-2.801c0-1.399-0.3-2.5-0.8-3.6c1.8,0.8,2.6,2.2,2.6,4.2
	c0,1.2-0.3,2.399-0.8,3.6c0,0.3-0.1,0.4-0.2,0.601c-0.3,0.5-0.9,1.3-2.1,2.199c-1.2,0.7-1.7,1.301-1.9,1.601l0,0l0.4,0.1l1.3,0.101
	c1.3,0,2.5-0.7,3.4-2.2c0,0,0,0,0.1-0.101c0,0.101,0,0.2,0,0.301c0.7,0.399,2.2,0.699,4.7,0.699c1,0,2.301-0.5,4-1.6
	c1-0.6,1.801-1.1,2.301-1.5c0.199,0.4,0.5,0.9,0.898,1.4c1.801,2.399,4.602,3.699,8.602,3.699c3,0,5.199-0.699,6.699-1.899
	c0.5-0.4,0.801-0.8,1.1-1.3c0.1,0.199,0.201,0.3,0.4,0.399c0.6,0.4,1.801,0.5,3.5,0.5c1.1,0,2.1-0.2,3-0.7
	c0,0.101,0.199,0.101,0.301,0.301c0.5,0.399,1,0.5,1.5,0.5c0,0,0.199-0.101,0.398-0.2c0.102,0.1,0.102,0.1,0.102,0.1
	c0.398,0.4,0.699,0.5,0.898,0.5c1.102,0,2-0.5,2.701-1.399c0,0.199,0,0.199,0.1,0.3c0,0,0,0,0.1,0.1h2.9c2.301-0.5,4-1.2,5.1-2.2
	c0.5,0.2,0.9,0.301,1.4,0.301c1.5,0,2.6-0.801,3.5-2.4c0.5-1.2,0.801-2.2,0.801-3.2c0-1.399-0.301-2.899-1-4.2
	c-0.801-1.8-2-2.3-3.5-1.6c-0.4-1.9-2.801-3.2-7.201-3.7c-0.4-0.1-0.799-0.1-1.1-0.1c0-1.3,0.4-2.8,1.1-4.5
	c0.9-2.101,1.301-4.601,1.301-7.5l-0.6-8.2c0-1.5,0.199-3.2,0.699-5.2c0.301-1.899,0.5-4,0.5-6.2c0-3.3-1.699-7-5.199-11.399
	c-4.102-5-8.801-7.6-14-7.6c-6.201,0.2-10.701,1.1-13.5,2.5c-1.301,1.1-2.301,1.9-3.201,2.5l0,0c-0.1,0-0.1,0-0.1,0.1
	c-0.5,0.2-0.801,0.5-1.199,0.6c1-0.4,2.6-1.2,5-2.8c2.699-1.3,5.898-2.1,9.5-2.1c7.699,0,13.6,3.3,17.699,9.8
	c2.801,4.2,4.1,8.1,4.1,11.6c0,0.4-0.1,1.601-0.5,3.8c-0.299,2.2-0.5,3.601-0.5,4.5l0.5,7c0,2.301-0.6,5-1.6,7.7
	c-1.199,2.8-1.699,4.5-1.699,5.4c-3,0-4.4,0.8-4.4,2.399c0,0.2,0.1,0.301,0.1,0.301c0.301,0,0.5,0,0.5,0
	c0.699-0.101,1.4-0.301,2.199-0.7c0.801-0.2,2.102-0.3,3.801-0.3c2.199,0,4,0.6,5.301,1.899c0.699,0.5,1.5,1.101,2.1,1.8
	c0.199,0,0.4,0,0.4-0.1v-0.1c0-0.101,0-0.301,0-0.801v-0.199c0.1,0,0.199,0,0.199,0.1s0,0.1,0.1,0.1c1.701,1.5,2.5,3.101,2.5,5
	c0,0.601-0.1,1-0.1,1.2l-0.9,1.601c-0.1,0.399-0.699,0.699-1.6,0.899c-0.1,0-0.199,0-0.199,0.101c0.299-0.7,0.5-1.5,0.5-2.301
	c0-0.399-0.102-0.899-0.301-1.399c-0.301-0.8-0.6-1.3-1-1.5c0,0.1-0.199,0.8-0.199,2c-0.102,1.1-0.301,2-0.701,2.6
	c-0.6,1-2,1.9-4.299,2.8l-3.201,1.101c0.201-0.3,0.201-0.5,0.4-0.8c0.5-1.101,0.801-2.101,0.801-3.2c0-1.8-0.801-3.5-2.5-5.2
	c-1.5-1.7-2.301-1.7-2.4-0.2c-0.6-0.899-1.4-1.6-2.6-2.3c-0.602-0.4-1.4-0.8-2.301-1c-0.5-0.2-1.1-0.4-1.699-0.6
	c-0.102,0-0.201,0-0.301,0c-0.1-0.101-0.199-0.101-0.4-0.101c-0.6-0.1-1.299-0.2-1.799-0.3c0.699-0.8,1.199-2,1.699-3.5
	c0.301-0.8,0.6-1.8,0.801-3c0.1-0.2,0.199-0.4,0.199-0.6c0.699-3.101,1-5.801,1-8.2c0-1.101,0-2,0-2.9c0-0.8-0.199-1.5-0.301-2
	c0.102-0.2,0.301-0.399,0.5-0.6c0.102,0,0.201-0.101,0.301-0.3c1.199-1.2,1.801-2.301,1.801-3.301c0-0.3-0.102-0.399-0.201-0.399
	l-0.1,0.1c-0.699-0.1-1.199,0.2-1.5,0.8c-0.6,1-1,1.601-1.199,1.801c-0.102,0.1-0.201,0.199-0.301,0.3
	c-0.199-0.101-0.301-0.2-0.5-0.3c-0.199,0.3-0.4,0.6-0.4,0.899c-0.299,0.2-0.699,0.4-1.1,0.7c-0.9,0.5-1.301,1-1.301,1.4
	c0,0.5,0,0.699,0.102,0.5c0.699,0,1.5-0.101,2.299-0.5c0,0.899,0,2.1,0,3.5c0,2.3,0,4-0.1,5.3c-0.199,1.1-1,3.2-2.199,6.1
	c-0.9,2-1.4,3.4-1.602,4.2c-0.398,0-0.699,0.1-0.898,0.1c-1.602,0.301-2.5,1-2.5,2c0,0.2,0.1,0.301,0.199,0.301h0.301
	c0.5,0,1.199-0.2,1.898-0.601c0.801-0.5,2.4-0.6,4.801-0.6c0.801,0,1.5,0.1,2.1,0.399c1.1,0.301,2,1.101,2.9,2.2
	c1.1,1.3,1.699,2.5,1.699,3.5c0,0.101-0.299,1.101-0.898,3.2c-0.801,2.1-2.102,3.1-3.9,3.1c-1.801-0.399-2.9-0.5-3.4-0.5
	c0.1-0.399,0.199-0.899,0.199-1.3c0-0.8,0-1.5-0.199-2.2c-0.4-1.399-1-2-2-2c-0.199,0-0.5,0-0.801,0.101
	c-0.199,0.1-0.299,0.1-0.398,0.1c0.398,0.601,0.799,1.3,1.398,2.101c0.301,0.699,0.602,1.3,0.602,1.8c0,1-0.602,1.8-1.801,2.5
	c-1.4,0.899-3.1,1.399-5.199,1.399c-3.201,0-5.5-0.899-7-2.6c-0.801-0.8-1.301-1.6-1.5-2.5c-0.201-0.6-0.301-1.3-0.301-1.9
	c0-1,0.699-2.8,2.199-5.3c0.5,0.5,1.102,0.601,1.801,0.601c0.301,0,0.5-0.101,0.6-0.301c-2.6-2.899-4.5-6.199-5.6-10
	c-0.6-2.399-1-5.699-1.199-9.899c-0.4,0.2-0.701,0.899-0.9,2.1c-0.1,0.101-0.1,0.3-0.1,0.4c0,0.2,0,0.399,0,0.5
	c-0.102,0.2-0.201,0.5-0.201,0.8c0,0.1,0.5,2.3,1.4,6.8c0,0.101,0,0.3,0,0.4c0,0,0,0,0,0.1c0.1,0.3,0.199,0.601,0.301,1
	c0.898,3.4,2,5.601,3.199,7c-1,0.3-1.699,1.2-2.301,2.5v0.101C79,99.386,78,98.486,76.5,97.486c-1-0.601-1.801-0.9-2.199-0.8
	c0-0.2,0-0.601,0-0.9c0-0.9-0.102-1.8-0.4-2.7c0,0,0,0-0.1-0.1c-0.301-1-0.801-1.5-1.5-1.4c0.1,0.101,0.199,0.601,0.299,1.601
	c0.201,0.699,0.4,1.5,0.6,2.699c0,0.5-0.199,1.2-0.6,2.2c-0.299,1.101-0.4,1.601-0.4,1.7c0,0.2,0,0.4,0.102,0.6
	c0,0,0.1,0.101,0.199,0.2c0.9-1.2,1.5-2.1,1.6-2.6c0.701,0.1,1.6,0.6,2.9,1.6c0.6,0.5,1.301,1,1.9,1.5c-0.1,0.5-0.301,0.9-0.301,1.3
	c-0.1,0.5-0.1,0.9-0.1,1.301c0,0.899,0.199,1.899,0.6,2.8c-0.6,0.1-1.6,0.5-2.699,1c-1.6,0.7-2.801,1.1-3.4,1.1
	c-1.801,0-3-0.1-3.5-0.399c-0.5-0.2-0.7-0.301-0.7-0.301c0-0.1,0-0.1,0-0.199v-0.101c0.7-1.6,1-3.2,1-4.6c0-0.601-0.1-1.4-0.3-2
	c-0.3-0.9-0.8-1.7-1.5-2.5c-1.2-1.601-2.2-1.8-3-0.5c-0.5-0.8-1.1-1.5-1.9-2.101c-0.1-0.199-0.3-0.3-0.3-0.3
	c-0.8-0.6-1.5-0.899-2.3-1.1c0,0,0.1-0.101,0.1-0.3c0-0.2,0-0.301,0-0.301c-1.1-1-1.8-2.199-2.3-3.8c-0.3-1-0.5-1.8-0.8-2.5
	c-0.1,0-0.1,0-0.1,0c0.1,0,0.1,0,0.2,0c0.9-0.399,1.7-0.8,2.6-1.5c0.6,0.8,1.6,1.601,3.3,2.5c1,0.601,2,1.101,3,1.4
	c1.9,0.7,3.699,1.1,5.5,1.1c0.199,0,0.301,0,0.301,0c2.5-0.1,4.1-0.2,4.898-0.6c0.201-0.101,0.4-0.5,0.602-0.9L77.5,89.187
	c-0.5,0.3-1,0.399-1.4,0.5c-0.9,0.3-2.199,0.399-3.9,0.399c-1.899,0-4.699-1-8.199-3c-1.3-0.7-2.3-1.3-3-1.6c1.3-1.3,2.6-3,3.8-5.2
	c0.1-0.2,0.2-0.3,0.2-0.3c0.5-0.9,0.9-1.7,1.3-2.4c1-2.2,1.5-4.1,1.5-5.7c0-0.899-0.2-1.5-0.3-1.899c-0.5,0.7-1.1,2-1.7,3.899
	c-0.8,2.101-1.3,3.7-1.8,4.5c-1,1.7-2.4,3.7-4.4,5.801c-1.6,1.8-2.4,2.8-2.4,2.8s0,0,0,0.1c-0.2-0.2-0.3-0.5-0.4-0.6
	c-0.5,0.2-0.6,0.7-0.6,1.5c0,0.1,0.2,1.1,0.7,3.3c0.6,1.6,1.3,2.6,2.3,2.9c-2.2-0.101-4.8,0.699-7.7,2.399l0,0
	c0.4,0,1.3-0.1,2.9-0.399c1.9-0.4,3.1-0.601,3.9-0.601c2.1,0,3.8,1,5.1,3.2c0.9,1.5,1.4,2.8,1.4,3.7c0,0.5-0.3,1.399-0.6,2.7
	c-0.3,0.899-0.5,1.699-0.6,2v0.199c-0.1,0.101-0.3,0.101-0.4,0.2c-0.2,0-0.2,0.101-0.4,0.3c-0.4,0.7-0.8,1.2-1,1.601
	c-1.3,1.6-3.6,2.5-6.8,2.5c-0.5,0-0.9,0-1.4-0.101c0.6-0.5,1-1.1,1.5-1.8c0.9-1.5,1.4-2.8,1.4-4c0-0.899-0.2-1.7-0.5-2.6
	c-0.7-1.601-2.1-2.5-4.2-2.5c-0.9,0-1.6,0.1-2.3,0.5c-0.6,0.2-0.9,0.6-0.9,1.1c0,0.4,0,0.4,0,0.3c2.4-0.5,4.2-0.3,5.2,0.7
	c0.7,0.7,1.1,1.5,1.1,2.5c0,0.9-0.3,1.8-0.9,2.601c-1.3,1.699-3.5,2.5-6.7,2.5c-3.3,0-5.5-0.801-6.8-2.7c-0.2-0.3-0.3-0.5-0.5-0.8
	c-0.5-0.801-0.7-2-0.7-3.5c0-0.2,0-0.4,0-0.601c0-1.8,0.5-3.7,1.4-5.899c0.8-1.7,1.3-2.7,1.4-3.101c0.9,0.9,1.7,1.5,2.1,2
	c0.2,0.101,0.3,0.3,0.4,0.4c0.1-0.4,0.2-0.8,0.2-0.9c0-1.5-1-2.899-3-4c-2-1-3-2.399-3-4.1s0.6-3.8,1.7-6.101
	c1-2.199,1.6-3.3,1.6-3.5c0-1.699-0.6-1.3-1.9,1.101c-0.6-1.3-1.2-2.5-1.7-3.8c-1.2-2.7-1.7-5.101-1.7-6.801
	c0-5.3,1.5-10.6,4.7-15.7C45.3,46.986,50.5,43.886,56.8,43.886z M107.5,100.986c1.1,1.2,1.699,2.399,1.699,3.3
	c0,1.1-0.199,2.1-0.699,2.8c-0.5,1-1.4,1.601-2.5,1.9c-0.5-0.4-1-0.8-1.5-1c0.5-0.5,0.801-1,1.1-1.601
	c0.801-1.399,1.201-2.8,1.201-4.399c0-0.9-0.301-1.8-0.602-2.5C106.4,99.786,106.9,100.286,107.5,100.986z"/>
<path fill="#EBD686" d="M109.199,104.286c0-0.9-0.6-2.1-1.699-3.3c-0.6-0.7-1.1-1.2-1.301-1.5c0.301,0.7,0.602,1.6,0.602,2.5
	c0,1.6-0.4,3-1.201,4.399c-0.299,0.601-0.6,1.101-1.1,1.601c0.5,0.2,1,0.6,1.5,1c1.1-0.3,2-0.9,2.5-1.9
	C109,106.386,109.199,105.386,109.199,104.286z"/>
<path fill="#CFB368" d="M36.8,61.586c0.1-0.7,0.2-1.3,0.4-1.899l0.3-1.3c-8.2,1.9-13.3,5.3-15.5,10.2c-0.4,0.8-0.7,1.8-0.9,2.8
	c0.4-0.399,0.7-0.8,1.1-1.199c1.1-0.9,2.1-1.301,3.2-1.301c1,0,1.8,0.101,2.4,0.601c1.7-2.3,3.8-3.4,6.5-3.4c0.3,0,0.8,0,1.3,0.101
	c0,0.1,0,0.1,0.1,0c0.1,0,0.1,0.199,0.1,0.399h0.1C36,65.187,36.3,63.586,36.8,61.586z"/>
<path fill="#937E67" d="M57.4,87.586c0,0,0,0,0.1,0c0.3,0.7,0.5,1.5,0.8,2.5c0.5,1.601,1.2,2.8,2.3,3.8c0,0,0,0.101,0,0.301
	c0,0.199-0.1,0.3-0.1,0.3c0.8,0.2,1.5,0.5,2.3,1.1c0.1-2.6,0.3-4.1,0.5-4.5c0.3-0.5,1.3-0.6,3.1-0.6c0.4,0,1.2,0.399,2.3,1.399
	c1.1,0.801,2.3,1.301,3.8,1.301h0.1c-0.1-1-0.199-1.5-0.299-1.601v-0.5c0,0-0.102,0-0.301,0c-1.801,0-3.6-0.399-5.5-1.1
	c-1-0.3-2-0.8-3-1.4c-1.7-0.899-2.7-1.7-3.3-2.5c-0.9,0.7-1.7,1.101-2.6,1.5C57.5,87.586,57.5,87.586,57.4,87.586z"/>
<path fill="#CFB368" d="M69,84.086c-2.3-1.2-3.4-2.5-3.4-3.899l-0.8,0.1c-1.2,2.2-2.5,3.9-3.8,5.2c0.7,0.3,1.7,0.899,3,1.6
	c3.5,2,6.3,3,8.199,3c1.701,0,3-0.1,3.9-0.399c0.4-0.101,0.9-0.2,1.4-0.5l0.5-0.101c-0.9-4.5-1.4-6.7-1.4-6.8l-0.299-0.2
	c-0.301,0.7-0.5,1.5-0.4,2.3c0.1,0.801-0.6,1.301-1.701,1.301C72.6,85.687,70.9,85.086,69,84.086z"/>
<path fill="#EBD686" d="M25.4,68.886c-1.1,0-2.1,0.4-3.2,1.301c-0.4,0.399-0.7,0.8-1.1,1.199c-0.3,1.2-0.5,2.5-0.5,3.801
	c-0.1,1.1-0.1,2.399-0.1,3.899c0,0.8,0,1.601,0,2.5c-0.1,2.4-1.2,4.601-3.2,7c-0.8,1-2.2,2.4-4,3.9c-0.8,0.6-1.6,1.2-2.5,2
	c-3.2,2.5-5.3,4.399-6.5,5.6c-1.9,2.3-2.9,4.5-2.9,6.601c0,1.8,1.1,3.699,3.4,5.8c2.8,2.5,6.3,3.899,10.5,3.899
	c3.2,0,5.7-0.699,7.3-1.8c1.1-0.899,1.7-1.6,1.7-2.399c0-1-0.6-1.7-1.7-2.2c-0.3-0.2-1.5-0.5-3.6-1c-3.5-0.9-5.2-2.8-5.2-5.9
	c0-2.1,1.2-4.1,3.5-5.899c0.7-0.601,1.7-1.2,2.7-1.801c2.1-1.199,3.5-2.199,4.3-2.899c1.3-1.3,2-2.8,2-4.601c0-1-0.4-2.5-1-4.399
	c-0.7-1.9-1-3.3-1-4.3c0-2.2,0.6-4.7,2-7.301c0.4-0.899,0.9-1.8,1.5-2.399C27.2,68.986,26.4,68.886,25.4,68.886z"/>
<path fill="#B5936C" d="M65,97.986c0.8-1.3,1.8-1.101,3,0.5c0.7,0.8,1.2,1.6,1.5,2.5c0.2,0.6,0.3,1.399,0.3,2c0,1.399-0.3,3-1,4.6
	v0.101c0,0.1,0,0.1,0,0.199c0,0,0.2,0.101,0.7,0.301c0.5,0.3,1.699,0.399,3.5,0.399c0.6,0,1.801-0.399,3.4-1.1
	c1.1-0.5,2.1-0.9,2.699-1c-0.4-0.9-0.6-1.9-0.6-2.8c0-0.4,0-0.801,0.1-1.301c0-0.399,0.201-0.8,0.301-1.3c-0.6-0.5-1.301-1-1.9-1.5
	c-1.301-1-2.199-1.5-2.9-1.6c-0.1,0.5-0.699,1.399-1.6,2.6c-0.1-0.1-0.199-0.2-0.199-0.2c-0.102-0.199-0.102-0.399-0.102-0.6
	c0-0.1,0.102-0.6,0.4-1.7c0.4-1,0.6-1.7,0.6-2.2c-0.199-1.199-0.398-2-0.6-2.699h-0.1c-1.5,0-2.7-0.5-3.8-1.301
	c-1.1-1-1.9-1.399-2.3-1.399c-1.8,0-2.8,0.1-3.1,0.6c-0.2,0.4-0.4,1.9-0.5,4.5c0,0,0.2,0.101,0.3,0.3
	C63.9,96.486,64.5,97.187,65,97.986z"/>
<path fill="#EBD686" d="M67.3,106.586c0.5-1.2,0.8-2.399,0.8-3.6c0-2-0.8-3.4-2.6-4.2c0.5,1.1,0.8,2.2,0.8,3.6
	c0,0.7-0.2,1.601-0.5,2.801c0,0.1,0,0.199-0.1,0.199c-0.4,1.5-0.9,2.4-1.4,2.801c-0.1,0.8-0.6,1.6-1.5,2.399l0.3,0.4
	c0.2-0.3,0.7-0.9,1.9-1.601c1.2-0.899,1.8-1.699,2.1-2.199C67.2,106.986,67.3,106.886,67.3,106.586z"/>
<path fill="#CFB368" d="M44.2,96.586c-0.4-0.5-1.2-1.1-2.1-2c-0.1,0.4-0.6,1.4-1.4,3.101c-0.9,2.199-1.4,4.1-1.4,5.899
	c0,0.2,0,0.4,0,0.601c0,1.5,0.2,2.699,0.7,3.5c0.2,0.3,0.3,0.5,0.5,0.8c0-0.3-0.1-0.5-0.2-0.8c-0.1-1.101-0.2-2.2-0.2-3.5
	C40.1,100.586,41.5,97.986,44.2,96.586z"/>
<path fill="#CFB368" d="M101.301,75.986c-0.102-1.4-0.301-2.101-0.301-2.3c-0.1,0.199-0.199,0.3-0.301,0.3
	c-0.199,0.2-0.398,0.399-0.5,0.6c0.102,0.5,0.301,1.2,0.301,2c0,0.9,0,1.8,0,2.9c0,2.399-0.301,5.1-1,8.2l0.6,0.199
	c1-2.399,1.5-5,1.5-8c0-0.899-0.1-2-0.1-3.3C101.4,76.386,101.4,76.187,101.301,75.986z"/>
<path fill="#CFB368" d="M98.699,91.386l-0.199-0.1c-0.5,1.5-1,2.7-1.699,3.5c0.5,0.1,1.199,0.2,1.799,0.3c0.201,0,0.301,0,0.4,0.101
	c0.1,0,0.199,0,0.301,0c0.6,0.199,1.199,0.399,1.699,0.6c0.199-0.2,0.4-0.5,0.6-0.8c0.301-0.2,0.6-0.4,0.9-0.601
	c-0.301-0.199-0.699-0.199-1.5-0.199c-0.699,0.199-1.199,0.3-1.5,0.3c-0.199,0-0.5-0.4-0.699-1.101
	c-0.102-0.699-0.201-1.3-0.201-1.699C98.6,91.586,98.6,91.586,98.699,91.386z"/>
<path fill="#EBD686" d="M78,89.486c0-0.101,0-0.3,0-0.4l-0.5,0.101l0.301,0.399H78C78,89.486,78,89.486,78,89.486z"/>
<path fill="#E7D079" d="M114,1.986h0.1l-0.199-0.2c-5.6,0.6-9.301,1.6-11.4,2.9c-1,0.7-1.699,1.3-2.301,1.7
	c-0.1,0.1-0.199,0.2-0.199,0.3c0,0,0.1,0,0.199,0c1.5-0.2,3.102-0.2,4.801-0.1c-1.699,0.4-4,1-7.1,1.5c-0.6,0.1-1.1,0.2-1.6,0.3
	c0,0,0,0-0.102,0c-1.199,0.3-2,0.6-2.5,0.8c-0.5,0.4-0.898,0.7-1.398,1c-2.102,1.3-3.5,2.4-4.102,3.2c-0.5,0.5-0.898,1.3-1.398,2
	c0,0.1,0,0.2,0,0.2c-0.4,0.8-0.801,1.6-1,2.6c-0.4,1.2-1,2.8-1.602,5c-0.199,0.1-0.398,0.2-0.699,0.2c0,0-0.199,0.3-0.301,0.9
	c-0.199,0.6-0.398,1.1-0.398,1.7c0.199,0.4,0.199,0.9,0.199,1.6c-0.5,1.5-0.9,2.8-1.4,3.6c-0.1,0.2-0.199,0.4-0.299,0.5
	c-0.102,0.8-0.301,1.2-0.301,1.2c0,1,0.199,1.8,0.5,2.7c0,0.2,0.1,0.4,0.301,0.6v-1.2H82c0.4,1,1,2.8,1.801,5.6
	c0.699,2.6,1.5,4.6,2.199,5.9c0.301,0.5,0.699,1.5,1.199,2.9c0.301,1.3,0.801,2.3,1.301,3l0.699-0.3c-0.398-0.9-0.699-2-1-3.2
	c-0.199-2.7-0.398-4-0.398-4c0-1.5,0.1-2.3,0.299-2.5c0.1,0,0.701-0.2,1.9-0.4c-0.4-1.2-0.699-2-0.9-2.6c-0.299-1-0.6-1.9-0.6-2.5
	c0-0.3,0-0.4,0-0.6c0.1-0.3,0.301-0.3,0.801-0.3c0.299,0,1,0,1.799,0.3c0.201,0,0.201-0.1,0.301-0.1c-0.9-2.8-1.201-5-1.201-6.8
	c0-1.1,0.4-1.7,1.301-1.7h0.301c0,0,0.299,0.1,0.799,0.2c0.801,1.3,1.701,2.5,2.701,3.3l0,0c0-0.8,0.898-1.7,2.699-2.8l-0.199-0.2
	c0,0.1-0.102,0.2-0.301,0.2c-1,0-1.6-0.7-2-2.2c-0.1-1.4-0.199-2.1-0.199-2.2c0-1.4,0.5-2.5,1.299-3.1c0.9-0.7,2.201-0.8,3.9-0.5
	c3,0.4,4.699,1.7,5,3.8l0.801-0.1l-0.301-2.7c-0.199-0.8-0.699-1.6-1.199-2.4c-0.4-0.8-0.701-1.2-0.801-1.4
	c-0.199-0.4-0.5-0.9-1-1.4l0.5-0.5c0-0.7,1.1-1.8,3.1-3.1c2.4-1.6,4.5-2.4,6.6-2.4h0.301c0,0-0.1,0.1-0.199,0.2
	c-0.102,0.2-0.301,0.5-0.602,1c-0.398,0.5-0.5,1-0.5,1.3c0,0.3,0.801,0.5,2.701,0.7c1.9,0.2,2.9,0.5,3.1,1l0.301,0.6
	c-0.301,0.2-0.602,0.6-1,1c-0.9,1.4-1.4,3.4-1.4,6.2c0,0.5,0.1,1.2,0.1,2c0.699,0.2,1.301,0.5,2,0.9c-0.199-0.3-0.301-0.5-0.301-0.8
	c0-0.9,0.5-1.6,1.301-2c0.9-0.4,2-0.5,3.1-0.3c1.4,0.2,2.5,0.9,3.301,1.7c0.699,0.9,1.1,2.1,1.1,3.5c0,0.5-0.4,1.2-1,2.2
	c-0.199,0.2-0.301,0.4-0.5,0.5c0.5,0.3,0.801,0.7,1,1.1c0,0,0,0.2,0,0.3l0.6,0.3c0.701-1.7,1-3.9,1-6.3c0-1.1,0-2.1-0.1-3.1
	c0.301-0.1,0.699-0.3,1.199-0.8c-0.398-0.8-0.699-2.2-1.1-4l-0.799-0.5c-0.102,0-0.102,0-0.102,0c-0.199,0.4-0.199,0.7-0.398,0.8
	c-0.102,0.3-0.301,0.4-0.301,0.4c-0.5,0-2.699-1.1-7-3.4c0,0-0.1,0-0.199-0.1c0-2.2,1.5-2.9,4.199-2.1c2.199,0.5,3.5,1.2,4,2
	c0,0.1,0,0.1,0.1,0.2c-0.1-0.2-0.1-0.3-0.1-0.3c0-1-0.4-1.9-1.199-3c-1-1.3-2.5-1.8-4.301-1.5c-0.199,0.2-0.301,0.4-0.5,0.6
	l-0.699-0.1c0,0.2-0.102,0-0.102-0.4c0-0.3,0.102-0.6,0.4-0.8c0.5-0.3,0.9-0.8,1.1-1.3c-0.898-0.4-2.1-0.5-3.398-0.5L118,6.686
	c-0.9,0.9-1.6,1.5-2,1.9c-0.301,0-0.5-0.2-0.5-0.6c0-0.8,0.5-1.7,1.5-2.6l-0.199-0.3c-0.5,0.1-1.102,0.1-1.602,0.1
	c-0.699,0.1-1.199,0.2-1.199,0.2c-0.301,0-0.5-0.1-0.5-0.2c0,0-0.1-0.2-0.199-0.2c0.398-0.6,0.699-1,0.898-1
	c0.201-0.1,0.801-0.1,1.801-0.2l-0.5-0.7c-0.199,0.1-0.301,0.2-0.5,0.3c-2.4,1.6-3.801,2.6-4.199,3H110.5
	c0.699-1.8,1.801-3.2,3.5-4.3V1.986z M94.5,11.586c0.801-0.5,1.6-0.9,2.301-1c1.799-0.5,2.799,0.4,2.799,2.6
	c-0.1,0.1-0.1,0.2-0.299,0.2c-0.801,0.5-1.801,1-2.801,1.5c-1,0.7-2,1.3-2.801,1.8c-1.1,0.8-2.1,1.5-2.799,2.3
	c-0.1,0.1-0.1,0.2-0.201,0.2L90,19.086c-0.1-0.2-0.1-0.3,0-0.5c0-0.4,0-0.6,0-0.7c0-0.2,0-0.5-0.301-1c-0.199-0.5-0.398-0.8-0.398-1
	c0-0.2,0.6-0.9,1.699-1.8c0.801-0.7,1.699-1.4,2.6-2C93.9,11.886,94.199,11.686,94.5,11.586z"/>
<path fill="#7F6950" d="M96.801,10.586c-0.701,0.1-1.5,0.5-2.301,1c-0.301,0.1-0.6,0.3-0.9,0.5c-0.9,0.6-1.799,1.3-2.6,2
	c-1.1,0.9-1.699,1.6-1.699,1.8c0,0.2,0.199,0.5,0.398,1c0.301,0.5,0.301,0.8,0.301,1c0,0.1,0,0.3,0,0.7c-0.1,0.2-0.1,0.3,0,0.5
	l0.699,0.1c0.102,0,0.102-0.1,0.201-0.2c0.699-0.8,1.699-1.5,2.799-2.3c0.801-0.5,1.801-1.1,2.801-1.8c1-0.5,2-1,2.801-1.5
	c0.199,0,0.199-0.1,0.299-0.2C99.6,10.986,98.6,10.086,96.801,10.586z M90.699,17.086c-0.199-0.3-0.199-0.7-0.199-1.1
	c0-0.6,1.199-1.6,3.699-2.8c2.4-1.2,3.701-1.3,3.801-0.3c-1.5,0.5-2.9,1.2-4.301,2.1C92.301,15.986,91.301,16.686,90.699,17.086z"/>
<path fill="#9D794F" d="M90.5,15.986c0,0.4,0,0.8,0.199,1.1c0.602-0.4,1.602-1.1,3-2.1c1.4-0.9,2.801-1.6,4.301-2.1
	c-0.1-1-1.4-0.9-3.801,0.3C91.699,14.386,90.5,15.386,90.5,15.986z"/>
<path fill="#7F6950" d="M114.1,1.986H114v0.1c-1.699,1.1-2.801,2.5-3.5,4.3h0.301c0.398-0.4,1.799-1.4,4.199-3
	c0.199-0.1,0.301-0.2,0.5-0.3c1.801-1.2,2.699-1.9,2.699-2.1c0-0.4-0.398-0.7-1-0.8c-0.799-0.1-2.6-0.2-5.199-0.1
	c-2.6-0.4-5.801,0.6-9.801,2.9c-2.898,1.7-4.699,3.1-5.299,4.1c-3.701,0.8-6.701,2.4-9.1,4.8c-0.701,0.8-1.301,1.5-1.801,2.3
	c-0.801-0.1-2,0.5-3.699,1.7c-3.5,3-5.801,4.8-6.801,5.3c-3,1.8-4.801,3-5.301,3.5c-1,1-1.5,2.3-1.5,4.2c0,1.1,0.9,2.8,2.8,5
	c2.301,2.7,4.801,4.1,7.6,4.1c1.201,0,1.9-0.1,2.1-0.4c0.102-0.1,0.201-0.3,0.301-0.5c-2.199-0.9-4-1.7-5.5-2.5
	c-1.699-0.9-3-1.7-3.801-2.6c-1.399-1.3-2.199-3-2.199-4.9c0-0.7,2.801-2.7,8.5-5.9c2.4-1.5,4.301-2.6,5.699-3.5
	c-0.6,1.5-0.898,3-0.898,4.7c0,0.2,0.1,0.5,0.199,1c0.301,0,0.5-0.1,0.699-0.2c0.602-2.2,1.201-3.8,1.602-5c0.199-1,0.6-1.8,1-2.6
	c0,0,0-0.1,0-0.2c0.5-0.7,0.898-1.5,1.398-2c0.602-0.8,2-1.9,4.102-3.2c0.5-0.3,0.898-0.6,1.398-1c0.5-0.2,1.301-0.5,2.5-0.8
	c0.102,0,0.102,0,0.102,0c0.5-0.1,1-0.2,1.6-0.3c3.1-0.5,5.4-1.1,7.1-1.5c-1.699-0.1-3.301-0.1-4.801,0.1c-0.1,0-0.199,0-0.199,0
	c0-0.1,0.1-0.2,0.199-0.3c0.602-0.4,1.301-1,2.301-1.7c2.1-1.3,5.801-2.3,11.4-2.9c0.1-0.1,0.299-0.1,0.4-0.1L114.1,1.986z"/>
<path fill="#EBD686" d="M113.9,1.786l0.199,0.2l0.201-0.3C114.199,1.686,114,1.686,113.9,1.786z"/>
<path fill="#7F6950" d="M113.301,4.986c0.1,0,0.199,0.2,0.199,0.2c0,0.1,0.199,0.2,0.5,0.2c0,0,0.5-0.1,1.199-0.2
	c0.5,0,1.102,0,1.602-0.1c0.1,0,0.199,0,0.199,0c0.1,0,0.199,0,0.199,0L117,5.186c0,0.1,0,0.1,0,0.2c-1,0.9-1.5,1.8-1.5,2.6
	c0,0.4,0.199,0.6,0.5,0.6c0.4-0.4,1.1-1,2-1.9l0,0c0.699-0.7,1.5-1.5,2.6-2.6c-0.299-0.4-0.699-0.5-1.1-0.5
	c-1.5,0.1-2.699,0.1-3.5,0.2c-1,0.1-1.6,0.1-1.801,0.2C114,3.986,113.699,4.386,113.301,4.986z"/>
<path fill="#EBD686" d="M113.5,10.186h-0.301c-2.1,0-4.199,0.8-6.6,2.4c-2,1.3-3.1,2.4-3.1,3.1l-0.5,0.5c0.5,0.5,0.801,1,1,1.4
	c0.1,0.2,0.4,0.6,0.801,1.4c0.5,0.8,1,1.6,1.199,2.4l0.301,2.7l-0.801,0.1c0.1,0.2,0.1,0.5,0.1,0.8c0,0.1-0.1,0.4-0.1,0.7h0.1
	c0.4,0,0.701,0,0.9,0c0.301,0,0.5,0,0.699,0c0.102,0.1,0.301,0.1,0.5,0.2c-0.199,0-0.299,0.1-0.5,0.3c-0.1,0-0.199,0-0.199,0
	c-0.1,0.1-0.199,0.2-0.199,0.2c-1.301,0.5-3.201,1.3-5.801,2.2c-3,0.9-4.699,2-5.301,3c-0.199,0-0.299,0-0.398,0c0,0,0-0.2,0-0.4
	l0,0l0,0c-1-0.8-1.9-2-2.701-3.3c-0.5-0.1-0.799-0.2-0.799-0.2H91.5c-0.9,0-1.301,0.6-1.301,1.7c0,1.8,0.301,4,1.201,6.8
	c-0.1,0-0.1,0.1-0.301,0.1c-0.799-0.3-1.5-0.3-1.799-0.3c-0.5,0-0.701,0-0.801,0.3c0,0.2,0,0.3,0,0.6c0,0.6,0.301,1.5,0.6,2.5
	c0.201,0.6,0.5,1.4,0.9,2.6c-1.199,0.2-1.801,0.4-1.9,0.4c-0.199,0.2-0.299,1-0.299,2.5c0,0,0.199,1.3,0.398,4
	c0.301,1.2,0.602,2.3,1,3.2l-0.699,0.3c0,0.1,0.1,0.2,0.1,0.2c0.701,0.8,1.5,1.5,2.6,2.1c1.5,0.9,3.5,1.6,6,2
	c-0.5-0.8-0.898-1.8-1.398-2.8c0.398,0.1,0.799,0.4,1.199,1c0.5,0.5,0.801,1.1,1.301,2.1c0.1,0,0.199,0,0.199,0c0,0.1,0,0.2,0,0.4
	c0.199,0.4,0.4,0.8,0.6,1.3c1.9,2.8,5.4,4.2,10.701,4.2c2,0,3.799-0.699,5.6-1.899c0,0,0,0,0.1,0c0.1-0.2,0.199-0.3,0.301-0.4
	c0.1,0,0.1,0,0.1,0s0,0-0.1,0c-0.201,0-0.301,0-0.602,0c-5.898,0-9.898-1.6-12.1-4.6c-0.199-0.4-0.4-0.6-0.6-1
	c-0.699-1.3-1-2.9-1-4.6c0-0.2,0-0.3,0-0.3c0-0.2,0-0.5-0.1-0.6c-0.1-0.8-0.4-1.5-0.9-2.3c-0.6-1.1-1.5-2-2.699-2.7
	c0.799-0.7,1.398-0.9,1.898-0.9c0.102,0,0.102,0,0.102,0s0.898,0.4,2.5,1.1c2.1,0.8,4.799,1.2,8,1.2c1.699,0,3.199-0.4,4.199-1.2
	c1.1-0.7,1.801-1.1,2-1.1h0.1c0.1,0,0.1,0,0.1,0.3c0,0.1,0,0.1,0,0.2c0.201,0,0.801,0.3,1.801,0.7c1,0.3,1.801,0.6,2.301,0.6
	c1.299,0,2.5-0.4,3.699-1.3c1.1-0.9,1.801-1.7,1.801-2.6c0-0.4-0.301-0.9-0.801-1.7c-0.4-0.8-0.5-1.4-0.5-1.8l0.6-0.4
	c-0.1-0.1-0.1-0.1-0.1-0.1c-0.301-0.6-0.6-1-0.699-1.1c0.799-0.1,1.398,0.1,2,0.4c0.5,0.3,0.898,0.9,1.199,1.8l0.301-0.2
	c-0.102-0.1-0.102-0.3-0.102-0.7c0.301-1.2,0.4-2.3,0.701-3.1c0.1-0.4,0.199-0.6,0.299-0.8c0-0.1,0-0.1,0.102-0.1
	c0-0.1,0.1-0.1,0.199,0c0,0,0,0,0,0.2c0,0.2,0.1,0.8,0.1,1.7c0,0.5-0.1,1-0.1,1.4c-0.1,0.1-0.199,0.3-0.199,0.5
	c0-0.1,0.199-0.1,0.199-0.1c0.9-0.5,2.301-1.2,4.301-1.9c0-0.1,0.199-0.1,0.299-0.2c3.4-1.4,5-2.9,5-4.4c0-1-1.1-2.7-3.5-5.2
	c-0.1,0-0.1-0.1-0.199-0.2c-2.4-2.5-3.801-4-4.4-4.7h-0.1l-1.1-0.1c-0.4,0-0.602,0-0.801,0.2l0,0c-0.1,0.2-0.199,0.5-0.199,0.7v0.1
	l0,0c0-0.1,0-0.2-0.102-0.3c-0.5,0.5-0.898,0.7-1.199,0.8c0.1,1,0.1,2,0.1,3.1c0,2.4-0.299,4.6-1,6.3l-0.6-0.3
	c0,0.1,0,0.1-0.301,0.1c-0.5,0-0.898-0.2-1.199-0.6c0-0.1,0-0.1-0.199-0.2c-0.201,0.1-0.4,0.3-0.602,0.3c-0.299,0-0.5,0-0.5,0
	c-0.199-0.1-0.199-0.2-0.199-0.5c-0.199,0-0.301,0-0.4,0c0.301,0.6,0.5,1.2,0.701,1.7c0-0.1,0.199-0.1,0.199,0
	c0.5,0.3,0.801,0.9,0.801,2.1c0,0.5-0.102,1.2-0.301,1.8c-0.301,0.7-0.699,1.4-1.199,2.1c-1.4,1.9-3.102,2.8-5.102,2.8
	c-3.1,0-5.398-1.3-7-3.8c-1.1-2.6-1.699-4.1-1.699-4.4l0,0c0.1-0.1,0.199-0.1,0.199-0.1c-0.1-0.4-0.199-1-0.398-1.9
	c-0.201-0.9-0.4-1.5-0.602-2l0.102-0.1c0.1-0.1,0.199-0.2,0.5-0.2c0.5,0,0.799,0.3,0.699,0.9c-0.199,1-0.301,1.6-0.199,1.8
	c0.199,1.8,3.199,2.6,8.898,2.6c0.301,0,1.5-0.1,3.602-0.6c-0.5-1.6-1.301-3.2-2.5-4.7c-0.801-1.1-1.801-2-2.801-2.8
	c-0.1-0.2-0.199-0.2-0.301-0.3c-0.6-0.4-1.199-0.9-1.898-1.2c0.5-0.1,1.199-0.1,1.699,0.1c0-0.8-0.1-1.5-0.1-2
	c0-2.8,0.5-4.8,1.4-6.2c0.398-0.4,0.699-0.8,1-1l-0.301-0.6c-0.199-0.5-1.199-0.8-3.1-1c-1.9-0.2-2.701-0.4-2.701-0.7
	c0-0.3,0.102-0.8,0.5-1.3c0.301-0.5,0.5-0.8,0.602-1C113.4,10.286,113.5,10.186,113.5,10.186z M134,27.086c1,0.9,1.6,1.8,1.6,2.8
	c0,0.8-0.199,1.3-0.6,1.7c-0.5,0.6-1.699,0.9-3.199,0.9c-0.701,0-1.201-0.1-1.5-0.2c-0.4-0.1-0.602-0.4-0.602-0.6
	c0-0.8,0.102-1.3,0.301-1.7c0.301-0.6,0.5-1.4,0.699-2.3l-0.199-0.7c0.1-0.1,0.199-0.2,0.301-0.3c0.5-0.3,1-0.4,1.5-0.4
	C132.801,26.386,133.4,26.586,134,27.086z M97.801,39.186c0.199,0.4,0.398,0.5,0.398,0.7c-1.398,0.7-2.199,1.8-2.398,3.1
	c-0.102,0.4-0.102,1,0,1.6l0,0c0,0.1,0,0.1,0,0.2c0,0.4,0.1,1,0.199,1.6v0.1c-0.4-0.1-0.699-0.4-0.699-0.8
	c-0.102-0.1-0.102-0.5-0.102-1.1c0-1,0.201-2.1,0.602-3C96.301,40.386,97,39.586,97.801,39.186z"/>
<path fill="#7F6950" d="M135.6,29.886c0-1-0.6-1.9-1.6-2.8c-0.6-0.5-1.199-0.7-1.699-0.8c-0.5,0-1,0.1-1.5,0.4
	c-0.102,0.1-0.201,0.2-0.301,0.3c0.1,0,0.199,0,0.301,0.1c0.1,0,0.1,0,0.199,0.1c0.801,0.2,1.5,0.7,2,1.2c0.301,0.4,0.699,1,1.199,2
	c0,0-0.398,0.3-1.199,0.7l-1.9-0.1c0.5-1.3,0.4-2.4-0.4-3.3c-0.199,0.9-0.398,1.7-0.699,2.3c-0.199,0.4-0.301,0.9-0.301,1.7
	c0,0.2,0.201,0.5,0.602,0.6c0.299,0.1,0.799,0.2,1.5,0.2c1.5,0,2.699-0.3,3.199-0.9C135.4,31.186,135.6,30.686,135.6,29.886z"/>
<path fill="#F4811F" d="M134.199,30.386c-0.5-1-0.898-1.6-1.199-2c-0.5-0.5-1.199-1-2-1.2c-0.1-0.1-0.1-0.1-0.199-0.1
	c-0.102-0.1-0.201-0.1-0.301-0.1l0.199,0.7c0.801,0.9,0.9,2,0.4,3.3l1.9,0.1C133.801,30.686,134.199,30.386,134.199,30.386z"/>
<path fill="#7F6950" d="M98.199,39.886c0-0.2-0.199-0.3-0.398-0.7c-0.801,0.4-1.5,1.2-2,2.4c-0.4,0.9-0.602,2-0.602,3
	c0,0.6,0,1,0.102,1.1c0,0.4,0.299,0.7,0.699,0.8v-0.1c-0.1-0.6-0.199-1.2-0.199-1.6c0-0.1,0-0.1,0-0.2l0,0
	c-0.102-0.6-0.102-1.2,0-1.6C96,41.686,96.801,40.586,98.199,39.886z"/>
<path fill="#7F6950" d="M118,6.686c0.1,0.2,0.199,0.4,0.301,0.7c1.299,0,2.5,0.1,3.398,0.5c-0.199,0.5-0.6,1-1.1,1.3
	c-0.299,0.2-0.4,0.5-0.4,0.8c0,0.4,0.102,0.6,0.102,0.4l0.699,0.1c0.199-0.2,0.301-0.4,0.5-0.6c1.801-0.3,3.301,0.2,4.301,1.5
	c0.799,1.1,1.199,2,1.199,3c0,0,0,0.1,0.1,0.3c-0.1-0.1-0.1-0.1-0.1-0.2c-0.5-0.8-1.801-1.5-4-2c-2.699-0.8-4.199-0.1-4.199,2.1
	c0.1,0.1,0.199,0.1,0.199,0.1c4.301,2.3,6.5,3.4,7,3.4c0,0,0.199-0.1,0.301-0.4c0.199-0.1,0.199-0.4,0.398-0.8c0,0,0,0,0.102,0l0,0
	c0.199-0.7,0.398-1.2,0.398-1.6c0.102,0.5,0.301,1.2,0.4,2.1c0.4,1.8,0.701,3.2,1.1,4c0.102,0.1,0.102,0.2,0.102,0.3l0,0v-0.1
	c0-0.2,0.1-0.5,0.199-0.7c-0.1-0.1-0.1-0.1,0-0.1c0-0.2,0-0.4,0-0.6c0-0.2,0-0.3,0-0.4s0-0.1,0-0.1c0.1-0.2,0.1-0.5,0.1-0.6
	c0-0.2-0.199-1.1-0.6-2.6c-0.5-1.6-0.699-2.6-1-3.1c-1-2.4-2.199-4-3.9-4.9c-0.1-0.1-0.199-0.1-0.299-0.1c0-0.1,0-0.1,0.1-0.2
	c0.6-0.5,0.9-0.8,0.9-1c0-0.1-0.102-0.3-0.102-0.3l-0.699-0.2H118z M125.199,16.686c-0.898-0.5-1.699-1-2.199-1.3
	c-0.9-0.5-1.801-0.8-2.801-1l0.4-1c0.4,0,1.4,0.3,2.9,1c1.5,0.6,2.301,1.1,2.301,1.3C125.801,15.886,125.6,16.186,125.199,16.686z"
	/>
<path fill="#9D794F" d="M123,15.386c0.5,0.3,1.301,0.8,2.199,1.3c0.4-0.5,0.602-0.8,0.602-1c0-0.2-0.801-0.7-2.301-1.3
	c-1.5-0.7-2.5-1-2.9-1l-0.4,1C121.199,14.586,122.1,14.886,123,15.386z"/>
<path fill="#EBD686" d="M126.801,16.886L126.801,16.886l0.799,0.5c-0.1-0.9-0.299-1.6-0.4-2.1
	C127.199,15.686,127,16.186,126.801,16.886z"/>
<path fill="#7F6950" d="M125.4,23.686c-0.801-0.8-1.9-1.5-3.301-1.7c-1.1-0.2-2.199-0.1-3.1,0.3c-0.801,0.4-1.301,1.1-1.301,2
	c0,0.3,0.102,0.5,0.301,0.8c-0.699-0.4-1.301-0.7-2-0.9c-0.5-0.2-1.199-0.2-1.699-0.1c0.699,0.3,1.299,0.8,1.898,1.2
	c0.102,0.1,0.201,0.1,0.301,0.3c1,0.8,2,1.7,2.801,2.8c1.199,1.5,2,3.1,2.5,4.7c-2.102,0.5-3.301,0.6-3.602,0.6
	c-5.699,0-8.699-0.8-8.898-2.6c-0.102-0.2,0-0.8,0.199-1.8c0.1-0.6-0.199-0.9-0.699-0.9c-0.301,0-0.4,0.1-0.5,0.2l-0.102,0.1
	c0.201,0.5,0.4,1.1,0.602,2c0.199,0.9,0.299,1.5,0.398,1.9c0,0-0.1,0-0.199,0.1l0,0c0,0.3,0.6,1.8,1.699,4.4
	c1.602,2.5,3.9,3.8,7,3.8c2,0,3.701-0.9,5.102-2.8c0.5-0.7,0.898-1.4,1.199-2.1c0.199-0.6,0.301-1.3,0.301-1.8
	c0-1.2-0.301-1.8-0.801-2.1c0-0.1-0.199-0.1-0.199,0c-0.201-0.5-0.4-1.1-0.701-1.7c0.1,0,0.201,0,0.4,0c0,0.3,0,0.4,0.199,0.5
	c0,0,0.201,0,0.5,0c0.201,0,0.4-0.2,0.602-0.3c0.199,0.1,0.199,0.1,0.199,0.2c0.301,0.4,0.699,0.6,1.199,0.6
	c0.301,0,0.301,0,0.301-0.1s0-0.3,0-0.3c-0.199-0.4-0.5-0.8-1-1.1c0.199-0.1,0.301-0.3,0.5-0.5c0.6-1,1-1.7,1-2.2
	C126.5,25.786,126.1,24.586,125.4,23.686z M120.801,23.186c0.199,0,0.398,0,0.6,0c0.1-0.1,0.4-0.1,0.6-0.1c0.5,0,1,0.2,1.5,0.6
	c-0.1,0-0.199,0-0.301-0.1c0.4,0.3,0.602,0.5,0.701,0.6c0.199,0.1,0.4,0.4,0.5,0.7c0.4,0.7,0.6,1.1,0.6,1.5c0,0.5-0.4,1.2-1,2.2
	c-0.199,0.3-0.301,0.4-0.5,0.6c-0.801-0.3-1.301-0.3-1.6,0c-0.4-0.5-0.801-1.1-1.301-1.7c-0.1-0.1-0.1-0.1-0.1-0.1
	c-0.301-0.4-0.5-0.7-0.801-0.9l0.301-1.8c0-0.4,0.301-0.8,0.699-1.4C120.699,23.286,120.699,23.286,120.801,23.186z M119.301,24.186
	c0.199-0.3,0.6-0.6,1-0.8c-0.602,0.8-0.801,1.7-0.801,2.9c-0.301-0.3-0.699-0.6-0.9-0.8C118.801,25.286,119,24.886,119.301,24.186z
	 M112.199,35.886c-0.5-0.7-0.898-1.2-1.199-1.6c1.6,0.7,4.1,0.9,7.5,0.9c1.801,0,3-0.2,3.801-0.6c-0.102,1-0.5,1.9-1,2.6
	c-1,1.4-2.4,2-4.301,2C115.199,39.186,113.6,38.086,112.199,35.886z"/>
<path fill="#4CA3C9" d="M121.4,23.186c-0.201,0-0.4,0-0.6,0c-0.102,0-0.102,0-0.102,0.1c-0.398,0.6-0.699,1-0.699,1.4l-0.301,1.8
	c0.301,0.2,0.5,0.5,0.801,0.9c0,0,0,0,0.1,0.1c0.5,0.6,0.9,1.2,1.301,1.7c0.299-0.3,0.799-0.3,1.6,0c0.199-0.2,0.301-0.3,0.5-0.6
	c0.6-1,1-1.7,1-2.2c0-0.4-0.199-0.8-0.6-1.5c-0.1,0-0.1,0-0.1-0.1c0,0.8,0,1.3-0.102,1.6c-0.398,1.1-1.199,1.6-2.5,1.6
	c-0.299,0-0.6-0.3-0.898-0.7c-0.301-0.4-0.301-0.6-0.301-0.7c0-0.4,0.1-0.9,0.4-1.6h0.1c-0.199,0.1-0.301,0.2-0.4,0.2
	c-0.299,0-0.299-0.2-0.299-0.4c0-0.7,0.199-1.1,0.6-1.2c0.4-0.2,0.6,0,0.6,0.3c0,0.1,0,0.1,0,0.2c0.199-0.2,0.301-0.3,0.5-0.4
	c-0.1,0.2-0.199,0.4-0.199,0.6l0.6-0.3c0.1-0.1,0.1-0.3,0.1-0.6c0.199,0,0.5,0.1,0.699,0.2c0.102,0.1,0.201,0.1,0.301,0.1
	c-0.5-0.4-1-0.6-1.5-0.6C121.801,23.086,121.5,23.086,121.4,23.186z"/>
<path fill="#FFFFFF" d="M121.5,24.086c0-0.1,0-0.1,0-0.2c0-0.3-0.199-0.5-0.6-0.3c-0.4,0.1-0.6,0.5-0.6,1.2c0,0.2,0,0.4,0.299,0.4
	c0.1,0,0.201-0.1,0.4-0.2c0-0.1,0.199-0.2,0.301-0.3C121.4,24.386,121.5,24.186,121.5,24.086z"/>
<path fill="#FFFFFF" d="M120.699,23.286c0-0.1,0-0.1,0.102-0.1C120.699,23.286,120.699,23.286,120.699,23.286z"/>
<path fill="#FFFFFF" d="M122.301,24.086c0-0.1,0-0.1,0.1-0.1l-0.6,0.3c-0.102,0.1-0.201,0.4-0.201,0.5c-0.199,0.6-0.299,1-0.299,1.3
	c0,0.3,0.1,0.5,0.299,0.7c0.201,0.2,0.4,0.3,0.4,0.3l1-0.1c0.199-0.3,0.199-0.6,0.199-0.8c0-0.1-0.199-0.5-0.398-1.2
	C122.5,24.386,122.301,24.186,122.301,24.086z"/>
<path d="M122.4,23.986c-0.1,0-0.1,0-0.1,0.1c0,0.1,0.199,0.3,0.5,0.9c0.199,0.7,0.398,1.1,0.398,1.2c0,0.2,0,0.5-0.199,0.8l-1,0.1
	c0,0-0.199-0.1-0.4-0.3c-0.199-0.2-0.299-0.4-0.299-0.7c0-0.3,0.1-0.7,0.299-1.3c0-0.1,0.1-0.4,0.201-0.5c0-0.2,0.1-0.4,0.199-0.6
	c-0.199,0.1-0.301,0.2-0.5,0.4c0,0.1-0.1,0.3-0.199,0.6c-0.102,0.1-0.301,0.2-0.301,0.3h-0.1c-0.301,0.7-0.4,1.2-0.4,1.6
	c0,0.1,0,0.3,0.301,0.7c0.299,0.4,0.6,0.7,0.898,0.7c1.301,0,2.102-0.5,2.5-1.6c0.102-0.3,0.102-0.8,0.102-1.6c0,0.1,0,0.1,0.1,0.1
	c-0.1-0.3-0.301-0.6-0.5-0.7c-0.1-0.1-0.301-0.3-0.701-0.6c-0.199-0.1-0.5-0.2-0.699-0.2C122.5,23.686,122.5,23.886,122.4,23.986z"
	/>
<path fill="#FFFFFF" d="M120.301,23.386c-0.4,0.2-0.801,0.5-1,0.8c-0.301,0.7-0.5,1.1-0.701,1.3c0.201,0.2,0.6,0.5,0.9,0.8
	C119.5,25.086,119.699,24.186,120.301,23.386z"/>
<path fill="#333333" d="M111,34.286c0.301,0.4,0.699,0.9,1.199,1.6c1.4,2.2,3,3.3,4.801,3.3c1.9,0,3.301-0.6,4.301-2
	c0.5-0.7,0.898-1.6,1-2.6c-0.801,0.4-2,0.6-3.801,0.6C115.1,35.186,112.6,34.986,111,34.286z"/>
<path fill="#7F6950" d="M106.801,26.386c0,0,0.1-0.1,0.199-0.2c0,0,0.1,0,0.199,0c0.201-0.2,0.301-0.3,0.5-0.3
	c-0.199-0.1-0.398-0.1-0.5-0.2c-0.199,0-0.398,0-0.699,0c-0.199,0-0.5,0-0.9,0h-0.1c0-0.3,0.1-0.6,0.1-0.7c0-0.3,0-0.6-0.1-0.8
	c-0.301-2.1-2-3.4-5-3.8c-1.699-0.3-3-0.2-3.9,0.5c-0.799,0.6-1.299,1.7-1.299,3.1c0,0.1,0.1,0.8,0.199,2.2c0.4,1.5,1,2.2,2,2.2
	c0.199,0,0.301-0.1,0.301-0.2c0-0.2,0-0.3,0-0.3c-0.201-0.4-0.4-1-0.801-1.9c-0.301-0.9-0.5-1.5-0.5-1.8c0-0.8,0.301-1.4,0.801-1.8
	c-0.102,0.3-0.102,0.5-0.102,0.6c0,0,0.102,0.9,0.602,2.4c0.5,1.4,1,2.2,1.699,2.3c-0.5,0.2-1,0.5-1.5,0.7
	c-1.801,1.1-2.699,2-2.699,2.8l0,0c0,0.2,0,0.4,0,0.4c0.1,0,0.199,0,0.398,0c0.602-1,2.301-2.1,5.301-3
	C103.6,27.686,105.5,26.886,106.801,26.386z M97.5,22.186c0,0,0,0,0.1,0c0.201-0.1,0.301-0.2,0.4-0.3c0.6-0.2,1.5-0.3,2.4-0.4
	c0.1,0,0.199,0,0.299,0c0.602,0,1.301,0.2,1.801,0.7c0.301,0.1,0.5,0.3,0.699,0.5c0,0,0,0.1,0.102,0.2c0.199,0.3,0.5,0.6,0.699,1
	c0.301,0.5,0.699,1.2,1,1.9c-0.9,0.1-1.9,0.4-3,0.9c-0.199,0-0.199,0-0.4,0c-0.4,0.2-1,0.5-1.5,0.7c-0.1,0-0.199,0.1-0.299,0.2
	c-1-1.1-1.801-2.5-2.4-4.3c-0.1-0.1-0.1-0.3-0.1-0.4C97.301,22.586,97.5,22.386,97.5,22.186z"/>
<path fill="#FFFFFF" d="M97.6,22.186c-0.1,0-0.1,0-0.1,0c0,0.2-0.199,0.4-0.199,0.7c0,0.1,0,0.3,0.1,0.4c0-0.1,0-0.1,0-0.1
	C97.4,22.786,97.5,22.386,97.6,22.186z"/>
<path fill="#4CA3C9" d="M97.4,23.186c0,0,0,0,0,0.1c0.6,1.8,1.4,3.2,2.4,4.3c0.1-0.1,0.199-0.2,0.299-0.2c0.5-0.2,1.1-0.5,1.5-0.7
	l0,0c-1.1,0-1.799-0.5-2.199-1.6l-0.1-1.2c-0.201,0.1-0.301,0.1-0.4,0.1c-0.301,0-0.4-0.1-0.4-0.3v-0.3c0-0.5,0.199-0.8,0.801-1.1
	c0.199-0.1,0.299-0.1,0.5-0.1c0.199-0.2,0.398-0.3,0.699-0.3c0.199,0,0.5,0,0.9,0.1c0.4,0.2,0.699,0.3,0.9,0.4
	c0.299,0.2,0.5,0.4,0.699,0.6c0.4,0.4,0.5,0.9,0.5,1.4c0,0.2,0,0.5-0.199,0.7c0,0.1,0,0.1,0,0.1c0,0.2-0.102,0.3-0.301,0.5l0,0l0,0
	c-0.1,0.1-0.1,0.1-0.1,0.2c-0.4,0.3-0.6,0.6-0.9,0.8c1.1-0.5,2.1-0.8,3-0.9c-0.301-0.7-0.699-1.4-1-1.9c-0.199-0.4-0.5-0.7-0.699-1
	c-0.102-0.1-0.102-0.2-0.102-0.2c-0.199-0.2-0.398-0.4-0.699-0.5c-0.5-0.5-1.199-0.7-1.801-0.7c-0.1,0-0.199,0-0.299,0
	c-0.9,0.1-1.801,0.2-2.4,0.4c-0.1,0.1-0.199,0.2-0.4,0.3C97.5,22.386,97.4,22.786,97.4,23.186z"/>
<path fill="#FFFFFF" d="M98.5,23.386v0.3c0,0.2,0.1,0.3,0.4,0.3c0.1,0,0.199,0,0.4-0.1c0.1,0,0.199-0.2,0.398-0.5
	c0.201-0.2,0.301-0.5,0.301-0.7c0-0.3-0.1-0.5-0.199-0.5c-0.201,0-0.301,0-0.5,0.1C98.699,22.586,98.5,22.886,98.5,23.386z"/>
<path d="M99.699,23.386c-0.199,0.3-0.299,0.5-0.398,0.5l0.1,1.2c0.4,1.1,1.1,1.6,2.199,1.6c0.1,0,0.201,0,0.4,0
	c0.301-0.2,0.5-0.5,0.9-0.8c0-0.1,0-0.1,0.1-0.2l0,0l0,0c0.199-0.2,0.301-0.3,0.301-0.5c0,0,0,0,0-0.1
	c0.199-0.2,0.199-0.5,0.199-0.7c0-0.5-0.1-1-0.5-1.4c-0.199-0.2-0.4-0.4-0.699-0.6c-0.201-0.1-0.5-0.2-0.9-0.4
	c-0.4-0.1-0.701-0.1-0.9-0.1c-0.301,0-0.5,0.1-0.699,0.3c0.1,0,0.199,0.2,0.199,0.5C100,22.886,99.9,23.186,99.699,23.386z
	 M100.301,23.386c0.199-0.5,0.699-0.7,1.199-0.7c0,0.7,0.5,1.4,1.5,2.3c0,0.2-0.199,0.4-0.301,0.6c-0.199,0.3-0.5,0.4-0.898,0.4
	c-0.5,0-0.801-0.1-1.201-0.5c-0.299-0.3-0.5-0.8-0.5-1.3L100.301,23.386z"/>
<path fill="#FFFFFF" d="M101.5,22.686c-0.5,0-1,0.2-1.199,0.7l-0.201,0.8c0,0.5,0.201,1,0.5,1.3c0.4,0.4,0.701,0.5,1.201,0.5
	c0.398,0,0.699-0.1,0.898-0.4c0.102-0.2,0.301-0.4,0.301-0.6C102,24.086,101.5,23.386,101.5,22.686z"/>
<path fill="#E7D079" d="M130.5,20.386c0.1,0,0.199,0,0.301,0c-0.301-0.2-1-0.4-1.801-0.6c0,0.1,0,0.2,0,0.4c0,0.2,0,0.4,0,0.6
	c-0.1,0-0.1,0,0,0.1l0,0c0.199-0.2,0.4-0.2,0.801-0.2l1.1,0.1h0.1C130.699,20.586,130.6,20.386,130.5,20.386z"/>
<path fill="#7F6950" d="M130.801,20.386c-0.102,0-0.201,0-0.301,0c0.1,0,0.199,0.2,0.5,0.4c0.6,0.7,2,2.2,4.4,4.7
	c0.1,0.1,0.1,0.2,0.199,0.2c2.4,2.5,3.5,4.2,3.5,5.2c0,1.5-1.6,3-5,4.4c-0.1,0.1-0.299,0.1-0.299,0.2c-2,0.7-3.4,1.4-4.301,1.9
	c0,0-0.199,0-0.199,0.1c0-0.2,0.1-0.4,0.199-0.5c0-0.4,0.1-0.9,0.1-1.4c0-0.9-0.1-1.5-0.1-1.7c0-0.2,0-0.2,0-0.2
	c-0.1-0.1-0.199-0.1-0.199,0c-0.102,0-0.102,0-0.102,0.1c-0.1,0.2-0.199,0.4-0.299,0.8c-0.301,0.8-0.4,1.9-0.701,3.1
	c0,0.4,0,0.6,0.102,0.7c0,0.1,0.1,0.2,0.199,0.3l0.1-0.1c0.1,0.2,0.201,0.3,0.5,0.3c3.201,0,6-1.2,8.4-3.3
	c2.1-1.9,3.199-3.4,3.199-4.9c0-1.8-0.898-3.9-2.799-6.1c-1.9-2.4-4.1-3.7-6.701-4.2C131,20.386,131,20.386,130.801,20.386z"/>
<path fill="#7F6950" d="M128,38.586L128,38.586c-0.301-0.9-0.699-1.5-1.199-1.8c-0.602-0.3-1.201-0.5-2-0.4
	c0.1,0.1,0.398,0.5,0.699,1.1c0,0,0,0,0.1,0.1c0.201,0.4,0.6,0.8,0.9,1.4c0.9,1.1,1.301,2,1.301,2.6c0,1-0.301,2-0.701,3
	c-0.199,0.4-0.4,0.8-0.6,1.1c-0.9,1-2,1.5-3.5,1.5c-2.5,0-4.199-0.2-5-0.7c-0.699-0.6-1.4-1-2-1.3h-0.199
	c0.5-0.4,0.799-0.7,0.898-1.1c0-0.1,0-0.1,0-0.2c0-0.3,0-0.3-0.1-0.3h-0.1c-0.199,0-0.9,0.4-2,1.1c-1,0.8-2.5,1.2-4.199,1.2
	c-3.201,0-5.9-0.4-8-1.2c-1.602-0.7-2.5-1.1-2.5-1.1s0,0-0.102,0c-0.5,0-1.1,0.2-1.898,0.9c1.199,0.7,2.1,1.6,2.699,2.7
	c0.5,0.8,0.801,1.5,0.9,2.3c0.1,0.1,0.1,0.4,0.1,0.6c0,0,0,0.1,0,0.3c0,1.7,0.301,3.3,1,4.6c0.199,0.4,0.4,0.6,0.6,1
	c2.201,3,6.201,4.6,12.1,4.6c0.301,0,0.4,0,0.602,0c0.1,0,0.1,0,0.1,0s0,0-0.1,0c-0.102,0.101-0.201,0.2-0.301,0.4
	c-0.1,0-0.1,0-0.1,0c-1.801,1.2-3.6,1.899-5.6,1.899c-5.301,0-8.801-1.399-10.701-4.2c-0.199-0.5-0.4-0.9-0.6-1.3c0-0.2,0-0.3,0-0.4
	c0,0-0.1,0-0.199,0c-0.5-1-0.801-1.6-1.301-2.1c-0.4-0.6-0.801-0.9-1.199-1c0.5,1,0.898,2,1.398,2.8c-2.5-0.4-4.5-1.1-6-2
	c-1.1-0.6-1.898-1.3-2.6-2.1c0,0-0.1-0.1-0.1-0.2c-0.5-0.7-1-1.7-1.301-3c-0.5-1.4-0.898-2.4-1.199-2.9
	c-0.699-1.3-1.5-3.3-2.199-5.9c-0.801-2.8-1.4-4.6-1.801-5.6h-0.199v1.2l-0.102,0.7v0.1v0.1c0.102,3,1.301,6.9,3.5,11.7
	c3.102,6.3,6.801,9.6,11.102,9.6c0.699,0,1.199-0.2,1.5-0.3c1.398,2.4,2.699,4,4,4.9c1.699,1,4.898,1.6,9.699,1.6
	c1.5,0,3.199-0.899,5.199-2.5c1.602-1.3,2.5-2.399,2.801-3.2c1.801-1.8,3.5-4.8,5-9c0-0.3-0.1-0.5-0.199-0.7
	c0-0.1-0.201-0.2-0.5-0.5c-0.301,0.8-0.5,1.5-0.801,2.2c-0.6,1.3-1.199,2.5-1.801,3.6c-1.699,3-4.199,4.5-7.699,4.5
	c-2.699,0-5-0.6-6.9-1.8l0,0c-1-0.6-1.9-1.5-2.6-2.6c-0.1,0-0.1,0-0.1,0c-0.9-1.4-1.6-3-2.1-4.9c-0.301-1.6-0.5-2.8-0.801-3.7
	c1.9,0.8,5,1.2,9.199,1.2c1.801,0,3.301-0.5,4.801-1.3c0.5,0.2,1.199,0.7,2,1.4c1.301,0.7,3.5,1,6.801,1.1c0.199,0,0.199,0,0.398,0
	c0.301,0,0.4,0,0.602-0.1c1.199-0.3,2.1-1,2.799-2.3c0.701-1.1,1.1-2.1,1.1-2.9C128.699,41.186,128.5,39.686,128,38.586z"/>
<path fill="#E7D079" d="M127.1,44.586c0.4-1,0.701-2,0.701-3c0-0.6-0.4-1.5-1.301-2.6c-0.301-0.6-0.699-1-0.9-1.4l-0.6,0.4
	c0,0.4,0.1,1,0.5,1.8c0.5,0.8,0.801,1.3,0.801,1.7c0,0.9-0.701,1.7-1.801,2.6c-1.199,0.9-2.4,1.3-3.699,1.3
	c-0.5,0-1.301-0.3-2.301-0.6c-1-0.4-1.6-0.7-1.801-0.7c-0.1,0.4-0.398,0.7-0.898,1.1H116c0.6,0.3,1.301,0.7,2,1.3
	c0.801,0.5,2.5,0.7,5,0.7c1.5,0,2.6-0.5,3.5-1.5C126.699,45.386,126.9,44.986,127.1,44.586z"/>
<path fill="#EAEAEA" d="M123.801,48.686v-0.3c-3.301-0.1-5.5-0.4-6.801-1.1c-0.801-0.7-1.5-1.2-2-1.4c-1.5,0.8-3,1.3-4.801,1.3
	c-4.199,0-7.299-0.4-9.199-1.2c0.301,0.9,0.5,2.1,0.801,3.7c0.5,1.9,1.199,3.5,2.1,4.9c0,0,0,0,0.1,0c0.699,1.1,1.6,2,2.6,2.6
	c-0.9-1.2-1.6-2.1-2-3v-0.1c-0.4-1-0.6-2.1-0.6-3.4c0-0.7,0-1.1,0.199-1.3c0.801,0.1,1.801,0.3,3.201,0.6c1.1,0.1,2.1,0.2,2.9,0.2
	c0.398,0,1.199-0.1,2.699-0.3c1.5-0.2,2.6-0.3,3.301-0.3c1.299,0,2.199,0,2.699,0.2c0.4,0.1,1.699,0.4,4,1.1
	C123.301,50.186,123.5,49.486,123.801,48.686z"/>
<path fill="#FFFFFF" d="M116.301,49.586c-0.701,0-1.801,0.1-3.301,0.3c-1.5,0.2-2.301,0.3-2.699,0.3c-0.801,0-1.801-0.1-2.9-0.2
	c-1.4-0.3-2.4-0.5-3.201-0.6c-0.199,0.2-0.199,0.6-0.199,1.3c0,1.3,0.199,2.4,0.6,3.4v0.1c0.4,0.9,1.1,1.8,2,3l0,0
	c1.9,1.2,4.201,1.8,6.9,1.8c3.5,0,6-1.5,7.699-4.5c0.602-1.1,1.201-2.3,1.801-3.6c-2.301-0.7-3.6-1-4-1.1
	C118.5,49.586,117.6,49.586,116.301,49.586z"/>
<path fill="#EBD686" d="M84.199,17.686c-1.398,0.9-3.299,2-5.699,3.5c-5.699,3.2-8.5,5.2-8.5,5.9c0,1.9,0.8,3.6,2.199,4.9
	c0.801,0.9,2.102,1.7,3.801,2.6c1.5,0.8,3.301,1.6,5.5,2.5h0.199v-0.1v-0.1l0.102-0.7c-0.201-0.2-0.301-0.4-0.301-0.6
	c-0.301-0.9-0.5-1.7-0.5-2.7c0,0,0.199-0.4,0.301-1.2c-0.201,0.3-0.4,0.5-0.602,0.7c-0.199,0.2-0.5,0.3-0.699,0.3
	c-1,0-2-0.1-2.699-0.5c-0.801-0.3-1.5-0.9-2-1.6c-0.801-0.9-1.102-1.9-1.102-2.6c0-0.2,0.4-0.6,1.4-1.2s2-1.1,3-1.5
	c1.5-0.6,2.6-0.6,3.4-0.2c0.301,0.1,0.5,0.3,0.699,0.7c0.102,0.1,0.102,0.1,0.102,0.2c0-0.6,0.199-1.1,0.398-1.7
	c0.102-0.6,0.301-0.9,0.301-0.9c-0.1-0.5-0.199-0.8-0.199-1C83.301,20.686,83.6,19.186,84.199,17.686z"/>
<path fill="#7F6950" d="M75.6,26.786c-1,0.6-1.4,1-1.4,1.2c0,0.7,0.301,1.7,1.102,2.6c0.5,0.7,1.199,1.3,2,1.6
	c0.699,0.4,1.699,0.5,2.699,0.5c0.199,0,0.5-0.1,0.699-0.3c0.201-0.2,0.4-0.4,0.602-0.7c0.1-0.1,0.199-0.3,0.299-0.5
	c0.5-0.8,0.9-2.1,1.4-3.6c0-0.7,0-1.2-0.199-1.6c0-0.1,0-0.1-0.102-0.2c-0.199-0.4-0.398-0.6-0.699-0.7c-0.801-0.4-1.9-0.4-3.4,0.2
	C77.6,25.686,76.6,26.186,75.6,26.786z M77.5,27.086c0-0.1,0-0.1,0-0.1c0.4-0.1,0.801-0.3,1.301-0.4c2-0.9,3-0.8,3,0.1
	c-0.301,1-0.5,1.8-0.801,2.5c-0.699,1.5-1.5,2.2-2.4,2.2c-0.4,0-1.1-0.5-1.9-1.3c-0.898-0.9-1.299-1.4-1.398-1.9
	C75.801,27.886,76.5,27.486,77.5,27.086z"/>
<path fill="#F4811F" d="M77.5,26.986c0,0,0,0,0,0.1c0,0.3,0.199,0.6,0.5,0.9c0.5,0.8,1.199,1.2,2.301,1.2c0,0,0.299,0,0.699,0
	c0.301-0.7,0.5-1.5,0.801-2.5c0-0.9-1-1-3-0.1C78.301,26.686,77.9,26.886,77.5,26.986z"/>
<path fill="#C37D42" d="M81,29.186c-0.4,0-0.699,0-0.699,0c-1.102,0-1.801-0.4-2.301-1.2c-0.301-0.3-0.5-0.6-0.5-0.9
	c-1,0.4-1.699,0.8-2.199,1.1c0.1,0.5,0.5,1,1.398,1.9c0.801,0.8,1.5,1.3,1.9,1.3C79.5,31.386,80.301,30.686,81,29.186z"/>
<path fill="#FFFFFF" d="M97.301,22.386c-0.5,0.4-0.801,1-0.801,1.8c0,0.3,0.199,0.9,0.5,1.8c0.4,0.9,0.6,1.5,0.801,1.9
	c0,0,0,0.1,0,0.3l0.199,0.2c0.5-0.2,1-0.5,1.5-0.7c-0.699-0.1-1.199-0.9-1.699-2.3c-0.5-1.5-0.602-2.4-0.602-2.4
	C97.199,22.886,97.199,22.686,97.301,22.386z"/>
</svg>
