<?xml version="1.0" encoding="utf-8"?>
<!-- Generator: Adobe Illustrator 12.0.0, SVG Export Plug-In  -->
<!DOCTYPE svg PUBLIC "-//W3C//DTD SVG 1.1//EN" "http://www.w3.org/Graphics/SVG/1.1/DTD/svg11.dtd" [
	<!ENTITY ns_flows "http://ns.adobe.com/Flows/1.0/">
	<!ENTITY ns_svg "http://www.w3.org/2000/svg">
	<!ENTITY ns_xlink "http://www.w3.org/1999/xlink">
]>
<svg  version="1.1" xmlns="&ns_svg;" xmlns:xlink="&ns_xlink;" xmlns:a="http://ns.adobe.com/AdobeSVGViewerExtensions/3.0/"
	 width="234" height="244" viewBox="-0.3 -0.585 234 244" enable-background="new -0.3 -0.585 234 244" xml:space="preserve">
<defs>
</defs>
<path fill="#7F6950" d="M190.8,118.515c-0.899-2.5-1.6-4.3-2.199-5.2c0-0.2,0-0.3,0-0.5c-0.301-0.5-0.9-1-1.7-1.4
	c-0.601-0.4-1.101-0.6-1.601-0.6c-0.699-1.4-1.8-3.5-3.399-6.2c-2.8-4.8-4.8-7.8-5.8-8.9c-3.301-3.4-6.101-5.8-8.301-7.4
	c-0.3-0.2-0.699-0.4-0.899-0.5c-0.4-0.3-0.7-0.5-1-0.6c-2.8-1.4-6.4-2.6-10.9-3.6c-4.3-1-9.5-1.8-15.5-2.6h0.8
	c-2.699-0.7-6.199-0.7-10.699,0.2c-0.7,0.1-1.301,0.3-2,0.4c-2.601,0.7-5.101,1.4-7.7,2.5c-1.4,0.5-2.8,1.2-4.1,1.9
	c-11.6,5.5-19.5,12.8-23.8,22c-0.9,1.8-1.7,3.5-2.5,5.2c-2,4.1-3.6,7.4-5,9.8c-0.1,0.2-0.2,0.301-0.3,0.5c-1.2,1.7-3.3,4-6.4,7
	c-1.3,1.101-3.2,2.301-5.8,3.2c-1.4,0.601-3.8,1.4-7.1,2.4c-11,1.5-19,6.8-24,16c-3.7,6.5-5.4,14.6-5.4,24.1c0,1.2,0,3.101,0.2,5.9
	c0.2,2.6,0.3,4.6,0.3,5.7c0,0.399-0.1,1.1-0.4,2.199c-0.1,0.2-0.1,0.301-0.1,0.5c-1.8,1.4-5.2,3.101-10.5,5.101
	c-6.9,2.6-11.5,4.7-13.7,6.5c-3.7,2.899-6.4,5.5-8.3,8c-2,2.6-3,5.2-3,7.7c0,3.8,1.9,7.199,5.8,10.3c5.7,4.7,14.9,7.1,27.2,7.1
	c0.9,0,1.7-0.1,2.4-0.2c0.1,0,0.1,0,0.1,0c0,0.2,0,0.5,0,0.801c0,3.199,1.8,5.3,5.5,6.5c1.6,0.5,3.5,0.899,5.6,1l0,0
	c0.7,0,1.7-0.101,2.9-0.301c0.4-0.199,1-0.3,1.5-0.399c0.6,0,1.2-0.101,1.9-0.3c1.2-0.2,2.4-0.5,3.6-0.7c1,0,1.8,0.2,2.3,0.6
	c0.3,0.3,1,0.5,2.1,0.601c0.6,0,1.3,0.1,2.1,0.1c0.4,0,0.9-0.2,1.6-0.7c0.9-0.5,1.3-0.899,1.3-1.2c0-0.8-0.4-1.3-1.1-1.399
	c0.7-0.4,1.1-0.9,1.1-1.4c0-0.2-0.1-0.5-0.3-0.7c-0.1-0.3-0.3-0.5-0.7-0.6c3-0.1,4.9-0.3,5.7-0.7c0.4-0.2,0.6-0.6,0.6-1.1
	c0-0.601-0.6-1.4-1.7-2.101c-0.6-0.399-1.2-0.6-1.7-0.8c-0.3,0-0.6,0-0.9,0c-0.3-0.1-0.6,0-0.9,0l0,0c-2.3,0.3-4.1,0.2-5.5-0.2
	c-0.7-0.399-1.8-1-3-2c-2.7-2.199-6.4-3.3-11-3.3c-2.2,0.3-4,0.8-5.5,1.5c-0.7,0.3-1.4,0.8-2,1.2c-0.8-0.3-1.6-0.5-2.3-0.5
	c-11.7,0-19.4-1.3-23.2-4c-1.8-1.3-2.8-3.3-2.8-5.9c0-4.899,5.3-9.1,16-12.6c1.9-0.7,5.5-1.7,11-3.1c1-0.301,2-0.601,2.7-0.801
	c0.3,0.101,0.6,0.101,1,0.101c4.6,0,9.1-0.601,13.5-1.9c-0.3,0.8-0.4,1.5-0.4,2.101c0,0.3,0,0.6,0,0.899c0,1.3-0.2,2.3-0.7,3
	c-0.4,1-0.7,1.601-0.7,2l0.3,0.5c0.1,0.3,0.3,0.5,0.5,0.601c0,0.1,0,0.1,0,0.1c0.6-0.7,1.1-1.9,1.8-3.9c0.2-0.8,0.5-1.5,0.8-2.399
	c0.4-1.5,0.7-2.8,0.9-3.601c3.9-1.399,7.6-3.3,11.1-5.8c2.9-1.899,5.3-4,7.3-6.1c0.1-0.2,0.1-0.3,0.2-0.4c0.1-0.1,0.1-0.1,0.1-0.1
	c1.8-2.101,2.7-3.8,2.7-5c0-0.3-0.1-0.4-0.2-0.4l-0.1,0.101c-1.2,0.8-2.7,1.899-4.4,3.399c-0.5,0.5-1.1,1.101-1.7,1.7
	c-3.2,3.1-5.3,4.9-6.1,5.7c-2,1.7-4.8,3.2-8.2,4.399c-0.1,0.101-0.2,0.101-0.4,0.101c-0.1-0.101-0.1-0.2-0.2-0.3
	c-0.2,0.199-0.5,0.399-0.7,0.6c-0.1,0-0.2,0-0.3,0.1c-3.9,1.2-8.1,2-12.6,2.301c-2.3,0.199-3.7,0.5-4.1,1
	c-9.9,1.3-17.6,3.6-23.1,7.199c-5.2,3.301-7.8,7.2-7.8,11.601c0,2.1,0.7,3.8,2.2,5.399c0.3,0.2,0.6,0.5,0.9,0.7
	c1.9,1.601,4.7,2.9,8.3,3.601c3.6,0.8,8,1.199,13.2,1.199c0.5,0,1.1,0,1.7,0c0.8-0.1,1.7-0.199,2.5-0.399c-0.8,1-1.2,2-1.2,3
	c-0.4,0-0.8,0-1.1,0c-5.9,0-11-0.4-15.5-1.4c0,0-0.1,0-0.2,0c0,0,0,0-0.1,0c-4.4-1-7.9-2.5-10.9-4.399
	c-4.5-2.801-6.8-6.2-6.8-10.101c0-2.1,1.4-4.8,4.1-8.1c2.7-3.101,5.5-5.601,8.5-7.4c1.2-0.7,5.4-2.2,12.4-4.7
	c4.6-1.899,7.5-3.699,8.8-5.3c0.2,0,0.3,0,0.5,0c1.2,0,1.7-1.8,1.6-5.5c-0.3-3.3-0.5-5.2-0.5-5.5c0-11.1,1.3-19.6,3.9-25.399
	c4.3-9.601,12.3-15.9,23.9-19c8.7-0.101,15.8-4.301,21.4-12.5c0-0.2,0.1-0.301,0.1-0.4c2.9-4.4,5.1-9,6.7-14.1c0,0,0,0,0-0.1
	c0.2-0.2,1-1.7,2.5-4.7c2-3.3,4.5-6.3,7.3-9c5-4.8,11-8.3,17.8-10.4c1.3-0.4,2.6-0.8,3.899-1.1c1.7-0.3,3.601-0.7,5.601-0.9
	c0.1-0.1,0.2-0.1,0.399-0.1c1.101-0.1,2.4-0.2,3.7-0.2c1.3-0.1,2.601-0.2,4-0.2c4.7,0,9.3,0.6,13.8,1.8c3.7,1,7.301,2.4,10.9,4.3
	c0.2,0,0.3,0.1,0.5,0.2c0.1,0.1,0.2,0.1,0.2,0.1c5.399,2.8,8.899,5.4,10.399,7.6c0.101,0.1,0.101,0.1,0.101,0.1s0,0,0.1,0.1
	c0.101,0.1,0.101,0.2,0.3,0.5c0.9,1.4,2.301,3.7,4.2,7.2c0.3,0.5,0.601,1,0.9,1.5c0.1,0.3,0.2,0.5,0.399,0.8
	c1.801,3,3.2,5.1,4.301,6.2c0.5,0.5,0.899,0.7,1.199,0.7c0.4,0,0.5,0,0.301-0.2c0-0.2,0-0.5,0-1c0.5,0.5,0.899,0.8,1.199,0.8
	c0.2,1.5,0.801,3.7,2,6.3c1.301,3.2,1.9,5.6,1.9,7.2c0,0.3,0,0.6,0,1c-0.6-1.4-1.3-2-2.2-2c0.601,2.199,1,3.8,1.3,4.899
	c0,0.4,0,0.8,0,1.101c0,1-0.199,2.699-0.899,5.3c-0.101,0.1-0.101,0.399-0.101,0.6c0-0.1,0-0.1,0-0.1c0-2.601-0.199-4.4-0.5-5.5
	c-0.3-1-0.699-1.3-1.199-1.101c-0.101,0-0.101,0-0.101,0v0.301c0,0.6,0,1.3,0.101,2.1c0.1,0.7,0.199,1.7,0.399,2.7
	c0.101,1.899-0.1,3.399-0.8,4.6c-0.1,0.601-0.2,1.5-0.4,2.5c-0.199,0.7-0.5,1.5-0.699,2.3c0,0.2-0.2,0.4-0.2,0.601
	c-0.3,0.1-0.601,0.3-1,0.7c-0.101,0-0.101,0.199-0.101,0.199c0.101-0.899,0.301-1.899,0.4-3c0.1-0.5,0.1-1.1,0.1-1.699
	c0-0.601,0-1.101,0-1.5c0-0.7-0.199-1.2-0.399-1.601c-0.3-0.8-0.601,0-1,2.601c-0.101,0.399-0.3,1.5-0.601,3.3
	c-0.199,0.899-0.5,2-0.699,3.2c-1.101-0.301-1.801,0-2.101,0.8c-0.1,0.399-0.2,0.7-0.2,1.1c0,0.2,0,0.4,0.101,0.4
	c0,0.1,0,0.1,0.1,0.1c0,0,0.101,0,0.4,0h0.399c0,0.9,0.101,1.4,0.2,1.8c0,0.101,0,0.101,0,0.2c0.2,0.101,0.5,0.2,0.9,0.2
	c0.2,0,0.399-0.1,0.5-0.2c0.6-0.5,1-1.6,1.399-3.5h0.2c0.101-0.2,0.3-0.5,0.8-1c-0.3,1-0.5,1.601-0.6,2c0.8-0.6,1.4-1.399,1.9-2.399
	c0.699-1,1.199-2.2,1.6-3.601c0.1-0.5,0.3-1,0.4-1.5h0.199c0.101-0.2,0.301-0.399,0.301-0.6c0.699-1.5,1.399-3.101,1.8-4.8
	c0.399-1.101,0.6-2,0.7-2.801c0.399-0.5,0.699-1.899,1-4c0.199-1.1,0.3-2,0.399-2.699c0.101-0.5,0.101-0.801,0.101-1.101
	C193.101,125.515,192.3,122.615,190.8,118.515z M65.8,232.815c0,0.199,0.1,0.399,0.4,0.699c0.3,0.101,0.6,0.301,0.9,0.5
	c1,0.5,1.6,0.801,1.7,1c-1.3,0-2.5,0-3.5,0.101c-1.3,0.1-2.2,0.3-2.7,0.5c-0.5,0.3-0.7,0.7-0.7,1.3c0,0.2,0.1,0.3,0.2,0.4
	c0,0,0.4,0.3,1.1,0.899c-0.7,0.4-1,0.9-1,1.101c0,0.199,0.1,0.399,0.3,0.6c0.3,0.2,0.5,0.4,0.5,0.7c-0.1,0.2-0.4,0.3-1.1,0.399
	c-0.1,0-0.2,0-0.4,0c-0.6,0-1.5-0.3-2.5-0.8c-0.9-0.399-1.7-0.6-2.5-0.6c-0.9,0-2,0.1-3.1,0.5c-0.5,0.1-1.1,0.2-1.7,0.5
	c-0.6,0.1-1.2,0.3-1.7,0.5c-1.5,0.2-3,0.399-4.7,0.399c-1.4,0-2.7-0.199-3.8-0.699c-1.4-0.5-2.6-1.5-3.4-2.7c-0.7-1.9-1.3-3-1.6-3.4
	c0.1-0.1,0.2-0.1,0.4-0.1l0,0c0.3,0,0.5-0.101,0.6-0.3h0.2c0,0,0,0,0.1-0.101c0.4-0.2,0.6-0.399,0.7-0.5l-0.1-0.1
	c-0.2,0-0.4,0-0.5,0c0.1-1,0.8-1.9,2.2-2.9c0.4-0.2,0.8-0.5,1.3-0.7c1.8-0.899,4.3-1.399,7.1-1.399c2.4,0,4.8,1,7.3,2.8
	c2.4,1.8,4.3,2.8,5.8,2.8C63.8,234.215,65.1,233.715,65.8,232.815z"/>
<path fill="#9D794F" d="M66.2,233.515c-0.3-0.3-0.4-0.5-0.4-0.699c-0.7,0.899-2,1.399-4.2,1.399c-1.5,0-3.4-1-5.8-2.8
	c-2.5-1.8-4.9-2.8-7.3-2.8c-2.8,0-5.3,0.5-7.1,1.399c-0.5,0.2-0.9,0.5-1.3,0.7c-1.4,1-2.1,1.9-2.2,2.9c0.1,0,0.3,0,0.5,0l0.1,0.1
	c-0.1,0.101-0.3,0.3-0.7,0.5c-0.1,0.101-0.1,0.101-0.1,0.101h-0.2c-0.1,0.199-0.3,0.3-0.6,0.3l0,0c-0.2,0-0.3,0-0.4,0.1
	c0.3,0.4,0.9,1.5,1.6,3.4c0.8,1.2,2,2.2,3.4,2.7c1.1,0.5,2.4,0.699,3.8,0.699c1.7,0,3.2-0.199,4.7-0.399c0.5-0.2,1.1-0.4,1.7-0.5
	c0.6-0.3,1.2-0.4,1.7-0.5c1.1-0.4,2.2-0.5,3.1-0.5c0.8,0,1.6,0.2,2.5,0.6c1,0.5,1.9,0.8,2.5,0.8c0.2,0,0.3,0,0.4,0
	c0.7-0.1,1-0.199,1.1-0.399c0-0.3-0.2-0.5-0.5-0.7c-0.2-0.2-0.3-0.4-0.3-0.6c0-0.2,0.3-0.7,1-1.101c-0.7-0.6-1.1-0.899-1.1-0.899
	c-0.1-0.101-0.2-0.2-0.2-0.4c0-0.6,0.2-1,0.7-1.3c0.5-0.2,1.4-0.4,2.7-0.5c1-0.101,2.2-0.101,3.5-0.101c-0.1-0.199-0.7-0.5-1.7-1
	C66.8,233.815,66.5,233.615,66.2,233.515z"/>
<path fill="#CFB368" d="M189.3,120.115c-1.199-2.6-1.8-4.8-2-6.3c-0.3,0-0.699-0.3-1.199-0.8c0,0.5,0,0.8,0,1
	c0.199,0.2,0.1,0.2-0.301,0.2c-0.3,0-0.699-0.2-1.199-0.7c-1.101-1.1-2.5-3.2-4.301-6.2c-0.199-0.3-0.3-0.5-0.399-0.8
	c-0.3-0.5-0.601-1-0.9-1.5c-1.899-3.5-3.3-5.8-4.2-7.2c-0.199-0.3-0.199-0.4-0.3-0.5c-0.1-0.1-0.1-0.1-0.1-0.1s0,0-0.101-0.1
	c-1.5-2.2-5-4.8-10.399-7.6c0,0-0.101,0-0.2-0.1c-0.2-0.1-0.3-0.2-0.5-0.2c-3.6-1.9-7.2-3.3-10.9-4.3c-4.5-1.2-9.1-1.8-13.8-1.8
	c-1.399,0-2.7,0.1-4,0.2c-1.3,0-2.6,0.1-3.7,0.2c-0.199,0-0.3,0-0.399,0.1c-2,0.2-3.9,0.6-5.601,0.9c0.5,0.6,1.101,1.1,2.101,1.5
	c0.5,0.3,2.1,0.8,5,1.7c4.6,1.4,7,3.7,7,6.9c0,1.3-0.3,2.2-0.9,2.6c-0.3,0.3-0.899,0.4-1.7,0.4c-0.8,0-1.6-0.2-2.399-0.6
	s-1.2-0.6-1.3-0.6v2.8c0.1,2.6,1.699,4.4,4.699,5.4c1.601,0.6,4.9,1.2,9.9,1.7c4.7,0.5,7.9,1.2,9.8,2c2.9,1.4,4.5,3.7,4.5,6.8
	c0,0.7-0.6,1.4-1.6,2c-0.9,0.5-1.7,0.7-2.4,0.7c-0.399,0-0.7,0-1-0.2c-0.2-0.2-0.399-0.3-0.5-0.5c0.601,3,2,5.2,4.3,6.7
	c1.4,0.899,3.7,1.699,6.801,2.5c3.199,0.699,5.3,1.5,6.399,2.3c1.8,1.399,2.8,3.399,2.8,6.2c0,0.699-0.1,1.3-0.199,1.8
	c-0.801,0.399-1.601,0.8-2.4,1.399c-1.7,1.101-2.8,1.7-3.4,1.7c-0.3,0-0.8-0.2-1.399-0.8c-0.3-0.2-0.5-0.4-0.9-0.7
	c-0.1,0.4-0.6,1.5-1.5,3.4c0,0.1-0.1,0.399-0.2,0.6c-1,2-1.699,3-2,3c-0.5,0-1-0.1-1.5-0.3c-0.899-0.3-1.8-0.8-2.8-1.6
	c-1.399-1.101-2.3-2.2-2.7-3.5c-0.199-0.301-0.199-0.7-0.3-1.101h-0.2c0,0.4,0,0.7,0,1c-0.3,3.8-1,7.7-2.3,11.7
	c-0.399,0.9-0.7,1.9-1,2.9c-0.899,2.1-1.899,4.3-3,6.399c-0.8,1.5-1.5,2.7-2.1,3.9c-1,1.8-1.8,3.2-2.3,4.2
	c-0.2,0.399-0.4,0.899-0.601,1.399c-0.5,1.101-0.899,2.101-1,3c-0.2,0.4-0.2,0.9-0.2,1.2c0,0.1,0,0.1,0,0.2h0.801
	c0-0.601,2.1-1.9,6.3-3.5c4.6-1.9,7.2-3,7.7-3.5c0.5-0.4,1.1-0.9,1.699-1.5c0.7-0.9,1.5-1.9,2.2-3.101c1.5-2.3,2.5-3.699,2.9-4.199
	h0.1c0.101,0,0.101,0,0.101,0c0,0.1,0.1,0.199,0.1,0.399c0,2.2-1.1,4.5-3.3,7c-0.2,0.3-0.4,0.4-0.601,0.7
	c0.101-0.2,0.4-0.3,0.801-0.7c0.5-0.5,1.199-1,2-1.7c1.399-1.3,2.5-2.5,3.399-3.8h0.101c0.5-0.7,1-1.5,1.3-2.2
	c0.1-0.199,0.6-1.899,1.6-4.899c0-0.3,0.101-0.4,0.2-0.601c0.6-1.5,1.3-2.699,2.4-3.399c0,0.2,0,0.399,0,0.5
	c-0.101,0.5-0.2,0.899-0.2,1.399c-0.4,2.801-1.101,5.2-2.2,7.301c-0.4,0.8-0.8,1.5-1.3,2.3l0.5,0.399c3.1-2.699,5.399-6,6.8-10.1
	c0.1-0.2,0.1-0.4,0.2-0.7c0.2-0.899,0.399-1.6,0.6-2.3c0.8-3,1.4-5.2,2-6.8c0.4,0.899,0.601,1.5,0.601,2c0,1.1,0,2.2-0.2,3.3
	c-0.101,0.9-0.3,1.8-0.4,2.7l0,0c0.3-0.8,1-1.101,2.101-0.8c0.199-1.2,0.5-2.301,0.699-3.2c0.301-1.8,0.5-2.9,0.601-3.3
	c0.399-2.601,0.7-3.4,1-2.601c0.2,0.4,0.399,0.9,0.399,1.601c0,0.399,0,0.899,0,1.5c0,0.6,0,1.199-0.1,1.699
	c-0.1,1.101-0.3,2.101-0.4,3c0,0,0-0.199,0.101-0.199c0.399-0.4,0.7-0.601,1-0.7c0-0.2,0.2-0.4,0.2-0.601
	c0.199-0.8,0.5-1.6,0.699-2.3c0.2-1,0.301-1.899,0.4-2.5c0.7-1.2,0.9-2.7,0.8-4.6c-0.2-1-0.3-2-0.399-2.7
	c-0.101-0.8-0.101-1.5-0.101-2.1v-0.301c0,0,0,0,0.101,0c0.5-0.199,0.899,0.101,1.199,1.101c0.301,1.1,0.5,2.899,0.5,5.5
	c0,0,0,0,0,0.1c0-0.2,0-0.5,0.101-0.6c0.7-2.601,0.899-4.3,0.899-5.3c0-0.301,0-0.7,0-1.101c-0.3-1.1-0.699-2.7-1.3-4.899
	c0.9,0,1.601,0.6,2.2,2c0-0.4,0-0.7,0-1C191.2,125.715,190.601,123.315,189.3,120.115z"/>
<path fill="#E5CD6F" d="M184.5,149.715h-0.2c-0.399,1.9-0.8,3-1.399,3.5c-0.101,0.101-0.3,0.2-0.5,0.2c-0.4,0-0.7-0.1-0.9-0.2
	c0-0.1,0-0.1,0-0.2c-0.1-0.399-0.2-0.899-0.2-1.8H180.9c-0.3,0-0.4,0-0.4,0c-0.1,0-0.1,0-0.1-0.1c-0.101,0-0.101-0.2-0.101-0.4
	c0-0.399,0.101-0.7,0.2-1.1l0,0c-0.2,0.5-0.3,1-0.399,1.5c-0.301,0.5-0.5,1.1-0.7,1.6c-1.5,3.5-4.101,6.5-7.7,9.3
	c-0.3-0.199-0.6-0.399-0.8-0.5l-0.5-0.399l0,0c-1.3,1.7-2.8,3.3-4.601,4.6c-0.899,0.7-1.899,1.3-2.899,1.9H162.3
	c-0.199-0.101-0.3-0.3-0.3-0.5c-0.399,0.399-0.8,0.8-1.2,1.2c-2.699,2.399-5.699,4.3-9,5.5c0.801,0.399,1.4,0.899,1.801,1.899
	c1.199,2.3,1.8,3.5,1.899,3.5c0.5,0.601,1.9,1.601,3.9,3.101c1.5,1.199,2.5,2.199,3.1,2.899c0.2,0.3,0.4,0.4,0.5,0.601v0.199
	c-0.3-0.1-0.6-0.1-0.899-0.199c-1.101-0.101-2.101-0.5-3.2-1c0.2,0.8,0.6,1.8,1.3,2.899c0.1,0.2,0.2,0.4,0.3,0.601
	c0.8,1.8,1.3,4,1.4,6.8c0,1.399,0.6,3.2,1.6,5.5c0.4,0.7,0.7,1.6,1.101,2.5c1-4.9,1.899-9.5,2.8-13.601c1.7-8.5,3-13.399,3.6-14.8
	c0.4,0.601,0.5,1.601,0.5,3c0.7-1.1,1.7-3.1,3.101-6.2c1.5-2.399,3.199-3.5,5-3.3c0.1,0.4,0.3,0.9,0.5,1.8
	c0.1,0.801,0.5,1.4,0.899,1.801c0.101-0.101,0.101-0.2,0.101-0.4c1.399-4.4,2.199-6.8,2.399-7.4c1-1.8,1.601-4.699,2.101-8.699
	c0-0.601,0.199-1.2,0.199-1.7c0.4-2.5,0.801-4.101,1.5-5l-0.699-0.3c-0.5,1-1.101,1.8-1.9,2.399c0.1-0.399,0.3-1,0.6-2
	C184.8,149.215,184.601,149.515,184.5,149.715z"/>
<path fill="#7F6950" d="M187.3,148.615c-0.699,0.899-1.1,2.5-1.5,5c0,0.5-0.199,1.1-0.199,1.7c-0.5,4-1.101,6.899-2.101,8.699
	c-0.2,0.601-1,3-2.399,7.4c0,0.2,0,0.3-0.101,0.4c-0.1,0-0.1,0-0.1,0.1c-1.3,4.4-1.9,7.1-1.9,7.9c0,0.3,0.101,0.5,0.101,0.6
	c0.199,0.3,0.5,0.5,1.1,0.5c0.1,0,0.3-0.3,0.6-1.1c0,0.199,0,0.3,0,0.399c0.101,1,0.4,2.8,1,5.3c0.7,3.101,1,4.9,1,5.5
	c-0.199,2.2,0,4.5,0.301,7.101c0.199,3.1,0.699,4.6,1.199,4.6s0.801-0.399,0.9-1.1c0-0.9,0-1.4,0-1.601c0-1.199-0.1-3-0.4-5.6
	c-0.199-2.6-0.3-4.4-0.3-5.6c-0.2-0.301-0.6-2.2-1.399-5.7c-0.301-1.9-1-3.4-1.7-4.101c-0.101-0.1-0.2-0.199-0.3-0.3
	c0.3-1,0.699-2.399,1.1-4.1c1.3-4.9,2.3-8.101,2.8-9.5c0.3-0.7,0.8-3.101,1.5-7.3c0.8-4.2,1.101-7.101,1.101-8.601
	c0-0.3,0-0.6-0.2-0.7C187.3,148.615,187.3,148.615,187.3,148.615z"/>
<path fill="#EBD686" d="M120.9,85.615c-6.8,2.1-12.8,5.6-17.8,10.4c-2.8,2.7-5.3,5.7-7.3,9c-1.5,3-2.3,4.5-2.5,4.7
	c0,0.1,0,0.1,0,0.1c-1.6,5.1-3.8,9.7-6.7,14.1c0,0.1-0.1,0.2-0.1,0.4c-5.6,8.199-12.7,12.399-21.4,12.5
	c-11.6,3.1-19.6,9.399-23.9,19c-2.6,5.8-3.9,14.3-3.9,25.399c0,0.3,0.2,2.2,0.5,5.5c0.1,3.7-0.4,5.5-1.6,5.5c-0.2,0-0.3,0-0.5,0
	c-1.3,1.601-4.2,3.4-8.8,5.3c-7,2.5-11.2,4-12.4,4.7c-3,1.8-5.8,4.3-8.5,7.4c-2.7,3.3-4.1,6-4.1,8.1c0,3.9,2.3,7.3,6.8,10.101
	c3,1.899,6.5,3.399,10.9,4.399c0.1,0,0.1,0,0.1,0c0.1,0,0.2,0,0.2,0c4.5,1,9.6,1.4,15.5,1.4c0.3,0,0.7,0,1.1,0c0-1,0.4-2,1.2-3
	c-0.8,0.2-1.7,0.3-2.5,0.399c-0.6,0-1.2,0-1.7,0c-5.2,0-9.6-0.399-13.2-1.199c-3.6-0.7-6.4-2-8.3-3.601c-0.3-0.2-0.6-0.5-0.9-0.7
	c-1.5-1.6-2.2-3.3-2.2-5.399c0-4.4,2.6-8.3,7.8-11.601c5.5-3.6,13.2-5.899,23.1-7.199c0.4-0.5,1.8-0.801,4.1-1
	c4.5-0.301,8.7-1.101,12.6-2.301c0.1-0.1,0.2-0.1,0.3-0.1c0.2-0.2,0.5-0.4,0.7-0.6c0.1,0.1,0.1,0.199,0.2,0.3c0.2,0,0.3,0,0.4-0.101
	c3.4-1.199,6.2-2.699,8.2-4.399c0.8-0.8,2.9-2.601,6.1-5.7c0.6-0.6,1.2-1.2,1.7-1.7c1.7-1.5,3.2-2.6,4.4-3.399l0.1-0.101
	c0.1,0,0.2,0.101,0.2,0.4c0,1.2-0.9,2.899-2.7,5c0,0,0,0-0.1,0.1v0.5l0,0c-2.4,3.4-5,6.3-7.7,8.8c-2.9,2.301-4.9,4-6,5
	c-1.9,1.601-3.2,3.2-3.9,5c-0.9,2.101-1.4,5.101-1.4,9c0,0.601,0.1,1,0.1,1.2c0.3,0.601,0.9,1.101,1.9,1.5l0.1,0.5
	c0.9,0,1.9,0,3-0.1l0.7,0.1c-0.3,0.4-0.8,0.8-1.4,1.101v0.1c0.9,0.2,3.4,1.4,7.6,3.4c0.7,0.3,1.4,0.5,2,0.8
	c4.8,1.6,9.4,2.5,13.9,2.5l7-0.5c0,0,0.5,0.1,1.2,0.399c1-0.399,2.4-0.899,3.9-1.5c3.3-1.5,5.5-3,6.7-4.699
	c0.2-0.2,0.3-0.601,0.5-0.801c0.1-0.3,0.2-0.399,0.2-0.6c0.1-0.4,0.1-0.8,0.1-1.1c0-0.5-0.1-1.101-0.5-1.601
	c-0.4-0.6-1.1-1.399-2-2.1l-2-1.601c0.3,0.601,0.4,1.2,0.4,1.9c0,1.1-0.1,1.9-0.3,2.7c-0.2,0.6-0.6,1.5-1.2,2.6
	c-0.6-0.5-1-0.899-1-1.399c0.4-1.9,0.6-3.101,0.6-3.601l-1.9-3.5c-0.3-0.399-0.7-0.6-1.2-0.899c0-0.101-0.1-0.101-0.2-0.101
	c-0.1-0.1-0.1-0.1-0.2-0.1v0.1c-0.1,0.101-0.2,0.101-0.5,0.101c-0.2,0-0.5-0.2-0.6-0.601c-0.8-0.2-1.6-0.3-2.6-0.3
	c-1.8,0-3.3,0.2-4.4,0.6c-0.7,0.101-1.3,0.301-1.8,0.4c-0.3,0.1-0.6,0.1-0.9,0.1c-0.1,0-0.2,0-0.2-0.1c-0.1-0.1-0.1-0.2-0.1-0.4
	c0-0.5,0.1-0.899,0.5-1.199c0,0,0,0,0.1-0.101c0.4-0.3,1-0.6,1.9-0.899c0.1,0,0.1,0,0.1,0c0.3-0.101,0.4-0.101,0.6-0.101
	c-0.1-0.2-0.2-0.5-0.3-0.6c-0.2-0.101-0.3-0.3-0.3-0.4c-0.1-0.1-0.1-0.1-0.1-0.1c-0.4-0.5-0.6-0.9-0.8-1.2c-0.3-0.6-0.7-1.2-0.9-1.7
	s-0.5-1-0.7-1.5c0.4,0.101,0.7,0.2,1,0.4l0.3-1.2c0-0.6,1-2,3-4.2c3.2-3.3,5.4-5.899,6.7-7.5c1.6-2,3-4.1,4.3-6.1
	c1.2-2.101,2.2-4.2,3-6.3c0,0,0-0.101,0.1-0.101c1.1-3.1,1.9-6.1,2.1-9.3c0.1-1.1,0.2-2.2,0.2-3.2c0-2.1-0.2-4.2-0.8-6.399
	c-1.1-0.601-2.1-2.2-2.9-4.801c-0.2-1-0.4-1.8-0.5-2.5c-0.6-0.6-1.2-1-1.9-1.399c-0.9-0.5-1.9-0.7-3-0.7c-2.1,0-4.1,0.3-6.1,0.9
	c-2.8,0.899-5.6,2.3-8.5,4.3c-1.6,1.1-3.3,2.5-5,4c-2.1,1.899-4.2,4.2-6.6,7c-2.2,2.5-3.5,3.899-3.8,4.1c0.8-1.6,1.8-3.1,2.8-4.7
	c1.4-1.899,3-3.8,4.7-5.5c0.7-0.6,1.4-1.199,2-1.8c1.6-1.3,3.4-2.6,5.4-4c2.4-1.6,5.3-3.3,8.4-5c4.5-2.3,8.2-2.5,11.1-0.6
	c0.2-1.601,0.7-3.8,1.5-6.5c0.4-1,0.6-1.7,0.9-2.2c0.3-0.8,0.5-1.1,0.6-0.5c0.1,0.2,0.1,0.4,0.1,0.8c0,0.3-0.1,0.601-0.1,1.101
	c-0.1,0.3-0.1,0.6-0.2,1c-0.1,0.399-0.3,1-0.4,1.6c-0.5,1.6-0.6,3.1-0.7,4.8c0,0.101,0,0.3,0,0.4c0,0.1,0.1,0.399,0.1,1
	c0.8,0.899,1.7,2,2.3,3.5c0.7,1.5,1.3,3,1.7,4.5c0.1,0,0.3,0.1,0.6,0.1c-0.2-1.6-0.3-2.5-0.3-2.5c0-0.3,0.1-0.6,0.2-0.8
	c0.1-0.8,0.6-1.2,1.3-1.2c0.1,1.7,0.3,3.3,0.4,4.9c1.3,2,2.6,3.5,4.1,4.3c1.8,1,3.8,1.2,5.9,0.5c0.101,2.3,0.8,5.2,2.101,8.3
	c1.6,3.9,3.3,4.9,4.899,3c0,0.101-0.1,0.4-0.2,0.7c-0.199,0.4-0.3,0.8-0.3,1.3c0,4,1.7,7,5,9c-0.6,0.601-1.2,1.3-1.8,1.9
	c-1.1,1.399-1.7,2.5-1.7,3.6c0,0.2,0.101,0.4,0.101,0.601c0.3,1.3,1.3,2.8,2.899,4.399c2,2,3,3.4,3,4c0,0.4-1.5,5.5-4.5,15.3
	c0,0,1.601,2.5,4.7,7.301c1.7,2.3,3.2,3.899,4.7,5.199c0.1,0,0.2,0,0.399,0c0.601,0.101,1.101,0.101,1.601,0.101
	c1.3,0,3.1-0.3,5.6-0.7l0,0c2.5-0.4,3.9-0.7,4-0.7c0.4,0,0.8,0.101,1,0.4c-0.6,0.6-1.5,1.2-2.6,1.7c0.6,0.3,1.3,0.699,2.2,1
	c0.399,0.199,0.8,0.3,1.199,0.399c3.301,0.9,6.801,1.4,10.5,1.4c6.5,0,11-1.9,13.5-5.8c1.301-1.9,2-4,2-6.2c0-1.9-0.699-4-2-6.101
	c-0.8-1.3-1.8-2.199-2.8-2.8l-1.5,0.3c0.101,0.5,0.2,1.101,0.2,1.7c0,0.3-0.1,1.101-0.3,2.601c0.1,0.199-0.101,0.199-0.4,0.199
	c-0.5,0-0.8-0.399-1-1.1c-0.3-1.1-0.6-1.9-0.899-2.6c-0.4-1-1-1.7-1.801-2.301c-1.199-0.8-2.8-1.3-4.8-1.3
	c-0.6,0-1.399,0.101-2.2,0.5c0.101,0,0.101,0,0.101,0.101c-0.101,0-0.2,0-0.3,0c-0.7,0.3-1.601,0.8-2.5,1.3
	c-0.801,0.6-1.601,1-2.101,1.3c2.9,1.1,4.3,2.8,4.3,5.4c0,0.3-0.199,0.8-0.399,1.399c-0.101,0.7-0.4,1.101-0.601,1.4
	c-0.5-1.8-1-3.101-1.699-4.3c-1.101-2.2-3.101-3.2-6.101-3.2c-0.399,0-1.5,0.2-3.2,0.6c-0.399,0.101-0.6,0.2-0.8,0.3
	c-0.399,0-0.6,0.101-0.8,0.101c-0.7,0.2-1.1,0.2-1.1,0.2c-0.301-0.101-0.5-0.101-0.5-0.2c-0.101,0-0.2-0.101-0.2-0.4
	c0-0.899,0.899-1.6,2.5-2c0,0,0,0,0.1,0c0.4-0.1,0.9-0.1,1.4-0.2c1.1-0.1,2.399,0,3.7,0.101c0.5,0.1,0.899,0.1,1.3,0.2
	c0.2-1.101,1.1-2.101,2.899-2.801c0.601-0.3,1.2-0.5,1.801-0.699c-1.101-1.2-2.5-3.2-4-6c-0.7-1.2-1.5-2.601-2.301-4.2
	c-1.199-2.2-2.1-4.101-2.899-5.9c-1.9-4-2.9-6.8-2.9-8.2c0-0.399,0.101-0.699,0.3-1l-0.1-0.199c-0.8-0.9-1.3-2.2-1.8-3.9
	c-0.3-1.4-0.5-2.8-0.5-4.2c0-1,0.6-2.7,1.899-5.399c0.101-0.301,0.301-0.7,0.5-1.101c0.7-1.399,1.5-3,2.4-4.7
	c1.6-3,3.3-6.1,5.1-9.399c0.601-2,1.5-5.4,2.5-10.101c1-4.699,1.7-7.899,2.301-9.899c-0.2,2-0.301,3.7-0.301,5.1c0,0.4,0,0.601,0,1
	h0.2c0.101,0.4,0.101,0.8,0.3,1.101c0.4,1.3,1.301,2.399,2.7,3.5c1,0.8,1.9,1.3,2.8,1.6c0.5,0.2,1,0.3,1.5,0.3c0.301,0,1-1,2-3
	c0.101-0.2,0.2-0.5,0.2-0.6c0.9-1.9,1.4-3,1.5-3.4c0.4,0.3,0.601,0.5,0.9,0.7c0.6,0.6,1.1,0.8,1.399,0.8c0.601,0,1.7-0.6,3.4-1.7
	c0.8-0.6,1.6-1,2.4-1.399c0.1-0.5,0.199-1.101,0.199-1.8c0-2.801-1-4.801-2.8-6.2c-1.1-0.8-3.2-1.601-6.399-2.3
	c-3.101-0.801-5.4-1.601-6.801-2.5c-2.3-1.5-3.699-3.7-4.3-6.7c0.101,0.2,0.3,0.3,0.5,0.5c0.3,0.2,0.601,0.2,1,0.2
	c0.7,0,1.5-0.2,2.4-0.7c1-0.6,1.6-1.3,1.6-2c0-3.1-1.6-5.4-4.5-6.8c-1.899-0.8-5.1-1.5-9.8-2c-5-0.5-8.3-1.1-9.9-1.7
	c-3-1-4.6-2.8-4.699-5.4v-2.8c0.1,0,0.5,0.2,1.3,0.6s1.6,0.6,2.399,0.6c0.801,0,1.4-0.1,1.7-0.4c0.601-0.4,0.9-1.3,0.9-2.6
	c0-3.2-2.4-5.5-7-6.9c-2.9-0.9-4.5-1.4-5-1.7c-1-0.4-1.601-0.9-2.101-1.5C123.5,84.815,122.2,85.215,120.9,85.615z M113,98.515h0.1
	c0.8-0.6,1.5-1,2.3-1.5c2.6-1.5,4.8-2.3,6.399-2.3c1.601,0,3.301,1.1,5.2,3.5c2,2.4,3,4.8,3,7c0,2.1-1.6,3.8-4.899,5.3
	c-2.7,1.1-5.101,1.8-7.101,1.7c-3.3-0.2-6.7,1.4-10.4,4.8c-2.9,3.3-4.5,5.1-4.6,5.2v-6.5c1.5-4.4,3.8-8.4,6.7-11.8
	c1.5-1.7,2.9-3.1,4.3-4.2L113,98.515z M94,157.215v2.5c-0.5,0.5-2,1.601-4.3,3.4c-1.1,0.7-2.4,1.7-3.9,2.7
	c-5,3.5-8.1,5.399-9.3,5.899H73c-0.2-2,1.9-4.7,6.5-8.1c4.3-3.4,8.4-5.4,12-6.4H94z M82.7,210.815c0.1,0,0.2,0,0.3,0
	c0.5,0.199,0.8,0.3,1.1,0.399h0.1c0.3,0,0.5,0.101,0.7,0.2c3.1,1.2,4.6,3.2,4.6,6.1c0,0.2,0,0.4,0,0.601c0,0.1,0,0.3-0.1,0.5h-0.1
	c-0.1-0.101-0.2-0.3-0.3-0.4c-0.7-1.399-1.4-2.6-2-3.5c-0.6-1-1.5-1.6-2.5-2.1s-2.1-0.8-3.5-0.8c-0.2-0.101-0.5-0.101-0.7-0.101
	c-0.8,0-1.7,0.101-2.7,0.3h-0.1c-0.7,0.101-1.4,0.2-2.1,0.301c-1.5,0.5-2.5,0.8-2.7,0.8c-0.1,0.1-0.2,0.1-0.2-0.4
	c0-0.899,1-1.5,2.7-2c0.2-0.1,0.3-0.1,0.4-0.1c0.9-0.101,1.9-0.3,2.9-0.3c0.8,0,1.6,0.1,2.5,0.199
	C81.6,210.615,82.1,210.615,82.7,210.815z"/>
<path fill="#F3E7C0" d="M113.1,98.515H113l1,1.2c-1.4,1.1-2.8,2.5-4.3,4.2c-2.9,3.4-5.2,7.4-6.7,11.8v6.5c0.1-0.1,1.7-1.9,4.6-5.2
	c3.7-3.4,7.1-5,10.4-4.8c2,0.1,4.4-0.6,7.101-1.7c3.3-1.5,4.899-3.2,4.899-5.3c0-2.2-1-4.6-3-7c-1.899-2.4-3.6-3.5-5.2-3.5
	c-1.6,0-3.8,0.8-6.399,2.3C114.6,97.515,113.9,97.915,113.1,98.515z"/>
<path fill="#F3E7C0" d="M94,159.715v-2.5h-2.5c-3.6,1-7.7,3-12,6.4c-4.6,3.399-6.7,6.1-6.5,8.1h3.5c1.2-0.5,4.3-2.399,9.3-5.899
	c1.5-1,2.8-2,3.9-2.7C92,161.315,93.5,160.215,94,159.715z"/>
<path fill="#7F6950" d="M83,210.815c-0.1,0-0.2,0-0.3,0c-0.6-0.2-1.1-0.2-1.7-0.301c-0.9-0.1-1.7-0.199-2.5-0.199
	c-1,0-2,0.199-2.9,0.3c-0.1,0-0.2,0-0.4,0.1c-1.7,0.5-2.7,1.101-2.7,2c0,0.5,0.1,0.5,0.2,0.4c0.2,0,1.2-0.3,2.7-0.8
	c0.7-0.101,1.4-0.2,2.1-0.301h0.1c1-0.199,1.9-0.3,2.7-0.3c0.2,0,0.5,0,0.7,0.101c1.4,0,2.5,0.3,3.5,0.8s1.9,1.1,2.5,2.1
	c0.6,0.9,1.3,2.101,2,3.5c0.1,0.101,0.2,0.3,0.3,0.4h0.1c0.1-0.2,0.1-0.4,0.1-0.5c0-0.2,0-0.4,0-0.601c0-2.899-1.5-4.899-4.6-6.1
	c-0.2-0.1-0.4-0.2-0.7-0.2h-0.1C83.8,211.115,83.5,211.015,83,210.815z"/>
<path fill="#7F6950" d="M100,148.115l1.7,0.1c0.1-1.7,0.2-3.2,0.7-4.8c0.1-0.6,0.3-1.2,0.4-1.6c0.1-0.4,0.1-0.7,0.2-1
	c0-0.5,0.1-0.801,0.1-1.101c0-0.399,0-0.6-0.1-0.8c-0.1-0.6-0.3-0.3-0.6,0.5c-0.3,0.5-0.5,1.2-0.9,2.2
	C100.7,144.315,100.2,146.515,100,148.115z"/>
<path fill="#E5CD6F" d="M101.7,148.215l-1.7-0.1l1.7,0.5C101.7,148.515,101.7,148.315,101.7,148.215z"/>
<path fill="#7F6950" d="M100.5,151.515c0.1,0.7,0.3,1.5,0.5,2.5c0.8,2.601,1.8,4.2,2.9,4.801c0.6,2.199,0.8,4.3,0.8,6.399
	c0,1-0.1,2.101-0.2,3.2c-0.2,3.2-1,6.2-2.1,9.3c-0.1,0-0.1,0.101-0.1,0.101c-0.8,2.1-1.8,4.199-3,6.3c-1.3,2-2.7,4.1-4.3,6.1
	c-1.3,1.601-3.5,4.2-6.7,7.5c-2,2.2-3,3.601-3,4.2s0.2,0.8,0.7,0.9c1.1-0.7,2.3-1.601,3.4-2.5c0.2-0.2,0.4-0.4,0.6-0.601
	c1.8-1.5,3.4-3.2,4.9-5.2v0.101c0,0.3,0.1,0.7,0.5,1.1c0.2,0.2,0.6,0.601,1.2,1.3c-0.7,0.801-2,2.101-3.8,3.7
	c-0.8,0.601-1.2,1.4-1.3,2.2c-0.1,0.3-0.1,0.6-0.1,0.8c0,0.101,0,0.4,0.1,0.9c0.1,0.3,0.3,0.8,0.4,1.5c0.4,0.899,0.7,1.5,1.2,1.899
	v0.101c0,0.1,0,0.1,0.1,0.3c-0.3-0.1-0.7-0.2-1.1-0.2c-1.6-0.2-3-0.2-4.3-0.1c0-0.4,0.1-0.601,0.1-1c0-1.101-0.3-1.9-0.6-2.5
	c-0.3-0.4-0.7-0.7-1.2-1c-0.3-0.2-0.7-0.4-1.1-0.5c-0.3-0.2-0.6-0.3-1-0.4c0.2,0.5,0.5,1,0.7,1.5s0.6,1.101,0.9,1.7
	c0.2,0.3,0.4,0.7,0.8,1.2c0,0,0,0,0.1,0.1c0,0.101,0.1,0.3,0.3,0.4c0.1,0.1,0.2,0.399,0.3,0.6c-0.2,0-0.3,0-0.6,0.101c0,0,0,0-0.1,0
	c-0.9,0.3-1.5,0.6-1.9,0.899c-0.1,0.101-0.1,0.101-0.1,0.101c-0.4,0.3-0.5,0.699-0.5,1.199c0,0.2,0,0.301,0.1,0.4
	c0,0.1,0.1,0.1,0.2,0.1c0.3,0,0.6,0,0.9-0.1c0.5-0.1,1.1-0.3,1.8-0.4c1.1-0.399,2.6-0.6,4.4-0.6c1,0,1.8,0.1,2.6,0.3
	c0.1,0.4,0.4,0.601,0.6,0.601c0.3,0,0.4,0,0.5-0.101v-0.1c0.1,0,0.1,0,0.2,0.1c0.1,0,0.2,0,0.2,0.101c0.5,0.3,0.9,0.5,1.2,0.899
	c0.2,0.101,0.3,0.4,0.5,0.5c0.9,1.101,1.4,2.101,1.4,3c0,0.5-0.2,1.7-0.6,3.601c0,0.5,0.4,0.899,1,1.399c0.6-1.1,1-2,1.2-2.6
	c0.2-0.8,0.3-1.601,0.3-2.7c0-0.7-0.1-1.3-0.4-1.9l2,1.601c0.9,0.7,1.6,1.5,2,2.1c0.4,0.5,0.5,1.101,0.5,1.601
	c0,0.3,0,0.699-0.1,1.1c0,0.2-0.1,0.3-0.2,0.6c-0.2,0.2-0.3,0.601-0.5,0.801c-1.2,1.699-3.4,3.199-6.7,4.699
	c-1.5,0.601-2.9,1.101-3.9,1.5c-0.7-0.3-1.2-0.399-1.2-0.399l-7,0.5c-4.5,0-9.1-0.9-13.9-2.5c-0.6-0.3-1.3-0.5-2-0.8
	c-4.2-2-6.7-3.2-7.6-3.4v-0.1c0.6-0.301,1.1-0.7,1.4-1.101l-0.7-0.1c-1.1,0.1-2.1,0.1-3,0.1c-3,0.101-5.2-0.1-6.4-0.6
	s-1.7-1.4-1.7-2.601c0-1.199,0.2-2,0.6-2.8c0.3-0.399,0.9-1.5,1.8-3l-0.6-0.399c-2.1,1.399-3.2,3.8-3.2,7.199c0,2.601,3.2,4,9.3,4
	c0.7,0,1.4-0.199,2.1-0.5v0.101c0,1.1,2.9,2.7,8.5,5c0.2,0,0.4,0.1,0.6,0.2c0,0,0.2,0,0.2,0.1c6.1,2.3,11.6,3.4,16.9,3.4
	c0.8,0,1.7-0.101,2.4-0.2c0.2,0.2,0.6,0.3,1.3,0.3c4,0,7.8-1.6,11.2-4.7c1.2-1,2.1-2,2.8-2.899c0.2-0.2,0.4-0.5,0.6-0.7
	c0-0.101,0.1-0.3,0.2-0.5c0.8,0.399,1.9,0.6,3.1,1c2.1,0.5,3.7,0.7,5.1,0.7c1.7,0,3.4-0.4,4.899-1.301c0.7-0.399,1.2-0.8,1.601-1.1
	c0.8,1.2,2.2,2.6,4.1,4.3c3.7,3.101,7.7,5,12,5.4c0.8,0.1,1.601,0.2,2.4,0.2c0.899,0,1.7-0.101,2.6-0.101c0.101-0.1,0.4-0.1,0.5-0.1
	c0.601,0,1.101-0.101,1.601-0.3c0.399-0.101,0.899-0.2,1.399-0.301c0.5,0.5,1.3,1.101,2.2,1.5c0.1,0.101,0.2,0.101,0.3,0.101
	c3.4,1.7,8.601,2.6,15.4,2.6c6,0,10.399-2.1,13-6.399c0.6-0.801,1-1.7,1.399-2.601l0,0c0.601-1.7,1-3.399,1-5c0-2.2-0.699-4.5-1.8-7
	c-0.2-0.399-0.6-0.7-1.1-1.2c-0.101,0-0.101,0-0.101-0.1c-0.5-0.4-1.199-0.8-1.8-1.2c-0.6-0.399-1.2-0.6-2-1
	c-1.899-0.899-3.1-1.2-3.7-1c-0.199-0.1-0.3-0.1-0.399-0.2c-0.3-0.1-0.5-0.199-0.601-0.3c-0.399-0.2-0.899-0.399-1.3-0.5
	c-1.2-0.399-2.7-0.6-4.399-0.5c-1.2,0-2.301,0-3.301,0.3c-0.8-1.3-1.8-3-3.1-5c-0.4-0.8-0.9-1.399-1.2-2.1c-1.3-2-2.2-3.6-2.8-4.8
	c-0.8-2.7-1.6-4.8-2.1-6.3c-0.101-0.2-0.2-0.601-0.301-0.801c-0.8-1.899-1.5-3.399-2.399-4.699c-0.101-0.2-0.3-0.4-0.4-0.601
	c-0.2-0.2-0.5-0.5-0.7-0.7c-0.199,0.301-0.3,0.601-0.3,1c0,1.4,1,4.2,2.9,8.2c0.8,1.8,1.7,3.7,2.899,5.9
	c0.801,1.6,1.601,3,2.301,4.2c1.5,2.8,2.899,4.8,4,6c-0.601,0.199-1.2,0.399-1.801,0.699c-1.8,0.7-2.699,1.7-2.899,2.801
	c-0.4-0.101-0.8-0.101-1.3-0.2c-1.301-0.101-2.601-0.2-3.7-0.101c-0.5,0.101-1,0.101-1.4,0.2c-0.1,0-0.1,0-0.1,0
	c-1.601,0.4-2.5,1.101-2.5,2c0,0.3,0.1,0.4,0.2,0.4c0,0.1,0.199,0.1,0.5,0.2c0,0,0.399,0,1.1-0.2c0.2,0,0.4-0.101,0.8-0.101
	c0.2-0.1,0.4-0.199,0.8-0.3c1.7-0.399,2.801-0.6,3.2-0.6c3,0,5,1,6.101,3.2c0.699,1.199,1.199,2.5,1.699,4.3
	c0.2-0.3,0.5-0.7,0.601-1.4c0.2-0.6,0.399-1.1,0.399-1.399c0-2.601-1.399-4.301-4.3-5.4c0.5-0.3,1.3-0.7,2.101-1.3
	c0.899-0.5,1.8-1,2.5-1.3c0.1,0,0.199,0,0.3,0c0-0.101,0-0.101-0.101-0.101c0.801-0.399,1.601-0.5,2.2-0.5c2,0,3.601,0.5,4.8,1.3
	c0.801,0.601,1.4,1.301,1.801,2.301c0.3,0.699,0.6,1.5,0.899,2.6c0.2,0.7,0.5,1.1,1,1.1c0.3,0,0.5,0,0.4-0.199
	c0.2-1.5,0.3-2.301,0.3-2.601c0-0.6-0.1-1.2-0.2-1.7c-0.1-0.5-0.399-0.899-0.7-1.399c0.801,0.2,1.601,0.6,2.2,1.1
	c1,0.601,2,1.5,2.8,2.8c1.301,2.101,2,4.2,2,6.101c0,2.2-0.699,4.3-2,6.2c-2.5,3.899-7,5.8-13.5,5.8c-3.699,0-7.199-0.5-10.5-1.4
	c-0.399-0.1-0.8-0.2-1.199-0.399c-0.9-0.301-1.601-0.7-2.2-1c1.1-0.5,2-1.101,2.6-1.7c-0.2-0.3-0.6-0.4-1-0.4c-0.1,0-1.5,0.3-4,0.7
	l0,0c-2.5,0.4-4.3,0.7-5.6,0.7c-0.5,0-1,0-1.601-0.101c-0.199,0-0.3,0-0.399,0c-3.2-0.5-6.5-1.899-10-4.3
	c-3.601-2.6-5.5-4.399-5.5-5.5c0-0.5,0.2-1.6,0.6-3.1c0.5-1.5,0.7-2.4,0.7-2.601c0-0.699-0.3-1.5-0.9-2.399c0,0,0-0.101-0.1-0.2
	c-0.7-1-1.1-0.9-1.1,0.1c0,1.801-0.101,3.5-0.601,4.801c-0.399,1.5-0.5,2.699-0.5,3.5c0,0.399,0,0.699,0.3,1.1
	c-0.8,0.3-1.399,0.7-2,0.9c-1.399,0.5-2.8,0.8-4.2,0.8c-0.4,0-1.9-0.3-4.5-0.7c-1.2-0.3-2.2-0.4-2.8-0.6c0.1-0.301,0.1-0.7,0.1-1
	c0-0.801-0.3-1.7-0.9-2.7c0,0-0.1,0-0.1-0.101c-0.6-0.899-1.4-1.699-2.4-2.5c-2-1.699-3.1-2-3.4-0.899c-0.7-1.101-1.7-2-3.1-2.601
	c-0.3-0.199-0.6-0.3-1-0.399c-0.1,0-0.2-0.101-0.3-0.101s-0.2,0-0.2-0.1c-0.1-0.2-0.1-0.3-0.1-0.4c0,0,0-0.1,0-0.199
	c-0.1-0.101-0.2-0.301-0.3-0.301c0-0.1,0-0.199,0.1-0.199c0.2-0.301,0.2-0.601,0.2-0.601c-0.9-0.7-1.4-1.5-1.8-2.2
	c-0.1-0.3-0.1-0.399-0.2-0.699c0-0.2,0-0.5,0-0.7c0-0.5,0.9-1.8,2.9-3.601c1.9-1.8,2.9-2.899,2.9-3.1c-0.7-1.2-1.2-2.2-1.9-2.9
	c-0.3-0.399-0.7-0.699-0.9-0.8c1.8-2.5,3.5-5.2,5-8.2c1.2-2.3,2.2-4.5,3.1-6.6c0.2-0.6,0.4-1.1,0.5-1.6c0.6-1.7,1.1-3.4,1.5-5
	c0.5-2.301,0.8-4.601,0.8-6.601c0-0.1,0-0.2,0-0.2c0-2.199-0.3-4.199-0.8-6.199c0.1-0.101,0.2-0.2,0.3-0.2
	c0-0.101,0.1-0.101,0.1-0.2c0.1,1.1,0.1,2.3,0.2,3.8c0.2,1.101,0.4,2,0.7,2.9c0,0.1,0,0.1,0.1,0.2c0.6,2.3,1.6,3.5,2.9,3.699
	c0.1,0,0.2,0,0.2,0c0.1,0,0.2,0,0.3,0c0.2,0.801,0.7,2.101,1.6,3.7c0.6,1.3,1.5,2.8,2.4,4.4c1.8,3.1,3.2,5.7,4.2,7.8
	c-0.1,0.1-0.2,0.1-0.3,0.2c-0.3,0.2-0.5,0.6-0.5,1c0,0.1,0.1,0.3,0.2,0.5c-0.4,0.6-0.8,1.6-1.1,2.899
	c-0.2,0.301-0.3,0.601-0.3,0.801c-0.5,1.6-0.7,2.899-0.7,3.899c0,0.9,0.3,1.9,1.2,2.9c0.9,1.2,2,2.1,3.5,2.399
	c0.3,0,0.5,0,0.601,0.101c0.3,4,0.8,7,1.6,9.2c0.4-1.101,0.7-3.4,0.8-7c0-0.601,0-1.301,0.101-2.2c0-1,0-2.3,0-3.7
	c0-1.3-0.101-2.7-0.301-4.1c-0.399-2-1-4.101-1.899-6.2c0-0.101,0-0.101,0-0.101c0-0.199-0.101-0.399-0.2-0.5
	c-0.9-2.3-2.1-4.5-3.5-6.899c-0.1-0.101-1.4-2.2-4-6.3c-1.3-1.9-1.8-3.2-1.8-3.7c0.1-1.3,0.2-2.2,0.2-2.9c0.1-1-0.2-1.899-0.7-2.5
	c-0.2,0.2-0.5,1-0.9,2.5c-0.1,0.3-0.1,0.601-0.2,1c-0.2,0.601-0.2,1.101-0.3,1.5c-0.2-0.5-0.5-1.1-0.6-1.7
	c-0.9-2.3-1.4-4.899-1.9-7.899c-0.1-1.601-0.3-3.2-0.4-4.9c-0.7,0-1.2,0.4-1.3,1.2c-0.1,0.2-0.2,0.5-0.2,0.8c0,0,0.1,0.9,0.3,2.5
	c-0.3,0-0.5-0.1-0.6-0.1c-0.4-1.5-1-3-1.7-4.5c-0.6-1.5-1.5-2.601-2.3-3.5c0-0.601-0.1-0.9-0.1-1l-1.7-0.5
	c-2.9-1.9-6.6-1.7-11.1,0.6c-3.1,1.7-6,3.4-8.4,5c-2,1.4-3.8,2.7-5.4,4c-0.6,0.601-1.3,1.2-2,1.8c-1.7,1.7-3.3,3.601-4.7,5.5
	c-1,1.601-2,3.101-2.8,4.7c0.3-0.2,1.6-1.6,3.8-4.1c2.4-2.8,4.5-5.101,6.6-7c1.7-1.5,3.4-2.9,5-4c2.9-2,5.7-3.4,8.5-4.3
	c2-0.601,4-0.9,6.1-0.9c1.1,0,2.1,0.2,3,0.7C99.3,150.515,99.9,150.915,100.5,151.515z M119.5,186.815c0-0.101,0-0.2,0-0.2
	c0-0.101,0-0.3,0-0.3c0-0.101,0-0.101,0.101-0.101c0.3,0.9,0.699,1.7,0.8,2.4c0.5,1.899,0.899,5,1.1,9.399
	c-0.6-0.399-1.399-0.8-2.399-1.399c-0.301-0.101-0.601-0.3-0.7-0.5c-0.5-0.5-0.8-1.101-0.8-1.8c0-0.601,0.3-1.7,0.9-3.601v-0.1
	C119.101,188.715,119.5,187.515,119.5,186.815z"/>
<path fill="#E5CD6F" d="M76,187.715c-0.1,0.101-0.1,0.2-0.2,0.4c-2,2.1-4.4,4.2-7.3,6.1c-3.5,2.5-7.2,4.4-11.1,5.8
	c-0.2,0.801-0.5,2.101-0.9,3.601c-0.3,0.899-0.6,1.6-0.8,2.399c-0.7,2-1.2,3.2-1.8,3.9c0,0,0,0,0-0.1l-0.5,0.399
	c-0.9,1.5-1.5,2.601-1.8,3c-0.4,0.8-0.6,1.601-0.6,2.8c0,1.2,0.5,2.101,1.7,2.601s3.4,0.7,6.4,0.6l-0.1-0.5
	c-1-0.399-1.6-0.899-1.9-1.5c0-0.2-0.1-0.6-0.1-1.2c0-3.899,0.5-6.899,1.4-9c0.7-1.8,2-3.399,3.9-5c1.1-1,3.1-2.699,6-5
	c2.7-2.5,5.3-5.399,7.7-8.8l0,0V187.715z"/>
<path fill="#937E67" d="M96.8,194.015c0.7,0.7,1.2,1.7,1.9,2.9c0,0.2-1,1.3-2.9,3.1c-2,1.801-2.9,3.101-2.9,3.601c0,0.2,0,0.5,0,0.7
	c0.1,0.3,0.1,0.399,0.2,0.699c0.4,0.7,0.9,1.5,1.8,2.2c0,0,0,0.3-0.2,0.601c-0.1,0-0.1,0.1-0.1,0.199c0.1,0,0.2,0.2,0.3,0.301
	c0,0.1,0,0.199,0,0.199c0,0.101,0,0.2,0.1,0.4c0,0.1,0.1,0.1,0.2,0.1s0.2,0.101,0.3,0.101c0.7-2.601,1.8-5.8,3.4-9.5
	c0.4-0.8,0.6-1.4,1-2.101c2.1-4.5,4-6.8,5.6-6.8c0.8,0,1.2,0,1.3,0.101c0.1,0.1,0.6,0.5,1.2,1.399c0.3-0.1,0.8-1,1.5-2.6
	c0.6-1.3,1.4-1.9,2.3-1.9c0.6,0,1.7,0.601,3.6,1.8c0.5,0.301,1.1,0.7,1.6,0.801c0-0.2,0.1-0.5,0.3-0.801c0.3-1.3,0.7-2.3,1.1-2.899
	c-0.101-0.2-0.2-0.4-0.2-0.5c0-0.4,0.2-0.8,0.5-1c0.1-0.101,0.2-0.101,0.3-0.2c-1-2.1-2.4-4.7-4.2-7.8c-0.9-1.601-1.8-3.101-2.4-4.4
	c-0.9-1.6-1.4-2.899-1.6-3.7c-0.1,0-0.2,0-0.3,0c0,0-0.1,0-0.2,0c-1.3-0.199-2.3-1.399-2.9-3.699c-0.1-0.101-0.1-0.101-0.1-0.2
	l-0.5,0.1c0,2-0.3,4.3-0.8,6.601c-0.4,1.6-0.9,3.3-1.5,5c-0.1,0.5-0.3,1-0.5,1.6c-0.9,2.1-1.9,4.3-3.1,6.6c-1.5,3-3.2,5.7-5,8.2
	C96.1,193.315,96.5,193.615,96.8,194.015z"/>
<path fill="#7F6950" d="M156.8,138.715c0-0.399,0-0.6,0-1c0-1.399,0.101-3.1,0.301-5.1c-0.601,2-1.301,5.2-2.301,9.899
	c-1,4.7-1.899,8.101-2.5,10.101c-1.8,3.3-3.5,6.399-5.1,9.399c-0.9,1.7-1.7,3.301-2.4,4.7c-0.199,0.4-0.399,0.8-0.5,1.101
	c-1.3,2.699-1.899,4.399-1.899,5.399c0,1.4,0.2,2.8,0.5,4.2c0.5,1.7,1,3,1.8,3.9c0.1-1.5,0.1-2.301,0.1-2.7
	c-0.399-2.101-0.6-3.4-0.6-3.7c0-0.2,0-0.3,0.1-0.3c0-0.101,0-0.101,0-0.2c0-0.3,0-0.8,0.2-1.2c0.101-0.899,0.5-1.899,1-3
	c0.2-0.5,0.4-1,0.601-1.399c0.5-1,1.3-2.4,2.3-4.2c0.6-1.2,1.3-2.4,2.1-3.9c1.101-2.1,2.101-4.3,3-6.399c0.3-1,0.601-2,1-2.9
	c1.3-4,2-7.9,2.3-11.7C156.8,139.415,156.8,139.115,156.8,138.715z"/>
<path fill="#7F6950" d="M180.9,146.915c0.2-1.1,0.2-2.2,0.2-3.3c0-0.5-0.2-1.101-0.601-2c-0.6,1.6-1.2,3.8-2,6.8
	c-0.2,0.7-0.399,1.4-0.6,2.3c-0.101,0.3-0.101,0.5-0.2,0.7c-1.4,4.1-3.7,7.4-6.8,10.1c0.2,0.101,0.5,0.301,0.8,0.5
	c3.6-2.8,6.2-5.8,7.7-9.3c0.2-0.5,0.399-1.1,0.7-1.6c0.1-0.5,0.199-1,0.399-1.5C180.601,148.715,180.8,147.815,180.9,146.915z"/>
<path fill="#B5936C" d="M106.3,158.615c-0.1,0-0.2,0.1-0.3,0.2c0.5,2,0.8,4,0.8,6.199c0,0,0,0.101,0,0.2l0.5-0.1
	c-0.3-0.9-0.5-1.8-0.7-2.9c-0.1-1.5-0.1-2.7-0.2-3.8C106.4,158.515,106.3,158.515,106.3,158.615z"/>
<path fill="#E5CD6F" d="M109.9,166.015l0.9,0.2c0.1-0.399,0.1-0.7,0.2-1c0.4-1.5,0.7-2.3,0.9-2.5c0.5,0.601,0.8,1.5,0.7,2.5
	c0,0.7-0.1,1.601-0.2,2.9c0,0.5,0.5,1.8,1.8,3.7c2.6,4.1,3.9,6.199,4,6.3c1.4,2.399,2.6,4.6,3.5,6.899c0.1,0.101,0.2,0.301,0.2,0.5
	c0,0,0,0,0,0.101c0.899,2.1,1.5,4.2,1.899,6.2c0.2,1.399,0.301,2.8,0.301,4.1c0,1.4,0,2.7,0,3.7c-0.101,0.899-0.101,1.6-0.101,2.2
	c-0.1,3.6-0.399,5.899-0.8,7l-1.4,0.8c0.601,0.899,0.9,1.7,0.9,2.399c0,0.2-0.2,1.101-0.7,2.601c-0.399,1.5-0.6,2.6-0.6,3.1
	c0,1.101,1.899,2.9,5.5,5.5c3.5,2.4,6.8,3.8,10,4.3c-1.5-1.3-3-2.899-4.7-5.199c-3.1-4.801-4.7-7.301-4.7-7.301
	c3-9.8,4.5-14.899,4.5-15.3c0-0.6-1-2-3-4c-1.6-1.6-2.6-3.1-2.899-4.399c0-0.2-0.101-0.4-0.101-0.601c0-1.1,0.601-2.2,1.7-3.6
	c0.6-0.601,1.2-1.3,1.8-1.9c-3.3-2-5-5-5-9c0-0.5,0.101-0.899,0.3-1.3c0.101-0.3,0.2-0.6,0.2-0.7c-1.6,1.9-3.3,0.9-4.899-3
	c-1.301-3.1-2-6-2.101-8.3c-2.1,0.7-4.1,0.5-5.9-0.5c-1.5-0.8-2.8-2.3-4.1-4.3C108.5,161.115,109,163.715,109.9,166.015z"/>
<path fill="#B5936C" d="M106.8,190.815c-0.1-0.101-0.5-0.101-1.3-0.101c-1.6,0-3.5,2.3-5.6,6.8c-0.4,0.7-0.6,1.301-1,2.101
	c-1.6,3.7-2.7,6.899-3.4,9.5c0.4,0.1,0.7,0.2,1,0.399c1.4,0.601,2.4,1.5,3.1,2.601c0.3-1.101,1.4-0.8,3.4,0.899
	c1,0.801,1.8,1.601,2.4,2.5c0,0.101,0.1,0.101,0.1,0.101c0.6,1,0.9,1.899,0.9,2.7c0,0.3,0,0.699-0.1,1c0.6,0.199,1.6,0.3,2.8,0.6
	c2.6,0.4,4.1,0.7,4.5,0.7c1.4,0,2.8-0.3,4.2-0.8c0.601-0.2,1.2-0.601,2-0.9c-0.3-0.4-0.3-0.7-0.3-1.1c0-0.801,0.101-2,0.5-3.5
	c0.5-1.301,0.601-3,0.601-4.801c0-1,0.399-1.1,1.1-0.1c0.1,0.1,0.1,0.2,0.1,0.2l1.4-0.8c-0.8-2.2-1.3-5.2-1.6-9.2
	c-0.101-0.101-0.301-0.101-0.601-0.101c-1.5-0.3-2.6-1.199-3.5-2.399c-0.9-1-1.2-2-1.2-2.9c0-1,0.2-2.3,0.7-3.899
	c-0.5-0.101-1.1-0.5-1.6-0.801c-1.9-1.199-3-1.8-3.6-1.8c-0.9,0-1.7,0.601-2.3,1.9c-0.7,1.6-1.2,2.5-1.5,2.6
	C107.4,191.315,106.9,190.915,106.8,190.815z"/>
<path fill="#7F6950" d="M174.101,150.115c0-0.101,0-0.3,0-0.5c-1.101,0.7-1.801,1.899-2.4,3.399c-0.1,0.2-0.2,0.301-0.2,0.601
	c-1,3-1.5,4.7-1.6,4.899c-0.3,0.7-0.8,1.5-1.3,2.2H168.5c-0.899,1.3-2,2.5-3.399,3.8c-0.801,0.7-1.5,1.2-2,1.7
	c-0.4,0.4-0.7,0.5-0.801,0.7c0.2-0.3,0.4-0.4,0.601-0.7c2.2-2.5,3.3-4.8,3.3-7c0-0.2-0.1-0.3-0.1-0.399c0,0,0,0-0.101,0h-0.1
	c-0.4,0.5-1.4,1.899-2.9,4.199c-0.7,1.2-1.5,2.2-2.2,3.101c-0.6,0.6-1.199,1.1-1.699,1.5c-0.5,0.5-3.101,1.6-7.7,3.5
	c-4.2,1.6-6.3,2.899-6.3,3.5c0,0,0.399,0.2,0.899,0.6c1.8-0.2,3.4-0.6,4.9-1.1c0,0.1,0,0.2,0,0.3c0.1,1.8,1.3,3.9,3.5,6.5
	c0.899,1.2,1.899,2.1,2.899,2.8l0,0c0,0.3,0.4,1.5,1.301,3.5c0.399,1,0.699,1.8,0.899,2.601c0.3,1.1,0.4,2,0.4,2.899
	c0,3,0.399,5.101,0.899,6.601c0.7,1.8,2.2,4.199,4.7,7.3c0.4,0,0.601-0.101,0.601-0.3c-0.4-1-0.801-1.9-1.2-2.7
	c-0.101-0.2-0.2-0.4-0.3-0.5c-0.4-0.9-0.7-1.8-1.101-2.5c-1-2.3-1.6-4.101-1.6-5.5c-0.101-2.8-0.601-5-1.4-6.8
	c-0.1-0.2-0.2-0.4-0.3-0.601c-0.7-1.1-1.1-2.1-1.3-2.899c1.1,0.5,2.1,0.899,3.2,1c0.3,0.1,0.6,0.1,0.899,0.199v-0.199
	c-0.1-0.2-0.3-0.301-0.5-0.601c-0.6-0.7-1.6-1.7-3.1-2.899c-2-1.5-3.4-2.5-3.9-3.101c-0.1,0-0.7-1.2-1.899-3.5
	c-0.4-1-1-1.5-1.801-1.899c3.301-1.2,6.301-3.101,9-5.5c0.4-0.4,0.801-0.801,1.2-1.2c0,0.2,0.101,0.399,0.3,0.5h0.601
	c1-0.601,2-1.2,2.899-1.9c1.801-1.3,3.301-2.899,4.601-4.6l0,0c0.5-0.8,0.899-1.5,1.3-2.3c1.1-2.101,1.8-4.5,2.2-7.301
	C173.9,151.015,174,150.615,174.101,150.115z"/>
<path fill="#EBD686" d="M180.9,171.915c0-0.1,0-0.1,0.1-0.1c-0.399-0.4-0.8-1-0.899-1.801c-0.2-0.899-0.4-1.399-0.5-1.8
	c-1.801-0.2-3.5,0.9-5,3.3c-1.4,3.101-2.4,5.101-3.101,6.2c0-1.399-0.1-2.399-0.5-3c-0.6,1.4-1.899,6.3-3.6,14.8
	c-0.9,4.101-1.8,8.7-2.8,13.601c0.1,0.1,0.199,0.3,0.3,0.5c0.399,0.8,0.8,1.7,1.2,2.7c0,0.199-0.2,0.3-0.601,0.3v0.1
	c0.4,0.101,0.9,0.3,1.3,0.5c0.101,0.101,0.301,0.2,0.601,0.3c0.1,0.101,0.2,0.101,0.399,0.2c0.601-0.2,1.801,0.101,3.7,1
	c0.8,0.4,1.4,0.601,2,1c0.601,0.4,1.3,0.8,1.8,1.2c0,0.1,0,0.1,0.101,0.1c0.5,0.5,0.899,0.801,1.1,1.2c1.101,2.5,1.8,4.8,1.8,7
	c0,1.601-0.399,3.3-1,5l0,0l0.301,0.101c0.1,0,0.1,0,0.199-0.101c0-0.1,0.2-0.1,0.5-0.1c0,0,1.2,0.5,3.301,1.5
	c1,0.399,1.899,0.7,2.899,1c0.4,0.1,0.9,0.2,1.4,0.3c1.2,0.2,2.399,0.3,3.7,0.3c4,0,7.199-1.1,9.5-3.5c1.199-1,2.199-2.3,3.1-3.7
	c0-0.199,0-0.3,0-0.399c0.4-2.5,0.7-4.3,0.7-5.3c0-1.801-0.601-3.5-1.8-4.9c-1.801-2-4.5-2.9-8.101-2.8
	c1.4,1.6,2.101,3.5,2.101,5.899c0,0.101,0,0.2-0.101,0.5c-0.1,0.101-0.3,0.2-0.7,0.2c-0.5,0-1-0.2-1.199-0.7
	c-0.2-0.199-0.301-0.3-0.301-0.6c-0.199-1.2-0.5-2.2-0.699-2.8c-1.101-2.8-3.801-4.2-8-4.2c-1.2,0-1.9,0.1-2.2,0.3
	c-0.4,0.2-0.8,0.4-1.2,0.4c-0.1-0.101-0.3-0.2-0.4-0.3c-0.199-0.2-0.399-0.301-0.399-0.4c0-0.9,0.899-1.6,2.399-1.8
	c0.601-0.2,1.301-0.3,2-0.2v-0.2c-0.5,0-1-1.5-1.199-4.6c-0.301-2.601-0.5-4.9-0.301-7.101c0-0.6-0.3-2.399-1-5.5
	c-0.6-2.5-0.899-4.3-1-5.3c0-0.1,0-0.2,0-0.399c-0.3,0.8-0.5,1.1-0.6,1.1c-0.6,0-0.9-0.2-1.1-0.5c0-0.1-0.101-0.3-0.101-0.6
	C179,179.015,179.601,176.315,180.9,171.915z M177.3,207.915c0.301,0,0.5,0.1,0.601,0.1c0.6,0.101,1.2,0.2,1.899,0.5
	c0.5,0.101,1.101,0.4,1.7,0.7c4.101,2.101,6.101,4.5,6.101,7.3c0,0.4,0,0.7-0.101,0.7l0,0c0.101,0.2,0,0.3-0.399,0.3
	c-0.801-1.199-1.801-2.399-3-3.699c-2.301-2.4-5-3.7-7.801-3.801c0-0.1-0.199-0.1-0.199-0.1l-0.601-0.7
	C175.5,208.215,176.101,207.815,177.3,207.915z"/>
<path fill="#7F6950" d="M177.9,208.015c-0.101,0-0.3-0.1-0.601-0.1c-1.199-0.1-1.8,0.3-1.8,1.3l0.601,0.7c0,0,0.199,0,0.199,0.1
	c2.801,0.101,5.5,1.4,7.801,3.801c1.199,1.3,2.199,2.5,3,3.699c0.399,0,0.5-0.1,0.399-0.3l0,0c0.101,0,0.101-0.3,0.101-0.7
	c0-2.8-2-5.199-6.101-7.3c-0.6-0.3-1.2-0.6-1.7-0.7C179.101,208.215,178.5,208.115,177.9,208.015z"/>
<path fill="#7F6950" d="M180.7,205.615c0.4,0,0.8-0.2,1.2-0.4c0.3-0.2,1-0.3,2.2-0.3c4.199,0,6.899,1.4,8,4.2
	c0.199,0.6,0.5,1.6,0.699,2.8c0,0.3,0.101,0.4,0.301,0.6c0.199,0.5,0.699,0.7,1.199,0.7c0.4,0,0.601-0.1,0.7-0.2
	c0.101-0.3,0.101-0.399,0.101-0.5c0-2.399-0.7-4.3-2.101-5.899c3.601-0.101,6.3,0.8,8.101,2.8c1.199,1.4,1.8,3.1,1.8,4.9
	c0,1-0.3,2.8-0.7,5.3c0,0.1,0,0.2,0,0.399c-0.9,1.4-1.9,2.7-3.1,3.7c-2.301,2.4-5.5,3.5-9.5,3.5c-1.301,0-2.5-0.1-3.7-0.3
	c-0.5-0.1-1-0.2-1.4-0.3c-1-0.3-1.899-0.601-2.899-1c-2.101-1-3.301-1.5-3.301-1.5c-0.3,0-0.5,0-0.5,0.1
	c-0.1,0.101-0.1,0.101-0.199,0.101c0,0.3,0,0.399,0,0.5c0,0.699,0.8,1.399,2.5,2.399c2.399,1.4,5.5,2.101,9.5,2.101
	c4.199,0,7.699-1.301,10.399-4c1.9-1.9,2.9-3.5,2.9-4.801c0.6-0.699,1.1-1.6,1.399-2.8c0.301-1.1,0.5-2.2,0.5-3.5
	c0-3.1-2.1-5.899-6.199-8.1c-1.7-0.9-3.101-1.4-4.301-1.5c-1.3,0-2,0.5-2,1.3c-1.199-1.1-2.8-1.9-4.699-2.4
	c-1.2-0.399-2.301-0.5-3.301-0.6c-0.699-0.1-1.399,0-2,0.2c-1.5,0.2-2.399,0.899-2.399,1.8c0,0.1,0.2,0.2,0.399,0.4
	C180.4,205.415,180.601,205.515,180.7,205.615z"/>
<path fill="#B88349" d="M209.101,16.615c-1-0.4-2.4-0.9-4-1.4c-3.301-1.2-5.301-2.2-5.801-2.8c-0.699-1.4-1.5-2.6-2.5-3.7
	c-1.6-2.1-3.399-3.2-5.199-3.2c-2.101,0-4.2,0.8-6.101,2.4c-2,1.6-3.7,2.4-5.2,2.4c-1.1,0-1.8-0.1-2.199-0.3
	c-0.101,0-0.2,0-0.301-0.2c-0.199,0-0.199-0.2-0.3-0.3c-0.6-0.2-1.2-0.7-1.7-1.1c-0.8-0.7-1.399-1.2-1.699-1.5v1.4
	c0,0.7,0.5,1.7,1.699,2.7c1.2,1,2.301,1.5,3.4,1.5c0.4,0,0.9,0,1.4,0c1.699-0.3,3.3-0.9,5-1.9c2-1.2,3.699-1.8,5-1.8
	c1,0,2,0.5,3,1.5s1.699,2,1.8,3.1c0.3,1.9,3.2,3.4,8.7,4.6c0.699,0.2,2.199,0.4,4.1,0.6c0.8,0.2,1.4,0.6,1.8,0.9
	c0.3,0.4,0.601,0.8,0.601,1.4c0,2.3,1.5,4.1,4.5,5.4c-1,0.3-1.801,0.6-2.301,0.9c-0.899,0.5-1.5,1.2-1.6,2.1c0.5-0.8,2.1-1.3,5-1.2
	c1.4,0.1,2.4,0.2,3.2,0.4c-0.3-1.4-0.9-2.4-1.8-3c-0.4-0.2-0.801-0.5-1.101-0.8c-1-0.9-1.8-1.9-2.399-3.1c-1-1.8-1.801-3-2.301-3.4
	c-0.199-0.2-0.3-0.3-0.5-0.4C210.7,17.415,210,17.015,209.101,16.615z"/>
<path fill="#7F6950" d="M205.101,15.215c1.6,0.5,3,1,4,1.4c0.899,0.4,1.6,0.8,2.199,1.2c0.2,0.1,0.301,0.2,0.5,0.4
	c0.5,0.4,1.301,1.6,2.301,3.4c0.6,1.2,1.399,2.2,2.399,3.1c0.3,0.3,0.7,0.6,1.101,0.8c0.899,0.6,1.5,1.6,1.8,3
	c-0.8-0.2-1.8-0.3-3.2-0.4c-2.9-0.1-4.5,0.4-5,1.2c-0.1,0-0.1,0-0.1,0.1s0,0.3,0,0.4c0,0.3,0,0.5,0.1,0.5l0.1,0.1
	c0.5,0.1,1,0.2,1.101,0.2c0.1,0,0.3,0,0.7-0.1c-0.4,0.7-0.5,1.2-0.5,1.7s0.199,1.1,0.699,1.8c0.101,0.2,0.301,0.5,0.601,0.8
	c0.6,0.7,1.3,1.3,2.2,2c0.5,0.5,1,1,1.5,1.5c0.399,0.4,0.699,0.9,1,1.4c0.699,0.9,1,1.8,1,2.8c0,0.6-0.301,1.4-0.7,2.3
	c-0.5,0.9-0.8,1.6-1,2.2c0-0.6,0-1,0-1.5c-0.101-1.5-0.2-2.7-0.3-3.5c-0.101-0.4-0.301-0.7-0.4-1c-0.5-0.9-1.4-1.5-2.6-1.7
	c0,0,0,0-0.101-0.1c-0.2-0.2-0.399-0.4-0.7-0.4c0-0.5,0-0.8,0-1.1c0-0.9-0.3-1.5-0.899-1.9c-0.3-0.2-0.601-0.4-1.2-0.6h-0.1
	c-0.301-0.2-0.801-0.4-1.301-0.6c0,0.3,0,0.4,0,0.6c0,0.1,0.5,0.8,1.301,1.9c0.5,0.7,0.899,1.2,1.199,1.5
	c0.101,0.1,0.101,0.1,0.101,0.2c-0.101,0-0.101,0-0.3,0c-1,0.2-1.801,0.6-2.301,1.2c-0.199,0.2-0.399,0.5-0.5,0.8
	c1.801-0.6,2.801-1,3.2-1h0.101c0.199,0,0.5,0,0.699,0.1c0.301,0.4,0.5,0.7,1,1.2c-0.399,0.1-0.899,0.2-1.399,0.3
	c-2.101,0.6-3.3,1.6-3.9,2.9h0.601c0.1-0.1,0.1-0.1,0.199-0.1c-0.399,0.4-0.5,0.8-0.5,1.2s0.2,1.1,0.7,2c0,0.1,0.101,0.2,0.101,0.4
	c0,0.1-0.101,0.3-0.5,0.6c-1,0.4-1.601,0.9-1.601,1.4c0,0.2,0.101,0.4,0.101,0.4c0.3-0.1,0.699-0.2,1-0.5
	c0.1,0.1,0.199,0.1,0.199,0.1c0.101-0.1,0.301-0.2,0.5-0.3c0.4-0.2,0.9-0.3,1.5-0.4c1-0.1,1.9-0.5,2.5-1c0.2-0.1,0.4-0.3,0.5-0.5
	h0.101c0.8-0.7,1.399-1.3,1.8-1.8c0.1,0.2,0.1,0.3,0.1,0.5c0.101,0.2,0.2,0.3,0.301,0.5c0,0,0,0.1,0,0.2c-0.2,0.2-0.4,0.5-0.601,0.8
	c-0.2,0.5-0.3,0.7-0.3,0.8l0.1,0.1c-0.199-0.1-0.5-0.1-0.699-0.2c0.3,0.3,0.5,0.5,0.8,0.8c0.1,0,0.2,0,0.2,0.1v0.1
	c0.699,0.5,1.5,1.2,2.199,1.8c0.5,0.4,1,0.8,1.5,1.2c2,1.5,4.101,3.1,6.5,4.8c0.801,0.7,1.601,1.5,2.301,2.2
	c0.3,0.3,0.6,0.8,0.8,1.2c0,0.1,0,0.3,0,0.5c-0.2,0.8-0.8,1.4-1.9,2c-0.2,0.1-0.399,0.2-0.7,0.3c-1,0.4-2.199,0.6-3.399,0.7
	c-0.101,0-0.101,0-0.3,0c-0.4,0-0.9,0-1.301,0c-3.699-0.2-7.5-0.7-11.399-1.6c-1-0.1-1.9-0.4-2.8-0.6c-1.301-0.4-2.4-0.7-3.301-0.9
	c-0.5-0.1-1-0.3-1.5-0.4c0,0,0,0,0-0.1c-1-1.1-1.899-2.1-2.699-3c-1.5-1.6-2.801-3-3.7-4.1c-1.101-1.2-2.101-2.2-3.101-3
	c-1-1-2-1.6-3-2c-0.199-0.2-0.399-0.2-0.6-0.3l-0.1,0.3c0,0.1,0,0.3,0.199,0.5c0.301,0.5,1,1.3,2.101,2.4
	c0.7,0.6,1.399,1.4,2.399,2.3c1.9,1.9,3.5,3.6,4.9,4.9c1.2,1.2,2.1,2.2,2.8,3c0.101,0.3,0.3,0.6,0.601,0.9c1.5,1.8,2.8,3.5,4,4.8
	c2,2.4,3.5,4,4.5,4.6c0.199,0.1,0.3,0.3,0.5,0.4c1.5,0.9,3.199,1.5,5.199,1.9c2.101,0.4,4.5,0.6,7.301,0.6c0.1,0,0.199,0,0.3,0
	c0,0,0,0,0,0.1h0.5c0.1-0.1,0.1-0.1,0.1-0.1c1.9-0.2,3.4-0.8,4.5-1.8c0.101,0.3,0.2,1,0.5,2.2v0.1c0,0.3,0.101,0.7,0.101,1
	c0.199,1,0.3,1.6,0.3,1.9c0,0.1-0.101,1.3-0.601,3.7c-0.5,1.7-1.399,2.8-2.5,3.3c-0.1,0-0.199,0.1-0.399,0.1
	c-0.3,0-0.601,0.1-0.8,0.1c-0.5,0-1-0.2-1.801-0.8c-0.6-0.4-1.199-0.6-2-0.8c-0.399,0-0.8,0-1.199,0c-0.7,0-1.5,0.1-2.801,0.5
	c-0.8,0.2-1.8,0.5-2.899,0.8c-2.8,0.9-5,1.3-6.5,1.3c-0.4,0-0.8,0-1.2-0.1c-2.4-0.3-4.9-1.8-7.2-4.2c-0.7-0.8-1.399-1.6-2.2-2.6
	c-0.199-0.4-0.399-0.7-0.6-1c-1.4-2-2.4-3.2-3.1-3.9c-1.4-1.3-3-2.1-4.601-2.1h-0.2c-0.199,0-0.5,0-0.5,0.1h-0.1
	c-0.1,0.3-0.1,0.4-0.1,0.6v0.1c0.1,0,0.199,0,0.5,0.2c0.399,0.1,0.8,0.4,1.5,0.7c0,0,0.199,0,0.199,0.1c1.7,1,3.601,2.8,5.7,5.2
	c0.3,0.4,0.601,0.8,0.9,1.1c0.7,0.9,1.3,1.6,1.8,2.2c0.9,1,1.4,1.6,1.7,1.8c1.7,1.4,3.6,2.3,5.7,2.7c0.699,0,1.3,0.1,2,0.1
	c1,0,2.1-0.1,3.199-0.2c1-0.2,2.101-0.6,3.301-0.9h0.199c2.2-0.8,3.801-1.1,5.2-1.1c0.101,0,0.101,0,0.101,0
	c0.8,0,1.699,0.3,2.699,0.8c0.801,0.3,1.5,0.6,2.2,0.8l0,0c-0.399,0.8-0.6,1.4-0.899,2c-0.4,1-0.7,1.5-0.801,1.8
	c-0.1,0.2-0.199,0.4-0.399,0.5c-0.8,0.7-1.3,1.3-1.8,1.8c-1.101,1-2.101,1.8-3.101,2.4c-0.5,0.3-1,0.5-1.399,0.7
	c-0.2,0-0.2-0.5-0.2-1.4c-0.101-0.6-0.3-1-0.8-1c-1.5,0.9-2.7,1.7-3.801,2.3c-2.5,1.4-4.1,2.3-5,2.5l0,0c0,0,0,0-0.1,0l0.1-0.1
	c1.601-2.3,2.5-3.8,2.5-4.3c0-0.7-0.3-1-0.899-1c-1,0.5-2,1-3.101,1.5c-0.6,0.3-1.199,0.5-1.899,0.7c-0.8,0.3-1.601,0.4-2.5,0.6
	c-0.8,0-1.601,0.1-2.3,0.1c-2.5,0-4.801-1.4-7.101-4c-0.399-0.6-0.899-1.1-1.3-1.7c-0.1-0.2-0.2-0.4-0.4-0.6
	c0-0.1-0.1-0.3-0.199-0.3c0-0.1,0-0.1,0-0.1c-0.601-1-1.301-2.2-1.9-3.4c-0.9-2.8-1.9-5-3.4-7c1.301,0.5,2.5,1.5,3.5,3
	c1.101,1.5,1.9,2.4,2.301,2.6c0.199-2.6-1.5-5-4.7-7.1c-0.101-0.1-0.2-0.1-0.3-0.2c-0.2-0.2-0.5-0.4-0.801-0.6
	c-0.3-0.1-0.6-0.2-0.899-0.4l-0.101-0.1c-0.199,0-0.3-0.2-0.5-0.2c-5.1-2.5-11-3.3-17.8-2.3c0.2,0.3,0.3,0.4,0.3,0.5
	c0.101,0.1,0.301,0.2,0.7,0.2c0.101,0,0.101,0,0.3,0c-0.199,0-0.3,0.1-0.3,0.1c0,0.1-0.1,0.3-0.1,0.5v0.2
	c-0.4-0.1-0.8-0.2-1.101-0.2c-0.8-0.2-1.5-0.5-2.199-0.8c0,0-0.101-0.1-0.2-0.2c-0.101,0-0.3-0.2-0.4-0.3c-1.1-0.8-2.1-1.2-3.2-1.1
	l-0.1,0.5c0,0.1,0,0.1,0,0.1c-0.1,0-0.1,0-0.1,0.1c-0.101-0.1-0.101-0.1-0.101-0.1h-0.2h-0.199c0,0.1,0,0.3-0.101,0.6
	c0,0.3,0.101,0.4,0.101,0.6h0.199c0,0.1,0.101,0.3,0.2,0.4c0,0.2,0.101,0.2,0.3,0.3l0.2-0.3c0-0.3,0-0.7,0-1.1
	c0.4,0.3,1,0.8,1.9,1.3c0.1,0.1,0.2,0.2,0.399,0.3c0,0.1,0.101,0.1,0.101,0.1c1.6,1,3.2,1.4,4.899,1.4c0.301,0,0.801-0.3,1.601-1
	c-0.101-0.1-0.4-0.3-0.5-0.4c-0.101-0.4-0.3-0.7-0.4-0.9c0.101,0,0.3,0,0.4,0c1,0,2,0,3.1,0.1c2.3,0.2,4.9,0.9,7.8,1.9
	c0.801,0.4,1.801,0.8,3,1.3c0,0,0.101,0,0.301,0.1c0,0.1,0,0.5,0.3,0.9c0.3,0.7,0.8,1.7,1.5,3.1c1.899,3.3,3,5.4,3.5,6.5
	c3.1,6.3,7.399,9.6,12.899,9.6c0,0,0,0,0.101,0c0.1,0,0.2,0,0.2,0c1.899,0,3.3-0.3,4.5-0.7c0.6-0.3,1.199-0.5,1.699-0.7
	c-0.199,0.2-0.699,0.8-1.199,1.6c-0.7,1-1,1.6-1,2c0,0.3,0,0.6,0,0.6l0.8,0.2c1.2,0,2.8-0.5,4.899-1.5c0.301-0.1,0.5-0.3,0.801-0.5
	c2-1,3.3-1.8,4-2.5l0.1,0.1c-0.1,0.6-0.1,1.1-0.1,1.5l0.8,0.1c1.2,0,2.7-0.6,4.399-1.9c0-0.1,0.101-0.1,0.2-0.2
	c0.4-0.4,0.8-0.7,1.3-1.1c1.5-1.5,2.601-2.6,3.101-3.5c0.399-0.4,0.7-1.1,1.3-2.3c0.4-1,0.7-1.8,0.8-2.2
	c1.101-0.3,2.101-1.3,2.9-2.9c0.899-1.6,1.2-2.9,1.2-3.9c0-1.8-0.101-3.4-0.301-4.7c-0.199-0.3-0.199-0.7-0.3-0.9
	c-0.2-0.8-0.6-1.4-0.899-1.9c0.399-0.6,0.699-1.3,1-2c-0.5-0.2-0.801-0.5-1-0.9c-0.2-0.3-0.301-0.7-0.301-1.1s0.2-0.9,0.601-1.4
	c0.6-0.6,1.2-0.9,1.899-1.1c0.101-0.2,0.101-0.3,0.101-0.5c0-1.6-0.3-3.2-1.101-4.9c-0.199-0.2-0.3-0.4-0.5-0.7
	c-0.199-0.4-0.5-0.9-0.8-1.3c-0.899-1.1-2-2.1-3.3-2.7c-2.4-1.7-4.4-3.1-5.7-4.2c-0.1-0.1-0.2-0.1-0.2-0.1c-0.5-0.3-1-0.7-1.399-1
	c-0.9-0.6-1.7-1-2.4-1.3c0.101-0.2,0.2-0.5,0.3-0.8l0,0c0.2-0.2,0.4-0.3,0.7-0.6c-0.2-0.1-0.399-0.2-0.6-0.3c0,0,0-0.1-0.101-0.1
	c0.101-0.1,0.101-0.2,0.101-0.2h0.7c1,0,1.699-0.8,2.199-2.3c0.101-1.5,0.301-2.2,0.301-2.4c0-1.3-0.5-2.6-1.301-3.9
	c-0.1-0.2-0.3-0.5-0.5-0.8c-0.5-0.6-1.1-1.2-1.699-1.7c-2.4-2-3.5-3.3-3.5-4c0.1-0.8,0.199-1.3,0.199-1.6c0.101-0.3,0-0.5,0-0.8
	c0.801-0.3,1.4-0.5,1.801-0.5c1,0,2,0.3,3,1.1c0.199,0.2,0.5,0.4,0.699,0.6c0.2,0.9,0.4,1.5,0.601,1.8c0.399-0.2,0.7-0.6,0.899-1.4
	c0-0.1,0-0.1,0-0.2v-0.2c0-0.2,0-0.5,0.101-0.8c0-1.3-0.601-2.7-1.601-4.2c-1.6-1.8-3-3.5-4-4.8c-0.199-0.4-0.6-1.1-1.1-2.3
	c-0.4-1-0.9-1.7-1.6-2.3c-0.5-0.4-2-1.1-4.601-2c-2.899-1.1-4.5-1.6-4.7-1.7c-1.699-0.9-3.399-2.5-4.899-4.7c-1.3-2-3-3.5-4.8-4.3
	c-1.601-0.5-4,0.3-7.301,2.2c-0.199,0.2-0.5,0.2-0.699,0.4l0,0c-3.301,2-5.601,2.9-7.301,2.9c-0.399-0.1-0.699-0.3-1-0.4
	c-0.399-0.2-0.5,0-0.399,0.4c0.1,0.1,0.1,0.1,0.1,0.1c0.101,0.1,0.101,0.3,0.3,0.3c0.101,0.2,0.2,0.2,0.301,0.2
	c0.399,0.2,1.1,0.3,2.199,0.3c1.5,0,3.2-0.8,5.2-2.4c1.9-1.6,4-2.4,6.101-2.4c1.8,0,3.6,1.1,5.199,3.2c1,1.1,1.801,2.3,2.5,3.7
	C199.8,13.015,201.8,14.015,205.101,15.215z M211.3,43.815c0-0.2,0-0.2,0-0.3c0.301-0.1,0.601-0.3,1-0.5c0.7-0.2,1.2-0.4,1.601-0.5
	c0.399-0.2,0.899-0.2,1.2-0.1c0.199,0,0.399,0,0.5,0c0.199,0,0.3,0,0.5,0.1c0.199,0.2,0.199,0.5,0.3,0.7c0.1,0.3,0.1,0.6,0.2,1.1
	c-0.2,0.1-0.301,0.2-0.5,0.5c-0.4,0.4-0.801,0.7-1,1.1c0-0.1,0-0.1-0.101-0.1c-0.2,0.2-0.399,0.3-0.5,0.5c0,0,0,0,0.101,0h0.199
	c-0.199,0.2-0.399,0.3-0.5,0.5c-0.199,0.2-0.5,0.3-0.6,0.5c-0.1,0.1-0.9,0.3-2.1,0.7c0-0.1,0-0.2,0-0.3c0-0.2-0.101-0.7-0.301-1.1
	c-0.399-0.4-0.5-0.9-0.5-1.3c0-0.2,0.101-0.5,0.301-0.8C211.2,44.115,211.3,43.815,211.3,43.815z M204.101,61.815
	c0.899,0.5,1.8,1,2.8,1.7c0.7,0.3,1.6,0.5,2.7,0.7c2.5,0.4,6.1,0.9,10.8,1.3c0.7,0,1.5,0.1,2.2,0.1c0.5,0,0.899,0,1.3,0
	c0.5-0.1,0.899-0.1,1.399-0.1c0.801-0.1,1.5-0.2,2.101-0.3c-0.101,2.6-0.7,5.3-1.8,8.1c-0.7,0-1.4,0.1-2.101,0.1
	c-2,0-3.7-0.1-5.2-0.3c-1.8-0.3-3.399-0.8-4.5-1.3c-0.199-0.2-0.399-0.3-0.699-0.4c-1.601-1.1-3.5-2.7-5.4-4.9
	C206.601,65.215,205.3,63.615,204.101,61.815z M228.9,65.315c0-0.2,0-0.4-0.101-0.5c1.101-0.5,1.9-1,2.301-1.5
	c0.199,0.7,0.399,1.5,0.399,2.3c0,0.1,0,0.2,0,0.3c-0.6-0.1-1.1,0.3-1.5,0.8c-0.399,0.6-0.6,1.1-0.6,1.6c0,0.2,0,0.2,0.1,0.3
	c0,0.1,0,0.2,0,0.2s0,0.3,0.101,0.7c0.1,0.5,0.5,0.7,1,0.8l0,0c0,0,0,0.1,0,0.2c-0.7,1.4-2.101,2.3-4.301,2.7
	C228,69.515,228.9,66.815,228.9,65.315z"/>
<linearGradient id="XMLID_1_" gradientUnits="userSpaceOnUse" x1="-901.6875" y1="45.1821" x2="736.9884" y2="45.1821" gradientTransform="matrix(0.0013 0.0023 -0.0025 0.0014 -3768.3772 -3684.0164)">
	<stop  offset="0" style="stop-color:#231F20"/>
	<stop  offset="1" style="stop-color:#5D666B"/>
</linearGradient>
<path fill="url(#XMLID_1_)" d="M211.3,43.515c0,0.1,0,0.1,0,0.3c0,0-0.1,0.3-0.199,0.7c-0.2,0.3-0.301,0.6-0.301,0.8
	c0,0.4,0.101,0.9,0.5,1.3c0.2,0.4,0.301,0.9,0.301,1.1c0,0.1,0,0.2,0,0.3c1.199-0.4,2-0.6,2.1-0.7c0.1-0.2,0.4-0.3,0.6-0.5
	c0.101-0.2,0.301-0.3,0.5-0.5h-0.199c-0.101,0-0.101,0-0.101,0c0.101-0.2,0.3-0.3,0.5-0.5c0.101,0,0.101,0,0.101,0.1
	c0.199-0.4,0.6-0.7,1-1.1c0.199-0.3,0.3-0.4,0.5-0.5c-0.101-0.5-0.101-0.8-0.2-1.1c-0.101-0.2-0.101-0.5-0.3-0.7
	c-0.2-0.1-0.301-0.1-0.5-0.1c-0.101,0-0.301,0-0.5,0c-0.301-0.1-0.801-0.1-1.2,0.1c-0.4,0.1-0.9,0.3-1.601,0.5
	C211.9,43.215,211.601,43.415,211.3,43.515z M212.7,44.115c0-0.3,0.2-0.6,0.6-0.8c0.5-0.3,0.7-0.3,0.7,0.2c0,0.2-0.1,0.3-0.1,0.5
	c-0.101,0.1-0.101,0.2-0.101,0.3c-0.199,0.4-0.5,0.6-0.699,0.6c0,0,0,0,0-0.1c-0.2,0-0.301-0.2-0.301-0.3L212.7,44.115z
	 M215.601,43.615c0,0.2,0,0.3-0.101,0.4c0,0.2-0.1,0.5-0.3,1c-0.3,0.6-0.6,0.9-1,0.9c-0.3,0-0.4-0.1-0.4-0.4c0-0.2,0-0.5,0.301-0.9
	c0.199-0.4,0.399-0.6,0.5-0.8c-0.101-0.2-0.101-0.3,0-0.4c0-0.1,0-0.2,0.199-0.3c0.101,0,0.101,0,0.2,0h0.101
	C215.5,43.115,215.601,43.315,215.601,43.615z"/>
<path fill="#FFFFFF" d="M213.3,43.315c-0.399,0.2-0.6,0.5-0.6,0.8l0.1,0.4c0,0.1,0.101,0.3,0.301,0.3c0,0.1,0,0.1,0,0.1
	c0.199,0,0.5-0.2,0.699-0.6c0-0.1,0-0.2,0.101-0.3c0-0.2,0.1-0.3,0.1-0.5C214,43.015,213.8,43.015,213.3,43.315z"/>
<path fill="#FFFFFF" d="M215.5,44.015c0.101-0.1,0.101-0.2,0.101-0.4c0-0.3-0.101-0.5-0.5-0.5H215c-0.1,0-0.1,0-0.2,0
	c-0.199,0.1-0.199,0.2-0.199,0.3c-0.101,0.1-0.101,0.2,0,0.4c-0.101,0.2-0.301,0.4-0.5,0.8c-0.301,0.4-0.301,0.7-0.301,0.9
	c0,0.3,0.101,0.4,0.4,0.4c0.4,0,0.7-0.3,1-0.9C215.4,44.515,215.5,44.215,215.5,44.015z"/>
<path fill="#333333" d="M206.9,63.515c-1-0.7-1.9-1.2-2.8-1.7c1.199,1.8,2.5,3.4,3.6,4.7c1.9,2.2,3.8,3.8,5.4,4.9
	c0.3,0.1,0.5,0.2,0.699,0.4c1.101,0.5,2.7,1,4.5,1.3c1.5,0.2,3.2,0.3,5.2,0.3c0.7,0,1.4-0.1,2.101-0.1c1.1-2.8,1.699-5.5,1.8-8.1
	c-0.601,0.1-1.3,0.2-2.101,0.3c-0.5,0-0.899,0-1.399,0.1c-0.4,0-0.8,0-1.3,0c-0.7,0-1.5-0.1-2.2-0.1c-4.7-0.4-8.3-0.9-10.8-1.3
	C208.5,64.015,207.601,63.815,206.9,63.515z M215.101,66.615h1c0,0.4,0,0.7,0.199,1.2c0.2,0,0.5,0.1,1,0.2c0.301,0,0.801,0,1.5,0.2
	c0.801,0,1.101,0.3,1.101,1.1c0,0.5-0.101,0.9-0.3,1.5c-0.2,0.7-0.5,1-1,1c-0.9,0-1.7-0.5-2.5-1.4c-0.301-0.4-0.5-0.8-0.601-1
	c-0.1-0.1-0.1-0.1-0.2-0.2c0,0,0,0,0-0.1c-0.199-0.6-0.399-0.9-0.399-0.9C214.9,67.615,214.9,67.215,215.101,66.615z"/>
<path fill="#0D0D0D" d="M216.101,66.615h-1c-0.2,0.6-0.2,1-0.2,1.6c0,0,0.2,0.3,0.399,0.9c0,0.1,0,0.1,0,0.1
	c0.101,0.1,0.101,0.1,0.2,0.2c0.101,0.2,0.3,0.6,0.601,1c0.8,0.9,1.6,1.4,2.5,1.4c0.5,0,0.8-0.3,1-1c0.199-0.6,0.3-1,0.3-1.5
	c0-0.8-0.3-1.1-1.101-1.1c-0.699-0.2-1.199-0.2-1.5-0.2c-0.5-0.1-0.8-0.2-1-0.2C216.101,67.315,216.101,67.015,216.101,66.615z"/>
<path fill="#0D0D0D" d="M228.8,64.815c0.101,0.1,0.101,0.3,0.101,0.5c0,1.5-0.9,4.2-2.601,7.9c2.2-0.4,3.601-1.3,4.301-2.7v-0.2
	c-0.5-0.1-0.9-0.3-1-0.8c-0.101-0.4-0.101-0.7-0.101-0.7s0-0.1,0-0.2c-0.1-0.1-0.1-0.1-0.1-0.3c0-0.5,0.2-1,0.6-1.6
	c0.4-0.5,0.9-0.9,1.5-0.8c0-0.1,0-0.2,0-0.3c0-0.8-0.2-1.6-0.399-2.3C230.7,63.815,229.9,64.315,228.8,64.815z"/>
<path fill="#9D794F" d="M208.2,18.615c-1.9-0.2-3.4-0.4-4.1-0.6c-5.5-1.2-8.4-2.7-8.7-4.6c-0.101-1.1-0.8-2.1-1.8-3.1s-2-1.5-3-1.5
	c-1.301,0-3,0.6-5,1.8c-1.7,1-3.301,1.6-5,1.9c-0.5,0-1,0-1.4,0c-1.1,0-2.2-0.5-3.4-1.5c-1.199-1-1.699-2-1.699-2.7v-1.4
	c0.3,0.3,0.899,0.8,1.699,1.5c0.5,0.4,1.101,0.9,1.7,1.1c0,0,0,0-0.1-0.1c-0.101-0.4,0-0.6,0.399-0.4c0.301,0.1,0.601,0.3,1,0.4
	c1.7,0,4-0.9,7.301-2.9l0,0l-0.2-0.3c-0.4,0.4-0.9,0.7-1.3,0.7c-0.801,0-2-0.8-4-2.4c-1.801-1.7-3.101-2.5-3.801-2.5
	c-4.8,0-8.199,1.3-10,3.8c-0.899,1.2-1.5,2.1-1.899,2.5c-0.4,0.5-0.9,0.7-1.4,1c0.8,0.6,1.4,1,1.601,1c0.899,0,1.899-0.3,3.1-0.9
	c0.6-0.3,1.2-0.6,1.8-1c0.101,0.1,0.3,0.1,0.4,0.1c0.1,0,0.1,0.1,0.1,0.4c0,0.1-0.1,0.3-0.6,0.6c-0.101,0.2-0.4,0.3-0.5,0.5
	c-1.101,1.2-1.9,2-2.3,2.3c-0.7,0.4-2,0.6-3.801,0.6c-1.399,0-3.399-0.6-5.8-2c-2.5-1.4-4.6-2-6.399-2c-3,0-5.301,0.2-7,0.6
	c-1.301,0.3-2.601,0.8-3.601,1.5c-1,0.6-2,1.3-2.7,2.3c-0.699,0.7-1.199,2.4-1.5,5c-0.5,2.6-0.899,4.3-1.399,5.2
	c-0.101,0.2-0.2,0.4-0.4,0.6c-0.5,0.7-1.1,1.5-2,2.5c-0.1,0-0.1,0-0.1,0.1c-1.2,1.1-2.601,2.5-4.4,3.9c-3.1,3.2-4.6,7-4.6,11.4
	c0,3.3,0.7,5.4,2.2,6.3c0.5,0.2,1.199,0.3,1.8,0.3c0.399,0,0.899-0.1,1.3-0.4c0.4-0.4,0.7-0.7,0.7-1c0.1,0.5,0.2,1.1,0.2,1.5
	c0,0.3-0.101,0.7-0.601,1.1c-0.399,0.3-0.8,0.5-1.2,0.5c-0.399,0-0.8-0.1-1.3-0.3c0.101,0,0.3,0.1,0.4,0.2
	c-2.4-0.8-4.2-1.5-5.601-2.2c-1.3,1.2-2.399,2.5-3.6,3.8c-2.7,3.1-4,5.8-4,8.3c0,2.1,0.2,3.5,0.8,4.3c0.7,0.9,2.7,2.4,6,4.5
	c1.5,1,2.5,2.3,2.8,3.9c0.101,0.3,0.101,0.5,0.101,0.8c0,1.1,0,2,0.1,2.7c0.3,0.8,0.8,1.5,1.3,2.2c1.2,1.5,2.801,2.5,4.7,2.8
	c0.601,0.2,1.3,0.2,2,0.2c0.9,0,2-0.3,3.4-1c1.399-0.6,2.399-0.9,3.2-0.9c1.899,0,3.399,1.3,4.699,3.9c1.2,2.5,2.801,3.8,4.801,3.8
	c1.199,0,3.399-0.8,6.699-2.3c2.5-1,4.2-1.9,5.2-2.5c-0.1,0.3-0.2,0.6-0.2,0.8c0,0.3,0.101,0.9,0.301,2c0.199,1,0.3,1.6,0.3,2
	c0,0.3-0.101,1-0.3,2c-0.101,1-0.2,1.9-0.2,2.5c0,2.6,0.6,4.4,2,5.5c0.6,0.7,3.3,2.1,7.899,4.5c1,0.4,1.7,1.1,2.5,2
	c0.5,0.6,1.2,1.7,2.301,3.3c1.3,1.7,2.1,2.9,2.399,3.7c0.3,0.8,0.601,2,0.601,3.4c0,0.8-0.301,2-0.801,3.6c0,0.3-0.1,0.5-0.199,0.7
	c-0.301,1.3-0.5,2-0.5,2.4c0,0.1,0,0.1,0,0.1c0.199,0.1,0.5,0.2,0.899,0.3c0.8,0.2,1.601,0.3,2.3,0.3c1.101,0,2.7-0.3,5-0.8
	c1.101-0.3,2.601-0.7,4.4-1.2c1.4-0.4,2.6-1.3,3.3-2.6c0.601-1.2,1-2.5,1-4c0-0.7,0-1.1,0-1.2c0.101,0.4,0.4,1.1,0.8,2
	c0.601,1.7,1,3,1,4c0,0.7-0.199,1.5-0.5,2.6c-0.399,1.1-0.6,1.8-0.6,2.2c0,1.399,0.4,2.6,1.1,3.399c0.7,0.7,1.601,1.101,2.801,1.101
	c1.699,0,3.5-0.3,5.5-1c2.6-0.9,4-2.3,4-3.9c0-0.5-0.101-1.2-0.4-2.2c-0.3-1.1-0.4-1.7-0.4-2.1c0-1.7,0.801-3.6,2.4-5.6
	c1.5-1.8,2.8-2.7,3.9-2.7c0.199,0,0.3,0,0.5,0.2c0,0,0.1,0,0.199,0.1c0-0.1,0-0.1,0-0.1c0.801-0.9,2-1.9,3.5-3
	c2-1.3,3.301-2.5,4-3.5c1-1.6,1.5-3.5,1.601-5.9c0-0.4,0-0.6,0-1l-0.601-0.3c-1.699,1.3-3.199,1.9-4.399,1.9l-0.8-0.1
	c0-0.4,0-0.9,0.1-1.5l-0.1-0.1c-0.7,0.7-2,1.5-4,2.5c-0.301,0.2-0.5,0.4-0.801,0.5c-2.1,1-3.699,1.5-4.899,1.5l-0.8-0.2
	c0,0,0-0.3,0-0.6c0-0.4,0.3-1,1-2c0.5-0.8,1-1.4,1.199-1.6c-0.5,0.2-1.1,0.4-1.699,0.7c-1.2,0.4-2.601,0.7-4.5,0.7
	c0,0-0.101,0-0.2,0c-0.101,0-0.101,0-0.101,0c-5.5,0-9.8-3.3-12.899-9.6c-0.5-1.1-1.601-3.2-3.5-6.5c-0.7-1.4-1.2-2.4-1.5-3.1
	c-0.3-0.4-0.3-0.8-0.3-0.9c-0.2-0.1-0.301-0.1-0.301-0.1c-1.199-0.5-2.199-0.9-3-1.3c-2.899-1-5.5-1.7-7.8-1.9
	c-1.1-0.1-2.1-0.1-3.1-0.1c-0.101,0-0.3,0-0.4,0c0.101,0.2,0.3,0.5,0.4,0.9c0.1,0.1,0.399,0.3,0.5,0.4c-0.8,0.7-1.3,1-1.601,1
	c-1.699,0-3.3-0.4-4.899-1.4c0,0-0.101,0-0.101-0.1c-0.199-0.1-0.3-0.2-0.399-0.3c-0.9-0.5-1.5-1-1.9-1.3c0,0.4,0,0.8,0,1.1
	l-0.2,0.3c-0.199-0.1-0.3-0.1-0.3-0.3l-0.1,0.2c-0.4,0.5-0.7,0.7-0.9,0.7c-1.6,0-3.2-1.5-5-4.6c-1-2.4-1.5-3.8-1.8-4.4
	c-0.7,1-1.3,1.4-1.9,1.4c-2.199,0-3.699-0.9-4.399-2.6c-0.2-0.5-0.4-1.3-0.4-2.1c0-0.2,0-0.6,0-0.8c0-0.4,0-0.8,0-1.1
	c-0.2,0.2-0.399,0.3-0.6,0.4c-0.3,0.2-0.5,0.3-0.9,0.5c-0.1-0.1-0.1-0.2-0.2-0.2l-0.199,0.5c-1.2-0.5-2-1.1-2.301-2
	c-0.199-0.3-0.3-1.1-0.3-2.2c0-1.8,1.101-4.5,3.4-7.9c2.3-3.6,3.5-6.3,3.7-8.1c0.3-2.3,1.8-5,4.6-8c2.6-2.9,5.6-5.3,8.8-7.1h0.4
	c0,0,0,0,0,0.1c0.1-0.1,0.2-0.1,0.2-0.1c0.399,0.1,1.5,0.1,3.399,0.2c2.8,0,7.4-1.2,13.9-3.6c5.399-2,10.2-2.5,14.2-1.3
	c2.8,0.9,5,2,6.8,3.5c3.5,2.7,5.399,4.3,5.899,4.5l1.601-0.2v0.3c0.5-0.1,0.899-0.1,1.399,0.1c0.5-0.9,1-1.4,1.601-1.4
	c0.1,0,0.2,0,0.3,0c0.1-0.9,0.7-1.6,1.6-2.1c0.5-0.3,1.301-0.6,2.301-0.9c-3-1.3-4.5-3.1-4.5-5.4c0-0.6-0.301-1-0.601-1.4
	C209.601,19.215,209,18.815,208.2,18.615z M147,23.815c0.8-1.8,2.5-3,5.4-3.5c0.399-0.1,0.8-0.3,1.2-0.3c1.8-0.7,2.699-2,2.699-4
	c0-0.5-0.1-0.8-0.3-1.1c0.3,0.1,0.5,0.2,0.8,0.4c0.7,0.5,1,1.3,1,2.2c0,0.8-0.399,1.8-1.3,3.1c-0.899,1.4-1.7,2-2.399,1.9
	c-0.4,0.1-0.801,0.3-1.301,0.5c-1.899,0.8-3.199,2-4,3.5c-0.3,0.6-0.5,1.4-0.899,2.3c-0.4,1.2-0.601,1.9-0.8,2.2
	c-0.101,0.4-1.5,1.9-4,4.5c-1.7,1.8-2.2,3.3-1.4,4.4c0.1,0.1,0.2,0.2,0.2,0.3v1.1c-0.101-0.2-0.3-0.3-0.4-0.4c0,2.5-0.3,4.7-1,6.6
	l-0.7-0.1c0.101-0.4,0.101-0.6,0.101-0.9c0-0.9-0.3-1.9-0.8-3.2c-0.601-1.4-0.801-2.4-0.801-3c0-1,0.601-2.4,1.7-4.1l1.3,0.5
	c0.301-0.7,0.801-1.4,1.601-2.2c-0.5,0.1-1.101,0.1-1.9,0.1c-2.1,0-3.899-1-5.2-3.1c-1-1.7-1.5-3-1.5-4.2
	c-0.199-1-0.199-1.7-0.1-2.1c0.1-0.4,0.2-0.7,0.4-1c0.3-0.4,0.8-0.7,1.3-0.9c0.5-0.3,1-0.4,1.5-0.5c1.2,0,3.5,0.2,6.7,0.5
	C145.5,23.515,146.4,23.615,147,23.815L147,23.815z"/>
<path fill="#8A7151" d="M147,23.815c0.3,0,0.5,0,0.5,0c0.8,0.2,1.4,0.5,1.7,0.8c0.6-0.6,1.4-1.2,2.3-1.8c0.9-0.5,1.8-0.9,2.601-1.2
	c0.3-0.1,0.5-0.1,0.8-0.2c0.1,0.1,0.2,0.4,0.2,0.8c-0.2,0.1-0.601,0.1-1,0.3c0.699,0.1,1.5-0.5,2.399-1.9c0.9-1.3,1.3-2.3,1.3-3.1
	c0-0.9-0.3-1.7-1-2.2c-0.3-0.2-0.5-0.3-0.8-0.4c0.2,0.3,0.3,0.6,0.3,1.1c0,2-0.899,3.3-2.699,4c-0.4,0-0.801,0.2-1.2,0.3
	C149.5,20.815,147.8,22.015,147,23.815z"/>
<path fill="#7F6950" d="M147.5,23.815c0,0-0.2,0-0.5,0l0,0c-0.6-0.2-1.5-0.3-2.899-0.5c-3.2-0.3-5.5-0.5-6.7-0.5
	c-0.5,0.1-1,0.2-1.5,0.5c-0.5,0.2-1,0.5-1.3,0.9c-0.2,0.3-0.301,0.6-0.4,1c-0.1,0.4-0.1,1.1,0.1,2.1c0,1.2,0.5,2.5,1.5,4.2
	c1.301,2.1,3.101,3.1,5.2,3.1c0.8,0,1.4,0,1.9-0.1c-0.8,0.8-1.3,1.5-1.601,2.2c-0.399,0.6-0.5,1.3-0.5,1.8
	c0,0.8,0.101,1.3,0.101,1.4c0,0.3,0.3,0.6,0.6,1c0.101,0.1,0.3,0.2,0.4,0.4v-1.1c0-0.1-0.101-0.2-0.2-0.3c-0.8-1.1-0.3-2.6,1.4-4.4
	c2.5-2.6,3.899-4.1,4-4.5c0.199-0.3,0.399-1,0.8-2.2c0.399-0.9,0.6-1.7,0.899-2.3c0.801-1.5,2.101-2.7,4-3.5
	c0.5-0.2,0.9-0.4,1.301-0.5c0.399-0.2,0.8-0.2,1-0.3c0-0.4-0.101-0.7-0.2-0.8c-0.3,0.1-0.5,0.1-0.8,0.2
	c-0.801,0.3-1.7,0.7-2.601,1.2c-0.899,0.6-1.7,1.2-2.3,1.8C148.9,24.315,148.3,24.015,147.5,23.815z M148.4,25.615
	c-0.4,0.5-0.601,1-0.9,1.7c-0.2,0.5-0.5,1.2-0.899,2.2c-0.301,1-1.4,2.5-3.101,4.3c-2.899-1-4.899-2-6-2.9c-1.1-0.9-1.7-2.1-1.7-3.6
	c0-0.5,0.101-1,0.301-1.5c0.399-1,1-1.4,1.899-1.4c2.9,0,5.3,0.2,7.101,0.6C146.5,25.315,147.601,25.515,148.4,25.615z"/>
<path fill="#EBD686" d="M147.5,27.315c0.3-0.7,0.5-1.2,0.9-1.7c-0.8-0.1-1.9-0.3-3.3-0.6c-1.801-0.4-4.2-0.6-7.101-0.6
	c-0.899,0-1.5,0.4-1.899,1.4c-0.2,0.5-0.301,1-0.301,1.5c0,1.5,0.601,2.7,1.7,3.6c1.101,0.9,3.101,1.9,6,2.9
	c1.7-1.8,2.8-3.3,3.101-4.3C147,28.515,147.3,27.815,147.5,27.315z"/>
<path fill="#8A7151" d="M141.3,36.715l-1.3-0.5c-1.1,1.7-1.7,3.1-1.7,4.1c0,0.6,0.2,1.6,0.801,3c0.5,1.3,0.8,2.3,0.8,3.2
	c0,0.3,0,0.5-0.101,0.9l0.7,0.1c0.7-1.9,1-4.1,1-6.6c-0.3-0.4-0.6-0.7-0.6-1c0-0.1-0.101-0.6-0.101-1.4
	C140.8,38.015,140.9,37.315,141.3,36.715z"/>
<path fill="#7F6950" d="M184.601,6.915c0.399,0,0.899-0.3,1.3-0.7c-2.601-2.4-4.8-4.1-6.3-5c-2.801-1.7-6.301-1.6-10.601,0.2
	c-0.8,0.4-2.1,1.4-3.7,3c-1.399,1.5-2.5,2.7-3.399,3.6c-1.101-0.9-2.101-1.6-3-2.1c-4.4-2.4-9.5-2.7-15.4-0.7
	c-3.6,1.1-6.7,2.9-9.1,5.3c-2.5,2.2-3.601,4.3-3.5,6.1c0.1,2.8-0.5,5.2-1.9,7c-0.7,1.2-2.3,2.7-4.5,4.4c-2.2,1.8-3.8,3.3-4.7,4.6
	c-1.399,2.2-2.1,4.8-2.1,7.9c0,2.8,0.2,4.5,0.7,5.2c0.399,0.6,1.1,1.2,2,1.8c-1,0.3-2.101,1-3.3,2.3c-0.7,0.8-1.7,2.3-3.1,4.4
	c-0.9,1.3-1.4,2.8-1.6,4.2c0,0.6-0.1,1.9-0.1,3.9c0,2.6,2.5,5.3,7.5,8.2c1.601,0.9,2.301,2.3,2.2,4.1c0,3.1-0.1,4.6-0.1,4.7
	c0.7,2.2,2.2,3.7,4.6,4.5c0.9,0.4,3.3,0.8,7.3,1.4c3.101,0.4,5.301,1.1,6.7,2.3c2,1.5,3,4,3,7.5c0,0.1-0.2,1-0.6,2.8
	c-0.5,1.9-1.3,2.8-2.3,2.8c-0.101,0-0.101,0-0.101,0l-1-0.2c-0.1,0-0.2,0.1-0.2,0.1c-0.3,0-0.399-0.1-0.5-0.2
	c-0.399-0.3-0.8-0.5-1.199-0.8l-0.101,0.4c0.4,0.2,0.5,0.6,0.7,1.3c0.3,0.3,0.7,0.6,1.5,0.7c0.2,0.1,0.3,0.1,0.5,0.3
	c1.1,0.5,2.2,0.8,3.4,0.8c2.699,0,4.899-0.5,6.6-1.4c0.9-0.5,2-1.3,3.2-2.3c0.2,2.4,1.399,4.4,3.5,5.9c1.2,1,3.399,2,6.399,3
	c3.2,1.1,5.2,2,6.301,2.8c1.899,1.3,2.8,3,2.8,5.2c0,0-0.2,0.8-0.601,2.3c-0.699,1.5-1.6,2.3-2.899,2.3c-0.2,0-0.5-0.2-0.9-0.5
	c-0.399-0.3-0.7-0.6-0.899-0.7l0.199,0.3c0,0.1,0,0.6,0,1.4c0.101,0.3,0.4,0.7,1,0.9c0.301,1.3,0.601,2.101,0.7,2.4
	c0.9,1.6,2.5,2.3,4.8,2.3c0.4,0,1.7-0.1,4-0.5c1,0,1.801,0.6,2.5,1.8c0.5,0.8,0.801,1.601,0.801,2.3c0,0.4-0.301,1-1,1.801
	c-0.601,0.699-1,1.199-1,1.3c0,0.399,0,0.5,0.1,0.3c0.1,0.1,0.1,0.2,0.2,0.3c0.1,0,0.2,0,0.5,0c2,0,4.1-0.7,6.2-2.2
	c0.699-0.5,1.399-1,1.8-1.5c0.2,0.5,0.6,1.5,1,2.801c1.2,2.399,2.899,3.6,4.899,3.6c0.7,0,1.4-0.4,2.101-1.3c0.7-0.8,1.7-1.2,3-1.2
	c0.6,0,1.2,0.2,1.899,0.7c0.7,0.5,1.601,0.7,2.801,0.7c2.899,0,5.399-2,7.5-6c1.699-3,2.5-5.301,2.5-7.101c0-1-0.2-1.9-0.801-2.9
	c-0.5-0.9-0.699-2.2-0.699-3.9c0-2.6,1.699-5.2,5.3-7.6c3.5-2.5,5.3-5,5.3-7.5c0-1.7-0.1-2.9-0.4-3.6c-0.1-0.4-0.199-0.7-0.399-0.8
	c0,0.4,0,0.6,0,1c-0.101,2.4-0.601,4.3-1.601,5.9c-0.699,1-2,2.2-4,3.5c-1.5,1.1-2.699,2.1-3.5,3c0,0,0,0,0,0.1
	c-0.199,0.2-0.399,0.4-0.5,0.6c-1.3,1.8-1.899,4-1.899,7c0,1,0.2,2,0.7,3.1c0.5,1.1,0.8,1.8,0.8,2.1c0,1.3-0.8,3.3-2.2,6.101
	c-1.9,3.699-4.2,5.6-6.9,5.6c-0.3,0-0.699-0.2-1.399-0.8c-0.601-0.4-1.5-0.7-2.601-0.7c-1.399,0-2.5,0.4-3.3,1.2
	c-0.8,0.7-1.399,1.1-1.899,1.1c-1,0-2-0.899-3-2.8c-0.9-1.6-1.301-2.6-1.301-3.2l1.5-4.8c0-0.2,0-0.4-0.1-0.6
	c-0.1-0.101-0.1-0.2-0.1-0.301h-0.2c-0.8,0.7-1.5,1.7-2.101,3c-0.1,0.301-0.199,0.801-0.3,1.101c-0.5,0.399-1.2,1.1-2.1,2
	c-1,1.2-2.101,1.899-3.4,2.2h-0.2l0.2-0.2c-0.2-0.3-0.2-1,0-1.7c0.2-0.9,0.3-1.4,0.2-1.8c-0.2-1.3-2.1-2.4-5.8-3.101
	c-3.601,0.4-5.8,0-6.601-1.399c-0.3-0.5-0.399-0.9-0.5-1.2c0.101,0,0.301,0,0.5,0c1.301,0,2.301-0.9,3.101-2.8
	c0.2-0.6,0.399-1.2,0.6-1.8c0.101-0.5,0.101-1,0.101-1.5c0-2.5-1-4.5-3-6.1c-1.2-1-3.4-2.2-6.5-3.4c-3.301-1.3-5.5-2.3-6.601-3
	c-2-1.4-3-3.2-3-5.3c0,0,0.2-0.2,0.5-0.6c0.2-0.4,0.3-0.7,0.3-1s0-0.4,0-0.5l-0.199-0.1c-0.601,0-2.101,1-4.5,2.7
	c-2.101,1.7-4.601,2.5-7.601,2.5c0,0-0.1,0-0.2,0c0.101-0.1,0.101-0.1,0.101-0.1c0.5-0.6,0.899-1.4,1.1-2.5c0.4-1.3,0.5-2.5,0.5-3.9
	c0-2-0.1-3.5-0.5-4.3c-0.6-1.1-2.1-2.6-4.5-4.7c-0.8-0.7-1.899-1.2-3.399-1.6s-4-0.8-7.301-1.1c-0.399-0.1-0.899-0.2-1.5-0.3
	c-1.3-0.1-2.399-0.7-3.199-1.8c-0.2-0.4-0.601-1.4-1.101-2.7c0,0,0-0.7,0-2.2c-0.1-0.7-0.1-1.6-0.1-2.7c0-0.3,0-0.5-0.101-0.8
	c-0.3-1.6-1.3-2.9-2.8-3.9c-3.3-2.1-5.3-3.6-6-4.5c-0.6-0.8-0.8-2.2-0.8-4.3c0-2.5,1.3-5.2,4-8.3c1.2-1.3,2.3-2.6,3.6-3.8
	c1.4,0.7,3.2,1.4,5.601,2.2c-0.101-0.1-0.3-0.2-0.4-0.2c-0.2-0.2-0.5-0.5-0.7-0.6c-0.3-0.1-0.399-0.2-0.699-0.4l0,0
	c-1.9-1.2-3.2-2.2-3.7-2.7c-1.4-1.2-2.101-2.5-2.101-3.8c0-1.8,0.2-3.3,0.601-4.7c0.399-1.4,1.2-3,2.399-5
	c0.5-0.8,1.801-2.1,4.101-4c0.1,0,0.1,0,0.1,0c0.3-0.3,0.601-0.6,1-0.9c1.4-1.1,2.4-2.1,3.3-2.9c0.7-0.8,1.2-1.5,1.4-2
	c0.3-0.6,0.5-2.3,0.8-5c0.3-2.2,0.9-3.8,2-5c1.101-1,2.601-2.2,4.5-3.4c0.4-0.2,0.8-0.4,1.101-0.6c4-2.5,7.699-3.7,10.899-3.7
	c3.5,0,6.4,1,8.9,3c0.2,0.2,0.399,0.3,0.6,0.5c0.101,0,0.3,0.2,0.4,0.4c0.1,0.2,0.3,0.3,0.399,0.3c0.101,0,0.101,0,0.2,0
	c0.9,0.5,1.7,1,2.5,1.2c0.8,0.3,1.5,0.5,2.3,0.5c0.5,0,1.2-0.4,2.2-1c0.101-0.1,0.3-0.2,0.4-0.2c0.1-0.2,0.399-0.3,0.5-0.5
	c0.5-0.3,0.6-0.5,0.6-0.6c0-0.3,0-0.4-0.1-0.4c-0.101,0-0.3,0-0.4-0.1c-0.6,0.4-1.2,0.7-1.8,1c-1.2,0.6-2.2,0.9-3.1,0.9
	c-0.2,0-0.801-0.4-1.601-1c0.5-0.3,1-0.5,1.4-1c0.399-0.4,1-1.3,1.899-2.5c1.801-2.5,5.2-3.8,10-3.8c0.7,0,2,0.8,3.801,2.5
	C182.601,6.115,183.8,6.915,184.601,6.915z"/>
<path fill="#EBD686" d="M201.5,30.015c-0.1-0.1-0.2-0.2-0.2-0.2h-0.1c-0.4-0.5-1.3-1.3-2.5-2.5c-2.4-2.6-5.9-3.9-10.4-3.9
	c-2.8,0-6.6,0.9-11.3,2.8c-1.2,0.4-2.3,0.8-3.399,1.1c-2.7,1-5,1.5-6.9,1.6c-0.3,0-0.6,0-0.9,0c0,0-0.1,0-0.199,0
	c-1.601,0.7-3,1.4-3.9,2c-2.1,1.2-3.8,2.7-5.2,4.6c-2.7,3.6-4.6,6.3-5.6,8.1c-2,3.4-3,6.4-3,9.2c0,0,0,0.1,0,0.2l0.2,2l1.5-0.8
	h0.699c0,0.5,0,1.3-0.199,2.2c0,1.4,0.199,2.4,0.399,3c0.101,0.4,0.4,0.6,0.601,0.6c0,0,0.5-0.2,1.5-0.7
	c0.899-0.5,1.5-0.7,1.699-0.7c0.101,0,0.2,0.1,0.2,0.2c0.3,0.3,0.5,0.8,0.8,1.7c0.5,1.7,1.101,3,1.601,4c1,1.8,2.6,3.6,4.399,5.5
	l0.101,0.1c-0.2-0.5-0.4-0.8-0.5-1.1c-0.101-0.5-0.3-1-0.3-1.5c0-0.7,0.199-1.5,0.5-2.2c0.399-0.8,0.699-1.3,0.699-1.5h0.101
	c0.1,1.2,0.899,2.7,2.1,4.4c1,1.3,1.9,2.3,2.8,3l0.101,0.1c0.1,0,0.2,0.1,0.2,0.2c0.199-0.1,0.3-0.2,0.399-0.5
	c0-0.1,0.101-0.2,0.3-0.2c1,0,1.7,0.2,2.101,0.7c0.5,0.4,1,0.6,1.3,0.6c0.2,0,0.5-0.1,0.9-0.2c0.399-0.1,0.8-0.2,1-0.2
	c4.5,0,8.3,1.2,11.5,3.6c0.199,0.2,0.399,0.3,0.5,0.5l-0.2,0.3c0.3,0.2,0.6,0.3,0.899,0.4c0.301,0.2,0.601,0.4,0.801,0.6
	c0.1,0.1,0.199,0.1,0.3,0.2c3.2,2.1,4.899,4.5,4.7,7.1c-0.4-0.2-1.2-1.1-2.301-2.6c-1-1.5-2.199-2.5-3.5-3c1.5,2,2.5,4.2,3.4,7
	c0.6,1.2,1.3,2.4,1.9,3.4c0,0,0,0,0,0.1c0.1,0,0.199,0.2,0.199,0.3c0.2,0.2,0.301,0.4,0.4,0.6c0.4,0.6,0.9,1.1,1.3,1.7l0.3-0.6
	c0.4,0.3,1,0.5,1.5,0.8c1.7,0.6,3.5,0.9,5.5,0.9c1.4,0,2.601-0.4,3.801-1.2c0.399-0.4,0.8-0.7,1.199-1c1.2-0.8,1.7-1.3,1.801-1.3
	c0,0.8,0,1.3,0.1,1.4c0.1,0.3,0.4,0.4,0.9,0.4s1.199-0.2,1.899-0.5c0.5-0.3,0.9-0.5,1.3-0.6c0.301-0.2,0.601-0.3,0.801-0.4
	c0.199,0.3,0.199,1,0.1,2c0.1,1,0.4,1.5,0.9,1.5s1.399-0.3,2.699-1.2c0.101-0.1,0.2-0.1,0.301-0.1c0.699-0.5,1.699-1.2,2.8-2
	l0.2-0.2c-0.2,0.4-0.2,0.8,0.1,1.4c0.2,0.6,0.4,0.8,0.6,0.8c0.2,0,0.5-0.1,1-0.2c0.2,0,0.301,0,0.5,0.2c0.101,0.2,0.301,0.3,0.5,0.3
	c0,0,0.2-0.1,0.301-0.1l0.5,0.7c0.5-0.5,1-1.1,1.8-1.8c0.2-0.1,0.3-0.3,0.399-0.5c0.101-0.3,0.4-0.8,0.801-1.8
	c-0.301,0.2-0.801,0.3-1.101,0.3c-0.5-0.3-1-0.6-1.6-1c-1-0.6-2.101-1-3.101-1l0,0c-1,0-2.899,0.2-5.5,0.7c-0.1,0-0.199,0-0.3,0
	c-0.399,0.1-0.8,0.2-1.2,0.2c-2.199,0.4-3.5,0.6-4.1,0.6s-1.3-0.1-1.9-0.1c-2.899-0.4-5.199-1.7-6.899-3.8c-0.3-0.4-0.5-0.7-0.8-1
	c-0.801-1.2-1.601-2.3-2.301-3.2c-0.199-0.2-0.3-0.4-0.5-0.5c-1.5-1.9-3.1-3.7-4.8-5.4l0.101-0.4c-0.7-0.3-1.101-0.6-1.5-0.7
	c-0.301-0.2-0.4-0.2-0.5-0.2v-0.1c0-0.2,0-0.3,0.1-0.6h0.1c0-0.1,0.301-0.1,0.5-0.1h0.2c1.601,0,3.2,0.8,4.601,2.1
	c0.699,0.7,1.699,1.9,3.1,3.9c0.2,0.3,0.4,0.6,0.6,1c0.801,1,1.5,1.8,2.2,2.6c2.3,2.4,4.8,3.9,7.2,4.2c0.4,0.1,0.8,0.1,1.2,0.1
	c1.5,0,3.7-0.4,6.5-1.3c1.1-0.3,2.1-0.6,2.899-0.8c1.301-0.4,2.101-0.5,2.801-0.5c0.399,0,0.8,0,1.199,0c0.801,0.2,1.4,0.4,2,0.8
	c0.801,0.6,1.301,0.8,1.801,0.8c0.199,0,0.5-0.1,0.8-0.1c0.2,0,0.3-0.1,0.399-0.1c1.101-0.5,2-1.6,2.5-3.3
	c0.5-2.4,0.601-3.6,0.601-3.7c0-0.3-0.101-0.9-0.3-1.9c0-0.3-0.101-0.7-0.101-1v-0.1c-0.3-1.2-0.399-1.9-0.5-2.2
	c-1.1,1-2.6,1.6-4.5,1.8c0,0,0,0-0.1,0.1h-0.5c0-0.1,0-0.1,0-0.1c-0.101,0-0.2,0-0.3,0c-2.801,0-5.2-0.2-7.301-0.6
	c-2-0.4-3.699-1-5.199-1.9c-0.2-0.1-0.301-0.3-0.5-0.4c-1-0.6-2.5-2.2-4.5-4.6c-1.2-1.3-2.5-3-4-4.8c-0.301-0.3-0.5-0.6-0.601-0.9
	c-0.7-0.8-1.6-1.8-2.8-3c-1.4-1.3-3-3-4.9-4.9c-1-0.9-1.699-1.7-2.399-2.3c-1.101-1.1-1.8-1.9-2.101-2.4
	c-0.199-0.2-0.199-0.4-0.199-0.5l0.1-0.3c0.2,0.1,0.4,0.1,0.6,0.3c1,0.4,2,1,3,2c1,0.8,2,1.8,3.101,3c0.899,1.1,2.2,2.5,3.7,4.1
	c0.8,0.9,1.699,1.9,2.699,3c0,0.1,0,0.1,0,0.1c0.5,0.1,1,0.3,1.5,0.4c0.9,0.2,2,0.5,3.301,0.9c0.899,0.2,1.8,0.5,2.8,0.6
	c3.899,0.9,7.7,1.4,11.399,1.6c0.4,0,0.9,0,1.301,0c0.199,0,0.199,0,0.3,0v-1.5c-1.601,0.5-2.5,0.1-2.8-1.1c-0.7-2.4-1-3.6-1-3.6
	c-0.4-0.5-1.2-1.5-2.4-2.9c-0.2-0.3-0.6-0.6-0.8-0.8c-0.3-0.5-0.601-0.8-0.9-1.1c-0.7-0.9-1.1-1.6-1.1-2c0-0.2,0.1-0.3,0.3-0.6
	c0.1-0.1,0.6-0.5,1.4-1.1v-0.1c0-0.1-0.101-0.1-0.2-0.1c-0.3-0.3-0.5-0.5-0.8-0.8c0.199,0.1,0.5,0.1,0.699,0.2l-0.1-0.1
	c0-0.1,0.1-0.3,0.3-0.8c0.2-0.3,0.4-0.6,0.601-0.8c0-0.1,0-0.2,0-0.2c-0.101-0.2-0.2-0.3-0.301-0.5c0-0.2,0-0.3-0.1-0.5
	c-0.4,0.5-1,1.1-1.8,1.8H214.8c-0.1,0.2-0.3,0.4-0.5,0.5c-0.6,0.5-1.5,0.9-2.5,1c-0.6,0.1-1.1,0.2-1.5,0.4
	c-0.199,0.1-0.399,0.2-0.5,0.3c0,0-0.1,0-0.199-0.1c-0.301,0.3-0.7,0.4-1,0.5c0,0-0.101-0.2-0.101-0.4c0-0.5,0.601-1,1.601-1.4
	c0.399-0.3,0.5-0.5,0.5-0.6c0-0.2-0.101-0.3-0.101-0.4c-0.5-0.9-0.7-1.6-0.7-2s0.101-0.8,0.5-1.2c-0.1,0-0.1,0-0.199,0.1H209.5
	c0.601-1.3,1.8-2.3,3.9-2.9c0.5-0.1,1-0.2,1.399-0.3c-0.5-0.5-0.699-0.8-1-1.2c-0.199-0.1-0.5-0.1-0.699-0.1H213
	c-0.399,0-1.399,0.4-3.2,1c0.101-0.3,0.301-0.6,0.5-0.8c-0.699,0.1-1.5,0.6-2.5,1.6c-0.5,0.4-0.899,0.8-1.199,1.2
	c-0.4,0.5-0.7,0.9-0.801,1.3h-0.199v-1.1H204.5c-0.2,0-0.6-0.5-1.1-1.3c-0.601-0.9-0.8-1.4-0.8-1.7c0-0.4-0.101-0.7-0.101-1.2
	c-0.2,0.2-0.3,0.3-0.399,0.4l-0.301-0.2c0,0.1-0.1,0-0.1-0.2c-0.1,0-0.1,0-0.3,0c-0.101,0-0.101-0.2-0.101-0.4
	c0-1.1,0.5-2.4,1.4-3.6c0.6-0.9,1.5-1.8,2.6-2.7c0.301-0.3,0.801-0.6,1.101-0.8c0.5-0.3,1.1-0.5,1.5-0.7v-0.3l-1.601,0.2
	c0,0.2,0,0.3-0.1,0.5c-0.1,0.1-0.4,0.2-0.6,0.2C203.9,31.215,202.601,30.815,201.5,30.015z M189.101,36.415c0.399,0,0.5,0.1,0.6,0.2
	c0,0.2,0.1,0.4,0.1,0.6c0,0.3,0,0.5-0.199,0.8c-0.101,0.2-0.301,0.4-0.4,0.5h-0.1c0.1,0.2,0.1,0.3,0.199,0.5c0,0.2,0,0.3,0,0.5
	c0,1.1-0.399,1.7-1.199,1.7c0-0.2-0.2-0.2-0.301-0.3c-0.199,0.4-0.3,0.8-0.399,1.4c-0.101,0.4-0.3,0.5-0.601,0.5
	c-1-0.6-1.699-1-2.199-1.2h-0.5l-0.301,0.4l-2-0.2c-0.899,0-2.1,0.4-3.699,1.1c-0.801,0.4-1.7,0.9-2.7,1.6c-0.8,0.7-1.601,1.1-2,1.5
	l0,0c-0.101,0-0.3,0.2-0.4,0.2l0,0c-0.399,0.3-0.7,0.5-1.1,0.7v0.1c0.399-0.3,0.899-0.5,1.6-0.8c0.101,0,0.3-0.2,0.601-0.2
	c0.6-0.2,1.399-0.5,2.1-0.8c0.4-0.2,0.9-0.6,1.8-1.2c0.101,0,0.3-0.2,0.5-0.3c0.3-0.2,0.601-0.2,1-0.4c1.101-0.3,2.601-0.5,4.3-0.5
	c0,0,0.101,0,0.301,0c1,0,1.899,0.2,2.5,0.5c0.199,0.2,0.3,0.3,0.5,0.5c0.199,0.5,0.399,1.5,0.399,3.2c0,0.3,0,0.5-0.1,0.8
	c-0.101,0.4-0.101,0.7-0.3,1c-0.2,0.6-0.4,1-0.601,1.2c0.4,0.2,0.8,0.3,1.101,0.5c0.199,0.1,0.3,0.3,0.399,0.4
	c0.2,0.3,0.3,0.5,0.3,0.8c0,0.1,0,0.3-0.199,0.5c-0.301-0.2-0.601-0.5-0.801-0.7c-0.1,0-0.199,0-0.199,0
	c-0.5-0.4-1.301-0.5-2.801-0.5c-0.399,0.1-1,0.2-1.699,0.3c-1.301,0.3-2.801,0.5-4.4,0.5c-0.1,0-0.3,0-0.4,0
	c-2.6-0.1-4.5-0.5-5.8-1.2c-0.1-0.1-0.5-0.6-1.3-1.4c-0.4-0.4-0.8-0.7-1-0.9c-0.2-0.3-0.5-0.5-0.7-0.7c-0.2-0.2-0.5-0.4-0.6-0.6
	c-0.3-0.3-0.5-0.5-0.5-0.7c-1.8-0.1-3.8,0.4-6.3,1.5c0-0.3,0.199-0.7,0.5-1.2H162c-0.399,0.3-0.7,0.5-0.899,0.7
	c-0.301,0.2-0.601,0.3-0.801,0.3v-0.8c0.101-0.3,0.2-0.5,0.301-0.8c0.199-0.5,0.399-0.8,0.699-1c-0.3,0.2-0.699,0.4-1.1,0.6
	c-0.7,0.5-1.2,0.8-1.3,0.9v-1.3c0.2-0.9,0.6-1.9,1-3c0.5-1.2,0.899-1.9,1.2-2.4h-1c-0.301,0.1-0.601,0.2-0.801,0.3h-0.5v-0.3
	c0.301-0.6,1.101-1.2,2.2-1.8c1.9-0.8,2.9-1.2,2.9-1.3l0.399,0.5c0.101-0.2,0.2-0.3,0.101-0.5c0-0.2-0.2-0.5-0.5-0.8
	c-0.601-0.6-1-1.1-1-1.4c0-0.2,0-0.3,0-0.6c0.3-0.1,0.6-0.1,0.7-0.1c0.199-0.2,0.399-0.3,0.6-0.3s0.6,0,1,0c0.6,0,2.9-0.8,7.2-2.5
	c0.7-0.3,1.399-0.5,2.2-0.7c2.5-0.6,4.699-0.5,6.699,0.5c1,0.7,2.2,1.9,3.601,3.6v0.1c0.7,0.6,1.399,1,2,1.4
	C187.601,36.315,188.3,36.415,189.101,36.415z M188.101,71.415c0,0.1-0.101,0.1-0.2,0.2c-0.601,0.8-0.8,1.7-0.8,2.7
	c0,0.2-0.301,0.2-0.7,0.2c-0.3,0-0.4,0-0.601-0.1c0-0.1-0.1-0.1-0.199-0.2c0-0.1,0-0.2,0-0.3s0-0.3,0-0.8c0-0.8,0.3-1.5,1-2.3
	c0.899-0.8,1.899-1.2,2.899-1c0.101,0,0.2,0,0.3,0c-0.5,0.5-1,1-1.399,1.4c-0.101,0-0.101,0-0.101,0s0,0,0,0.1
	C188.3,71.315,188.101,71.315,188.101,71.415z M222.101,76.315c0.1,0.3,0.5,0.8,1.199,1.7c0.5,0.7,0.801,1.3,0.801,1.6
	c0,0.2,0,0.4,0,0.6c-0.2,0.6-0.301,1.1-0.7,1.4c-0.5,0.5-1.101,0.7-1.9,0.7c-0.2,0-0.2,0-0.3,0s-0.3,0-0.4,0c0.4-3.3,0.801-5.3,1-6
	H222.101z"/>
<path fill="#7F6950" d="M189.7,36.615c-0.1-0.1-0.2-0.2-0.6-0.2c-0.801,0-1.5-0.1-2.2-0.5c-0.601-0.4-1.3-0.8-2-1.4v-0.1
	c-1.4-1.7-2.601-2.9-3.601-3.6c-2-1-4.199-1.1-6.699-0.5c-0.801,0.2-1.5,0.4-2.2,0.7c-4.3,1.7-6.601,2.5-7.2,2.5c-0.4,0-0.8,0-1,0
	s-0.4,0.1-0.6,0.3c-0.101,0-0.4,0-0.7,0.1c0,0.3,0,0.4,0,0.6c0,0.3,0.399,0.8,1,1.4c0.3,0.3,0.5,0.6,0.5,0.8
	c0.1,0.2,0,0.3-0.101,0.5c0.101,0.1,2.301,0.1,6.7,0.1c0.9,0,2.4-0.3,4.3-0.8c2-0.5,3.301-0.9,3.9-0.9c0.8,0,1.6,0.2,2.3,0.4
	c1,0.2,2,0.6,2.8,1.3c0.5,0.3,0.801,0.7,1.301,1.1c0.3,0.4,0.6,0.7,0.899,1.1c0.101,0.1,0.3,0.3,0.5,0.5c0.3,0.3,0.601,0.6,0.8,0.9
	c0.101,0.1,0.301,0.1,0.301,0.3c0.8,0,1.199-0.6,1.199-1.7c0-0.2,0-0.3,0-0.5c-0.1-0.2-0.1-0.3-0.199-0.5h0.1
	c0.1-0.1,0.3-0.3,0.4-0.5c0.199-0.3,0.199-0.5,0.199-0.8C189.8,37.015,189.7,36.815,189.7,36.615z M185.9,36.515
	c-0.601-0.7-1.4-1.2-2.3-1.5c-1.301-0.5-2.7-0.8-4.301-0.8c-1,0-2.5,0.3-4.199,0.8c-1.7,0.5-3.101,0.8-4,0.8c-3,0-5-0.3-6.101-0.8
	c0.101,0,0.3,0,0.4,0c0.7,0,2.5-0.5,5.5-1.8c2.899-1.2,4.899-1.9,6.2-1.9c2.5,0,4.899,1,7.5,3.1c0,0.1,0.1,0.1,0.199,0.1
	c0.5,0.5,1.101,1,1.801,1.6c0.699,0.5,1.3,1.1,2,1.7c-0.101,0.2-0.101,0.3-0.101,0.5c-0.2,0.3-0.3,0.5-0.399,0.7
	c-0.5-0.9-1.2-1.7-2.101-2.5H185.9z"/>
<path fill="#9D794F" d="M183.601,35.015c0.899,0.3,1.699,0.8,2.3,1.5h0.1c0.9,0.8,1.601,1.6,2.101,2.5c0.1-0.2,0.199-0.4,0.399-0.7
	c0-0.2,0-0.3,0.101-0.5c-0.7-0.6-1.301-1.2-2-1.7c-0.7-0.6-1.301-1.1-1.801-1.6c-0.1,0-0.199,0-0.199-0.1c-2.601-2.1-5-3.1-7.5-3.1
	c-1.301,0-3.301,0.7-6.2,1.9c-3,1.3-4.8,1.8-5.5,1.8c-0.101,0-0.3,0-0.4,0c1.101,0.5,3.101,0.8,6.101,0.8c0.899,0,2.3-0.3,4-0.8
	c1.699-0.5,3.199-0.8,4.199-0.8C180.9,34.215,182.3,34.515,183.601,35.015z"/>
<path fill="#E5CD6F" d="M185.601,38.415c-0.5-0.4-0.801-0.8-1.301-1.1c-0.8-0.7-1.8-1.1-2.8-1.3c-0.7-0.2-1.5-0.4-2.3-0.4
	c-0.6,0-1.9,0.4-3.9,0.9c-1.899,0.5-3.399,0.8-4.3,0.8c-4.399,0-6.6,0-6.7-0.1l-0.399-0.5c0,0.1-1,0.5-2.9,1.3
	c-1.1,0.6-1.899,1.2-2.2,1.8v0.3h0.5c0.2-0.1,0.5-0.2,0.801-0.3h1c-0.301,0.5-0.7,1.2-1.2,2.4c-0.4,1.1-0.8,2.1-1,3v1.3
	c0.1-0.1,0.6-0.4,1.3-0.9c0.4-0.2,0.8-0.4,1.1-0.6c-0.3,0.2-0.5,0.5-0.699,1c-0.101,0.3-0.2,0.5-0.301,0.8v0.8
	c0.2,0,0.5-0.1,0.801-0.3c0.199-0.2,0.5-0.4,0.899-0.7h0.101c-0.301,0.5-0.5,0.9-0.5,1.2c2.5-1.1,4.5-1.6,6.3-1.5c0,0,0-0.1,0-0.2
	c0-0.9,0.399-0.9,1.399,0c0,0.1,0.101,0.1,0.101,0.2c0.2,0.1,0.399,0.3,0.6,0.5c0.101-0.4,0.4-0.6,0.9-0.5c0.1,0,0.2,0,0.399,0
	c0.101,0,0.101,0,0.2,0c0.2-0.3,0.5-0.5,0.9-0.7c1.5-1.1,2.7-1.8,3.399-2.1c0.5-0.2,1.5-0.8,3.101-1.8c1.7-0.7,3.2-0.7,4.7-0.2
	c0.199,0,0.199,0,0.3,0c0.1,0,0.2,0,0.2,0.1h0.5c0.5,0.2,1.199,0.6,2.199,1.2c0.301,0,0.5-0.1,0.601-0.5c0.1-0.6,0.2-1,0.399-1.4
	c-0.199-0.3-0.5-0.6-0.8-0.9c-0.2-0.2-0.399-0.4-0.5-0.5C186.2,39.115,185.9,38.815,185.601,38.415z"/>
<path fill="#7F6950" d="M184.101,41.615c0-0.1-0.101-0.1-0.2-0.1c-0.101,0-0.101,0-0.3,0c-1.5-0.5-3-0.5-4.7,0.2
	c-1.601,1-2.601,1.6-3.101,1.8c-0.699,0.3-1.899,1-3.399,2.1c-0.4,0.2-0.7,0.4-0.9,0.7c-0.1,0-0.1,0-0.2,0c-0.199,0-0.3,0-0.399,0
	c-0.5-0.1-0.8,0.1-0.9,0.5c-0.2-0.2-0.399-0.4-0.6-0.5c0-0.1-0.101-0.1-0.101-0.2c-1-0.9-1.399-0.9-1.399,0c0,0.1,0,0.2,0,0.2
	c0,0.2,0.2,0.4,0.5,0.7c0.1,0.2,0.399,0.4,0.6,0.6c0.2,0.2,0.5,0.4,0.7,0.7c0.2,0.2,0.6,0.5,1,0.9c0.8,0.8,1.2,1.3,1.3,1.4
	c1.3,0.7,3.2,1.1,5.8,1.2c0.101,0,0.301,0,0.4,0c1.6,0,3.1-0.2,4.4-0.5c0.699-0.1,1.3-0.2,1.699-0.3c1.5,0,2.301,0.1,2.801,0.5
	c0,0,0.1,0,0.199,0c0.2,0.2,0.5,0.5,0.801,0.7c0.199-0.2,0.199-0.4,0.199-0.5c0-0.3-0.1-0.5-0.3-0.8c-0.1-0.1-0.2-0.3-0.399-0.4
	c-0.301-0.2-0.7-0.3-1.101-0.5c0.2-0.2,0.4-0.6,0.601-1.2c0.199-0.3,0.199-0.6,0.3-1c0.1-0.3,0.1-0.5,0.1-0.8
	c0-1.7-0.2-2.7-0.399-3.2c-0.2-0.2-0.301-0.3-0.5-0.5c-0.601-0.3-1.5-0.5-2.5-0.5c-0.2,0-0.301,0-0.301,0
	c-1.699,0-3.199,0.2-4.3,0.5c-0.399,0.2-0.7,0.2-1,0.4c-0.2,0.1-0.399,0.3-0.5,0.3c-0.899,0.6-1.399,1-1.8,1.2
	c-0.7,0.3-1.5,0.6-2.1,0.8c-0.301,0-0.5,0.2-0.601,0.2c-0.7,0.3-1.2,0.5-1.6,0.8v-0.1c0.399-0.2,0.7-0.4,1.1-0.7l0,0
	c0.101,0,0.3-0.2,0.4-0.2l0,0c0.399-0.4,1.2-0.8,2-1.5c1-0.7,1.899-1.2,2.7-1.6c1.6-0.7,2.8-1.1,3.699-1.1l2,0.2L184.101,41.615z
	 M183.9,43.615c0.5,0,0.899,0,1.3,0.1c0.6,0.1,0.9,0.3,1.1,0.5c0.2,0.3,0.301,1.3,0.301,2.7c0,0.1-0.101,0.4-0.301,1.1l0,0
	c0,0.2,0,0.3-0.1,0.3c-0.3,0.9-0.5,1.3-0.6,1.5v0.1c-0.301-0.1-0.601-0.1-1-0.1l-2.301,0.5c-1.5,0.2-2.899,0.4-4.199,0.4
	c-0.301,0-0.5,0-0.801,0c-1.699-0.1-3-0.4-4.1-1c-0.9-0.7-1.6-1.2-1.8-1.4c0,0,0,0-0.101-0.1c0.101,0,0.2,0,0.2-0.1l0,0
	c0.3,0,2-0.8,5.101-2.3c0.3-0.1,0.6-0.2,0.899-0.3C180.3,44.215,182.4,43.615,183.9,43.615z"/>
<linearGradient id="XMLID_2_" gradientUnits="userSpaceOnUse" x1="-901.6074" y1="47.165" x2="736.9559" y2="47.165" gradientTransform="matrix(-8.000000e-004 -0.0029 0.0042 -0.0011 -3788.1169 -3711.0767)">
	<stop  offset="0" style="stop-color:#231F20"/>
	<stop  offset="1" style="stop-color:#5D666B"/>
</linearGradient>
<path fill="url(#XMLID_2_)" d="M185.2,43.715c-0.4-0.1-0.8-0.1-1.3-0.1c-1.5,0-3.601,0.6-6.4,1.9c-0.5,0.8-0.7,1.8-0.7,3
	c0,0.8,0.101,1.5,0.5,2.2c0.301,0,0.5,0,0.801,0c1.3,0,2.699-0.2,4.199-0.4l2.301-0.5c0.399,0,0.699,0,1,0.1v-0.1
	c0.1-0.2,0.3-0.6,0.6-1.5c0.1,0,0.1-0.1,0.1-0.3l0,0c0.2-0.7,0.301-1,0.301-1.1c0-1.4-0.101-2.4-0.301-2.7
	C186.101,44.015,185.8,43.815,185.2,43.715z M183.8,45.215v0.1c0,0,0,0.2-0.199,0.3c0,0.1-0.101,0.2-0.301,0.3
	c-0.3,0.4-0.699,0.6-1.199,0.6c-0.301,0-0.5,0-0.5-0.2v-0.3c0-0.5,0.3-1,1.1-1.4c0.8-0.3,1.1-0.1,1.1,0.5V45.215z M184.9,45.015
	c0.3,0.1,0.399,0.3,0.5,0.5l0.2,1.1c-0.301,1.7-0.801,2.4-1.801,2.4c-0.899,0-1.199-0.2-1.199-0.7c0-0.1,0.3-0.4,1-0.8
	c0.699-0.3,1-0.9,1-1.7v-0.5C184.601,44.915,184.7,44.815,184.9,45.015z"/>
<path fill="#FFFFFF" d="M183.8,45.315v-0.1v-0.1c0-0.6-0.3-0.8-1.1-0.5c-0.8,0.4-1.1,0.9-1.1,1.4v0.3c0,0.2,0.199,0.2,0.5,0.2
	c0.5,0,0.899-0.2,1.199-0.6c0.2-0.1,0.301-0.2,0.301-0.3C183.8,45.515,183.8,45.315,183.8,45.315z"/>
<path fill="#FFFFFF" d="M185.4,45.515c-0.101-0.2-0.2-0.4-0.5-0.5c-0.2-0.2-0.3-0.1-0.3,0.3v0.5c0,0.8-0.301,1.4-1,1.7
	c-0.7,0.4-1,0.7-1,0.8c0,0.5,0.3,0.7,1.199,0.7c1,0,1.5-0.7,1.801-2.4L185.4,45.515z"/>
<path fill="#FFFFFF" d="M171.3,48.215c0.101,0.1,0.101,0.1,0.101,0.1c0.2,0.2,0.899,0.7,1.8,1.4c1.1,0.6,2.4,0.9,4.1,1
	c-0.399-0.7-0.5-1.4-0.5-2.2c0-1.2,0.2-2.2,0.7-3c-0.3,0.1-0.6,0.2-0.899,0.3c-3.101,1.5-4.801,2.3-5.101,2.3l0,0
	C171.5,48.215,171.4,48.215,171.3,48.215z"/>
<path fill="#7F6950" d="M187.9,71.615c0.1-0.1,0.2-0.1,0.2-0.2s0.199-0.1,0.199-0.1c0-0.1,0-0.1,0-0.1s0,0,0.101,0
	c0.399-0.4,0.899-0.9,1.399-1.4c-0.1,0-0.199,0-0.3,0c-1-0.2-2,0.2-2.899,1c-0.7,0.8-1,1.5-1,2.3c0,0.5,0,0.7,0,0.8s0,0.2,0,0.3
	c0.1,0.1,0.199,0.1,0.199,0.2c0.2,0.1,0.301,0.1,0.601,0.1c0.399,0,0.7,0,0.7-0.2C187.101,73.315,187.3,72.415,187.9,71.615z"/>
<path fill="#E5CD6F" d="M223.3,78.015c-0.699-0.9-1.1-1.4-1.199-1.7H221.8c-0.199,0.7-0.6,2.7-1,6c0.101,0,0.301,0,0.4,0
	s0.1,0,0.3,0c0.8,0,1.4-0.2,1.9-0.7c0.399-0.3,0.5-0.8,0.7-1.4c0-0.2,0-0.4,0-0.6C224.101,79.315,223.8,78.715,223.3,78.015z"/>
<path fill="#7F6950" d="M201.3,29.815c0,0,0.101,0.1,0.2,0.2c1.101,0.8,2.4,1.2,4.101,1.2c0.199,0,0.5-0.1,0.6-0.2
	c0.1-0.2,0.1-0.3,0.1-0.5c-0.5-0.2-2.399-1.8-5.899-4.5c-1.8-1.5-4-2.6-6.8-3.5c-4-1.2-8.801-0.7-14.2,1.3
	c-6.5,2.4-11.101,3.6-13.9,3.6c-1.899-0.1-3-0.1-3.399-0.2c0,0-0.101,0-0.2,0.1c0-0.1,0-0.1,0-0.1h-0.4c-3.2,1.8-6.2,4.2-8.8,7.1
	c-2.8,3-4.3,5.7-4.6,8c-0.2,1.8-1.4,4.5-3.7,8.1c-2.3,3.4-3.4,6.1-3.4,7.9c0,1.1,0.101,1.9,0.3,2.2c0.301,0.9,1.101,1.5,2.301,2
	l0.199-0.5c0.101,0,0.101,0.1,0.2,0.2c0.4-0.2,0.601-0.3,0.9-0.5c0.2-0.1,0.399-0.2,0.6-0.4c0,0.3,0,0.7,0,1.1c0,0.2,0,0.6,0,0.8
	c0,0.8,0.2,1.6,0.4,2.1c0.7,1.7,2.2,2.6,4.399,2.6c0.601,0,1.2-0.4,1.9-1.4c0.3,0.6,0.8,2,1.8,4.4c1.8,3.1,3.4,4.6,5,4.6
	c0.2,0,0.5-0.2,0.9-0.7c-2.4-2.6-4.7-5.8-6.9-9.7c0.101-0.1,0.3-0.3,0.3-0.5c0-0.2,0-0.3-0.1-0.4l-0.2,0.1l-0.5-0.1
	c-0.3,0-0.7,0.3-1.399,1c-0.601,0.7-1.2,1.1-1.801,1.1c-0.899,0-1.5-0.7-1.8-2c-0.1-0.3-0.2-0.5-0.2-0.8c-0.1-0.7-0.1-1.2-0.199-1.5
	c0-0.8-0.101-1.2-0.101-1.3c0-0.2,0.101-0.5,0.4-1c0.1-0.4,0.2-0.8,0.2-1c0-0.3-0.101-0.5-0.101-0.5c-0.5-0.1-0.899,0.1-1.2,0.4
	c-0.399,0-1,0.3-1.699,0.7c-0.301,0.3-0.601,0.6-0.801,0.9c-0.3,0.2-0.399,0.4-0.399,0.6c-0.601-1.2-0.9-2-0.9-2.3
	c0-0.8,0.4-1.9,0.9-3.2c0.5-1.4,1.399-3.1,2.5-5c2.6-4.6,3.899-7,4-7.5c1.3-4,3.7-7.6,7.2-11c1.5-1.5,2.899-2.7,4.199-3.7
	c0.2,0.2,0.601,0.3,1.4,0.4c0.9,0.3,1.9,0.4,2.9,0.4c0.1,0,0.199,0,0.199,0c0.301,0,0.601,0,0.9,0c1.9-0.1,4.2-0.6,6.9-1.6
	c1.1-0.3,2.199-0.7,3.399-1.1c4.7-1.9,8.5-2.8,11.3-2.8c4.5,0,8,1.3,10.4,3.9c1.2,1.2,2.1,2,2.5,2.5H201.3z"/>
<path fill="#7F6950" d="M201.3,38.415c0,0.2,0,0.4,0.101,0.4c0.2,0,0.2,0,0.3,0c0,0.2,0.1,0.3,0.1,0.2l0.301,0.2
	c0.1-0.1,0.199-0.2,0.399-0.4c0.3-0.5,0.9-1.3,1.8-2.6c1.4-1.4,2.801-2.2,4.2-2.4c0.2,0,0.4,0,0.601,0c0.6,0,1.199,0.1,1.5,0.5
	c0.399,0.3,0.8,0.5,1.199,0.5c0.301,0,0.4,0,0.5-0.1c0-0.1,0-0.1,0.101-0.2c-0.3-0.6-0.601-1-1.101-1.4c-0.5-1.3-1.199-2.1-2-2.4
	c-0.5-0.2-0.899-0.2-1.399-0.1c-0.4,0.2-1,0.4-1.5,0.7c-0.3,0.2-0.8,0.5-1.101,0.8c-1.1,0.9-2,1.8-2.6,2.7
	C201.8,36.015,201.3,37.315,201.3,38.415z M205.9,33.715c-0.7,0.5-1.3,0.9-1.8,1.4c0.699-1.1,1.8-1.9,3.3-2.3
	C206.9,33.015,206.5,33.315,205.9,33.715z"/>
<path fill="#9D794F" d="M204.101,35.115c0.5-0.5,1.1-0.9,1.8-1.4c0.6-0.4,1-0.7,1.5-0.9C205.9,33.215,204.8,34.015,204.101,35.115z"
	/>
<path fill="#E5CD6F" d="M202.5,38.815c0,0.5,0.101,0.8,0.101,1.2c0,0.3,0.199,0.8,0.8,1.7c0.5,0.8,0.899,1.3,1.1,1.3h1.101v1.1
	h0.199c0.101-0.4,0.4-0.8,0.801-1.3c0.3-0.4,0.699-0.8,1.199-1.2c1-1,1.801-1.5,2.5-1.6c0.5-0.6,1.301-1,2.301-1.2
	c0.199,0,0.199,0,0.3,0c0-0.1,0-0.1-0.101-0.2c-0.3-0.3-0.699-0.8-1.199-1.5c-0.801-1.1-1.301-1.8-1.301-1.9c0-0.2,0-0.3,0-0.6
	c0.5,0.2,1,0.4,1.301,0.6l0.199-0.4c-0.399,0-0.8-0.2-1.199-0.5c-0.301-0.4-0.9-0.5-1.5-0.5c-0.2,0-0.4,0-0.601,0
	c-1.399,0.2-2.8,1-4.2,2.4C203.4,37.515,202.8,38.315,202.5,38.815z"/>
<path fill="#B88349" d="M211.2,29.315c-0.1,0-0.2,0-0.3,0c-0.601,0-1.101,0.5-1.601,1.4c0.801,0.3,1.5,1.1,2,2.4
	c0.5,0.4,0.801,0.8,1.101,1.4c-0.101,0.1-0.101,0.1-0.101,0.2c-0.1,0.1-0.199,0.1-0.5,0.1l-0.199,0.4h0.1c0.6,0.2,0.9,0.4,1.2,0.6
	c0.6,0.4,0.899,1,0.899,1.9c0,0.3,0,0.6,0,1.1c0.301,0,0.5,0.2,0.7,0.4c0.101,0.1,0.101,0.1,0.101,0.1c1.199,0.2,2.1,0.8,2.6,1.7
	c0.1,0.3,0.3,0.6,0.4,1c0.1,0.8,0.199,2,0.3,3.5c0,0.5,0,0.9,0,1.5c0.2-0.6,0.5-1.3,1-2.2c0.399-0.9,0.7-1.7,0.7-2.3
	c0-1-0.301-1.9-1-2.8c-0.301-0.5-0.601-1-1-1.4c-0.5-0.5-1-1-1.5-1.5c-0.9-0.7-1.601-1.3-2.2-2c-0.3-0.3-0.5-0.6-0.601-0.8
	c-0.5-0.7-0.699-1.3-0.699-1.8s0.1-1,0.5-1.7c-0.4,0.1-0.601,0.1-0.7,0.1c-0.101,0-0.601-0.1-1.101-0.2l-0.1-0.1
	c-0.1,0-0.1-0.2-0.1-0.5c0-0.1,0-0.3,0-0.4S211.101,29.315,211.2,29.315z"/>
<path fill="#F2E4B5" d="M220.3,52.515c-0.5-0.4-1-0.8-1.5-1.2c-0.699-0.6-1.5-1.3-2.199-1.8c-0.801,0.6-1.301,1-1.4,1.1
	c-0.2,0.3-0.3,0.4-0.3,0.6c0,0.4,0.399,1.1,1.1,2c0.3,0.3,0.601,0.6,0.9,1.1c0.2,0.2,0.6,0.5,0.8,0.8c1.2,1.4,2,2.4,2.4,2.9
	c0,0,0.3,1.2,1,3.6c0.3,1.2,1.199,1.6,2.8,1.1v1.5c1.2-0.1,2.399-0.3,3.399-0.7c0.301-0.1,0.5-0.2,0.7-0.3c1.101-0.6,1.7-1.2,1.9-2
	c0-0.2,0-0.4,0-0.5c-0.2-0.4-0.5-0.9-0.8-1.2c-0.7-0.7-1.5-1.5-2.301-2.2C224.4,55.615,222.3,54.015,220.3,52.515z"/>
<path fill="#E5CD6F" d="M199.101,83.715c0.3,0.3,0.5,0.6,0.8,1c1.7,2.1,4,3.4,6.899,3.8c0.601,0,1.301,0.1,1.9,0.1s1.9-0.2,4.1-0.6
	c0.4,0,0.801-0.1,1.2-0.2c0.101,0,0.2,0,0.3,0c2.601-0.5,4.5-0.7,5.5-0.7l0,0c1,0,2.101,0.4,3.101,1c0.6,0.4,1.1,0.7,1.6,1
	c0.3,0,0.8-0.1,1.101-0.3c0.3-0.6,0.5-1.2,0.899-2l0,0c-0.7-0.2-1.399-0.5-2.2-0.8c-1-0.5-1.899-0.8-2.699-0.8c0,0,0,0-0.101,0
	c-1.399,0-3,0.3-5.2,1.1h-0.199c-1.2,0.3-2.301,0.7-3.301,0.9c-1.1,0.1-2.199,0.2-3.199,0.2c-0.7,0-1.301-0.1-2-0.1
	c-2.101-0.4-4-1.3-5.7-2.7c-0.3-0.2-0.8-0.8-1.7-1.8c-0.5-0.6-1.1-1.3-1.8-2.2c-0.3-0.3-0.601-0.7-0.9-1.1c-2.1-2.4-4-4.2-5.7-5.2
	c0-0.1-0.199-0.1-0.199-0.1l-0.101,0.4c1.7,1.7,3.3,3.5,4.8,5.4c0.2,0.1,0.301,0.3,0.5,0.5
	C197.5,81.415,198.3,82.515,199.101,83.715z"/>
<path fill="#E5CD6F" d="M184.8,76.015l0.101,0.1l0.2-0.3c-0.101-0.2-0.301-0.3-0.5-0.5c-3.2-2.4-7-3.6-11.5-3.6
	c-0.2,0-0.601,0.1-1,0.2c-0.4,0.1-0.7,0.2-0.9,0.2c-0.3,0-0.8-0.2-1.3-0.6c-0.4-0.5-1.101-0.7-2.101-0.7c-0.199,0-0.3,0.1-0.3,0.2
	c-0.1,0.3-0.2,0.4-0.399,0.5c0-0.1-0.101-0.2-0.2-0.2l-0.101-0.1c-0.899-0.7-1.8-1.7-2.8-3c-1.2-1.7-2-3.2-2.1-4.4H161.8
	c0,0.2-0.3,0.7-0.699,1.5c-0.301,0.7-0.5,1.5-0.5,2.2c0,0.5,0.199,1,0.3,1.5c0.1,0.3,0.3,0.6,0.5,1.1l-0.101-0.1
	c-1.8-1.9-3.399-3.7-4.399-5.5c-0.5-1-1.101-2.3-1.601-4c-0.3-0.9-0.5-1.4-0.8-1.7c0-0.1-0.1-0.2-0.2-0.2
	c-0.199,0-0.8,0.2-1.699,0.7c-1,0.5-1.5,0.7-1.5,0.7c-0.2,0-0.5-0.2-0.601-0.6c-0.2-0.6-0.399-1.6-0.399-3
	c0.199-0.9,0.199-1.7,0.199-2.2h-0.699l-1.5,0.8l-0.2-2c0-0.1,0-0.2,0-0.2c0-2.8,1-5.8,3-9.2c1-1.8,2.899-4.5,5.6-8.1
	c1.4-1.9,3.101-3.4,5.2-4.6c0.9-0.6,2.3-1.3,3.9-2c-1,0-2-0.1-2.9-0.4c-0.8-0.1-1.2-0.2-1.4-0.4c-1.3,1-2.699,2.2-4.199,3.7
	c-3.5,3.4-5.9,7-7.2,11c-0.101,0.5-1.4,2.9-4,7.5c-1.101,1.9-2,3.6-2.5,5c-0.5,1.3-0.9,2.4-0.9,3.2c0,0.3,0.3,1.1,0.9,2.3
	c0-0.2,0.1-0.4,0.399-0.6c0.2-0.3,0.5-0.6,0.801-0.9c0.699-0.4,1.3-0.7,1.699-0.7c0.301-0.3,0.7-0.5,1.2-0.4
	c0,0,0.101,0.2,0.101,0.5c0,0.2-0.101,0.6-0.2,1c-0.3,0.5-0.4,0.8-0.4,1c0,0.1,0.101,0.5,0.101,1.3c0.1,0.3,0.1,0.8,0.199,1.5
	c0,0.3,0.101,0.5,0.2,0.8c0.3,1.3,0.9,2,1.8,2c0.601,0,1.2-0.4,1.801-1.1c0.699-0.7,1.1-1,1.399-1l0.5,0.1l0.2-0.1
	c0.1,0.1,0.1,0.2,0.1,0.4c0,0.2-0.199,0.4-0.3,0.5c2.2,3.9,4.5,7.1,6.9,9.7l0.1-0.2c-0.1-0.1-0.2-0.3-0.2-0.4h-0.199
	c0-0.2-0.101-0.3-0.101-0.6c0.101-0.3,0.101-0.5,0.101-0.6h0.199h0.2c0,0,0,0,0.101,0.1c0-0.1,0-0.1,0.1-0.1c0,0,0,0,0-0.1l0.1-0.5
	c1.101-0.1,2.101,0.3,3.2,1.1c0.101,0.1,0.3,0.3,0.4,0.3c0.1,0.1,0.2,0.2,0.2,0.2c0.699,0.3,1.399,0.6,2.199,0.8
	c0.301,0,0.7,0.1,1.101,0.2v-0.2c0-0.2,0.1-0.4,0.1-0.5c0,0,0.101-0.1,0.3-0.1c-0.199,0-0.199,0-0.3,0c-0.399,0-0.6-0.1-0.7-0.2
	c0-0.1-0.1-0.2-0.3-0.5c6.8-1,12.7-0.2,17.8,2.3C184.5,75.815,184.601,76.015,184.8,76.015z"/>
<path fill="#E5CD6F" d="M200.101,95.915c0.699,0,1.5-0.1,2.3-0.1c0.899-0.2,1.7-0.3,2.5-0.6c0.7-0.2,1.3-0.4,1.899-0.7
	c1.101-0.5,2.101-1,3.101-1.5c0.6,0,0.899,0.3,0.899,1c0,0.5-0.899,2-2.5,4.3v0.1c0.9-0.2,2.5-1.1,5-2.5
	c1.101-0.6,2.301-1.4,3.801-2.3c0.5,0,0.699,0.4,0.8,1c0,0.9,0,1.4,0.2,1.4c0.399-0.2,0.899-0.4,1.399-0.7c1-0.6,2-1.4,3.101-2.4
	l-0.5-0.7c-0.101,0-0.301,0.1-0.301,0.1c-0.199,0-0.399-0.1-0.5-0.3c-0.199-0.2-0.3-0.2-0.5-0.2c-0.5,0.1-0.8,0.2-1,0.2
	c-0.199,0-0.399-0.2-0.6-0.8c-0.3-0.6-0.3-1-0.1-1.4l-0.2,0.2c-1.101,0.8-2.101,1.5-2.8,2c-0.101,0-0.2,0-0.301,0.1
	c-1.3,0.9-2.199,1.2-2.699,1.2s-0.801-0.5-0.9-1.5c0.1-1,0.1-1.7-0.1-2c-0.2,0.1-0.5,0.2-0.801,0.4c-0.399,0.1-0.8,0.3-1.3,0.6
	c-0.7,0.3-1.399,0.5-1.899,0.5s-0.801-0.1-0.9-0.4c-0.1-0.1-0.1-0.6-0.1-1.4c-0.101,0-0.601,0.5-1.801,1.3
	c-0.399,0.3-0.8,0.6-1.199,1c-1.2,0.8-2.4,1.2-3.801,1.2c-2,0-3.8-0.3-5.5-0.9c-0.5-0.3-1.1-0.5-1.5-0.8l-0.3,0.6
	C195.3,94.515,197.601,95.915,200.101,95.915z"/>
<path fill="#EBD686" d="M208.3,98.415L208.3,98.415v-0.1l-0.1,0.1C208.3,98.415,208.3,98.415,208.3,98.415z"/>
<path fill="#8A7151" d="M212.3,110.515c0.101-0.2,0.301-0.4,0.5-0.6c-0.1-0.1-0.199-0.1-0.199-0.1c-0.2-0.2-0.301-0.2-0.5-0.2
	c-1.101,0-2.4,0.9-3.9,2.7c-1.6,2-2.4,3.9-2.4,5.6c0,0.4,0.101,1,0.4,2.1c0.3,1,0.4,1.7,0.4,2.2c0,1.601-1.4,3-4,3.9
	c-2,0.7-3.801,1-5.5,1c-1.2,0-2.101-0.4-2.801-1.101c-0.699-0.8-1.1-2-1.1-3.399c0-0.4,0.2-1.1,0.6-2.2c0.301-1.1,0.5-1.9,0.5-2.6
	c0-1-0.399-2.3-1-4c-0.399-0.9-0.699-1.6-0.8-2c0,0.1,0,0.5,0,1.2c0,1.5-0.399,2.8-1,4c-0.7,1.3-1.899,2.2-3.3,2.6
	c-1.8,0.5-3.3,0.9-4.4,1.2c-2.3,0.5-3.899,0.8-5,0.8c-0.699,0-1.5-0.1-2.3-0.3c-0.399-0.1-0.7-0.2-0.899-0.3c0,0,0,0,0-0.1
	c0-0.4,0.199-1.1,0.5-2.4c0.1-0.2,0.199-0.4,0.199-0.7c0.5-1.6,0.801-2.8,0.801-3.6c0-1.4-0.301-2.6-0.601-3.4
	c-0.3-0.8-1.1-2-2.399-3.7c-1.101-1.6-1.801-2.7-2.301-3.3c-0.8-0.9-1.5-1.6-2.5-2c-4.6-2.4-7.3-3.8-7.899-4.5c-1.4-1.1-2-2.9-2-5.5
	c0-0.6,0.1-1.5,0.2-2.5c0.199-1,0.3-1.7,0.3-2c0-0.4-0.101-1-0.3-2c-0.2-1.1-0.301-1.7-0.301-2c0-0.2,0.101-0.5,0.2-0.8
	c-1,0.6-2.7,1.5-5.2,2.5c-3.3,1.5-5.5,2.3-6.699,2.3c-2,0-3.601-1.3-4.801-3.8c-1.3-2.6-2.8-3.9-4.699-3.9
	c-0.801,0-1.801,0.3-3.2,0.9c-1.4,0.7-2.5,1-3.4,1c-0.7,0-1.399,0-2-0.2c-1.899-0.3-3.5-1.3-4.7-2.8c-0.5-0.7-1-1.4-1.3-2.2
	c0,1.5,0,2.2,0,2.2c0.5,1.3,0.9,2.3,1.101,2.7c0.8,1.1,1.899,1.7,3.199,1.8c0.601,0.1,1.101,0.2,1.5,0.3
	c3.301,0.3,5.801,0.7,7.301,1.1s2.6,0.9,3.399,1.6c2.4,2.1,3.9,3.6,4.5,4.7c0.4,0.8,0.5,2.3,0.5,4.3c0,1.4-0.1,2.6-0.5,3.9
	c-0.2,1.1-0.6,1.9-1.1,2.5c0,0,0,0-0.101,0.1c0.101,0,0.2,0,0.2,0c3,0,5.5-0.8,7.601-2.5c2.399-1.7,3.899-2.7,4.5-2.7l0.199,0.1
	c0,0.1,0,0.2,0,0.5s-0.1,0.6-0.3,1c-0.3,0.4-0.5,0.6-0.5,0.6c0,2.1,1,3.9,3,5.3c1.101,0.7,3.3,1.7,6.601,3c3.1,1.2,5.3,2.4,6.5,3.4
	c2,1.6,3,3.6,3,6.1c0,0.5,0,1-0.101,1.5c-0.2,0.6-0.399,1.2-0.6,1.8c-0.8,1.9-1.8,2.8-3.101,2.8c-0.199,0-0.399,0-0.5,0
	c0.101,0.3,0.2,0.7,0.5,1.2c0.801,1.399,3,1.8,6.601,1.399c3.7,0.7,5.6,1.801,5.8,3.101c0.1,0.399,0,0.899-0.2,1.8
	c-0.2,0.7-0.2,1.4,0,1.7l-0.2,0.2h0.2c1.3-0.301,2.4-1,3.4-2.2c0.899-0.9,1.6-1.601,2.1-2c0.101-0.3,0.2-0.8,0.3-1.101
	c0.601-1.3,1.301-2.3,2.101-3h0.2c0,0.101,0,0.2,0.1,0.301c0.1,0.199,0.1,0.399,0.1,0.6l-1.5,4.8c0,0.601,0.4,1.601,1.301,3.2
	c1,1.9,2,2.8,3,2.8c0.5,0,1.1-0.399,1.899-1.1c0.8-0.8,1.9-1.2,3.3-1.2c1.101,0,2,0.3,2.601,0.7c0.7,0.6,1.1,0.8,1.399,0.8
	c2.7,0,5-1.9,6.9-5.6c1.4-2.801,2.2-4.801,2.2-6.101c0-0.3-0.3-1-0.8-2.1c-0.5-1.1-0.7-2.1-0.7-3.1
	C210.4,114.515,211,112.315,212.3,110.515z"/>
<path fill="#B88349" d="M166.8,11.215c-0.8,0-1.5-0.2-2.3-0.5c-0.8-0.2-1.6-0.7-2.5-1.2c-0.1,0-0.1,0-0.2,0
	c-0.1,0-0.3-0.1-0.399-0.3c-0.101-0.2-0.3-0.4-0.4-0.4c-0.2-0.2-0.399-0.3-0.6-0.5c-2.5-2-5.4-3-8.9-3c-3.2,0-6.899,1.2-10.899,3.7
	c-0.301,0.2-0.7,0.4-1.101,0.6c-1.899,1.2-3.399,2.4-4.5,3.4c-1.1,1.2-1.7,2.8-2,5c-0.3,2.7-0.5,4.4-0.8,5c-0.2,0.5-0.7,1.2-1.4,2
	c-0.899,0.8-1.899,1.8-3.3,2.9c-0.399,0.3-0.7,0.6-1,0.9c0,0,0,0-0.1,0c-2.3,1.9-3.601,3.2-4.101,4c-1.199,2-2,3.6-2.399,5
	c-0.4,1.4-0.601,2.9-0.601,4.7c0,1.3,0.7,2.6,2.101,3.8c0.5,0.5,1.8,1.5,3.7,2.7l0,0c0.3,0.2,0.399,0.3,0.699,0.4
	c0.2,0.1,0.5,0.4,0.7,0.6c0.5,0.2,0.9,0.3,1.3,0.3c0.4,0,0.801-0.2,1.2-0.5c0.5-0.4,0.601-0.8,0.601-1.1c0-0.4-0.101-1-0.2-1.5
	c0,0.3-0.3,0.6-0.7,1c-0.4,0.3-0.9,0.4-1.3,0.4c-0.601,0-1.3-0.1-1.8-0.3c-1.5-0.9-2.2-3-2.2-6.3c0-4.4,1.5-8.2,4.6-11.4
	c1.8-1.4,3.2-2.8,4.4-3.9c0-0.1,0-0.1,0.1-0.1c0.9-1,1.5-1.8,2-2.5c0.2-0.2,0.3-0.4,0.4-0.6c0.5-0.9,0.899-2.6,1.399-5.2
	c0.301-2.6,0.801-4.3,1.5-5c0.7-1,1.7-1.7,2.7-2.3c1-0.7,2.3-1.2,3.601-1.5c1.699-0.4,4-0.6,7-0.6c1.8,0,3.899,0.6,6.399,2
	c2.4,1.4,4.4,2,5.8,2c1.801,0,3.101-0.2,3.801-0.6c0.399-0.3,1.199-1.1,2.3-2.3c-0.101,0-0.3,0.1-0.4,0.2
	C168,10.815,167.3,11.215,166.8,11.215z"/>
</svg>
