<?xml version="1.0" encoding="utf-8"?>
<!-- Generator: Adobe Illustrator 12.0.0, SVG Export Plug-In  -->
<!DOCTYPE svg PUBLIC "-//W3C//DTD SVG 1.1//EN" "http://www.w3.org/Graphics/SVG/1.1/DTD/svg11.dtd" [
	<!ENTITY ns_flows "http://ns.adobe.com/Flows/1.0/">
	<!ENTITY ns_svg "http://www.w3.org/2000/svg">
	<!ENTITY ns_xlink "http://www.w3.org/1999/xlink">
]>
<svg  version="1.1" xmlns="&ns_svg;" xmlns:xlink="&ns_xlink;" xmlns:a="http://ns.adobe.com/AdobeSVGViewerExtensions/3.0/"
	 width="190" height="183" viewBox="-0.8 -0.3 190 183" enable-background="new -0.8 -0.3 190 183" xml:space="preserve">
<defs>
</defs>
<path fill="#333333" d="M177.5,23.1c0-2.4-0.2-4-0.399-4.6c-0.601-1.4-1.7-0.4-3.4,3.3c-1.5,3.3-3.4,5.9-5.8,7.8
	c-0.5,0.3-0.9,0.7-1.3,1c-0.101,0-0.2-0.1-0.301-0.1c-4.699-3.2-7.899-4.2-9.5-3.2l-1.5,1.7c-0.699,0.6-1.5,1-2.399,1
	c-0.3,0-0.8-0.2-1.5-0.5c-0.2-0.2-0.3-0.3-0.5-0.4c0.1-0.5,0.2-1.3,0.2-2c0.1-2.5,0.199-4.2,0.199-5c-0.1-1.9-0.1-3-0.1-3.5
	c0,0-0.1-0.1-0.3-0.3c0.1-0.2,0.1-0.3,0.2-0.5c0.1-0.5,0.1-1.4,0.1-2.5c0-3.5-1.5-4.6-4.8-3.2c-0.101,0-3,1.8-8.8,5.5
	c-0.4,0.2-0.9,0.5-1.4,0.7c-4.8-3.6-8.5-6.7-10.8-9c-0.8-0.9-2.101-2.6-3.8-5.1c-2.2-2.1-5.2-3.5-9.101-4.2
	c-5.1,0.4-8.7,1.1-11.1,1.9C99.8,2.5,98.3,3.5,96.7,5c-0.4,0.4-1.9,1.6-4.1,3.6c-2.2,1.8-3.2,2.7-3.2,2.9c0,0.2,0.1,0.4,0.2,0.4
	c0,0.1,0,0.1,0,0.2c-6.5-0.2-12.5-0.5-17.8-1c-2,0-3.7,0.3-4.8,1c-1,0.5-2.4,1.9-4.2,4c-0.7,0.8-1.2,1.6-1.7,2.5
	c-1.3-0.8-3.8-1.8-7.5-3.2c-5-1.9-8-3.3-9.1-4.1c-2.6-2.4-5.2-4.3-7.6-5.9c-4.1-2.6-6.1-2.7-6.1-0.3c0,1.2,0.3,2.8,0.7,4.7
	c0.4,2,0.6,3.5,0.6,4.5c0,1.3-0.2,2.8-0.6,4.5c-0.4,1.8-0.7,3-0.7,3.4c0,1.9,1.5,4.6,4.6,7.9c3.9,4.4,8.6,6.6,14,6.6
	c0.3,0,0.8-0.1,1.7-0.3c0.9-0.3,1.5-0.4,2-0.4c1,0.1,1.9,0.1,2.6,0.1c-0.9,4.4-1.4,6.8-1.4,7.7c-0.1-0.2-0.2-0.2-0.3-0.3
	c-1.6-0.6-2.7,0-3.4,1.4c-0.5,0.9-0.7,2.1-0.7,3.4l0.5,3.9c-0.6,0.2-1.1,0.6-1.8,1.3c-0.6,0.6-0.9,1.1-1,1.5
	c-0.3-0.5-0.8-1.1-1.5-1.6c-0.3-0.1-0.5-0.3-0.6-0.3c-0.2-1.3-0.9-1.1-2.2,0.6c-1.5,1.9-2.3,3.4-2.3,4.2c0.8,1.2,1.6,2.2,2.3,3.1
	c-0.2,0.1-0.5,0.3-0.9,0.6c-1.3,1.2-2,2.2-2,3.1c0,0.4,0.1,0.8,0.2,1.1c-0.4,0-0.6,0.5-0.6,1.3c0.1,0.3,0.2,0.6,0.3,0.8
	c-0.4,0.2-0.7,0.7-1.1,1.2c-0.4,0.7-0.6,1.2-0.6,1.6s0,0.6,0.2,0.8h0.6c0.2-0.2,0.6-0.7,1.1-1.6c0.3-0.4,0.5-0.8,0.6-1
	c0.7,0.7,1.6,1.1,2.7,1.1c0.3,0,0.6-0.1,1-0.2c0-0.1,0-0.2-0.1-0.2l0.1-0.1c0,0,0-0.2,0-0.5c-1.7-2.5-2.5-3.9-2.5-4.1
	c0-0.1,0.3-0.5,1.1-1.4c0.5-0.7,0.9-1.1,1-1.4c1.7,1.6,3.2,2.5,4.8,2.8c0.3,0.3,0.6,0.4,0.9,0.5c0.2,0,0.2,0,0.3,0
	c0.3,0,0.5-0.1,0.7-0.1l0.2-0.2v-0.5c0-0.3-0.2-0.6-0.5-1c-0.2-0.5-0.5-1-1-1.7c-1-1.2-1.5-2-1.5-2.3c0-0.5-0.1-1-0.2-1.5
	c-0.1-0.4-0.2-1-0.2-2h0.5c0.4,0,0.9-0.5,1.6-1.5c0.2-0.4,0.4-0.7,0.6-1l0.3,2.5c0.6,2.8,1.2,4.8,2,6.1c0.8,1.4,1.7,2,2.7,2h0.1
	c-0.1,0.1-0.2,0.2-0.3,0.3c0,0.5,0.2,1,0.7,1.3c0.6,0.8,1.7,1.1,3.1,1.1c3.7,0,6.7-2.3,8.9-7.1c1.5-3.3,2.2-6,2.2-8c0-3-0.8-5-2.4-6
	c-0.1,0-0.3,0-0.3-0.1c-0.5-0.2-1-0.3-1.5-0.4c-1.1,0-2.1,0.2-3,0.8c-0.9,0.5-1.3,1.2-1.3,1.9c0,0.3,0,0.4,0.1,0.5
	c0.1,0,0.2-0.1,0.4-0.3l1.4-1.3c0.6-0.4,1.6-0.8,2.6-0.8c0.3,0,0.5,0.1,0.6,0.2c0.1,0.1,0.2,0.2,0.3,0.3c0.4,0.3,0.8,0.9,1,1.9
	c0.3,1.1,0.4,2.1,0.4,3.1c0,0-0.6,2.2-2,6.5c-2,4.4-4.5,6.5-7.4,6.5c-0.2,0-0.7,0-1.4-0.3c-0.7-0.2-1.2-0.3-1.5-0.3
	c0.3-0.2,0.5-0.4,0.8-0.8c-1.5-0.6-3-2.9-4.3-6.6c-0.7-2-1.1-3.7-1.4-5.3c-0.1-1-0.2-2-0.2-2.8c0-0.4,0.2-0.9,0.6-1.9
	c0.3-1.1,0.6-1.8,0.8-2c0.5,0.7,1.4,1.7,2.8,3c2.2,1.7,4.2,2.7,5.9,2.7c0.9,0,1.7-0.3,2.3-0.8c0.3-0.2,0.5-0.4,0.7-0.5
	c0.1-0.2,0.2-0.4,0.2-0.6c0-0.3-0.1-0.5-0.2-0.5s-0.2,0-0.5-0.1c0,0-0.5,0.1-1.2,0.4c-0.3,0.1-0.5,0.2-0.8,0.3c-0.1,0-0.2,0-0.3,0
	c-0.7,0-1.4-0.2-2.2-0.6c-0.7-0.3-1.4-0.8-2-1.3c-0.7-0.5-1.2-1.1-2-1.8c1.1-0.2,2-1.9,2.5-5c0.5-4.7,1-8.3,1.5-11
	c1.8-10.7,6.9-16,15.1-16c1.4,0,3.7,0.3,6.8,0.7C84.3,13.8,90,14,97.9,14c0.2,0,0.7-0.1,1.6-0.2c0.8-0.2,1.3-0.3,1.601-0.3
	c0.399,0,1,1.1,1.6,3.3c0.7,2.1,1.2,3.6,1.4,4.3c0.1,0.2,0.199,0.2,0.199,0.3l0.2-0.1c0.101,0,0.101-0.2,0.101-0.2
	c0.1-0.2,0.199-0.4,0.199-0.6c-0.199-1.4-0.399-2.9-0.699-4.2c-0.801-2.7-1.9-4.2-3.4-4.2c-1.3,0-2.6,0-3.8,0c-0.3,0-0.601,0-0.8,0
	c-2,0-4,0-5.9,0c1.2-0.4,2.4-1.2,3.9-2.3c1.7-1.5,2.9-2.5,3.5-3c1.5-1.1,3.1-2,5-2.8c3.199-1.2,6.3-1.9,9.6-1.9
	c3.5,0,7.5,2.9,12.4,8.8c2.6,3,4.3,5,5.5,6c1.3,1.2,2.699,2.1,4,2.5c-0.9,0.4-2,0.7-3,1.1c-2.9,0.8-6.101,1.3-9.5,1.3
	c-2.5,0.1-4.101,0.2-4.801,0.5c-0.5,0.2-0.899,0.5-1.1,0.9c-1.7-1.4-2.8-1.1-3.3,1.1c-0.2,1-0.4,2.6-0.4,4.8c0,0.1,0.2,0.7,0.4,1.8
	c0.5,1.1,1.2,1.7,1.899,1.7c0.301,0,0.4,0,0.601,0c0.5-0.1,0.7-0.5,0.7-0.8c-0.2-0.5-0.4-0.9-0.5-1.3c-1-2.7-1.5-4.2-1.5-4.6
	c0-0.4,0.1-0.8,0.199-1.2c0.4-0.8,0.9-1.1,1.601-1.2c-0.2,0.4-0.3,1.1-0.3,1.7c0,0.9,0.199,1.4,0.699,1.4c0.4,0,0.801-0.5,1.301-1.5
	c0.3-1.1,1.199-1.6,2.899-1.6c7.5,0,14.2-1.7,19.8-5c4.4-3.4,7-5.2,7.9-5.2c0.6,0,1,0.5,1.4,1.5c0.1,0.5,0.199,1.1,0.199,1.7
	c0,0.8-0.1,1.5-0.1,2.4c0,0.2,0,0.6,0.2,0.9c-0.5,1.3-0.7,3.2-0.7,5.4c0,3.6-0.5,6.1-1.5,7.6c-0.8,1-2,2.1-3.8,3.4
	c-1.3,1.1-3.101,2.2-5.2,3.4c-6.2,3.9-12,5.8-17,5.8c-0.3,0-0.8-0.1-1.4-0.3c-0.699-0.2-1.199-0.3-1.399-0.3c-0.4,0-0.601,0-0.3,0.2
	c0.1,0.6,0.3,0.9,1,1.3c0.6,0.3,1.5,0.5,2.8,0.5c6.1,0,12.2-1.8,18.3-5.5c3.3-2,6-4,8-6c0,0,0,0,0-0.1s0-0.1,0-0.1
	c1.2-1.2,2-2.5,2.4-4c0.699,0.5,1.6,0.7,3,0.7c0.199,0,1.1-0.5,2.6-1.5s2.6-1.5,3.5-1.5c1.5,0,3.1,1,5.1,2.8
	c-0.1,0.5,0.101,0.9,0.801,0.9c0.1,0,0.1,0,0.1,0c1.7,1.6,3.6,4,5.6,6.9c4.4,6.3,7.7,12.5,9.9,18.5c0.9,2.3,1.6,5.6,2.5,9.7
	c0.3,1.5,0.6,3.1,0.9,4.8c1.199,6.7,1.699,12.1,1.699,15.7c0,9.4-1.8,18.9-5.6,28.5c-0.7,2.199-2,5.1-3.8,8.899
	c-1.2,2.601-1.7,4.101-1.7,4.7c0,0.3,0,0.5,0.1,0.6c0.101,0,0.101,0.101,0.2,0.2c-0.2,0.3-0.3,0.7-0.5,1.101
	c-1.3,3.699-2.5,7.699-3.3,12.1c0,0.6-0.7,3.4-1.9,8.3c-1.1,4.8-1.6,7.8-1.6,8.8s0.5,2,1.6,3c1.101,1,1.7,1.5,1.7,1.5
	c0,3.2-1.399,5.601-4.2,7.301c-0.399,0.3-0.8,0.399-1.199,0.699c0,0-0.101,0-0.101,0.101c-1.399,0.6-2.8,1.2-4.2,1.6
	c0.301-1.5,0.4-3.399,0.4-5.899c0-0.5-0.8-1.601-2.5-3c-1.7-1.5-2.5-3-2.5-4.601c0-6.899,1.5-12.899,4.8-17.899
	c1.601-2.5,2.7-4.5,3.2-6.101c0.2-0.5,0.5-1.1,0.6-1.7c1.2-0.699,2.301-1.3,3.2-2.1c0.7-0.6,1.2-1,1.601-1.4
	c0.1-0.199,0.199-0.5,0.3-0.699c0.3-0.301,0.3-0.801,0.3-1.101c0-0.5-0.3-0.7-1-0.399c-0.6,0.199-1.6,1-2.9,2
	c-0.3,0.3-0.6,0.699-1,0.899c0.301-1.7,0.4-3.6,0.4-5.6c0-1.601-0.1-3-0.5-4.101c-0.1,0.5-0.4,1.301-0.5,2.301
	c-0.5,1.699-1,3.899-1.5,6.699c-0.9,3.9-2.1,7.101-3.8,9.9c-1.601,2.8-2.7,6-3.7,9.6c-0.7,3.2-1.1,6.4-1.1,9.5
	c0,2,0.899,3.801,2.699,5.5c1.801,1.7,2.7,2.9,2.7,3.7c0,3.101-0.7,5.5-2.1,6.9c-1.5,1.7-4.2,2.5-7.7,2.5c-7.8,0-13.5-0.9-17.3-2.7
	c-2.5-1.2-3.7-2.4-3.7-3.7c0-0.5,0.1-1.6,0.4-3.5c0.399-1.899,0.6-2.899,0.6-3.2c0.3-0.3,1.5-1.199,3.9-2.699
	c2.1-1.4,3.1-2.301,3.1-2.5c0-0.301,0-0.5,0-0.5s-0.1-0.101-0.2-0.101l-0.399-0.1c-0.9,0-1.9,0.399-3.301,1.2v-0.5
	c0-2-0.1-3.5-0.5-4.5c-0.699-1.9-1.3-3.801-1.699-5.7c-0.4-2.3-0.9-4.3-1.4-5.8c0,0,0,0,0-0.101c0.2-0.1,0.5-0.2,0.9-0.399
	c0.8-0.301,1.399-0.801,1.6-1.301c-0.6-0.399-1.7-0.399-3.3,0c-0.101,0-0.101,0-0.2,0.101c-1.4,0.399-2.1,0.8-2.1,1.2
	c0,0.399,0,0.5,0.1,0.3c0,0.1,0.1,0.2,0.3,0.3c0.101,0.1,0.2,0.1,0.2,0.1c0.2,0,0.3,0,0.5,0s0.5,0,0.7,0c0,0.301,0,0.5,0,0.801
	c0,0.1,0.399,2.699,1.3,8c1,4.8,1.9,7.5,2.9,8c-0.301,0.1-0.4,0.199-0.801,0.399c-2.199,1.3-3.399,2.601-3.6,3.7
	c-0.4,2.1-0.6,3.4-0.7,3.7c-0.1,0.6-0.1,1.3-0.2,2.1c-0.1,0-0.1,0-0.199,0c-0.7-0.1-1-0.1-1.301-0.1c-1.6,0-3.3-0.101-4.8-0.3
	c-1.6-0.2-3-0.5-4.3-0.801c-2.7-0.699-4-1.6-4-2.699c0-3.801,1.1-6.5,3.5-8.101c1.2-0.899,2-1.399,2.3-1.8
	c0.7-0.9,1.101-2.1,1.101-3.7c0-0.2-0.2-0.8-0.301-1.8c-0.6,1.1-1.199,2.1-2.1,3c0-0.9,0.1-1.8,0.2-2.5c0-0.7,0.1-1.3,0.1-1.9
	c0-1.399-0.5-3.5-1.6-6.199c-0.3-0.9-0.7-1.7-1-2.301c2.2,1,4.1,1.5,5.8,1.5l2.5-0.199l-0.1-0.101c-0.5-0.2-1-0.5-1.7-0.8
	c-0.101-0.1-0.2-0.1-0.3-0.2c-0.4-0.2-0.7-0.399-1-0.5c-1.9-0.899-4.301-1.899-6.9-3.1c-3.9-1.8-6.4-3.4-7.6-4.9
	c-0.801-0.7-2.801-2.7-5.5-6c-1.301-1.399-2.301-2.3-3.2-2.8c0.3-0.5,0.6-1,0.899-1.4c4.601-6.399,7.5-11.399,8.7-14.699
	c1.5-4.5,2.8-9.101,4.101-14.101c1.6-6.7,2.3-11.7,2.3-15.4c0-2.2-0.3-5.6-0.8-10.1c-0.4-2.6-0.801-4.7-1-6.3
	c-0.101-0.6-0.2-1-0.301-1.4c0.4,0.5,0.9,0.8,1.4,1.2c0.2,0.1,0.5,0.3,0.7,0.4c0.1,0,0.1-0.1,0.1-0.5c0-1.1-0.6-2.3-1.8-3.3
	c-1.3-1-1.9-1-1.9,0.2c0,0.3,0.301,0.6,0.9,1.3c-0.4,1-0.5,2.4-0.5,4.3c0,0.2,0.1,1.2,0.5,3.2c0.2,2,0.4,3.2,0.5,3.9
	c0.4,3.4,0.5,5.8,0.5,7.1c0,11.4-3,22.7-9.4,34c-0.6,1.199-1.199,2.399-2,3.5c-0.199,0.199-0.199,0.5-0.399,0.6
	c-1.9,3.1-4.601,7.1-8.1,12.1c-1.9,2.801-3,5-3.5,6.7c-0.3-0.399-0.7-0.7-1.2-1.1c-0.3-0.101-0.5-0.3-0.8-0.3
	c-0.8-0.4-1.2,0.1-1.2,1.3c0,0.6,0,0.6,0,0.3c1.2,0.1,2.2,0.9,2.9,2.7c0.5,1.2,0.7,2.399,0.7,3.5c0,1.5-0.8,3.2-2.4,5.2
	c-2.4,3.199-6.1,4.899-11,4.899c-1.7,0-3.7-0.2-5.7-0.7c-2-0.3-3.3-0.5-3.8-0.5c-2.5,0-5.4,0.301-8.7,1
	c-3.5,0.801-5.3,1.101-5.6,1.101c-2.2,0-4-0.3-5.7-0.8c-2.4-1-4.3-2.5-6-4.7c-1-1.8-1.9-3-2.3-3.7c0-0.1-0.2-0.2-0.2-0.3
	c0.2,0,0.3-0.101,0.5-0.101c6.7-1.5,10.1-2.199,10.5-2.199c3.5,0,7.6,0.399,12.4,1.199c0.6,0.101,3.3,0.7,8.2,1.601
	c0.7,0.2,1.7,0.399,2.9,0.8c0.8,0.3,1.8,0.6,3,1c0.5,0.1,0.9,0.4,1.3,0.5c0.2,0.1,0.5,0.1,0.7,0.2c1.3,0.399,2.2,0.6,2.8,0.6
	c0.5-0.2,0.9-0.6,0.9-0.899c0-1.801-4.7-3.5-13.8-5c-7.6-1.4-13.4-2-17.1-2c-1.3,0-5.3,0.6-12.1,2c-3.5,0.699-6.9,1.399-10.4,2
	c-6.3,0-10-2.2-11-6.801c-0.4-2.5-0.8-4.3-1.2-5.5c-0.6-2-1.9-3.399-3.7-4.199c0.4,0.6,0.6,1.199,1,2c-1.4-0.801-2.7-1.7-3.9-2.601
	c-1.8-1.7-2.8-3.2-3-4.7c0-0.6-0.2-2.1-0.6-4.5c-0.1-0.5-0.1-1-0.2-1.399l0,0c-0.2-1.3-0.4-2.4-0.4-3.2c0.2-1.7,0.7-3.4,1.2-5.1
	C7,106.3,8.4,104.8,10.4,104.8c1.9,0,4.2,1.801,7.2,5.4l3.9,5.4c0.3,0,0.5,0,0.5,0c0.1-0.101,0.1-0.2,0.2-0.2
	c0.1-0.3,0.1-0.5,0.1-0.601c0-0.3-0.1-0.699-0.2-1c-0.5-1.8-2.1-4.199-5-7.1l0.7-1.6c5,2.6,10.9,3.899,17.9,3.899
	c0.7,0,1.4,0,2.1-0.1c0,0,0.1,0,0.2,0c6.8-0.4,12.1-3.3,15.9-8.3c2.7-3.801,4-7.101,4-10.101c0.2-3.2-0.1-6-0.6-8.9
	c-0.9-4.9-2.7-7.6-5.5-8c0-0.1,0-0.2,0-0.3c0-0.2-0.1-0.5-0.5-0.8c-0.5-0.6-1.5-0.8-2.7-0.8c-0.3,0-0.8,0.1-1.4,0.1c0,0,0,0-0.1,0
	c-0.5,0.1-1.1,0.1-1.8,0.3c-1,0.2-2,0.4-3.2,0.6c-1.2,0-2.3-0.1-3.5-0.3c-3.2-0.6-6.2-2.1-8.9-4.3c-4.1-3.3-8.1-8.5-12.1-15.8
	c-1.1-2-2.8-5.6-5.1-10.7c-0.9-2.3-1.7-4.1-2.2-5.4c-0.3-0.6-0.7-1.3-1-1.9c0.2-0.2,0.3-0.2,0.3-0.2c-1.6-4.5-3.4-4.8-5.3-1
	c-1.5,2.9-2.3,6-2.6,9C0.5,51.3,0,56.8,0,58.6c0,14,1.6,24.7,4.8,32.1c2.5,5.4,5.8,9.6,10.3,12.6l-0.8,1c-2.6-1.699-4.9-2-6.7-0.5
	c-2.5,2.101-4,4.4-4.5,6.801C3.1,111,3,113.3,3,117.8c0,3.301,0.3,5.9,1.1,8.101c1.5,4.7,4.5,7,9,7c0.2,0,0.2-0.101,0.4-0.101
	c0.9,2.4,1.9,5.301,2.8,8.801c2,4.199,5.8,6.3,11.3,6.3c0.5,0,3.2-0.4,8.2-1.601c0.2,0.5,0.4,1.2,0.6,1.801
	c0.6,1.699,1.2,3.199,2.1,4.199c2.6,3.301,7.1,5,13.5,5c0.8,0,2.8-0.399,5.8-1.199c3.1-0.7,5.9-1,8.3-1c0.2,0,1.5,0.199,3.7,0.699
	c2.1,0.601,5,0.9,8.7,0.9c3.6,0,6.8-1.6,9.3-4.8c2-2.4,3-4.4,3-6.101c-0.2-2.199-0.4-3.899-0.5-5c-0.2-0.699-0.4-1.199-0.7-1.699
	c1.2-2.2,3.5-5.801,7-10.801c0.5,0.601,1.199,1.301,2,2.301c2,2.1,4.1,4.199,6.5,6.199c3.1,2.5,5.899,4.5,8.5,6l0,0
	c0,0.4,0.5,1.7,1.6,3.801c1.1,2.199,1.6,4.199,1.6,5.699c0,0.5-0.1,1.601-0.5,3.5c0.101,1.2,0.301,2,0.5,2.5
	c-0.6,0.601-1.5,1.4-2.6,2.4c-1.8,1.9-2.7,4.8-2.7,8.6c0,1.5,1,2.7,3,3.801c2.601,1.399,6.3,2,11.3,2c0.5,0,1.4-0.2,2.4-0.5
	c0-0.101,0.1-0.101,0.2-0.101c0.1,1.601,1,3.101,2.7,4.3c3.6,2.5,10.199,3.7,20.1,3.7c5.3,0,8.8-2,10.3-5.899c0,0,0,0,0.101,0
	c0.5,0.3,1.399,0.3,2.6,0.3c2.4,0,4.4-1,6.2-3c1.899-2.101,2.8-4.4,2.8-6.9c0-1.5-0.5-2.8-1.7-3.7c-1.2-0.8-1.8-1.8-1.8-3.199
	c0-0.9,0.5-3.301,1.6-7.2c1.2-4,1.9-6.601,2.2-7.5c2.4-9.5,3.7-14.4,3.7-14.8c0-0.7-0.1-1.101-0.2-1.301
	c3.2-4.199,5.8-10.399,8-18.399c2.3-8.3,3.4-15.9,3.4-22.7c0-4.6-0.601-10.3-1.8-17C185.3,64.1,184,58.8,182.3,55.3
	c-2.1-4.7-3.3-7.5-3.699-8.4c-1.2-2.3-2.4-4.4-3.601-6.3c-0.5-0.7-0.899-1.3-1.3-1.8c-0.4-0.6-0.7-1-1-1.5c0.1,0.3,0.7,0.6,1.6,1.1
	c0.7,0.4,1.4,0.7,1.801,0.8c0,0.4,0.1,0.6,0.1,0.6c2.4-0.2,4.2-1.5,5.7-4c1.1-2,1.7-3.7,1.7-5.3c0-1.4-0.4-1.9-1.101-1.8
	c-0.399,0.1-1.3,0.6-2.8,1.4c0,0,0.1-0.2,0.1-0.3c0.601-0.9,0.9-1.7,0.9-2.3c0-2.4-0.9-3-2.5-2c-0.7,0.3-1.4,0.8-2,1.4
	c0-0.1,0-0.2,0.1-0.3C177.101,24.9,177.5,23.8,177.5,23.1z M175.8,19.4v3.1c0,0.5-0.399,1.6-1.199,3.5c-0.2,0.4-0.301,0.7-0.4,1
	c-0.4,1.1-0.6,1.9-0.6,2.2s0,0.4,0.1,0.5c0,0.1,0.1,0.1,0.4,0.1c0.399-0.2,1-0.9,1.6-2c0,0,0.1,0,0.1-0.1c1-0.1,2.2-0.4,3.5-0.9v0.1
	c-0.1,0.4-0.5,1.2-1.1,2.4c-0.7,1.3-1,2-1,2l0.7,0.8c0.399-0.3,0.8-0.8,1.3-1.2l0,0c0.1,0,0.6-0.1,1.5-0.4c0.5-0.2,1-0.4,1.3-0.5
	v0.3c-0.7,3.4-1.8,5.8-3.6,7.3c-0.2,0.2-0.4,0.5-0.7,0.6c0-0.1,0-0.1,0-0.1c-0.1-0.3-0.5-0.5-0.9-0.8c-0.399,0.2-1.3,0-2.699-0.5
	c-1.101-0.3-1.601-0.2-1.601,0.3l0,0c-0.7-1-1.3-1.8-1.899-2.5c-0.801-1-1.601-1.9-2.4-2.7c1.9-0.8,3.5-2.6,5-5.3
	C174.601,22.3,175.5,19.9,175.8,19.4z M50.8,34c-0.9,0.3-1.7,0.4-2.3,0.4c-3.4,0-6.9-1.5-10.2-4.5c-0.3-0.3-0.6-0.6-1-0.9
	c-3-3.1-4.5-5.2-4.5-6.7c0-0.3,0.2-1.2,0.6-3c0.4-1.7,0.7-3.3,0.7-4.8c0-0.9-0.2-2.4-0.5-4.3c-0.4-2-0.5-3.4-0.6-4.3
	c1.6,0.9,5.2,3.5,11,7.8c1.8,1.4,5.3,2.9,10.3,4.4l6.3,1.6c-0.2,0.4-0.4,0.8-0.5,1.1c-0.3,0.6-0.8,2.1-1.7,4.6c0,0.1,0,0.1,0,0.1
	c-0.1,0.1-0.1,0.3-0.2,0.6c-0.5,1.6-1.1,4.1-1.9,7.5c-0.3,0-0.5,0-0.8,0C53.4,33.6,51.8,33.8,50.8,34z M7,31.6c0.1,0,0.3,0,0.5,0.2
	c0.5,1.5,1.6,4.8,3.1,9.7c0.6,1.4,1.1,2.8,1.7,4.1c0,0,0,0.1,0,0.2c1.5,3.8,3.1,7.3,4.8,10.3c6.5,11.5,14,17.7,22.7,18.7
	c0.7,0,1.5,0.1,2.3,0.1c0.7-0.1,1.5-0.3,2.2-0.4c1.5-0.4,3.1-0.6,5.1-0.6C49.7,74,50,74,50.2,74c-0.1,0.1-0.1,0.2-0.1,0.3
	c0,0.3,1,1.8,2.7,4.5c1.8,3,2.8,5.9,2.8,8.5c0,4.8-1.6,9-4.9,12.8c-3.7,4.399-8.8,6.6-15.2,6.6c-13.4,0-22.7-5-27.9-14.9
	c-4-7.7-6.1-20-6.1-36.5c0.1-4,0.5-8,1.1-11.9C3.6,35.5,5.1,31.6,7,31.6z M46.4,60.4c0,0.1,0,0.2,0.1,0.3c-0.2-0.1-0.2-0.1-0.4-0.2
	C46.2,60.5,46.3,60.5,46.4,60.4z M43.4,57.3l0.2,0.9c-0.2-0.3-0.3-0.4-0.3-0.6C43.3,57.5,43.3,57.4,43.4,57.3z"/>
<path fill="#BFBFBF" d="M175.8,22.5v-3.1c-0.3,0.5-1.199,2.9-2.6,7.2c-1.5,2.7-3.1,4.5-5,5.3c0.8,0.8,1.6,1.7,2.4,2.7
	c0.6,0.7,1.199,1.5,1.899,2.5l0,0c0-0.5,0.5-0.6,1.601-0.3c1.399,0.5,2.3,0.7,2.699,0.5c0.4,0.3,0.801,0.5,0.9,0.8c0,0,0,0,0,0.1
	c0.3-0.1,0.5-0.4,0.7-0.6c1.8-1.5,2.899-3.9,3.6-7.3V30c-0.3,0.1-0.8,0.3-1.3,0.5c-0.9,0.3-1.4,0.4-1.5,0.4l0,0
	c-0.5,0.4-0.9,0.9-1.3,1.2l-0.7-0.8c0,0,0.3-0.7,1-2c0.6-1.2,1-2,1.1-2.4v-0.1c-1.3,0.5-2.5,0.8-3.5,0.9c0,0.1-0.1,0.1-0.1,0.1
	c-0.6,1.1-1.2,1.8-1.6,2c-0.301,0-0.4,0-0.4-0.1c-0.1-0.1-0.1-0.2-0.1-0.5s0.199-1.1,0.6-2.2c0.1-0.3,0.2-0.6,0.4-1
	C175.4,24.1,175.8,23,175.8,22.5z"/>
<path fill="#BFBFBF" d="M38.6,29.5l-0.3,0.4c3.3,3,6.8,4.5,10.2,4.5c0.6,0,1.4-0.1,2.3-0.4c1-0.2,2.6-0.4,4.7-0.4c0.3,0,0.5,0,0.8,0
	c0.8-3.4,1.4-5.9,1.9-7.5c0.1-0.3,0.1-0.5,0.2-0.6l-0.3,0.6c-2.5-0.9-8.1-3.5-17-7.6c-0.5,0-2,2.8-4.3,8.4
	C37.6,28,38.1,28.8,38.6,29.5z"/>
<path fill="#A2A2A2" d="M38.3,29.9l0.3-0.4c-0.5-0.7-1-1.5-1.8-2.6c2.3-5.6,3.8-8.4,4.3-8.4c8.9,4.1,14.5,6.7,17,7.6l0.3-0.6
	c0,0,0,0,0-0.1c0.9-2.5,1.4-4,1.7-4.6c0.1-0.3,0.3-0.7,0.5-1.1l-6.3-1.6c-5-1.5-8.5-3-10.3-4.4c-5.8-4.3-9.4-6.9-11-7.8
	c0.1,0.9,0.2,2.3,0.6,4.3c0.3,1.9,0.5,3.4,0.5,4.3c0,1.5-0.3,3.1-0.7,4.8c-0.4,1.8-0.6,2.7-0.6,3c0,1.5,1.5,3.6,4.5,6.7
	C37.7,29.3,38,29.6,38.3,29.9z"/>
<path fill="#A59F8A" d="M7.5,31.8c-0.2-0.2-0.4-0.2-0.5-0.2c-1.9,0-3.4,3.9-4.4,11.8c-0.6,3.9-1,7.9-1.1,11.9
	c0,16.5,2.1,28.8,6.1,36.5c5.2,9.9,14.5,14.9,27.9,14.9c6.4,0,11.5-2.2,15.2-6.6c3.3-3.801,4.9-8,4.9-12.8c0-2.6-1-5.5-2.8-8.5
	c-1.7-2.7-2.7-4.2-2.7-4.5c0-0.1,0-0.2,0.1-0.3c-0.2,0-0.5,0-0.8-0.1c-2,0-3.6,0.2-5.1,0.6c-0.7,0.1-1.5,0.3-2.2,0.4
	c-0.8,0-1.6-0.1-2.3-0.1c1.8,0.3,3.6,2,5.3,5c1.3,2.5,2,4.7,2,6.5c0,3.3-1.8,6.3-5.3,8.8C38.7,97.3,36,98.5,33.7,98.5
	c-6.1,0-11.9-3.2-17.4-9.7c-6.5-7.9-9.7-18.2-9.7-31c0-2.6,0.4-5.2,1-7.8c0.9-3.2,2-4.9,3.5-4.9c0.2,0,0.5,0.2,0.8,0.3
	c0.1,0.1,0.2,0.1,0.4,0.2c-0.6-1.3-1.1-2.7-1.7-4.1C9.1,36.6,8,33.3,7.5,31.8z"/>
<path fill="#D9D9D9" d="M12.3,45.6c-0.2-0.1-0.3-0.1-0.4-0.2c-0.3-0.1-0.6-0.3-0.8-0.3l1.2,0.7C12.3,45.7,12.3,45.6,12.3,45.6z"/>
<path fill="#BFB9A6" d="M12.3,45.8l-1.2-0.7c-1.5,0-2.6,1.7-3.5,4.9c-0.6,2.6-1,5.2-1,7.8c0,12.8,3.2,23.1,9.7,31
	c5.5,6.5,11.3,9.7,17.4,9.7c2.3,0,5-1.2,8.1-3.399c3.5-2.5,5.3-5.5,5.3-8.8c0-1.8-0.7-4-2-6.5c-1.7-3-3.5-4.7-5.3-5
	c-8.7-1-16.2-7.2-22.7-18.7C15.4,53.1,13.8,49.6,12.3,45.8z"/>
<path fill="#A2A2A2" d="M165.601,32.5c-0.7,0-0.9-0.4-0.801-0.9c-2-1.8-3.6-2.8-5.1-2.8c-0.9,0-2,0.5-3.5,1.5s-2.4,1.5-2.6,1.5
	c-1.4,0-2.301-0.2-3-0.7c-0.4,1.5-1.2,2.8-2.4,4c0,0,0,0,0,0.1s0,0.1,0,0.1c1,2,1.8,3.2,2.2,3.5c0.6,0.5,1.7,0.7,3.399,0.7
	c0.801,0,1.801-0.6,2.9-1.8c1.3-1.1,2.2-1.8,2.9-1.8c5,0,11,6.4,18,19c2.5,4.6,4.6,8.9,6.1,12.7c-0.9-4.1-1.6-7.4-2.5-9.7
	c-2.2-6-5.5-12.2-9.9-18.5c-2-2.9-3.899-5.3-5.6-6.9C165.7,32.5,165.7,32.5,165.601,32.5z"/>
<path fill="#BFBFBF" d="M184.601,72.4c-0.301-1.7-0.601-3.3-0.9-4.8c-1.5-3.8-3.6-8.1-6.1-12.7c-7-12.6-13-19-18-19
	c-0.7,0-1.601,0.7-2.9,1.8c-1.1,1.2-2.1,1.8-2.9,1.8c-1.699,0-2.8-0.2-3.399-0.7c-0.4-0.3-1.2-1.5-2.2-3.5c-2,2-4.7,4-8,6
	c-6.1,3.7-12.2,5.5-18.3,5.5c-1.3,0-2.2-0.2-2.8-0.5c-0.7-0.4-0.9-0.7-1-1.3c-0.301-0.2-0.101-0.2,0.3-0.2c0.2,0,0.7,0.1,1.399,0.3
	c0.601,0.2,1.101,0.3,1.4,0.3c5,0,10.8-1.9,17-5.8c2.1-1.2,3.9-2.3,5.2-3.4c0.3-0.4,0.6-0.9,0.7-1.3c0.5-1.1,0.699-2.1,0.699-3
	c0-2.3-0.199-4.3-0.699-6c-0.801-2.6-2.101-3.8-3.9-3.8c-1,0-3.2,0.6-6.9,1.8c-4.1,1.6-6.1,2.2-6.1,2.2c-4.5,1-6.8,1.6-7,1.7
	c-1.8,0.6-2.9,1.7-3.4,3.3c-0.699-0.8-1.1-1.5-1.199-1.8c0,0.1-0.101,0.2-0.301,0.2c-0.1,0.3-0.1,0.6-0.199,1
	c0.1,0.4,0.3,0.8,0.5,1.3c0,0.3-0.2,0.7-0.7,0.8c-0.2,0-0.3,0-0.601,0c-0.699,0-1.399-0.6-1.899-1.7c-0.2-1.1-0.4-1.7-0.4-1.8
	c0-2.2,0.2-3.8,0.4-4.8c0.5-2.2,1.6-2.5,3.3-1.1c0.2-0.4,0.6-0.7,1.1-0.9c0.7-0.3,2.301-0.4,4.801-0.5c3.399,0,6.6-0.5,9.5-1.3
	c-1.801-1.1-5.101-3.6-10.2-7.6c-5.7-4.4-9.8-6.8-12.2-6.8c-1.9,0-3.7,0.7-5.7,2.1c-2.8,1.9-4.8,3.3-6.1,3.9c1.2,0,2.5,0,3.8,0
	c1.5,0,2.6,1.5,3.4,4.2c0.3,1.3,0.5,2.8,0.699,4.2c0,0.2-0.1,0.4-0.199,0.6c0,0,0,0.2-0.101,0.2l-0.2,0.1c0-0.1-0.1-0.1-0.199-0.3
	c-0.301,0-0.5,0.1-0.5,0.5h-0.5c0,1.1,0.199,2.5,0.699,4.5c0.7,2.3,1,3.8,1,4.7l-0.8,0.4c-2.7-4.7-4.6-7.8-5.899-9.2
	c-3-3.2-6.9-4.8-11.8-4.8c-3.7,0-8,0.6-13,1.8c-6,1.5-9.5,3.1-10.2,5.1c-1.3,3.2-2.1,7.2-2.7,12.5c-0.6,6-1,9.9-1.1,11.3
	c0.8,0.4,1.5,0.6,2.2,0.6c0.1,0,0.2,0,0.3,0h0.1c-0.1-0.1-0.1-0.2-0.1-0.5c0-0.7,0.4-1.4,1.3-1.9c0.9-0.6,1.9-0.8,3-0.8
	c0.5,0.1,1,0.2,1.5,0.4c0,0.1,0.2,0.1,0.3,0.1c1.6,1,2.4,3,2.4,6c0,2-0.7,4.7-2.2,8c-2.2,4.8-5.2,7.1-8.9,7.1
	c-1.4,0-2.5-0.3-3.1-1.1c-0.5-0.3-0.7-0.8-0.7-1.3c0.1-0.1,0.2-0.2,0.3-0.3h-0.1c-1,0-1.9-0.6-2.7-2c-0.8-1.3-1.4-3.3-2-6.1
	l-0.3-2.5c-0.2,0.3-0.4,0.6-0.6,1c-0.7,1-1.2,1.5-1.6,1.5h-0.5c0,1,0.1,1.6,0.2,2c0.1,0.5,0.2,1,0.2,1.5c0,0.3,0.5,1.1,1.5,2.3
	c0.5,0.7,0.8,1.2,1,1.7c0.3,0.4,0.5,0.7,0.5,1v0.5l-0.2,0.2c-0.2,0-0.4,0.1-0.7,0.1c-0.1,0-0.1,0-0.3,0c-0.1,0.8-0.5,1.9-1.2,3.2
	c-0.8,1.6-1.4,2.5-1.8,2.5c-0.7,0-1.4-0.5-2.3-1.3c-0.4,0.1-0.7,0.2-1,0.2c-1.1,0-2-0.4-2.7-1.1c-0.1,0.2-0.3,0.6-0.6,1
	c-0.5,0.9-0.9,1.4-1.1,1.6h-0.6l-0.2,0.9c1.2,0.2,2.3,0.3,3.5,0.3c1.2-0.2,2.2-0.4,3.2-0.6c0.7-0.2,1.3-0.2,1.8-0.3
	c0.1,0,0.1,0,0.1,0c0.6,0,1.1-0.1,1.4-0.1c1.2,0,2.2,0.2,2.7,0.8c0.4,0.3,0.5,0.6,0.5,0.8c0,0.1,0,0.2,0,0.3c2.8,0.4,4.6,3.1,5.5,8
	c0.5,2.9,0.8,5.7,0.6,8.9c0,3-1.3,6.3-4,10.101c-3.8,5-9.1,7.899-15.9,8.3c-0.1,0-0.2,0-0.2,0c0,0.2-0.1,0.2-0.2,0.399
	c0.4-0.1,1,0.2,2,0.801c0,0.1,0,0.199,0.1,0.199c6.6,0.5,12.4-1.8,17.2-7.199c1.2-1.301,2.3-2.801,3.2-4.101
	c0.9-0.399,2.2-1.1,3.8-1.7c1.7-0.699,2.9-1.199,3.9-1.199c2.4,0,5.2,1.199,8.3,3.399c3.5,2.4,5.2,4.8,5.2,7.3
	c0,0.7-0.2,1.2-0.7,1.7c-0.4,0.4-1,0.4-2,0.2c0-0.1,0-0.2,0-0.4c0-0.399-0.5-0.8-1.5-1.399c-1-0.4-1.8-0.8-2.7-0.8
	c-2,0-3.8,0.699-5.4,2c-0.8,0.699-2.1,2-3.8,4.199c-3.3,4.2-7.1,6.2-11.2,6.2c-1.2,0-4.4-1.2-9.9-3.399
	c-5.5-2.301-10.1-3.5-13.8-3.5c-0.8,0-2.2,0.199-4.3,0.899c-1.9,0.601-2.9,0.9-3.2,1.101l-0.7,0.199c0.1,0.301,0.2,0.7,0.2,1
	c0,0.101,0,0.301-0.1,0.601c-0.1,0-0.1,0.1-0.2,0.2c0,0-0.2,0-0.5,0l-3.9-5.4c-3-3.6-5.3-5.4-7.2-5.4c-2,0-3.4,1.5-4.6,4.801
	c-0.5,1.699-1,3.399-1.2,5.1c0,0.8,0.2,1.9,0.4,3.2l0,0c0.1,0.399,0.1,0.899,0.2,1.399c0.4,2.4,0.6,3.9,0.6,4.5c0.2,1.5,1.2,3,3,4.7
	c1.2,0.9,2.5,1.8,3.9,2.601c-0.4-0.801-0.6-1.4-1-2c1.8,0.8,3.1,2.199,3.7,4.199c0.4,1.2,0.8,3,1.2,5.5c1,4.601,4.7,6.801,11,6.801
	c3.5-0.601,6.9-1.301,10.4-2c6.8-1.4,10.8-2,12.1-2c3.7,0,9.5,0.6,17.1,2c9.1,1.5,13.8,3.199,13.8,5c0,0.3-0.4,0.699-0.9,0.899
	c-0.6,0-1.5-0.2-2.8-0.6c-0.2-0.101-0.5-0.101-0.7-0.2c-0.4-0.1-0.8-0.4-1.3-0.5c-1.2-0.4-2.2-0.7-3-1l-0.2,0.5
	c-0.8,0-2.1,0.1-4,0.4c-2,0.199-3.4,0.399-4.4,0.399c-1.2,0-3.4-0.3-6.6-0.8c-3.3-0.5-5.7-0.8-7.3-0.8c-1.5,0-2.7,0.2-3.5,0.6
	c-1.1,0.5-1.7,1.601-1.7,3.101c0,0.6,0.2,1.3,0.5,2.199c0.5,0.801,0.9,1.4,1.2,1.801c1.7,0.5,3.5,0.8,5.7,0.8
	c0.3,0,2.1-0.3,5.6-1.101c3.3-0.699,6.2-1,8.7-1c0.5,0,1.8,0.2,3.8,0.5c2,0.5,4,0.7,5.7,0.7c4.9,0,8.6-1.7,11-4.899
	c1.6-2,2.4-3.7,2.4-5.2c0-1.101-0.2-2.3-0.7-3.5c-0.7-1.8-1.7-2.601-2.9-2.7c0,0.3,0,0.3,0-0.3c0-1.2,0.4-1.7,1.2-1.3
	c-0.8-0.5-1.4-0.801-1.8-1c-0.8-0.301-1.2-0.801-1.2-1.5c0-0.5,3.6-3.9,10.8-10.301c2.5-2.199,4.5-4,5.7-5.5l0.101,0.9
	c0.2-0.1,0.2-0.4,0.399-0.6c0.801-1.101,1.4-2.301,2-3.5c6.4-11.301,9.4-22.601,9.4-34c0-1.3-0.1-3.7-0.5-7.1
	c-0.1-0.7-0.3-1.9-0.5-3.9c-0.4-2-0.5-3-0.5-3.2c0-1.9,0.1-3.3,0.5-4.3c-0.6-0.7-0.9-1-0.9-1.3c0-1.2,0.601-1.2,1.9-0.2
	c1.2,1,1.8,2.2,1.8,3.3c0,0.4,0,0.5-0.1,0.5c-0.2-0.1-0.5-0.3-0.7-0.4c0.9,2.6,2,6.6,3.1,11.9c1.4,6.2,2.101,11,2.101,14.5
	c0,6.2-1.7,13.2-5,20.899c-0.8,2-2,4.5-3.4,7.7c-1.1,2.4-1.6,4.2-1.6,5.4c0,2.5,1.899,6.3,5.7,11.3c2.699,3.7,5.1,6.2,7,7.3
	c0.3,0.101,0.6,0.3,1,0.5c0.1,0.101,0.199,0.101,0.3,0.2c0.7,0.3,1.2,0.6,1.7,0.8l0.1,0.101l-2.5,0.199c-1.7,0-3.6-0.5-5.8-1.5
	c0.3,0.601,0.7,1.4,1,2.301c1.1,2.699,1.6,4.8,1.6,6.199c0,0.601-0.1,1.2-0.1,1.9c-0.101,0.7-0.2,1.6-0.2,2.5c0.9-0.9,1.5-1.9,2.1-3
	c0.101,1,0.301,1.6,0.301,1.8c0,1.601-0.4,2.8-1.101,3.7c-0.3,0.4-1.1,0.9-2.3,1.8c-2.4,1.601-3.5,4.3-3.5,8.101
	c0,1.1,1.3,2,4,2.699c1.3,0.301,2.7,0.601,4.3,0.801c0-0.101,0-0.2,0-0.301c0-2.199,1.101-4.699,3.2-7.6s3.2-4.9,3.2-6.1
	c0-0.4-0.2-1.801-0.601-4.2c-0.5-2.4-0.6-4.3-0.6-5.601c0-1.199,0-1.899,0-2c0.1-0.399,0.4-0.5,0.8-0.6c-0.2-0.1-0.3-0.2-0.3-0.3
	c-0.1,0.2-0.1,0.1-0.1-0.3c0-0.4,0.699-0.801,2.1-1.2c0.1-0.101,0.1-0.101,0.2-0.101c1.6-0.399,2.7-0.399,3.3,0
	c-0.2,0.5-0.8,1-1.6,1.301c-0.4,0.199-0.7,0.3-0.9,0.399c0,0.101,0,0.101,0,0.101c0.5,1.5,1,3.5,1.4,5.8
	c0.399,1.899,1,3.8,1.699,5.7c0.4,1,0.5,2.5,0.5,4.5v0.5c1.4-0.801,2.4-1.2,3.301-1.2l0.399,0.1c0.101,0,0.2,0.101,0.2,0.101
	s0,0.199,0,0.5c0,0.199-1,1.1-3.1,2.5c-2.4,1.5-3.601,2.399-3.9,2.699c0,0.301-0.2,1.301-0.6,3.2c-0.301,1.9-0.4,3-0.4,3.5
	c0,1.3,1.2,2.5,3.7,3.7c3.8,1.8,9.5,2.7,17.3,2.7c3.5,0,6.2-0.8,7.7-2.5c1.399-1.4,2.1-3.8,2.1-6.9c0-0.8-0.899-2-2.7-3.7
	c-1.8-1.699-2.699-3.5-2.699-5.5c0-3.1,0.399-6.3,1.1-9.5c1-3.6,2.1-6.8,3.7-9.6c1.7-2.8,2.899-6,3.8-9.9c0.5-2.8,1-5,1.5-6.699
	c0.1-1,0.4-1.801,0.5-2.301h-0.6c-0.101-3.199-0.301-5.699-0.7-7.3c-0.3-1.7-1-3.6-2.2-5.7c3,0.101,6.4-2.5,10.3-7.699
	c3.2-4.2,5.101-8.301,5.7-12.101l0.9,0.1c0.399,2.3,0.6,4.3,0.6,6c0,7-0.8,13-2.4,18.199c-1.6,5.2-4.1,10-7.6,14.7v0.601
	c0.7-0.301,1-0.101,1,0.399c0,0.3,0,0.8-0.3,1.101c-0.101,0.199-0.2,0.5-0.3,0.699c-0.4,0.4-0.9,0.801-1.601,1.4l1,0.3
	c-1,2.8-2.3,6.7-4.3,11.4c-2,5.8-3,10.6-3,14.399c0,2.601,0.6,4.301,1.6,5.101c1,0.7,1.5,1.5,1.5,2.399c0,0.4-0.1,1.101-0.5,2.2
	c-0.3,1.101-0.5,1.601-0.5,1.9c0,1.2,0.4,1.899,1.2,2c0-0.101,0.101-0.101,0.101-0.101c0.399-0.3,0.8-0.399,1.199-0.699
	c2.801-1.7,4.2-4.101,4.2-7.301c0,0-0.6-0.5-1.7-1.5c-1.1-1-1.6-2-1.6-3s0.5-4,1.6-8.8c1.2-4.899,1.9-7.7,1.9-8.3
	c0.8-4.4,2-8.4,3.3-12.1c0.2-0.4,0.3-0.801,0.5-1.101c-0.1-0.1-0.1-0.2-0.2-0.2c-0.1-0.1-0.1-0.3-0.1-0.6c0-0.6,0.5-2.1,1.7-4.7
	c1.8-3.8,3.1-6.7,3.8-8.899c3.8-9.601,5.6-19.101,5.6-28.5C186.3,84.5,185.8,79.1,184.601,72.4z M51.6,72.1c-0.1,0-0.2-0.2-0.3-0.2
	c0.5-0.6,1-0.8,1.9-0.6c0.7,0.2,1.2,0.5,1.6,0.9c3.4,1.4,5.6,3.5,6.8,6.4c0.6,1.6,1.2,4.2,1.7,7.5l0,0c-0.1,0.1-0.2,0.2-0.3,0.2
	c-0.1,0-0.1,0-0.1-0.1c-0.9-1.6-2-4.1-3.3-7.3c-1.3-2.7-2.8-4.8-4.8-6.3l0,0c0,0-0.2,0-0.5,0h-1.2C52.4,72.6,51.9,72.4,51.6,72.1z
	 M112,41.3v-0.9c0.9,0.1,1.7,1.1,2.2,3.1c0.6,1.8,2.1,2.8,4.7,3c0.5,0.3,0.8,0.6,0.8,0.7c0,0.7-1,1.2-3,1.2c-1.5,0-2.7-1.2-3.7-3.6
	C112.3,42.5,112,41.3,112,41.3z M101.3,50.1c1.2,0,2.301,0.7,3.2,2c0.601,1,0.9,1.8,0.9,2.3s0,0.9-0.101,1.2
	c0,0.1-0.1,0.2-0.199,0.5l0,0l0.5,0.4c0.199,0,0.699,0.1,1.699,0.4c0.9,0.2,1.4,0.4,1.601,0.6c-1.2,1.6-2.7,2.9-4.3,4.1
	c-1.2,0.9-2.9,1.8-5,2.9c-0.101,0-0.101,0-0.101,0.1h0.101c0,0.2,0.1,0.3,0.1,0.5c0,0.1-0.1,0.2-0.2,0.4c-0.399,0.3-1.7,1.1-3.7,2.1
	c0.5,0.2,0.601,0.5,0.601,1.2c0,0.4-0.101,0.8-0.3,1.2C96,70.1,96,70.1,95.9,70.3c1.8-0.7,3.399-1.1,4.7-1.4c0,0,0,0,0.1,0
	c0.6-0.1,1.1-0.1,1.6-0.1l0,0h0.101c0.399,0,1.2-0.2,2.399-0.4c1.4-0.3,2.4-0.5,3.101-0.5c0.8,0,1.3,0.7,1.3,1.7
	c0,0.3-0.1,1.5-0.5,3.4c-0.3,1.5-0.5,2.8-0.6,3.9v-0.1c0.1,0,0.1,0,0.1,0c0.1,0,0.1,0.1,0.1,0.4s0,0.6-0.1,1.1
	c-0.4,1-1.1,2.4-2.2,4.2c-1.899,2.8-3.7,4.2-5.399,4.2c-4.9,0-8.3-1.4-10.101-4.1c-0.9-1.5-1.6-3.2-1.9-5.3c0.1,0,0.1-0.2,0.1-0.2
	c0.1-0.1,0.2-0.2,0.5-0.2c0.1,0,0.2,0.1,0.4,0.2c-0.3-0.3-0.6-0.6-1-1c-0.3-0.5-0.8-0.8-1.2-1c0.2-0.6,0.7-1.2,1.9-1.6
	c0.2-0.2,0.6-0.4,1.1-0.6v-0.1c0-0.1,0-0.1,0-0.1c0.2-0.4,1.6-1.1,4-1.9l-0.6-0.2c-0.2-1-0.3-1.5-0.3-2c-2.2,1-3.4,1.5-3.7,1.5
	c0,0-0.1,0-0.2,0l0,0c-0.3,0-0.5-0.2-0.7-0.4c-0.1-0.1-0.1-0.2-0.1-0.5c0-0.2,0.3-0.4,0.8-0.8c-1.2-0.4-2.8-0.8-4.6-1.1
	c-1.5-0.5-2.2-1.7-2.2-3.5c0-0.9,1-1.7,3.2-2.2c1.1-0.3,2-0.4,2.6-0.5c-0.2-0.4-0.4-0.9-0.5-1.4c0-1.6-0.1-2.5-0.1-2.6
	c0-0.6,0.3-1,0.8-0.9c0.3,0.1,0.5,0.3,0.8,0.4c0.4-0.2,1.2-0.5,2.4-0.9c2.3-0.6,3.7-1.3,4.3-1.9c0.801-1.2,1.5-2,1.9-2.5
	C99,50.6,100,50.1,101.3,50.1z M79.8,113.3c0,0.801-0.2,1.601-0.7,2.2c-0.3-0.2-0.7-1-1.1-2.7c-0.4-1.3-0.9-2-1.9-2
	c-2.3,0-5,2-8.2,5.9c-0.6,0.9-1.4,1.9-2.1,2.8c-0.7,0.8-1.4,1.8-2,2.8c-0.1,0.2-0.1,0.2-0.2,0.2c-0.3,0.5-0.8,1.101-1.2,1.601
	c1.2-2.301,1.9-4,2.7-5.2c1.1-2.101,2.5-3.9,4-5.601c2.7-2.8,5.2-4.199,7.5-4.199c0.6,0.1,1.1,0.199,1.5,0.5
	C79.3,110.101,79.8,111.3,79.8,113.3z M135,168.8c0.2-0.6,0.4-1,0.601-1.3c1.1,0.101,3.199,0.601,6.5,1.4c4,1.2,6.1,2.2,6.1,3
	c0,0.7-0.2,1.7-0.5,3c-0.2,0.6-0.5,1.6-0.9,2.8c-8.3-2.6-12.5-4.4-12.5-5.4C134.3,171.2,134.5,170,135,168.8z M70.2,118.601
	c1.8-1.7,3.2-2.5,4.4-2.5c1.4-0.101,2,1,2,3.199c0,0-0.3,1.5-1,4.301c-1,2.699-2,4.1-3.3,4.1c-0.5,0-0.9-0.2-1.3-0.8
	c-0.4-0.4-0.7-0.8-0.7-0.8c-1,0-2,1-2.9,2.8c-0.4,0.899-0.8,1.8-1.3,2.7c-1.2,0-2-0.5-2.2-1.301c-0.1-0.1-0.1-0.5-0.1-1.199
	c0-1.301,0.6-3,2-5.2l0,0c0.6-1,1.3-1.9,2-2.8C68.6,120.3,69.4,119.4,70.2,118.601z M10.7,124.101c-1.6,0-2.9-1-3.9-3.2
	C6.3,118.8,6.1,117.8,6.1,117.8c0-2.899,0.7-4.5,2.2-5.199c1.7-0.601,3.4,0.3,5.3,2.8c0.8,1.399,1.4,2.899,1.8,4.7
	c0.4,1.699,0.7,3.3,0.7,4.8c0,0.899,0,1.399,0,1.6c-0.1,0.7-0.3,1.101-0.7,1.101c-1,0-1.8-0.7-2.4-2c-0.3-0.4-0.6-1.101-1-2.301
	c-0.1,0-0.2,0.2-0.4,0.5C11.4,124,11.1,124.101,10.7,124.101z"/>
<path fill="#333333" d="M51.3,71.9c0.1,0,0.2,0.2,0.3,0.2c0.3,0.3,0.8,0.5,1.5,0.5h1.2c0.3,0,0.5,0,0.5,0l0,0c2,1.5,3.5,3.6,4.8,6.3
	c1.3,3.2,2.4,5.7,3.3,7.3c0,0.1,0,0.1,0.1,0.1c0.1,0,0.2-0.1,0.3-0.2l0,0c-0.5-3.3-1.1-5.9-1.7-7.5c-1.2-2.9-3.4-5-6.8-6.4
	c-0.4-0.4-0.9-0.7-1.6-0.9C52.3,71.1,51.8,71.3,51.3,71.9z"/>
<path fill="#333333" d="M112,40.4v0.9c0,0,0.3,1.2,1,3.5c1,2.4,2.2,3.6,3.7,3.6c2,0,3-0.5,3-1.2c0-0.1-0.3-0.4-0.8-0.7
	c-2.601-0.2-4.101-1.2-4.7-3C113.7,41.5,112.9,40.5,112,40.4z"/>
<path fill="#333333" d="M104.5,52.1c-0.899-1.3-2-2-3.2-2c-1.3,0-2.3,0.5-3.1,1.2c-0.4,0.5-1.1,1.3-1.9,2.5c-0.6,0.6-2,1.3-4.3,1.9
	c-1.2,0.4-2,0.7-2.4,0.9c-0.3-0.1-0.5-0.3-0.8-0.4c-0.5-0.1-0.8,0.3-0.8,0.9c0,0.1,0.1,1,0.1,2.6c0.1,0.5,0.3,1,0.5,1.4
	c0.5,0.6,1.2,1,2.2,1c2.5,0,5-0.7,7.8-2.1c2.699-1.4,4.5-2.1,5.199-2.1c0.301,0,0.4,0.2,0.5,0.4c0.101,0.2,0.301,0.3,0.5,0.3
	c0.301,0,0.5,0,0.5-0.1c0-0.2,0-0.3,0-0.3v-0.7l-0.199-0.6c-0.301-0.2-0.7-0.3-1.301-0.4c0.301-0.2,0.5-0.4,0.601-0.6
	c0.2,0.4,0.2,0.7,0.399,0.7c0-0.1,0.2-0.3,0.301-0.5l0,0c0.1-0.3,0.199-0.4,0.199-0.5c0.101-0.3,0.101-0.7,0.101-1.2
	S105.101,53.1,104.5,52.1z"/>
<path fill="#919191" d="M104.3,58.3c-0.1-0.2-0.199-0.4-0.5-0.4c-0.699,0-2.5,0.7-5.199,2.1c-2.801,1.4-5.3,2.1-7.8,2.1
	c-1,0-1.7-0.4-2.2-1c-0.6,0.1-1.5,0.2-2.6,0.5c-2.2,0.5-3.2,1.3-3.2,2.2c0,1.8,0.7,3,2.2,3.5c1.8,0.3,3.4,0.7,4.6,1.1
	c0.1-0.1,0.2-0.1,0.2-0.1c0.6-0.4,1.4-0.7,2.4-1.2c1.9-0.9,4.2-1.7,7-2.5c0.1,0,0.1,0,0.2-0.1l0.1,0.1c0-0.1,0-0.1,0.101-0.1
	c2.1-1.1,3.8-2,5-2.9c1.6-1.2,3.1-2.5,4.3-4.1c-0.2-0.2-0.7-0.4-1.601-0.6c-1-0.3-1.5-0.4-1.699-0.4l-0.5-0.4
	c-0.101,0.2-0.301,0.4-0.301,0.5c-0.199,0-0.199-0.3-0.399-0.7c-0.101,0.2-0.3,0.4-0.601,0.6c0.601,0.1,1,0.2,1.301,0.4l0.199,0.6
	v0.7c0,0,0,0.1,0,0.3c0,0.1-0.199,0.1-0.5,0.1C104.601,58.6,104.4,58.5,104.3,58.3z"/>
<path fill="#333333" d="M99.5,64.6l-0.1-0.1c-0.101,0.1-0.101,0.1-0.2,0.1c-2.8,0.8-5.1,1.6-7,2.5c-1,0.5-1.8,0.8-2.4,1.2
	c0,0-0.1,0-0.2,0.1c-0.5,0.4-0.8,0.6-0.8,0.8c0,0.3,0,0.4,0.1,0.5c0.2,0.2,0.4,0.4,0.7,0.4l0,0c0.1,0,0.2,0,0.2,0
	c0.3,0,1.5-0.5,3.7-1.5c0,0.5,0.1,1,0.3,2l0.6,0.2c-2.4,0.8-3.8,1.5-4,1.9c0,0,0,0,0,0.1v0.1c0.1,0.2,0.2,0.3,0.2,0.4
	c0.2,0,0.2,0,0.4,0c2.8-0.8,5-1.5,6.4-1.9c2.6-0.8,4.399-1.6,5.7-2.4l-0.301-0.2c-0.1,0-0.199,0-0.399,0H102.3l0,0
	c-0.5,0-1,0-1.6,0.1c-0.1,0-0.1,0-0.1,0c-1.301,0.3-2.9,0.7-4.7,1.4c0.1-0.2,0.1-0.2,0.2-0.3c0.199-0.4,0.3-0.8,0.3-1.2
	c0-0.7-0.101-1-0.601-1.2c2-1,3.301-1.8,3.7-2.1c0.101-0.2,0.2-0.3,0.2-0.4c0-0.2-0.1-0.3-0.1-0.5H99.5z"/>
<path fill="#DDDDDD" d="M90.6,73.3c0-0.1-0.1-0.2-0.2-0.4c-0.5,0.2-0.9,0.4-1.1,0.6c-1.2,0.4-1.7,1-1.9,1.6c0.4,0.2,0.9,0.5,1.2,1
	c0.4,0.4,0.7,0.7,1,1c0.7,0.3,1.7,1.6,3.1,3.9c1.6,2.7,3.5,4.1,5.5,4.1c2.9,0,5.2-1.3,7.1-3.8c1.301-2.5,2.301-4,2.801-4.4
	c0.1-1.1,0.3-2.4,0.6-3.9c0.4-1.9,0.5-3.1,0.5-3.4c0-1-0.5-1.7-1.3-1.7c-0.7,0-1.7,0.2-3.101,0.5c-1.199,0.2-2,0.4-2.399,0.4
	c0.2,0,0.3,0,0.399,0l0.301,0.2c-1.301,0.8-3.101,1.6-5.7,2.4c-1.4,0.4-3.6,1.1-6.4,1.9C90.8,73.3,90.8,73.3,90.6,73.3z"/>
<path fill="#333333" d="M88.7,77.1c0,0,0,0.2-0.1,0.2c0.3,2.1,1,3.8,1.9,5.3c1.8,2.7,5.2,4.1,10.101,4.1c1.699,0,3.5-1.4,5.399-4.2
	c1.101-1.8,1.8-3.2,2.2-4.2c0.1-0.5,0.1-0.8,0.1-1.1s0-0.4-0.1-0.4c0,0,0,0-0.1,0v0.1c-0.5,0.4-1.5,1.9-2.801,4.4
	c-1.899,2.5-4.199,3.8-7.1,3.8c-2,0-3.9-1.4-5.5-4.1c-1.4-2.3-2.4-3.6-3.1-3.9c-0.2-0.1-0.3-0.2-0.4-0.2
	C88.9,76.9,88.8,77,88.7,77.1z"/>
<path fill="#333333" d="M79.1,115.5c0.5-0.6,0.7-1.399,0.7-2.2c0-2-0.5-3.199-1.7-3.699c-0.4-0.301-0.9-0.4-1.5-0.5
	c-2.3,0-4.8,1.399-7.5,4.199c-1.5,1.7-2.9,3.5-4,5.601c-0.8,1.2-1.5,2.899-2.7,5.2c0.4-0.5,0.9-1.101,1.2-1.601c0.1,0,0.1,0,0.2-0.2
	c0.6-1,1.3-2,2-2.8c0.7-0.899,1.5-1.899,2.1-2.8c3.2-3.9,5.9-5.9,8.2-5.9c1,0,1.5,0.7,1.9,2C78.4,114.5,78.8,115.3,79.1,115.5z"/>
<path fill="#DDDDDD" d="M135.601,167.5c-0.2,0.3-0.4,0.7-0.601,1.3c-0.5,1.2-0.7,2.4-0.7,3.5c0,1,4.2,2.801,12.5,5.4
	c0.4-1.2,0.7-2.2,0.9-2.8c0.3-1.3,0.5-2.3,0.5-3c0-0.8-2.1-1.8-6.1-3C138.8,168.101,136.7,167.601,135.601,167.5z"/>
<path fill="#333333" d="M74.6,116.101c-1.2,0-2.6,0.8-4.4,2.5c-0.8,0.8-1.6,1.699-2.4,2.5c-0.7,0.899-1.4,1.8-2,2.8l0,0
	c-1.4,2.2-2,3.899-2,5.2c0,0.699,0,1.1,0.1,1.199c0.2,0.801,1,1.301,2.2,1.301c0.5-0.9,0.9-1.801,1.3-2.7c0.9-1.8,1.9-2.8,2.9-2.8
	c0,0,0.3,0.399,0.7,0.8c0.4,0.6,0.8,0.8,1.3,0.8c1.3,0,2.3-1.4,3.3-4.1c0.7-2.801,1-4.301,1-4.301C76.6,117.101,76,116,74.6,116.101
	z M75.1,118.101v2.5c-0.8,2.699-1.7,4.5-3,5.5c-0.2-0.301-0.3-0.5-0.5-0.601c-0.3-0.2-0.8-0.399-1.5-0.399c-0.5,0-1,0.199-1.5,0.399
	c-0.8,0.3-1.3,0.8-1.8,1.601c-0.5,0.6-0.9,1.5-1.4,2.5l-0.1-0.101c1.1-2.7,2-4.7,2.8-6C69.3,121.101,71.7,119.3,75.1,118.101z"/>
<path fill="#484848" d="M75.1,120.601v-2.5c-3.4,1.199-5.8,3-7,5.399c-0.8,1.3-1.7,3.3-2.8,6l0.1,0.101c0.5-1,0.9-1.9,1.4-2.5
	c0.5-0.801,1-1.301,1.8-1.601c0.5-0.2,1-0.399,1.5-0.399c0.7,0,1.2,0.199,1.5,0.399c0.2,0.101,0.3,0.3,0.5,0.601
	C73.4,125.101,74.3,123.3,75.1,120.601z"/>
<path fill="#333333" d="M6.8,120.9c1,2.2,2.3,3.2,3.9,3.2c0.4,0,0.7-0.101,0.9-0.301c0.2-0.3,0.3-0.5,0.4-0.5
	c0.4,1.2,0.7,1.9,1,2.301c0.6,1.3,1.4,2,2.4,2c0.4,0,0.6-0.4,0.7-1.101c0-0.2,0-0.7,0-1.6c0-1.5-0.3-3.101-0.7-4.8
	c-0.4-1.801-1-3.301-1.8-4.7c-1.9-2.5-3.6-3.4-5.3-2.8c-1.5,0.699-2.2,2.3-2.2,5.199C6.1,117.8,6.3,118.8,6.8,120.9z M9.4,114.9
	c0,0.2,0.4-0.101,1.2-0.601c0.5,0.5,1.1,1.801,2,3.801c1,2.199,1.4,3.6,1.4,4.199c0,0.5,0,0.601-0.1,0.5
	c-1.3-2.1-2.2-3.199-2.8-3.199c-0.7,0-1,0.3-1,1c0,0.3,0,0.899,0.1,1.6c-0.6-0.4-1.2-1.1-1.8-2.1c-0.4-1-0.6-1.801-0.6-2.5
	c0-2.101,0.5-3.101,1.5-3.101C9.4,114.5,9.5,114.601,9.4,114.9z"/>
<path fill="#484848" d="M10.6,114.3c-0.8,0.5-1.2,0.801-1.2,0.601c0.1-0.3,0-0.4-0.1-0.4c-1,0-1.5,1-1.5,3.101
	c0,0.699,0.2,1.5,0.6,2.5c0.6,1,1.2,1.699,1.8,2.1c-0.1-0.7-0.1-1.3-0.1-1.6c0-0.7,0.3-1,1-1c0.6,0,1.5,1.1,2.8,3.199
	c0.1,0.101,0.1,0,0.1-0.5c0-0.6-0.4-2-1.4-4.199C11.7,116.101,11.1,114.8,10.6,114.3z"/>
<path fill="#DDDDDD" d="M74.4,12.8c-8.2,0-13.3,5.3-15.1,16c-0.5,2.7-1,6.3-1.5,11c-0.5,3.1-1.4,4.8-2.5,5c0.8,0.7,1.3,1.3,2,1.8
	c0.6,0.5,1.3,1,2,1.3c0.1-1.4,0.5-5.3,1.1-11.3c0.6-5.3,1.4-9.3,2.7-12.5c0.7-2,4.2-3.6,10.2-5.1c5-1.2,9.3-1.8,13-1.8
	c4.9,0,8.8,1.6,11.8,4.8c1.3,1.4,3.199,4.5,5.899,9.2l0.8-0.4c0-0.9-0.3-2.4-1-4.7c-0.5-2-0.699-3.4-0.699-4.5h0.5
	c0-0.4,0.199-0.5,0.5-0.5c-0.2-0.7-0.7-2.2-1.4-4.3c-0.6-2.2-1.2-3.3-1.6-3.3c-0.301,0-0.801,0.1-1.601,0.3
	c-0.899,0.1-1.399,0.2-1.6,0.2c-7.9,0-13.6-0.2-16.7-0.5C78.1,13.1,75.8,12.8,74.4,12.8z"/>
<path fill="#A59F8A" d="M61.8,48.5c0.3-0.1,0.5-0.2,0.8-0.3c0.7-0.3,1.2-0.4,1.2-0.4c0.3,0.1,0.4,0.1,0.5,0.1s0.2,0.2,0.2,0.5
	c0,0.2-0.1,0.4-0.2,0.6c0.1,0.1,0.3,0.1,0.5,0.1c0.3,0.3,0.5,0.8,0.5,1.7c0,2.1-0.5,4-1.5,5.7c-1.2,1.8-2.7,2.8-4.7,2.8
	c-1.8,0-3.3-0.9-4.5-2.7c-0.2-0.1-0.3-0.4-0.5-0.7c-0.6-1-1.5-2.5-2.7-4.6c0.3,1.6,0.7,3.3,1.4,5.3c1.3,3.7,2.8,6,4.3,6.6
	c-0.3,0.4-0.5,0.6-0.8,0.8c0.3,0,0.8,0.1,1.5,0.3c0.7,0.3,1.2,0.3,1.4,0.3c2.9,0,5.4-2.1,7.4-6.5c1.4-4.3,2-6.5,2-6.5
	c0-1-0.1-2-0.4-3.1c-0.2-1-0.6-1.6-1-1.9c-0.1-0.1-0.2-0.2-0.3-0.3c-0.1-0.1-0.3-0.2-0.6-0.2c-1,0-2,0.4-2.6,0.8l-1.4,1.3
	c-0.2,0.2-0.3,0.3-0.4,0.3H61.8z"/>
<path fill="#BFB9A6" d="M63.6,49.5c-0.6,0.5-1.4,0.8-2.3,0.8c-1.7,0-3.7-1-5.9-2.7c-1.4-1.3-2.3-2.3-2.8-3c-0.2,0.2-0.5,0.9-0.8,2
	c-0.4,1-0.6,1.5-0.6,1.9c0,0.8,0.1,1.8,0.2,2.8c1.2,2.1,2.1,3.6,2.7,4.6c0.2,0.3,0.3,0.6,0.5,0.7c1.2,1.8,2.7,2.7,4.5,2.7
	c2,0,3.5-1,4.7-2.8c1-1.7,1.5-3.6,1.5-5.7c0-0.9-0.2-1.4-0.5-1.7c-0.2,0-0.4,0-0.5-0.1C64.1,49.1,63.9,49.3,63.6,49.5z"/>
<path fill="#919191" d="M50.1,65.4c-0.3-0.1-0.6-0.2-0.9-0.5c-1.6-0.3-3.1-1.2-4.8-2.8c-0.1,0.3-0.5,0.7-1,1.4
	c-0.8,0.9-1.1,1.3-1.1,1.4c0,0.2,0.8,1.6,2.5,4.1c0,0.3,0,0.5,0,0.5v0.3c0.9,0.8,1.6,1.3,2.3,1.3c0.4,0,1-0.9,1.8-2.5
	C49.6,67.3,50,66.2,50.1,65.4z"/>
<path fill="#9D9D9D" d="M44.7,69.6c0.1,0,0.1,0.1,0.1,0.2v-0.3L44.7,69.6z"/>
<path fill="#A2A2A2" d="M134.101,19.4c-1.301-0.4-2.7-1.3-4-2.5c-1.2-1-2.9-3-5.5-6c-4.9-5.9-8.9-8.8-12.4-8.8
	c-3.3,0-6.4,0.7-9.6,1.9c-1.9,0.8-3.5,1.7-5,2.8C97,7.3,95.8,8.3,94.1,9.8c-1.5,1.1-2.7,1.9-3.9,2.3c1.9,0,3.9,0,5.9,0
	c0.199,0,0.5,0,0.8,0c1.3-0.6,3.3-2,6.1-3.9c2-1.4,3.8-2.1,5.7-2.1c2.4,0,6.5,2.4,12.2,6.8c5.1,4,8.399,6.5,10.2,7.6
	C132.101,20.1,133.2,19.8,134.101,19.4z"/>
<path fill="#A2A2A2" d="M133.3,23.9c3.7-1.2,5.9-1.8,6.9-1.8c1.8,0,3.1,1.2,3.9,3.8c0.5,1.7,0.699,3.7,0.699,6
	c0,0.9-0.199,1.9-0.699,3c-0.101,0.4-0.4,0.9-0.7,1.3c1.8-1.3,3-2.4,3.8-3.4c1-1.5,1.5-4,1.5-7.6c0-2.2,0.2-4.1,0.7-5.4
	c-0.2-0.3-0.2-0.7-0.2-0.9c0-0.9,0.1-1.6,0.1-2.4c0-0.6-0.1-1.2-0.199-1.7c-0.4-1-0.801-1.5-1.4-1.5c-0.9,0-3.5,1.8-7.9,5.2
	c-5.6,3.3-12.3,5-19.8,5c-1.7,0-2.6,0.5-2.899,1.6c-0.5,1-0.9,1.5-1.301,1.5c-0.5,0-0.699-0.5-0.699-1.4c0-0.6,0.1-1.3,0.3-1.7
	c-0.7,0.1-1.2,0.4-1.601,1.2c-0.1,0.4-0.199,0.8-0.199,1.2c0,0.4,0.5,1.9,1.5,4.6c0.1-0.4,0.1-0.7,0.199-1
	c0.2,0,0.301-0.1,0.301-0.2c0.1,0.3,0.5,1,1.199,1.8c0.5-1.6,1.601-2.7,3.4-3.3c0.2-0.1,2.5-0.7,7-1.7
	C127.2,26.1,129.2,25.5,133.3,23.9z"/>
<path fill="#BFBFBF" d="M113.2,64.5c-0.5-0.4-1-0.7-1.4-1.2c0.101,0.4,0.2,0.8,0.301,1.4L113.2,64.5z"/>
<path fill="#919191" d="M113.2,64.5l-1.1,0.2c0.199,1.6,0.6,3.7,1,6.3c0.5,4.5,0.8,7.9,0.8,10.1c0,3.7-0.7,8.7-2.3,15.4
	c-1.301,5-2.601,9.601-4.101,14.101c-1.2,3.3-4.1,8.3-8.7,14.699c-0.3,0.4-0.6,0.9-0.899,1.4c0.899,0.5,1.899,1.4,3.2,2.8
	c2.699,3.3,4.699,5.3,5.5,6c1.199,1.5,3.699,3.101,7.6,4.9c2.6,1.2,5,2.2,6.9,3.1c-1.9-1.1-4.301-3.6-7-7.3
	c-3.801-5-5.7-8.8-5.7-11.3c0-1.2,0.5-3,1.6-5.4c1.4-3.2,2.601-5.7,3.4-7.7c3.3-7.699,5-14.699,5-20.899c0-3.5-0.7-8.3-2.101-14.5
	C115.2,71.1,114.101,67.1,113.2,64.5z"/>
<path fill="#AEAEAE" d="M80.6,108.5c0.5-0.5,0.7-1,0.7-1.7c0-2.5-1.7-4.899-5.2-7.3c-3.1-2.2-5.9-3.399-8.3-3.399
	c-1,0-2.2,0.5-3.9,1.199C62.3,97.9,61,98.601,60.1,99c-0.9,1.3-2,2.8-3.2,4.101c-4.8,5.399-10.6,7.699-17.2,7.199
	c-0.1,0-0.1-0.1-0.1-0.199c-1-0.601-1.6-0.9-2-0.801c0.1-0.199,0.2-0.199,0.2-0.399c-0.7,0.1-1.4,0.1-2.1,0.1
	c-7,0-12.9-1.3-17.9-3.899l-0.7,1.6c2.9,2.9,4.5,5.3,5,7.1l0.7-0.199c0.3-0.2,1.3-0.5,3.2-1.101c2.1-0.7,3.5-0.899,4.3-0.899
	c3.7,0,8.3,1.199,13.8,3.5c5.5,2.199,8.7,3.399,9.9,3.399c4.1,0,7.9-2,11.2-6.2c1.7-2.199,3-3.5,3.8-4.199c1.6-1.301,3.4-2,5.4-2
	c0.9,0,1.7,0.399,2.7,0.8c1,0.6,1.5,1,1.5,1.399c0,0.2,0,0.301,0,0.4C79.6,108.9,80.2,108.9,80.6,108.5z"/>
<path fill="#919191" d="M86.8,136.601c0.3,0,0.5,0.199,0.8,0.3c0.5,0.399,0.9,0.7,1.2,1.1c0.5-1.7,1.6-3.899,3.5-6.7
	c3.5-5,6.2-9,8.1-12.1l-0.101-0.9c-1.199,1.5-3.199,3.301-5.7,5.5c-7.2,6.4-10.8,9.801-10.8,10.301c0,0.699,0.4,1.199,1.2,1.5
	C85.4,135.8,86,136.101,86.8,136.601z"/>
<path fill="#919191" d="M162,144.101c-3.3,5-4.8,11-4.8,17.899c0,1.601,0.8,3.101,2.5,4.601c1.7,1.399,2.5,2.5,2.5,3
	c0,2.5-0.1,4.399-0.4,5.899c1.4-0.399,2.801-1,4.2-1.6c-0.8-0.101-1.2-0.8-1.2-2c0-0.3,0.2-0.8,0.5-1.9c0.4-1.1,0.5-1.8,0.5-2.2
	c0-0.899-0.5-1.699-1.5-2.399c-1-0.8-1.6-2.5-1.6-5.101c0-3.8,1-8.6,3-14.399c2-4.7,3.3-8.601,4.3-11.4l-1-0.3
	c-0.899,0.8-2,1.4-3.2,2.1c-0.1,0.601-0.399,1.2-0.6,1.7C164.7,139.601,163.601,141.601,162,144.101z"/>
<path fill="#919191" d="M128.7,146.3c-0.2,0-0.3,0-0.5,0c0,0-0.1,0-0.2-0.1c-0.399,0.1-0.7,0.2-0.8,0.6c0,0.101,0,0.801,0,2
	c0,1.301,0.1,3.2,0.6,5.601c0.4,2.399,0.601,3.8,0.601,4.2c0,1.199-1.101,3.199-3.2,6.1s-3.2,5.4-3.2,7.6c0,0.101,0,0.2,0,0.301
	c1.5,0.199,3.2,0.3,4.8,0.3c0.301,0,0.601,0,1.301,0.1c0.1,0,0.1,0,0.199,0c0.101-0.8,0.101-1.5,0.2-2.1
	c0.101-0.3,0.3-1.601,0.7-3.7c0.2-1.1,1.4-2.4,3.6-3.7c0.4-0.2,0.5-0.3,0.801-0.399c-1-0.5-1.9-3.2-2.9-8c-0.9-5.301-1.3-7.9-1.3-8
	c0-0.301,0-0.5,0-0.801C129.2,146.3,128.9,146.3,128.7,146.3z"/>
<path fill="#919191" d="M72.3,147.2c-1.2-0.4-2.2-0.6-2.9-0.8c-4.9-0.9-7.6-1.5-8.2-1.601c-4.8-0.8-8.9-1.199-12.4-1.199
	c-0.4,0-3.8,0.699-10.5,2.199l-0.3,0.4c0.4,0.7,1.3,1.9,2.3,3.7c1.7,2.2,3.6,3.7,6,4.7c-0.3-0.4-0.7-1-1.2-1.801
	c-0.3-0.899-0.5-1.6-0.5-2.199c0-1.5,0.6-2.601,1.7-3.101c0.8-0.399,2-0.6,3.5-0.6c1.6,0,4,0.3,7.3,0.8c3.2,0.5,5.4,0.8,6.6,0.8
	c1,0,2.4-0.2,4.4-0.399c1.9-0.301,3.2-0.4,4-0.4L72.3,147.2z"/>
<path fill="#BFBFBF" d="M37.8,145.9c0,0.1,0.2,0.2,0.2,0.3l0.3-0.4C38.1,145.8,38,145.9,37.8,145.9z"/>
<path fill="#A2A2A2" d="M180.2,97.101c0-1.7-0.2-3.7-0.6-6l-0.9-0.1c-0.6,3.8-2.5,7.9-5.7,12.101c-3.899,5.199-7.3,7.8-10.3,7.699
	c1.2,2.101,1.9,4,2.2,5.7c0.399,1.601,0.6,4.101,0.7,7.3h0.6c0.4,1.101,0.5,2.5,0.5,4.101c0,2-0.1,3.899-0.4,5.6
	c0.4-0.2,0.7-0.6,1-0.899c1.301-1,2.301-1.801,2.9-2V130c3.5-4.7,6-9.5,7.6-14.7C179.4,110.101,180.2,104.101,180.2,97.101z"/>
</svg>
